<svg width="22" height="20" viewBox="0 0 22 20" fill="none" xmlns="http://www.w3.org/2000/svg">
<path fill-rule="evenodd" clip-rule="evenodd" d="M21.0134 4.05065C20.6336 3.81858 19.9585 3.90297 19.4522 3.81858C18.8826 3.77639 18.3341 3.7342 17.8277 3.62871C17.4058 3.75529 16.9628 3.67091 16.4986 3.692C16.0556 3.7131 15.5703 3.75529 15.1062 3.75529C12.1737 3.75529 9.34672 3.81858 6.56191 3.88188C6.22436 3.94517 5.84461 3.96626 5.48596 4.00846C5.2328 3.45993 5.14841 2.74264 5.06402 2.02534C5.02183 1.66669 4.93744 1.35023 4.87415 1.01268C4.74757 0.928289 4.78976 0.696222 4.68427 0.590737C4.62098 0.443057 4.4733 0.358669 4.45221 0.168796C4.11465 0.168796 3.94588 -0.0210777 3.54503 0.0422134C3.48174 0.0844075 3.37626 0.126602 3.24968 0.105505C2.57457 0.358669 2.04714 0.738416 1.39314 1.01268C0.696933 1.07597 0.169507 1.30804 0.000730845 1.94095C-0.0203662 2.2785 0.000730848 2.57386 0.190604 2.72154C0.232798 2.9958 0.50706 3.03799 0.675836 3.20677H1.39314C1.39314 3.10128 1.60411 3.16458 1.6252 3.08019C1.6463 2.9747 1.73069 2.95361 1.87837 2.95361C1.85727 2.70044 2.04714 2.63715 2.06824 2.40508V1.64559C2.82773 1.64559 2.99651 1.05487 3.7982 1.09707C4.11465 3.12238 4.66318 4.93673 5.00073 6.94095C5.42267 8.86078 5.78132 10.865 6.20326 12.7848C5.86571 12.7637 5.63364 12.8481 5.35938 12.9114C5.10622 13.1435 4.81086 13.3334 4.5155 13.5232C4.22014 13.7342 4.00917 14.0085 3.7982 14.3038V15.3376C3.94588 15.4431 4.03027 15.6118 4.15685 15.7595C4.30453 15.865 4.5366 15.9072 4.64208 16.0549C6.49862 16.4346 8.56613 15.9072 10.2328 15.5696C11.8573 15.6962 13.6505 15.654 15.2961 15.7595H17.9332C18.0176 15.9072 18.3552 15.7806 18.545 15.8228H19.199C19.6421 15.8228 19.9796 15.7173 20.0429 15.3376C20.0851 14.8734 19.8109 14.6836 19.4311 14.6203C18.0809 14.6203 16.6674 14.6414 15.4016 14.557H10.0007C9.55769 14.6203 9.19904 14.7469 8.73491 14.789C8.41845 14.9789 7.80664 14.8734 7.53238 15.0844C6.98385 15.0422 6.6252 15.1899 6.09778 15.1477C5.59145 15.1477 5.06402 15.1688 4.89525 14.8523C5.02183 14.4515 5.48596 14.4093 5.67584 14.0717C5.88681 14.0296 6.03449 13.903 6.28765 13.8819C6.28765 13.7764 6.47752 13.8397 6.47752 13.692C6.51972 13.6076 6.56191 13.5021 6.70959 13.5021C6.79398 13.7131 7.02605 13.4599 7.19482 13.6287C7.27921 13.7764 7.40579 13.8819 7.68006 13.8608C10.4016 13.8186 12.9754 13.3544 15.6758 13.5021C16.0345 13.4177 16.4353 13.3755 16.8151 13.3123H18.2497C18.8193 13.3755 19.621 13.5654 20.064 13.249C20.3383 12.9325 20.064 12.384 20.4227 12.1097C20.4227 11.5612 20.5914 11.1604 20.6125 10.6118C20.8024 10.2743 20.8657 9.78905 21.0345 9.4093C21.2244 9.02955 21.3087 8.56542 21.5197 8.20677C21.6463 6.81437 21.7729 4.87344 21.0134 4.05065ZM13.2497 4.89453C13.2708 5.31647 13.3552 5.71732 13.3763 6.16036C13.3974 6.37133 13.4606 6.5612 13.4395 6.81436C13.5872 6.89875 13.3974 7.2785 13.5661 7.36289C13.545 7.48947 13.2708 7.38399 13.1442 7.42618H12.659C11.9628 7.51057 11.2666 7.57386 10.486 7.55276C10.2539 6.66669 9.93744 5.865 9.76866 4.89453H13.2497ZM6.49862 8.31226C6.20326 7.10972 5.86571 5.97048 5.65474 4.70466C6.77288 4.83124 7.93322 4.91563 9.19904 4.89453C9.17794 5.97048 9.55769 6.62449 9.4944 7.72154C8.69271 7.72154 8.0809 7.91141 7.32141 7.95361C7.04714 8.05909 6.79398 8.20677 6.49862 8.31226ZM8.37626 12.7637C8.0598 12.827 7.74335 12.8903 7.46908 12.9958C7.19482 11.6245 6.85727 10.3165 6.6252 8.90297C7.57457 9.17723 8.62942 8.88188 9.70537 8.90297C9.91634 9.89453 9.70537 11.308 9.93744 12.2785C10.1273 12.3207 10.1906 12.5106 10.4227 12.5106C11.3931 12.3629 10.9079 10.8439 10.9712 9.91563C10.9079 9.55698 10.8024 9.19833 10.7813 8.77639C11.6674 8.64981 12.5957 8.58652 13.6083 8.58652C13.6294 9.85234 13.7138 11.0971 13.8404 12.2574C12.026 12.4684 10.2539 12.6582 8.37626 12.7637ZM16.4986 12.1097C15.8446 12.2152 15.2117 12.3207 14.4522 12.2996C14.3889 11.076 14.2623 9.91563 14.2623 8.62871H16.6041C16.6885 9.66247 16.4353 10.865 16.4986 12.1097ZM16.7307 7.42618C15.9501 7.57386 15.064 7.34179 14.1357 7.42618C14.1147 6.51901 13.9459 5.78061 13.9037 4.89453C14.8741 4.78905 15.8024 4.87344 16.794 4.89453C16.7096 5.67512 16.7307 6.5612 16.7307 7.42618ZM20.2961 8.20677C19.8741 8.83968 19.7265 9.76795 19.3256 10.4431C19.3045 11.076 19.1779 11.6245 19.0936 12.1941C18.5028 12.1097 17.8699 12.0886 17.237 12.0675C17.5113 11.0971 17.4902 9.83124 17.5957 8.692C18.3341 8.54432 19.3045 8.62871 19.7054 8.14348C19.2623 7.74263 18.4606 7.70044 17.659 7.65825V4.83124C18.545 4.89453 19.3889 5.00002 20.3172 5.02112C20.486 5.92829 20.4227 7.2574 20.2961 8.20677ZM8.24967 16.2658C7.65896 16.2869 7.27921 16.5401 6.85727 16.7511C6.6252 17.0464 6.37204 17.2996 6.30875 17.7848C6.26655 18.1857 6.43533 18.3755 6.54081 18.6287C6.35094 18.8819 6.6463 19.1139 6.60411 19.4093C6.87837 19.5359 6.94166 19.8734 7.25811 19.9578C7.82773 20.1266 8.39735 19.8734 8.88259 19.7679C8.92478 19.6414 9.05136 19.5992 9.17795 19.5781C9.62098 19.1139 10.064 18.6709 10.1484 17.827V17.4684C10.0218 16.962 9.72647 16.6456 9.43111 16.3291C9.07246 16.3291 8.62942 16.0549 8.24967 16.2658ZM8.86149 18.1224C8.62942 18.2279 8.58723 18.5021 8.31297 18.5443C7.97541 18.3755 7.55347 18.249 7.30031 17.9958C7.3847 17.2996 8.35516 17.0253 9.05136 17.3418C9.07246 17.7215 8.96697 17.9325 8.86149 18.1224ZM18.4184 16.3291C18.2075 16.2658 17.659 16.2025 17.448 16.3291C17.1104 16.308 16.9417 16.4557 16.6041 16.4557C16.4142 16.6034 16.1822 16.7089 15.9501 16.8144C15.8446 17.0675 15.5282 17.1308 15.4649 17.4262C15.3383 17.7848 15.4227 18.3544 15.4016 18.8186C15.5071 18.9241 15.5703 19.0928 15.6969 19.1772C15.7391 19.346 15.9712 19.346 15.9923 19.5359C16.2666 19.4726 16.2876 19.6414 16.4775 19.6625C16.9839 19.6836 17.4058 19.6414 17.7433 19.4726C17.9332 19.4304 18.102 19.346 18.2286 19.2405C18.4606 19.1983 18.4817 18.9663 18.7138 18.9452C18.9037 18.481 19.1779 18.1435 19.199 17.5106C19.1568 17.2574 19.0303 17.0886 19.0092 16.7933C18.756 16.6878 18.7138 16.3713 18.4184 16.3291ZM17.4058 18.3755C17.0049 18.2912 16.4142 18.4177 16.4986 17.827C16.5408 17.6371 16.7518 17.595 16.9206 17.5317C17.026 17.4262 17.3003 17.4684 17.4058 17.3418C17.7433 17.3629 17.8277 17.2785 18.0598 17.3418C18.0809 17.9325 17.7433 18.1435 17.4058 18.3755Z" fill="currentColor" fill-opacity="0.8"/>
</svg>
