<svg width="9" height="17" viewBox="0 0 9 17" fill="none" xmlns="http://www.w3.org/2000/svg">
<path d="M0.00484534 5.66015C0.683359 5.66015 1.34249 5.66015 2.04039 5.66015C2.04039 5.57131 2.04039 5.4958 2.04039 5.41585C2.05008 4.72738 2.02585 4.0389 2.07916 3.35487C2.21002 1.6892 3.7609 0.187883 5.57835 0.0413046C6.61551 -0.0430891 7.67205 0.0279793 8.73344 0.0279793C8.73344 0.92966 8.73344 1.86243 8.73344 2.8263C8.36026 2.8263 7.98223 2.8263 7.60905 2.8263C7.29402 2.8263 6.979 2.82186 6.66398 2.8263C6.12601 2.83962 5.67528 3.21717 5.66074 3.70133C5.64136 4.34538 5.6559 4.985 5.6559 5.65127C6.76575 5.65127 7.86591 5.65127 9 5.65127C8.96123 5.80229 8.93215 5.92666 8.89822 6.05103C8.69467 6.80169 8.48627 7.55235 8.28756 8.30745C8.24879 8.45847 8.18579 8.50733 8.01616 8.50289C7.31341 8.494 6.61551 8.49844 5.91276 8.49844C5.83522 8.49844 5.75767 8.49844 5.65105 8.49844C5.65105 9.9287 5.65105 11.3367 5.65105 12.7492C5.65105 14.1617 5.65105 15.5697 5.65105 17C4.44911 17 3.26171 17 2.04523 17C2.04523 14.1795 2.04523 11.3545 2.04523 8.50733C1.35218 8.50733 0.68336 8.50733 0 8.50733C0.00484653 7.55235 0.00484534 6.61957 0.00484534 5.66015Z" fill="#4150A3"/>
</svg>
