<svg width="21" height="20" viewBox="0 0 21 20" fill="none" xmlns="http://www.w3.org/2000/svg">
<path fill-rule="evenodd" clip-rule="evenodd" d="M20.1936 6.22423C19.937 5.98894 19.5305 5.8392 19.0813 5.96755C18.5466 5.92477 18.1616 6.03172 17.7124 6.09589H14.9958C14.7391 6.05311 14.3113 6.18145 14.1615 6.03172C14.2471 5.88199 14.5894 5.98894 14.6749 5.8392C14.9102 5.79642 15.0172 5.66808 15.2525 5.64669C15.5091 5.47557 15.723 5.26166 16.0225 5.13332C16.2578 4.83386 16.5573 4.57717 16.7926 4.2991C16.9851 3.95685 17.2845 3.70017 17.4343 3.33653C17.5626 2.9515 17.6696 2.5237 17.6268 1.96755C17.5412 1.94616 17.5626 1.86059 17.5626 1.77503C17.3487 1.32584 16.9637 1.06915 16.6642 0.726905C16.2578 0.662733 15.9583 0.47022 15.5519 0.406049C14.8888 0.384659 14.2685 0.406049 13.6696 0.47022C13.5626 0.577172 13.4343 0.662733 13.2204 0.662733C12.9851 0.855247 12.7712 1.04776 12.5145 1.1761C12.2364 1.51835 11.9369 1.8392 11.6803 2.22423C11.4022 2.58787 11.2311 3.03707 10.9102 3.33653C10.8674 3.80712 10.6107 4.0638 10.5252 4.513C10.2685 4.44883 10.076 4.2991 9.75513 4.32049C9.49844 4.36327 9.07064 4.513 8.9209 4.44883C8.77117 3.59321 8.51449 2.82316 8.27919 2.05311C7.97973 1.30444 7.63748 0.619953 7.03855 0.170755C6.73909 0.106584 6.50379 0.0210222 6.14015 0.0424126C5.6054 0.192145 5.13481 0.427439 4.707 0.684124C4.23641 1.21888 3.8086 1.81781 3.87277 2.88733C4.0439 3.89268 4.55727 4.55578 5.11342 5.15471C5.56261 5.43279 6.0332 5.68947 6.4824 5.98894C5.86208 6.11728 5.00646 6.03172 4.27919 6.05311C3.61609 6.18145 2.9316 6.30979 2.20432 6.37396C1.90486 6.48092 1.54122 6.5237 1.1562 6.56648C0.985072 6.63065 0.813949 6.63065 0.664217 6.69482C0.514484 6.75899 0.27919 6.75899 0.27919 6.9515C0.0866762 6.9515 0.150847 7.22958 0.150847 7.4007C0.193628 7.636 0.0438954 7.67878 0.0866762 7.91407V9.09054C-0.0630565 9.13332 0.0652858 9.45418 0.022505 9.60391V10.1815C0.022505 10.5879 -0.0202757 11.0371 0.150847 11.2937C0.386142 11.4221 0.728388 11.4435 1.13481 11.4221C1.39149 11.5504 1.92625 11.4007 2.18293 11.5504C2.11876 13.4542 2.05459 15.3579 1.99042 17.2617C2.14015 17.9675 2.18293 18.8018 2.56796 19.2724C3.20967 19.3793 3.97973 19.3365 4.707 19.3365C8.17224 19.6146 11.6589 19.9141 15.4664 19.8499C16.2578 19.9569 17.4343 20.1066 18.1829 19.8499C18.5038 19.4435 18.6107 18.8446 18.6963 18.2242V12.3847C18.6107 12.3633 18.6321 12.2349 18.6321 12.128C18.5252 12.0424 18.6321 11.7429 18.4396 11.7429C18.5038 11.5718 18.076 11.5504 18.3113 11.4221C18.7391 11.4435 19.1241 11.529 19.6161 11.4863C19.8514 11.2938 20.1722 11.1654 20.2578 10.8446C20.4931 9.28306 20.0011 7.74295 20.1936 6.22423ZM10.7177 5.06915C10.9102 5.06915 11.0172 4.98359 11.1669 4.94081C11.7658 3.76434 12.4075 2.67343 13.2418 1.75364C13.4984 1.71086 13.6696 1.58252 13.8193 1.43279C14.2471 1.36862 14.7391 1.34723 15.2525 1.36862C15.83 1.47557 16.3006 1.71086 16.5573 2.13867C16.4717 2.93011 16.0653 3.42209 15.6589 3.89268C15.4022 4.08519 15.1883 4.34188 14.8888 4.47022C14.6535 4.66273 14.3113 4.7483 14.1188 4.98359C13.584 5.02637 13.2204 5.21888 12.8781 5.43279C12.7926 5.75364 13.3059 5.8392 13.199 5.94616C12.3648 5.92477 11.5733 5.8392 10.6749 5.88199C10.7819 5.73225 10.6963 5.34723 10.7177 5.06915ZM13.4343 5.96755C13.4343 6.03172 13.3487 6.01033 13.3059 6.03172C13.3059 5.96755 13.3915 5.98894 13.4343 5.96755ZM8.707 5.64669C8.83534 5.60391 8.89951 5.49696 9.09203 5.51835C9.22037 5.49696 9.22037 5.34723 9.28454 5.26166C9.54123 5.32584 9.66957 5.11193 9.79791 5.26166C9.75513 5.51835 9.86208 5.6253 9.86208 5.8392H9.02786C8.81395 5.79642 8.42893 5.92477 8.32197 5.77503C8.27919 5.60391 8.64283 5.49696 8.707 5.64669ZM5.51983 4.02102C5.24176 3.46487 4.83534 3.05846 4.94229 2.13867C5.04925 2.0745 5.09203 1.96755 5.07064 1.81781C5.45566 1.47557 5.96903 0.812466 6.63213 1.1761C7.12411 1.77503 7.35941 2.65204 7.53053 3.57182C7.5947 3.87129 7.76582 4.0638 7.85139 4.34188C7.87278 4.49161 7.95834 4.57717 7.91556 4.79108C8.10807 4.76969 7.85138 5.19749 8.0439 5.1761C7.85138 5.34723 7.53053 5.09054 7.33802 5.04776C7.12411 4.94081 6.84604 4.89803 6.6963 4.7269C6.20433 4.59856 5.90486 4.27771 5.51983 4.02102ZM1.04924 10.4381C0.942292 9.53974 0.942292 8.21354 1.04924 7.31514C2.09737 7.35792 3.01716 7.25097 3.82999 7.05846C5.32732 7.07985 6.73909 7.03707 8.17224 6.99429C8.0439 7.91407 8.0439 8.98359 8.06529 10.0531C8.15085 10.267 8.27919 10.4595 8.57866 10.4381C8.4931 10.5879 8.12946 10.4595 7.93695 10.5023H5.86208C4.4717 10.3098 2.52518 10.3526 1.04924 10.4381ZM7.91556 18.3526C7.89417 18.1387 8.00112 17.7964 7.78721 17.775C7.55192 17.775 7.5947 18.0745 7.5947 18.2884C7.12411 18.2884 6.67491 18.2884 6.28989 18.2242C6.35406 17.9248 6.67491 17.7109 6.41823 17.4542C5.96903 17.4756 5.94764 17.9248 5.71235 18.1601C5.51983 18.2456 5.09203 18.0959 4.74978 18.1601C4.81395 17.6467 5.17759 17.4542 5.26315 16.9836C5.41288 16.8552 5.45566 16.5986 5.584 16.4702C5.69096 16.3205 5.8193 16.1921 5.77652 15.8927C5.39149 15.7429 5.13481 16.1708 4.87812 16.3419C4.72839 16.6627 4.49309 16.8766 4.36475 17.1761C4.23641 17.2831 4.19363 17.497 4.10807 17.6253C4.00112 17.7323 4.02251 17.9675 3.91555 18.0745C3.65887 18.1173 3.82999 17.775 3.91555 17.7536C3.89416 17.5611 4.06529 17.5611 4.0439 17.3686C4.15085 17.1119 4.30058 16.9408 4.36475 16.6627C4.57866 16.5344 4.62144 16.2135 4.74978 16.021C4.83534 15.8285 5.1562 15.6146 5.00646 15.3793C4.85673 15.2082 4.4717 15.3579 4.36475 15.4435C4.21502 15.5504 4.08668 15.6788 3.97973 15.8285C3.85138 15.9569 3.70165 16.0852 3.65887 16.2777C3.44497 16.3419 3.50914 16.6627 3.27384 16.6627C3.18828 15.8499 3.68026 15.5932 3.78721 14.9729C3.95834 14.7804 4.00112 14.4595 4.10807 14.2028C4.19363 13.9889 4.34336 13.5825 4.10807 13.4328C3.70165 13.4756 3.46636 13.7109 3.33801 14.0103C3.16689 13.8178 3.3594 13.2617 3.20967 13.0478V12.0852C3.25245 11.8927 3.10272 11.8927 3.1455 11.7002V11.5077C4.96368 11.6146 6.76048 11.7429 8.72839 11.7002C8.55727 13.9675 8.707 16.4274 8.98507 18.4381C8.55727 18.4595 8.34336 18.3098 7.91556 18.3526ZM8.96369 7.27236C8.9423 7.12263 8.96369 7.01568 9.02786 6.9515C9.09203 7.01568 9.19898 7.03707 9.34871 7.01568C9.28454 7.16541 9.1562 7.25097 8.96369 7.27236ZM9.6054 15.8927C9.45566 15.8927 9.58401 15.6146 9.54122 15.5077C9.6054 15.1868 9.92625 15.1226 10.0546 14.8659C10.1188 14.8659 10.1615 14.8873 10.1829 14.9301V15.8927C10.0332 16.0424 9.75513 16.0638 9.66957 16.2777C9.54123 16.2777 9.64818 16.021 9.6054 15.8927ZM10.076 16.5558C10.2685 16.5772 10.1829 16.8766 10.2043 17.0692C10.0332 16.9836 9.86208 16.9836 9.69096 17.0692C9.69096 16.7697 10.0118 16.8125 10.076 16.5558ZM10.1402 18.2242C10.2257 18.2456 10.1829 18.3954 10.2043 18.4809C10.0118 18.4381 10.1188 18.3954 10.1402 18.2242ZM10.2043 18.0317C10.1188 17.9462 9.92625 17.9675 9.75513 17.9675C9.71235 17.5611 10.0974 17.5825 10.1402 17.2617C10.2685 17.39 10.1615 17.7964 10.2043 18.0317ZM10.2043 14.0745C9.84069 14.0531 9.77652 14.3312 9.49844 14.3954C9.62679 14.0103 10.0332 13.9034 10.076 13.4328C9.86208 13.2189 9.69096 13.5611 9.49844 13.5611C9.51984 13.2617 9.75513 13.1761 9.94764 13.0478C9.90486 12.7911 10.1188 12.7911 10.076 12.5344C10.0118 12.3205 9.94764 12.513 9.75513 12.4702C9.86208 12.1708 10.0974 12.021 10.1402 11.7002C10.2043 11.6788 10.2471 11.7216 10.2685 11.7643C10.2685 12.5558 10.1402 13.2403 10.2043 14.0745ZM10.2043 10.5237C10.2685 10.3526 10.4396 10.2884 10.461 10.0745C10.4824 9.90338 10.3755 9.8606 10.2043 9.88199C10.2257 9.58252 10.2043 9.32584 9.88347 9.36862C9.90486 9.04776 10.2685 9.04776 10.2043 8.66273C10.2471 8.38466 9.99042 8.40605 9.94764 8.21354C9.8193 8.12798 9.75513 7.97824 9.56262 7.95685C9.69096 7.61461 9.96903 7.46487 10.0118 7.05846C10.3755 7.07985 10.846 7.01568 11.1241 7.12263C11.0386 8.19215 11.0172 9.4114 11.1241 10.5023C10.9102 10.5879 10.4824 10.4809 10.2043 10.5237ZM17.3273 11.6788C17.3059 11.8285 17.2418 11.9569 17.199 12.0638C17.199 12.3847 17.3059 12.7055 17.3273 13.0264C17.3701 13.6039 17.2845 14.1814 17.2632 14.7804C17.199 16.0638 17.3487 17.39 17.199 18.6093C16.2364 18.5451 15.2311 18.4809 14.2257 18.4809C13.2204 18.4809 12.1936 18.6306 11.2311 18.4809C11.2525 16.1494 11.2311 13.8606 11.1027 11.6788C11.6375 11.6574 12.2364 11.7216 12.6642 11.6146C13.2845 11.7429 14.1402 11.6574 14.8674 11.6788C15.2952 11.636 15.723 11.5718 16.1722 11.5504C16.3861 11.529 16.707 11.5932 16.814 11.4863C17.0492 11.4649 17.3915 11.5504 17.5198 11.4221H17.6482C17.6054 11.5718 17.4343 11.5932 17.3273 11.6788ZM18.8888 10.0531H17.9263C16.1509 10.3954 14.0118 10.374 11.9583 10.4381C11.9583 9.34723 11.9156 8.27771 11.83 7.25097C11.8728 7.16541 11.9369 7.10124 12.0225 7.05846C14.1615 7.35792 16.814 7.37931 19.1669 7.25097C19.0813 8.21354 19.0386 9.1761 18.8888 10.0531Z" fill="currentColor" fill-opacity="0.8"/>
</svg>
