<svg width="16" height="20" viewBox="0 0 16 20" fill="none" xmlns="http://www.w3.org/2000/svg">
<path d="M11.1587 5.65226C11.2755 5.35895 11.3582 5.04554 11.4028 4.71649L11.4028 4.71647C11.4755 4.18071 11.4163 3.64529 11.2061 3.07511C11.3179 3.47108 11.3702 3.88132 11.3682 4.34361V4.34364C11.366 4.8421 11.3043 5.25051 11.1587 5.65226ZM11.1587 5.65226C11.0772 5.85675 10.9792 6.05146 10.8658 6.23491L10.8833 6.24471C10.8833 6.24472 10.8833 6.24474 10.8833 6.24475L11.1587 5.65226ZM6.48424 0.84936L6.48415 0.849087L6.48424 0.84936ZM6.48424 0.84936L6.48433 0.849633L6.48424 0.84936ZM8.5614 7.90771C8.06284 8.01516 7.5471 8.0521 7.07638 8.00599C7.28856 8.03767 7.52318 8.0584 7.74506 8.06501C7.93798 8.07075 8.10387 8.06521 8.22241 8.05135C8.26182 8.04674 8.2905 8.04183 8.30985 8.03775C8.35146 8.0084 8.38821 7.98913 8.40426 7.98071L8.40627 7.97965C8.44871 7.95734 8.49597 7.93563 8.54256 7.9157C8.54876 7.91304 8.55504 7.91038 8.5614 7.90771ZM8.34142 8.02922C8.34123 8.02914 8.33837 8.02998 8.33339 8.032C8.33912 8.03032 8.34161 8.0293 8.34142 8.02922ZM3.68046 11.2145C3.71762 11.1717 3.75441 11.1293 3.79088 11.0876C3.50343 11.2839 3.21804 11.5182 2.93106 11.7937C2.33229 12.3684 1.91528 12.9008 1.60741 13.4999C1.29847 14.1011 1.08732 14.7929 0.928177 15.7013C0.781948 16.536 0.735283 16.9333 0.609773 18.4484L0.522651 19.4999L0.887819 19.4998L0.952701 19.0633L0.981501 18.8696L0.981511 18.8695C0.994286 18.7837 1.0313 18.3945 1.06264 17.9967C1.19505 16.3161 1.35969 15.1327 1.66315 14.1976C1.97402 13.2397 2.42477 12.5587 3.09007 11.8678C3.30233 11.6474 3.47483 11.4511 3.62947 11.2732C3.64654 11.2536 3.66354 11.234 3.68046 11.2145ZM15.4238 19.5615L15.4238 19.5615L15.4238 19.5615Z" fill="white" stroke="white"/>
</svg>
