<svg width="126" height="30" viewBox="0 0 126 30" fill="none" xmlns="http://www.w3.org/2000/svg">
<path d="M111.353 19.0197C111.353 16.7898 112.97 15.1721 115.288 15.1721C117.605 15.1721 119.223 16.7898 119.223 19.0197C119.223 21.2496 117.605 22.8674 115.288 22.8674C112.97 22.8674 111.353 21.2496 111.353 19.0197Z" fill="#FF6860"/>
<path d="M2.43734 19.6319H2.61223C3.74904 19.6319 4.71096 20.4189 5.01703 21.512C5.58543 23.567 7.11575 24.7475 9.78289 24.7475C13.0622 24.7475 14.6799 22.8237 14.6799 19.5881V5.15937C14.6799 3.71649 15.8605 2.57968 17.2596 2.57968C18.7025 2.57968 19.8393 3.76022 19.8393 5.15937V19.6319C19.8393 25.6657 16.254 29.5571 9.73917 29.5571C4.49234 29.5571 1.12563 26.9337 0.0762684 22.6925C-0.317243 21.1185 0.863292 19.6319 2.43734 19.6319Z" fill="currentColor"/>
<path d="M24.6489 3.23554C24.6489 1.35543 26.0043 0 27.8407 0C29.7208 0 31.0325 1.35543 31.0325 3.23554C31.0325 5.11565 29.6771 6.42736 27.8407 6.42736C26.0043 6.42736 24.6489 5.11565 24.6489 3.23554Z" fill="currentColor"/>
<path d="M27.8407 9.00705C29.1524 9.00705 30.2455 10.1001 30.2455 11.4118V28.9887H25.4359V11.4556C25.4359 10.1001 26.4853 9.00705 27.8407 9.00705Z" fill="currentColor"/>
<path d="M35.7109 18.6262C35.7109 11.9365 39.6898 8.52609 45.5925 8.52609C51.4951 8.52609 55.474 11.9365 55.474 18.6262V29.0324H50.6644V18.6262C50.6644 14.8223 48.6531 12.9859 45.5925 12.9859C42.5755 12.9859 40.5205 14.8223 40.5205 18.6262V29.0324H35.7109V18.6262Z" fill="currentColor"/>
<path d="M60.5022 18.6262C60.5022 11.9365 64.481 8.52609 70.3837 8.52609C76.2864 8.52609 80.2652 11.9365 80.2652 18.6262V29.0324H75.4556V18.6262C75.4556 14.8223 73.4443 12.9859 70.3837 12.9859C67.323 12.9859 65.3118 14.8223 65.3118 18.6262V29.0324H60.5022V18.6262Z" fill="currentColor"/>
<path d="M85.0311 21.3371V4.37235C85.0311 3.06065 86.1242 1.96756 87.4359 1.96756C88.7476 1.96756 89.8407 3.06065 89.8407 4.37235V9.05077H97.9732C99.1975 9.05077 100.159 10.0127 100.159 11.2369C100.159 12.4612 99.1975 13.4231 97.9732 13.4231H89.8407V21.3371C89.8407 24.0042 91.1961 25.0536 93.2074 25.0536C94.694 25.0536 95.8308 24.4852 96.3117 23.0423C96.6615 22.0367 97.5797 21.3371 98.6291 21.3371C100.247 21.3371 101.427 22.9111 100.946 24.4414C99.8971 27.8956 97.0113 29.5571 93.2074 29.5571C88.3541 29.5571 85.0311 26.89 85.0311 21.3371Z" fill="currentColor"/>
<path d="M104.488 19.0197C104.488 12.9422 108.948 8.48236 115.244 8.48236C121.54 8.48236 126 12.9422 126 19.0197C126 25.0973 121.54 29.5571 115.244 29.5571C108.948 29.5571 104.488 25.0973 104.488 19.0197ZM121.103 19.0197C121.103 15.4781 118.742 12.9859 115.244 12.9859C111.702 12.9859 109.341 15.4781 109.341 19.0197C109.341 22.5613 111.746 25.0536 115.244 25.0536C118.786 25.0536 121.103 22.5613 121.103 19.0197Z" fill="currentColor"/>
</svg>
