<svg width="16" height="20" viewBox="0 0 16 20" fill="none" xmlns="http://www.w3.org/2000/svg">
<path fill-rule="evenodd" clip-rule="evenodd" d="M7.96124 0.00710291C9.09986 0.11353 10.2989 0.746385 10.9768 1.5987C11.1091 1.765 11.3325 2.13887 11.4733 2.42951C11.8656 3.23918 12.0039 4.00504 11.8983 4.78369C11.6733 6.44224 10.5829 7.76317 9.01922 8.27126C8.81635 8.33716 8.62057 8.42097 8.58405 8.45743C8.41215 8.62933 7.17202 8.59244 6.50492 8.39555C4.94762 7.93586 3.81143 6.81537 3.43698 5.36993C3.28981 4.80181 3.29124 3.89956 3.44031 3.32785C3.92922 1.45206 5.49476 0.142805 7.40638 0.0110662C7.5953 -0.00198615 7.84498 -0.00373003 7.96124 0.00710291ZM6.48442 0.849905C4.8738 1.37205 3.82031 2.96455 3.93635 4.70178C3.97493 5.27931 4.07459 5.63162 4.34943 6.16232C4.68636 6.81283 5.27927 7.15319 5.94727 7.5C6.20366 7.63317 6.32831 7.57789 6.44727 7.5C6.55147 7.43167 6.6244 7.42634 6.85448 7.46993C7.78363 7.64617 9.04009 7.39236 9.82815 6.86926C10.193 6.62708 10.2525 6.34697 10.4473 6C10.7492 5.46221 10.8653 5.00453 10.8682 4.34145C10.8712 3.64328 10.7394 3.09095 10.4473 2.5C10.0228 1.64171 9.55019 1.12998 8.62178 0.844198C8.02454 0.660303 7.06131 0.662892 6.48442 0.849905ZM7.08377 9.81091C7.68471 9.88616 8.63494 10.1491 9.26156 10.4136C11.8072 11.4881 13.825 13.7983 14.8653 16.8294C15.2086 17.8298 15.5392 19.4467 15.4239 19.5616C15.2292 19.7555 7.98634 19.9971 2.30296 19.9992L0.238093 20L0.119248 19.8735L0.000454903 19.7471L0.11148 18.4071C0.237459 16.8864 0.285601 16.4717 0.435677 15.615C0.764892 13.7358 1.32879 12.6385 2.58482 11.4329C3.5999 10.4587 4.63125 9.937 5.80929 9.80203C6.33831 9.74142 6.53996 9.7428 7.08377 9.81091ZM5.30321 10.5992C4.54696 10.7901 4.33538 11.2953 3.45025 12.2146C2.20758 13.5051 1.82526 14.6832 1.56109 18.036C1.53018 18.4284 1.49192 18.8366 1.47607 18.9431L1.44727 19.1369H6.8344C10.099 19.132 12.8135 18.9762 13.4473 19L14.6532 18.8462L14.6183 18.6444C14.5439 18.2146 14.3253 17.41 14.125 16.8294C12.9514 13.4257 10.8527 11.338 7.82913 10.6515C6.82172 10.4227 6.06399 10.407 5.30321 10.5992Z" fill="currentColor" fill-opacity="0.8"/>
<path d="M11.4028 4.71649L11.4028 4.71647C11.4755 4.18071 11.4163 3.64529 11.2061 3.07511C11.3179 3.47108 11.3702 3.88132 11.3682 4.34361V4.34364C11.366 4.8421 11.3043 5.25051 11.1587 5.65227C11.2755 5.35895 11.3582 5.04554 11.4028 4.71649ZM8.5614 7.90771C8.06284 8.01515 7.54711 8.0521 7.07639 8.00599C7.28857 8.03767 7.52319 8.0584 7.74506 8.06501C7.93798 8.07075 8.10387 8.06521 8.22241 8.05135C8.26182 8.04674 8.2905 8.04183 8.30985 8.03775C8.35146 8.0084 8.38821 7.98912 8.40426 7.9807L8.40627 7.97965C8.44871 7.95734 8.49597 7.93563 8.54256 7.9157C8.54876 7.91304 8.55504 7.91038 8.5614 7.90771ZM8.34142 8.02922C8.34123 8.02914 8.33837 8.02998 8.3334 8.032C8.33912 8.03032 8.34161 8.0293 8.34142 8.02922ZM3.68048 11.2145C3.71763 11.1717 3.75442 11.1293 3.79088 11.0876C3.50343 11.2839 3.21804 11.5182 2.93106 11.7937C2.33229 12.3684 1.91528 12.9008 1.60741 13.4999C1.29847 14.1011 1.08732 14.7929 0.928177 15.7013C0.781949 16.536 0.735283 16.9333 0.609773 18.4484L0.522651 19.4999L0.887819 19.4998L0.952701 19.0633L0.981501 18.8696L0.981511 18.8695C0.994286 18.7837 1.0313 18.3945 1.06264 17.9967C1.19505 16.3161 1.35969 15.1327 1.66315 14.1976C1.97402 13.2397 2.42477 12.5587 3.09007 11.8678C3.30233 11.6474 3.47483 11.4511 3.62947 11.2732C3.64655 11.2536 3.66355 11.234 3.68048 11.2145Z" stroke="currentColor" stroke-opacity="0.8"/>
<path d="M1.98438 14.295C2.28272 14.225 2.67729 14.1857 2.90693 13.9561C2.95546 13.9075 2.98379 13.8912 3.04546 13.8706" stroke="currentColor" stroke-opacity="0.8" stroke-width="0.75" stroke-linecap="round" stroke-linejoin="round"/>
<path d="M1.66602 16.3114C2.44238 16.2815 3.12588 15.6273 3.67029 15.1324C3.80322 15.0115 4.19893 14.8532 4.26567 14.7197" stroke="currentColor" stroke-opacity="0.8" stroke-width="0.75" stroke-linecap="round" stroke-linejoin="round"/>
<path d="M1.34766 18.6455C2.05187 18.5842 2.79245 17.9667 3.31066 17.5195C3.87035 17.0365 4.4288 16.5689 5.04966 16.1637C5.54225 15.8422 5.91986 15.3513 6.44086 15.0908" stroke="currentColor" stroke-opacity="0.8" stroke-width="0.75" stroke-linecap="round" stroke-linejoin="round"/>
<path d="M4.68945 19.0698C4.88183 18.5945 5.10595 18.3165 5.52064 18.0382C5.67181 17.9368 6.14126 17.7048 6.22803 17.5312" stroke="currentColor" stroke-opacity="0.8" stroke-width="0.75" stroke-linecap="round" stroke-linejoin="round"/>
<path d="M6.65234 19.2291C6.7209 19.1167 6.79424 18.938 6.91761 18.8695C6.95754 18.8473 7.05987 18.824 7.07383 18.7752C7.10348 18.6714 7.13748 18.5771 7.18289 18.4863" stroke="currentColor" stroke-opacity="0.8" stroke-width="0.75" stroke-linecap="round" stroke-linejoin="round"/>
</svg>
