<svg width="20" height="20" viewBox="0 0 20 20" fill="none" xmlns="http://www.w3.org/2000/svg">
<path fill-rule="evenodd" clip-rule="evenodd" d="M5.96362 0.61564C0.859725 3.4389 -1.46191 10.3342 0.967578 15.4543C3.03026 19.801 10.2373 21.425 14.8283 18.5776C20.9405 14.787 20.5074 4.11186 14.1076 0.802135C12.2129 -0.177524 7.58927 -0.283692 5.96362 0.61564ZM12.4651 1.08581C13.5695 1.39251 14.9991 2.21264 15.6423 2.90807C16.841 4.20454 18.9772 10.369 18.0234 9.77973C17.7223 9.59323 17.5802 10.1904 17.6937 11.1661C17.8038 12.1087 17.6589 12.8799 17.3724 12.8799C17.0853 12.8799 17.0039 13.1276 17.1909 13.4299C17.7184 14.2837 16.3641 16.3739 15.4984 16.0413C15.0451 15.8678 14.8362 16.0284 14.9912 16.4323C15.4153 17.5378 12.3679 18.9382 9.89574 18.7736C6.62309 18.5562 3.86218 17.9608 3.06733 17.3008C1.63716 16.1138 0.47831 11.8975 0.868151 9.29832C1.53493 4.8539 5.64062 0.608898 9.33401 0.547108C9.95191 0.536435 11.3607 0.779103 12.4651 1.08581ZM6.5231 6.14645C6.04282 7.65975 5.94002 13.886 6.38772 14.3342C7.33087 15.2768 14.6705 10.7599 14.6705 9.23653C14.6705 8.39562 11.1883 6.35092 8.3903 5.5482C7.15505 5.19431 6.78824 5.31172 6.5231 6.14645Z" fill="currentColor" fill-opacity="0.8"/>
</svg>
