<svg viewBox="0 0 17 15" fill="none" xmlns="http://www.w3.org/2000/svg"><path d="M5.103 10.966c-1.596-.144-2.667-.941-3.264-2.454.537.064 1.038.08 1.572-.074-.838-.199-1.502-.605-2.016-1.251-.514-.645-.774-1.389-.778-2.25.491.25.985.41 1.576.428C1.418 4.807.938 4.097.74 3.216A3.48 3.48 0 011.118.664C3.014 2.917 5.413 4.141 8.303 4.35c-.01-.373-.057-.733-.027-1.086.114-1.287.755-2.249 1.883-2.847 1.388-.733 2.936-.478 4.078.615a.25.25 0 00.197.057 6.535 6.535 0 001.929-.723c.046-.027.093-.05.173-.094-.277.824-.767 1.436-1.448 1.91.654-.057 1.271-.249 1.875-.498l.03.03c-.2.25-.38.515-.6.743-.324.33-.678.63-1.015.949a.316.316 0 00-.1.205c.02 3.042-1.035 5.641-3.204 7.756-1.361 1.348-3.02 2.152-4.899 2.475-2.44.42-4.745.037-6.898-1.21A2.015 2.015 0 010 12.441c.911.077 1.805.014 2.683-.239a6.988 6.988 0 002.42-1.237z" fill="currentColor"/></svg>
