<svg width="16" height="14" viewBox="0 0 16 14" fill="none" xmlns="http://www.w3.org/2000/svg">
<path d="M6.02898 13.115C6.06721 12.5164 6.10544 11.9324 6.14367 11.3484C6.18538 10.7027 6.23403 10.057 6.27226 9.41128C6.27921 9.28069 6.31744 9.19 6.41476 9.09931C8.57995 7.06427 10.7417 5.0256 12.9034 2.98693C12.9833 2.91076 13.0702 2.83458 13.1397 2.74752C13.1745 2.70399 13.2127 2.60604 13.1918 2.58065C13.1571 2.53349 13.0667 2.48996 13.0181 2.50447C12.8651 2.55163 12.7088 2.60604 12.5732 2.6931C11.8156 3.18282 11.0614 3.67979 10.3072 4.17676C8.33319 5.47542 6.35915 6.77044 4.38511 8.07272C4.26694 8.1489 4.16616 8.17067 4.03061 8.12351C2.91153 7.7535 1.78897 7.39075 0.669878 7.02074C0.506533 6.96633 0.343188 6.89378 0.200696 6.79221C-0.0425838 6.62171 -0.0703872 6.36416 0.148565 6.16827C0.339713 6.00141 0.565616 5.85993 0.794994 5.76199C1.98359 5.26865 3.17914 4.79707 4.37121 4.31823C7.86401 2.91801 11.3429 1.51779 14.8253 0.121189C14.8913 0.0957961 14.9539 0.0704034 15.0199 0.0486383C15.569 -0.125483 16.0035 0.179229 16 0.781398C16 1.10788 15.9305 1.44161 15.8644 1.76446C15.1033 5.53346 14.3387 9.30245 13.5672 13.0678C13.5255 13.2782 13.449 13.485 13.3482 13.6736C13.2023 13.9457 12.9381 14.0581 12.6497 13.9711C12.4585 13.913 12.2639 13.8296 12.104 13.7099C10.9606 12.8429 9.82415 11.9651 8.68769 11.0908C8.6425 11.0545 8.59385 11.0219 8.53824 10.982C8.26716 11.2541 7.99955 11.5225 7.73194 11.7873C7.37397 12.1464 7.01601 12.5092 6.65456 12.8683C6.45994 13.0606 6.28269 13.1295 6.02898 13.115Z" fill="currentColor"/>
</svg>
