<svg width="8" height="16" viewBox="0 0 8 16" fill="none" xmlns="http://www.w3.org/2000/svg">
<path d="M0.0530826 5.50645C0.648851 5.50645 1.2276 5.50645 1.84039 5.50645C1.84039 5.42845 1.84039 5.36214 1.84039 5.29194C1.8489 4.68743 1.82762 4.08291 1.87443 3.4823C1.98933 2.01976 3.35109 0.701531 4.94689 0.572827C5.85757 0.498726 6.78526 0.561127 7.71722 0.561127C7.71722 1.35285 7.71722 2.17187 7.71722 3.01819C7.38954 3.01819 7.05762 3.01819 6.72994 3.01819C6.45334 3.01819 6.17673 3.01429 5.90012 3.01819C5.42776 3.02989 5.032 3.3614 5.01924 3.78651C5.00221 4.35202 5.01498 4.91363 5.01498 5.49865C5.98949 5.49865 6.95548 5.49865 7.95127 5.49865C7.91722 5.63125 7.89169 5.74045 7.8619 5.84966C7.68317 6.50877 7.50019 7.16789 7.32571 7.8309C7.29167 7.96351 7.23635 8.00641 7.08741 8.00251C6.47036 7.99471 5.85757 7.99861 5.24052 7.99861C5.17244 7.99861 5.10435 7.99861 5.01073 7.99861C5.01073 9.25444 5.01073 10.4908 5.01073 11.731C5.01073 12.9712 5.01073 14.2076 5.01073 15.4634C3.95537 15.4634 2.91277 15.4634 1.84464 15.4634C1.84464 12.9868 1.84464 10.5064 1.84464 8.00641C1.23611 8.00641 0.648852 8.00641 0.0488281 8.00641C0.0530836 7.16789 0.0530826 6.34887 0.0530826 5.50645Z" fill="white"/>
</svg>
