<svg width="16" height="16" viewBox="0 0 16 16" fill="none" xmlns="http://www.w3.org/2000/svg">
<path d="M15.1188 6.63748H8.13127V9.53123H12.1563C11.7813 11.375 10.2125 12.4312 8.13127 12.4312C6.95603 12.4312 5.82892 11.9644 4.9979 11.1333C4.16688 10.3023 3.70002 9.17522 3.70002 7.99998C3.70002 6.82474 4.16688 5.69763 4.9979 4.86661C5.82892 4.03559 6.95603 3.56873 8.13127 3.56873C9.13831 3.57015 10.114 3.91894 10.8938 4.55623L13.075 2.37498C12.1643 1.57185 11.0723 1.00183 9.8927 0.713908C8.71311 0.425984 7.48125 0.428762 6.30296 0.722005C5.12468 1.01525 4.03521 1.59019 3.12817 2.39742C2.22113 3.20465 1.52365 4.22003 1.09564 5.35632C0.667641 6.49261 0.521922 7.71583 0.671007 8.92087C0.820092 10.1259 1.25952 11.2767 1.95154 12.2745C2.64356 13.2722 3.56748 14.087 4.64389 14.6488C5.72031 15.2106 6.91705 15.5027 8.13127 15.5C11.8813 15.5 15.2875 12.775 15.2875 7.99998C15.2838 7.54084 15.2272 7.08365 15.1188 6.63748V6.63748Z" fill="currentColor"/>
</svg>
