<svg width="7" height="7" viewBox="0 0 7 7" fill="none" xmlns="http://www.w3.org/2000/svg">
<path d="M6.1258 6.06951L4.58527 5.71987C4.40521 5.68103 4.22515 5.71988 4.10511 5.83642L2.9247 6.86589C2.60459 7.15724 2.06441 6.94358 2.02439 6.51625L1.90435 4.98177C1.88435 4.80696 1.78431 4.65156 1.64426 4.57387L0.263791 3.79692C-0.11634 3.58325 -0.0763267 3.03939 0.32381 2.86457L1.78431 2.28186C1.94437 2.22359 2.06441 2.06819 2.10442 1.9128L2.42453 0.417169C2.52456 -0.0101556 3.06475 -0.146122 3.34485 0.184083L4.3652 1.34951C4.48524 1.48548 4.64529 1.54375 4.82535 1.52433L6.4059 1.36894C6.84605 1.33009 7.14615 1.79626 6.92607 2.16531L6.10579 3.46671C6.00576 3.6221 6.00576 3.79692 6.06578 3.95231L6.706 5.35082C6.92607 5.7393 6.56595 6.16663 6.1258 6.06951Z" fill="currentColor"/>
</svg>
