<svg width="17" height="15" viewBox="0 0 17 15" fill="none" xmlns="http://www.w3.org/2000/svg">
<path d="M5.10267 10.9661C3.50746 10.8215 2.4362 10.0247 1.83883 8.51173C2.37613 8.57561 2.87672 8.59242 3.41068 8.43776C2.57303 8.2394 1.90891 7.83258 1.39497 7.18704C0.881037 6.54151 0.62073 5.79847 0.617393 4.93776C1.10797 5.18656 1.60188 5.34794 2.19258 5.36476C1.41834 4.80664 0.93777 4.09722 0.740872 3.21634C0.540636 2.32873 0.660777 1.48147 1.11798 0.664467C3.01355 2.91711 5.41304 4.14093 8.3031 4.34939C8.29309 3.97619 8.24637 3.61644 8.2764 3.26341C8.38987 1.97571 9.03062 1.01413 10.1586 0.415668C11.5469 -0.317281 13.0954 -0.0617578 14.2367 1.03094C14.2835 1.07465 14.3736 1.10155 14.4336 1.0881C15.1144 0.953612 15.7552 0.704813 16.3626 0.365236C16.4093 0.338338 16.456 0.314803 16.5361 0.271095C16.2591 1.09482 15.7686 1.70673 15.0878 2.1808C15.7419 2.12364 16.3592 1.932 16.9633 1.6832C16.9733 1.69329 16.9833 1.70337 16.9933 1.71346C16.7931 1.96226 16.6129 2.22787 16.3926 2.45649C16.0689 2.78598 15.7152 3.08522 15.3781 3.40462C15.3247 3.45505 15.278 3.53911 15.278 3.60971C15.298 6.65246 14.2434 9.2514 12.0742 11.3662C10.7126 12.7144 9.05399 13.518 7.17511 13.8407C4.73557 14.261 2.42952 13.8777 0.276993 12.6304C0.183549 12.5766 0.090106 12.5161 0 12.4421C0.911072 12.5194 1.80546 12.4555 2.68316 12.2034C3.56086 11.9512 4.3618 11.5478 5.10267 10.9661Z" fill="#009DAF"/>
</svg>
