<svg width="184" height="77" fill="none" xmlns="http://www.w3.org/2000/svg"><g clip-path="url(#clip0)" fill="#fff"><path d="M38.258.727c-3.175-.26-6.35-.52-9.577-.729-2.7-.156-4.71.313-6.51 2.395-3.703 4.217-6.984 8.955-10.106 13.589C5.715 25.352.635 35.662 0 47.062c-.053.99.9 1.771 1.852 1.823 5.027.208 10.054.573 15.081 1.25 1.482.208 3.016.416 4.498.676.582.105 2.275.053 2.646.469.529.573.106 2.916.106 3.644v3.124c0 2.76 0 5.519-.053 8.278 0 2.083-.265 4.27.053 6.3.635 3.956 4.656 3.384 7.831 3.436 2.593.052 5.186.104 7.779.104 1.482 0 3.069.052 4.074-1.25 1.059-1.405.583-3.748.583-5.362-.053-2.551-.053-5.102-.106-7.601-.106-9.996-.265-19.992-.37-29.988 0-.73-.583-1.614-1.377-1.77-3.598-.677-7.725-1.302-10.9.989-2.434 1.77-3.81 4.842-2.646 7.705.582-.78 1.164-1.562 1.8-2.29-1.747.051-3.546.051-5.293.104-.793 0-1.587.051-2.38.051h-.953c-1.059-.104-1.27-.051-.582.209.053.468.106.937.211 1.405.212-1.457 1.43-3.02 2.117-4.32.847-1.51 1.64-3.02 2.487-4.53 1.588-2.864 3.122-5.78 4.71-8.643 3.016-5.935 6.19-11.818 9.419-17.753 1.11-2.082-2.064-3.904-3.175-1.822-5.027 9.267-10.054 18.482-15.081 27.75-1.217 2.29-2.593 4.529-3.704 6.82-.53 1.145-.9 2.498.053 3.592 1.11 1.25 2.91.989 4.392.937l7.725-.156c1.111 0 2.223-1.146 1.8-2.291-2.117-5.258 6.138-4.79 8.995-4.217-.476-.573-.9-1.145-1.376-1.77.106 9.163.212 18.274.37 27.437.054 2.395.054 4.737.107 7.132 0 1.041 0 2.03.052 3.072 0 .469.265 2.863.053 3.02-.158.156-2.645-.105-3.069-.105-1.058 0-2.063-.052-3.122-.052-1.217 0-2.434-.052-3.651-.052-.635 0-2.699.313-3.175-.156-.37-.364-.053-2.239 0-2.811v-4.165c0-2.083 0-4.165.053-6.248 0-2.395.159-4.841.053-7.236-.053-1.302-.265-2.5-1.376-3.332-1.164-.886-2.699-.938-4.075-1.198-2.17-.364-4.286-.625-6.455-.937a158.515 158.515 0 00-14.076-1.093l1.852 1.822c.582-10.152 5.027-19.367 10.53-27.75 2.7-4.112 5.662-8.069 8.679-11.974.74-.937 1.428-2.238 2.38-2.967 1.27-1.042 2.805-.73 4.287-.625 2.91.208 5.768.416 8.625.625 2.382.156 2.382-3.488 0-3.645z"/><path d="M37.306 66.067c-1.217.625-2.381.937-3.81.99a78.757 78.757 0 001.323 3.123c1.428-1.458 2.857-2.863 4.286-4.321 1.429-1.458-.423-3.957-2.223-2.863-1.746.989-3.545 1.145-5.397.26.106.937.265 1.926.37 2.863l8.097-7.028c1.693-1.458-.477-3.697-2.223-2.864-3.704 1.77-7.461 3.54-11.165 5.31a96.613 96.613 0 011.852 3.125c4.604-3.02 8.625-6.664 12.118-10.934 1.005-1.197.105-3.852-1.8-3.02-3.069 1.25-6.19 2.552-9.26 3.801.582.99 1.217 2.03 1.8 3.02 2.751-3.384 5.556-6.768 8.307-10.152 1.111-1.354.106-3.54-1.799-3.02a50.603 50.603 0 00-8.678 3.124c.74.937 1.481 1.926 2.222 2.863 3.122-3.28 5.98-6.768 8.467-10.516.846-1.25-.582-3.28-2.117-2.655-2.17.885-4.339 1.77-6.456 2.655.582.989 1.218 2.03 1.8 3.02 2.063-2.604 4.074-5.155 6.138-7.758 1.111-1.406.106-3.488-1.8-3.02-2.91.625-4.815 2.708-6.455 5.05-1.64 2.395-3.016 5.78-5.98 6.873L27.2 46.23c.264-1.197.582-2.342.846-3.54.37-1.51-1.322-2.915-2.698-2.082-2.381 1.405-4.869 2.395-7.514 3.071.582.99 1.217 2.03 1.799 3.02 1.746-1.51 2.857-3.332 3.492-5.519.318-1.04-.582-2.447-1.799-2.29-3.598.364-7.143.729-10.742 1.04.318 1.146.635 2.24.953 3.385 3.863-2.135 6.879-5.258 8.784-9.163.635-1.302-.424-3.28-2.117-2.655-4.233 1.51-8.414 2.967-12.647 4.477.582.99 1.217 2.03 1.8 3.02 6.825-6.248 13.705-12.443 20.53-18.69 1.535-1.406-.423-3.905-2.222-2.864a69.412 69.412 0 01-14.71 6.404c.582.989 1.217 2.03 1.799 3.02a362.393 362.393 0 0118.309-15.047c1.534-1.197-.16-3.436-1.8-3.02a56.57 56.57 0 00-11.588 4.061 96.613 96.613 0 011.852 3.124c5.186-3.957 10.372-7.861 15.557-11.818 1.852-1.406 0-4.581-1.852-3.124-5.186 4.01-10.424 7.914-15.61 11.87-1.852 1.406-.317 4.217 1.852 3.124 3.44-1.666 6.985-2.863 10.742-3.696-.582-.99-1.217-2.03-1.8-3.02-6.243 4.842-12.328 9.892-18.308 15.046-1.376 1.198.053 3.593 1.8 3.02 5.45-1.666 10.688-3.905 15.61-6.768-.741-.937-1.482-1.927-2.223-2.864-6.826 6.248-13.652 12.495-20.532 18.69-1.322 1.198.053 3.645 1.8 3.02 4.233-1.51 8.413-2.967 12.646-4.477-.687-.885-1.375-1.77-2.116-2.655-1.64 3.384-4.128 5.987-7.461 7.861-1.535.833-.953 3.593.952 3.384 3.598-.364 7.144-.729 10.742-1.041-.582-.78-1.164-1.562-1.799-2.29-.476 1.613-1.27 2.81-2.54 3.904-1.429 1.25.106 3.488 1.8 3.02a31.06 31.06 0 008.413-3.437c-.9-.676-1.8-1.353-2.699-2.082-.265 1.197-.582 2.343-.846 3.54-.318 1.25.899 2.76 2.275 2.239 2.857-1.041 4.656-3.124 6.297-5.623 1.587-2.395 3.016-5.623 6.138-6.3-.582-.989-1.217-2.03-1.8-3.019-2.063 2.603-4.074 5.154-6.137 7.757-.953 1.198-.16 3.853 1.799 3.02 2.17-.885 4.339-1.77 6.456-2.655a92.745 92.745 0 00-2.117-2.656c-2.328 3.489-4.974 6.717-7.884 9.788-1.482 1.562.37 3.697 2.222 2.864 2.54-1.146 5.08-2.03 7.779-2.76-.583-.989-1.218-2.03-1.8-3.02-2.751 3.385-5.556 6.769-8.307 10.153-1.006 1.197-.106 3.853 1.799 3.02 3.069-1.25 6.19-2.551 9.26-3.801-.582-.99-1.217-2.03-1.8-3.02a50.646 50.646 0 01-11.323 10.36c-2.01 1.302-.265 4.166 1.852 3.125 3.704-1.77 7.461-3.54 11.165-5.31-.74-.938-1.481-1.927-2.222-2.864l-8.096 7.028c-.847.729-.635 2.343.37 2.864 3.016 1.457 6.191 1.457 9.102-.26-.741-.938-1.482-1.927-2.223-2.864-1.429 1.458-2.857 2.863-4.286 4.321-1.058 1.093-.318 3.176 1.323 3.124 2.063-.104 3.863-.573 5.662-1.458 2.116-1.093.264-4.217-1.852-3.176z"/></g><g clip-path="url(#clip1)" fill="#fff"><path d="M177.876.727c-3.114-.26-6.228-.52-9.394-.729-2.646-.156-4.618.313-6.383 2.395-3.633 4.217-6.851 8.955-9.913 13.589-6.227 9.37-11.21 19.68-11.832 31.08-.052.99.882 1.771 1.816 1.823 4.93.208 9.861.573 14.791 1.25 1.453.208 2.958.416 4.411.676.571.105 2.232.053 2.595.469.519.573.104 2.916.104 3.644v3.124c0 2.76 0 5.519-.052 8.278 0 2.083-.259 4.27.052 6.3.623 3.956 4.567 3.384 7.681 3.436 2.543.052 5.086.104 7.629.104 1.453 0 3.01.052 3.996-1.25 1.038-1.405.571-3.748.571-5.362-.052-2.551-.052-5.102-.104-7.601-.103-9.996-.259-19.992-.363-29.988 0-.73-.571-1.614-1.349-1.77-3.529-.677-7.577-1.302-10.691.989-2.388 1.77-3.737 4.842-2.595 7.705.571-.78 1.142-1.562 1.764-2.29-1.712.051-3.477.051-5.19.104-.778 0-1.556.051-2.335.051h-.934c-1.038-.104-1.246-.051-.571.209.052.468.104.937.208 1.405.207-1.457 1.401-3.02 2.076-4.32.83-1.51 1.608-3.02 2.439-4.53 1.557-2.864 3.062-5.78 4.619-8.643 2.958-5.935 6.072-11.818 9.238-17.753 1.089-2.082-2.024-3.904-3.114-1.822-4.931 9.267-9.861 18.482-14.791 27.75-1.194 2.29-2.543 4.529-3.633 6.82-.519 1.145-.882 2.498.052 3.592 1.09 1.25 2.854.989 4.307.937l7.577-.156c1.09 0 2.18-1.146 1.765-2.291-2.076-5.258 6.02-4.79 8.823-4.217-.467-.573-.883-1.145-1.35-1.77.104 9.163.208 18.274.364 27.437.052 2.395.052 4.737.103 7.132 0 1.041 0 2.03.052 3.072 0 .469.26 2.863.052 3.02-.155.156-2.595-.105-3.01-.105-1.038 0-2.024-.052-3.062-.052-1.194 0-2.387-.052-3.581-.052-.623 0-2.647.313-3.114-.156-.363-.364-.052-2.239 0-2.811v-4.165c0-2.083 0-4.165.052-6.248 0-2.395.156-4.841.052-7.236-.052-1.302-.259-2.5-1.349-3.332-1.142-.886-2.647-.938-3.996-1.198-2.128-.364-4.204-.625-6.332-.937a152.532 152.532 0 00-13.805-1.093l1.816 1.822c.571-10.152 4.931-19.367 10.328-27.75 2.647-4.112 5.553-8.069 8.511-11.974.727-.937 1.402-2.238 2.336-2.967 1.245-1.042 2.751-.73 4.204-.625 2.854.208 5.657.416 8.459.625 2.336.156 2.336-3.488 0-3.645z"/><path d="M176.942 66.067c-1.193.625-2.335.937-3.736.99.415 1.04.83 2.082 1.297 3.123 1.401-1.458 2.803-2.863 4.204-4.321 1.401-1.458-.415-3.957-2.18-2.863-1.713.989-3.477 1.145-5.294.26.104.937.26 1.926.364 2.863l7.94-7.028c1.661-1.458-.467-3.697-2.18-2.864-3.632 1.77-7.317 3.54-10.95 5.31a96.809 96.809 0 011.816 3.125c4.515-3.02 8.46-6.664 11.885-10.934.986-1.197.104-3.852-1.765-3.02-3.01 1.25-6.072 2.552-9.082 3.801.571.99 1.194 2.03 1.765 3.02 2.699-3.384 5.449-6.768 8.148-10.152 1.09-1.354.104-3.54-1.765-3.02a49.026 49.026 0 00-8.511 3.124c.727.937 1.453 1.926 2.18 2.863 3.062-3.28 5.864-6.768 8.303-10.516.831-1.25-.57-3.28-2.075-2.655-2.128.885-4.256 1.77-6.332 2.655.571.989 1.194 2.03 1.764 3.02 2.025-2.604 3.997-5.155 6.021-7.758 1.09-1.406.103-3.488-1.765-3.02-2.854.625-4.723 2.708-6.331 5.05-1.609 2.395-2.959 5.78-5.865 6.873l2.232 2.238c.259-1.197.571-2.342.83-3.54.363-1.51-1.297-2.915-2.647-2.082-2.335 1.405-4.774 2.395-7.369 3.071.571.99 1.193 2.03 1.764 3.02 1.713-1.51 2.803-3.332 3.426-5.519.311-1.04-.571-2.447-1.765-2.29-3.529.364-7.006.729-10.535 1.04.311 1.146.622 2.24.934 3.385 3.788-2.135 6.747-5.258 8.615-9.163.623-1.302-.415-3.28-2.076-2.655-4.152 1.51-8.252 2.967-12.404 4.477.571.99 1.194 2.03 1.765 3.02 6.695-6.248 13.441-12.443 20.136-18.69 1.505-1.406-.415-3.905-2.179-2.864a67.41 67.41 0 01-14.428 6.404c.571.989 1.194 2.03 1.764 3.02a357.099 357.099 0 0117.957-15.047c1.505-1.197-.155-3.436-1.764-3.02a54.765 54.765 0 00-11.366 4.061c.623 1.042 1.246 2.083 1.816 3.124 5.086-3.957 10.172-7.861 15.259-11.818 1.816-1.406 0-4.581-1.817-3.124-5.086 4.01-10.224 7.914-15.31 11.87-1.816 1.406-.311 4.217 1.817 3.124 3.373-1.666 6.85-2.863 10.535-3.696-.571-.99-1.194-2.03-1.765-3.02-6.124 4.842-12.092 9.892-17.956 15.046-1.35 1.198.051 3.593 1.764 3.02 5.346-1.666 10.484-3.905 15.31-6.768-.727-.937-1.453-1.927-2.18-2.864-6.695 6.248-13.389 12.495-20.136 18.69-1.298 1.198.052 3.645 1.764 3.02 4.152-1.51 8.252-2.967 12.404-4.477-.675-.885-1.349-1.77-2.076-2.655-1.609 3.384-4.048 5.987-7.318 7.861-1.505.833-.934 3.593.935 3.384 3.529-.364 7.006-.729 10.535-1.041-.571-.78-1.142-1.562-1.765-2.29-.467 1.613-1.245 2.81-2.491 3.904-1.401 1.25.104 3.488 1.765 3.02a30.142 30.142 0 008.252-3.437 90.972 90.972 0 01-2.647-2.082c-.26 1.197-.571 2.343-.831 3.54-.311 1.25.883 2.76 2.232 2.239 2.803-1.041 4.567-3.124 6.176-5.623 1.557-2.395 2.958-5.623 6.02-6.3-.571-.989-1.193-2.03-1.764-3.019-2.024 2.603-3.996 5.154-6.021 7.757-.934 1.198-.155 3.853 1.765 3.02 2.128-.885 4.256-1.77 6.332-2.655a94.25 94.25 0 00-2.076-2.656c-2.284 3.489-4.879 6.717-7.733 9.788-1.453 1.562.363 3.697 2.18 2.864 2.491-1.146 4.982-2.03 7.629-2.76-.571-.989-1.194-2.03-1.765-3.02-2.699 3.385-5.449 6.769-8.148 10.153-.986 1.197-.104 3.853 1.765 3.02 3.01-1.25 6.072-2.551 9.082-3.801-.571-.99-1.194-2.03-1.765-3.02a50.04 50.04 0 01-11.106 10.36c-1.972 1.302-.259 4.166 1.816 3.125 3.633-1.77 7.318-3.54 10.951-5.31-.727-.938-1.453-1.927-2.18-2.864l-7.94 7.028c-.831.729-.623 2.343.363 2.864 2.958 1.457 6.072 1.457 8.927-.26-.727-.938-1.454-1.927-2.18-2.864-1.401 1.458-2.803 2.863-4.204 4.321-1.038 1.093-.311 3.176 1.298 3.124 2.024-.104 3.788-.573 5.553-1.458 2.076-1.093.259-4.217-1.817-3.176z"/></g><g clip-path="url(#clip2)" fill="#fff"><path d="M88.966 1.329c-6.358.105-11.384 5.476-13.333 11.215-2.359 6.951-4.153 13.902-3.64 21.326.922 13.322.922 29.803 12.82 38.228 5.282 3.739 12.769 3.634 18.871 2.475 5.949-1.158 11.18-4.844 14.769-9.741 3.949-5.424 5.641-12.111 5.693-18.851 0-7.267-.667-14.691-2-21.852-1.334-7.056-3.488-14.797-9.436-19.167C106.197.17 97.736.539 90.146 1.276c-2.256.21-2.308 3.897 0 3.686 5.949-.58 12.308-1.159 17.897 1.474 5.487 2.58 7.949 7.793 9.487 13.48 1.59 5.95 2.257 12.058 2.667 18.167.41 6.108.769 12.216-1.231 18.06-4.051 11.69-15.743 17.377-27.435 14.902-5.59-1.158-9.641-6.266-11.949-11.373-2.667-5.793-2.82-12.427-3.436-18.799-.615-7.055-1.077-13.48.82-20.377.872-3.16 1.642-6.898 3.283-9.742 1.59-2.896 5.436-5.687 8.718-5.74 2.307 0 2.307-3.685 0-3.685z"/><path d="M104.914 23.498c1.59 7.477 2.974 16.481 1.179 24.064-.974 4.265-3.589 6.635-7.948 6.792-3.846.158-7.436-.368-8.82-4.475-1.129-3.318-1.026-7.109-.873-10.584.154-4.213.821-8.32 1.898-12.374.923-3.528 2.205-7.74 6-8.9 3.846-1.158 7.384 1.422 8.205 5.266.513 2.317 4 1.317 3.436-1-1.539-6.845-9.077-10.479-15.077-6.793-3.026 1.896-4.564 5.266-5.59 8.583-1.282 4.265-2.05 8.741-2.41 13.217-.461 6.213-.923 16.113 5.538 19.483 3.129 1.632 7.744 1.58 11.077.737 3.385-.843 5.846-3.265 7.128-6.477 1.59-3.844 1.59-8.214 1.539-12.321-.103-5.477-.769-10.9-1.898-16.271-.41-2.212-3.846-1.264-3.384 1.053z"/><path d="M107.939 8.07c-1.077 2.053-2.102 4.107-3.179 6.16-.513 1-.103 2.423 1.077 2.686 2.615.632 5.128.58 7.692-.158-.564-1-1.18-2.054-1.744-3.054-1.436 1.738-2.871 3.475-4.359 5.213-1.076 1.264-.102 3.738 1.744 3.054 2.051-.737 4.051-1.422 6.103-2.159l-2.206-2.264a67.373 67.373 0 01-4.153 12.637 93.961 93.961 0 003.077 1.843c1.025-2.264 2.564-4.002 4.871-4.95l-2.205-2.264a94.405 94.405 0 01-3.231 11.9c-.615 1.896 1.744 2.897 2.975 1.79 1.692-1.473 3.384-3 5.077-4.475l-2.513-2.58a155.327 155.327 0 01-8.821 10.531c-.974 1.053-.359 3.37 1.282 3.16 2.975-.422 5.795-1.106 8.616-2.317-.667-.895-1.334-1.79-2.052-2.686a760.726 760.726 0 01-5.589 8.004c-.923 1.316.615 3.16 2.051 2.686a537.85 537.85 0 008.564-2.739c-.461-1.105-.923-2.264-1.385-3.37a54.931 54.931 0 00-13.743 12.217c-1.231 1.527.308 4.001 2.154 2.896 3.179-1.896 6.564-3.002 10.205-3.581-.462-1.106-.923-2.264-1.385-3.37-4.513 3.265-9.384 5.792-14.666 7.425-2.052.631-1.436 3.37.461 3.633 2.359.316 4.616.421 6.975.263-.308-1.158-.616-2.264-.924-3.422a66.149 66.149 0 01-13.179 7.898c.82.21 1.641.421 2.462.684.05.053 3.846-4.686 4.051-4.95 1.333-1.737 2.718-3.475 4.051-5.212 1.231-1.58-.256-3.897-2.154-2.896a142.555 142.555 0 00-16.153 9.952l2.461 2.527a44.168 44.168 0 015.897-8.32c1.385-1.527-.359-3.843-2.153-2.896-3.282 1.79-6.718 3.16-10.308 4.213.667.895 1.333 1.79 2.051 2.685 1.231-2.211 2.41-4.423 3.641-6.634.923-1.685-.871-3.318-2.461-2.528-2.103 1.053-4.205 2.106-6.36 3.16.924.526 1.796 1.053 2.719 1.58.154-3.055 1.077-5.793 2.666-8.32a95.031 95.031 0 00-3.076-1.843c-.82 1.895-2.206 3.159-4.308 3.317.513.948 1.026 1.843 1.538 2.79 2-4.001 4-8.003 6-11.952.564-1.106-.102-2.949-1.538-2.791-2.564.369-5.18.685-7.744 1.053.41 1.053.82 2.106 1.282 3.16a41.645 41.645 0 006.36-8.689c.922-1.685-.873-3.317-2.462-2.527-2.462 1.264-5.077 2.053-7.795 2.317.41 1.053.82 2.106 1.282 3.159l7.538-9.794c1.385-1.843-.769-4.213-2.512-2.58-.667.632-1.385 1.264-2.052 1.896-1.487 1.369.513 4.16 2.154 2.895 2.513-1.948 4.82-4.054 6.923-6.476 1.282-1.474 0-3.317-1.743-3.054-3.795.579-7.282 2.159-10.77 3.844a98.673 98.673 0 011.795 3.159 133.721 133.721 0 0013.949-10.9c1.23-1.105.205-3.106-1.282-3.16-3.59-.104-7.077.264-10.667.685l.462 3.634c6.154-2.212 11.59-5.792 16.051-10.69l-2.513-2.58c-1.949 2.58-3.384 5.319-4.256 8.478-.513 1.896 1.692 2.896 2.974 1.79 4-3.475 8.051-6.845 12.051-10.215-.923-.737-1.897-1.474-2.82-2.212a53.613 53.613 0 00-3.282 9.268c-.36 1.422 1.333 3.107 2.615 2.106 2.667-2.053 5.282-4.054 7.949-6.108 1.846-1.422.051-4.634-1.795-3.16-2.667 2.054-5.282 4.055-7.949 6.109.872.684 1.744 1.369 2.616 2.106.718-2.896 1.641-5.687 2.923-8.372.872-1.949-1.231-3.58-2.821-2.212-4 3.265-8 6.635-12.05 10.005.973.579 2 1.21 2.973 1.79.718-2.527 1.795-4.792 3.334-6.845 1.384-1.79-.923-4.37-2.513-2.58-4.051 4.423-8.923 7.74-14.462 9.741-1.794.632-1.64 3.897.462 3.633 3.538-.42 7.077-.79 10.667-.684a81.528 81.528 0 00-1.282-3.16 133.22 133.22 0 01-13.18 10.268c-1.949 1.317-.256 4.16 1.795 3.16 3.23-1.527 6.359-2.896 9.897-3.476-.564-1-1.179-2.053-1.743-3.054-1.898 2.16-3.949 4.16-6.205 5.898.718.948 1.436 1.948 2.154 2.896.666-.632 1.384-1.264 2.05-1.896l-2.512-2.58-7.538 9.794c-.82 1.106-.462 3.318 1.282 3.16 3.436-.316 6.564-1.264 9.64-2.844l-2.46-2.527c-1.59 2.896-3.54 5.529-5.847 7.95-.974 1.001-.359 3.37 1.282 3.16 2.564-.368 5.18-.684 7.744-1.053-.513-.948-1.026-1.843-1.539-2.79-2 4.001-4 7.95-5.949 11.952-.564 1.159.103 2.896 1.539 2.79 3.282-.21 6.051-2 7.384-5.107.924-2.106-1.846-3.896-3.076-1.843-1.95 3.107-2.924 6.53-3.129 10.163-.102 1.474 1.539 2.159 2.718 1.58 2.103-1.053 4.205-2.107 6.36-3.16l-2.462-2.527c-1.231 2.211-2.41 4.423-3.641 6.634-.77 1.37.513 3.16 2.051 2.686 3.897-1.106 7.59-2.633 11.18-4.581-.719-.948-1.436-1.948-2.154-2.896a44.973 44.973 0 00-6.462 9.057c-.82 1.527.923 3.633 2.462 2.527a142.568 142.568 0 0116.153-9.952c-.718-.948-1.436-1.948-2.154-2.896-2.307 2.949-4.564 5.898-6.871 8.846-1.282 1.632-3.18 3.633-1.795 5.792.564.896 1.538 1.106 2.461.685a66.19 66.19 0 0013.18-7.898c1.282-1.001 1.077-3.581-.923-3.423a34.243 34.243 0 01-6.975-.263l.462 3.633a52.782 52.782 0 0015.538-7.793c1.693-1.264.616-3.686-1.384-3.37-3.949.579-7.641 1.948-11.077 3.949.718.948 1.436 1.948 2.154 2.896a51.4 51.4 0 0113.025-11.637c1.692-1.053.616-4.002-1.384-3.37-2.872.895-5.693 1.79-8.564 2.738.666.895 1.333 1.79 2.051 2.686a759.684 759.684 0 015.589-8.004c.872-1.264-.615-3.317-2.051-2.686a29.903 29.903 0 01-7.692 2.16c.41 1.052.82 2.106 1.282 3.159 3.128-3.37 6.051-6.898 8.82-10.531 1.385-1.843-.769-4.16-2.512-2.58-1.693 1.474-3.385 3-5.077 4.475.974.58 2 1.211 2.974 1.79a94.754 94.754 0 003.231-11.9c.256-1.211-.821-2.843-2.205-2.264-3.18 1.264-5.59 3.423-6.975 6.635-.923 2.159 2.154 4.001 3.077 1.842 1.795-4.423 3.334-8.898 4.359-13.585.308-1.263-.872-2.738-2.205-2.264-2.051.737-4.051 1.422-6.102 2.159.564 1 1.179 2.053 1.743 3.054 1.436-1.738 2.872-3.475 4.359-5.213 1.128-1.316.103-3.58-1.743-3.054-2 .58-3.795.632-5.795.158l1.077 2.685c1.077-2.053 2.102-4.107 3.179-6.16 1.077-2.054-2-3.897-3.077-1.843z"/><path d="M82.042 11.65c3.898-.947 8.308-2.317 11.334-5.107 1.692-1.58-.821-4.213-2.513-2.58-2.513 2.316-6.513 3.37-9.744 4.16-2.308.526-1.333 4.107.923 3.527z"/></g><defs><clipPath id="clip0"><path fill="#fff" d="M0 0h44.502v76.167H0z"/></clipPath><clipPath id="clip1"><path fill="#fff" transform="translate(140.354)" d="M0 0h43.647v76.167H0z"/></clipPath><clipPath id="clip2"><path fill="#fff" transform="translate(71.889 .856)" d="M0 0h52.205v74.456H0z"/></clipPath></defs></svg>
