<svg width="25" height="26" viewBox="0 0 25 26" fill="none" xmlns="http://www.w3.org/2000/svg">
<g opacity="0.3">
<path d="M9.8758 12.8116C11.0728 12.4986 11.9768 11.4516 11.9768 10.3786C11.9768 9.3436 12.4268 8.49561 12.9768 8.49561C13.5268 8.49561 13.9768 9.39561 13.9768 10.4956C13.9768 11.6066 14.6438 12.4956 15.4768 12.4956C16.3018 12.4956 16.9768 12.9456 16.9768 13.4956C16.9768 14.0456 16.3018 14.4956 15.4768 14.4956C14.6518 14.4956 13.9768 15.3686 13.9768 16.4366C13.9768 17.5046 13.5268 18.6556 12.9768 18.9956C12.4268 19.3356 11.9768 18.6866 11.9768 17.5546C11.9768 16.4226 11.3288 15.4956 10.5358 15.4956C8.13981 15.4956 7.6248 13.4006 9.8758 12.8116Z" fill="#2A3B5E"/>
<path fill-rule="evenodd" clip-rule="evenodd" d="M7.77731 0.800332C1.12119 4.47057 -1.90652 13.4344 1.26184 20.0906C3.95184 25.7413 13.3507 27.8525 19.338 24.1508C27.3091 19.2231 26.7443 5.34541 18.3981 1.04278C15.9271 -0.230782 9.89737 -0.3688 7.77731 0.800332ZM16.2561 1.41155C17.6963 1.81027 19.5607 2.87644 20.3995 3.78049C21.9628 5.46591 24.7487 13.4797 23.5048 12.7136C23.1122 12.4712 22.9268 13.2475 23.0748 14.5159C23.2184 15.7413 23.0294 16.7439 22.6558 16.7439C22.2814 16.7439 22.1752 17.0659 22.4192 17.4588C23.107 18.5688 21.3408 21.2861 20.2119 20.8538C19.6208 20.6281 19.3482 20.837 19.5504 21.362C20.1035 22.7991 16.1293 24.6197 12.9053 24.4057C8.63735 24.1231 5.03677 23.349 4.00019 22.491C2.13507 20.948 0.623776 15.4667 1.13218 12.0878C2.00174 6.31008 7.35608 0.791568 12.1727 0.71124C12.9786 0.697365 14.8158 1.01283 16.2561 1.41155Z" fill="#2A3B5E" fill-opacity="0.8"/>
</g>
</svg>
