<svg width="29" height="20" viewBox="0 0 29 20" fill="none" xmlns="http://www.w3.org/2000/svg">
<g clip-path="url(#clip0)">
<path d="M3.40391 0.476074H26.0229C27.6666 0.476074 28.9991 1.80855 28.9991 3.45225V16.5475C28.9991 18.1912 27.6666 19.5237 26.0229 19.5237H3.40391C1.76021 19.5237 0.427734 18.1913 0.427734 16.5475V3.4523C0.427734 1.80855 1.76021 0.476074 3.40391 0.476074Z" fill="#E5E8ED"/>
<path d="M28.9992 4.04749H0.427734V8.80937H28.9992V4.04749Z" fill="#6A7281"/>
<path d="M25.5625 15.5H5.43754C4.64364 15.5 4 14.8284 4 14C4 13.1716 4.64364 12.5 5.43754 12.5H25.5625C26.3564 12.5 27 13.1716 27 14C27 14.8284 26.3564 15.5 25.5625 15.5Z" fill="#FAFAFA"/>
<rect x="19.5" y="11" width="7" height="5" rx="2.5" stroke="#FF6860"/>
</g>
<defs>
<clipPath id="clip0">
<rect width="28.5714" height="20" fill="white" transform="translate(0.427734)"/>
</clipPath>
</defs>
</svg>
