<svg width="28" height="21" viewBox="0 0 28 21" fill="none" xmlns="http://www.w3.org/2000/svg">
<g clip-path="url(#clip0)">
<path d="M25.5847 19.6747H2.23161C1.16914 19.6747 0.308594 18.8141 0.308594 17.7517V3.09538C0.308594 2.03387 1.16914 1.17236 2.23161 1.17236H25.5847C26.6472 1.17236 27.5077 2.03387 27.5077 3.09538V17.7507C27.5077 18.8132 26.6472 19.6747 25.5847 19.6747Z" fill="#E4E9EC"/>
<path d="M18.9204 8.74121C20.2139 8.74121 21.2626 7.69256 21.2626 6.39899C21.2626 5.10541 20.2139 4.05676 18.9204 4.05676C17.6268 4.05676 16.5781 5.10541 16.5781 6.39899C16.5781 7.69256 17.6268 8.74121 18.9204 8.74121Z" fill="#FEE218"/>
<path d="M22.2817 8.74121C23.5753 8.74121 24.6239 7.69256 24.6239 6.39899C24.6239 5.10541 23.5753 4.05676 22.2817 4.05676C20.9881 4.05676 19.9395 5.10541 19.9395 6.39899C19.9395 7.69256 20.9881 8.74121 22.2817 8.74121Z" fill="#CD494C"/>
<path d="M8.35611 12.295H3.80721C3.27646 12.295 2.8457 11.8652 2.8457 11.3335C2.8457 10.8017 3.27646 10.3719 3.80721 10.3719H8.35611C8.88686 10.3719 9.31762 10.8017 9.31762 11.3335C9.31762 11.8642 8.88686 12.295 8.35611 12.295Z" fill="white"/>
<path d="M12.4194 7.36052H3.80721C3.27646 7.36052 2.8457 6.93072 2.8457 6.39901C2.8457 5.86729 3.27646 5.4375 3.80721 5.4375H12.4194C12.9502 5.4375 13.381 5.86729 13.381 6.39901C13.381 6.93072 12.9502 7.36052 12.4194 7.36052Z" fill="white"/>
<path d="M23.2931 17.2294H3.80916C3.27841 17.2294 2.84766 16.7996 2.84766 16.2679C2.84766 15.7362 3.27841 15.3064 3.80916 15.3064H23.2931C23.8238 15.3064 24.2546 15.7362 24.2546 16.2679C24.2546 16.7987 23.8248 17.2294 23.2931 17.2294Z" fill="#BAC2C9"/>
<path d="M24.0092 17.2294H21.192C20.6612 17.2294 20.2305 16.7996 20.2305 16.2679C20.2305 15.7362 20.6612 15.3064 21.192 15.3064H24.0092C24.5399 15.3064 24.9707 15.7362 24.9707 16.2679C24.9707 16.7987 24.5399 17.2294 24.0092 17.2294Z" fill="#B9C3C6"/>
</g>
<defs>
<clipPath id="clip0">
<rect width="27.6923" height="20" fill="white" transform="translate(0.308594 0.5)"/>
</clipPath>
</defs>
</svg>
