<svg width="22" height="22" viewBox="0 0 22 22" fill="none" xmlns="http://www.w3.org/2000/svg">
<path d="M11.0001 0.0800781C8.10391 0.0800781 5.32637 1.23058 3.27847 3.27847C1.23058 5.32637 0.0800781 8.10391 0.0800781 11.0001C0.0800781 13.8962 1.23058 16.6738 3.27847 18.7217C5.32637 20.7696 8.10391 21.9201 11.0001 21.9201C13.8962 21.9201 16.6738 20.7696 18.7217 18.7217C20.7696 16.6738 21.9201 13.8962 21.9201 11.0001C21.9201 8.10391 20.7696 5.32637 18.7217 3.27847C16.6738 1.23058 13.8962 0.0800781 11.0001 0.0800781ZM17.2258 14.9794L14.9781 17.2271L11.0001 13.2478L7.02078 17.2258L4.77308 14.9781L8.75368 11.0001L4.77438 7.02078L7.02208 4.77438L11.0001 8.75238L14.9794 4.77308L17.2271 7.02078L13.2465 11.0001L17.2258 14.9794Z" fill="#FF6860"/>
</svg>
