<svg width="41" height="39" viewBox="0 0 41 39" fill="none" xmlns="http://www.w3.org/2000/svg">
<path fill-rule="evenodd" clip-rule="evenodd" d="M3.03158 0.138201C1.82175 0.387126 1.68791 0.435777 1.39281 0.733994C0.883412 1.24876 0.774728 1.6345 0.752647 3.00579C0.729299 4.45526 0.838345 4.79756 1.57353 5.58311C1.82239 5.84904 2.06555 6.17168 2.11387 6.30016C2.16898 6.44667 2.18591 8.61201 2.15921 12.1038C2.12048 17.1636 2.09604 17.8833 1.89198 19.9601C1.76845 21.2175 1.64628 22.3169 1.6204 22.4032C1.59461 22.4894 1.30801 22.7955 0.983499 23.0834C0.111309 23.8572 0 24.1196 0 25.4013C0 26.3679 0.0204518 26.4952 0.253295 26.9742C0.971735 28.4527 2.84172 29.3444 4.07128 28.7948C4.77451 28.4804 4.85596 28.5123 5.39069 29.3108C6.33338 30.7187 7.83324 32.5999 8.77521 33.556L9.73663 34.5317L9.58785 34.882C9.28596 35.5927 9.25411 35.7638 9.2941 36.4614C9.32587 37.0168 9.3875 37.2647 9.57337 37.5852C10.0271 38.3676 10.7895 38.8302 11.8692 38.9782C12.9513 39.1265 14.1756 38.5068 14.8864 37.451C15.1104 37.1183 15.3833 36.8037 15.4928 36.7519C15.6231 36.6903 19.0592 36.6353 25.4021 36.5933C33.28 36.5411 35.1796 36.5515 35.47 36.6483C35.6849 36.7199 36.0869 37.0152 36.4751 37.3866C37.1588 38.0406 37.5046 38.2028 38.2167 38.2037C39.3556 38.2053 39.9421 37.7694 40.1713 36.7514C40.4849 35.3577 40.3331 34.5199 39.6204 33.7128L39.1283 33.1554L39.1797 32.4562C39.5325 27.657 39.6256 22.9609 39.4679 17.9024L39.3896 15.3875L39.7662 14.9303C39.9733 14.6789 40.2626 14.2214 40.409 13.9139C40.7565 13.1836 41.0654 11.8712 40.988 11.454C40.8854 10.901 40.447 10.3459 39.8991 10.0749C39.4596 9.85765 39.339 9.83707 38.8208 9.89066C38.1231 9.9629 37.7739 9.81338 36.6957 8.98073C36.3224 8.69248 35.8601 8.38494 35.6682 8.29733C35.3507 8.15238 33.5743 6.65279 31.5038 4.78192C31.06 4.38091 30.6418 3.91927 30.5743 3.75604C30.5068 3.5928 30.4516 3.2185 30.4516 2.9243C30.4516 1.79069 30.0614 1.13153 29.0756 0.599563C28.7271 0.411543 28.5699 0.390601 27.5557 0.397186C26.2668 0.405599 25.7767 0.557314 25.1977 1.12732C25.0207 1.30162 24.7356 1.48763 24.5642 1.54067C24.2012 1.65306 12.8189 1.83651 9.01918 1.79115L6.5455 1.76161L6.30433 1.45389C5.17577 0.0139203 4.65425 -0.195773 3.03158 0.138201ZM4.99939 1.73875C5.26916 2.03176 5.49476 2.97332 5.38653 3.35457C5.26337 3.78868 5.13007 3.91068 4.77922 3.91068C4.27326 3.91068 4.14186 3.78713 4.0758 3.24913C4.04322 2.98429 3.9721 2.55293 3.91762 2.29065C3.79219 1.68626 3.89572 1.53299 4.42955 1.53299C4.70755 1.53299 4.86094 1.58841 4.99939 1.73875ZM28.3521 1.66148C29.084 2.0463 29.4791 3.08224 29.1885 3.85462C29.0922 4.1105 28.6706 4.36738 28.4607 4.29806C28.1578 4.19801 27.9177 3.87666 27.9177 3.57122C27.9177 3.32696 27.8339 3.18146 27.5105 2.86376C27.2865 2.64374 27.1032 2.43752 27.1032 2.40542C27.1032 2.22417 27.4115 1.79307 27.6248 1.67611C27.9379 1.50446 28.0491 1.50217 28.3521 1.66148ZM27.227 3.1896C27.3893 3.42371 27.3266 3.63633 27.0953 3.63633C26.9166 3.63633 26.7666 3.26806 26.8738 3.09284C26.9642 2.94506 27.0794 2.97661 27.227 3.1896ZM20.2256 3.7703C20.9971 3.84447 22.1874 3.94826 22.8707 4.00094C23.5541 4.05361 24.21 4.13391 24.3283 4.17936C24.4467 4.22481 24.7338 4.46514 24.9665 4.71351C25.4559 5.23587 26.1406 5.64026 26.7865 5.78841L27.239 5.89221L27.2162 8.62362C27.2023 10.281 27.158 11.3908 27.1033 11.446C27.0538 11.4961 26.4329 11.5884 25.7235 11.6512C24.0947 11.7955 16.8196 11.8174 16.4533 11.6792C16.3133 11.6264 15.992 11.3656 15.7395 11.0996L15.2803 10.6161L14.5178 10.544C14.0984 10.5043 13.5447 10.4668 13.2876 10.4606C12.7454 10.4475 12.8696 10.5424 10.9951 8.70757C10.2734 8.00113 9.29401 7.11086 8.81873 6.72906C7.82591 5.93181 6.7654 4.81475 6.68188 4.47821C6.60143 4.1543 6.7502 3.96838 7.15897 3.88205C7.53389 3.80295 12.4536 3.68114 16.4248 3.65261C17.975 3.64145 19.3189 3.68315 20.2256 3.7703ZM32.4163 8.13812C33.8741 9.60817 35.0668 10.8589 35.0668 10.9175C35.0668 11.0927 34.8679 11.1253 33.1887 11.226C32.3054 11.279 31.3873 11.3625 31.1485 11.4116C30.6243 11.5195 30.1165 11.5274 30.0562 11.4288C30.0318 11.3891 29.9909 10.8645 29.9651 10.2629C29.9394 9.6613 29.8347 8.60094 29.7325 7.90657C29.4913 6.26861 29.4861 5.46532 29.7166 5.46532C29.7436 5.46532 30.9585 6.66807 32.4163 8.13812ZM5.47983 6.36473C5.70109 6.5073 6.65708 7.38174 7.60411 8.30803C8.55114 9.23423 9.70187 10.2742 10.1613 10.6191C10.661 10.9943 11.0174 11.3302 11.0485 11.4554C11.0846 11.6008 11.0179 11.78 10.8302 12.0418C10.493 12.5122 10.3266 13.1741 10.3222 14.0623C10.3172 15.0923 10.5705 15.4731 11.7458 16.2008C11.8849 16.2869 12.0366 16.4582 12.083 16.5815C12.1338 16.7166 12.1412 18.0666 12.1015 19.9831L12.0358 23.1608L11.1761 23.2254C10.7033 23.261 9.99064 23.3349 9.59247 23.3899C8.43775 23.5493 5.96805 23.7378 5.70372 23.6866C5.57069 23.661 5.25504 23.4478 5.00229 23.2128L4.54267 22.7858L4.66058 22.1545C4.75334 21.6578 4.76574 20.4298 4.71886 16.3978C4.65823 11.1863 4.58963 9.37049 4.38131 7.46139C4.28548 6.58375 4.28584 6.3682 4.38321 6.24968C4.56547 6.02783 5.03315 6.07684 5.47983 6.36473ZM39.4451 11.3614C39.6899 11.591 39.7029 11.6394 39.6575 12.1457C39.5964 12.8267 39.3464 13.2419 38.8309 13.5183C38.4901 13.701 38.3965 13.7165 38.1956 13.6241C37.7483 13.4181 37.7233 13.1661 38.0459 12.1215C38.3832 11.0294 38.5694 10.7947 38.9433 10.9906C39.0759 11.06 39.3017 11.2269 39.4451 11.3614ZM14.6677 12.1966C15.1464 12.4262 15.3389 12.8249 15.3389 13.5871C15.3389 14.1291 15.3058 14.2717 15.1353 14.4646C14.8337 14.8057 14.5097 14.8517 14.2228 14.5941C14.0262 14.4175 13.9617 14.2326 13.8407 13.4982C13.7284 12.817 13.7189 12.5697 13.7989 12.4184C13.8825 12.2607 14.1285 12.0924 14.3298 12.0555C14.3472 12.0523 14.4992 12.1158 14.6677 12.1966ZM34.939 13.5619C35.0537 13.5852 35.1931 13.7464 35.2936 13.9714C35.5786 14.6101 36.2677 15.1389 37.0866 15.3473C37.3165 15.4058 37.5446 15.5023 37.5935 15.5617C37.6513 15.6321 37.6533 16.8327 37.5994 19.0038C37.5322 21.7071 37.4783 22.5799 37.3149 23.6181C37.126 24.8173 37.1144 25.1546 37.131 28.9477C37.1468 32.5828 37.1339 33.0029 37.0041 33.0533C36.7063 33.1688 33.4137 29.6593 31.5852 27.2774C30.6167 26.0159 30.5022 25.7801 30.5189 25.0813C30.5386 24.2524 30.3829 23.4246 30.0733 22.7118L29.7947 22.0705L29.8106 18.1347C29.8251 14.5622 29.8407 14.1844 29.9806 14.0427C30.0948 13.9273 30.5226 13.8384 31.628 13.7004C33.7002 13.4418 34.2389 13.4193 34.939 13.5619ZM27.0516 14.2967C27.1755 14.4221 27.1937 14.8642 27.1937 17.7606C27.1937 20.3074 27.1674 21.1019 27.0806 21.1715C27.0184 21.2214 26.8046 21.3152 26.6055 21.3799C26.032 21.5663 25.587 21.9136 25.3872 22.3308C25.2857 22.5424 25.2028 22.758 25.2028 22.8097C25.2028 22.8615 25.128 22.9723 25.0365 23.0559C24.8849 23.1946 24.4224 23.206 19.8126 23.1844L14.755 23.1608L14.6669 22.9076C14.6076 22.7372 14.6166 22.2883 14.6942 21.5358C14.7576 20.9207 14.8423 19.5943 14.8821 18.5883C14.9675 16.4341 15.0259 16.2278 15.6716 15.8007C15.9136 15.6406 16.2048 15.3659 16.3188 15.1903C16.7054 14.5942 17.3191 14.4814 21.1758 14.2978C24.9606 14.1176 26.8739 14.1173 27.0516 14.2967ZM28.91 23.961C29.1552 24.5059 29.1604 24.5443 29.0206 24.7841C28.8415 25.0915 28.6217 25.1731 28.3813 25.0214C27.9702 24.7619 27.8439 24.0681 28.1279 23.6299C28.3938 23.2199 28.6196 23.3155 28.91 23.961ZM4.19263 25.0824C4.43597 25.3949 4.60031 26.1383 4.52529 26.5872C4.42765 27.1711 3.92956 27.4713 3.47048 27.223C2.95357 26.9434 2.85684 25.2481 3.33926 24.9226C3.56695 24.769 4.0139 24.8526 4.19263 25.0824ZM10.3029 25.3176C11.3324 25.3834 11.8958 25.4567 11.9766 25.5353C12.1202 25.6752 12.3433 29.3351 12.349 31.6428C12.3523 32.9776 12.3389 33.0969 12.1662 33.2714C12.0389 33.4001 11.8892 33.4507 11.6934 33.4314C11.4395 33.4064 11.1101 33.049 8.80407 30.2973C7.37253 28.5891 6.13963 27.0602 6.06434 26.8998C5.85883 26.4622 5.88335 25.6288 6.10841 25.4013C6.27166 25.2364 6.41003 25.2184 7.52013 25.2184C8.19694 25.2184 9.44921 25.2631 10.3029 25.3176ZM25.2933 26.1093C25.6846 26.8886 25.8453 27.0829 26.3407 27.3763C26.8834 27.6977 27.5289 27.7956 28.321 27.6765C28.6986 27.6197 29.0413 27.6105 29.1149 27.655C29.4126 27.8347 32.4908 31.1421 33.6523 32.5301C34.7346 33.8236 34.8874 34.0445 34.7633 34.1363C34.3102 34.4711 20.8519 34.4769 17.6013 34.1437C16.8298 34.0646 15.8229 33.9994 15.3636 33.9988C14.1336 33.997 14.2196 34.351 14.3295 29.7422C14.4107 26.3401 14.437 25.9153 14.5769 25.7591C14.7184 25.6011 14.8781 25.5833 16.2353 25.5752C17.0612 25.5702 17.961 25.5346 18.2347 25.4961C18.5085 25.4575 20.1339 25.4307 21.8467 25.4364L24.9609 25.4471L25.2933 26.1093ZM39.2935 34.4098C39.7461 34.7301 39.7573 35.9299 39.3132 36.5005C38.7737 37.1935 37.9652 36.3265 38.0749 35.1728C38.1481 34.4029 38.7508 34.0256 39.2935 34.4098ZM13.3421 35.089C13.5151 35.2638 13.7085 35.8102 13.7094 36.1267C13.7102 36.3516 13.4552 36.948 13.3219 37.0337C13.0499 37.2084 12.7111 37.1005 12.3089 36.711C12.0841 36.4933 11.9001 36.2483 11.9001 36.1664C11.9001 36.0319 12.0941 35.6866 12.4895 35.1178C12.6694 34.859 13.1001 34.8445 13.3421 35.089Z" fill="#009DAF"/>
</svg>
