<svg width="25" height="26" viewBox="0 0 25 26" fill="none" xmlns="http://www.w3.org/2000/svg">
<g opacity="0.3">
<path fill-rule="evenodd" clip-rule="evenodd" d="M15.4566 7.15767C15.2521 7.26611 14.6305 7.81861 14.031 8.42469C13.4944 8.96722 13.3602 9.11451 12.4438 10.1663C11.5912 11.1449 11.4572 11.2949 10.9709 11.8161C9.92559 12.9364 8.86738 13.7755 7.86538 14.2787C7.74966 14.3369 7.63228 14.4133 7.60457 14.4485C7.54326 14.5264 7.5402 14.6334 7.59608 14.7452C7.63586 14.8249 7.63586 14.8328 7.59603 14.9116C7.54737 15.0079 7.54295 15.0858 7.58192 15.1592C7.5972 15.1879 7.98348 15.591 8.44031 16.0549C9.20947 16.8359 10.1791 17.6356 10.1791 17.7122C10.1791 17.8302 10.2516 17.9388 10.3733 18.0031C10.5405 18.0916 10.6451 18.0787 10.8697 17.9423C11.5901 17.5048 12.5003 16.7827 13.249 16.0549C14.1285 15.1998 14.4922 14.802 16.0182 13.0255C17.2759 11.5615 17.6502 11.1429 18.2216 10.5613C18.455 10.3238 18.6572 10.0998 18.671 10.0636C18.7027 9.98012 18.7034 9.79625 18.6722 9.73793C18.6591 9.71343 17.5758 8.82319 17.3748 8.6533C16.8592 8.21734 16.4231 7.80838 16.1121 7.46918C15.9651 7.30876 15.822 7.16442 15.7941 7.14844C15.723 7.1076 15.5417 7.11255 15.4566 7.15767ZM6.87585 15.7915C6.77971 15.8437 6.54279 16.8083 6.33613 17.5048C6.12759 18.2077 6 18.692 6 18.7807C6 18.9512 6.70262 19.4649 6.87585 19.4644C7.08375 19.4638 7.64811 19.3024 8.5 19C9.11936 18.7802 9.63811 18.5597 9.6901 18.3863C9.71236 18.312 9.70609 18.2765 9.64144 18.1106C9.55213 17.8815 8.86548 17.2772 8.65555 17.0103C8.48433 16.7925 7.41133 15.8701 7.2978 15.7998C7.21003 15.7454 6.96934 15.7407 6.87585 15.7915Z" fill="#2A3B5E"/>
<path fill-rule="evenodd" clip-rule="evenodd" d="M7.77731 0.800332C1.12119 4.47057 -1.90652 13.4344 1.26184 20.0906C3.95184 25.7413 13.3507 27.8525 19.338 24.1508C27.3091 19.2231 26.7443 5.34541 18.3981 1.04278C15.9271 -0.230782 9.89737 -0.3688 7.77731 0.800332ZM16.2561 1.41155C17.6963 1.81027 19.5607 2.87644 20.3995 3.78049C21.9628 5.46591 24.7487 13.4797 23.5048 12.7136C23.1122 12.4712 22.9268 13.2475 23.0748 14.5159C23.2184 15.7413 23.0294 16.7439 22.6558 16.7439C22.2814 16.7439 22.1752 17.0659 22.4192 17.4588C23.107 18.5688 21.3408 21.2861 20.2119 20.8538C19.6208 20.6281 19.3482 20.837 19.5504 21.362C20.1035 22.7991 16.1293 24.6197 12.9053 24.4057C8.63735 24.1231 5.03677 23.349 4.00019 22.491C2.13507 20.948 0.623776 15.4667 1.13218 12.0878C2.00174 6.31008 7.35608 0.791568 12.1727 0.71124C12.9786 0.697365 14.8158 1.01283 16.2561 1.41155Z" fill="#2A3B5E" fill-opacity="0.8"/>
</g>
</svg>
