<svg width="16" height="15" viewBox="0 0 16 15" fill="none" xmlns="http://www.w3.org/2000/svg">
<path d="M1.62817 6.33604C1.21351 5.8673 0.809389 5.41605 0.408782 4.96129C0.180366 4.70244 0.180366 4.38411 0.408782 4.18822C0.640712 3.98533 0.949952 4.02031 1.18188 4.27917C1.57195 4.71293 1.9585 5.15019 2.34505 5.58395C2.35207 5.59095 2.36262 5.59445 2.38019 5.60494C2.67186 5.37057 2.96704 5.1327 3.27628 4.88434C3.23762 4.82137 3.19897 4.75841 3.16031 4.69544C2.86513 4.2267 2.57346 3.76495 2.28179 3.3032C2.09203 2.99887 2.14474 2.68404 2.41181 2.52663C2.67537 2.36921 2.97055 2.45667 3.1568 2.7505C3.44847 3.21225 3.74014 3.6775 4.03181 4.13924C4.06695 4.19871 4.10912 4.25468 4.14426 4.30715C4.48864 4.13575 4.82248 3.97134 5.17389 3.79643C5.10712 3.58305 5.04035 3.36967 4.97007 3.15278C4.84356 2.754 4.71354 2.35522 4.58352 1.95994C4.4781 1.63112 4.60812 1.34427 4.89979 1.25332C5.19497 1.16237 5.46204 1.31629 5.57098 1.64511C5.7502 2.19781 5.9259 2.7505 6.10512 3.3032C6.12269 3.35917 6.14378 3.41164 6.16486 3.46761C6.49167 3.41164 6.81497 3.35917 7.15935 3.3032C7.15935 3.24373 7.15935 3.18427 7.15935 3.1213C7.15935 2.48815 7.15584 1.8515 7.15935 1.21834C7.15935 0.976976 7.30694 0.788079 7.52833 0.721615C7.74972 0.655152 7.99922 0.735608 8.10815 0.934999C8.16438 1.04344 8.19601 1.17637 8.19601 1.2988C8.20303 1.92146 8.20303 2.54412 8.19601 3.16678C8.19601 3.28921 8.22412 3.33468 8.35765 3.34868C8.63527 3.38366 8.90937 3.44662 9.20455 3.50259C9.24672 3.38016 9.2924 3.25073 9.33457 3.1213C9.48919 2.64206 9.64381 2.15933 9.79843 1.67659C9.9144 1.31279 10.1885 1.14838 10.4942 1.24983C10.7824 1.34777 10.8983 1.63811 10.7859 1.98442C10.5996 2.55811 10.4169 3.13529 10.2307 3.70898C10.2166 3.75096 10.2061 3.79643 10.192 3.84541C10.5223 4.01681 10.8456 4.18472 11.19 4.36312C11.2216 4.31765 11.2603 4.26867 11.2919 4.2162C11.6117 3.70898 11.928 3.19826 12.2513 2.69454C12.3813 2.48815 12.5816 2.40769 12.8065 2.45667C13.0209 2.50214 13.193 2.66655 13.2001 2.88693C13.2036 3.01636 13.1649 3.16678 13.0982 3.27872C12.7924 3.78944 12.4727 4.28616 12.1564 4.78989C12.1248 4.83886 12.0966 4.88783 12.0615 4.9438C12.3567 5.18517 12.6413 5.41954 12.9471 5.66791C12.9822 5.62943 13.0244 5.59095 13.0595 5.54897C13.4496 5.10821 13.8432 4.66746 14.2332 4.23019C14.3843 4.06229 14.5776 4.00982 14.7884 4.07628C14.9887 4.13924 15.1047 4.28966 15.1398 4.49605C15.168 4.67795 15.0907 4.82137 14.9712 4.9543C14.5811 5.38806 14.1946 5.82532 13.808 6.25908C13.7694 6.30106 13.7342 6.34654 13.6885 6.39901C13.8818 6.62638 14.0856 6.83627 14.2508 7.07064C14.5425 7.48341 14.8201 7.90668 15.0836 8.33695C15.2839 8.65877 15.2593 8.99808 15.0907 9.3339C14.7955 9.92857 14.3984 10.4533 13.9626 10.9465C13.0173 12.0099 11.928 12.8984 10.6453 13.5351C9.67192 14.0178 8.64581 14.3117 7.54941 14.3012C6.37571 14.2872 5.29688 13.9374 4.28482 13.3707C2.68943 12.4752 1.38921 11.2578 0.377155 9.73618C0.32093 9.64873 0.275247 9.55078 0.215507 9.46683C-0.100761 9.02607 -0.0445353 8.5993 0.22605 8.15505C0.591515 7.56037 1.00618 7.01117 1.47707 6.49695C1.52275 6.45148 1.56843 6.39901 1.62817 6.33604ZM3.59606 8.80219C3.6066 11.0235 5.39879 12.8005 7.62672 12.797C9.82654 12.7935 11.6258 10.985 11.6117 8.7917C11.6012 6.57041 9.80546 4.80038 7.5705 4.80738C5.38825 4.81437 3.58552 6.62288 3.59606 8.80219Z" fill="#A7ABB5"/>
<path d="M7.6203 6.57705C8.86078 6.59105 9.85879 7.595 9.84473 8.82283C9.83067 10.0577 8.82213 11.0406 7.58165 11.0301C6.3236 11.0196 5.34668 10.0157 5.36425 8.74937C5.3783 7.53903 6.39037 6.56306 7.6203 6.57705Z" fill="#A7ABB5"/>
</svg>
