<svg width="16" height="15" viewBox="0 0 16 15" fill="none" xmlns="http://www.w3.org/2000/svg">
<path d="M5.25766 11.5525C4.89497 11.3685 4.54623 11.188 4.18702 11.004C3.92197 11.4241 3.65693 11.8441 3.39537 12.2642C3.3605 12.3197 3.32911 12.3718 3.29424 12.4274C3.12335 12.6738 2.81994 12.7363 2.57582 12.5801C2.34565 12.4274 2.2759 12.1253 2.42935 11.8788C2.68045 11.4692 2.93852 11.0665 3.1931 10.6603C3.23844 10.5874 3.28377 10.5145 3.33608 10.4277C3.03616 10.1743 2.73624 9.92088 2.42935 9.66051C2.06666 10.0667 1.70745 10.4694 1.35173 10.8721C1.21572 11.0283 1.04833 11.1047 0.842567 11.063C0.451974 10.9832 0.298528 10.5319 0.560086 10.2264C0.891392 9.84103 1.23316 9.46263 1.57144 9.08423C1.61678 9.03216 1.66211 8.98008 1.71443 8.9176C1.56795 8.73707 1.40753 8.56697 1.28547 8.37603C0.971602 7.89695 0.668196 7.41788 0.375252 6.92491C0.162518 6.56387 0.190416 6.19588 0.371763 5.81748C0.723994 5.08151 1.19829 4.42538 1.72838 3.81438C2.73973 2.64793 3.93244 1.72102 5.36577 1.12044C7.11647 0.384468 8.86018 0.429598 10.5725 1.22806C12.4732 2.10984 13.9693 3.45681 15.0539 5.24814C15.1271 5.36965 15.1864 5.50504 15.2561 5.63002C15.5456 6.15075 15.5038 6.66107 15.2352 7.18181C14.9318 7.76503 14.5621 8.29966 14.1367 8.79956C14.0913 8.85164 14.046 8.90371 13.9902 8.97314C14.053 9.04257 14.1123 9.112 14.1715 9.17796C14.4715 9.51471 14.7714 9.85145 15.0713 10.1917C15.284 10.4347 15.2736 10.7541 15.0504 10.9485C14.8272 11.1394 14.5238 11.1151 14.3076 10.8756C13.9623 10.4937 13.624 10.1083 13.2718 9.71259C12.9614 9.96601 12.658 10.2125 12.3441 10.4694C12.4697 10.6673 12.5917 10.8617 12.7138 11.0561C12.8847 11.3303 13.0625 11.6011 13.2299 11.8788C13.3869 12.1392 13.3136 12.4412 13.0695 12.5905C12.8219 12.7398 12.522 12.6704 12.3581 12.4169C12.093 12.0038 11.835 11.5872 11.5734 11.1706C11.5455 11.1255 11.5176 11.0839 11.4862 11.0422C11.1305 11.2192 10.7783 11.3963 10.4086 11.5803C10.5097 11.8927 10.6109 12.2121 10.712 12.528C10.7818 12.7433 10.8515 12.955 10.9178 13.1703C11.0154 13.4862 10.8899 13.7604 10.6004 13.8576C10.3179 13.9514 10.0424 13.7986 9.9378 13.4897C9.78435 13.0175 9.63439 12.5454 9.48095 12.0733C9.46351 12.0212 9.44258 11.9656 9.42166 11.9101C9.05897 11.9726 8.70674 12.0316 8.33009 12.0941C8.33009 12.1427 8.33009 12.1982 8.33009 12.2538C8.33009 12.7849 8.33009 13.3161 8.33009 13.8472C8.33009 14.1805 8.12085 14.4027 7.82093 14.4027C7.52101 14.4027 7.30479 14.1805 7.3013 13.8507C7.29781 13.3265 7.3013 12.7988 7.3013 12.2746C7.3013 12.2121 7.3013 12.1496 7.3013 12.0871C6.94209 12.0212 6.60033 11.9587 6.24112 11.8927C6.19927 12.0177 6.15045 12.1531 6.10511 12.2885C5.97607 12.6843 5.85053 13.08 5.72149 13.4758C5.61687 13.7952 5.35531 13.9479 5.06934 13.8576C4.77291 13.7639 4.64039 13.4897 4.74501 13.1633C4.82871 12.8925 4.91938 12.6252 5.00657 12.3579C5.08329 12.0871 5.16699 11.8268 5.25766 11.5525ZM7.84185 10.3826C8.22896 10.3166 8.62652 10.2889 9.00317 10.1847C10.9736 9.62232 12.3999 8.33437 13.5787 6.72356C13.7705 6.46319 13.7217 6.22018 13.5438 5.97717C12.5604 4.63715 11.3816 3.52277 9.8541 2.81457C8.53934 2.20357 7.21063 2.18274 5.88889 2.79721C4.38929 3.49153 3.18612 4.55036 2.21662 5.87303C1.8888 6.31739 1.89229 6.42501 2.21662 6.87284C3.04314 8.00457 4.07891 8.91065 5.29254 9.61191C6.07721 10.0597 6.91768 10.3375 7.84185 10.3826Z" fill="#A7ABB5"/>
</svg>
