<svg width="56" height="56" viewBox="0 0 56 56" fill="none" xmlns="http://www.w3.org/2000/svg">
<path d="M54.4452 28.4454C54.0455 27.9565 53.5569 27.5343 53.1016 27.0898C54.2232 25.9676 54.5119 24.9454 54.0122 23.8343C53.4459 22.5676 52.4131 22.1343 51.0806 22.1898C50.3699 22.2231 49.6593 22.2009 48.9042 22.2009C48.9042 20.912 48.9153 19.7009 48.8931 18.4787C48.8931 18.1565 48.993 18.0009 49.2706 17.8343C52.502 15.9676 53.4348 11.8898 51.3249 8.8787C49.2151 5.85648 45.0732 5.33425 42.1971 7.70092C41.9972 7.86759 41.6752 7.9787 41.4087 7.9787C39.3766 8.00092 37.3445 7.98981 35.3124 7.98981C35.1125 7.98981 34.9237 7.98981 34.6906 7.98981C34.6906 8.61203 34.6906 9.16759 34.6906 9.73425C33.5024 9.73425 32.3475 9.73425 31.1372 9.73425C31.1372 8.84537 31.1372 7.98981 31.1372 7.0787C29.0162 7.0787 26.9619 7.0787 24.8965 7.0787C24.6855 5.72314 24.1969 4.53425 23.3863 3.50092C21.7762 1.43425 19.6219 0.345366 17.0457 0.0675879C13.67 -0.31019 9.92778 1.20092 8.17329 4.42314C7.80685 5.08981 7.41819 5.36759 6.6742 5.51203C3.68712 6.0787 1.53287 8.46759 1.06649 11.5898C0.655626 14.3676 2.14361 17.2454 4.74204 18.6676C4.86419 18.7343 4.98633 18.812 5.10848 18.8898C5.08627 18.9343 5.08627 18.9454 5.07517 18.9676C4.95302 19.0787 4.83087 19.2009 4.71983 19.312C1.54398 22.3787 0.255868 26.0787 1.44404 30.3898C2.53227 34.3454 5.24173 36.9009 9.05054 38.2898C10.0277 38.6454 11.0604 38.8343 12.0709 39.1009C11.4713 41.6343 11.5157 42.2454 12.2375 44.7676C12.0709 44.8231 11.9377 44.8787 11.7933 44.9231C9.41698 45.6454 7.4293 46.9343 5.75254 48.7676C4.91971 49.6898 4.40891 50.6343 4.54216 51.9343C4.6532 52.9454 4.56437 53.9898 4.56437 55.012C14.6583 55.012 24.6744 55.012 34.7239 55.012C34.7239 53.512 34.735 52.0565 34.7128 50.5898C34.7128 50.4231 34.635 50.2231 34.5351 50.0898C33.5468 48.6343 32.3586 47.3565 30.8373 46.4787C29.6492 45.7898 28.3722 45.2565 27.0841 44.6231C27.0841 44.612 27.1174 44.4676 27.1729 44.3343C28.6165 40.0565 26.3956 35.5787 22.0871 34.1565C21.754 34.0454 21.5763 33.8676 21.4541 33.5454C19.3887 28.4454 17.3233 23.3454 15.2579 18.2565C15.2024 18.112 15.1579 17.9565 15.0802 17.7454C20.4769 17.7454 25.807 17.7454 31.1816 17.7454C31.1816 16.8454 31.1816 16.0009 31.1816 15.1454C32.3697 15.1454 33.5246 15.1454 34.735 15.1454C34.735 15.7454 34.735 16.3009 34.735 16.8898C37.0114 16.8898 39.2323 16.8898 41.442 16.9009C41.653 16.9009 41.8862 16.9454 42.0528 17.0565C42.508 17.3343 42.9411 17.6565 43.3742 17.9676C43.463 18.0343 43.5741 18.1565 43.5741 18.2565C43.5852 19.5676 43.5852 20.8676 43.5852 22.1565C43.4963 22.1898 43.463 22.212 43.4297 22.212C42.5969 22.212 41.764 22.212 40.9312 22.2231C39.7986 22.2343 38.8436 22.9009 38.4438 23.9343C38.0441 24.9565 38.2995 26.0343 39.1101 26.8343C39.1989 26.9231 39.2878 27.0009 39.4099 27.112C39.2767 27.2343 39.1767 27.3343 39.0657 27.4231C38.2329 28.1009 37.611 28.9343 37.1557 29.9009C36.2452 31.8454 36.334 33.912 36.6227 35.9454C37.1557 39.5565 40.8535 42.2343 44.4291 41.7009C44.4291 39.9565 44.4291 38.212 44.4291 36.4343C44.1071 36.4343 43.8073 36.4454 43.5185 36.4343C42.5969 36.3898 41.8529 35.7009 41.8085 34.7898C41.7752 34.112 41.7752 33.4231 41.8085 32.7343C41.8529 31.7787 42.7968 31.0231 43.5741 31.1676C43.5741 31.4676 43.563 31.7898 43.5741 32.1009C43.6296 33.5343 44.8178 34.6787 46.2502 34.6676C47.6827 34.6676 48.8486 33.512 48.8931 32.0676C48.9042 31.7565 48.8931 31.4454 48.8931 31.1454C49.9813 31.112 50.6698 32.0787 50.6698 32.8231C50.6698 33.4565 50.692 34.0787 50.6698 34.712C50.6364 35.6787 49.9036 36.412 48.9264 36.4454C48.6377 36.4565 48.3489 36.4454 48.0491 36.4454C48.0491 38.2565 48.0491 40.0009 48.0491 41.7343C51.5914 42.0565 54.734 40.0343 55.6667 36.6787C55.9888 35.4898 55.9443 34.2009 55.9888 32.9454C56.0443 31.2343 55.5002 29.7343 54.4452 28.4454ZM16.9791 1.82314C20.2438 2.2787 22.8644 4.53425 23.0643 7.0787C22.4979 7.0787 21.9316 7.0787 21.3653 7.0787C20.1549 3.01203 13.7477 2.20092 11.2825 6.04537C10.7495 5.85648 10.2165 5.65648 9.69459 5.46759C10.5052 3.1787 14.0475 1.41203 16.9791 1.82314ZM19.4442 7.08981C17.1678 7.08981 15.0136 7.08981 12.7816 7.08981C13.4812 5.88981 14.5361 5.43425 15.7687 5.35648C17.2456 5.25648 18.5226 5.6787 19.4442 7.08981ZM4.79756 33.1898C1.62171 29.1676 2.31018 23.4454 6.34107 20.2787C6.36328 20.2565 6.4077 20.2565 6.48543 20.2343C6.68531 20.7231 6.9185 21.2009 7.07396 21.7009C7.11838 21.8454 6.94071 22.0898 6.80745 22.2343C5.45272 23.6454 4.60879 25.312 4.58658 27.2898C4.54216 30.5343 6.1634 32.8565 8.92839 34.3454C9.92778 34.8787 11.1048 35.0898 12.2264 35.4009C12.5373 35.4898 12.7705 35.5676 12.8593 35.9009C12.9038 36.0787 12.9926 36.2454 13.0592 36.412C13.359 37.1565 13.2369 37.3231 12.4485 37.2454C9.36146 36.912 6.75193 35.6565 4.79756 33.1898ZM7.90679 23.712C9.25042 27.012 10.5607 30.2454 11.9266 33.6009C9.50582 33.012 7.70691 31.812 6.75193 29.5676C5.9191 27.6009 6.39659 25.1898 7.90679 23.712ZM32.925 51.5231C32.925 52.0898 32.925 52.6454 32.925 53.2343C24.0859 53.2343 15.2468 53.2343 6.36328 53.2343C6.36328 52.6565 6.36328 52.1009 6.36328 51.5231C15.2246 51.5231 24.0637 51.5231 32.925 51.5231ZM31.7146 49.4343C31.7701 49.4898 31.8145 49.5454 31.8589 49.6009C31.87 49.612 31.8589 49.6343 31.8589 49.6787C23.7305 49.6787 15.6021 49.6787 7.34046 49.6787C7.61807 49.4009 7.82906 49.1676 8.06225 48.9676C10.1277 47.1565 12.5262 46.1898 15.2801 46.1676C18.2117 46.1454 21.1543 46.1343 24.0859 46.1676C27.0507 46.2231 29.6047 47.3343 31.7146 49.4343ZM16.9902 41.7231C16.9902 40.2787 18.1894 39.0787 19.633 39.0676C21.1099 39.0676 22.3092 40.2676 22.3092 41.7454C22.3092 43.1898 21.1099 44.3898 19.6663 44.4009C18.1894 44.4009 16.9791 43.2009 16.9902 41.7231ZM23.4307 36.812C25.6516 38.5343 26.4622 41.5231 25.4073 44.0231C25.2629 44.3676 25.1075 44.5009 24.7188 44.4454C24.2524 44.3787 23.7749 44.4343 23.1753 44.4343C24.0526 43.1343 24.3191 41.8231 23.8749 40.412C23.5751 39.4454 22.9976 38.6676 22.1648 38.0898C20.4992 36.9343 18.2561 37.0565 16.7348 38.4009C15.0469 39.8787 14.8137 41.8898 16.0574 44.3787C15.4578 44.412 14.9137 44.4676 14.3584 44.4454C14.203 44.4343 14.0031 44.2343 13.9254 44.0676C12.8038 41.5676 13.6478 38.5009 15.913 36.7787C18.1339 35.0787 21.232 35.1009 23.4307 36.812ZM19.4109 33.1787C19.4776 33.3454 19.5331 33.5231 19.5997 33.7343C17.7231 33.7787 16.0907 34.3898 14.6138 35.5231C13.8032 33.5231 13.0148 31.5787 12.2153 29.6231C10.6718 25.812 9.11716 22.0009 7.57366 18.1787C7.4404 17.8565 7.27384 17.7009 6.9185 17.612C4.20903 16.9676 2.44343 14.4343 2.80988 11.7898C3.23184 8.9787 5.55266 7.01203 8.37317 7.11203C12.2264 7.24537 14.6805 11.5454 12.7927 14.9009C12.4374 15.5343 12.4152 16.012 12.6928 16.6676C14.947 22.1565 17.1678 27.6676 19.4109 33.1787ZM25.8293 15.9565C21.9982 15.9565 18.1894 15.9565 14.3029 15.9565C15.5022 13.612 15.5244 11.2787 14.2807 8.91203C18.1561 8.91203 21.9649 8.91203 25.8293 8.91203C25.8293 11.2787 25.8293 13.6009 25.8293 15.9565ZM29.3605 15.9454C28.8163 15.9454 28.2611 15.9454 27.6504 15.9454C27.6504 13.5898 27.6504 11.2676 27.6504 8.91203C28.2167 8.91203 28.7608 8.91203 29.3605 8.91203C29.3605 11.2343 29.3605 13.5676 29.3605 15.9454ZM34.7017 13.3231C34.1131 13.3231 33.5468 13.3231 32.9805 13.3231C32.4142 13.3231 31.8367 13.3231 31.226 13.3231C31.226 12.7454 31.226 12.1898 31.226 11.5898C32.3586 11.5898 33.5135 11.5898 34.7017 11.5898C34.7017 12.1676 34.7017 12.7231 34.7017 13.3231ZM36.5228 15.0676C36.5228 13.312 36.5228 11.5787 36.5228 9.81203C37.8553 9.81203 39.1878 9.81203 40.6203 9.81203C39.8541 11.5676 39.8541 13.3009 40.6314 15.0676C39.2322 15.0676 37.8886 15.0676 36.5228 15.0676ZM41.8196 12.412C41.8196 9.9787 43.8295 7.9787 46.2724 7.98981C48.7154 8.00092 50.692 10.0009 50.692 12.4454C50.6809 14.8898 48.6821 16.8676 46.2391 16.8676C43.7961 16.8676 41.8196 14.8676 41.8196 12.412ZM47.1164 18.6343C47.1164 19.812 47.1164 20.9676 47.1164 22.1676C46.55 22.1676 45.9837 22.1676 45.3952 22.1676C45.3952 20.9898 45.3952 19.8231 45.3952 18.6343C45.9615 18.6343 46.5056 18.6343 47.1164 18.6343ZM43.5741 29.2676C43.4297 29.2898 43.2965 29.3009 43.1521 29.3231C41.3088 29.6009 40.054 31.0565 40.0429 32.9231C40.0429 33.6231 39.9873 34.3343 40.0762 35.0231C40.2761 36.5898 41.2088 37.5787 42.6857 38.0787C42.6857 38.6676 42.6857 39.2343 42.6857 39.8676C42.4081 39.8009 42.1638 39.7565 41.9195 39.6787C39.7542 38.9565 38.2773 36.9343 38.2773 34.6454C38.2773 33.6898 38.244 32.712 38.3994 31.7787C38.8103 29.3565 41.0978 27.5009 43.563 27.5454C43.5741 28.1231 43.5741 28.6787 43.5741 29.2676ZM47.1386 31.8343C47.1386 32.4676 46.761 32.8676 46.228 32.8454C45.7061 32.8231 45.373 32.4454 45.373 31.8231C45.3619 30.412 45.373 28.9898 45.373 27.5343C45.9948 27.5343 46.5278 27.5343 47.0942 27.5343C47.1164 27.6565 47.1386 27.7787 47.1386 27.9009C47.1386 29.212 47.1497 30.5231 47.1386 31.8343ZM46.228 25.7454C44.529 25.7454 42.8301 25.7454 41.1311 25.7454C40.4426 25.7454 40.0318 25.4009 40.0429 24.8454C40.054 24.2898 40.4537 23.9676 41.1533 23.9676C44.5512 23.9676 47.9381 23.9676 51.336 23.9676C52.0356 23.9676 52.4465 24.2898 52.4576 24.8343C52.4687 25.4009 52.0578 25.7343 51.3138 25.7343C49.6259 25.7454 47.927 25.7454 46.228 25.7454ZM54.1121 35.6898C53.8012 37.7009 52.0911 39.4009 50.1145 39.8231C50.0257 39.8454 49.9369 39.8231 49.8258 39.8231C49.8258 39.2454 49.8258 38.6787 49.8258 38.112C50.1701 37.9454 50.5143 37.812 50.8252 37.612C51.8135 36.9676 52.3798 36.0454 52.4576 34.8676C52.502 34.112 52.502 33.3565 52.4576 32.6009C52.3576 30.8009 51.0029 29.5231 48.9597 29.2787C48.9597 28.7231 48.9597 28.1565 48.9597 27.5343C50.592 27.5787 51.9357 28.2009 52.9795 29.4231C53.8012 30.3787 54.2343 31.512 54.2343 32.7676C54.2343 33.7343 54.2565 34.7231 54.1121 35.6898Z" fill="white"/>
<path d="M8.16226 8.87767C6.19678 8.85545 4.57554 10.4332 4.56444 12.3888C4.54223 14.3554 6.13016 15.9666 8.08453 15.9777C10.0611 15.9888 11.6601 14.3999 11.6601 12.4443C11.6712 10.4999 10.0944 8.8999 8.16226 8.87767ZM8.11784 14.211C7.15176 14.211 6.36335 13.4332 6.34114 12.4666C6.33004 11.4999 7.09624 10.6888 8.06232 10.6666C9.05061 10.6443 9.87233 11.4332 9.89454 12.411C9.90565 13.3888 9.10613 14.211 8.11784 14.211Z" fill="white"/>
<path d="M48.9154 12.3888C48.8932 10.9444 47.6939 9.7666 46.2393 9.7666C44.7846 9.77771 43.5964 10.9666 43.5964 12.4222C43.5964 13.8999 44.7957 15.0999 46.2726 15.0999C47.7384 15.0888 48.9376 13.8666 48.9154 12.3888ZM45.3731 12.4333C45.3731 11.9333 45.8062 11.5222 46.2948 11.5444C46.7723 11.5666 47.1498 11.9777 47.1387 12.4555C47.1276 12.9333 46.7168 13.3222 46.2393 13.311C45.7618 13.311 45.3731 12.911 45.3731 12.4333Z" fill="white"/>
</svg>
