<svg width="57" height="57" viewBox="0 0 57 57" fill="none" xmlns="http://www.w3.org/2000/svg">
<path d="M56.0428 20.1449C56.0428 19.7589 55.9726 19.3612 55.8557 18.9987C55.3527 17.525 53.8323 16.601 52.3235 16.8349C50.7329 17.0805 49.5282 18.4139 49.5165 20.0162C49.4931 22.9402 49.458 25.8524 49.5282 28.7764C49.5633 30.0045 49.306 31.022 48.5574 32.0162C48.1598 32.5542 47.7738 32.7764 47.1305 32.7062C46.382 32.6243 45.6101 32.0396 45.4112 31.3378C45.0604 30.1097 44.7212 28.87 44.3586 27.6419C43.8323 25.8407 42.1013 24.8583 40.3586 25.3612C38.6627 25.8524 37.7387 27.5951 38.2417 29.3963C38.5341 30.4606 38.8966 31.5132 39.1306 32.5893C39.3177 33.3963 39.3528 34.215 38.8499 34.9986C38.23 35.9694 37.7504 37.0103 37.1189 37.9694C35.7855 39.981 35.5282 42.1214 36.113 44.4372C36.5341 46.0863 36.7914 47.7822 37.1306 49.4781C36.9668 49.4898 36.8616 49.5132 36.7446 49.5132C35.7388 49.5366 35.4814 49.8056 35.4814 50.8114C35.4814 52.1681 35.4814 53.5366 35.4814 54.8933C35.4814 55.7003 35.8089 56.0395 36.6042 56.0395C41.1539 56.0395 45.7153 56.0395 50.265 56.0395C51.0253 56.0395 51.3644 55.7003 51.3644 54.9284C51.3761 53.6418 51.3644 52.3553 51.3644 51.0804C51.3644 49.7003 51.2124 49.5366 49.844 49.5015C49.7504 49.5015 49.6568 49.4898 49.4931 49.4781C49.4931 48.4839 49.4697 47.5483 49.5048 46.6243C49.5165 46.3319 49.6451 45.981 49.8323 45.7471C51.7504 43.5249 53.7036 41.3261 55.61 39.0922C55.844 38.8232 56.0077 38.4021 56.0077 38.0512C56.0545 32.0863 56.0545 26.1214 56.0428 20.1449ZM49.458 54.133C45.458 54.133 41.4463 54.133 37.3879 54.133C37.3879 53.1974 37.3879 52.3202 37.3879 51.3962C41.4113 51.3962 45.4112 51.3962 49.458 51.3962C49.458 52.2968 49.458 53.1974 49.458 54.133ZM54.1714 37.4781C54.1714 37.7588 54.0428 38.0863 53.8674 38.2968C51.9609 40.5074 50.0428 42.7062 48.113 44.8933C47.7738 45.2676 47.6335 45.6535 47.6451 46.1565C47.6685 47.2442 47.6568 48.3319 47.6568 49.5132C47.189 49.5132 46.7797 49.5132 46.382 49.5132C44.1013 49.5132 41.8323 49.5015 39.5516 49.5249C39.2007 49.5249 39.0604 49.443 38.9785 49.0687C38.5925 47.022 38.1481 44.9986 37.7621 42.9518C37.5516 41.829 37.7154 40.753 38.3002 39.7471C39.0721 38.4138 39.7738 37.0454 40.6042 35.7588C41.3294 34.636 41.2124 33.4431 41.0019 32.2735C40.7797 31.0805 40.3469 29.9226 40.0428 28.7296C39.8557 28.0045 40.2651 27.3378 40.9668 27.1507C41.6218 26.9635 42.2884 27.3378 42.5457 28.0162C42.5808 28.1214 42.6159 28.2384 42.651 28.3554C43.0721 29.8056 43.5048 31.2676 43.9025 32.7296C44.0311 33.1857 44.2533 33.4898 44.6861 33.6653C44.92 33.7588 45.1539 33.8641 45.3645 34.0045C46.382 34.7413 47.5399 34.6126 48.6744 34.5542C48.9317 34.5425 49.2475 34.3085 49.4112 34.0746C50.0428 33.2091 50.6276 32.3203 51.189 31.408C51.341 31.1624 51.3878 30.8232 51.3995 30.5308C51.4112 27.1039 51.4112 23.6887 51.4112 20.2618C51.4112 19.3378 51.9726 18.718 52.7913 18.7063C53.6334 18.6946 54.2065 19.3261 54.2182 20.2735C54.2182 20.332 54.2182 20.3905 54.2182 20.4489C54.2182 24.6361 54.2182 28.8115 54.2182 32.9986C54.1831 34.4723 54.1948 35.9694 54.1714 37.4781Z" fill="white"/>
<path d="M18.9082 49.4547C19.3176 47.408 19.7035 45.408 20.1012 43.408C20.4287 41.7589 20.1831 40.2033 19.341 38.7413C18.569 37.3963 17.7971 36.0396 17.0369 34.6829C16.9316 34.5074 16.8146 34.2852 16.8263 34.0981C16.8614 33.4197 16.8965 32.7413 17.0486 32.0864C17.2474 31.1741 17.5632 30.2969 17.7854 29.3846C17.8907 28.9753 17.9608 28.5308 17.9258 28.1215C17.7503 26.5191 16.5456 25.3729 14.9667 25.2443C13.5047 25.1273 12.1363 26.1098 11.6919 27.6069C11.3527 28.7414 11.0018 29.8759 10.7328 31.0337C10.5574 31.794 10.1948 32.2384 9.46964 32.5308C8.60415 32.8817 8.01935 32.7647 7.50473 32.0045C7.3176 31.7238 7.15386 31.4314 6.95503 31.1858C6.61585 30.7764 6.52228 30.3203 6.52228 29.7823C6.54567 26.6127 6.53398 23.4431 6.53398 20.2619C6.53398 20.0045 6.53398 19.7472 6.48719 19.5016C6.15971 17.7823 4.63925 16.6478 2.93165 16.8116C1.25914 16.9753 0.00768248 18.3788 0.00768248 20.1098C-0.00401339 26.0981 -0.00401339 32.0747 0.0193784 38.0513C0.0193784 38.4138 0.206512 38.8466 0.452126 39.139C2.35855 41.3729 4.31176 43.5717 6.24158 45.7822C6.37024 45.9226 6.52228 46.098 6.53398 46.2618C6.55737 47.3261 6.54567 48.3904 6.54567 49.5015C6.30006 49.5015 6.11293 49.5015 5.9141 49.5015C4.96673 49.5015 4.67433 49.8056 4.67433 50.7647C4.67433 52.1448 4.67433 53.5249 4.67433 54.905C4.67433 55.7003 5.01351 56.0278 5.82053 56.0278C10.3585 56.0278 14.8848 56.0278 19.4228 56.0278C20.2181 56.0278 20.5573 55.6886 20.5573 54.8933C20.5573 53.712 20.5573 52.5191 20.5573 51.3378C20.5456 49.6653 20.5456 49.6653 18.9082 49.4547ZM2.19481 38.2969C2.01937 38.0981 1.87902 37.794 1.87902 37.5367C1.86733 31.7589 1.86733 25.9811 1.86733 20.2034C1.86733 19.2794 2.4989 18.6478 3.34101 18.6829C4.12463 18.7297 4.66264 19.3379 4.66264 20.2385C4.66264 23.6186 4.65094 27.0104 4.68603 30.3905C4.68603 30.8232 4.84977 31.3028 5.07199 31.677C5.53983 32.484 6.10123 33.2326 6.60415 34.0162C6.84977 34.3905 7.17725 34.5191 7.62169 34.5659C9.09537 34.753 10.3819 34.2852 11.5749 33.5133C11.8205 33.3495 12.031 33.0337 12.1246 32.753C12.6041 31.1975 13.0252 29.6185 13.493 28.063C13.6918 27.3846 14.2766 27.0221 14.9082 27.1039C15.493 27.1741 15.9959 27.6536 16.0427 28.2618C16.0661 28.5074 16.0076 28.7648 15.9375 28.9987C15.7269 29.7706 15.4813 30.5308 15.2825 31.2911C15.1421 31.8525 15.0018 32.4139 14.9199 32.987C14.7445 34.2384 15.0954 35.3378 15.7971 36.3905C16.4989 37.4431 17.0603 38.5776 17.6918 39.6653C18.3117 40.7413 18.4755 41.8875 18.2298 43.0922C17.8205 45.0922 17.4345 47.0922 17.0135 49.0922C16.9784 49.2442 16.7445 49.4781 16.6041 49.4781C13.9141 49.5015 11.2357 49.4898 8.54567 49.4898C8.51058 49.4898 8.47549 49.4664 8.38192 49.4314C8.38192 48.3086 8.41701 47.1974 8.35853 46.0863C8.33514 45.677 8.1597 45.2091 7.90239 44.8934C6.03105 42.6828 4.10124 40.5074 2.19481 38.2969ZM18.6392 54.1565C14.6041 54.1565 10.6041 54.1565 6.56907 54.1565C6.56907 53.2442 6.56907 52.3553 6.56907 51.4197C10.5691 51.4197 14.5807 51.4197 18.6392 51.4197C18.6392 52.2968 18.6392 53.1974 18.6392 54.1565Z" fill="white"/>
<path d="M26.8846 4.16837C26.2063 1.59528 23.8788 -0.100626 21.1887 0.00463711C18.6507 0.1099 16.487 2.01633 15.9724 4.56603C15.9373 4.74146 15.8671 4.96369 15.7268 5.04556C14.9899 5.52509 14.2297 5.98123 13.3993 6.48415C12.7443 5.81748 11.9841 5.09234 11.2706 4.33211C10.8496 3.87597 10.3935 3.67714 9.77358 3.72392C9.28235 3.75901 8.77943 3.73562 8.2882 3.73562C8.19463 3.49001 8.12446 3.31457 8.04259 3.13913C7.38762 1.8058 6.33499 1.03387 4.84961 0.940307C2.94319 0.835044 1.28237 2.19176 0.95489 4.0865C0.650798 5.91105 1.83208 7.77069 3.63324 8.27362C5.48119 8.78824 7.37592 7.85257 8.12446 6.0631C8.18294 5.92275 8.21802 5.74731 8.32329 5.65374C8.53381 5.46661 9.92562 5.65374 10.1478 5.87596C10.8379 6.55432 11.5163 7.25608 12.218 7.92274C12.4636 8.15666 12.4987 8.36718 12.3935 8.68297C12.0543 9.71221 12.0309 10.7531 12.3818 11.7824C12.5221 12.2034 12.4168 12.4257 12.1011 12.7064C9.96071 14.6596 9.66831 17.8759 11.3993 20.1683C12.4987 21.6303 13.9958 22.3437 15.8554 22.4373C15.8671 22.5543 15.8788 22.6361 15.8905 22.7063C16.1361 25.8642 18.6507 28.1332 21.7852 28.0162C24.756 27.8993 27.0952 25.3964 27.0952 22.297C27.0952 16.7765 27.0952 11.2444 27.0835 5.72392C27.0835 5.2093 27.025 4.67129 26.8846 4.16837ZM4.62739 6.54263C3.60985 6.51924 2.80284 5.67713 2.80284 4.65959C2.80284 3.61866 3.66833 2.78825 4.70926 2.79995C5.7268 2.83504 6.54552 3.66544 6.53382 4.68298C6.53382 5.72392 5.66833 6.56602 4.62739 6.54263ZM25.2121 22.3554C25.2121 24.4373 23.6449 26.0864 21.6449 26.1566C19.6215 26.2268 17.9139 24.718 17.7502 22.7414C17.5864 20.718 19.0016 18.987 21.0601 18.7063C21.177 18.6946 21.294 18.6829 21.4461 18.6712C21.4461 18.0748 21.4461 17.4783 21.4461 16.835C20.0776 16.8467 18.8613 17.2443 17.8788 18.1683C17.294 18.718 16.8145 19.4081 16.4168 20.0981C16.1829 20.5075 15.9373 20.5777 15.5513 20.5426C13.7151 20.3905 12.218 18.835 12.1361 16.9987C12.0543 15.0572 13.411 13.4198 15.3642 13.1157C15.5162 13.0923 15.6683 13.0806 15.8671 13.0572C15.8671 12.6011 15.8671 12.1566 15.8671 11.7122C15.8671 11.5602 15.8437 11.4081 15.832 11.1859C15.2823 11.2678 14.7794 11.3379 14.2648 11.4081C13.5046 9.96952 14.3934 7.73561 16.0426 7.02216C16.4987 8.53093 17.3759 9.7239 18.756 10.4958C19.5747 10.952 20.4636 11.2093 21.4461 11.1976C21.4461 10.5777 21.4461 10.0046 21.4461 9.38472C21.1887 9.33794 20.9314 9.30285 20.6741 9.24437C18.7911 8.82332 17.5045 7.02216 17.7736 5.12743C18.0426 3.16252 19.7618 1.75902 21.7501 1.87598C23.6566 1.99294 25.2121 3.60697 25.2121 5.54848C25.2238 11.1508 25.2238 16.7531 25.2121 22.3554Z" fill="white"/>
<path d="M40.0075 23.7474C40.1128 23.3146 40.1479 22.8819 40.2064 22.5076C40.8262 22.379 41.411 22.3088 41.9607 22.1217C46.0309 20.7533 47.0952 15.572 43.914 12.6714C43.6683 12.4492 43.5046 12.2854 43.6449 11.8995C44.0309 10.8001 43.9724 9.68896 43.6449 8.56615C43.5982 8.40241 43.6566 8.1451 43.7619 8.01645C44.4754 7.26791 45.1537 6.47259 45.9724 5.85271C46.3584 5.57201 47.0251 5.63049 47.5631 5.63049C47.7151 5.63049 47.8905 5.99306 47.9958 6.21528C48.7093 7.74744 50.3935 8.63633 52.0309 8.33224C53.7736 7.99306 55.0484 6.56616 55.1186 4.85856C55.2005 3.11588 54.066 1.53694 52.4169 1.0691C50.7677 0.601268 48.9081 1.27963 48.1829 2.82348C47.797 3.6305 47.3525 3.86442 46.5572 3.73576C46.4286 3.71237 46.2882 3.74746 46.1479 3.73576C45.5982 3.67728 45.1888 3.88781 44.8145 4.28547C44.0777 5.05739 43.3175 5.80593 42.6157 6.50768C41.8789 6.02815 41.2473 5.57201 40.5806 5.19774C40.2765 5.034 40.1128 4.87026 40.0426 4.51938C39.5163 1.78255 36.8847 -0.217443 34.1947 0.039866C31.2005 0.320567 28.9783 2.63635 28.9666 5.53692C28.9432 11.1743 28.9549 16.8234 28.9666 22.4608C28.9783 25.3029 31.1421 27.6655 33.9842 27.9813C36.7327 28.3088 39.3643 26.4491 40.0075 23.7474ZM51.3291 2.81179C52.3701 2.7884 53.2356 3.6188 53.2473 4.65973C53.259 5.70067 52.4052 6.55447 51.3642 6.54277C50.3467 6.54277 49.5163 5.71236 49.5046 4.69482C49.5046 3.67728 50.3116 2.83518 51.3291 2.81179ZM38.2765 22.8936C37.9958 24.8702 36.2882 26.2737 34.2999 26.145C32.3701 26.0281 30.838 24.4024 30.8263 22.4258C30.8146 16.8585 30.8146 11.303 30.8263 5.73575C30.8263 3.60711 32.3701 1.94629 34.3935 1.87612C36.4286 1.80594 38.1713 3.3498 38.2882 5.34979C38.4169 7.43165 36.9432 9.11586 34.8029 9.34978C34.7444 9.36147 34.6859 9.36147 34.5923 9.37317C34.5923 9.95796 34.5923 10.5545 34.5923 11.1509C36.6976 11.455 38.7912 9.8644 40.0075 7.04569C41.5748 7.65388 42.3935 9.64217 41.8087 11.4199C41.259 11.3381 40.7444 11.2679 40.1947 11.186C40.1947 11.841 40.1947 12.4375 40.1947 12.9638C40.7912 13.1626 41.3876 13.2796 41.914 13.5486C43.3526 14.2737 44.1479 15.9229 43.8438 17.455C43.5163 19.1392 42.2181 20.3673 40.5572 20.5544C40.0777 20.6129 39.797 20.5076 39.5748 20.0164C38.6742 18.0515 36.4871 16.6948 34.5806 16.8819C34.5806 17.455 34.5806 18.0281 34.5806 18.648C34.8146 18.6831 35.0485 18.7299 35.2941 18.7766C37.2473 19.186 38.5455 20.9872 38.2765 22.8936Z" fill="white"/>
</svg>
