<svg width="49" height="25" viewBox="0 0 49 25" fill="none" xmlns="http://www.w3.org/2000/svg">
<path d="M30.3176 10.5908C29.1771 9.12012 28.0759 7.70987 26.9649 6.27948C29.0001 4.0533 30.9861 1.82712 33.9259 0.960829C40.2674 -0.92286 46.6582 2.6632 48.3099 9.51298C49.5979 14.8618 47.4251 20.2107 42.981 22.8398C40.4837 24.3206 37.78 24.653 34.9582 24.371C30.7502 23.9378 27.6236 21.631 25.0378 18.3875C22.9436 15.7584 20.8494 13.1293 18.7159 10.5404C18.067 9.75473 17.3395 8.99924 16.5431 8.36463C14.3801 6.66226 11.5485 6.55146 9.60176 8.09266C7.78286 9.52305 7.06513 11.4571 7.43874 13.7437C7.79269 15.8692 9.05117 17.3399 11.0667 17.9745C12.807 18.5285 14.4784 18.2767 15.9532 17.1082C16.5332 16.6448 17.0543 16.1009 17.5951 15.5972C18.0572 15.1741 18.5095 14.741 19.0011 14.2877C19.6205 15.0532 20.2005 15.7684 20.7806 16.4836C21.3509 17.1988 21.9211 17.904 22.57 18.73C21.2821 19.8783 20.0629 21.0468 18.7651 22.1045C16.5824 23.8673 14.0753 24.6026 11.283 24.4314C6.06228 24.109 1.45112 19.7675 0.802212 14.4388C0.37944 10.9534 0.99885 7.6998 3.16187 4.89945C5.26589 2.18976 8.05815 0.789585 11.4207 0.527681C16.4448 0.134827 20.5348 2.0991 23.7892 5.88663C25.6572 8.06244 27.2795 10.4599 29.0591 12.7163C29.9931 13.9049 30.937 15.1036 32.0381 16.1109C33.7489 17.6823 35.8038 18.2565 38.0749 17.6219C41.8897 16.5441 43.2465 12.0514 40.7689 8.76756C39.3039 6.83351 36.9639 6.18882 34.7419 7.1357C33.5424 7.64944 32.5592 8.47544 31.6055 9.36188C31.1926 9.74466 30.7895 10.1375 30.3176 10.5908Z" fill="white"/>
</svg>
