<svg width="37" height="55" viewBox="0 0 37 55" fill="none" xmlns="http://www.w3.org/2000/svg">
<path d="M25.1105 19.4738C24.5071 20.4975 23.9274 21.4863 23.3478 22.4751C22.7681 23.4523 22.0582 23.6384 21.0763 23.0801C17.9412 21.3002 14.7944 19.5204 11.6593 17.7405C10.6774 17.1822 10.4881 16.4842 11.0678 15.507C13.3155 11.6798 15.5515 7.8642 17.7993 4.03698C18.3435 3.10634 19.0888 2.90858 20.0352 3.4437C20.3783 3.62982 20.7096 3.82758 21.1236 4.06024C21.2656 3.82758 21.3957 3.61819 21.514 3.4088C22.0227 2.53633 22.5315 1.65223 23.052 0.791394C23.4897 0.081786 24.2114 -0.197404 24.9212 0.186482C26.6248 1.10548 28.3165 2.07101 29.9728 3.07144C30.6116 3.45533 30.7063 4.23474 30.304 4.93271C29.6889 5.99131 29.0619 7.0499 28.3993 8.16666C28.7779 8.38768 29.1328 8.60871 29.4996 8.8181C30.4223 9.36485 30.6235 10.1792 30.0556 11.0865C29.8308 11.4471 29.6061 11.8078 29.3576 12.2149C33.6757 15.5419 36.1483 19.9043 36.8226 25.2205C37.2722 28.7685 36.5387 32.8052 35.0835 35.3411C34.2672 34.9573 33.4391 34.5617 32.5755 34.1546C34.5038 30.0598 34.8351 25.9069 33.238 21.6725C32.1733 18.8573 30.3869 16.5656 27.9261 14.6811C27.4647 15.4605 27.027 16.205 26.5893 16.9379C33.7585 23.5337 32.1969 33.9685 25.4299 38.8543C25.5246 39.0288 25.6192 39.2149 25.7257 39.401C26.7904 41.2158 27.8788 43.0072 28.9081 44.8452C29.2511 45.4734 29.6415 45.6944 30.3632 45.6712C32.9777 45.5897 34.8706 46.8345 36.1838 48.9865C36.9054 50.1615 37.0592 51.4644 36.9527 52.8021C36.8936 53.5466 36.2666 54.0352 35.4266 54.0352C32.1378 54.0352 28.8371 54.0352 25.5482 54.0352C17.9767 54.0352 10.4053 54.0352 2.83378 54.0352C1.46145 54.0352 1.05922 53.5699 0.988237 52.2089C0.822611 48.9749 3.50812 46.1016 6.50122 45.7177C7.16372 45.6363 7.83806 45.6595 8.51239 45.6712C8.85547 45.6828 9.03293 45.5665 9.19856 45.2757C10.2633 43.4144 11.3754 41.588 12.4046 39.7151C12.8897 38.831 13.5167 38.4937 14.5459 38.5635C16.4269 38.6798 18.3316 38.7612 20.189 38.2959C24.4716 37.214 27.1098 34.5268 28.0918 30.3157C28.979 26.5001 28.3165 23.0103 25.631 19.9973C25.5246 19.881 25.4181 19.7647 25.2998 19.66C25.2879 19.5785 25.2288 19.5553 25.1105 19.4738ZM19.6685 6.44499C17.7993 9.62077 15.9656 12.75 14.12 15.9025C16.5926 17.2985 19.0178 18.6828 21.4785 20.0788C23.3478 16.8913 25.1815 13.7737 27.027 10.6212C24.5426 9.21362 22.1292 7.84094 19.6685 6.44499ZM34.1016 51.1852C34.0425 50.9409 34.007 50.7315 33.9478 50.5337C33.4983 49.1843 32.3507 48.4282 30.7063 48.4282C25.4299 48.4282 20.1417 48.4282 14.8653 48.4282C12.31 48.4282 9.74276 48.4165 7.18738 48.4282C5.37733 48.4398 4.08781 49.5449 3.95768 51.1852C13.9662 51.1852 23.9866 51.1852 34.1016 51.1852ZM22.9573 40.227C22.5551 40.3782 22.2239 40.4945 21.8926 40.6109C19.7513 41.367 17.539 41.4484 15.3031 41.3437C14.9008 41.3205 14.6642 41.4252 14.4631 41.7974C13.8834 42.856 13.2564 43.8797 12.653 44.9267C12.5347 45.1361 12.4164 45.3454 12.2863 45.5897C16.9238 45.5897 21.4785 45.5897 26.1042 45.5897C25.0513 43.775 24.0103 42.0184 22.9573 40.227ZM27.1808 4.66515C26.3882 4.21147 25.631 3.78105 24.8384 3.339C24.4007 4.08351 24.0103 4.75822 23.5962 5.45619C24.4007 5.90987 25.146 6.34029 25.9386 6.78234C26.3527 6.07274 26.7549 5.38639 27.1808 4.66515Z" fill="white"/>
<path d="M14.4867 20.9512C13.6112 22.4519 12.7713 23.8711 11.884 25.3833C12.6411 25.8138 13.3983 26.2558 14.2146 26.7211C15.09 25.2438 15.9418 23.7896 16.8291 22.289C17.6572 22.7543 18.4499 23.208 19.2898 23.6849C18.1423 25.6393 17.0302 27.5471 15.8827 29.4432C15.5041 30.0598 14.7469 30.2226 14.1081 29.8736C12.4637 28.9663 10.8192 28.0357 9.19847 27.0818C8.54779 26.6979 8.32302 25.9417 8.67793 25.3019C9.7545 23.3941 10.8902 21.5096 12.0259 19.5669C12.8541 20.0322 13.6467 20.4743 14.4867 20.9512Z" fill="white"/>
<path d="M17.0776 34.1775C16.6162 35.0034 16.1785 35.7712 15.7052 36.6204C11.8367 34.5149 7.97997 32.4326 4.07593 30.3038C4.52548 29.4894 4.97504 28.71 5.43643 27.8608C9.34047 29.9664 13.1854 32.0603 17.0776 34.1775Z" fill="white"/>
</svg>
