<svg width="61" height="64" viewBox="0 0 61 64" fill="none" xmlns="http://www.w3.org/2000/svg">
<path d="M57.859 41.6704C57.2525 41.4123 56.646 41.1542 56.1427 40.9348C60.427 28.4175 58.1687 17.5907 48.2968 8.60915C37.3925 0.195439 26.0882 0.0405839 14.358 6.93157C14.0483 6.47991 13.687 5.96373 13.3257 5.43465C21.8039 -0.95306 36.5279 -2.7984 48.2065 5.91212C60.427 15.0485 62.853 30.4435 57.859 41.6704Z" fill="white"/>
<path d="M45.4582 14.0807C45.0195 14.5711 44.5807 15.0614 44.142 15.5518C35.1605 7.62846 21.9334 9.00924 14.7069 17.5391C10.771 22.1718 9.13215 27.5659 9.90642 33.5922C10.6807 39.5928 13.6616 44.3417 18.5524 47.9162C18.1653 48.484 17.7911 49.0131 17.3652 49.6325C10.7323 44.6127 7.31262 38.0314 7.71266 29.7338C8.16432 20.3652 14.281 12.4547 23.069 9.4609C31.4956 6.5832 40.2835 9.15119 45.4582 14.0807Z" fill="white"/>
<path d="M18.978 51.2973C19.1845 46.9356 20.9653 43.1288 25.0302 40.7027C29.4177 38.0831 34.6699 38.9606 38.3089 42.7803C43.2771 48.0196 42.7351 56.9107 37.1733 61.5047C32.6051 65.2728 26.0884 64.705 22.2041 60.2014C20.0491 57.7237 19.0555 54.8202 18.978 51.2973ZM39.6639 51.878C39.6381 49.31 38.9929 47.142 37.625 45.1935C34.3214 40.5092 28.1144 39.9672 24.0882 44.0321C20.1781 47.9679 20.0878 54.9493 23.8817 58.9884C27.0691 62.3822 31.7664 62.9371 35.4312 60.2401C38.296 58.1367 39.5348 55.1557 39.6639 51.878Z" fill="white"/>
<path d="M38.683 26.8044C38.5797 27.5786 38.5023 28.3013 38.3862 29.0239C38.2958 29.5788 37.9474 29.8756 37.3796 29.9273C34.0244 30.2757 32.0888 32.6888 32.5146 35.9924C32.6049 36.6634 32.2694 37.0376 31.6887 37.2699C27.869 38.8055 24.217 38.4571 20.8361 36.1472C17.0551 33.5663 15.2097 28.9207 16.1259 24.6622C17.1454 19.9392 20.6167 16.5195 25.2881 15.6291C31.1855 14.5064 36.9667 18.3907 38.3603 24.4171C38.5281 25.2171 38.5797 26.043 38.683 26.8044ZM30.3596 35.5923C30.3596 35.3729 30.3596 35.1794 30.3596 34.9858C30.3983 31.9662 32.3211 29.3078 35.1342 28.2755C35.5988 28.1077 36.3085 28.2755 36.4892 27.669C36.6311 27.1786 36.5279 26.5979 36.5279 26.0688C36.5279 25.8753 36.4634 25.6817 36.4376 25.501C35.702 20.2747 30.566 16.5969 25.443 17.7454C21.5329 18.623 19.0036 21.0748 18.1907 24.9978C17.3906 28.882 18.7456 32.0952 21.933 34.418C24.488 36.2505 27.3399 36.586 30.3596 35.5923Z" fill="white"/>
<path d="M40.3737 35.7214C40.4253 34.7277 40.5414 33.747 40.5156 32.7534C40.4898 31.321 40.8253 30.0047 41.4189 28.7143C42.1674 27.0754 42.8255 25.3978 43.4837 23.7202C43.5869 23.4751 43.5482 23.0879 43.432 22.8556C42.6836 21.4232 42.8771 19.7844 44.0385 18.6359C44.9806 17.6939 45.9613 16.7905 46.9291 15.8743C47.6776 15.1775 48.5164 15.4098 48.8003 16.3905C49.1616 17.6293 49.51 18.8682 49.8326 20.107C50.2843 21.8233 49.6262 23.3073 48.0905 24.2235C47.897 24.3397 47.755 24.6365 47.7163 24.8687C47.3808 27.0496 47.084 29.2433 46.7356 31.4371C46.6452 31.9791 46.4775 32.5211 46.2323 33.0115C44.9031 35.5923 43.5353 38.1474 42.1674 40.7025C41.7415 41.5026 40.8769 41.6833 40.3995 41.0509C40.2317 40.8187 40.1543 40.4573 40.1543 40.1605C40.1543 39.4121 40.2317 38.6636 40.2575 37.9022C40.2833 37.1667 40.2575 36.444 40.2575 35.7085C40.3092 35.7214 40.3479 35.7214 40.3737 35.7214ZM42.4642 35.4504C42.5158 35.4633 42.5545 35.4762 42.6061 35.4762C43.1223 34.5213 43.6772 33.5793 44.1289 32.5856C44.4386 31.9146 44.658 31.1919 44.7999 30.4693C45.058 29.1143 45.2128 27.7593 45.4064 26.3915C45.4967 25.772 45.5742 25.1526 45.6516 24.5332C45.458 24.559 45.3677 24.6365 45.3419 24.7139C44.4773 26.7915 43.6127 28.8691 42.7481 30.9596C42.7094 31.0629 42.6707 31.1661 42.6707 31.2694C42.5932 32.663 42.5287 34.0567 42.4642 35.4504ZM47.2518 18.5714C47.1614 18.5068 47.0582 18.4294 46.9679 18.3649C46.4517 18.9714 45.9355 19.5779 45.4322 20.1715C44.9677 20.7264 44.9419 21.4491 45.3677 22.0039C45.7677 22.5072 46.4517 22.6879 47.0453 22.4298C47.6776 22.1588 48.0389 21.4878 47.8712 20.7909C47.6905 20.0425 47.4582 19.3069 47.2518 18.5714Z" fill="white"/>
<path d="M3.68624 16.468C4.27985 16.7649 4.83474 17.0488 5.44125 17.3585C2.09899 24.3656 1.47958 31.5663 4.02176 38.9218C6.55103 46.2645 11.416 51.594 18.4102 55.1427C18.1263 55.7363 17.8424 56.317 17.5714 56.9106C2.7184 50.3036 -4.13387 31.2566 3.68624 16.468Z" fill="white"/>
<path d="M5.0929 14.3647C5.19614 13.7453 5.29937 13.0613 5.42842 12.3903C5.50584 12.0031 5.45423 11.6934 5.13161 11.4095C4.67996 11.0095 4.26701 10.5708 3.86698 10.1191C3.22175 9.39644 3.49275 8.54475 4.43477 8.31247C4.47349 8.29957 4.5251 8.28666 4.56382 8.28666C6.29302 8.41571 7.22214 7.51239 7.66089 5.93805C7.78993 5.47349 8.13835 5.17668 8.65453 5.16378C9.17071 5.15088 9.48042 5.46058 9.68689 5.91224C9.76432 6.0929 9.88046 6.24776 9.93207 6.44132C10.2289 7.75758 11.1064 8.26085 12.371 8.24795C12.5775 8.24795 12.7969 8.28666 13.0033 8.35118C13.8292 8.58346 14.1002 9.40935 13.5453 10.0546C13.1324 10.5191 12.7065 10.9837 12.242 11.3966C11.9065 11.6934 11.8548 12.029 11.9323 12.429C12.0484 13.0226 12.2033 13.6162 12.2162 14.2098C12.2162 14.5711 12.0613 15.0486 11.8032 15.2551C11.5709 15.4486 11.0548 15.4615 10.7451 15.3325C10.0095 15.0486 9.32556 14.3518 8.62872 14.3518C7.94479 14.3518 7.27376 15.0228 6.58982 15.3583C5.86717 15.7067 5.0929 15.2035 5.0929 14.3647ZM7.53184 12.429C8.31902 11.8483 9.05457 11.887 9.84174 12.4419C9.49332 11.4354 9.82884 10.6998 10.758 10.003C9.63527 10.0288 8.99005 9.64163 8.66744 8.6867C8.39644 9.70615 7.67379 10.003 6.64144 10.0417C7.51894 10.6998 7.89317 11.4224 7.53184 12.429Z" fill="white"/>
<path d="M57.6916 51.5812C57.7045 52.3554 56.9302 52.8716 56.2076 52.5232C55.6011 52.2393 55.0462 51.8651 54.4397 51.5941C54.2461 51.5037 53.9364 51.5037 53.7428 51.5941C53.175 51.8522 52.6718 52.2393 52.0911 52.4587C51.7556 52.5877 51.2136 52.6135 50.9813 52.42C50.7103 52.2135 50.5942 51.7102 50.5554 51.3231C50.5296 50.8843 50.62 50.4198 50.7619 49.9939C51.02 49.2196 50.7619 48.6906 50.1812 48.2002C49.8457 47.9292 49.5618 47.6066 49.2779 47.284C48.6327 46.5613 48.9166 45.6967 49.8715 45.4903C50.4393 45.3741 51.0071 45.2709 51.5878 45.2322C52.0266 45.2064 52.2201 44.987 52.375 44.6128C52.5943 44.0837 52.8008 43.5159 53.1234 43.0513C53.3428 42.7416 53.7557 42.3803 54.0913 42.3803C54.4268 42.3803 54.8397 42.7416 55.0591 43.0513C55.3688 43.4772 55.5882 43.9933 55.7559 44.4966C55.9366 45.0257 56.2721 45.2193 56.7883 45.258C57.2787 45.2967 57.7948 45.3225 58.2465 45.4903C58.6078 45.6193 59.0466 45.9161 59.1627 46.2387C59.266 46.5226 59.0079 46.9743 58.853 47.3227C58.7885 47.4904 58.6078 47.6324 58.453 47.7356C57.3819 48.4841 57.098 49.4519 57.5368 50.6778C57.6529 50.9488 57.6529 51.2715 57.6916 51.5812ZM56.014 47.2582C55.0978 47.1807 54.401 46.8581 54.1171 45.8645C53.8332 46.871 53.1105 47.1807 52.0524 47.2324C53.0202 47.8905 53.2654 48.6389 52.9557 49.6197C53.7428 49.0003 54.4784 49.0777 55.2785 49.581C54.9172 48.6002 55.2269 47.8905 56.014 47.2582Z" fill="white"/>
<path d="M43.6773 49.3228C43.2773 48.7679 42.8901 48.2517 42.5288 47.7355C49.8069 41.7736 52.4136 34.2503 50.2199 25.0495C50.8264 24.8688 51.4329 24.6752 52.0394 24.4946C54.5945 31.6178 52.6588 42.8705 43.6773 49.3228Z" fill="white"/>
<path d="M42.374 55.2587C44.4 53.9554 46.3486 52.7037 48.3617 51.4003C48.7101 51.8003 49.136 52.3036 49.6005 52.8456C47.652 54.5103 45.5356 55.8523 43.1999 56.975C42.8902 56.3427 42.6192 55.7749 42.374 55.2587Z" fill="white"/>
<path d="M29.2885 48.5486C29.3143 50.2262 27.9465 51.5941 26.2689 51.6199C24.5655 51.6457 23.1976 50.3165 23.146 48.5615C23.8041 48.5615 24.4493 48.5615 25.1462 48.5615C25.301 49.1164 25.5978 49.5681 26.2689 49.5423C26.8754 49.5165 27.1593 49.1035 27.2883 48.5486C27.9723 48.5486 28.6304 48.5486 29.2885 48.5486Z" fill="white"/>
<path d="M35.5732 48.5486C36.2442 48.5486 36.9024 48.5486 37.5605 48.5486C37.5476 50.2391 36.1926 51.5941 34.5279 51.607C32.8246 51.6199 31.4438 50.2907 31.418 48.5486C32.0761 48.5486 32.7342 48.5486 33.4053 48.5486C33.5601 49.0777 33.8311 49.5294 34.4763 49.5294C35.1345 49.5423 35.4184 49.0906 35.5732 48.5486Z" fill="white"/>
<path d="M27.2886 56.7946C27.9596 56.7946 28.6048 56.7946 29.2759 56.7946C29.4436 57.3495 29.7275 57.827 30.3986 57.8012C31.0051 57.7754 31.289 57.3624 31.4309 56.8075C32.089 56.8075 32.7472 56.8075 33.4053 56.8075C33.4569 58.4206 32.1148 59.8272 30.476 59.8788C28.7468 59.9175 27.3531 58.6142 27.2886 56.7946Z" fill="white"/>
<path d="M29.3273 20.6749C29.3144 21.7975 28.3853 22.7138 27.2626 22.7009C26.1141 22.7009 25.185 21.7588 25.1979 20.5974C25.2108 19.4747 26.1399 18.5585 27.2626 18.5714C28.4111 18.5714 29.3402 19.5135 29.3273 20.6749Z" fill="white"/>
<path d="M22.101 25.7978C20.9783 25.7978 20.0492 24.8945 20.0363 23.7589C20.0234 22.6104 20.9525 21.6684 22.101 21.6684C23.2237 21.6684 24.1528 22.5846 24.1657 23.6944C24.1786 24.8558 23.2495 25.7978 22.101 25.7978Z" fill="white"/>
<path d="M32.4504 22.7008C33.5731 22.7137 34.4893 23.6299 34.4893 24.7526C34.4893 25.9011 33.5602 26.8431 32.3988 26.8302C31.2761 26.8173 30.3599 25.9011 30.3599 24.7784C30.3599 23.6299 31.289 22.7008 32.4504 22.7008Z" fill="white"/>
<path d="M24.1657 29.9146C24.1786 31.0631 23.2366 32.0051 22.0881 31.9922C20.9654 31.9793 20.0492 31.0631 20.0363 29.9404C20.0234 28.7919 20.9654 27.8499 22.1139 27.8628C23.2366 27.8757 24.1528 28.7919 24.1657 29.9146Z" fill="white"/>
<path d="M27.2497 34.0568C26.127 34.0568 25.2108 33.1406 25.1979 32.0179C25.185 30.8694 26.127 29.9274 27.2755 29.9274C28.3982 29.9274 29.3144 30.8436 29.3273 31.9663C29.3402 33.1277 28.3982 34.0697 27.2497 34.0568Z" fill="white"/>
</svg>
