<svg width="49" height="24" viewBox="0 0 49 24" fill="none" xmlns="http://www.w3.org/2000/svg">
<path d="M33.5403 1.45697L33.5382 1.45759C31.1554 2.1595 29.45 3.86116 27.6011 5.86894C27.9056 6.26036 28.2105 6.65176 28.5163 7.04448C28.9267 7.57147 29.339 8.10082 29.7548 8.63568C29.9227 8.47546 30.0881 8.31909 30.2547 8.16476C31.2218 7.26621 32.3107 6.33829 33.6783 5.75277L33.68 5.75206C36.3333 4.62186 39.1609 5.40823 40.8972 7.69968L40.8984 7.70118C43.7577 11.4894 42.237 16.831 37.6775 18.1187L37.6747 18.1195C35.0458 18.8537 32.6384 18.1697 30.692 16.3829C29.5235 15.3143 28.5326 14.0538 27.6095 12.8796L27.6028 12.871C26.8688 11.9407 26.1863 11.0222 25.5138 10.1172C24.4876 8.73602 23.4848 7.38643 22.3582 6.07478C19.2838 2.49836 15.4914 0.69737 10.8235 1.06223L10.8232 1.06225C7.72215 1.30369 5.19575 2.57715 3.27548 5.04862C1.30667 7.59706 0.719153 10.5702 1.11741 13.8529L33.5403 1.45697ZM33.5403 1.45697C39.3234 -0.26014 45.1503 2.98051 46.6708 9.28342C47.8631 14.2336 45.8451 19.1227 41.8038 21.5125L41.803 21.513M33.5403 1.45697L41.803 21.513M41.803 21.513C39.5406 22.854 37.0674 23.1765 34.3897 22.9093C30.5357 22.5125 27.6304 20.4114 25.1478 17.2986C25.1477 17.2985 25.1476 17.2983 25.1475 17.2982L25.145 17.2951C23.0521 14.6687 20.9532 12.0347 18.814 9.44005L18.8133 9.43924M41.803 21.513L18.8133 9.43924M18.8133 9.43924C18.1329 8.61576 17.3566 7.80718 16.4921 7.11859L16.4921 7.11857M18.8133 9.43924L16.4921 7.11857M16.4921 7.11857L16.4874 7.11484M16.4921 7.11857L16.4874 7.11484M16.4874 7.11484C14.0162 5.1707 10.6693 4.97507 8.30683 6.84377C6.19232 8.50669 5.34554 10.8077 5.77583 13.4402L5.77633 13.4432M16.4874 7.11484L5.77633 13.4432M5.77633 13.4432C6.19041 15.9287 7.7056 17.7113 10.0898 18.4622C12.1293 19.1108 14.1503 18.8123 15.8999 17.4266L15.903 17.4241M5.77633 13.4432L15.903 17.4241M15.903 17.4241C16.3469 17.0697 16.7803 16.6521 17.1683 16.2781C17.3196 16.1323 17.4641 15.993 17.5996 15.8668M15.903 17.4241L17.5996 15.8668M17.5996 15.8668C17.7987 15.6846 18.011 15.4864 18.2255 15.2855C18.5998 15.7471 18.9641 16.1962 19.3283 16.645C19.5056 16.8673 19.6818 17.0872 19.8595 17.3091C20.0791 17.5831 20.3011 17.8603 20.5309 18.1489C20.3546 18.3088 20.1804 18.4676 20.0075 18.6252C19.153 19.404 18.3321 20.1522 17.4619 20.8612C15.4861 22.4557 13.2289 23.1234 10.669 22.9664C5.93535 22.6741 1.70921 18.7087 1.11747 13.8533L17.5996 15.8668Z" stroke="white" stroke-width="2"/>
</svg>
