<svg width="67" height="67" viewBox="0 0 67 67" fill="none" xmlns="http://www.w3.org/2000/svg">
<path d="M36.1822 24.7276C37.7494 23.1605 39.6328 22.3631 41.7498 22.0607C45.8327 21.4833 50.1356 23.8891 51.2903 27.532C51.5928 28.4806 51.524 29.5529 51.6478 30.5702C51.6753 30.8176 51.7165 31.1201 51.8815 31.2713C52.6788 32.0411 53.2424 32.9209 53.6136 33.9657C53.6961 34.1857 53.9023 34.4331 54.1222 34.5156C59.2774 36.4539 60.9958 42.0765 57.779 46.5168C57.724 46.5856 57.6828 46.6681 57.6003 46.778C58.755 48.2352 59.4011 49.8986 59.3874 51.7683C59.3737 53.5416 58.8513 55.1775 57.6828 56.5248C55.7444 58.7518 54.9471 61.3363 54.9883 64.2369C54.9883 64.4431 54.9883 64.6493 54.9883 64.8555C54.9471 65.5841 54.5622 66.0103 53.8198 66.0103C52.4039 66.024 50.9742 66.024 49.5582 66.0103C48.7746 65.9965 48.3622 65.5566 48.3897 64.7181C48.4722 62.6147 48.0735 60.6214 47.125 58.738C46.8913 58.2706 46.6438 58.1744 46.1214 58.2294C43.262 58.5318 40.7875 57.707 38.8354 55.535C38.7392 55.4387 38.6567 55.3288 38.588 55.26C37.8869 55.5075 37.2408 55.8237 36.5534 55.9611C33.9414 56.4835 31.7694 55.6449 30.0648 53.6241C29.7761 53.2804 29.5836 53.2254 29.1574 53.3767C26.2568 54.4489 23.6311 53.954 21.2941 51.947C20.9504 51.6445 20.6342 51.5345 20.1943 51.5895C12.6334 52.4968 6.15848 46.4069 6.62588 38.8184C6.92832 33.9107 10.2826 29.6079 14.9704 28.0957C15.3553 27.972 15.7265 27.697 15.9877 27.3808C19.4245 23.3392 23.8098 21.6483 29.0475 22.1019C31.6319 22.3219 33.9827 23.2292 36.1822 24.7276ZM46.0664 24.9613C43.4545 23.4354 39.3853 24.2602 37.4195 26.666C36.7321 27.5046 36.2785 27.587 35.4536 26.9547C33.529 25.4562 31.357 24.5489 28.9237 24.3152C24.3047 23.8753 20.4418 25.3463 17.5411 29.0167C17.0875 29.5941 16.6063 29.9378 15.9052 30.1303C10.9012 31.5462 7.86312 36.7426 9.04538 41.7603C10.2826 47.0117 15.2728 50.3248 20.483 49.3075C21.3078 49.1425 21.8302 49.335 22.4076 49.9399C23.9885 51.6033 25.9131 52.0569 28.1264 51.4246C28.6351 51.2734 28.8 51.0534 28.7038 50.5035C27.9065 45.8982 32.2231 41.9528 36.7734 43.1076C38.5467 43.5612 39.8802 44.606 40.8838 46.1594C42.7809 45.1971 44.7604 44.8947 46.8363 45.2659C47.1112 45.3208 47.4686 45.2521 47.7161 45.1146C49.3245 44.1936 51.0429 43.7674 52.8575 44.1386C53.916 44.3585 54.9333 44.771 56.0468 45.1284C56.0194 45.1559 56.1018 45.0734 56.1706 44.9909C58.4526 41.8566 56.7342 37.2788 52.94 36.4814C52.1152 36.3027 51.7028 35.9315 51.5928 35.1067C51.4553 34.0344 50.8779 33.1821 49.9569 32.591C49.297 32.1786 49.1045 31.6837 49.3108 30.9138C49.8056 29.1542 49.2695 27.6283 48.0185 26.2673C46.9462 28.3706 45.3378 29.6079 42.9183 29.7178C42.9183 28.9617 42.9183 28.2606 42.9183 27.5595C44.7467 27.2434 45.6953 26.4598 46.0664 24.9613ZM52.7475 63.7695C52.775 63.6458 52.7888 63.577 52.8025 63.5083C52.9125 60.3327 53.9023 57.5146 56.0056 55.0951C56.7754 54.2015 57.1741 53.1155 57.1879 51.947C57.2291 49.6924 56.2668 47.9328 54.2735 46.8743C52.2801 45.8157 50.3005 45.9532 48.4447 47.2729C48.0185 47.5754 47.6061 47.7678 47.0562 47.6166C44.8979 47.0117 42.9046 47.3142 41.0762 48.6889C40.4301 49.1838 39.729 48.9638 39.3853 48.2215C39.3028 48.0565 39.2616 47.8778 39.1791 47.7128C38.3268 45.8295 36.2922 44.7847 34.3264 45.1971C32.2643 45.637 30.8071 47.3829 30.7934 49.4312C30.7796 51.5071 32.1956 53.3217 34.2026 53.7753C35.6461 54.1053 36.9108 53.7478 38.0518 52.8268C38.8217 52.2082 39.509 52.3456 39.9489 53.2254C40.4438 54.2015 41.1862 54.9163 42.1622 55.3975C43.5232 56.0711 44.9392 56.2498 46.4376 55.9611C47.8535 55.6862 47.9085 55.7137 48.6371 56.9234C48.7196 57.0609 48.7884 57.1984 48.8708 57.3358C49.9844 59.3292 50.5617 61.46 50.6305 63.7558C51.3453 63.7695 52.0189 63.7695 52.7475 63.7695Z" fill="white"/>
<path d="M13.211 22.0057C13.211 23.4217 13.1973 24.7689 13.211 26.1161C13.211 26.6935 13.0873 27.1609 12.5236 27.4084C11.9463 27.6558 11.5201 27.3809 11.1214 26.9822C9.58175 25.4425 8.05582 23.9028 6.5024 22.3769C6.28244 22.1707 5.92502 22.0195 5.62258 22.0057C2.35076 21.9507 0.0137471 19.6 0 16.3419C0 14.9397 0 13.5512 0 12.149C0.0274943 9.04219 2.4195 6.62269 5.52635 6.60894C8.41325 6.5952 11.3001 6.5952 14.1733 6.60894C17.4176 6.62269 19.7821 9.01469 19.7821 12.2728C19.7821 13.62 19.7821 14.9672 19.7821 16.3282C19.7821 19.6137 17.3901 22.0057 14.1183 22.0057C13.8571 22.0057 13.5822 22.0057 13.211 22.0057ZM10.8465 23.6416C10.9015 23.6141 10.9565 23.5729 10.9977 23.5454C10.9977 22.6931 10.984 21.8545 10.9977 21.0022C11.0115 20.2324 11.4239 19.8199 12.1937 19.8062C12.9086 19.7924 13.6097 19.8199 14.3245 19.7924C16.1391 19.7512 17.5551 18.3627 17.5826 16.5619C17.6101 15.0497 17.6101 13.5375 17.5826 12.0253C17.5551 10.2657 16.1391 8.82223 14.3795 8.80848C11.3826 8.78099 8.37201 8.78099 5.37513 8.80848C3.65674 8.82223 2.22704 10.2519 2.19954 11.9703C2.17205 13.51 2.17205 15.0359 2.19954 16.5756C2.22704 18.0603 3.21683 19.325 4.66028 19.6687C5.16892 19.7924 5.70506 19.7924 6.22745 19.7787C6.80483 19.7649 7.23099 19.9437 7.62966 20.3561C8.68819 21.4696 9.77421 22.5556 10.8465 23.6416Z" fill="white"/>
<path d="M52.9815 22.0057C52.5141 22.0057 52.0879 22.0057 51.6618 22.0057C48.6374 21.9782 46.2317 19.5725 46.2042 16.5344C46.1904 15.0497 46.1904 13.5512 46.2042 12.0666C46.2317 9.02844 48.6374 6.63644 51.6893 6.60894C54.6449 6.5952 57.6005 6.5952 60.5562 6.60894C63.5393 6.62269 65.9725 9.04219 66 12.0253C66.0138 13.5375 66.0138 15.0497 66 16.5619C65.9725 19.5587 63.5668 21.9645 60.5699 21.992C60.075 21.992 59.7863 22.157 59.4839 22.5419C58.3429 23.9991 57.1744 25.4425 56.0196 26.8997C55.6759 27.3259 55.291 27.6283 54.7274 27.4771C54.1775 27.3396 53.9575 26.9135 53.8613 26.3636C53.6001 24.9201 53.2839 23.4904 52.9815 22.0057ZM55.5935 23.7654C55.7172 23.6691 55.7722 23.6554 55.7997 23.6279C56.6245 22.6106 57.4631 21.6208 58.2467 20.576C58.6728 19.9987 59.1815 19.7375 59.8826 19.8062C60.0888 19.8337 60.295 19.8199 60.5012 19.8062C62.3433 19.765 63.7593 18.3627 63.7867 16.5344C63.8142 15.0634 63.8005 13.6062 63.7867 12.1353C63.7593 10.2382 62.3708 8.82223 60.4874 8.80848C57.5593 8.78099 54.6312 8.79474 51.6893 8.80848C49.8471 8.82223 48.4174 10.2382 48.4037 12.0803C48.39 13.565 48.39 15.0634 48.4037 16.5481C48.4312 18.349 49.8471 19.765 51.6343 19.8062C52.3491 19.8199 53.0502 19.8062 53.7651 19.8062C54.4937 19.8199 54.8511 20.1086 55.0023 20.8372C55.1948 21.7858 55.3872 22.7481 55.5935 23.7654Z" fill="white"/>
<path d="M36.2926 15.4071C36.2926 16.4931 36.2789 17.4967 36.2926 18.5002C36.3064 19.0501 36.1277 19.49 35.5915 19.71C35.0691 19.9299 34.6705 19.71 34.2855 19.3663C33.062 18.239 31.8111 17.1255 30.6013 15.9707C30.1751 15.5721 29.749 15.3384 29.1579 15.3934C28.608 15.4483 28.0581 15.3659 27.5082 15.4071C26.6009 15.4758 25.8448 15.1322 25.1987 14.541C23.879 13.3175 23.1366 11.8054 23.0954 10.0045C23.0541 8.49229 23.0679 6.98011 23.0954 5.46792C23.1366 2.44355 25.5424 0.0378046 28.5805 0.0103104C31.5086 -0.00343678 34.4368 -0.00343678 37.3649 0.0103104C40.4855 0.0240575 42.8775 2.44355 42.8913 5.55041C42.8913 6.96636 42.8913 8.38232 42.8913 9.81202C42.8913 12.9876 40.4718 15.3934 37.2687 15.4071C36.98 15.4071 36.6913 15.4071 36.2926 15.4071ZM34.0106 16.122C34.0656 15.9982 34.0931 15.9707 34.0931 15.957C34.0931 15.4483 34.0931 14.9534 34.1068 14.4448C34.1206 13.6337 34.5192 13.2213 35.3303 13.2076C36.0452 13.1938 36.7463 13.2213 37.4611 13.1938C39.262 13.1526 40.6642 11.7504 40.6917 9.93574C40.7192 8.45105 40.7192 6.95261 40.6917 5.46792C40.6642 3.63955 39.2345 2.20985 37.3924 2.20985C34.4643 2.19611 31.5224 2.19611 28.5942 2.20985C26.7659 2.2236 25.3224 3.6533 25.2949 5.46792C25.2812 6.93887 25.2812 8.39606 25.2949 9.86701C25.3087 11.0218 25.7623 12.0116 26.6009 12.7951C26.8483 13.0151 27.2333 13.1663 27.5632 13.1801C28.3605 13.2351 29.1716 13.2213 29.9689 13.1801C30.5876 13.1526 31.055 13.3725 31.4949 13.7987C32.306 14.5823 33.1445 15.3246 34.0106 16.122Z" fill="white"/>
<path d="M25.542 28.4255C26.1881 27.7382 26.6555 27.2433 27.1229 26.7346C28.8413 27.9994 30.5322 28.0269 32.2781 26.7346C32.7592 27.2433 33.2266 27.7519 33.859 28.4118C32.8417 28.9479 31.9069 29.4291 30.8759 29.9652C30.0648 33.6769 34.4776 38.1585 39.5641 38.5434C39.5641 39.2308 39.5641 39.9319 39.5641 40.7017C38.0106 40.7292 36.5259 40.413 35.1375 39.7532C31.1646 37.8561 29.0063 34.6805 28.6351 30.2951C28.5939 29.8965 28.4426 29.8002 28.099 29.6628C27.2604 29.3053 26.463 28.8792 25.542 28.4255Z" fill="white"/>
<path d="M17.1289 41.5679C17.3213 42.3653 17.5001 43.1351 17.6925 43.9599C16.8539 43.9599 16.1528 43.9599 15.4655 43.9599C15.0531 41.8291 14.2007 40.9768 12.1387 40.6606C12.1387 39.9595 12.1387 39.2722 12.1387 38.5023C13.1422 38.4886 14.0495 38.736 14.8606 39.2859C15.3005 39.5884 15.7267 39.6296 16.2216 39.5196C17.7887 39.1759 18.9023 38.2686 19.5071 36.7839C19.8371 35.9866 19.9196 35.2305 19.3834 34.3919C18.9573 33.7183 18.8335 32.8248 18.5586 31.9449C19.4384 31.9449 20.1395 31.9449 20.6619 31.9449C21.0881 32.756 21.4042 33.5259 21.8854 34.1857C22.4078 34.9006 23.2464 35.148 24.1674 35.2168C24.1674 35.9179 24.1674 36.619 24.1674 37.4713C23.3838 37.2926 22.6277 37.1276 21.7892 36.9489C21.0468 39.2447 19.4934 40.8531 17.1289 41.5679Z" fill="white"/>
<path d="M49.4621 38.5435C49.4621 39.2721 49.4621 39.9594 49.4621 40.633C46.1903 40.9767 42.8498 37.6912 42.9185 34.1444C43.6059 34.1444 44.307 34.1444 45.0493 34.1444C45.338 36.7426 46.7952 38.2273 49.4621 38.5435Z" fill="white"/>
<path d="M9.91169 17.6067C8.08332 17.6067 6.59863 16.122 6.59863 14.2799C6.59863 12.4927 8.09707 11.0081 9.8842 11.0081C11.7263 11.0081 13.1973 12.5065 13.1973 14.3349C13.1973 16.1357 11.7126 17.6067 9.91169 17.6067ZM10.9977 14.2936C10.9977 13.7025 10.5028 13.2076 9.91169 13.2076C9.32057 13.2076 8.82567 13.6888 8.81192 14.2799C8.79817 14.8985 9.32057 15.4209 9.93919 15.4071C10.5166 15.3797 11.0115 14.8848 10.9977 14.2936Z" fill="white"/>
<path d="M56.1019 17.6068C55.0571 17.6068 53.9986 17.6618 52.9538 17.5793C52.5688 17.5518 52.1014 17.2768 51.8402 16.9744C51.4966 16.5895 51.7028 16.1083 52.0052 15.7234C53.05 14.3349 54.081 12.9465 55.1396 11.558C55.6895 10.8432 56.5005 10.8294 57.0367 11.5305C58.109 12.9327 59.1812 14.3212 60.1848 15.7646C60.391 16.0671 60.4872 16.6582 60.336 16.9332C60.1573 17.2493 59.6486 17.538 59.2637 17.5655C58.2189 17.6618 57.1604 17.6068 56.1019 17.6068ZM57.1741 15.3797C56.7755 14.8573 56.4593 14.4312 56.0881 13.9638C55.7169 14.4587 55.4008 14.8848 55.0158 15.3797C55.7719 15.3797 56.4043 15.3797 57.1741 15.3797Z" fill="white"/>
<path d="M29.6936 7.63994C29.6936 6.95258 29.6799 6.26522 29.6936 5.57786C29.7074 4.84927 30.1198 4.42311 30.8484 4.40936C32.2918 4.39561 33.7353 4.39561 35.165 4.40936C35.8386 4.42311 36.2647 4.84927 36.2785 5.53662C36.2922 6.98007 36.2922 8.42352 36.2785 9.85322C36.2647 10.5406 35.8386 10.9805 35.165 10.9805C33.7215 10.9942 32.2781 10.9942 30.8484 10.9805C30.1198 10.9667 29.7074 10.5406 29.6936 9.81198C29.6799 9.09713 29.6936 8.36853 29.6936 7.63994ZM34.0515 8.78095C34.0515 8.02486 34.0515 7.32375 34.0515 6.63639C33.3229 6.63639 32.6492 6.63639 31.9481 6.63639C31.9481 7.36499 31.9481 8.05235 31.9481 8.78095C32.6492 8.78095 33.3366 8.78095 34.0515 8.78095Z" fill="white"/>
</svg>
