<svg width="41" height="40" viewBox="0 0 41 40" fill="none" xmlns="http://www.w3.org/2000/svg">
<path fill-rule="evenodd" clip-rule="evenodd" d="M40.7411 12.4492C40.2233 11.9786 39.4032 11.6791 38.4969 11.9358C37.418 11.8503 36.6411 12.0642 35.7348 12.1925H30.2538C29.7359 12.1069 28.8727 12.3636 28.5706 12.0642C28.7432 11.7647 29.4338 11.9786 29.6064 11.6791C30.0811 11.5936 30.2969 11.3369 30.7717 11.2941C31.2896 10.9519 31.7211 10.5241 32.3254 10.2674C32.8001 9.66844 33.4043 9.15508 33.879 8.59893C34.2675 7.91443 34.8717 7.40106 35.1738 6.67379C35.4327 5.90374 35.6485 5.04812 35.5622 3.93582C35.3896 3.89304 35.4327 3.72192 35.4327 3.5508C35.0011 2.6524 34.2243 2.13903 33.6201 1.45454C32.8001 1.3262 32.1959 0.941172 31.3759 0.81283C30.038 0.770049 28.7864 0.81283 27.578 0.941173C27.3622 1.15508 27.1032 1.3262 26.6717 1.3262C26.1969 1.71123 25.7654 2.09625 25.2475 2.35294C24.6864 3.03743 24.0822 3.67914 23.5643 4.44919C23.0032 5.17647 22.658 6.07486 22.0106 6.67379C21.9243 7.61497 21.4064 8.12834 21.2338 9.02673C20.7159 8.89839 20.3275 8.59893 19.6801 8.64171C19.1622 8.72727 18.299 9.02673 17.9969 8.89839C17.6948 7.18716 17.1769 5.64705 16.7022 4.10695C16.098 2.60962 15.4075 1.24064 14.199 0.342242C13.5948 0.2139 13.1201 0.0427768 12.3864 0.0855576C11.3075 0.385023 10.358 0.855611 9.49483 1.36898C8.54535 2.4385 7.6822 3.63636 7.81167 5.7754C8.15693 7.78609 9.19272 9.1123 10.3148 10.3102C11.2211 10.8663 12.1706 11.3797 13.0769 11.9786C11.8254 12.2353 10.099 12.0642 8.63167 12.1069C7.29377 12.3636 5.91272 12.6203 4.44535 12.7487C3.84114 12.9626 3.10746 13.0481 2.33062 13.1337C1.98535 13.262 1.64009 13.262 1.33798 13.3904C1.03588 13.5187 0.561142 13.5187 0.561142 13.9037C0.172721 13.9037 0.302195 14.4599 0.302195 14.8021C0.38851 15.2727 0.086405 15.3583 0.172721 15.8289V18.1818C-0.129384 18.2674 0.129563 18.9091 0.0432471 19.2086V20.3636C0.0432471 21.1765 -0.0430687 22.0749 0.302195 22.5882C0.776931 22.8449 1.46746 22.8877 2.28746 22.8449C2.80535 23.1016 3.8843 22.8021 4.40219 23.1016C4.27272 26.9091 4.14325 30.7166 4.01377 34.5241C4.31588 35.9358 4.40219 37.6043 5.17904 38.5454C6.47377 38.7593 8.02746 38.6738 9.49483 38.6738C16.4864 39.2299 23.5211 39.8289 31.2033 39.7005C32.8001 39.9144 35.1738 40.2139 36.6843 39.7005C37.3317 38.8877 37.5475 37.6898 37.7201 36.4492V24.77C37.5475 24.7273 37.5906 24.4706 37.5906 24.2567C37.3748 24.0856 37.5906 23.4866 37.2022 23.4866C37.3317 23.1444 36.4685 23.1016 36.9432 22.8449C37.8064 22.8877 38.5832 23.0588 39.5759 22.9733C40.0506 22.5882 40.698 22.3315 40.8706 21.6898C41.3454 18.5668 40.3527 15.4866 40.7411 12.4492ZM21.6222 10.139C22.0106 10.139 22.2264 9.96791 22.5285 9.88235C23.7369 7.52941 25.0317 5.34759 26.7148 3.50802C27.2327 3.42246 27.578 3.16577 27.8801 2.86631C28.7432 2.73796 29.7359 2.69518 30.7717 2.73796C31.9369 2.95187 32.8864 3.42246 33.4043 4.27807C33.2317 5.86096 32.4117 6.84492 31.5917 7.78609C31.0738 8.17112 30.6422 8.68449 30.038 8.94117C29.5632 9.3262 28.8727 9.49732 28.4843 9.96791C27.4054 10.0535 26.6717 10.4385 25.9811 10.8663C25.8085 11.508 26.8443 11.6791 26.6285 11.893C24.9454 11.8503 23.3485 11.6791 21.5359 11.7647C21.7517 11.4652 21.579 10.6952 21.6222 10.139ZM27.1032 11.9358C27.1032 12.0642 26.9306 12.0214 26.8443 12.0642C26.8443 11.9358 27.0169 11.9786 27.1032 11.9358ZM17.5654 11.2941C17.8243 11.2086 17.9538 10.9946 18.3422 11.0374C18.6011 10.9946 18.6011 10.6952 18.7306 10.5241C19.2485 10.6524 19.5075 10.2246 19.7664 10.5241C19.6801 11.0374 19.8959 11.2513 19.8959 11.6791H18.2127C17.7811 11.5936 17.0043 11.8503 16.7885 11.5508C16.7022 11.2086 17.4359 10.9946 17.5654 11.2941ZM11.1348 8.04278C10.5738 6.93048 9.75377 6.11764 9.96956 4.27807C10.1854 4.14973 10.2717 3.93582 10.2285 3.63636C11.0054 2.95187 12.0411 1.62566 13.379 2.35294C14.3717 3.5508 14.8464 5.30481 15.1917 7.14438C15.3211 7.74331 15.6664 8.12834 15.839 8.68449C15.8822 8.98395 16.0548 9.15508 15.9685 9.58288C16.3569 9.5401 15.839 10.3957 16.2275 10.3529C15.839 10.6952 15.1917 10.1818 14.8032 10.0963C14.3717 9.88235 13.8106 9.79679 13.5085 9.45454C12.5159 9.19786 11.9117 8.55614 11.1348 8.04278ZM2.11483 20.877C1.89904 19.0802 1.89904 16.4278 2.11483 14.631C4.22956 14.7166 6.08535 14.5027 7.72535 14.1176C10.7464 14.1604 13.5948 14.0749 16.4864 13.9893C16.2275 15.8289 16.2275 17.9679 16.2706 20.1069C16.4432 20.5348 16.7022 20.9198 17.3064 20.877C17.1338 21.1765 16.4001 20.9198 16.0117 21.0053H11.8254C9.02009 20.6203 5.09272 20.7059 2.11483 20.877ZM15.9685 36.7059C15.9254 36.2781 16.1411 35.5936 15.7096 35.5508C15.2348 35.5508 15.3211 36.1497 15.3211 36.5775C14.3717 36.5775 13.4654 36.5775 12.6885 36.4492C12.818 35.8503 13.4654 35.4225 12.9475 34.9091C12.0411 34.9519 11.998 35.8503 11.5232 36.3208C11.1348 36.492 10.2717 36.1925 9.58114 36.3208C9.71062 35.2941 10.4443 34.9091 10.6169 33.9679C10.919 33.7112 11.0054 33.1979 11.2643 32.9412C11.4801 32.6417 11.739 32.385 11.6527 31.7861C10.8759 31.4866 10.358 32.3422 9.84009 32.6845C9.53798 33.3262 9.06325 33.754 8.8043 34.3529C8.54535 34.5668 8.45904 34.9946 8.28641 35.2513C8.07062 35.4652 8.11377 35.9358 7.89798 36.1497C7.38009 36.2353 7.72535 35.5508 7.89798 35.508C7.85483 35.123 8.20009 35.123 8.15693 34.738C8.37272 34.2246 8.67483 33.8823 8.8043 33.3262C9.23588 33.0695 9.3222 32.4278 9.58114 32.0428C9.75377 31.6577 10.4011 31.2299 10.099 30.7594C9.79693 30.4171 9.02009 30.7166 8.8043 30.8877C8.5022 31.1016 8.24325 31.3583 8.02746 31.6577C7.76851 31.9144 7.46641 32.1711 7.38009 32.5561C6.94851 32.6845 7.07798 33.3262 6.60325 33.3262C6.43062 31.7005 7.42325 31.1872 7.63904 29.9465C7.9843 29.5615 8.07062 28.9198 8.28641 28.4064C8.45904 27.9786 8.76114 27.1658 8.28641 26.8663C7.46641 26.9519 6.99167 27.4225 6.73272 28.0214C6.38746 27.6364 6.77588 26.5241 6.47377 26.0963V24.1711C6.56009 23.7861 6.25798 23.7861 6.3443 23.4011V23.016C10.0127 23.2299 13.638 23.4866 17.6085 23.4011C17.2632 27.9358 17.5654 32.8556 18.1264 36.877C17.2632 36.9198 16.8317 36.6203 15.9685 36.7059ZM18.0832 14.5454C18.0401 14.246 18.0832 14.0321 18.2127 13.9037C18.3422 14.0321 18.558 14.0749 18.8601 14.0321C18.7306 14.3315 18.4717 14.5027 18.0832 14.5454ZM19.378 31.7861C19.0759 31.7861 19.3348 31.2299 19.2485 31.016C19.378 30.3743 20.0254 30.246 20.2843 29.7326C20.4138 29.7326 20.5001 29.7754 20.5432 29.861V31.7861C20.2411 32.0856 19.6801 32.1283 19.5075 32.5561C19.2485 32.5561 19.4643 32.0428 19.378 31.7861ZM20.3275 33.1123C20.7159 33.1551 20.5432 33.754 20.5864 34.139C20.2411 33.9679 19.8959 33.9679 19.5506 34.139C19.5506 33.5401 20.198 33.6257 20.3275 33.1123ZM20.4569 36.4492C20.6296 36.492 20.5432 36.7914 20.5864 36.9626C20.198 36.877 20.4138 36.7914 20.4569 36.4492ZM20.5864 36.0642C20.4138 35.893 20.0254 35.9358 19.6801 35.9358C19.5938 35.123 20.3706 35.1658 20.4569 34.5241C20.7159 34.7807 20.5001 35.5936 20.5864 36.0642ZM20.5864 28.1497C19.8527 28.1069 19.7232 28.6631 19.1622 28.7914C19.4211 28.0214 20.2411 27.8075 20.3275 26.8663C19.8959 26.4385 19.5506 27.123 19.1622 27.123C19.2054 26.5241 19.6801 26.3529 20.0685 26.0963C19.9822 25.5829 20.4138 25.5829 20.3275 25.0695C20.198 24.6417 20.0685 25.0267 19.6801 24.9412C19.8959 24.3422 20.3706 24.0428 20.4569 23.4011C20.5864 23.3583 20.6727 23.4438 20.7159 23.5294C20.7159 25.1123 20.4569 26.4813 20.5864 28.1497ZM20.5864 21.0481C20.7159 20.7059 21.0611 20.5775 21.1043 20.1497C21.1475 19.8075 20.9317 19.7219 20.5864 19.7647C20.6296 19.1658 20.5864 18.6524 19.939 18.738C19.9822 18.0963 20.7159 18.0963 20.5864 17.3262C20.6727 16.77 20.1548 16.8128 20.0685 16.4278C19.8096 16.2567 19.6801 15.9572 19.2917 15.9144C19.5506 15.2299 20.1117 14.9305 20.198 14.1176C20.9317 14.1604 21.8811 14.0321 22.4422 14.246C22.2696 16.385 22.2264 18.8235 22.4422 21.0053C22.0106 21.1765 21.1475 20.9626 20.5864 21.0481ZM34.958 23.3583C34.9148 23.6577 34.7854 23.9144 34.699 24.1283C34.699 24.77 34.9148 25.4118 34.958 26.0535C35.0443 27.2086 34.8717 28.3636 34.8285 29.5615C34.699 32.1283 35.0011 34.7807 34.699 37.2192C32.7569 37.0909 30.7285 36.9626 28.7001 36.9626C26.6717 36.9626 24.6001 37.262 22.658 36.9626C22.7011 32.2995 22.658 27.7219 22.399 23.3583C23.478 23.3155 24.6864 23.4438 25.5496 23.2299C26.8011 23.4866 28.5275 23.3155 29.9948 23.3583C30.858 23.2727 31.7211 23.1444 32.6275 23.1016C33.059 23.0588 33.7064 23.1872 33.9222 22.9733C34.3969 22.9305 35.0875 23.1016 35.3464 22.8449H35.6054C35.519 23.1444 35.1738 23.1872 34.958 23.3583ZM38.1085 20.1069H36.1664C32.5843 20.7914 28.2685 20.7487 24.1254 20.877C24.1254 18.6952 24.039 16.5561 23.8664 14.5027C23.9527 14.3315 24.0822 14.2032 24.2548 14.1176C28.5706 14.7166 33.9222 14.7594 38.6696 14.5027C38.4969 16.4278 38.4106 18.3529 38.1085 20.1069Z" fill="#FF7D5F"/>
</svg>
