<svg width="90" height="70" viewBox="0 0 90 70" fill="none" xmlns="http://www.w3.org/2000/svg">
<path d="M49.6411 59.8232C46.7355 58.59 43.7607 57.4731 40.9376 56.0929C33.7397 52.5647 26.5888 48.9291 19.4245 45.3242C17.8486 44.528 16.2949 43.723 14.7257 42.9114C13.7701 42.4148 12.8072 42.0607 11.6733 42.3076C10.8827 42.4817 10.4027 41.9868 9.95427 41.3778C9.33435 40.5322 8.69226 39.6954 7.91456 39.0013C6.66767 37.8715 5.90636 36.5108 5.50901 34.9042C4.73853 31.7195 5.178 28.5751 6.17446 25.5396C8.12918 19.598 10.8433 14.0152 14.8174 9.1127C16.0056 7.65118 17.4694 6.39761 18.8626 5.0959C19.5515 4.44176 20.4596 4.20832 21.366 4.35636C22.8669 4.61115 24.3988 4.87906 25.8522 5.3685C32.9849 7.70401 39.6439 11.0398 46.3472 14.358C51.0331 16.6744 55.9156 18.5828 60.7223 20.6228C62.1906 21.246 63.7508 21.6169 65.2191 22.2401C69.0232 23.891 72.8092 25.6252 76.622 27.2981C77.96 27.8841 78.4236 29.0456 78.5238 30.3258C78.7262 32.9236 78.8622 35.5478 77.6228 38.007C77.3772 38.4852 77.5487 38.7218 78.0103 38.8813C78.6487 39.0976 79.287 39.3139 79.9052 39.5763C81.0026 40.042 81.5983 40.8591 81.6279 42.0913C81.6831 44.4809 81.911 46.8529 81.2782 49.2236C80.5577 51.9212 79.2726 54.2335 77.0036 55.9462C75.9312 56.7652 74.8346 57.5557 73.6876 58.252C73.1107 58.6079 72.3886 58.7929 71.7176 58.9449C71.4341 59.0066 71.0431 58.8953 70.7783 58.7465C69.7655 58.171 68.7863 57.5188 67.7601 56.9741C67.5504 56.8669 67.0809 56.9771 66.8788 57.1461C65.2284 58.5753 63.5867 60.0264 61.9759 61.4906C61.7248 61.7298 61.5396 62.0699 61.4141 62.3989C60.8789 63.7917 59.8258 64.2731 58.3817 63.6784C55.4384 62.4474 52.5086 61.1858 49.572 59.9394C49.6009 59.9153 49.621 59.8692 49.6411 59.8232ZM51.1769 56.4341C51.197 56.388 51.2171 56.342 51.2305 56.3112C53.317 57.1968 55.4102 58.067 57.49 58.9679C58.287 59.3243 58.9137 59.1899 59.5207 58.5555C60.7124 57.2957 61.9524 56.0928 63.1838 54.868C65.8755 52.188 68.3157 49.3284 70.0396 45.9282C72.3464 41.3192 73.5702 36.5054 73.4018 31.3556C73.3812 30.5641 73.0914 30.0953 72.3408 29.7585C70.4686 28.9275 68.6588 27.9956 66.8001 27.134C65.9635 26.7425 65.1067 26.3971 64.2365 26.0824C63.1654 25.6824 62.0473 25.3899 60.9897 24.9592C57.9469 23.7042 54.9156 22.3813 51.8796 21.111C51.0914 20.7764 50.8872 20.9082 50.8212 21.7721C50.7147 23.274 50.6679 24.7649 50.5458 26.2603C50.1126 31.8647 48.3428 37.0474 45.1485 41.7166C43.2684 44.4681 40.8594 46.7948 38.3932 49.0427C37.6667 49.6991 37.716 50.0476 38.5681 50.4457C42.8064 52.4447 46.9916 54.4394 51.1769 56.4341ZM11.6641 21.5716C11.2898 22.5958 10.7552 23.8615 10.3509 25.1643C9.56501 27.6339 8.87188 30.1428 9.17377 32.7646C9.27372 33.6261 9.57723 34.483 9.92303 35.285C10.2251 35.9775 10.8331 36.0535 11.4482 35.5683C11.9189 35.2038 12.3433 34.8197 12.7743 34.4201C13.8164 33.4608 14.9398 32.6089 15.4972 31.2073C17.5921 26.0351 19.38 20.769 20.3084 15.2474C20.6565 13.1927 20.7923 11.1207 20.9657 9.04644C20.9938 8.7307 20.6812 8.39781 20.5278 8.07789C20.2262 8.22294 19.8608 8.30448 19.6319 8.53495C19.2008 8.93446 18.8491 9.40405 18.4664 9.86052C15.5677 13.3082 13.7435 17.3575 11.6641 21.5716ZM31.5201 27.1592C31.5134 27.1745 31.5134 27.1745 31.5067 27.1899C30.8421 26.9078 30.1775 26.6258 29.4975 26.3371C29.4202 26.3043 29.3429 26.2715 29.2656 26.2387C28.4021 25.9087 27.492 26.1049 27.0349 26.8574C26.6604 27.4629 26.3209 28.1561 26.2226 28.8425C26.1517 29.3402 26.3449 30.1139 26.7086 30.4139C27.6012 31.1386 28.6093 31.7666 29.6468 32.2434C31.521 33.1116 33.4422 33.8724 35.3546 34.6112C36.3108 34.9807 37.3026 35.3106 38.3017 35.498C38.6598 35.5589 39.2804 35.3127 39.4898 35.0011C40.2826 33.8996 40.3684 32.5709 40.0889 31.3237C39.8699 30.3571 38.7621 30.2509 37.9718 29.8791C37.6694 29.7326 37.3401 29.6475 37.031 29.5163C35.214 28.7269 33.3593 27.9398 31.5201 27.1592ZM71.1834 54.4225C71.8535 54.9436 72.5252 54.6644 73.1919 54.019C73.8586 53.3737 74.6443 52.8334 75.2095 52.1268C75.9083 51.2403 76.7247 50.2944 77.0082 49.268C77.4948 47.3995 77.63 45.4547 77.8868 43.525C78.0059 42.6654 77.3856 42.3658 76.703 42.1671C75.9672 41.964 75.8782 42.5451 75.6837 42.9904C75.5696 43.2514 75.4401 43.5059 75.3791 43.7713C74.5139 47.1355 72.607 49.9483 70.6228 52.7284C69.8992 53.7137 69.914 53.8474 71.1834 54.4225ZM35.4516 26.1702C35.5087 26.2491 35.5659 26.328 35.623 26.4068C35.9844 26.2508 36.3478 26.1319 36.6761 25.9255C38.4732 24.8316 40.2374 23.6873 42.0674 22.6438C42.6463 22.3252 43.4014 22.1906 44.0806 22.1876C45.0164 22.1844 45.4354 22.9447 44.9737 23.7498C44.6838 24.2456 44.2789 24.7109 43.8216 25.0447C42.6694 25.9208 41.4223 26.7203 40.2545 27.5898C40.037 27.7523 39.8001 28.2524 39.8748 28.3751C40.0859 28.6468 40.4434 28.8349 40.7814 28.9419C40.9736 29.0053 41.2664 28.8383 41.488 28.7504C42.0932 28.4976 42.6586 28.2097 43.2571 27.9722C44.5715 27.438 44.6488 27.4708 45.6349 28.5264C45.723 28.6184 45.8534 28.6555 46.0805 28.8065C46.2025 28.2758 46.3285 27.8196 46.3793 27.3679C46.4803 26.5917 46.5436 25.8177 46.607 25.0437C46.743 23.3904 46.9012 21.7284 46.9909 20.0554C47.0654 18.7947 46.5956 18.4861 45.511 19.0815C44.3532 19.7186 43.1954 20.3558 42.1189 21.1003C40.0526 22.5167 38.0502 23.9968 36.039 25.4548C35.8147 25.6327 35.6496 25.9267 35.4516 26.1702ZM21.9412 25.6421C21.9984 25.7209 22.071 25.8063 22.1281 25.8852C22.6318 25.5711 23.1529 25.3008 23.6082 24.9298C26.1907 22.8769 28.7491 20.7955 31.347 18.7492C33.0325 17.4077 34.775 16.145 36.4759 14.8101C36.6713 14.6564 36.888 14.2023 36.8046 14.0577C36.4469 13.4508 35.1354 13.3493 34.5425 13.8257C30.9964 16.6164 27.4765 19.4728 23.8598 22.2153C22.6343 23.1331 22.2461 24.3153 21.9412 25.6421ZM42.1265 17.099C42.072 16.9303 42.0531 16.722 41.9408 16.6016C41.2322 15.7912 39.9208 15.6897 39.0835 16.39C36.1451 18.8379 33.2001 21.3012 30.2617 23.7492C30.0663 23.9029 29.8642 24.0719 29.7239 24.2672C29.6038 24.4164 29.5784 24.6423 29.5133 24.8331C29.7055 24.8965 29.9569 25.076 30.112 25.0144C30.644 24.8033 31.1806 24.5396 31.6621 24.2343C34.9667 21.9964 38.2404 19.7454 41.5228 17.5163C41.7048 17.3933 41.8868 17.2703 42.1265 17.099ZM43.3196 36.8449C39.7335 39.1818 36.3584 41.3716 32.9832 43.5613C34.2348 43.6739 35.5574 43.2887 36.7689 42.5287C37.3746 42.1487 37.9214 42.0713 38.588 42.3907C38.8441 42.5175 39.3929 42.4774 39.5487 42.2887C40.939 40.6581 42.3293 39.0276 43.3196 36.8449ZM35.8463 37.805C35.8335 37.7086 35.8119 37.5902 35.7991 37.4938C35.3436 37.4461 34.8732 37.2646 34.448 37.3572C32.4792 37.7958 31.0215 39.1611 29.3971 40.2373C29.1929 40.3691 29.3976 41.0748 29.4066 41.5155C29.7277 41.4515 30.0904 41.4599 30.3544 41.3171C31.9762 40.3308 33.596 39.3073 35.1936 38.2925C35.4199 38.1519 35.6287 37.9675 35.8463 37.805ZM24.6567 13.5981C24.7649 13.644 24.8819 13.7118 24.99 13.7577C26.0429 12.8576 27.1199 11.986 28.1486 11.0574C28.2641 10.9608 28.1387 10.3252 27.9842 10.2596C27.1408 9.88343 26.2794 9.59064 25.3891 9.32199C25.2433 9.27831 24.8283 9.55722 24.8143 9.7151C24.7264 11.0065 24.707 12.3089 24.6567 13.5981ZM45.8781 29.5215C45.261 29.9694 44.8279 30.3317 44.3464 30.637C43.47 31.1751 42.7858 31.7766 43.1143 32.9536C43.1776 33.1443 43.1321 33.4162 43.0294 33.6092C42.5315 34.5811 43.1553 35.0824 43.8012 35.575C44.57 34.8637 45.8724 31.2118 45.8781 29.5215ZM19.3525 31.8606C18.9931 33.0186 19.2371 33.3406 20.3838 33.1902C20.6317 33.168 20.9152 33.1063 21.0951 32.946C22.0304 32.1052 22.9658 31.2645 23.8218 30.3536C23.9863 30.1868 23.8758 29.6849 23.7621 29.4C23.7271 29.3123 23.2051 29.291 22.9922 29.4009C22.0674 29.8821 21.1668 30.3918 20.2925 30.9672C19.9264 31.1759 19.6526 31.5511 19.3525 31.8606ZM23.3906 38.3434C24.8349 39.3568 24.97 39.3413 26.1826 38.327C26.7379 37.8528 27.3504 37.4574 27.9386 37.0336C28.3959 36.6999 28.862 36.388 29.2884 36.0411C29.4106 35.9291 29.4447 35.7252 29.5185 35.5563C29.333 35.4776 29.1435 35.3243 28.9554 35.3355C28.7142 35.3424 28.4637 35.4545 28.2441 35.5797C26.8291 36.3443 25.4295 37.1154 24.0299 37.8866C23.8237 37.9811 23.6592 38.1479 23.3906 38.3434ZM25.972 33.232C25.8798 33.0655 25.7722 32.8924 25.6801 32.7259C25.4713 32.9103 25.2954 33.1451 25.0536 33.2791C24.1665 33.7581 23.2463 34.1867 22.3746 34.6722C22.0597 34.8479 21.8193 35.1464 21.5373 35.3725C21.9526 35.5124 22.3786 35.7114 22.8187 35.7526C23.0464 35.7764 23.3372 35.5722 23.546 35.3878C24.2188 34.8542 24.8829 34.2988 25.5383 33.7214C25.7048 33.5919 25.8229 33.4054 25.972 33.232ZM23.9772 17.4597C24.0518 17.5824 24.1265 17.7051 24.2078 17.8125C24.6316 17.5555 25.062 17.2831 25.4703 17.0195C25.3957 16.8968 25.3298 16.7961 25.2552 16.6734C24.8314 16.9304 24.4076 17.1874 23.9772 17.4597Z" fill="#F8F7F6"/>
<path d="M54.5002 42.7152C53.9732 42.4552 53.4395 42.2106 52.9259 41.9199C51.8987 41.3387 51.5538 40.4107 51.9626 39.4752C52.356 38.5332 53.2752 38.1051 54.4076 38.4038C55.6548 38.733 56.8819 39.1082 58.1023 39.4988C58.6782 39.6886 59.0345 39.5853 59.3443 39.0441C59.9128 37.9946 60.543 36.9713 61.1578 35.9415C61.6345 35.1439 62.4652 34.751 63.2867 34.8814C64.1237 35.0184 64.7576 35.5782 64.6145 36.4083C64.4594 37.4332 64.154 38.4671 63.6989 39.3829C62.7175 41.2934 62.6799 41.2956 64.6495 42.1495C65.0047 42.3002 65.3752 42.4574 65.7237 42.6234C66.9146 43.1651 67.4066 44.301 66.9395 45.4117C66.4857 46.4917 65.219 47.045 64.065 46.6281C63.3038 46.3596 62.5472 46.0386 61.8195 45.6935C61.1159 45.3768 60.6731 45.5525 60.3251 46.2229C59.8747 47.0861 59.3933 47.9363 58.8569 48.7449C58.1334 49.8559 57.294 50.2269 56.4267 49.9498C55.6588 49.6967 55.2148 49.1629 55.3311 48.3942C55.495 47.3912 55.8112 46.4164 56.0898 45.4439C56.1795 45.1547 56.3223 44.8699 56.4738 44.607C56.8238 43.9738 56.6269 43.5448 55.9938 43.2762C55.4997 43.0666 55.0211 42.8635 54.527 42.6538C54.5069 42.6998 54.5002 42.7152 54.5002 42.7152Z" fill="#F8F7F6"/>
</svg>
