<svg width="67" height="62" viewBox="0 0 67 62" fill="none" xmlns="http://www.w3.org/2000/svg">
<path d="M66.2549 55.0063C66.5179 56.9112 66.1775 58.7246 64.6921 60.2637C63.7173 61.2695 62.5878 61.8638 61.1488 61.7724C60.2513 61.7267 59.3384 61.6657 58.4565 61.7267C54.2788 61.9857 51.5401 58.1912 52.0816 54.4425C52.2209 53.4976 52.5303 52.5681 52.8243 51.669C52.9945 51.1508 52.979 50.7394 52.5303 50.3737C51.6948 49.7031 50.8902 48.9717 50.0082 48.3926C48.2134 47.2192 46.3566 46.1372 44.5308 44.9943C44.0202 44.6743 43.525 44.5371 43.0299 44.9181C40.0436 47.204 36.7015 47.0668 33.2355 46.3963C30.7598 45.9239 28.4544 45.1772 26.6595 43.318C26.3036 42.9523 25.9787 42.5561 25.6692 42.1446C25.3443 41.7027 24.9575 41.5808 24.4623 41.7637C21.476 42.8304 18.4743 43.9276 15.488 44.9943C14.7917 45.2381 14.4204 45.6953 14.343 46.4573C14.0645 49.1545 12.7338 51.4099 11.0008 53.4214C10.5521 53.9548 9.73206 54.3358 9.0203 54.4577C7.45753 54.7168 5.89476 54.4577 4.42482 53.8329C1.1755 52.4462 -0.356327 49.2765 0.633944 45.802C1.26834 43.5771 2.41334 41.6417 4.65692 40.6969C7.39564 39.5388 9.96415 40.0417 12.1768 41.9922C12.8267 42.5561 13.3837 42.6628 14.1883 42.358C17.2519 41.1846 20.331 40.0569 23.4256 38.9597C24.091 38.7159 24.3076 38.3806 24.1374 37.7101C23.9827 37.1005 23.8898 36.4605 23.7815 35.8509C23.5958 34.7233 23.6732 33.6261 24.1838 32.5898C26.4738 27.82 30.079 24.8179 35.541 24.2389C35.7731 24.2084 35.9897 24.1322 36.2218 24.117C36.9645 24.056 37.2121 23.6598 37.2121 22.9436C37.2121 20.4291 37.243 17.9299 37.274 15.4155C37.274 14.8212 37.1502 14.2878 36.4848 14.2269C33.7616 13.9526 32.6475 12.0172 32.0132 9.80758C31.4407 7.79604 31.6263 5.73879 32.5702 3.80344C33.4986 1.82238 35.1387 0.8928 37.243 0.648977C37.274 0.648977 37.2894 0.648977 37.3204 0.648977C38.9296 0.481349 40.5697 0.207047 41.9623 1.39569C43.7881 2.99577 45.1961 4.82445 45.6758 7.27792C45.9543 8.6799 45.7067 10.0362 45.3973 11.3315C44.995 12.9773 43.6488 13.8154 41.9932 14.1507C41.0184 14.3488 40.8792 14.4707 40.9256 15.446C41.0339 17.9757 41.1267 20.5053 41.235 23.0502C41.2815 24.1474 41.4207 24.1931 42.5502 24.2236C43.5715 24.2541 44.6236 24.2998 45.5984 24.5589C47.1921 24.9703 47.9967 26.1133 48.3371 27.7133C49.2036 31.8431 48.9251 35.8205 47.0684 39.6454C46.8517 40.1026 46.9755 40.4683 47.3469 40.7884C48.8942 42.1294 50.4105 43.5009 51.9888 44.7962C52.4839 45.2077 53.1183 45.482 53.6908 45.8325C54.2323 46.1677 54.8358 46.4572 55.269 46.8839C56.1974 47.8288 57.2805 48.1793 58.6112 48.1183C60.6072 48.0421 62.4949 48.4688 64.1351 49.6879C65.4967 50.6937 66.3941 51.9737 66.2703 53.7567C66.2239 54.1377 66.2549 54.5187 66.2549 55.0063ZM30.11 38.4111C30.1719 38.4568 30.2338 38.5025 30.2957 38.533C30.404 38.472 30.5123 38.4263 30.6051 38.3501C31.1931 37.7863 31.7501 37.192 32.369 36.6434C33.2046 35.8967 34.1175 35.3176 35.3089 35.3176C35.9588 35.3176 36.5777 35.409 36.8407 36.0795C37.1192 36.7958 36.7479 37.2377 36.2218 37.771C35.0613 38.9749 34.0246 40.3007 32.9879 41.596C32.8796 41.7332 33.0034 42.038 33.0189 42.2513C33.22 42.1751 33.4676 42.1599 33.6069 42.038C33.9163 41.7332 34.1484 41.3674 34.4424 41.0474C35.0613 40.3922 35.7576 39.9045 36.7169 39.9655C37.4442 40.0112 37.7072 40.4836 37.3668 41.1084C37.1502 41.5046 36.9181 41.8703 36.6086 42.3885C37.0728 42.4342 37.3823 42.5104 37.6917 42.4951C39.2081 42.3732 40.3531 41.596 41.2505 40.4531C43.1692 38.0149 44.1904 35.2566 44.2523 32.1631C44.2987 30.304 43.4941 29.1915 41.6373 28.7496C39.7961 28.3077 37.9238 28.2772 36.0671 28.7344C34.7519 29.0544 33.514 29.542 32.8023 30.8069C32.2298 31.8279 32.3226 31.9345 33.3593 32.3155C33.808 32.4831 34.2722 32.8946 34.5043 33.3213C34.7828 33.8242 34.2258 34.0985 33.9009 34.4032C32.8023 35.4395 31.7037 36.4605 30.6361 37.5272C30.404 37.7863 30.2802 38.1215 30.11 38.4111ZM59.7253 51.5166C59.0444 51.669 58.5338 51.6842 58.1161 51.9128C57.7757 52.0957 57.3115 52.5224 57.3269 52.8119C57.4353 54.4729 57.5126 56.1645 58.7659 57.4902C59.2456 57.9931 59.7717 58.0998 60.3442 57.7493C61.4582 57.0788 62.3711 56.2102 62.9436 55.0215C63.4697 53.9243 63.1912 52.8424 62.0926 52.309C61.319 51.928 60.4215 51.7452 59.7253 51.5166ZM36.8407 9.16755C36.7943 9.95997 37.0573 10.4781 37.6453 10.8134C38.3571 11.2096 39.0998 11.3162 39.8425 10.8591C40.8946 10.2038 41.4981 9.2285 41.8075 8.0551C42.2253 6.45502 41.1267 5.09875 39.4557 5.19018C39.1771 5.20542 38.8213 5.32733 38.6356 5.5102C37.6144 6.57693 36.9954 7.82652 36.8407 9.16755ZM7.17902 47.1582C7.16354 47.1582 7.14807 47.1582 7.1326 47.1582C7.1326 47.6611 7.14807 48.1793 7.1326 48.6821C7.08618 49.4593 7.473 50.0232 7.99908 50.5413C8.41685 50.9527 8.78821 50.9527 9.1905 50.526C10.645 49.0326 11.1865 47.2497 10.8925 45.2229C10.7997 44.5524 10.32 44.08 9.67017 43.8819C9.23692 43.7447 7.38016 44.6286 7.27185 44.9638C7.20996 45.1315 7.19449 45.3143 7.19449 45.482C7.17902 46.0458 7.17902 46.5944 7.17902 47.1582Z" fill="#F8F7F6"/>
</svg>
