<svg width="59" height="46" viewBox="0 0 59 46" fill="none" xmlns="http://www.w3.org/2000/svg">
<path d="M43.402 31.2429C41.492 32.0528 39.6071 32.9478 37.6632 33.6524C32.7025 35.4449 27.711 37.1667 22.7283 38.9087C21.6307 39.2904 20.5389 39.6577 19.4369 40.0293C18.7647 40.2545 18.1581 40.5476 17.7655 41.1925C17.4926 41.6432 17.036 41.6454 16.5385 41.5812C15.8489 41.4909 15.1535 41.4149 14.466 41.4672C13.3554 41.5434 12.3525 41.2869 11.3948 40.748C9.50425 39.6717 8.1798 38.0443 7.15978 36.2042C5.16514 32.6003 3.68729 28.8012 3.10825 24.7166C2.93718 23.4973 2.99133 22.2423 2.99028 20.9988C2.98468 20.3791 3.28189 19.8464 3.76307 19.4869C4.56458 18.8958 5.38641 18.2962 6.28008 17.8335C10.6336 15.5329 15.2577 13.9071 19.8932 12.2525C23.1322 11.0944 26.2623 9.65946 29.4219 8.31968C30.3871 7.91043 31.2716 7.34399 32.2367 6.93473C34.7549 5.89085 37.3053 4.89313 39.8381 3.85504C40.7264 3.49034 41.4984 3.79696 42.1637 4.32821C43.5134 5.4066 44.8458 6.52819 45.477 8.22224C45.5977 8.55384 45.7897 8.58006 46.0755 8.43495C46.4687 8.23235 46.8619 8.02975 47.2682 7.85743C47.9896 7.55157 48.6545 7.64044 49.2646 8.18314C50.447 9.23678 51.6987 10.2012 52.5611 11.5699C53.5421 13.1276 54.0815 14.7769 53.8859 16.6181C53.7981 17.4927 53.6856 18.3657 53.5047 19.22C53.4164 19.6521 53.1798 20.0754 52.9502 20.4598C52.8521 20.6211 52.6215 20.7547 52.4298 20.8121C51.6935 21.0286 50.9352 21.1946 50.2078 21.4313C50.0611 21.4815 49.9024 21.7522 49.8929 21.9237C49.8395 23.3458 49.8007 24.7737 49.7821 26.1931C49.7846 26.4193 49.8656 26.6601 49.9683 26.8677C50.4011 27.7488 50.1584 28.4617 49.218 28.8724C47.2921 29.701 45.3574 30.5095 43.4271 31.328C43.4284 31.3035 43.4152 31.2732 43.402 31.2429ZM42.4543 28.9893C42.4411 28.959 42.4279 28.9287 42.4191 28.9085C43.7906 28.327 45.1577 27.7353 46.5337 27.1638C47.0664 26.9499 47.2844 26.5943 47.2514 26.0222C47.1795 24.8924 47.1572 23.7655 47.1203 22.6329C47.0382 20.1557 46.7557 17.7158 45.8876 15.3686C44.6975 12.201 42.9189 9.45051 40.3485 7.20315C39.9559 6.8553 39.5978 6.77984 39.0956 6.98084C37.8473 7.48622 36.5784 7.91665 35.3213 8.40184C34.7537 8.6186 34.1993 8.86563 33.6538 9.13284C32.9762 9.45606 32.3294 9.84994 31.6429 10.153C29.6605 11.0175 27.6502 11.846 25.6634 12.7004C25.1452 12.9202 25.1168 13.0757 25.5054 13.4971C26.1847 14.2258 26.8857 14.9213 27.5549 15.6543C30.0735 18.3901 31.7842 21.5642 32.6026 25.1764C33.0858 27.304 33.1244 29.4886 33.099 31.6644C33.0887 32.3027 33.2798 32.437 33.8575 32.2159C36.7405 31.125 39.5974 30.0572 42.4543 28.9893ZM7.71798 31.8288C8.04502 32.4676 8.41647 33.291 8.8648 34.0697C9.70589 35.5552 10.6079 37.0147 12.0142 38.0572C12.4766 38.3994 13.0287 38.6437 13.5734 38.8434C14.0453 39.0141 14.3568 38.7624 14.3996 38.2538C14.4358 37.8677 14.4414 37.4945 14.4427 37.1112C14.4488 36.1875 14.5437 35.2741 14.1167 34.3786C12.558 31.0563 10.8152 27.8361 8.56027 24.9048C7.72235 23.8127 6.78014 22.8127 5.85384 21.7941C5.71358 21.6382 5.41112 21.6349 5.18688 21.5625C5.1209 21.7699 4.99531 21.9787 5.0035 22.1905C5.00226 22.5738 5.07079 22.9514 5.119 23.3377C5.47923 26.2591 6.61636 28.9467 7.71798 31.8288ZM19.3948 25.0115C19.3992 25.0216 19.3992 25.0216 19.4036 25.0317C18.9667 25.2169 18.5299 25.4021 18.0829 25.5917C18.0321 25.6132 17.9813 25.6348 17.9305 25.6563C17.3805 25.9134 17.0643 26.4303 17.2223 26.9853C17.3464 27.435 17.5288 27.9079 17.8168 28.2643C18.0258 28.5225 18.4879 28.7811 18.7974 28.7456C19.5517 28.653 20.3113 28.4625 21.011 28.1897C22.2782 27.7002 23.5146 27.1401 24.7365 26.5741C25.3474 26.2912 25.9553 25.9736 26.4974 25.5882C26.6887 25.4473 26.8498 25.044 26.7935 24.8048C26.6181 23.9342 26.0134 23.2935 25.283 22.8616C24.7159 22.5279 24.164 23.0011 23.6269 23.205C23.4193 23.281 23.2293 23.3975 23.0262 23.4836C21.8229 23.9819 20.6038 24.4988 19.3948 25.0115ZM50.5186 18.668C51.0736 18.5881 51.2419 18.146 51.2305 17.5408C51.2191 16.9355 51.3124 16.3218 51.2255 15.7367C51.1119 15.0074 51.0225 14.196 50.6535 13.5989C49.9684 12.5258 49.0875 11.5836 48.2689 10.591C47.9064 10.1466 47.481 10.3031 47.0763 10.5345C46.6456 10.7889 46.8868 11.0933 47.0146 11.386C47.0895 11.5576 47.1543 11.7335 47.2552 11.882C48.4937 13.809 48.9946 15.9769 49.4447 18.1664C49.595 18.952 49.6665 19.0054 50.5186 18.668ZM20.692 22.715C20.756 22.7238 20.82 22.7325 20.884 22.7413C20.9717 22.5007 21.0783 22.2761 21.1267 22.0283C21.4087 20.6887 21.6515 19.3417 21.9729 18.0093C22.0801 17.593 22.356 17.177 22.6614 16.8561C23.0826 16.4143 23.6402 16.5607 23.8215 17.1417C23.9307 17.5021 23.9732 17.9027 23.9282 18.2687C23.832 19.2066 23.6558 20.1545 23.5494 21.0967C23.5298 21.2725 23.665 21.6099 23.7582 21.6302C23.9851 21.6536 24.2378 21.5704 24.4423 21.4597C24.5598 21.3979 24.6112 21.1847 24.6688 21.0407C24.8197 20.6418 24.9358 20.2457 25.0911 19.8569C25.4261 18.9971 25.4769 18.9756 26.4338 18.9885C26.5181 18.9886 26.595 18.9441 26.7707 18.9054C26.5688 18.6083 26.4048 18.3429 26.2089 18.115C25.8786 17.7168 25.5323 17.3373 25.1861 16.9578C24.4468 16.1469 23.7133 15.3216 22.9435 14.5236C22.3666 13.919 22.0048 14.0006 21.8032 14.7798C21.5887 15.6124 21.3743 16.445 21.2485 17.2877C21.0011 18.8998 20.8132 20.5105 20.6109 22.1155C20.5957 22.3013 20.6635 22.5118 20.692 22.715ZM14.3325 28.8327C14.3965 28.8414 14.4707 28.8458 14.5347 28.8546C14.6101 28.4757 14.7146 28.1084 14.7406 27.7266C14.913 25.5841 15.0607 23.4402 15.2433 21.2934C15.355 19.8944 15.5307 18.5042 15.6526 17.1008C15.6664 16.9395 15.5444 16.6324 15.4367 16.6063C14.9811 16.5004 14.3394 17.0715 14.3023 17.5657C14.0519 20.4948 13.8452 23.4413 13.5395 26.3819C13.4304 27.3731 13.8276 28.0898 14.3325 28.8327ZM19.314 15.4765C19.2077 15.4259 19.0982 15.3407 18.9892 15.3391C18.2766 15.3064 17.6349 15.8775 17.5958 16.5878C17.454 19.0762 17.3165 21.5746 17.1747 24.0629C17.1609 24.2243 17.1514 24.3958 17.1826 24.55C17.2006 24.6739 17.2985 24.7879 17.3616 24.9047C17.4791 24.8429 17.6796 24.8058 17.7199 24.705C17.8579 24.3593 17.9726 23.9877 18.0423 23.6233C18.4514 21.0575 18.8401 18.5004 19.2434 15.949C19.266 15.8078 19.2887 15.6667 19.314 15.4765ZM29.4167 23.836C28.9285 26.5788 28.4642 29.156 28 31.7333C28.62 31.1952 29.0309 30.399 29.2101 29.4857C29.2998 29.029 29.5093 28.7368 29.9652 28.5675C30.1423 28.5043 30.3708 28.228 30.3498 28.0695C30.1881 26.6787 30.0265 25.2879 29.4167 23.836ZM26.5055 27.7857C26.453 27.7482 26.3859 27.7048 26.3334 27.6673C26.1045 27.86 25.8041 27.9994 25.6569 28.2412C24.9798 29.3656 24.9826 30.6683 24.7699 31.9187C24.7415 32.0743 25.1758 32.2968 25.3933 32.4917C25.5074 32.3117 25.6753 32.1448 25.7254 31.9561C25.9804 30.7475 26.2164 29.5231 26.4467 28.313C26.4809 28.143 26.4859 27.9615 26.5055 27.7857ZM9.72589 22.1139C9.79701 22.0837 9.88269 22.0594 9.95381 22.0292C9.9935 21.1272 10.0579 20.2267 10.0729 19.3233C10.0783 19.2253 9.71378 18.9971 9.61218 19.0401C9.049 19.267 8.51801 19.54 7.98567 19.8375C7.89864 19.8864 7.84624 20.2076 7.91638 20.2855C8.50217 20.9103 9.12419 21.5078 9.72589 22.1139ZM27.0256 19.3237C26.9637 19.8164 26.9435 20.1838 26.8739 20.5483C26.7386 21.2037 26.7208 21.7974 27.4393 22.1745C27.5602 22.2309 27.6714 22.3751 27.7185 22.5107C27.9642 23.184 28.4888 23.117 29.0192 23.0357C29.0221 22.3526 27.8417 20.09 27.0256 19.3237ZM16.1748 32.86C16.5733 33.5522 16.8395 33.5829 17.2848 32.9755C17.386 32.8488 17.4842 32.6876 17.4878 32.5305C17.5032 31.7106 17.5185 30.8907 17.4641 30.0765C17.4576 29.9238 17.1646 29.749 16.9752 29.6738C16.9169 29.6506 16.6708 29.8866 16.6278 30.0364C16.4431 30.6889 16.2831 31.3428 16.1668 32.0141C16.1025 32.2806 16.1605 32.579 16.1748 32.86ZM21.139 33.8889C22.2824 33.6673 22.3359 33.5967 22.3925 32.568C22.4137 32.0925 22.4989 31.6257 22.5594 31.1575C22.6043 30.7916 22.6638 30.4314 22.6884 30.0741C22.6894 29.966 22.6061 29.8578 22.5576 29.7468C22.4357 29.7985 22.2758 29.8184 22.1963 29.912C22.0906 30.0285 22.0317 30.1971 21.9932 30.3569C21.7242 31.3681 21.4654 32.375 21.2066 33.3818C21.1592 33.5215 21.1657 33.6743 21.139 33.8889ZM19.8296 30.3653C19.7073 30.3334 19.5749 30.3058 19.4526 30.274C19.4476 30.4555 19.4818 30.6443 19.4375 30.8186C19.2687 31.4524 19.0606 32.0789 18.9019 32.7084C18.8448 32.936 18.8807 33.1839 18.8629 33.4187C19.1182 33.2865 19.4071 33.176 19.6258 32.9875C19.7403 32.8912 19.7727 32.6621 19.7777 32.4805C19.8233 31.923 19.8543 31.3596 19.8707 30.7904C19.8832 30.6536 19.8462 30.5137 19.8296 30.3653ZM11.2892 24.1782C11.3824 24.1985 11.4755 24.2188 11.5643 24.229C11.6313 23.9136 11.6938 23.588 11.7506 23.2768C11.6575 23.2565 11.5789 23.242 11.4857 23.2217C11.4188 23.5372 11.3518 23.8526 11.2892 24.1782Z" fill="#009564"/>
<path d="M37.3014 21.207C36.9374 21.3374 36.5778 21.4779 36.2049 21.5882C35.4592 21.8087 34.8539 21.5517 34.5853 20.9367C34.3067 20.3261 34.5146 19.7003 35.1709 19.3026C35.8938 18.8647 36.63 18.4571 37.3705 18.0595C37.7227 17.8744 37.8336 17.6601 37.7113 17.2699C37.4597 16.5283 37.2487 15.7695 37.0275 15.0151C36.8565 14.4305 37.0414 13.8623 37.4757 13.5348C37.9202 13.2029 38.4778 13.1577 38.8153 13.6001C39.2418 14.1361 39.6047 14.7468 39.8428 15.3747C40.325 16.6995 40.3091 16.7182 41.6126 16.1775C41.846 16.0785 42.0896 15.9753 42.3275 15.8864C43.1279 15.5709 43.9005 15.8527 44.2276 16.5742C44.5458 17.2756 44.2416 18.1214 43.5183 18.4759C43.0443 18.7126 42.547 18.9235 42.051 19.1098C41.5797 19.2977 41.4648 19.5853 41.6324 20.0519C41.8471 20.6538 42.0415 21.2643 42.1909 21.882C42.4023 22.7242 42.2028 23.2867 41.6768 23.5694C41.2072 23.8163 40.748 23.7839 40.4282 23.3819C40.0162 22.8517 39.6868 22.2626 39.3415 21.6921C39.242 21.5193 39.1685 21.3234 39.1096 21.1334C38.9609 20.6827 38.6641 20.5815 38.248 20.7579C37.9232 20.8956 37.6086 21.029 37.2838 21.1667C37.297 21.1969 37.3014 21.207 37.3014 21.207Z" fill="#009564"/>
</svg>
