<svg width="9" height="10" viewBox="0 0 9 10" fill="none" xmlns="http://www.w3.org/2000/svg">
<path d="M7.87603 8.67072L5.89535 8.17125C5.66384 8.11575 5.43233 8.17125 5.27799 8.33774L3.76033 9.80841C3.34876 10.2246 2.65424 9.9194 2.60279 9.30893L2.44845 7.11682C2.42273 6.86708 2.29412 6.64509 2.11405 6.5341L0.33916 5.42417C-0.149579 5.11893 -0.0981343 4.34198 0.416328 4.09225L2.29411 3.2598C2.4999 3.17655 2.65424 2.95456 2.70568 2.73258L3.11725 0.595955C3.24587 -0.014508 3.94039 -0.208746 4.30052 0.262976L5.61239 1.92788C5.76673 2.12211 5.97252 2.20536 6.20403 2.17761L8.23615 1.95562C8.80206 1.90013 9.18791 2.56609 8.90495 3.09331L7.85031 4.95244C7.72169 5.17443 7.72169 5.42417 7.79886 5.64615L8.622 7.64403C8.90495 8.199 8.44194 8.80947 7.87603 8.67072Z" fill="#009564"/>
</svg>
