<svg width="77" height="46" viewBox="0 0 77 46" fill="none" xmlns="http://www.w3.org/2000/svg">
<path d="M53.5224 33.7565C51.7394 34.4147 49.9925 35.1695 48.1621 35.7079C43.4902 37.0755 38.7785 38.3617 34.0781 39.6712C33.0424 39.9574 32.0106 40.2284 30.9692 40.503C30.3338 40.6689 29.7723 40.9174 29.4689 41.5786C29.2584 42.0408 28.807 41.9878 28.3062 41.8568C27.6119 41.6737 26.9138 41.5057 26.2404 41.4797C25.1515 41.4285 24.1253 41.0247 23.1065 40.316C21.0937 38.9033 19.5683 36.9535 18.316 34.8069C15.8665 30.6032 13.9026 26.2476 12.7903 21.6875C12.46 20.3265 12.3479 18.9535 12.1827 17.5865C12.0953 16.9047 12.3191 16.3553 12.7477 16.0185C13.4628 15.4662 14.1968 14.9069 15.02 14.5069C19.0241 12.507 23.3849 11.2817 27.7533 10.0261C30.8053 9.14661 33.713 7.94962 36.6626 6.8608C37.5635 6.5282 38.364 6.01302 39.2649 5.68043C41.6189 4.83893 44.0108 4.05208 46.3799 3.21872C47.2107 2.92576 48.015 3.35658 48.7435 4.02137C50.2214 5.37071 51.6879 6.76544 52.5361 8.70424C52.6993 9.08339 52.8928 9.13555 53.1565 9.01076C53.5187 8.83583 53.881 8.66089 54.2604 8.52085C54.9338 8.27228 55.6034 8.45075 56.2788 9.12141C57.5878 10.4232 58.9538 11.6354 59.9878 13.2447C61.1642 15.0761 61.9156 16.9545 61.9653 18.9546C61.9939 19.9053 61.9978 20.8513 61.9315 21.7682C61.9012 22.2326 61.723 22.6691 61.5466 23.0637C61.4708 23.2291 61.2603 23.348 61.0782 23.3877C60.3782 23.5363 59.6498 23.6266 58.9613 23.7984C58.8228 23.8358 58.7014 24.1141 58.7148 24.3014C58.8497 25.8581 58.9997 27.423 59.1688 28.9809C59.2011 29.2298 59.313 29.5043 59.4421 29.7451C59.9866 30.7661 59.8407 31.5203 58.9644 31.8575C57.1681 32.5343 55.3604 33.1879 53.5585 33.8531C53.5566 33.8263 53.5395 33.7914 53.5224 33.7565ZM52.2872 31.1642C52.2701 31.1293 52.253 31.0944 52.2416 31.0712C53.522 30.5985 54.7966 30.1143 56.0826 29.6533C56.5815 29.4828 56.7503 29.1185 56.6421 28.4856C56.4218 27.235 56.2509 25.9936 56.0648 24.7441C55.6566 22.0112 55.0549 19.2949 53.886 16.6094C52.2902 12.983 50.167 9.74356 47.327 6.96098C46.8925 6.53092 46.5283 6.40448 46.0579 6.5644C44.8895 6.96827 43.6907 7.28723 42.5108 7.66783C41.9778 7.83713 41.4619 8.04132 40.9574 8.26876C40.3295 8.54172 39.7415 8.89609 39.1023 9.14579C37.2548 9.85525 35.3751 10.5217 33.5219 11.2195C33.0382 11.3981 33.0307 11.5656 33.4708 12.076C34.2392 12.9595 35.0247 13.8092 35.7835 14.6962C38.637 18.0094 40.7488 21.7062 42.0355 25.7762C42.7946 28.1736 43.1212 30.5795 43.3833 32.9681C43.4574 33.6685 43.6642 33.8393 44.2067 33.6665C46.9154 32.8177 49.6013 31.9909 52.2872 31.1642ZM18.2907 30.0653C18.6986 30.8072 19.1749 31.7574 19.7213 32.6679C20.7497 34.4028 21.835 36.1168 23.3641 37.4335C23.8668 37.8658 24.4454 38.2015 25.0107 38.4871C25.5002 38.7321 25.7752 38.4933 25.7504 37.9394C25.7352 37.5194 25.6915 37.1098 25.6421 36.6887C25.5263 35.6741 25.4996 34.6816 24.9588 33.6454C22.9779 29.8042 20.8281 26.0528 18.2099 22.5567C17.2366 21.2545 16.1722 20.0409 15.1212 18.8086C14.9618 18.6203 14.6621 18.5799 14.4306 18.4731C14.3927 18.693 14.296 18.9072 14.3321 19.1411C14.3815 19.5622 14.4992 19.9857 14.5979 20.4161C15.34 23.671 16.8201 26.7634 18.2907 30.0653ZM28.9447 23.9903C28.9504 24.0019 28.9504 24.0019 28.9561 24.0135C28.5483 24.1641 28.1404 24.3146 27.7231 24.4687C27.6757 24.4862 27.6283 24.5037 27.5809 24.5212C27.0706 24.737 26.826 25.2667 27.0556 25.896C27.2378 26.4054 27.4807 26.9474 27.8127 27.3741C28.0537 27.6833 28.545 28.0237 28.8466 28.0222C29.5807 28.0121 30.3072 27.895 30.9635 27.6802C32.1528 27.2961 33.3023 26.8306 34.4366 26.3569C35.0037 26.1201 35.5633 25.8449 36.0488 25.4871C36.2195 25.3555 36.3257 24.9318 36.2384 24.6619C35.9499 23.6837 35.2669 22.906 34.4872 22.3425C33.882 21.9068 33.3984 22.3599 32.8938 22.5187C32.6984 22.5771 32.5258 22.682 32.3362 22.752C31.2114 23.1535 30.0733 23.5737 28.9447 23.9903ZM58.9039 20.7987C59.4426 20.7784 59.5507 20.3128 59.4595 19.6462C59.3684 18.9795 59.3797 18.3163 59.2165 17.6625C59.0077 16.8471 58.8122 15.9443 58.3682 15.2432C57.5485 13.9804 56.5525 12.8376 55.6114 11.6471C55.194 11.1147 54.7938 11.2349 54.424 11.4401C54.0313 11.6675 54.3102 12.0314 54.4753 12.3686C54.5721 12.5663 54.6594 12.7675 54.7789 12.9431C56.2588 15.2117 57.0407 17.6556 57.7752 20.1169C58.0276 20.9987 58.1054 21.0661 58.9039 20.7987ZM29.925 21.6236C29.9895 21.641 30.054 21.6584 30.1185 21.6758C30.1735 21.4221 30.2493 21.1881 30.2645 20.9216C30.3667 19.4833 30.4291 18.0322 30.5711 16.6067C30.6223 16.1621 30.8404 15.7383 31.1002 15.4227C31.4586 14.9883 32.0296 15.2169 32.2858 15.8776C32.4414 16.287 32.5363 16.7325 32.5402 17.1293C32.5688 18.1486 32.5196 19.1691 32.5388 20.1919C32.5426 20.3827 32.7209 20.77 32.8158 20.8037C33.0434 20.8569 33.2824 20.7962 33.4702 20.6994C33.5783 20.6458 33.6011 20.4177 33.639 20.2664C33.7356 19.8462 33.7982 19.4249 33.9006 19.0164C34.1186 18.112 34.166 18.0945 35.1145 18.225C35.1979 18.2354 35.2681 18.1957 35.4369 18.1746C35.1979 17.8234 35.0005 17.5118 34.7767 17.2374C34.3972 16.7596 34.0045 16.3004 33.6118 15.8412C32.7732 14.8601 31.9384 13.8638 31.0714 12.8931C30.4206 12.1584 30.0735 12.2042 29.9769 13.0362C29.8746 13.9253 29.7723 14.8144 29.7591 15.7255C29.7271 17.4675 29.754 19.2152 29.7656 20.9547C29.7751 21.1572 29.87 21.3968 29.925 21.6236ZM24.4401 27.5755C24.5046 27.5929 24.5785 27.6068 24.643 27.6242C24.6676 27.2169 24.7226 26.8259 24.6979 26.4093C24.5856 24.0753 24.4487 21.7366 24.3459 19.399C24.2717 17.8748 24.262 16.368 24.1973 14.8402C24.1897 14.6645 24.0284 14.3121 23.9183 14.2704C23.4536 14.0987 22.8941 14.6485 22.9226 15.1872C23.0615 18.3765 23.246 21.5901 23.3319 24.7853C23.3548 25.8616 23.8424 26.6977 24.4401 27.5755ZM27.6058 13.4996C27.4939 13.4311 27.3744 13.3241 27.2662 13.3091C26.5568 13.1865 25.9973 13.7364 26.0524 14.5124C26.2406 17.2304 26.4345 19.96 26.6227 22.6779C26.6303 22.8536 26.6436 23.0409 26.6948 23.2143C26.729 23.3527 26.8409 23.4899 26.9187 23.6259C27.0268 23.5723 27.2203 23.5558 27.2469 23.4499C27.3379 23.0867 27.4023 22.6922 27.4231 22.3001C27.4891 19.5295 27.5361 16.7659 27.5983 14.0104C27.6021 13.858 27.6058 13.7055 27.6058 13.4996ZM38.7061 23.9157C38.5852 26.8714 38.4661 29.6479 38.347 32.4243C38.8894 31.9083 39.1909 31.083 39.2477 30.1008C39.2761 29.6098 39.4448 29.314 39.8735 29.1832C40.0404 29.1353 40.2301 28.8594 40.1883 28.6825C39.8448 27.1342 39.5012 25.5858 38.7061 23.9157ZM36.347 27.9036C36.2901 27.856 36.218 27.8002 36.1611 27.7525C35.96 27.9366 35.6812 28.0533 35.5674 28.3012C35.0459 29.4549 35.2207 30.8871 35.1753 32.2358C35.1678 32.4033 35.6269 32.7007 35.8678 32.9413C35.9569 32.7574 36.1011 32.5943 36.1257 32.393C36.2185 31.0955 36.2903 29.7782 36.3584 28.4761C36.3698 28.2934 36.3508 28.0944 36.347 27.9036ZM18.9948 19.6306C19.0612 19.6061 19.1427 19.5897 19.2091 19.5652C19.1293 18.5785 19.0741 17.5965 18.9697 16.6052C18.9621 16.4982 18.5713 16.2031 18.4764 16.2381C17.9491 16.419 17.4597 16.6546 16.9723 16.9169C16.8926 16.9601 16.8832 17.3068 16.9629 17.401C17.625 18.1589 18.3194 18.8912 18.9948 19.6306ZM35.7443 18.6653C35.7482 19.1994 35.7767 19.6008 35.7559 19.9929C35.7086 20.697 35.7694 21.3474 36.5301 21.8492C36.6572 21.9259 36.7862 22.0979 36.8507 22.2526C37.1828 23.0226 37.6931 23.0127 38.2071 22.9877C38.1198 22.2373 36.6531 19.6068 35.7443 18.6653ZM26.7948 32.2262C27.2805 33.0355 27.548 33.1016 27.9083 32.488C27.9918 32.361 28.0676 32.1957 28.0505 32.0235C27.9574 31.1242 27.8644 30.2248 27.703 29.3232C27.6764 29.1545 27.3634 28.9268 27.1661 28.8211C27.1054 28.7886 26.893 29.0181 26.8702 29.1775C26.7736 29.8723 26.7016 30.5717 26.6752 31.2955C26.6467 31.5806 26.7435 31.9156 26.7948 32.2262ZM31.8427 33.9603C32.9448 33.8556 32.9884 33.7845 32.9086 32.6606C32.8668 32.1405 32.8895 31.6378 32.8875 31.1305C32.8836 30.7337 32.895 30.3451 32.8722 29.9553C32.8589 29.8366 32.7621 29.7076 32.6995 29.5796C32.5857 29.6216 32.4301 29.6241 32.3637 29.7173C32.2746 29.8326 32.2386 30.0107 32.2215 30.1817C32.0889 31.2605 31.9658 32.3358 31.8426 33.4111C31.8142 33.5589 31.8408 33.7276 31.8427 33.9603ZM30.0818 29.928C29.9566 29.8781 29.8219 29.8317 29.6967 29.7818C29.7157 29.9808 29.7745 30.1925 29.7537 30.3787C29.6703 31.0548 29.5471 31.7182 29.4733 32.3909C29.4467 32.6341 29.5151 32.9109 29.5284 33.1669C29.7636 33.0526 30.0348 32.9662 30.2264 32.7857C30.3269 32.6936 30.3288 32.4458 30.3098 32.2468C30.2812 31.6395 30.2375 31.024 30.1786 30.4004C30.1729 30.2514 30.1179 30.0932 30.0818 29.928ZM20.8143 22.0896C20.9091 22.1232 21.004 22.1569 21.0931 22.1789C21.1177 21.8403 21.1366 21.49 21.1518 21.1549C21.0569 21.1212 20.9773 21.0957 20.8824 21.0621C20.8578 21.4007 20.8332 21.7393 20.8143 22.0896Z" fill="#009564"/>
<path d="M46.863 21.0222C46.5346 21.1163 46.2116 21.2215 45.8723 21.2935C45.1936 21.4376 44.5876 21.0993 44.2557 20.4264C43.9146 19.7568 44.0326 19.1276 44.6042 18.7883C45.2339 18.4147 45.8799 18.0742 46.5313 17.7447C46.8416 17.5921 46.9197 17.3812 46.7546 16.9598C46.4226 16.1566 46.127 15.3402 45.8222 14.5271C45.5864 13.8971 45.6899 13.3253 46.0601 13.0336C46.4394 12.7386 46.9619 12.7558 47.3375 13.2565C47.8092 13.8653 48.2301 14.5447 48.5348 15.2276C49.1588 16.6662 49.1461 16.6839 50.3129 16.2701C50.5216 16.1937 50.7393 16.1141 50.9534 16.0487C51.672 15.8119 52.4395 16.1953 52.8404 16.9862C53.2304 17.7551 53.0489 18.6029 52.4083 18.8893C51.9892 19.0817 51.5446 19.2444 51.0982 19.3816C50.6754 19.5233 50.6028 19.8103 50.8205 20.3167C51.0998 20.9698 51.3611 21.6295 51.5805 22.2915C51.8871 23.1951 51.7691 23.7592 51.3063 23.9936C50.8926 24.1971 50.4535 24.1103 50.0998 23.6537C49.6426 23.0526 49.2562 22.3996 48.857 21.7643C48.7409 21.5723 48.6466 21.3594 48.5668 21.1542C48.3691 20.6666 48.0751 20.5267 47.7032 20.6628C47.4128 20.769 47.1316 20.8719 46.8412 20.9781C46.8576 21.0112 46.863 21.0222 46.863 21.0222Z" fill="#009564"/>
</svg>
