<svg width="182" height="122" viewBox="0 0 182 122" fill="none" xmlns="http://www.w3.org/2000/svg">
<path d="M19.0199 121.129C19.0199 121.129 26.2704 109.166 25.3703 96.0215C24.5659 84.274 20.5679 74.3887 28.8094 66.1087C34.0232 60.8706 39.1683 60.7926 46.3466 59.0782C53.8544 57.2852 58.3453 57.8712 66.0611 57.4789C74.194 57.0654 78.83 56.0102 86.9142 57.0821C93.1838 57.9134 97.4373 57.4025 102.63 61.0675C106.439 63.7568 108.595 65.9129 110.264 70.2832C111.851 74.4404 112.354 76.0761 110.193 79.9336C107.682 84.4167 104.179 87.1508 99.0613 87.3823C94.8684 87.572 91.4241 86.8569 88.2228 84.0962C83.2222 79.7838 81.8723 75.9572 83.739 69.6359C86.2126 61.2594 91.53 51.3852 100.853 43.5313C111.058 34.9339 132.568 30.8168 132.568 30.8168" stroke="#009564" stroke-linecap="round" stroke-linejoin="round" stroke-dasharray="3 9"/>
<path d="M172.931 7.60136C172.297 8.61105 171.853 9.89188 171.513 11.0184C171.319 11.6603 170.741 13.0247 170.741 13.0247C170.741 13.0247 170.237 14.5639 169.793 15.4989C169.429 16.2671 169.099 16.6333 168.739 17.4033C168.218 18.5155 168.041 19.1912 167.692 20.3685C167.437 21.2274 167.404 21.7403 167.121 22.5905C166.819 23.4997 166.557 23.9752 166.177 24.8546C165.826 25.666 165.617 26.1152 165.255 26.9214C165.073 27.3261 164.977 27.6216 164.788 27.9571C164.647 28.2059 164.425 28.5192 164.339 28.8036C164.154 29.4167 161.707 28.9324 161.216 28.7224C160.224 28.2983 159.191 28.0849 158.196 27.6906C157.675 27.4845 157.117 27.4021 156.597 27.1799C156.257 27.0343 155.893 26.9464 155.544 26.8209C155.149 26.6788 154.91 26.4506 154.476 26.2727C153.796 25.994 153.237 25.9579 152.655 25.7971C152.049 25.6293 151.595 25.3095 150.898 25.0405C149.732 24.5909 148.791 24.2129 147.846 24.0818C147.398 24.0195 146.425 23.3184 146.075 23.4587" stroke="#009564" stroke-width="1.5" stroke-linecap="round" stroke-linejoin="round"/>
<path d="M172.658 7.83064C171.58 8.26317 170.906 9.26051 169.835 9.68993C168.806 10.1024 167.777 10.5148 166.748 10.9273C165.689 11.3517 164.767 11.8929 163.791 12.4698C163.333 12.7406 162.818 12.8857 162.376 13.1917C161.808 13.5855 161.372 13.9309 160.717 14.1935C159.128 14.8308 157.596 15.7043 156.232 16.7459C155.471 17.3271 154.601 17.7645 153.842 18.3437C153.233 18.8087 152.472 19.0317 151.868 19.5326C150.884 20.348 149.533 20.7681 148.61 21.6197C148.256 21.9461 147.645 22.1547 147.225 22.3973C146.871 22.6013 146.658 22.8601 146.262 23.019" stroke="#009564" stroke-width="1.5" stroke-linecap="round" stroke-linejoin="round"/>
<path d="M172.784 7.53839C171.741 7.95659 170.62 8.28481 169.609 8.68993C168.186 9.2607 166.672 9.50366 165.249 10.0745C161.989 11.3811 158.683 12.5853 155.408 13.8985C152.957 14.8808 150.507 15.8631 148.057 16.8454C145.381 17.9178 142.853 19.1741 140.18 20.2453" stroke="#009564" stroke-width="1.5" stroke-linecap="round" stroke-linejoin="round"/>
<path d="M172.471 7.66433C170.232 8.56203 168.072 8.68406 165.694 8.75132C164.951 8.77235 163.839 9.06422 163.138 9.34524C162.347 9.66226 161.398 9.55777 160.603 9.87647C158.607 10.6767 156.497 11.0377 154.506 11.8358C153.062 12.4147 151.462 12.5088 149.932 12.8213C147.334 13.3517 144.622 13.7705 142.115 14.6217C141.431 14.8536 140.825 14.809 140.009 14.9808C139.334 15.123 138.292 15.4 138.292 15.4C138.292 15.4 137.376 15.5831 136.999 15.7028L133.398 16.4797C132.979 16.5481 132.678 16.6973 132.334 16.6976C131.673 16.6981 131.035 17.0657 130.393 17.132C129.837 17.1896 129.224 17.1918 128.666 17.2251" stroke="#009564" stroke-width="1.5" stroke-linecap="round" stroke-linejoin="round"/>
<path d="M139.909 20.4757C138.966 20.4844 136.766 19.6076 136.766 19.6076C136.766 19.6076 135.613 19.2442 135.082 19.0169C134.726 18.8647 134.176 18.6926 133.808 18.679C133.363 18.6625 132.499 18.4699 132.499 18.4699C132.499 18.4699 131.522 18.3554 131.339 18.2143C130.775 17.7786 129.455 17.4988 128.792 17.5384" stroke="#009564" stroke-width="1.5" stroke-linecap="round" stroke-linejoin="round"/>
<path d="M146.126 36.2864C147.043 35.5 147.697 34.4737 148.517 33.6312C149.196 32.9326 149.807 31.8985 150.627 31.3371C151.004 31.0797 151.192 30.4844 151.635 30.2058C152.078 29.9271 152.458 29.462 152.818 29.0918C153.212 28.6862 153.813 28.3726 154.09 27.8814C154.262 27.5784 154.909 27.1374 154.936 26.8152" stroke="#009564" stroke-width="1.5" stroke-linecap="round" stroke-linejoin="round"/>
<path d="M146.022 36.3282C145.74 34.8512 144.97 33.4013 144.41 32.0047C143.888 30.7033 143.474 29.3685 142.946 28.0524C142.008 25.7117 141.401 23.2899 140.473 20.9764" stroke="#009564" stroke-width="1.5" stroke-linecap="round" stroke-linejoin="round"/>
<path d="M146.074 23.4582C145.993 24.4505 145.807 25.4884 145.745 26.4995C145.676 27.6243 145.867 28.7675 145.826 29.8609C145.81 30.3001 145.865 30.713 145.902 31.2583C145.94 31.8191 146.019 32.6929 146.019 32.6929L146.487 35.6825" stroke="#009564" stroke-width="1.5" stroke-linecap="round" stroke-linejoin="round"/>
<path d="M153.459 28.0951C152.902 28.1089 152.658 27.7164 152.171 27.5766C151.991 27.5249 151.703 27.4426 151.563 27.3186" stroke="#009564" stroke-width="1.5" stroke-linecap="round" stroke-linejoin="round"/>
<path d="M151.82 29.5156C151.487 29.1778 150.982 29.0268 150.576 28.7858C150.417 28.6916 150.274 28.5831 150.104 28.5101C150.008 28.4692 149.853 28.4581 149.772 28.3917C149.515 28.1815 149.221 28.0306 148.984 27.8199" stroke="#009564" stroke-width="1.5" stroke-linecap="round" stroke-linejoin="round"/>
<path d="M150.378 30.7699C150.1 30.4622 149.568 30.3309 149.205 30.1194C149.117 30.0678 148.749 29.8027 148.744 29.8603" stroke="#009564" stroke-width="1.5" stroke-linecap="round" stroke-linejoin="round"/>
<path d="M149.17 32.1856C149.084 32.1075 148.331 31.4651 148.266 31.6173" stroke="#009564" stroke-width="1.5" stroke-linecap="round" stroke-linejoin="round"/>
<path d="M148.085 33.5927C147.902 33.4827 147.74 33.3691 147.567 33.2502" stroke="#009564" stroke-width="1.5" stroke-linecap="round" stroke-linejoin="round"/>
</svg>
