<svg width="61" height="65" viewBox="0 0 61 65" fill="none" xmlns="http://www.w3.org/2000/svg">
<path d="M58.359 42.125C57.7525 41.8641 57.146 41.6032 56.6427 41.3814C60.927 28.7275 58.6687 17.7826 48.7968 8.70307C37.8925 0.197571 26.5882 0.0410267 14.858 7.00719C14.5483 6.55061 14.187 6.0288 13.8257 5.49394C22.3039 -0.963457 37.0279 -2.82893 48.7065 5.97662C60.927 15.2127 63.353 30.7756 58.359 42.125Z" fill="white"/>
<path d="M45.9578 14.2344C45.519 14.7302 45.0803 15.2259 44.6415 15.7216C35.66 7.71186 22.4329 9.10769 15.2064 17.7305C11.2705 22.4137 9.63167 27.8666 10.4059 33.9587C11.1802 40.0247 14.1611 44.8253 19.0519 48.4388C18.6648 49.0128 18.2906 49.5477 17.8647 50.1738C11.2318 45.0993 7.81213 38.4462 8.21217 30.0582C8.66383 20.5874 14.7806 12.5907 23.5685 9.56427C31.9951 6.6552 40.7831 9.25119 45.9578 14.2344Z" fill="white"/>
<path d="M19.478 51.8571C19.6845 47.4479 21.4653 43.5995 25.5302 41.1471C29.9177 38.4989 35.1699 39.386 38.8089 43.2473C43.7771 48.5437 43.2351 57.5318 37.6733 62.1759C33.1051 65.9851 26.5884 65.4111 22.7041 60.8583C20.5491 58.3536 19.5555 55.4185 19.478 51.8571ZM40.1639 52.4442C40.1381 49.8482 39.4928 47.6566 38.125 45.6868C34.8214 40.9514 28.6144 40.4035 24.5882 44.5127C20.6781 48.4915 20.5878 55.5489 24.3817 59.6321C27.5691 63.063 32.2663 63.6239 35.9312 60.8974C38.796 58.7711 40.0348 55.7577 40.1639 52.4442Z" fill="white"/>
<path d="M39.183 27.0968C39.0797 27.8795 39.0023 28.61 38.8862 29.3405C38.7959 29.9015 38.4474 30.2015 37.8796 30.2537C34.5245 30.6059 32.5888 33.0453 33.0146 36.3849C33.105 37.0633 32.7695 37.4416 32.1888 37.6764C28.369 39.2288 24.7171 38.8765 21.3361 36.5415C17.5551 33.9324 15.7097 29.2362 16.6259 24.9313C17.6454 20.1567 21.1167 16.6998 25.7881 15.7996C31.6855 14.6647 37.4667 18.5913 38.8604 24.6834C39.0281 25.4922 39.0797 26.3271 39.183 27.0968ZM30.8596 35.9805C30.8596 35.7587 30.8596 35.5631 30.8596 35.3674C30.8983 32.3148 32.8211 29.6275 35.6343 28.5839C36.0988 28.4143 36.8086 28.5839 36.9892 27.9708C37.1312 27.4751 37.0279 26.888 37.0279 26.3532C37.0279 26.1575 36.9634 25.9618 36.9376 25.7792C36.202 20.4959 31.0661 16.778 25.943 17.9391C22.0329 18.8261 19.5036 21.3047 18.6907 25.2704C17.8906 29.197 19.2456 32.4453 22.433 34.7934C24.988 36.6458 27.8399 36.985 30.8596 35.9805Z" fill="white"/>
<path d="M40.8737 36.1108C40.9253 35.1063 41.0414 34.1149 41.0156 33.1104C40.9898 31.6623 41.3253 30.3317 41.9189 29.0272C42.6674 27.3704 43.3255 25.6745 43.9836 23.9786C44.0869 23.7308 44.0482 23.3394 43.932 23.1046C43.1836 21.6566 43.3771 19.9998 44.5385 18.8388C45.4805 17.8865 46.4613 16.9733 47.4291 16.0471C48.1776 15.3426 49.0163 15.5774 49.3002 16.5689C49.6616 17.8212 50.01 19.0736 50.3326 20.3259C50.7842 22.061 50.1261 23.5612 48.5905 24.4874C48.3969 24.6048 48.255 24.9049 48.2163 25.1397C47.8808 27.3443 47.584 29.562 47.2355 31.7797C47.1452 32.3277 46.9774 32.8756 46.7323 33.3713C45.4031 35.9803 44.0352 38.5633 42.6674 41.1463C42.2415 41.9551 41.3769 42.1377 40.8995 41.4985C40.7317 41.2637 40.6543 40.8984 40.6543 40.5984C40.6543 39.8418 40.7317 39.0851 40.7575 38.3155C40.7833 37.5719 40.7575 36.8413 40.7575 36.0977C40.8092 36.1108 40.8479 36.1108 40.8737 36.1108ZM42.9642 35.8368C43.0158 35.8499 43.0545 35.8629 43.1061 35.8629C43.6223 34.8976 44.1772 33.9453 44.6289 32.9408C44.9386 32.2624 45.1579 31.5319 45.2999 30.8013C45.558 29.4316 45.7128 28.0618 45.9064 26.679C45.9967 26.0528 46.0741 25.4267 46.1516 24.8005C45.958 24.8266 45.8677 24.9049 45.8419 24.9831C44.9773 27.0834 44.1127 29.1837 43.2481 31.2971C43.2094 31.4014 43.1707 31.5058 43.1707 31.6102C43.0932 33.0191 43.0287 34.4279 42.9642 35.8368ZM47.7517 18.7736C47.6614 18.7083 47.5581 18.6301 47.4678 18.5648C46.9516 19.178 46.4355 19.7911 45.9322 20.3912C45.4676 20.9521 45.4418 21.6827 45.8677 22.2436C46.2677 22.7524 46.9516 22.935 47.5452 22.6741C48.1776 22.4002 48.5389 21.7218 48.3711 21.0173C48.1905 20.2607 47.9582 19.5171 47.7517 18.7736Z" fill="white"/>
<path d="M4.18624 16.6479C4.77984 16.948 5.33473 17.235 5.94124 17.5481C2.59899 24.6316 1.97957 31.9109 4.52175 39.3467C7.05103 46.7694 11.916 52.1571 18.9102 55.7445C18.6263 56.3446 18.3424 56.9317 18.0714 57.5317C3.2184 50.8526 -3.63386 31.5978 4.18624 16.6479Z" fill="white"/>
<path d="M5.59289 14.5212C5.69613 13.895 5.79936 13.2037 5.92841 12.5253C6.00583 12.134 5.95422 11.8209 5.63161 11.5339C5.17995 11.1295 4.76701 10.686 4.36697 10.2294C3.72175 9.49888 3.99275 8.63791 4.93477 8.4031C4.97348 8.39005 5.0251 8.37701 5.06381 8.37701C6.793 8.50746 7.72212 7.59431 8.16087 6.00282C8.28991 5.5332 8.63833 5.23316 9.15451 5.22012C9.67068 5.20707 9.98039 5.52015 10.1869 5.97673C10.2643 6.15936 10.3804 6.3159 10.432 6.51157C10.7288 7.84216 11.6063 8.35092 12.871 8.33787C13.0774 8.33787 13.2968 8.37701 13.5033 8.44223C14.3292 8.67704 14.6002 9.51192 14.0453 10.1642C13.6323 10.6338 13.2065 11.1034 12.7419 11.5209C12.4064 11.8209 12.3548 12.1601 12.4322 12.5645C12.5484 13.1645 12.7032 13.7646 12.7161 14.3647C12.7161 14.7299 12.5613 15.2126 12.3032 15.4213C12.0709 15.617 11.5547 15.63 11.245 15.4996C10.5095 15.2126 9.82554 14.5082 9.1287 14.5082C8.44477 14.5082 7.77374 15.1865 7.0898 15.5257C6.36716 15.8779 5.59289 15.3691 5.59289 14.5212ZM8.03183 12.5645C8.81899 11.9774 9.55454 12.0166 10.3417 12.5775C9.99329 11.56 10.3288 10.8164 11.2579 10.112C10.1352 10.1381 9.49002 9.74673 9.16741 8.7814C8.89642 9.81196 8.17377 10.112 7.14142 10.1511C8.01892 10.8164 8.39315 11.5469 8.03183 12.5645Z" fill="white"/>
<path d="M58.1916 52.1441C58.2045 52.9268 57.4302 53.4486 56.7076 53.0964C56.1011 52.8094 55.5462 52.4311 54.9397 52.1571C54.7461 52.0658 54.4364 52.0658 54.2428 52.1571C53.675 52.418 53.1718 52.8094 52.5911 53.0312C52.2555 53.1616 51.7136 53.1877 51.4813 52.992C51.2103 52.7833 51.0942 52.2745 51.0554 51.8832C51.0296 51.4396 51.12 50.97 51.2619 50.5395C51.52 49.7568 51.2619 49.2219 50.6812 48.7262C50.3457 48.4523 50.0618 48.1261 49.7779 47.8C49.1327 47.0695 49.4166 46.1954 50.3715 45.9867C50.9393 45.8693 51.5071 45.7649 52.0878 45.7258C52.5265 45.6997 52.7201 45.4779 52.875 45.0996C53.0943 44.5648 53.3008 43.9908 53.6234 43.5211C53.8428 43.208 54.2557 42.8428 54.5913 42.8428C54.9268 42.8428 55.3397 43.208 55.5591 43.5211C55.8688 43.9516 56.0882 44.4734 56.2559 44.9822C56.4366 45.5171 56.7721 45.7127 57.2883 45.7519C57.7786 45.791 58.2948 45.8171 58.7465 45.9867C59.1078 46.1172 59.5466 46.4172 59.6627 46.7433C59.7659 47.0303 59.5078 47.4869 59.353 47.8391C59.2885 48.0087 59.1078 48.1522 58.953 48.2566C57.8819 49.0132 57.598 49.9916 58.0367 51.2309C58.1529 51.5049 58.1529 51.831 58.1916 52.1441ZM56.514 47.7739C55.5978 47.6956 54.901 47.3695 54.6171 46.365C54.3332 47.3825 53.6105 47.6956 52.5524 47.7478C53.5202 48.4131 53.7654 49.1698 53.4557 50.1612C54.2428 49.535 54.9784 49.6133 55.7785 50.1221C55.4171 49.1306 55.7268 48.4131 56.514 47.7739Z" fill="white"/>
<path d="M44.1773 49.8608C43.7773 49.2999 43.3901 48.7781 43.0288 48.2563C50.3069 42.2294 52.9137 34.624 50.7199 25.3227C51.3264 25.14 51.9329 24.9444 52.5394 24.7617C55.0945 31.9627 53.1588 43.3382 44.1773 49.8608Z" fill="white"/>
<path d="M42.874 55.8616C44.9 54.544 46.8486 53.2786 48.8617 51.9609C49.2101 52.3654 49.636 52.8741 50.1005 53.4221C48.152 55.105 46.0356 56.4617 43.6999 57.5967C43.3902 56.9574 43.1192 56.3834 42.874 55.8616Z" fill="white"/>
<path d="M29.7885 49.0781C29.8143 50.7739 28.4465 52.1566 26.7689 52.1827C25.0655 52.2088 23.6976 50.8652 23.646 49.0912C24.3041 49.0912 24.9493 49.0912 25.6462 49.0912C25.801 49.6521 26.0978 50.1086 26.7689 50.0826C27.3754 50.0565 27.6593 49.639 27.7883 49.0781C28.4723 49.0781 29.1304 49.0781 29.7885 49.0781Z" fill="white"/>
<path d="M36.0732 49.0781C36.7442 49.0781 37.4024 49.0781 38.0605 49.0781C38.0476 50.787 36.6926 52.1568 35.0279 52.1698C33.3246 52.1829 31.9438 50.8392 31.918 49.0781C32.5761 49.0781 33.2342 49.0781 33.9053 49.0781C34.0601 49.613 34.3311 50.0696 34.9763 50.0696C35.6344 50.0826 35.9183 49.626 36.0732 49.0781Z" fill="white"/>
<path d="M27.7886 57.4141C28.4596 57.4141 29.1048 57.4141 29.7759 57.4141C29.9436 57.9751 30.2275 58.4578 30.8986 58.4317C31.5051 58.4057 31.789 57.9881 31.9309 57.4271C32.589 57.4271 33.2472 57.4271 33.9053 57.4271C33.9569 59.058 32.6148 60.4802 30.976 60.5324C29.2468 60.5715 27.8531 59.2537 27.7886 57.4141Z" fill="white"/>
<path d="M29.8273 20.9007C29.8144 22.0358 28.8853 22.9621 27.7626 22.9491C26.6141 22.9491 25.685 21.9967 25.6979 20.8224C25.7108 19.6873 26.6399 18.761 27.7626 18.7741C28.9111 18.7741 29.8402 19.7265 29.8273 20.9007Z" fill="white"/>
<path d="M22.601 26.0791C21.4783 26.0791 20.5492 25.166 20.5363 24.018C20.5234 22.8571 21.4525 21.9048 22.601 21.9048C23.7237 21.9048 24.6528 22.831 24.6657 23.9528C24.6786 25.1268 23.7495 26.0791 22.601 26.0791Z" fill="white"/>
<path d="M32.9504 22.9487C34.073 22.9618 34.9893 23.8879 34.9893 25.0228C34.9893 26.1837 34.0601 27.136 32.8988 27.1229C31.7761 27.1099 30.8599 26.1837 30.8599 25.0489C30.8599 23.8879 31.789 22.9487 32.9504 22.9487Z" fill="white"/>
<path d="M24.6657 30.2409C24.6786 31.4019 23.7366 32.3542 22.5881 32.3412C21.4654 32.3281 20.5492 31.4019 20.5363 30.267C20.5234 29.1059 21.4654 28.1536 22.6139 28.1666C23.7366 28.1797 24.6528 29.1059 24.6657 30.2409Z" fill="white"/>
<path d="M27.7497 34.4286C26.627 34.4286 25.7108 33.5023 25.6979 32.3673C25.685 31.2063 26.627 30.2539 27.7755 30.2539C28.8982 30.2539 29.8144 31.1802 29.8273 32.3152C29.8402 33.4893 28.8982 34.4416 27.7497 34.4286Z" fill="white"/>
</svg>
