<svg width="67" height="67" viewBox="0 0 67 67" fill="none" xmlns="http://www.w3.org/2000/svg">
<path d="M36.6827 24.9977C38.2499 23.4135 40.1333 22.6075 42.2503 22.3017C46.3332 21.7181 50.6361 24.15 51.7908 27.8327C52.0933 28.7916 52.0245 29.8756 52.1483 30.9039C52.1758 31.1541 52.217 31.4598 52.382 31.6127C53.1793 32.3909 53.7429 33.2803 54.1141 34.3365C54.1966 34.5588 54.4028 34.809 54.6227 34.8924C59.7779 36.8518 61.4963 42.5357 58.2795 47.0244C58.2245 47.0939 58.1833 47.1773 58.1008 47.2885C59.2555 48.7615 59.9016 50.4431 59.8879 52.3331C59.8741 54.1258 59.3518 55.7795 58.1833 57.1414C56.2449 59.3927 55.4476 62.0053 55.4888 64.9376C55.4888 65.146 55.4888 65.3545 55.4888 65.563C55.4476 66.2995 55.0627 66.7303 54.3203 66.7303C52.9044 66.7442 51.4746 66.7442 50.0587 66.7303C49.2751 66.7164 48.8627 66.2717 48.8902 65.424C48.9727 63.2977 48.574 61.2827 47.6254 59.3788C47.3917 58.9063 47.1443 58.809 46.6219 58.8646C43.7625 59.1704 41.288 58.3365 39.3359 56.1408C39.2397 56.0435 39.1572 55.9324 39.0885 55.8629C38.3874 56.113 37.7413 56.4327 37.0539 56.5716C34.4419 57.0997 32.2699 56.252 30.5652 54.2091C30.2766 53.8617 30.0841 53.8061 29.6579 53.959C26.7573 55.043 24.1316 54.5427 21.7946 52.5137C21.4509 52.208 21.1347 52.0968 20.6948 52.1524C13.1339 53.0696 6.65897 46.9132 7.12637 39.2421C7.42881 34.2809 10.7831 29.9312 15.4709 28.4025C15.8558 28.2774 16.227 27.9995 16.4882 27.6799C19.925 23.5941 24.3103 21.8848 29.548 22.3434C32.1324 22.5658 34.4832 23.483 36.6827 24.9977ZM46.5669 25.234C43.955 23.6914 39.8858 24.5252 37.92 26.9572C37.2326 27.8049 36.7789 27.8883 35.9541 27.249C34.0295 25.7343 31.8575 24.8171 29.4242 24.5808C24.8052 24.1361 20.9422 25.6231 18.0416 29.3336C17.5879 29.9173 17.1068 30.2647 16.4057 30.4592C11.4017 31.8906 8.36361 37.1437 9.54587 42.2161C10.7831 47.5247 15.7733 50.8739 20.9835 49.8455C21.8083 49.6787 22.3307 49.8733 22.9081 50.4848C24.489 52.1663 26.4136 52.6249 28.6269 51.9856C29.1355 51.8328 29.3005 51.6104 29.2043 51.0545C28.4069 46.399 32.7235 42.4106 37.2738 43.578C39.0472 44.0366 40.3807 45.0927 41.3842 46.6631C43.2813 45.6903 45.2609 45.3846 47.3368 45.7598C47.6117 45.8154 47.9691 45.7459 48.2166 45.6069C49.825 44.6758 51.5434 44.245 53.358 44.6202C54.4165 44.8426 55.4338 45.2595 56.5473 45.6208C56.5198 45.6486 56.6023 45.5652 56.6711 45.4818C58.9531 42.3133 57.2347 37.6857 53.4405 36.8796C52.6157 36.699 52.2032 36.3238 52.0933 35.4899C51.9558 34.406 51.3784 33.5444 50.4574 32.9468C49.7975 32.5299 49.605 32.0296 49.8112 31.2514C50.3061 29.4726 49.77 27.93 48.519 26.5542C47.4467 28.6804 45.8383 29.9312 43.4188 30.0423C43.4188 29.278 43.4188 28.5693 43.4188 27.8605C45.2472 27.5409 46.1957 26.7488 46.5669 25.234ZM53.248 64.4651C53.2755 64.34 53.2893 64.2705 53.303 64.201C53.413 60.9909 54.4028 58.142 56.5061 55.6961C57.2759 54.7928 57.6746 53.695 57.6884 52.5137C57.7296 50.2346 56.7673 48.4558 54.774 47.3857C52.7806 46.3157 50.801 46.4546 48.9452 47.7887C48.519 48.0945 48.1066 48.289 47.5567 48.1362C45.3984 47.5247 43.4051 47.8304 41.5767 49.2201C40.9306 49.7204 40.2295 49.4981 39.8858 48.7476C39.8033 48.5809 39.7621 48.4002 39.6796 48.2334C38.8273 46.3296 36.7927 45.2734 34.8269 45.6903C32.7648 46.135 31.3076 47.8999 31.2938 49.9706C31.2801 52.069 32.6961 53.9034 34.7031 54.362C36.1466 54.6955 37.4113 54.3342 38.5523 53.4031C39.3222 52.7778 40.0095 52.9167 40.4494 53.8061C40.9443 54.7928 41.6867 55.5155 42.6627 56.0018C44.0237 56.6828 45.4397 56.8635 46.9381 56.5716C48.354 56.2937 48.409 56.3215 49.1376 57.5444C49.2201 57.6834 49.2889 57.8223 49.3713 57.9613C50.4849 59.9764 51.0622 62.1304 51.131 64.4512C51.8458 64.4651 52.5194 64.4651 53.248 64.4651Z" fill="white"/>
<path d="M13.711 22.2459C13.711 23.6774 13.6972 25.0393 13.711 26.4013C13.711 26.985 13.5873 27.4575 13.0236 27.7076C12.4462 27.9578 12.0201 27.6798 11.6214 27.2768C10.0817 25.7203 8.55581 24.1638 7.00239 22.6212C6.78243 22.4127 6.42501 22.2598 6.12257 22.2459C2.85076 22.1903 0.513747 19.8139 0.5 16.5202C0.5 15.1027 0.5 13.699 0.5 12.2815C0.527494 9.14068 2.91949 6.69473 6.02634 6.68083C8.91324 6.66694 11.8001 6.66694 14.6733 6.68083C17.9176 6.69473 20.2821 9.11288 20.2821 12.4066C20.2821 13.7685 20.2821 15.1305 20.2821 16.5063C20.2821 19.8278 17.8901 22.2459 14.6183 22.2459C14.3571 22.2459 14.0822 22.2459 13.711 22.2459ZM11.3465 23.8997C11.4015 23.8719 11.4565 23.8302 11.4977 23.8024C11.4977 22.9408 11.4839 22.0931 11.4977 21.2314C11.5114 20.4532 11.9239 20.0362 12.6937 20.0223C13.4085 20.0085 14.1096 20.0362 14.8245 20.0085C16.6391 19.9668 18.0551 18.5631 18.0826 16.7426C18.1101 15.2138 18.1101 13.6851 18.0826 12.1564C18.0551 10.3775 16.6391 8.91832 14.8795 8.90442C11.8826 8.87662 8.872 8.87662 5.87512 8.90442C4.15673 8.91832 2.72703 10.3636 2.69954 12.1008C2.67204 13.6573 2.67204 15.1999 2.69954 16.7565C2.72703 18.2574 3.71683 19.5359 5.16027 19.8834C5.66892 20.0085 6.20505 20.0084 6.72745 19.9946C7.30482 19.9807 7.73099 20.1613 8.12965 20.5782C9.18818 21.7039 10.2742 22.8018 11.3465 23.8997Z" fill="white"/>
<path d="M53.4815 22.2458C53.0141 22.2458 52.5879 22.2458 52.1617 22.2458C49.1374 22.218 46.7317 19.786 46.7042 16.7147C46.6904 15.2138 46.6904 13.699 46.7042 12.1981C46.7317 9.12676 49.1374 6.70863 52.1892 6.68083C55.1449 6.66694 58.1005 6.66694 61.0561 6.68083C64.0392 6.69473 66.4725 9.14066 66.4999 12.1564C66.5137 13.6851 66.5137 15.2138 66.4999 16.7425C66.4725 19.7721 64.0667 22.2041 61.0698 22.2319C60.575 22.2319 60.2863 22.3987 59.9838 22.7878C58.8428 24.261 57.6743 25.7202 56.5196 27.1933C56.1759 27.6241 55.791 27.9298 55.2273 27.777C54.6775 27.638 54.4575 27.2072 54.3613 26.6513C54.1001 25.1921 53.7839 23.7467 53.4815 22.2458ZM56.0934 24.0247C56.2171 23.9274 56.2721 23.9135 56.2996 23.8857C57.1244 22.8573 57.963 21.8567 58.7466 20.8005C59.1728 20.2168 59.6814 19.9528 60.3825 20.0223C60.5887 20.0501 60.7949 20.0362 61.0011 20.0223C62.8432 19.9806 64.2592 18.563 64.2867 16.7147C64.3142 15.2277 64.3004 13.7546 64.2867 12.2676C64.2592 10.3497 62.8707 8.9183 60.9874 8.90441C58.0592 8.87661 55.1311 8.89051 52.1892 8.90441C50.3471 8.9183 48.9174 10.3497 48.9037 12.212C48.8899 13.7129 48.8899 15.2277 48.9037 16.7286C48.9312 18.5491 50.3471 19.9806 52.1343 20.0223C52.8491 20.0362 53.5502 20.0223 54.265 20.0223C54.9936 20.0362 55.3511 20.328 55.5023 21.0646C55.6947 22.0235 55.8872 22.9963 56.0934 24.0247Z" fill="white"/>
<path d="M36.7927 15.5755C36.7927 16.6734 36.7789 17.688 36.7927 18.7025C36.8064 19.2584 36.6277 19.7031 36.0916 19.9254C35.5692 20.1478 35.1705 19.9254 34.7856 19.578C33.5621 18.4384 32.3111 17.3127 31.1013 16.1453C30.6752 15.7423 30.249 15.5061 29.6579 15.5616C29.108 15.6172 28.5581 15.5339 28.0082 15.5755C27.1009 15.645 26.3448 15.2976 25.6987 14.7C24.379 13.4631 23.6366 11.9344 23.5954 10.1139C23.5541 8.58514 23.5679 7.05642 23.5954 5.5277C23.6366 2.47027 26.0424 0.0382179 29.0805 0.0104231C32.0087 -0.00347436 34.9368 -0.00347436 37.865 0.0104231C40.9856 0.0243205 43.3776 2.47027 43.3914 5.61109C43.3914 7.04252 43.3914 8.47396 43.3914 9.91929C43.3914 13.1296 40.9718 15.5616 37.7687 15.5755C37.4801 15.5755 37.1914 15.5755 36.7927 15.5755ZM34.5107 16.2982C34.5656 16.1731 34.5931 16.1453 34.5931 16.1314C34.5931 15.6172 34.5931 15.1169 34.6069 14.6027C34.6206 13.7828 35.0193 13.3659 35.8304 13.352C36.5452 13.3381 37.2464 13.3659 37.9612 13.3381C39.7621 13.2964 41.1643 11.8788 41.1918 10.0444C41.2193 8.54345 41.2193 7.02863 41.1918 5.5277C41.1643 3.67934 39.7346 2.23401 37.8925 2.23401C34.9643 2.22011 32.0224 2.22011 29.0943 2.23401C27.2659 2.24791 25.8224 3.69324 25.7949 5.5277C25.7812 7.01473 25.7812 8.48786 25.7949 9.97488C25.8087 11.1423 26.2623 12.1429 27.1009 12.935C27.3484 13.1574 27.7333 13.3103 28.0632 13.3242C28.8605 13.3798 29.6716 13.3659 30.469 13.3242C31.0876 13.2964 31.555 13.5187 31.9949 13.9495C32.806 14.7417 33.6446 15.4922 34.5107 16.2982Z" fill="white"/>
<path d="M26.042 28.7362C26.6881 28.0413 27.1555 27.541 27.6229 27.0269C29.3413 28.3054 31.0322 28.3332 32.778 27.0269C33.2592 27.541 33.7266 28.0552 34.3589 28.7223C33.3417 29.2643 32.4069 29.7507 31.3758 30.2927C30.5648 34.0449 34.9776 38.5753 40.064 38.9644C40.064 39.6593 40.064 40.368 40.064 41.1463C38.5105 41.1741 37.0259 40.8544 35.6374 40.1874C31.6645 38.2696 29.5062 35.0594 29.1351 30.6262C29.0938 30.2232 28.9426 30.1259 28.5989 29.9869C27.7604 29.6256 26.963 29.1948 26.042 28.7362Z" fill="white"/>
<path d="M17.6289 42.0218C17.8214 42.8278 18.0001 43.6061 18.1925 44.4399C17.354 44.4399 16.6529 44.4399 15.9655 44.4399C15.5531 42.2858 14.7008 41.4242 12.6387 41.1045C12.6387 40.3957 12.6387 39.7009 12.6387 38.9226C13.6422 38.9087 14.5495 39.1589 15.3606 39.7148C15.8005 40.0205 16.2267 40.0622 16.7216 39.951C18.2888 39.6036 19.4023 38.6863 20.0072 37.1854C20.3371 36.3793 20.4196 35.615 19.8835 34.7672C19.4573 34.0862 19.3336 33.1829 19.0586 32.2935C19.9384 32.2935 20.6395 32.2935 21.1619 32.2935C21.5881 33.1134 21.9043 33.8917 22.3854 34.5588C22.9078 35.2814 23.7464 35.5316 24.6675 35.6011C24.6675 36.3099 24.6675 37.0186 24.6675 37.8803C23.8839 37.6996 23.1278 37.5328 22.2892 37.3522C21.5469 39.6731 19.9934 41.2991 17.6289 42.0218Z" fill="white"/>
<path d="M49.9622 38.9638C49.9622 39.7003 49.9622 40.3951 49.9622 41.076C46.6903 41.4234 43.3498 38.1023 43.4185 34.5171C44.1059 34.5171 44.807 34.5171 45.5493 34.5171C45.838 37.1434 47.2952 38.6442 49.9622 38.9638Z" fill="white"/>
<path d="M10.4117 17.7993C8.58332 17.7993 7.09863 16.2984 7.09863 14.4361C7.09863 12.6294 8.59707 11.1284 10.3842 11.1284C12.2263 11.1284 13.6973 12.6433 13.6973 14.4917C13.6973 16.3123 12.2126 17.7993 10.4117 17.7993ZM11.4977 14.45C11.4977 13.8524 11.0028 13.3521 10.4117 13.3521C9.82057 13.3521 9.32567 13.8385 9.31192 14.4361C9.29818 15.0615 9.82057 15.5896 10.4392 15.5757C11.0166 15.5479 11.5115 15.0476 11.4977 14.45Z" fill="white"/>
<path d="M56.6023 17.7987C55.5576 17.7987 54.499 17.8543 53.4543 17.771C53.0693 17.7432 52.6019 17.4652 52.3407 17.1595C51.9971 16.7704 52.2033 16.2841 52.5057 15.895C53.5505 14.4915 54.5815 13.088 55.64 11.6845C56.1899 10.9619 57.001 10.948 57.5371 11.6567C58.6094 13.0741 59.6817 14.4776 60.6852 15.9367C60.8914 16.2424 60.9877 16.8399 60.8364 17.1178C60.6577 17.4374 60.1491 17.7293 59.7642 17.7571C58.7194 17.8543 57.6609 17.7987 56.6023 17.7987ZM57.6746 15.5476C57.2759 15.0196 56.9598 14.5888 56.5886 14.1163C56.2174 14.6166 55.9012 15.0473 55.5163 15.5476C56.2724 15.5476 56.9048 15.5476 57.6746 15.5476Z" fill="white"/>
<path d="M30.1936 7.72298C30.1936 7.02813 30.1799 6.33328 30.1936 5.63844C30.2074 4.9019 30.6198 4.4711 31.3484 4.4572C32.7918 4.4433 34.2352 4.4433 35.6649 4.4572C36.3385 4.4711 36.7646 4.9019 36.7784 5.59675C36.7921 7.05592 36.7921 8.5151 36.7784 9.96038C36.7646 10.6552 36.3385 11.0999 35.6649 11.0999C34.2215 11.1138 32.778 11.1138 31.3484 11.0999C30.6198 11.086 30.2074 10.6552 30.1936 9.91869C30.1799 9.19605 30.1936 8.45951 30.1936 7.72298ZM34.5514 8.87642C34.5514 8.11209 34.5514 7.40335 34.5514 6.7085C33.8228 6.7085 33.1492 6.7085 32.4481 6.7085C32.4481 7.44504 32.4481 8.13988 32.4481 8.87642C33.1492 8.87642 33.8365 8.87642 34.5514 8.87642Z" fill="white"/>
</svg>
