<svg width="42" height="37" viewBox="0 0 42 37" fill="none" xmlns="http://www.w3.org/2000/svg">
<path fill-rule="evenodd" clip-rule="evenodd" d="M41.916 8.00347C41.7481 7.41683 41.328 7.08161 40.9081 6.74639C40.404 6.45307 40.0681 5.99214 39.522 5.74073C39.2701 5.4055 38.598 5.19599 38.3881 4.98648C38.2621 4.90267 38.2621 4.94458 38.1361 4.86077C37.6321 4.56745 37.212 4.19033 36.6241 3.98082C35.826 3.22657 34.8601 2.63993 33.9781 1.96949C33.4741 1.71808 33.0121 1.46666 32.592 1.08954C32.0881 0.838121 31.9201 0.16768 31.2061 0.0838748C31.2061 6.95996e-05 31.2061 -0.0837356 31.0801 -0.041833C30.9121 6.95996e-05 30.8281 0.125777 30.5761 0.0838748C29.6521 0.628609 28.9801 1.46666 28.0561 2.0952C26.9641 2.80754 25.8721 3.47799 24.7801 4.23223C24.2341 4.52555 23.8141 4.98648 23.1421 5.23789C22.9741 5.53121 22.7221 5.74073 22.3861 5.86643C22.1341 5.99214 21.9241 6.49497 21.6301 6.24356C20.0761 5.57311 18.8161 4.56745 17.3881 3.7294C16.8421 3.14276 15.8761 2.97515 15.2461 2.47232C14.3641 2.22091 13.7341 1.63427 12.6001 1.59237C11.8021 1.55047 11.4661 1.96949 10.7101 1.96949C7.56005 4.06462 3.69605 5.48931 0.462055 7.45873C0.420055 7.96156 0.420055 8.5901 0.0840554 8.88342C-0.0839446 10.8528 5.53941e-05 12.9061 0.0840554 14.8755C0.336055 20.4904 -0.335945 26.9434 0.462055 32.726C0.546055 33.6898 0.294055 34.9468 0.588055 35.743C0.630055 35.9944 0.924055 35.9944 1.09206 36.1201C1.38606 35.9525 1.68006 36.4134 1.72206 36.1201C2.01606 36.4553 1.93206 37.1258 2.73006 37.0001C3.52805 37.1258 3.69606 36.6229 4.11606 36.3715C4.49405 36.0782 4.83005 35.743 5.12405 35.3659C5.92205 34.8211 6.51005 34.1088 7.26605 33.4802C7.98005 32.8517 8.65205 32.2232 9.40805 31.5946C9.78605 31.3013 10.2061 31.0499 10.5421 30.7147C11.0461 30.5471 11.2561 30.0861 11.8021 29.9604C13.5241 30.7985 14.9941 31.9298 16.6741 32.8517C17.4721 33.3545 18.3121 33.8155 18.9421 34.4859C19.4461 34.6116 19.8661 34.8211 20.2021 35.1144C20.5801 35.0725 20.5801 35.4078 20.9581 35.3659C20.9161 35.743 21.2101 35.7849 21.5881 35.743C22.5541 35.3659 23.2681 34.7373 23.9821 34.1088C24.7801 33.5641 25.5781 33.0193 26.2501 32.3489C27.2161 31.9718 27.6781 31.0918 28.6441 30.7147C28.938 30.3376 29.4841 30.2118 29.7781 29.8347C30.1981 29.6252 30.4921 29.2481 31.0381 29.0805C32.7181 30.1699 33.8941 31.8041 35.4061 33.0612C35.8261 33.3126 35.994 33.8155 36.5401 33.9412C36.876 34.3183 37.128 34.7792 37.674 34.9468C38.094 35.2402 38.0941 35.9525 38.8081 35.9525C39.2701 36.2039 39.396 36.7906 40.194 36.7067C40.698 36.4553 40.8241 36.0782 40.9501 35.4497C41.076 34.8211 40.8661 34.1088 40.9501 33.4383C41.16 32.9774 41.37 32.5165 41.454 31.9298C42.126 26.3987 41.6641 19.7362 41.958 13.8279C42.168 12.9899 42.084 11.8585 42.084 10.8109C41.916 9.80528 42.0841 8.75771 41.916 8.00347ZM2.73006 34.9887C2.64605 34.9049 2.81406 34.8211 2.85606 34.863C2.89806 34.9468 2.77206 35.0306 2.73006 34.9887ZM39.312 14.3727C39.0181 19.9876 39.354 26.3568 39.0601 32.0975C37.3801 31.3851 36.162 30.2118 34.6921 29.3319C33.0541 28.6195 32.0881 27.2787 30.324 26.692C29.274 26.9015 28.7701 27.6139 27.9301 28.0748C27.3001 28.7034 26.4601 29.0805 25.9141 29.7509C24.4021 30.7147 23.1421 31.8879 21.7981 33.0193C21.3361 32.9355 21.2521 32.3908 20.9161 32.1394C20.7061 31.7622 20.2021 31.6784 20.0341 31.2594C19.0261 30.8404 18.3961 30.0861 17.2621 29.7509C16.2961 29.29 15.4141 28.7872 14.3641 28.3681C14.0701 27.991 13.5661 27.8234 13.3561 27.3625C12.9781 27.1111 12.6841 26.8177 12.0961 26.7339C11.2561 26.6501 10.7521 26.9015 10.3321 27.2368C10.1221 27.7396 9.40805 27.7396 9.19805 28.2424C8.73605 28.4938 8.52606 28.9967 8.06406 29.2481C7.72806 29.6252 7.47606 30.0861 6.93006 30.2537C6.30006 31.0499 5.46005 31.6365 4.91405 32.5165C4.49405 32.8098 4.24205 33.2707 3.90605 33.6479C3.82206 33.9412 3.48606 33.9831 3.40206 34.2764C3.27606 34.3183 3.02406 34.9887 3.02406 34.4021C3.40206 33.8993 2.85606 33.2288 2.89806 32.6422C2.85606 24.9321 2.60406 17.3058 2.22606 9.88908C2.18406 9.47006 2.68806 9.59576 2.85606 9.38625C3.02406 9.21864 3.36006 9.21864 3.48606 9.00913C4.03205 8.84152 4.32606 8.42249 4.87206 8.25488C5.79605 7.75205 6.55205 7.08161 7.51805 6.62068C8.35806 6.03404 9.45006 5.74073 10.2901 5.11219C10.9201 5.02838 11.0881 4.48365 11.8021 4.48365C12.2221 4.23223 12.6001 3.93891 13.0621 3.7294C14.3221 4.65126 15.7921 5.44741 17.0521 6.36926C17.6821 6.8721 18.4801 7.20732 19.0681 7.75205C19.8241 8.08727 20.2441 8.75771 21.0841 9.00913C22.2601 8.88342 23.1001 8.33869 23.8561 7.75205C24.6541 7.20732 25.4941 6.70448 26.2501 6.11785C27.9301 5.15409 29.2741 3.85511 30.8701 2.84945C30.9541 2.72374 31.0801 2.63993 31.2481 2.59803C32.0041 3.22657 32.634 3.93891 33.6421 4.35794C34.4821 4.90267 35.3221 5.44741 36.2881 5.86643C36.75 6.49497 37.4221 6.914 38.0521 7.37493C38.598 7.87776 39.1441 8.38059 39.8161 8.75771C39.5641 10.5595 39.396 12.4451 39.312 14.3727ZM32.424 11.23C31.71 10.5176 31.5421 9.26054 30.6601 8.71581C29.9041 8.71581 29.7781 9.34435 29.6521 9.97289C29.736 10.8109 30.1981 11.2719 30.4081 11.9842C29.6941 12.2775 28.8961 12.487 27.8881 12.487C27.5521 12.9061 26.8381 12.948 26.8801 13.7441C27.0901 13.9955 27.1741 14.1631 27.5101 14.247C27.8461 14.3308 28.3921 14.1631 28.7701 14.247C29.5681 14.0374 30.282 13.786 31.164 13.6184C31.7521 14.1212 32.0041 14.9593 32.424 15.6297C32.8861 16.2583 33.0121 17.222 34.314 17.0125C34.482 16.803 34.6501 16.5935 34.8181 16.384C34.6081 15.0012 33.7681 14.2889 33.3061 13.1156C33.9781 13.0737 34.4401 12.7385 35.07 12.6128C35.6581 12.4451 36.204 12.2356 36.204 11.4814C35.7421 9.80528 33.6 11.1881 32.424 11.23ZM30.1561 14.1212C29.6521 14.7079 28.2661 15.0431 28.7701 16.2583C29.3581 16.5516 29.6941 15.965 30.1561 15.7554C30.5341 15.4202 31.08 15.2526 30.9121 14.3727C30.66 14.2889 30.5341 14.0793 30.1561 14.1212ZM13.8601 14.247C13.0621 14.7498 11.2981 15.3364 12.0961 16.6354C12.8941 16.6773 13.2721 16.3002 13.6081 15.8812C14.1961 15.7135 14.4481 15.2107 14.6161 14.6241C14.4061 14.4565 14.3221 14.1631 13.8601 14.247ZM17.2621 17.2639C17.2201 16.9706 16.9261 16.7192 16.7581 16.5097C16.5481 16.2583 16.3801 15.8812 16.0021 15.8812C15.5821 15.8393 15.6241 16.2583 15.3721 16.384C15.4561 17.0544 15.9181 17.3477 16.1281 17.8925C16.5481 18.2696 16.6321 18.94 17.3881 19.0238C17.4301 18.94 17.4721 18.8981 17.6401 18.8981C18.0601 18.3953 17.6821 17.5992 17.2621 17.2639ZM25.9141 18.0182C25.8301 18.4791 25.4101 18.6048 25.5361 19.2753C25.6621 19.3172 25.7461 19.401 25.7881 19.5267C26.3761 19.7781 26.8801 19.1915 27.3001 18.8981C27.7621 18.521 28.2661 18.1858 28.3081 17.3896C27.5101 16.4259 26.4601 17.5992 25.9141 18.0182ZM9.99605 17.5154C9.32405 18.102 8.27406 18.3115 8.23205 19.5267C8.73606 20.1133 9.45006 19.5267 9.87006 19.2753C10.1641 18.7724 10.7521 18.5629 10.7521 17.7668C10.5001 17.6411 10.4161 17.3896 9.99605 17.5154ZM24.5281 19.9876C24.2761 19.9038 24.0661 19.7781 23.7721 19.7362C23.7721 19.8619 23.5621 19.8619 23.3941 19.8619C22.9321 20.2809 22.3441 20.7 21.8821 20.9933C21.8401 21.0352 21.7981 21.2028 21.7561 21.2447C21.7141 21.2866 21.5461 21.2028 21.5041 21.2447C21.4621 21.2866 21.4201 21.5799 21.3781 21.6218C21.2941 21.7894 21.2101 21.8732 21.2521 22.1246C21.6721 23.0046 22.8061 22.4599 23.2681 21.9989C23.7301 21.4123 24.6961 21.3285 24.6541 20.239C24.5281 20.239 24.4861 20.1552 24.5281 19.9876ZM5.83805 21.6218C6.09005 21.7475 6.04805 22.1665 6.46805 22.1246C7.14005 21.8732 7.68605 21.538 7.72806 20.6161C6.97205 19.9876 5.83805 20.7 5.83805 21.6218ZM18.5221 20.3647H18.2701C18.1441 20.5323 18.1441 20.8257 18.1441 21.119C18.5221 21.7475 19.2361 22.8789 20.1601 22.2503C20.3281 21.4961 19.8661 21.3704 19.6561 20.9933C19.1941 20.8257 19.2361 20.239 18.5221 20.3647Z" fill="#FF719C"/>
</svg>
