<svg width="44" height="33" viewBox="0 0 44 33" fill="none" xmlns="http://www.w3.org/2000/svg">
<path d="M23.5056 22.0264C25.4131 24.8586 25.4936 26.5599 23.7255 27.6519C22.0253 28.7586 20.5649 28.0225 18.5803 25.0685C18.1181 24.3372 17.546 23.6174 17.0837 22.8862C16.0822 21.3019 14.7423 21.9601 13.6734 22.6767C13.1519 23.0554 12.8728 24.188 12.912 24.8981C13.0324 26.2923 13.847 27.7661 13.6543 29.1278C13.4851 30.249 12.3805 31.835 11.443 32.0187C10.5733 32.2169 9.26993 30.9885 8.35893 30.1956C7.97583 29.8674 8.01159 28.998 7.88822 28.3399C7.30131 25.6523 6.50602 23.3757 3.02796 23.1516C1.09023 23.0493 -0.400041 21.7104 0.251552 19.5005C0.89388 17.1833 2.69102 17.7113 4.64516 17.747C7.48755 17.7989 10.7017 17.7906 13.2388 16.6189C17.9342 14.5096 22.4221 11.7941 26.5947 8.76501C28.6389 7.27647 29.9897 4.69112 31.3683 2.42751C32.2203 0.997521 33.0837 -0.0441054 34.8038 0.362065C36.4982 0.727612 37.2101 2.03892 36.8839 3.65251C36.5484 5.15885 37.2725 5.8413 38.394 6.50424C39.8636 7.34753 41.3332 8.19082 42.6859 9.21936C44.0641 10.2885 44.4814 11.7818 43.2998 13.246C42.076 14.7361 40.5942 14.5217 39.1574 13.5451C38.307 12.9407 37.3561 12.4548 36.4893 11.917C33.4052 10.094 32.6197 10.2402 30.5696 13.201C30.2514 13.6235 30.5217 14.6992 30.8555 15.2273C31.668 16.42 32.8337 17.338 33.6883 18.5047C34.7134 19.8485 34.7004 21.4946 33.1921 22.2567C32.2146 22.7475 30.5131 22.5558 29.5107 21.9887C28.228 21.2559 27.2707 19.9268 26.3483 18.7455C25.2554 17.3871 24.1638 17.327 22.7932 18.3995C21.2963 19.55 22.5626 20.3494 23.0177 21.2545C23.104 21.4836 23.3258 21.742 23.5056 22.0264Z" fill="#FF7D5F"/>
</svg>
