<svg width="28" height="49" viewBox="0 0 28 49" fill="none" xmlns="http://www.w3.org/2000/svg">
<path d="M11.8921 23.7434C11.7507 23.4529 11.3971 23.4529 11.3264 23.7434C10.407 25.9944 9.77049 27.7371 8.85112 29.3346C8.63896 29.7703 8.00247 29.9881 7.4367 30.2059C7.08309 30.3512 6.58805 30.1333 6.4466 29.7703C6.23444 29.1894 6.02228 28.6085 6.16372 28.0276C6.51733 26.5027 7.01237 24.9778 7.79031 23.6708C10.6899 18.8057 9.62905 14.1585 7.15382 9.00299C7.01237 8.78515 6.72949 8.71253 6.58805 9.00299C6.16372 9.72911 5.7394 10.2374 5.52723 10.8909C4.60786 12.9967 3.75921 15.1025 2.69839 17.1356C2.48623 17.5713 1.92046 17.7165 1.42541 17.9344C1.07181 18.0796 0.718202 17.9344 0.506039 17.5713C0.223154 16.9904 -0.0597297 16.4821 0.0109913 16.0464C1.49613 11.3266 3.052 6.67937 4.67858 2.03215C5.38579 0.0715991 6.80021 -0.436693 8.63896 0.362048C12.5286 2.10476 16.4183 3.77485 20.2372 5.59017C20.7323 5.80801 21.0151 6.53415 21.298 7.18766C21.4395 7.55073 21.298 7.91379 21.0151 8.05902C20.5201 8.34947 19.9543 8.63992 19.53 8.5673C17.6205 8.05901 15.7818 7.26027 13.8723 6.53414C12.5286 6.02585 11.2556 5.29972 9.91194 4.71882C9.62905 4.57359 9.34617 4.86405 9.48761 5.1545C10.8313 8.85776 12.0336 12.6336 13.5187 16.2643C13.8016 16.9178 15.0039 17.3535 15.8525 17.5713C17.5498 17.9344 19.3886 17.9344 21.0859 18.4427C21.7223 18.5879 22.2174 19.1688 22.7832 19.6771C23.1368 19.9675 23.066 20.5484 22.6417 20.7663C22.076 21.1293 21.5102 21.4924 20.8737 21.4924C19.3178 21.565 17.762 21.3472 16.2061 21.2019C15.9232 21.2019 15.7111 21.4198 15.6403 21.7102C15.3575 27.4467 17.762 31.6582 22.4296 33.9818C23.9854 34.7805 25.6827 35.4341 27.1679 36.378C27.5922 36.5959 27.7336 37.1768 27.9458 37.7577C28.0872 38.1207 27.9458 38.4838 27.5922 38.629C27.0264 38.9195 26.4607 39.2099 26.0363 39.0647C24.1976 38.4838 22.4296 37.6851 19.8129 36.6685C19.6007 36.5959 19.3178 36.8137 19.3886 37.0315C20.4494 40.3717 21.3687 42.9858 21.9345 45.6725C22.076 46.3986 21.7931 47.1247 21.5809 47.9235C21.4395 48.4318 20.803 48.577 20.4494 48.2865C19.8836 47.8509 19.3178 47.3426 19.1057 46.7617C18.1156 44.2928 17.3376 41.7514 16.2768 38.5564C16.2061 38.266 15.8525 38.266 15.7111 38.4838C14.5088 40.6622 13.7309 42.2597 12.7408 43.5667C12.4579 44.0024 11.68 44.075 10.9728 44.2202C10.6191 44.2928 10.3363 44.075 10.2655 43.7845C10.1241 43.2036 9.98266 42.6227 10.1241 42.1144C10.6191 40.6622 11.2556 39.1373 12.175 37.9029C15.7818 33.3283 14.0138 28.8989 11.8921 23.7434Z" fill="#FF7D5F"/>
</svg>
