<svg width="1440" height="317" viewBox="0 0 1440 317" fill="none" xmlns="http://www.w3.org/2000/svg">
<path d="M-7 245.708C24.5 250.374 184.714 310.062 273.5 204.501C427 21.9996 378.5 -5.20724 668 184C816.402 280.99 720.5 -36.0006 1013.5 213.999C1134.84 317.535 1129.5 57.5004 1279 37.4999C1313.83 36.6665 1396.1 50.5999 1446.5 113" stroke="#2A3B5E" stroke-opacity="0.5" stroke-linecap="round" stroke-dasharray="3 9"/>
<path d="M-26.5 133.496C5 138.163 240.676 413.004 273.5 279.031C372 -123.003 493 12.498 631 222.998C728.2 371.263 699 -89.502 992 160.498C1113.34 264.034 1088 105.999 1237.5 85.998C1272.33 85.1647 1389.5 76.5 1442.5 0.499512" stroke="#2A3B5E" stroke-opacity="0.5" stroke-linecap="round" stroke-dasharray="3 9"/>
</svg>
