<svg width="34" height="34" viewBox="0 0 34 34" fill="none" xmlns="http://www.w3.org/2000/svg">
<path fill-rule="evenodd" clip-rule="evenodd" d="M23.0719 0.0898203C21.9299 0.370287 21.5305 1.18734 21.9355 2.41468C22.0439 2.74317 22.0712 2.88539 22.0332 2.92295C21.9986 2.95707 21.6688 2.97218 21.079 2.96671L20.1776 2.95833L20.7282 3.50973L21.2789 4.06118L21.6448 4.03552C22.224 3.99491 22.4891 3.90056 22.7594 3.63869C23.1292 3.28048 23.1921 2.88877 22.9748 2.29739C22.6225 1.33846 22.7514 1.14997 23.78 1.11981L24.3375 1.10345L24.1063 1.28401C23.8732 1.46616 23.7743 1.65756 23.866 1.74909C23.9468 1.82979 24.0763 1.75907 24.4102 1.45198C24.7334 1.15466 24.7995 1.11502 24.796 1.22035C24.7948 1.25365 24.6593 1.37888 24.4948 1.49869C24.158 1.74396 23.9295 2.03997 23.927 2.23403C23.9237 2.50719 24.1318 2.46425 24.396 2.13731C24.4972 2.01218 24.7084 1.79009 24.8655 1.64376L25.1512 1.37767L25.1257 1.60959C25.0958 1.88284 25.0553 1.93309 24.4829 2.40703C23.9927 2.81292 23.8178 3.05771 23.9346 3.17442C24.0449 3.28454 24.2443 3.18333 24.592 2.84075C24.871 2.56581 24.8949 2.55201 24.8949 2.66572C24.8949 2.75551 24.8387 2.82972 24.6889 2.93747C24.3964 3.14789 24.0717 3.48722 24.0393 3.61656C24.0062 3.74828 24.0953 3.8706 24.2245 3.8706C24.2775 3.8706 24.4621 3.71865 24.651 3.51975C24.8341 3.32675 24.9994 3.1842 25.0181 3.20293C25.0368 3.22166 24.8423 3.44056 24.5858 3.68932C24.2005 4.06297 24.1193 4.16694 24.1193 4.28689C24.1193 4.57525 24.355 4.64123 24.5051 4.39489C24.5564 4.31047 24.7443 4.09322 24.9225 3.91208L25.2466 3.58277L25.346 3.70892L25.4454 3.83507L25.3035 3.9375C24.7443 4.34101 24.4539 4.84759 24.6762 5.03182C24.8011 5.13531 24.9689 5.0507 25.0662 4.83529C25.15 4.64965 25.4099 4.34372 25.6544 4.14284C25.7405 4.07211 25.7786 4.06674 25.8656 4.11326L25.9717 4.16999L25.8293 4.32281C25.4714 4.70682 25.4089 4.86094 25.5528 5.00471C25.6863 5.13797 25.7998 5.09175 25.9899 4.82662C26.3257 4.35815 26.3949 4.30151 26.5889 4.33646C26.6837 4.35355 26.7706 4.37572 26.782 4.38579C26.7934 4.39586 26.7415 4.46779 26.6668 4.54563C26.5103 4.70885 26.5224 4.89512 26.6956 4.98772C26.7881 5.03714 26.8319 5.00776 27.1264 4.69869C27.3679 4.44528 27.4873 4.35466 27.5797 4.35466H27.7051L27.6091 4.51198C27.4865 4.71268 27.4872 4.82174 27.6114 4.8881C27.7629 4.96908 27.8736 4.90722 28.0904 4.62046C28.1997 4.47587 28.3272 4.33729 28.3736 4.3125C28.5026 4.24352 28.9378 4.18737 28.9026 4.2442C28.8864 4.27048 28.9017 4.33109 28.9367 4.37887C29.0281 4.50375 29.2176 4.44199 29.4779 4.20238L29.6924 4.00502L29.6811 4.19192C29.6705 4.36676 29.6793 4.37993 29.8152 4.39523C29.8952 4.40423 29.9435 4.39436 29.9226 4.3733C29.9016 4.35224 30.2494 3.97007 30.6955 3.52406C31.4896 2.73 31.5047 2.71112 31.4193 2.61692C31.2757 2.45839 31.0943 2.45128 30.5822 2.58415C30.0521 2.72167 28.7964 3.0124 28.3852 3.09281C27.9233 3.18308 26.9961 3.23895 26.7157 3.19339C26.4679 3.15312 26.2247 3.04014 26.1439 2.92779C26.0781 2.83625 26.1061 2.4779 26.2032 2.16858C26.4504 1.38111 26.1997 0.609027 25.5893 0.277686C25.4607 0.207884 25.2069 0.116396 25.0253 0.0744274C24.5686 -0.0311469 23.5312 -0.0229666 23.0719 0.0898203ZM6.61964 1.32776C5.78077 1.45101 4.45001 1.80491 3.49296 2.15929C3.09061 2.30828 2.74236 2.62883 2.74178 2.85063C2.74168 2.88872 3.08484 3.26992 3.5044 3.69774L4.26721 4.47568L3.52864 3.75021L2.79006 3.0247V3.25255C2.79006 3.39351 2.87223 3.72553 3.00559 4.12323C3.29353 4.98206 3.5172 6.43013 3.5172 7.43539C3.5172 7.63782 3.51133 7.6463 3.37056 7.6463C3.2899 7.6463 3.06633 7.56681 2.87368 7.46971C2.26929 7.16494 1.89409 7.1025 1.45306 7.23329C0.8252 7.41951 0.421689 8.02043 0.119347 9.2195C-0.0414468 9.85721 -0.039605 10.5631 0.123903 10.9827C0.343837 11.5471 0.868246 11.9601 1.53929 12.0974C1.90606 12.1724 2.21892 12.1118 2.78948 11.8553C3.16245 11.6876 3.25684 11.6624 3.35073 11.7051C3.51506 11.7799 3.61415 12.163 3.61415 12.7236V13.1848L3.84441 12.969L4.07467 12.7532L3.84441 12.9969C3.66107 13.1909 3.6141 13.2747 3.614 13.4083C3.61357 13.8889 3.32582 15.1278 2.92948 16.3555C2.7698 16.8502 2.57653 17.5055 2.50003 17.8116C2.34544 18.4305 2.16919 19.5593 2.15377 20.0298L2.14369 20.3359L3.0845 21.2763L4.02527 22.2166H4.25791C4.58318 22.2166 4.84669 22.362 4.98295 22.6166C5.08558 22.8084 5.09266 22.8796 5.09266 23.7172C5.09266 25.0852 4.9831 25.2975 4.29756 25.2578C4.0483 25.2434 3.89511 25.1984 3.60348 25.054C2.84305 24.6777 2.3103 24.8529 2.00112 25.5809C1.57279 26.5895 1.80237 29.053 2.46877 30.5982C2.51191 30.6983 2.61996 30.8212 2.71779 30.8816C3.00825 31.0609 3.17559 30.9955 3.68686 30.503L4.12314 30.0826L3.7111 30.5108L3.29906 30.9391L3.54144 30.9103C3.67474 30.8946 3.99105 30.8268 4.24433 30.7598C5.60533 30.3998 5.98485 30.3337 6.71659 30.3291C7.28957 30.3255 7.46205 30.3411 7.64974 30.4134C7.77641 30.4622 7.88 30.5287 7.88 30.5612C7.88 30.5937 7.79091 30.8042 7.68198 31.0291C7.5731 31.254 7.45066 31.5678 7.40994 31.7267C7.1773 32.6335 7.75688 33.5149 8.81747 33.8672C9.17624 33.9864 9.28076 33.9988 9.94022 34C10.7581 34.0014 11.0493 33.9416 11.6324 33.6525C12.4417 33.2511 12.9009 32.4227 12.802 31.5424C12.7559 31.132 12.7048 31.0249 12.2654 30.4164C12.1942 30.3179 12.2008 30.3117 12.4665 30.2282C12.6996 30.155 12.8558 30.146 13.4979 30.1687C14.618 30.2083 14.9226 30.28 16.9207 30.9748C17.3206 31.1139 18.1387 31.3462 18.7385 31.4911C19.3384 31.636 19.9165 31.7756 20.0231 31.8014C20.6957 31.9642 21.0528 32.0051 21.6169 31.9839C22.1187 31.9651 22.2456 31.9432 22.4858 31.8346C23.0871 31.5626 23.2551 31.3029 23.0822 30.9129C23.045 30.829 22.9164 30.5425 22.7964 30.2763C22.5271 29.6784 22.5027 29.5748 22.5719 29.3185C22.6948 28.8623 23.4145 28.4969 24.1859 28.4992C24.6611 28.5005 24.9621 28.6377 25.4202 29.0617C25.8385 29.4489 25.8156 29.766 25.3063 30.6393C25.1533 30.9016 25.2467 31.1848 25.5989 31.5263C25.9634 31.8799 26.4746 31.9897 27.9386 32.029C29.4607 32.0699 30.1323 31.9713 30.8801 31.5971C31.0409 31.5166 31.1823 31.4417 31.1943 31.4308C31.2409 31.3878 30.3043 30.4986 30.2543 30.5384C30.2261 30.5608 30.1507 30.5951 30.0867 30.6148L29.9703 30.6504L30.072 30.5079L30.1737 30.3653L30.0672 30.25C29.9722 30.1472 29.9716 30.1436 30.0614 30.2176C30.1939 30.3266 30.2199 30.3229 30.3332 30.179C30.3859 30.1122 30.449 30.0699 30.4735 30.085C30.5518 30.1333 30.5216 30.2579 30.4091 30.3508L30.3 30.4408L30.7875 30.9298L31.2751 31.4189L31.5272 31.2882C31.9963 31.0452 32.1066 30.6149 31.7851 30.2825C31.688 30.1822 31.5984 30.0002 31.5195 29.7438C31.1932 28.6823 31.1373 28.4797 31.0231 27.9467C30.8713 27.2381 30.8113 26.1818 30.9065 25.8938C30.9411 25.789 31.0056 25.6705 31.0499 25.6306C31.1219 25.5655 31.1528 25.5702 31.3453 25.6751C32.2273 26.1561 32.5349 26.2473 32.923 26.1427C33.3611 26.0247 33.79 25.4649 33.9116 24.8525C33.9983 24.4157 34.0318 22.9231 33.9636 22.5323C33.8599 21.9376 33.516 21.4569 33.0104 21.2001C32.8054 21.096 32.708 21.0792 32.3117 21.0798C31.8872 21.0805 31.8172 21.095 31.4171 21.2652C31.0376 21.4266 30.9762 21.4406 30.9289 21.3759C30.8833 21.3137 30.8058 21.3709 30.4425 21.7355C30.076 22.1031 30.0184 22.182 30.0638 22.2534C30.1085 22.3236 30.0741 22.3843 29.8575 22.6184C29.5439 22.9573 29.4885 23.1159 29.6406 23.2389C29.7814 23.3528 29.8462 23.3206 30.0231 23.0489C30.1986 22.7793 30.4549 22.5245 30.5026 22.5722C30.5212 22.5908 30.4905 22.6382 30.4344 22.6775C30.2895 22.7789 30.1303 23.0528 30.1303 23.2009C30.1303 23.3373 30.2699 23.4445 30.3884 23.3991C30.4276 23.3841 30.6046 23.199 30.7817 22.9877C31.0559 22.6606 31.3209 22.4586 31.476 22.4586C31.4897 22.4586 31.3999 22.5664 31.2766 22.6982C30.9132 23.086 30.8041 23.4268 31.0433 23.4268C31.1776 23.4268 31.3722 23.2571 31.6063 22.9356C31.7198 22.7799 31.9262 22.5327 32.0649 22.3861C32.3356 22.1004 32.4796 22.0542 32.6193 22.2083C32.6953 22.2922 32.6751 22.3216 32.2369 22.7642C31.8546 23.1503 31.6331 23.4544 31.6331 23.5929C31.6331 23.6062 31.6784 23.6412 31.7337 23.6708C31.8779 23.7478 32.0644 23.6048 32.5021 23.081C32.8911 22.6157 32.9399 22.6059 32.9412 22.9922C32.9419 23.203 32.9266 23.2263 32.5281 23.6215C32.1723 23.9742 32.1162 24.0519 32.1281 24.1752C32.1382 24.2788 32.1729 24.3257 32.2535 24.3446C32.3615 24.3699 32.3591 24.3764 32.1769 24.554L31.9888 24.7373L31.7504 24.6341C31.0739 24.3411 30.4107 24.5393 30.0582 25.1397C29.9939 25.2492 29.6603 25.614 29.3169 25.9503C28.9734 26.2867 28.656 26.6385 28.6115 26.7321C28.526 26.9123 28.5019 27.2025 28.5726 27.2025C28.6357 27.2025 28.8784 27.0036 29.0154 26.8397C29.223 26.5911 29.7131 26.0657 29.753 26.0488C29.7739 26.0399 29.791 26.0916 29.791 26.1637C29.791 26.2601 29.6837 26.4132 29.3853 26.7425C28.9842 27.1851 28.7774 27.5505 28.8383 27.7089C28.9093 27.8936 29.1775 27.7069 29.5531 27.2114C29.7246 26.9852 29.791 26.9255 29.791 26.9977C29.791 27.0527 29.8028 27.1285 29.8173 27.1662C29.8334 27.2081 29.6586 27.4332 29.3674 27.7455C29.1054 28.0265 28.8502 28.3323 28.8002 28.425C28.6401 28.7219 28.798 28.8412 29.1266 28.6715L29.2816 28.5915L29.1066 28.8047C28.7252 29.2695 28.6156 29.6096 28.8132 29.7151C28.9554 29.7911 29.1639 29.6259 29.3633 29.2792C29.6558 28.7707 29.9514 28.3158 29.9893 28.3158C30.0089 28.3158 30.0391 28.4003 30.0566 28.5035C30.0875 28.6863 30.0743 28.7086 29.5495 29.3577C29.2531 29.7242 28.979 30.0852 28.9403 30.1599C28.8513 30.3317 28.8498 30.5623 28.9372 30.6348C29.048 30.7266 29.2133 30.6119 29.4422 30.2844C29.557 30.1202 29.7783 29.8057 29.934 29.5856L30.2172 29.1854L30.2707 29.3387C30.3412 29.5408 30.3385 29.6709 30.2636 29.6722C30.2027 29.6732 29.5117 30.5164 29.4346 30.6838C29.4063 30.7453 29.3193 30.7832 29.157 30.8047C28.8161 30.8498 26.7202 30.834 26.6419 30.7857C26.5876 30.7522 26.5937 30.7033 26.6763 30.5106C26.8194 30.1766 26.9001 29.7112 26.8683 29.4032C26.7995 28.7376 26.2385 28.0629 25.4282 27.6713C24.6983 27.3185 24.3163 27.2737 23.4892 27.4435C22.5775 27.6308 21.8834 28.1043 21.5841 28.7431C21.4555 29.0175 21.4376 29.1094 21.4335 29.5171L21.4289 29.9797L21.1139 30.1889C20.9406 30.3039 20.7609 30.4435 20.7145 30.4991C20.6415 30.5867 20.5981 30.5958 20.3873 30.5668C20.2537 30.5485 20.1327 30.5145 20.1184 30.4913C20.1041 30.4682 20.3059 30.309 20.5669 30.1377C21.0964 29.7902 21.2269 29.6689 21.203 29.5469C21.171 29.3847 21.0327 29.3495 20.8853 29.4661C20.8111 29.525 20.5679 29.6769 20.345 29.8037C20.122 29.9305 19.8535 30.1078 19.7483 30.1978C19.5783 30.343 19.5397 30.3563 19.4024 30.317L19.2479 30.2727L19.8231 29.9115C20.1395 29.7128 20.4096 29.5213 20.4234 29.4859C20.4372 29.4506 20.4158 29.389 20.3758 29.3491C20.3112 29.2846 20.233 29.3116 19.6745 29.5911C19.3287 29.7642 18.9783 29.9624 18.8959 30.0317C18.7682 30.1389 18.7167 30.1529 18.5484 30.126C18.4397 30.1087 18.3507 30.0768 18.3507 30.0552C18.3507 30.0337 18.4834 29.933 18.6454 29.8315C19.3079 29.4167 19.8293 29.0149 19.8448 28.9074C19.8695 28.7355 19.7319 28.7283 19.4789 28.8881C19.3517 28.9685 19.073 29.1374 18.8597 29.2635C18.6464 29.3896 18.3971 29.5478 18.3057 29.6152C18.1605 29.7223 18.1441 29.7259 18.1758 29.6439C18.1958 29.5924 18.2244 29.4893 18.2394 29.415C18.2555 29.3353 18.3486 29.2146 18.4663 29.1209C18.6545 28.9708 19.4061 28.4923 19.6504 28.3668C19.7961 28.2919 19.7833 28.0569 19.6323 28.0353C19.5408 28.0222 18.9008 28.347 18.581 28.5688C18.4852 28.6352 18.4477 28.6433 18.4477 28.5974C18.4478 28.5326 18.567 28.4374 19.456 27.7922C19.9684 27.4202 20.041 27.3084 19.848 27.1876C19.7866 27.1492 19.6494 27.2187 19.2122 27.5094C18.9055 27.7133 18.6446 27.8802 18.6323 27.8802C18.62 27.8802 18.6192 27.8173 18.6304 27.7406C18.644 27.6484 18.6941 27.5813 18.7782 27.5431C18.8481 27.5113 19.1841 27.3012 19.5249 27.0762C20.0443 26.7332 20.1443 26.6476 20.1443 26.5461C20.1443 26.3947 20.0185 26.3413 19.8755 26.432C19.4116 26.7262 18.7519 27.1048 18.7022 27.1052C18.6689 27.1055 18.6421 27.0675 18.6427 27.0209C18.6435 26.9659 18.7802 26.8599 19.0329 26.7184C19.758 26.3125 20.0218 26.1191 20.0381 25.9817C20.0618 25.7815 19.8927 25.7597 19.671 25.9343C19.4364 26.119 18.6997 26.488 18.6395 26.4509C18.614 26.4351 18.5931 26.3416 18.5931 26.2431C18.5931 26.0714 18.611 26.052 19.0173 25.7833C19.6512 25.364 19.8232 25.2061 19.7831 25.08C19.736 24.9317 19.6422 24.9497 19.3545 25.1622C19.2157 25.2648 18.9774 25.4184 18.825 25.5037L18.5478 25.6587L18.5168 25.5352C18.4665 25.3351 18.5194 25.278 18.955 25.0623C19.2422 24.9201 19.3687 24.8311 19.3687 24.7714C19.3687 24.7203 19.3327 24.6853 19.2801 24.6853C19.1744 24.6853 18.6287 24.9019 18.466 25.0083C18.3582 25.0789 18.345 25.0764 18.2556 24.9692C18.1706 24.8671 18.1685 24.8495 18.2364 24.8064C18.2782 24.7797 18.4519 24.6538 18.6224 24.5265C18.9913 24.2509 19.1184 24.0826 19.0451 23.9665C18.9556 23.8244 18.8386 23.8507 18.5978 24.0668C18.3075 24.3275 17.7898 24.6129 17.7434 24.5379C17.7255 24.5089 17.7185 24.4793 17.7278 24.472C18.0181 24.2449 18.4342 23.9428 18.4817 23.9246C18.5772 23.888 18.5592 23.7172 18.4598 23.7175C18.4132 23.7178 18.2005 23.8189 17.9872 23.9423C17.7739 24.0658 17.5024 24.2223 17.3839 24.2902C17.2655 24.3581 16.9928 24.4723 16.778 24.544L16.3875 24.6743L16.7268 24.3629C16.9134 24.1916 17.2025 23.9608 17.3691 23.8499C17.6761 23.6456 17.7377 23.5457 17.5914 23.4896C17.468 23.4424 17.0581 23.6799 16.4456 24.1536C15.843 24.6196 15.6254 24.8432 15.6676 24.9529C15.6842 24.9962 15.6664 25.0242 15.6222 25.0242C15.4379 25.0242 15.5241 24.8748 15.8954 24.5512C16.5872 23.948 16.8625 23.6455 16.8256 23.5292C16.7727 23.3628 16.603 23.4104 16.3148 23.6726C15.9282 24.0242 15.3935 24.4597 15.3749 24.4378C15.3661 24.4275 15.3454 24.3629 15.329 24.2944C15.2948 24.1518 15.3514 24.0909 16.0239 23.5461C16.4709 23.184 16.6377 23.004 16.6156 22.9077C16.6051 22.8622 16.6892 22.8459 16.934 22.8459C17.3842 22.8459 17.7479 22.7315 17.955 22.5246C18.0468 22.433 18.1622 22.3365 18.2116 22.3101C18.3314 22.246 18.428 22.0466 18.4677 21.781C18.4992 21.5708 18.5152 21.5534 18.9241 21.2869C19.4447 20.9475 19.5833 20.809 19.5397 20.6717C19.4962 20.5347 19.3447 20.544 19.1848 20.6935C19.0591 20.811 18.6786 21.0549 18.6208 21.0549C18.6056 21.0549 18.5931 21.013 18.5931 20.9618C18.5931 20.8626 18.9524 20.5242 19.3311 20.2667C19.4827 20.1635 19.5605 20.0759 19.5614 20.0072C19.564 19.7865 19.4343 19.8238 18.7507 20.2406L18.5931 20.3367V20.2176C18.5931 20.1253 18.6779 20.0354 18.9688 19.8188C19.1755 19.6651 19.3537 19.5316 19.3649 19.5224C19.3761 19.5131 19.336 19.4531 19.2758 19.3891L19.1663 19.2728L18.8959 19.4619C18.7472 19.566 18.6073 19.6511 18.5851 19.6511C18.5628 19.6511 18.5446 19.5983 18.5446 19.5337C18.5446 19.4422 18.654 19.3317 19.0415 19.0317C19.6958 18.525 19.7811 18.4319 19.7105 18.3002C19.6309 18.1518 19.5541 18.1726 19.204 18.4372C19.0306 18.5683 18.8495 18.6975 18.8015 18.7243C18.7209 18.7694 18.7254 18.7854 18.8597 18.9337L19.0052 19.0944L18.846 18.9507C18.7128 18.8304 18.6721 18.8161 18.5967 18.8631C18.4836 18.9336 18.4477 18.8986 18.4477 18.7177C18.4477 18.606 18.3664 18.4895 18.0733 18.1812L17.6988 17.7874L18.0623 18.1384C18.2622 18.3314 18.4438 18.4893 18.4658 18.4893C18.4879 18.4893 18.6619 18.3508 18.8525 18.1815C19.0431 18.0122 19.2482 17.848 19.3081 17.8168C19.4214 17.7576 19.4551 17.5987 19.366 17.5437C19.2721 17.4858 19.093 17.5661 18.7202 17.8332C18.517 17.9787 18.3507 18.0704 18.3507 18.0369C18.3507 18.0034 18.4871 17.8802 18.6537 17.7632C19.0935 17.4544 19.4759 17.0815 19.4508 16.9857C19.433 16.9175 19.5822 16.8755 20.4586 16.7018C21.6007 16.4755 21.8561 16.4643 21.8809 16.6395C21.8896 16.7004 21.8354 16.8528 21.7606 16.9784C21.4439 17.5094 21.3262 17.9469 21.3748 18.4115C21.4525 19.154 21.9728 19.6911 22.8306 19.9142C23.3341 20.0451 24.4061 20.1129 24.9326 20.047C26.2339 19.8842 27.0773 18.9333 26.8808 17.8506C26.8212 17.5226 26.6994 17.2506 26.4948 16.9887C26.422 16.8955 26.3247 16.7456 26.2785 16.6555C26.1979 16.4982 26.1983 16.4867 26.2886 16.3651C26.4217 16.1859 26.7 16.1028 27.0502 16.1377C27.3286 16.1654 28.6018 16.4109 28.9822 16.5102L29.1672 16.5585L28.8697 16.8312C28.432 17.2323 28.3169 17.5212 28.5949 17.5212C28.6992 17.5212 28.8846 17.3549 29.4894 16.7192C29.5235 16.6833 29.5869 16.6675 29.6301 16.6842C29.7177 16.7177 29.7583 16.6769 28.8533 17.466C28.3099 17.9399 28.1755 18.1188 28.2005 18.3352C28.2336 18.6209 28.3766 18.5304 29.2551 17.6676C29.7177 17.2133 30.1059 16.8513 30.1177 16.8632C30.1296 16.8751 30.1045 17.0042 30.062 17.1502C29.9879 17.4046 29.9566 17.439 29.3054 17.98C28.855 18.3543 28.5937 18.6079 28.5299 18.7328C28.4221 18.9437 28.4091 19.0493 28.4849 19.0961C28.6098 19.1732 28.8297 19.0286 29.3172 18.549C29.6045 18.2663 29.8395 18.0639 29.8395 18.0993C29.8395 18.1346 29.8136 18.2496 29.782 18.3548C29.7374 18.5036 29.6211 18.6379 29.2609 18.9568C29.0059 19.1826 28.7373 19.446 28.6639 19.5421C28.5011 19.7554 28.4857 19.9415 28.6308 19.9415C28.8025 19.9415 28.9312 19.8489 29.2922 19.4656L29.6417 19.0944L29.6402 19.288C29.6381 19.5691 29.6061 19.6188 29.2578 19.8842C28.7003 20.3089 28.3606 20.7372 28.3944 20.9729C28.4295 21.2181 28.7367 21.063 29.0296 20.6522C29.109 20.5409 29.2637 20.3645 29.3734 20.2603L29.5728 20.0709L29.5879 20.3037L29.603 20.5366L29.1232 21.0015C28.6453 21.4645 28.4621 21.7365 28.4911 21.9401C28.5266 22.1892 28.7821 22.0631 29.1086 21.6353C29.3256 21.3512 29.5576 21.1033 29.6066 21.1033C29.628 21.1033 29.6452 21.1631 29.6447 21.2364C29.6441 21.3388 29.5382 21.477 29.1868 21.8346C28.732 22.2975 28.6153 22.4967 28.7105 22.6477C28.7894 22.7728 28.9189 22.7668 29.0604 22.6314L29.1928 22.5047L29.1705 22.6564C29.1563 22.7533 29.1724 22.8235 29.2151 22.8505C29.3596 22.9419 29.4517 22.8907 29.5935 22.6402C29.6727 22.5004 29.9897 22.1355 30.2982 21.8294L30.859 21.2727L30.879 20.2804C30.8965 19.4181 30.9178 19.1992 31.0413 18.6103C31.2515 17.6087 31.5519 16.5033 31.9032 15.4397C32.3164 14.1882 32.3602 13.9382 32.3599 12.8336C32.3596 11.7808 32.3185 11.472 32.1233 11.0555C31.9949 10.7814 31.9601 10.7445 31.7794 10.6904C31.5246 10.6142 31.3999 10.6551 30.6995 11.0445C29.9025 11.4876 29.7147 11.4766 29.3758 10.9671C29.0652 10.4998 28.9562 10.0907 28.9298 9.29211C28.9108 8.72169 28.9209 8.5559 28.9834 8.40695C29.1395 8.03514 29.6516 7.9695 30.3969 8.22582C31.4533 8.58906 32.0912 8.3008 32.329 7.35276C32.4281 6.95757 32.4293 6.6393 32.3343 5.94162C32.2151 5.06643 31.811 3.37337 31.6849 3.22084C31.6611 3.19218 31.6264 3.0868 31.6077 2.98665C31.5889 2.8865 31.5582 2.79511 31.5394 2.78349C31.5206 2.77187 31.2667 3.00335 30.9753 3.29795C30.5489 3.72901 30.4714 3.82757 30.5787 3.80278C30.6521 3.78579 30.712 3.78056 30.712 3.79112C30.712 3.82737 30.0091 4.32707 29.9728 4.31666C29.9528 4.31095 29.9413 4.32262 29.9472 4.34256C29.9531 4.36255 29.9222 4.43332 29.8784 4.49988C29.8034 4.61407 29.7727 4.73765 29.7854 4.87503C29.7929 4.95592 29.9591 4.95171 30.1206 4.86656C30.1926 4.82861 30.3916 4.65541 30.5629 4.48163C30.7341 4.30785 30.8923 4.17682 30.9143 4.19042C31.0168 4.25364 30.9365 4.39833 30.7221 4.53711C30.5942 4.61983 30.3434 4.82517 30.1646 4.99348C29.8978 5.24461 29.8395 5.32676 29.8395 5.45121C29.8395 5.60127 29.9052 5.66163 30.0687 5.66163C30.1104 5.66163 30.3322 5.47212 30.5616 5.24055L30.9785 4.81941L31.008 4.96221C31.0402 5.11847 31.0314 5.12897 30.4155 5.66638C30.2448 5.81542 30.0622 6.01684 30.0098 6.11399L29.9146 6.29058L30.0165 6.39242C30.1545 6.53024 30.2443 6.47762 30.7138 5.98354L31.0857 5.59217L31.1093 5.75245C31.132 5.90676 31.1144 5.9269 30.638 6.29421C30.0848 6.72062 29.9657 6.86468 29.996 7.07089C30.0141 7.19374 30.0015 7.21088 29.8917 7.21248C29.0209 7.22521 28.2597 7.76571 27.9512 8.59022C27.7891 9.0238 27.7822 9.0721 27.7895 9.72777C27.7975 10.4351 27.904 10.9191 28.1685 11.4501C28.4957 12.1067 29.0725 12.5887 29.6207 12.6638C29.7458 12.6809 29.8593 12.7243 29.8732 12.7603C29.9077 12.8503 30.0368 12.8423 30.1801 12.7413C30.2914 12.6629 30.809 12.4333 30.809 12.4623C30.809 12.4695 30.6781 12.5586 30.5181 12.6603C30.3582 12.7621 30.2273 12.8586 30.2273 12.8749C30.2273 12.8912 30.2914 12.9659 30.3698 13.0408L30.5124 13.1772L30.8336 12.9483C31.0103 12.8224 31.1674 12.7319 31.1827 12.7472C31.227 12.7914 31.1056 12.9119 30.8508 13.0768C30.7212 13.1607 30.6151 13.2408 30.6151 13.2549C30.6151 13.2688 30.6729 13.3406 30.7435 13.4143L30.872 13.5481L31.0177 13.4445L31.1634 13.3409L31.1339 13.5553L31.1043 13.7697L31.599 14.2779L32.0936 14.7862L31.6233 14.3296C31.0168 13.7409 30.9198 13.7197 30.4317 14.0694C30.253 14.1974 30.0155 14.3606 29.9039 14.432C29.5594 14.6525 29.519 14.9072 29.8287 14.9072C29.9446 14.9072 29.9469 14.9122 29.8712 14.9958C29.7221 15.1604 29.7986 15.3913 30.0023 15.3913C30.0546 15.3913 30.2154 15.3022 30.3599 15.1933C30.5043 15.0844 30.6349 15.0076 30.6499 15.0227C30.6927 15.0655 30.5928 15.1636 30.3041 15.3621L30.0381 15.5451L29.4904 15.4206C28.3288 15.1565 27.5057 15.0303 26.9552 15.0317C26.4787 15.0329 26.3913 15.0471 26.1345 15.1651C25.7399 15.3463 25.4762 15.5744 25.3056 15.882C25.1784 16.1112 25.1617 16.1882 25.1622 16.5387C25.1629 16.9216 25.1721 16.9536 25.4176 17.4342C25.7402 18.0661 25.7541 18.2574 25.496 18.5151C25.303 18.7079 25.2307 18.7105 25.3556 18.5201C25.4551 18.3684 25.417 18.2314 25.2548 18.1576C25.1054 18.0896 24.993 18.1399 24.8693 18.33C24.6484 18.6694 24.4827 18.8264 24.3444 18.8273C24.1712 18.8284 24.1858 18.7846 24.4887 18.3951C24.692 18.1336 24.7134 18.084 24.6726 17.9675C24.6411 17.8775 24.5871 17.8312 24.5017 17.8213C24.4017 17.8095 24.344 17.851 24.2117 18.0294C23.7707 18.6245 23.572 18.8302 23.4688 18.7986C23.4133 18.7816 23.36 18.7607 23.3503 18.7521C23.3074 18.714 23.5843 18.3396 23.8901 18.022C24.162 17.7397 24.2207 17.6513 24.2079 17.5432C24.183 17.335 24.0103 17.2998 23.8163 17.4634C23.4654 17.7593 23.4872 17.7064 23.8701 17.3332C24.2579 16.9551 24.2722 16.9336 24.2039 16.8303C24.1647 16.771 24.0763 16.7157 24.0075 16.7074C23.9033 16.6949 23.7808 16.795 23.2737 17.3073C22.939 17.6455 22.6651 17.8943 22.6651 17.8601C22.6651 17.826 22.8685 17.5887 23.1171 17.3329C24.0441 16.379 24.1669 16.2384 24.1674 16.1312C24.1678 16.038 24.0466 15.9238 23.9473 15.9238C23.9292 15.9238 23.7423 16.0909 23.5321 16.2952C23.3218 16.4995 23.1498 16.6387 23.1498 16.6045C23.1498 16.54 23.4333 16.1746 23.7202 15.8691C23.9124 15.6645 23.9228 15.4738 23.7431 15.4484C23.6633 15.4371 23.5499 15.5129 23.3277 15.7259C23.0925 15.9515 23.0089 16.0057 22.9648 15.9617C22.8663 15.8633 22.8983 15.8003 23.2261 15.4467C23.4583 15.1963 23.5404 15.0732 23.5291 14.9931C23.4982 14.7762 23.3312 14.8345 22.9412 15.1981C22.6097 15.5073 22.5617 15.5365 22.4677 15.4863C22.3649 15.4313 22.3663 15.4271 22.5535 15.2293C22.8158 14.9521 23.0044 14.6866 23.0044 14.5943C23.0044 14.447 22.8573 14.4533 22.7224 14.6064C22.4575 14.907 21.9441 15.2945 21.8108 15.2945C21.6855 15.2945 21.6905 15.2844 21.9466 15.0162C22.2832 14.6637 22.3459 14.5513 22.2773 14.4232C22.2487 14.3699 22.1855 14.3264 22.1367 14.3264C22.062 14.3264 21.348 15.0006 21.1506 15.2575C21.0897 15.3367 20.726 15.432 20.726 15.3687C20.726 15.3504 20.8176 15.2475 20.9296 15.14C21.3898 14.6985 21.522 14.4185 21.303 14.3491C21.2232 14.3238 21.1527 14.3675 20.9758 14.552C20.8517 14.6813 20.6408 14.885 20.5069 15.0045C20.373 15.1241 20.2043 15.294 20.1318 15.3822C20.04 15.494 19.9451 15.5509 19.8178 15.5706L19.6353 15.5987L19.7384 15.4829C19.7951 15.4192 19.9478 15.2506 20.0777 15.1083C20.2077 14.966 20.3321 14.8178 20.3542 14.779C20.3956 14.7065 20.3162 14.5684 20.2331 14.5684C20.2085 14.5684 19.9113 14.8389 19.5726 15.1696C19.234 15.5002 18.9499 15.7637 18.9412 15.755C18.91 15.7239 19.1944 15.31 19.5446 14.8767C19.7412 14.6336 19.902 14.4118 19.902 14.3838C19.902 14.3558 19.8562 14.3184 19.8002 14.3006C19.6918 14.2663 19.5992 14.3399 19.1135 14.8467C18.5433 15.4417 18.6062 15.4846 19.2022 14.9072C19.7816 14.3459 19.7708 14.3595 19.0524 15.0955C18.6265 15.5318 18.1253 16.0323 17.9387 16.2075L17.5994 16.5262L17.8792 16.2346L18.159 15.943L17.9762 15.9627L17.7933 15.9824L18.0155 15.7473C18.1377 15.6181 18.3887 15.3163 18.5733 15.0767C19.2443 14.2056 19.2456 14.2032 19.1027 14.0849C18.9644 13.9702 18.8128 14.0843 18.4235 14.5955C18.2102 14.8755 17.9547 15.1837 17.8557 15.2802L17.6758 15.4557L17.6251 15.3227C17.5684 15.1737 17.5664 15.1785 17.8387 14.8105C17.947 14.6641 18.0516 14.5225 18.0712 14.4958C18.0908 14.4692 18.2107 14.3305 18.3378 14.1876C18.5582 13.9398 18.6846 13.7598 18.6884 13.6884C18.6915 13.6289 18.5392 13.5035 18.4637 13.5035C18.3827 13.5035 18.0358 13.8547 17.6869 14.2901C17.5643 14.4432 17.4468 14.5684 17.4258 14.5684C17.4049 14.5684 17.3736 14.5237 17.3562 14.4691C17.3164 14.3439 17.6237 13.8228 18.0476 13.2965C18.2143 13.0895 18.3507 12.8888 18.3507 12.8505C18.3507 12.8121 18.3045 12.7561 18.248 12.7259C18.1566 12.6771 18.1136 12.7021 17.8629 12.9498C17.7078 13.1031 17.4977 13.3445 17.3962 13.486C17.2187 13.7334 17.1388 13.7992 17.1388 13.698C17.1388 13.6306 17.4817 13.0797 17.7692 12.6849L18.0127 12.3507L18.3393 12.3543C18.93 12.361 19.4399 12.019 19.7463 11.4109C19.8483 11.2083 19.9962 11.037 20.2952 10.7753C20.7487 10.3783 20.9277 10.1183 20.8416 9.98118C20.7533 9.8406 20.6125 9.8544 20.5188 10.0128C20.4408 10.1446 20.0969 10.4539 20.0283 10.4539C20.0121 10.4539 19.9989 10.3368 19.9989 10.1938V9.93369L20.3625 9.58884C20.7338 9.23669 20.779 9.1542 20.6564 9.05265C20.574 8.98434 20.5037 9.016 20.1952 9.26026C19.9641 9.44328 19.902 9.44633 19.902 9.27478C19.902 9.20004 19.995 9.09181 20.2011 8.92669C20.5956 8.61065 20.7146 8.4511 20.6309 8.35041C20.5362 8.23647 20.4195 8.26014 20.2625 8.42525C20.1842 8.50754 20.0388 8.61665 19.9393 8.66772L19.7586 8.76056L19.727 8.63471C19.7 8.52715 19.7378 8.46548 19.9871 8.21066C20.2962 7.89476 20.3872 7.7569 20.3519 7.6584C20.3125 7.5489 20.1661 7.59508 19.9963 7.77051C19.8009 7.97241 19.5225 8.15485 19.4779 8.11032C19.4608 8.09318 19.5928 7.93223 19.7713 7.75264C20.0757 7.44633 20.1756 7.25904 20.0346 7.25904C19.966 7.25904 19.5001 7.558 19.3326 7.70956C19.2727 7.76373 19.2091 7.7935 19.1914 7.77578C19.1736 7.75802 19.2904 7.60694 19.4509 7.43999C19.7679 7.11039 19.8467 6.95607 19.7546 6.84527C19.6534 6.72352 19.5595 6.76617 19.2162 7.08962C18.8878 7.39899 18.8222 7.43326 18.6703 7.37507C18.6099 7.35194 18.6495 7.27918 18.8602 7.02568C19.0066 6.84962 19.1264 6.66747 19.1264 6.62095C19.1264 6.5482 18.996 6.43614 18.9114 6.43614C18.8963 6.43614 18.7568 6.56136 18.6013 6.71447C18.1935 7.11591 18.0973 7.19554 17.9751 7.23252C17.7539 7.29951 17.8689 7.12162 18.3023 6.72657C18.552 6.49892 18.7385 6.29043 18.7385 6.23898C18.7385 6.16463 18.6114 6.04889 18.5298 6.04889C18.4374 6.04889 17.406 6.97751 17.0826 7.35184C16.9249 7.53443 16.848 7.54183 16.848 7.37445C16.848 7.22526 17.0356 6.95699 17.685 6.17789C18.1781 5.58627 18.2531 5.41254 18.0292 5.38068C17.9278 5.36621 17.8688 5.42386 16.9988 6.38773C16.8182 6.5877 16.802 6.59597 16.8008 6.4888C16.8001 6.42457 16.869 6.2612 16.9539 6.12576C17.1023 5.88881 17.5662 5.28484 17.7193 5.12897C17.9526 4.89159 18.2053 4.57438 18.2053 4.51895C18.2053 4.48372 18.1606 4.43095 18.1059 4.40176C18.0182 4.3549 17.9603 4.39319 17.6147 4.72681C17.2628 5.06643 17.236 5.0839 17.3517 4.89836C17.4461 4.7469 18.1346 3.81164 18.2801 3.63718C18.2873 3.62857 18.5297 3.67886 18.8188 3.74886C19.1079 3.81885 19.4536 3.89805 19.5869 3.92481C19.8583 3.97932 21.1624 4.05396 21.1623 4.015C21.1623 3.95434 20.0921 2.93181 20.0172 2.92082C19.8957 2.903 19.2132 2.71983 18.7476 2.58004C18.5259 2.51353 17.9942 2.32 17.5661 2.15004C17.1379 1.98009 16.5994 1.78709 16.3694 1.72121C15.5561 1.48818 14.2753 1.34112 13.0427 1.33919C12.33 1.33807 12.2382 1.34814 11.9108 1.46354C11.5067 1.606 11.3861 1.69575 11.2881 1.92728C11.1986 2.13852 11.2345 2.28873 11.5015 2.82052C11.7626 3.3405 11.8094 3.64294 11.6861 4.01364C11.4991 4.57588 11.1471 4.76607 10.3159 4.75406C9.60501 4.7438 9.29695 4.6467 8.94598 4.32223C8.46307 3.87583 8.41668 3.65577 8.67404 3.03283C8.98108 2.28965 8.95471 1.96654 8.55643 1.59051C8.36583 1.41059 8.26713 1.35695 8.04366 1.31218C7.69851 1.24296 7.1568 1.24891 6.61964 1.32776ZM15.1998 1.56224C15.1998 1.57057 15.129 1.64139 15.0423 1.71957L14.8847 1.86174L15.0271 1.70441C15.1598 1.55779 15.1998 1.52483 15.1998 1.56224ZM14.812 1.9495C14.812 1.95782 14.7411 2.02864 14.6545 2.10682L14.4969 2.24899L14.6393 2.09167C14.772 1.94504 14.812 1.91208 14.812 1.9495ZM14.3099 2.4597L14.1773 2.5978L14.6202 2.6312C14.8637 2.64955 15.1755 2.68527 15.3132 2.71054C15.559 2.75575 16.2825 2.96317 16.4964 3.04977L16.6054 3.09392L16.4779 3.37332C16.1994 3.98416 16.0743 4.36115 15.9192 5.05656C15.7609 5.76663 15.7573 5.80772 15.7573 6.9202V8.05775L15.8892 8.30762C16.0434 8.59956 16.2444 8.75964 16.4567 8.75964C16.5397 8.75964 16.7778 8.6743 16.9856 8.56999C17.7971 8.1625 18.1338 8.1502 18.4646 8.51587C18.7482 8.82939 18.8586 9.26975 18.8592 10.0908C18.8597 10.7195 18.8514 10.7818 18.7452 10.9525C18.5952 11.1934 18.4352 11.2963 18.2736 11.2558C18.2041 11.2384 18.0022 11.1289 17.8248 11.0127C17.1539 10.5726 16.4528 10.6392 16.0206 11.1841C15.7392 11.5389 15.6645 12.067 15.802 12.729C15.8379 12.902 15.9041 13.2288 15.949 13.4551C16.0209 13.8176 16.2696 14.7294 16.4803 15.4024C16.5376 15.5857 16.5396 15.6389 16.4904 15.6687C16.4566 15.6892 16.3452 15.7996 16.2429 15.9141L16.0568 16.1221L16.2707 16.3497L16.4844 16.5773L16.2648 16.3719L16.0452 16.1665L15.9219 16.2896C15.8114 16.4 15.3096 16.5531 15.0583 16.5531C15.0205 16.5531 15.149 16.3889 15.3438 16.1882L15.6981 15.8234L15.5859 15.7042C15.5243 15.6386 15.4589 15.5849 15.4407 15.5849C15.4225 15.5849 15.3003 15.6884 15.1692 15.8149C13.9653 16.976 13.8548 17.018 14.4128 16.1023C14.6811 15.6621 14.874 15.3811 14.9965 15.252C15.0489 15.1969 15.0412 15.1657 14.9517 15.0705C14.8922 15.0074 14.8305 14.9557 14.8146 14.9557C14.771 14.9557 13.9869 15.9515 13.7474 16.311C13.3908 16.8464 13.395 16.8435 12.9615 16.8435C12.7529 16.8435 12.5821 16.8227 12.5821 16.7974C12.5821 16.6925 12.6969 16.5115 12.7974 16.4578C12.8566 16.4261 12.9398 16.3421 12.9823 16.271C13.056 16.1477 13.207 15.9638 14.1212 14.8842C14.3412 14.6245 14.5212 14.389 14.5212 14.3609C14.5212 14.2864 14.371 14.1327 14.2984 14.1327C14.1706 14.1327 14.1755 14.2421 14.3099 14.3908L14.4485 14.5442L14.2906 14.4017C14.1964 14.3167 14.1165 14.2777 14.0926 14.3049C14.0706 14.33 13.8046 14.6311 13.5015 14.974L12.9504 15.5973L12.8813 15.3494L12.8123 15.1016L12.9984 14.8747C13.1008 14.75 13.2341 14.5919 13.2946 14.5234C13.3552 14.455 13.4245 14.3752 13.4487 14.3461C13.4729 14.3171 13.5636 14.2126 13.6503 14.114L13.8079 13.9347L13.67 13.791C13.5941 13.7119 13.5173 13.6529 13.4993 13.66C13.4812 13.6671 13.2762 13.8907 13.0437 14.157C12.8112 14.4232 12.6036 14.6476 12.5823 14.6555C12.5611 14.6634 12.4964 14.6038 12.4387 14.5229L12.3339 14.3758L12.5034 14.1212C12.5967 13.9811 12.7507 13.7914 12.8457 13.6997C12.9407 13.6079 13.0184 13.4979 13.0184 13.4553C13.0184 13.3601 12.9253 13.2614 12.8355 13.2614C12.734 13.2614 12.2123 13.7793 12.1217 13.97C12.0777 14.0626 12.0269 14.1311 12.0089 14.1222C11.9909 14.1133 11.8938 14.0642 11.7931 14.0129L11.6099 13.9199L11.9594 13.5686C12.2873 13.239 12.3053 13.2097 12.2526 13.0941C12.2215 13.026 12.1558 12.971 12.1055 12.971C12.0556 12.971 11.8267 13.1466 11.597 13.3612L11.1793 13.7515L10.8619 13.6879L10.5444 13.6245L10.7719 13.365C10.9526 13.1589 10.9891 13.0891 10.9497 13.0261C10.8381 12.8481 10.6797 12.9123 10.379 13.2576L10.0907 13.5887L9.74884 13.6136C9.5608 13.6273 9.39845 13.6305 9.38808 13.6207C9.37766 13.6109 9.44858 13.5151 9.54563 13.4078C9.74355 13.189 9.75383 13.1544 9.64709 13.0659C9.5702 13.0022 9.49381 13.0606 8.97473 13.5805C8.89252 13.6628 8.72712 13.7575 8.60714 13.7908C7.56448 14.0807 7.05059 15.0755 7.47761 15.9772C7.55827 16.1475 7.70215 16.4012 7.79735 16.541C8.10736 16.9962 8.1121 16.9887 7.51217 16.9887H6.99241L7.08311 16.8798C7.13299 16.8199 7.25714 16.6821 7.35899 16.5737C7.48372 16.4408 7.53398 16.35 7.51299 16.2954C7.4509 16.1337 7.28467 16.216 6.88373 16.6067L6.48105 16.9992L6.13828 16.9649C5.9498 16.946 5.79555 16.9185 5.79555 16.9039C5.79555 16.8892 5.99338 16.673 6.23513 16.4234C6.67233 15.9722 6.7259 15.8647 6.56437 15.7632C6.4794 15.7097 6.34081 15.8221 5.64227 16.5105L5.3171 16.8311L5.07559 16.7768C4.94272 16.7469 4.81862 16.707 4.79981 16.6882C4.78096 16.6694 4.89507 16.517 5.05339 16.3494C5.21176 16.1819 5.42403 15.9298 5.52511 15.7892C5.62623 15.6487 5.77345 15.5004 5.85222 15.4597C6.06217 15.3513 6.01791 15.2185 5.77674 15.2331L5.59205 15.2443L5.79075 15.0459C6.0088 14.8281 6.0406 14.696 5.89376 14.6175C5.81451 14.5751 5.76666 14.5944 5.61503 14.7297C5.51435 14.8196 5.22475 15.034 4.97147 15.2062C4.40411 15.5918 4.38976 15.6002 4.38976 15.5497C4.38976 15.5083 4.87689 15.0916 5.34051 14.7365C5.58294 14.5509 5.8925 14.2108 5.8925 14.13C5.8925 13.9239 5.7019 13.8773 5.58531 14.0549C5.54358 14.1185 5.36107 14.2694 5.17981 14.3901C4.99856 14.5108 4.79977 14.6569 4.73801 14.7148C4.67625 14.7728 4.61619 14.8106 4.60455 14.799C4.59287 14.7874 4.59728 14.6764 4.6143 14.5523C4.64173 14.3524 4.67906 14.2969 4.94165 14.0655C5.10468 13.9218 5.33392 13.7152 5.45099 13.6065C5.5681 13.4978 5.70447 13.396 5.75396 13.3803C5.84543 13.3513 5.87835 13.1915 5.80244 13.1447C5.70941 13.0872 5.42912 13.224 5.10657 13.4842L4.76491 13.7599L4.80054 13.3292C4.82013 13.0922 4.84533 12.8832 4.85658 12.8646C4.88276 12.8215 5.61091 12.2644 5.88082 12.081C6.08844 11.9399 6.14637 11.7942 6.01481 11.7437C5.97312 11.7278 5.70006 11.8768 5.36039 12.1009C5.02557 12.3218 4.77756 12.4575 4.77756 12.4196C4.77756 12.3834 4.76462 12.2892 4.74882 12.2104C4.72191 12.0759 4.75299 12.0395 5.24569 11.6285C5.95572 11.0363 6.01185 10.9733 5.9434 10.8457C5.91354 10.7899 5.84698 10.7443 5.79555 10.7443C5.72129 10.7443 5.48201 10.9115 5.3108 11.083C5.28714 11.1068 4.88586 11.4301 4.71697 11.5614C4.64091 11.6207 4.62414 11.6083 4.55443 11.4418L4.47677 11.2561L4.63926 11.1153C5.15373 10.6698 5.55317 10.2812 5.55317 10.2264C5.55317 10.0924 5.38002 10.1786 4.84926 10.5767L4.29833 10.9899L4.08237 10.8253L3.86646 10.6608L4.09178 10.492C4.47924 10.2018 4.77756 9.91317 4.77756 9.8285C4.77756 9.73556 4.68725 9.63096 4.60703 9.63096C4.57721 9.63096 4.46703 9.70763 4.36223 9.80139C4.25737 9.89516 3.98887 10.1021 3.76549 10.2613C3.42611 10.5031 3.32654 10.5506 3.15954 10.5501L2.95973 10.5496L3.12939 10.4189C3.51453 10.122 3.87233 9.74185 3.84164 9.66198C3.7923 9.53361 3.64522 9.57011 3.4661 9.75512C3.37424 9.85004 3.0829 10.0842 2.81866 10.2755C2.55447 10.4668 2.24665 10.705 2.13462 10.8048C1.99341 10.9306 1.88541 10.9863 1.78274 10.9863C1.47613 10.9863 1.46692 10.9489 1.70251 10.6601C1.91959 10.394 2.47706 9.76577 2.77552 9.45093C2.93127 9.28659 2.94378 9.14689 2.80271 9.14689C2.76209 9.14689 2.62811 9.2486 2.50493 9.37295C2.3818 9.49726 2.08848 9.77245 1.85303 9.98447C1.61763 10.1965 1.38999 10.4433 1.34719 10.5329C1.30438 10.6226 1.25406 10.6959 1.2354 10.6959C1.21669 10.6959 1.16448 10.6182 1.1193 10.5231L1.03718 10.3503L1.39232 9.95436C1.58762 9.73653 1.76936 9.53472 1.79612 9.50578C1.82288 9.47688 1.97567 9.27536 2.13564 9.05792C2.29561 8.84053 2.4612 8.6514 2.50367 8.63771C2.54609 8.62401 2.70416 8.66917 2.85492 8.7381C3.18243 8.88782 3.72356 8.91522 4.00549 8.79638C4.42626 8.61897 4.68565 8.24469 4.77441 7.68681C4.81295 7.44459 4.85159 7.35639 4.95794 7.26747C5.53141 6.788 5.66423 6.57308 5.40566 6.54282C5.31797 6.53261 5.22296 6.58412 5.07079 6.72435C4.95397 6.83205 4.8432 6.9202 4.82463 6.9202C4.80612 6.9202 4.77659 6.7986 4.75909 6.64995C4.72977 6.4007 4.73825 6.3659 4.86841 6.20219C4.94602 6.10455 5.0895 5.95222 5.18723 5.86363C5.33043 5.73381 5.35379 5.68918 5.30769 5.6337C5.22213 5.53074 5.15286 5.54802 4.91082 5.73255L4.69084 5.90033L4.67116 5.73187C4.65245 5.57203 4.66956 5.54962 5.00782 5.29089C5.27837 5.084 5.36068 4.99382 5.34962 4.91642C5.32655 4.75513 5.15723 4.77009 4.88436 4.95752C4.74693 5.05191 4.61459 5.12916 4.59035 5.12916C4.56606 5.12916 4.53553 5.05839 4.52253 4.97184C4.50135 4.83098 4.52937 4.78427 4.79017 4.5253C5.1391 4.17885 5.33246 3.89998 5.29373 3.7992C5.25073 3.68738 5.21195 3.70524 4.92299 3.97027C4.77635 4.10474 4.59738 4.25795 4.52525 4.31066L4.39407 4.4066L4.31923 4.26201C4.23551 4.10043 4.22126 3.93542 4.28888 3.91092C4.31336 3.90206 4.49321 3.75321 4.68851 3.58016C5.38763 2.96071 5.4156 2.93089 5.38138 2.84177C5.33644 2.72477 5.19843 2.73615 5.03579 2.87019C4.96041 2.93229 4.70786 3.12935 4.47454 3.30807L4.05033 3.63297L3.99332 3.50799C3.94058 3.39234 3.95357 3.36558 4.1674 3.14876C4.35583 2.95775 4.4537 2.90039 4.69709 2.83833C5.95509 2.51745 7.74844 2.30064 7.66981 2.47892C7.33674 3.23415 7.27832 3.59773 7.41512 4.06447C7.64839 4.86051 8.40029 5.61415 9.21308 5.86668C9.49376 5.95391 9.66968 5.97206 10.2311 5.97187C11.296 5.97153 11.8233 5.79093 12.3341 5.25158C12.9339 4.61833 13.1235 3.62532 12.8047 2.7861C12.7349 2.6023 12.688 2.44184 12.7004 2.42945C12.7127 2.41705 13.0348 2.45108 13.416 2.50501L14.1091 2.60308L14.2536 2.46236C14.4398 2.28098 14.4833 2.27895 14.3099 2.4597ZM3.88076 3.0961C3.86428 3.12272 3.8303 3.1445 3.80519 3.1445C3.78008 3.1445 3.75958 3.12272 3.75958 3.0961C3.75958 3.06947 3.79361 3.04769 3.83515 3.04769C3.87669 3.04769 3.89725 3.06947 3.88076 3.0961ZM17.9145 3.53127C17.9734 3.56893 17.9197 3.6444 17.631 3.9299C17.3257 4.23171 17.2867 4.25785 17.3585 4.11263C17.4597 3.90802 17.7646 3.48306 17.8095 3.48408C17.8273 3.48451 17.8745 3.50571 17.9145 3.53127ZM12.873 3.88575C12.873 3.89408 12.8021 3.96489 12.7154 4.04307L12.5579 4.18524L12.7003 4.02792C12.833 3.8813 12.873 3.84833 12.873 3.88575ZM12.4852 4.273C12.4852 4.28133 12.4143 4.35215 12.3276 4.43032L12.1701 4.57249L12.3125 4.41517C12.4452 4.26855 12.4852 4.23558 12.4852 4.273ZM12.0974 4.66088C12.0974 4.66955 12.0374 4.72942 11.9641 4.794L11.8308 4.91134L11.9483 4.77822C12.0581 4.65381 12.0974 4.62288 12.0974 4.66088ZM30.8496 6.97848C30.5859 7.2165 30.515 7.25604 30.3498 7.25745L30.1572 7.25904L30.2771 7.17782C30.343 7.13309 30.5605 6.94266 30.7605 6.75455L31.1241 6.41251L31.1405 6.55681C31.1547 6.68131 31.1148 6.73916 30.8496 6.97848ZM1.49785 8.38958C1.36871 8.53213 1.25581 8.6302 1.24694 8.6075C1.22406 8.54888 1.4245 8.23695 1.52136 8.18056C1.72311 8.06298 1.71313 8.1519 1.49785 8.38958ZM2.00389 8.70625C1.8364 8.88259 1.54123 9.1968 1.34791 9.40446C0.996804 9.78169 0.996465 9.78189 0.996465 9.62491C0.996465 9.46449 1.14053 9.2606 1.60784 8.75964C1.71958 8.63984 1.86922 8.47153 1.94038 8.38561C2.06535 8.23463 2.07369 8.23201 2.18906 8.30748L2.30846 8.38561L2.00389 8.70625ZM16.9888 12.0318C16.9017 12.1216 16.8204 12.1851 16.8082 12.1729C16.767 12.1318 17.0477 11.8071 17.0977 11.838C17.1263 11.8556 17.0802 11.9376 16.9888 12.0318ZM17.5486 12.1075C17.7055 12.1788 17.7037 12.1967 17.5226 12.369C17.4403 12.4471 17.2967 12.6146 17.2033 12.7411C17.11 12.8675 17.0161 12.971 16.9945 12.971C16.9731 12.971 16.9412 12.9143 16.9238 12.8449C16.8979 12.7419 16.9387 12.6575 17.1462 12.385C17.2859 12.2015 17.4059 12.0513 17.4127 12.0513C17.4195 12.0513 17.4807 12.0765 17.5486 12.1075ZM29.7668 12.4385C29.9519 12.6249 30.0926 12.7774 30.0792 12.7774C30.0659 12.7774 29.9035 12.6249 29.7183 12.4385C29.5331 12.2522 29.3925 12.0997 29.4058 12.0997C29.4191 12.0997 29.5816 12.2522 29.7668 12.4385ZM29.9537 13.057C29.5903 13.3715 29.5701 13.6289 29.915 13.5512C30.0842 13.5131 30.1539 13.4725 30.3611 13.2911L30.4707 13.1952L30.3399 13.0589C30.1792 12.8914 30.1453 12.8912 29.9537 13.057ZM30.2273 13.4765C29.7852 13.7671 29.668 13.9071 29.6883 14.1206C29.6954 14.1962 29.9075 14.1995 30.0487 14.1263C30.1926 14.0516 30.809 13.5839 30.809 13.5493C30.809 13.5341 30.749 13.4648 30.6757 13.3955L30.5424 13.2694L30.2273 13.4765ZM13.601 13.5503C13.5409 13.5882 13.5523 13.6198 13.6698 13.7423C13.7776 13.8546 13.8256 13.8764 13.875 13.8355C13.9606 13.7645 13.9564 13.6725 13.8633 13.5795C13.7766 13.493 13.7045 13.485 13.601 13.5503ZM30.9544 14.2538C30.9544 14.2937 30.9196 14.3264 30.877 14.3264C30.8345 14.3264 30.7418 14.3664 30.671 14.4152C30.4834 14.5448 30.4212 14.5776 30.4212 14.5466C30.4212 14.5245 30.8976 14.1926 30.9423 14.1836C30.949 14.1823 30.9544 14.2138 30.9544 14.2538ZM10.4885 14.811C11.0555 14.8845 11.464 15.1108 11.6412 15.4494C11.7412 15.6406 11.7283 15.7245 11.5345 16.1432C11.3044 16.6406 11.268 16.9924 11.4152 17.2961C11.7641 18.0157 12.5811 18.2001 14.232 17.9319C15.014 17.8048 16.9417 17.4321 16.9987 17.3969C17.0798 17.3468 17.3718 18.9291 17.4373 19.7736C17.4983 20.561 17.4486 21.4238 17.3342 21.5614C17.2334 21.6827 16.7172 21.6586 16.3343 21.5147C15.7196 21.2837 15.2142 21.3793 14.799 21.8052C14.2874 22.33 14.1115 22.9692 14.1862 24.0318C14.2519 24.967 14.4084 25.4206 14.8029 25.8203C14.9633 25.9827 15.094 26.0636 15.2861 26.1193C15.6904 26.2367 15.9938 26.1782 16.5967 25.8667C17.1258 25.5933 17.3476 25.5445 17.4032 25.6892C17.5504 26.0721 17.4534 27.4485 17.221 28.2737C17.1283 28.603 17.0141 29.0413 16.9672 29.2476C16.9203 29.454 16.8662 29.6228 16.8468 29.6228C16.8275 29.6228 16.7162 29.5888 16.5996 29.5473C16.1442 29.3853 15.2946 29.1875 14.749 29.1164C12.9552 28.8828 11.5609 29.2667 11.2945 30.0675C11.1865 30.3922 11.2236 30.6717 11.4236 31.0422C11.5642 31.3025 11.585 31.3865 11.5848 31.6908C11.5845 32.0002 11.5679 32.0636 11.441 32.242C11.2573 32.5003 10.9434 32.662 10.465 32.7449C10.2569 32.7811 10.0783 32.8022 10.068 32.7919C10.0578 32.7817 10.0957 32.6949 10.1523 32.5991C10.2812 32.381 10.283 32.2549 10.1584 32.1883C10.0382 32.1241 9.88762 32.194 9.84288 32.3348C9.80487 32.4543 9.5702 32.8179 9.53166 32.8169C9.51644 32.8164 9.47417 32.7973 9.43772 32.7742C9.37228 32.7328 9.55489 32.4243 10.0822 31.6851C10.2156 31.4981 10.2411 31.4293 10.2031 31.3584C10.1105 31.1857 9.97716 31.2579 9.67607 31.6437C9.51509 31.8501 9.3064 32.1151 9.21231 32.2326C9.11822 32.3501 9.02849 32.4972 9.01283 32.5594C8.97662 32.7035 8.9534 32.7014 8.75596 32.5368C8.6082 32.4137 8.5989 32.3909 8.65416 32.2878C8.68761 32.2254 8.79736 32.0849 8.89804 31.9756C8.99872 31.8663 9.26888 31.5264 9.49841 31.2202C9.72789 30.914 9.94938 30.62 9.99054 30.5667C10.1587 30.3492 10.1199 30.1325 9.91894 30.1675C9.88054 30.1742 9.6672 30.4183 9.44485 30.71C8.9883 31.309 8.7547 31.5773 8.71999 31.5426C8.707 31.5297 8.72881 31.4681 8.76851 31.4059C8.80817 31.3437 8.8755 31.1882 8.91806 31.0605C9.00081 30.812 9.20925 30.5081 9.72164 29.889C10.1362 29.3882 10.2189 29.2529 10.1819 29.1365C10.1173 28.9333 9.95161 29.0293 9.56337 29.4949C9.35614 29.7435 9.13785 29.9926 9.07832 30.0484L8.97012 30.1499L8.86692 29.9618L8.76371 29.7737L9.10959 29.4199C9.52202 28.998 9.6197 28.8373 9.52953 28.7289C9.43069 28.6099 9.30121 28.6425 9.19583 28.8128C9.04807 29.0515 8.48415 29.5315 8.39268 29.4965C8.35065 29.4804 8.31628 29.4462 8.31628 29.4206C8.31628 29.3494 8.56986 28.997 8.82479 28.7138C9.0328 28.4828 9.08671 28.3158 8.95325 28.3158C8.87821 28.3158 8.48425 28.6616 8.19228 28.9839C7.93653 29.2661 7.90458 29.2864 7.76463 29.2556C7.68145 29.2372 7.51115 29.2089 7.38623 29.1926L7.15912 29.1629L7.61649 28.6815C7.86808 28.4167 8.07391 28.1634 8.07391 28.1187C8.07391 28.0739 8.03818 28.0076 7.9945 27.9714C7.92465 27.9136 7.88233 27.941 7.64305 28.1989C7.49341 28.3602 7.19495 28.6463 6.97971 28.8347L6.58847 29.1773L6.20411 29.209C5.84786 29.2383 5.82687 29.235 5.91674 29.164C5.97006 29.1218 6.18278 28.9209 6.38938 28.7176C6.67538 28.4361 6.76506 28.3163 6.76506 28.216C6.76506 28.1409 6.73234 28.0716 6.68901 28.055C6.61552 28.0268 6.47014 28.1512 5.5047 29.0684C5.21797 29.3408 5.1547 29.3769 4.8018 29.469C4.58851 29.5248 4.3597 29.586 4.29329 29.6053C4.16304 29.6429 4.12654 29.687 5.17749 28.5359C5.6494 28.0189 5.71663 27.9026 5.57499 27.8484C5.52278 27.8283 5.21864 28.0984 4.57818 28.7333C4.07123 29.2358 3.62045 29.7069 3.57639 29.7801C3.53232 29.8533 3.47226 29.9132 3.44288 29.9132C3.41351 29.9132 3.35083 29.7909 3.30361 29.6413L3.21781 29.3694L3.38234 29.1935C3.47279 29.0968 3.63286 28.9091 3.73805 28.7763C3.8432 28.6435 4.13647 28.3165 4.38976 28.0496C4.64304 27.7828 5.0466 27.3362 5.28656 27.0572C5.52651 26.7782 5.76104 26.5117 5.80767 26.4648C5.91965 26.3523 5.91882 26.1859 5.80631 26.1859C5.72187 26.1859 3.68148 28.2022 3.28892 28.6735L3.09182 28.9101L3.03792 28.659C3.00825 28.5209 2.98397 28.3892 2.98397 28.3663C2.98397 28.3435 3.14209 28.1644 3.33541 27.9683C3.52873 27.7723 3.91921 27.3682 4.20318 27.0704C4.67572 26.5749 4.74557 26.5203 5.02726 26.426C5.39936 26.3014 5.57329 26.1983 5.79109 25.9732C5.88198 25.8793 5.97375 25.8132 5.99498 25.8263C6.06648 25.8704 6.35074 25.7153 6.66642 25.4598C6.8388 25.3204 7.03512 25.183 7.1027 25.1546C7.30183 25.0708 7.54067 24.8221 7.54067 24.6985C7.54067 24.5109 7.40586 24.5105 7.21002 24.6973C7.11196 24.791 6.94685 24.9067 6.84316 24.9546C6.73947 25.0024 6.54445 25.1243 6.40974 25.2254C6.27507 25.3264 6.1598 25.4041 6.15364 25.3979C6.12111 25.3654 6.31017 24.7039 6.36107 24.6722C6.39398 24.6516 6.44929 24.6067 6.48395 24.5724C6.51857 24.5381 6.76506 24.3064 7.03168 24.0575C7.2983 23.8086 7.53282 23.5777 7.55289 23.5443C7.60287 23.4608 7.54576 23.33 7.45938 23.33C7.36573 23.33 7.0469 23.5572 6.71659 23.8593C6.56995 23.9934 6.43364 24.1034 6.41362 24.1038C6.3936 24.1042 6.37857 24.0337 6.38012 23.9471C6.38269 23.8086 6.44876 23.732 6.93371 23.3058C7.23659 23.0395 7.49695 22.7929 7.51236 22.7577C7.55114 22.6689 7.45613 22.507 7.36524 22.507C7.32399 22.507 7.09892 22.6704 6.86512 22.8701C6.63132 23.0698 6.42588 23.2331 6.40862 23.2331C6.39137 23.2331 6.37726 23.1777 6.37726 23.1099C6.37726 23.0195 6.48071 22.8861 6.76506 22.6097C7.01423 22.3674 7.15287 22.1952 7.15287 22.1278C7.15287 22.0702 7.14051 22.023 7.12543 22.023C7.06896 22.023 6.89018 22.1361 6.60907 22.3495C6.37881 22.5244 6.31027 22.5558 6.27619 22.5021C6.20347 22.3873 6.22509 22.348 6.54848 22.007C6.86085 21.6776 6.92547 21.5248 6.80384 21.4034C6.77185 21.3714 6.7304 21.3453 6.71174 21.3453C6.69308 21.3453 6.54159 21.4862 6.37503 21.6584C6.09605 21.9469 5.96202 22.0156 5.99891 21.8511C6.00705 21.8148 6.21719 21.5786 6.46587 21.3262C6.93221 20.853 6.99431 20.7209 6.80583 20.6029C6.73976 20.5616 6.63699 20.6365 6.23144 21.0216C5.95984 21.2795 5.71586 21.4905 5.68939 21.4905C5.66287 21.4905 5.59016 21.4504 5.52782 21.4014L5.41444 21.3124L5.84907 20.8811C6.19533 20.5375 6.28089 20.4252 6.26989 20.3288C6.24507 20.1116 6.05892 20.143 5.77708 20.412C5.23289 20.9315 4.99061 21.1033 4.80214 21.1033C4.70422 21.1033 4.63131 21.0843 4.64023 21.0611C4.6491 21.038 4.89187 20.7727 5.17972 20.4717C5.7242 19.9024 5.80423 19.742 5.56112 19.7077C5.47653 19.6957 5.36616 19.7698 5.12484 20.0005C4.94718 20.1704 4.64241 20.437 4.44764 20.593C4.25286 20.7489 4.06376 20.9339 4.02745 21.004C3.97936 21.0969 3.88469 21.1556 3.67872 21.2204C3.52321 21.2693 3.36877 21.3198 3.33541 21.3325C3.29649 21.3474 3.27482 21.3105 3.27482 21.2295C3.27482 21.1327 3.29906 21.1033 3.37865 21.1033C3.51933 21.1033 5.14113 19.4377 5.14113 19.2932C5.14113 19.0226 4.88785 19.2058 3.6935 20.3405C3.47657 20.5466 3.28272 20.7154 3.2627 20.7156C3.17554 20.7165 3.23885 20.4715 3.38234 20.2523C3.46809 20.1213 3.84441 19.6688 4.21854 19.2467C4.59263 18.8246 4.92047 18.4489 4.94699 18.4117C5.0006 18.3365 4.93487 18.1948 4.83021 18.1599C4.79632 18.1486 4.45995 18.4475 4.08271 18.824C3.70552 19.2004 3.38908 19.4851 3.37958 19.4567C3.33643 19.3273 3.44686 19.1386 3.73306 18.8529C3.90345 18.6827 4.18829 18.368 4.3661 18.1534C4.54386 17.9388 4.72599 17.7632 4.77078 17.7632C4.81557 17.7632 5.00811 17.8064 5.19862 17.8591C5.81455 18.0295 6.38453 18.1083 7.20513 18.1365C8.08986 18.1669 8.38764 18.1254 8.73841 17.9227C9.08487 17.7225 9.33262 17.3586 9.33398 17.048C9.33476 16.8701 9.11652 16.4183 8.83076 16.0061C8.46758 15.4823 8.40916 15.3092 8.53224 15.1216C8.72639 14.8257 9.56967 14.6918 10.4885 14.811ZM14.867 14.8267C14.8259 14.8763 14.8422 14.9187 14.9364 15.007C15.0402 15.1045 15.0666 15.1114 15.1047 15.0512C15.1736 14.9423 15.16 14.8241 15.0747 14.7914C14.9627 14.7485 14.927 14.7546 14.867 14.8267ZM15.6418 15.3061L15.4463 15.5113L15.5775 15.6484L15.7088 15.7856L15.8455 15.6248C16.0575 15.3753 16.0765 15.3219 15.9946 15.2052C15.9544 15.1478 15.9025 15.1009 15.8794 15.1009C15.8562 15.1009 15.7493 15.1932 15.6418 15.3061ZM5.3154 15.528C5.28937 15.5765 5.08126 15.7856 4.85289 15.9926C4.62453 16.1997 4.42452 16.4214 4.40847 16.4852C4.38603 16.5744 4.34662 16.6015 4.2391 16.6015C4.06817 16.6015 4.05009 16.4855 4.20798 16.4018C4.26799 16.3699 4.45884 16.2099 4.63214 16.046C4.9258 15.7684 5.3137 15.4397 5.34778 15.4397C5.35598 15.4397 5.34138 15.4794 5.3154 15.528ZM16.697 16.2177C16.6192 16.2656 16.5839 16.2402 16.6284 16.1682C16.6462 16.1394 16.6834 16.1298 16.7111 16.1469C16.7437 16.167 16.7387 16.1919 16.697 16.2177ZM17.2948 16.8571L17.0421 17.1126L17.1511 17.2309L17.26 17.3493L17.1364 17.2423C17.0186 17.1402 17.0085 17.1392 16.9183 17.2193C16.8263 17.3011 16.826 17.3008 16.9086 17.2082C16.9906 17.1164 16.9857 17.1048 16.7632 16.8694L16.5329 16.6257L16.777 16.8557L17.0212 17.0857L17.2599 16.8436C17.3913 16.7104 17.5097 16.6015 17.5232 16.6015C17.5366 16.6015 17.4338 16.7165 17.2948 16.8571ZM19.2232 16.9766C19.2231 17.0314 18.2877 17.6147 18.2436 17.5875C18.1704 17.5423 18.2091 17.3993 18.3327 17.2589C18.4255 17.1534 18.5448 17.0961 18.8038 17.0326C19.2171 16.9311 19.2234 16.9303 19.2232 16.9766ZM17.5055 17.5817L17.6478 17.739L17.4903 17.5969C17.4036 17.5187 17.3328 17.4479 17.3328 17.4395C17.3328 17.4021 17.3727 17.4351 17.5055 17.5817ZM4.40483 17.6167C4.42646 17.6366 4.25194 17.83 4.01703 18.0463C3.70999 18.329 3.58516 18.4177 3.57309 18.3617C3.55511 18.2783 3.66035 18.1183 3.97442 17.7516C4.16653 17.5273 4.27196 17.4943 4.40483 17.6167ZM22.9578 18.4601C22.9335 18.524 22.9268 18.5893 22.9429 18.6053C22.9589 18.6214 22.937 18.6345 22.8942 18.6345C22.7716 18.6345 22.7445 18.5404 22.8375 18.4379C22.9538 18.3095 23.0111 18.3201 22.9578 18.4601ZM19.2718 19.2146C19.2095 19.254 19.2147 19.2763 19.3076 19.3692C19.3939 19.4556 19.4285 19.4656 19.4762 19.4179C19.5194 19.3748 19.522 19.3354 19.4854 19.2775C19.4201 19.1742 19.3625 19.1572 19.2718 19.2146ZM2.1114 20.5241C2.1114 21.2916 2.33856 21.9734 2.68104 22.2337C2.85318 22.3646 2.88134 22.3704 3.21364 22.3433C3.67358 22.3059 3.95348 22.26 3.95348 22.222C3.95348 22.2052 3.53901 21.778 3.03244 21.2727C2.12115 20.3636 2.1114 20.3557 2.1114 20.5241ZM15.613 22.7238C15.507 22.8144 15.4117 22.88 15.4013 22.8696C15.3731 22.8415 15.6982 22.5552 15.756 22.5573C15.7834 22.5583 15.719 22.6332 15.613 22.7238ZM16.3129 22.8096C16.3119 22.8429 16.21 22.9463 16.0865 23.0395C15.9631 23.1327 15.7404 23.3018 15.5917 23.4152C15.443 23.5287 15.3147 23.6013 15.3064 23.5766C15.2794 23.4956 16.0888 22.752 16.2057 22.7505C16.2657 22.7497 16.3139 22.7763 16.3129 22.8096ZM32.8156 24.6248C32.7655 24.8384 32.6446 25.0726 32.5849 25.0719C32.5546 25.0714 32.4989 25.0516 32.4612 25.0277C32.4062 24.993 32.4339 24.935 32.599 24.738C32.7126 24.6026 32.8148 24.4917 32.8261 24.4917C32.8375 24.4917 32.8327 24.5516 32.8156 24.6248ZM6.42573 25.336C6.42573 25.3477 6.40053 25.3728 6.36975 25.3918C6.33509 25.4133 6.32694 25.4051 6.34842 25.3705C6.38293 25.3147 6.42573 25.2956 6.42573 25.336ZM6.35302 25.5082C6.3695 25.5349 6.37207 25.5566 6.35874 25.5566C6.34541 25.5566 6.32103 25.5349 6.30455 25.5082C6.28806 25.4816 6.28549 25.4598 6.29883 25.4598C6.31216 25.4598 6.33654 25.4816 6.35302 25.5082ZM6.25733 25.5957C6.24245 25.6106 6.20333 25.5958 6.17041 25.5627C6.12291 25.5148 6.12848 25.5093 6.19756 25.5355C6.24536 25.5537 6.27226 25.5808 6.25733 25.5957ZM6.11874 25.6373C6.10095 25.6551 6.07186 25.6551 6.05407 25.6373C6.03633 25.6196 6.05087 25.6051 6.08641 25.6051C6.12194 25.6051 6.13648 25.6196 6.11874 25.6373ZM3.27448 26.2308C3.33464 26.2707 3.31467 26.3117 3.15557 26.4744C3.05038 26.582 2.94591 26.67 2.92347 26.67C2.88028 26.67 2.92075 26.383 2.99032 26.1961C3.03254 26.0825 3.05537 26.0852 3.27448 26.2308ZM4.02314 26.4832L4.26246 26.5367L3.9989 26.7796C3.85396 26.9133 3.5522 27.1938 3.32839 27.403C3.10452 27.6122 2.91368 27.7833 2.90422 27.7833C2.86922 27.7833 2.88832 27.154 2.92337 27.153C2.94339 27.1525 3.10152 26.9774 3.27482 26.764C3.52423 26.4569 3.61013 26.3816 3.68686 26.4029C3.74019 26.4177 3.89153 26.4538 4.02314 26.4832ZM12.0004 30.0826C12.0631 30.1492 12.1034 30.2037 12.0901 30.2037C12.0767 30.2037 12.0146 30.1492 11.952 30.0826C11.8893 30.0161 11.849 29.9616 11.8623 29.9616C11.8757 29.9616 11.9378 30.0161 12.0004 30.0826ZM21.6788 30.4236C21.704 30.4892 21.7201 30.4877 21.8106 30.4115C21.9122 30.3259 21.9125 30.3261 21.8307 30.4233C21.78 30.4835 21.7586 30.5636 21.7758 30.629C21.7998 30.7209 21.7843 30.7361 21.6672 30.7361C21.5806 30.7361 21.4676 30.7937 21.3587 30.8934L21.1868 31.0508L21.329 30.8934L21.4713 30.7361H21.3411C21.1668 30.7361 21.1767 30.6927 21.3926 30.508C21.5999 30.3306 21.6387 30.3192 21.6788 30.4236ZM21.1139 31.1385C21.1139 31.1469 21.043 31.2177 20.9563 31.2959L20.7988 31.438L20.9411 31.2807C21.0739 31.1341 21.1139 31.1011 21.1139 31.1385ZM20.726 31.5258C20.726 31.5341 20.6552 31.6049 20.5685 31.6831L20.411 31.8253L20.5533 31.668C20.6861 31.5213 20.726 31.4884 20.726 31.5258Z" fill="#FF7D5F"/>
</svg>
