<svg fill="none" xmlns="http://www.w3.org/2000/svg" viewBox="0 0 43 65"><g clip-path="url(#clip0)" fill="#fff"><path d="M3.099 22.265c-.388-3.083 2.324-6.123 3.874-8.65 1.678-2.74 3.572-4.538 6.284-6.294 2.453-1.584 5.036-3.254 7.92-4.025 3.271-.856 6.413.257 9.383 1.627 5.596 2.612 8.006 7.537 8.953 13.403.474 2.826.947 6.209-.602 8.778-1.378 2.312-4.348 2.912-6.199 4.753-1.721 1.755-3.056 3.982-4.26 6.08-.69 1.2-1.335 2.441-1.766 3.726a8.632 8.632 0 00-.387 1.413c-.13.556.043 2.183-.215 2.569-.689 1.07-3.444.856-4.606.899-.301 0-2.238.214-2.41 0-.345-.428-.043 1.713-.086-.814-.043-3.083 1.377-6.551 2.324-9.463.818-2.526 1.85-5.052 4.132-6.594 2.195-1.413 4.09-2.526 5.553-4.796 2.496-3.896 2.711-8.692-1.42-11.518-3.875-2.655-9.728-2.44-13.258.728-2.066 1.841-2.453 4.367-3.4 6.808-1.292 3.554-8.179 1.37-10.632.214C.559 20.296-.99 22.865.774 23.68c4.09 1.97 12.612 4.196 14.85-1.242 1.205-2.912 1.42-5.91 4.778-7.237 2.669-1.07 6.198-.728 8.307 1.37 2.583 2.57.474 6.68-1.85 8.735-1.163 1.028-2.626 1.542-3.831 2.484a11.09 11.09 0 00-2.626 3.04c-1.463 2.484-2.238 5.395-3.056 8.136-.689 2.312-2.195 6.508-1.162 8.906 1.076 2.527 5.251 1.756 7.36 1.542 2.238-.257 5.38-.3 5.639-3.126.172-1.884.215-3.383 1.033-5.181.732-1.542 1.679-2.997 2.626-4.453.904-1.37 1.893-2.784 3.314-3.726 1.162-.813 2.54-1.284 3.616-2.183 4.605-3.854 3.4-11.134 2.066-16.229-1.68-6.038-5.295-10.32-11.106-12.76C27.633.47 24.492-.472 21.134.213c-3.702.771-6.973 2.912-10.072 4.925-3.056 2.012-4.993 4.196-6.887 7.279-1.851 2.954-4.563 6.166-4.09 9.848.216 1.884 3.229 1.884 3.014 0zM27.978 53.267c-2.841-2.055-8.178-2.012-11.062.086-2.841 2.055-3.013 7.022-.818 9.549 2.497 2.869 7.188 2.654 10.115.514 2.798-2.056 3.659-7.323 1.076-9.763-1.42-1.328-3.53.77-2.109 2.098 1.636 1.541.13 4.967-1.636 5.695-2.023.856-4.777.985-5.724-1.413-.861-2.184.43-4.453 2.625-4.882 2.023-.428 4.262-.514 6.026.728 1.55 1.114 3.056-1.498 1.507-2.612z"/><path d="M24.491 42.22l-3.099.77c.474.814.99 1.67 1.463 2.484 1.249-1.541 2.497-3.04 3.745-4.581 1.248-1.5-.645-3.34-2.109-2.099a23.402 23.402 0 01-3.96 2.612c.517.857 1.033 1.713 1.507 2.57 2.711-1.884 5.423-3.768 8.178-5.653.99-.685.99-2.44-.345-2.74-2.797-.6-5.509-.514-8.264.3.388.899.775 1.84 1.162 2.74a134.144 134.144 0 0110.675-6.98c1.679-.984.215-3.468-1.506-2.569-3.272 1.67-6.586 3.383-10.245 3.811.345.857.689 1.713 1.076 2.57 5.252-5.096 11.622-8.693 18.724-10.62 1.894-.514 1.076-3.254-.818-2.869-3.27.643-6.37 1.713-9.383 3.169l2.066 2.055c1.507-2.483 3.444-4.581 5.854-6.209 1.033-.727.947-2.355-.345-2.74-2.582-.77-5.122-.814-7.704-.128.387.899.775 1.84 1.162 2.74 2.324-1.798 4.82-3.297 7.446-4.625 1.42-.685.646-2.74-.774-2.783-.345 0-5.252-.257-5.123.086-.043.385-.086.77-.172 1.156.345-.728 1.507-1.413 2.11-1.927.86-.728 1.721-1.456 2.625-2.184 1.12-.942-.086-2.997-1.463-2.483l-6.07 2.184c.56.728 1.12 1.456 1.722 2.183.947-1.584 4.39-5.866.861-6.894-1.377-.385-2.755.429-3.874 1.071-1.678.942-3.228 2.098-4.691 3.34.774.6 1.592 1.199 2.367 1.798 1.12-1.84 2.54-3.425 4.347-4.71-.602-.77-1.205-1.584-1.808-2.355a84.431 84.431 0 01-8.307 6.808c.689.172 1.378.343 2.066.557-.602-.942 1.162-3.169 1.593-4.068.732-1.413 1.463-2.783 2.195-4.196.775-1.456-1.12-3.083-2.367-1.799-2.195 2.27-4.39 4.497-6.586 6.766.818.471 1.679.985 2.497 1.456.129-.814.344-1.413.774-2.098 1.12-1.627-1.463-2.998-2.582-1.499-1.593 2.055-3.185 4.154-4.778 6.209.904.385 1.85.77 2.755 1.156.645-1.713 2.152-4.196 1.894-6.038-.216-1.456-1.55-2.055-2.927-1.67-1.765.471-3.444 2.355-4.735 3.554-1.808 1.67-3.443 3.512-4.993 5.438.818.472 1.679.985 2.496 1.456a22.674 22.674 0 014.52-6.98c-.818-.47-1.679-.984-2.496-1.455a141.462 141.462 0 00-3.96 12.546c-.474 1.756 1.764 2.44 2.754 1.156 1.937-2.569 3.874-5.138 5.854-7.665-.947-.256-1.85-.513-2.798-.77-.258 1.927-.473 3.896-.731 5.823-.259 1.927 2.754 1.884 3.013 0 .258-1.927.473-3.896.731-5.823.216-1.67-2.023-1.756-2.797-.771-1.937 2.57-3.874 5.138-5.854 7.665.904.385 1.85.77 2.754 1.156a177.058 177.058 0 013.96-12.546c.517-1.413-1.506-2.527-2.496-1.456-2.324 2.44-4.046 5.181-5.294 8.307-.56 1.37 1.592 2.612 2.496 1.456 1.205-1.542 2.497-3.04 3.917-4.41.904-.9 3.4-3.897 4.778-3.812-.345-.128-.689-.3-1.076-.428l.301.3c-.13-.343-.301-.685-.43-1.07.129 1.498-1.292 3.853-1.808 5.266-.646 1.756 1.808 2.398 2.755 1.156 1.592-2.055 3.185-4.153 4.777-6.209-.86-.513-1.721-1.027-2.582-1.498-.603.899-.947 1.755-1.076 2.826-.172 1.37 1.377 2.655 2.496 1.456 2.195-2.27 4.39-4.496 6.586-6.766-.775-.6-1.593-1.199-2.368-1.798-1.162 2.226-2.324 4.41-3.443 6.637-.775 1.541-1.334 3.083-.344 4.624.43.643 1.377 1.028 2.066.557a95.62 95.62 0 008.91-7.28c1.205-1.155-.43-3.34-1.808-2.354-2.195 1.584-4.003 3.468-5.424 5.78-.947 1.542 1.12 2.87 2.368 1.799a31.876 31.876 0 013.099-2.27c.43-.257.86-.514 1.334-.77.215-.129.474-.257.732-.386.473-.086.516-.214.086-.385-.043-.386-.086-.771-.172-1.156-.215 1.241-1.464 2.74-2.11 3.81-.602 1.071.431 2.655 1.722 2.184l6.07-2.184c-.474-.813-.99-1.67-1.464-2.483-1.463 1.242-3.271 2.398-4.563 3.811-.688.728-1.076 1.456-.645 2.44.43 1.028 1.377 1.328 2.453 1.414 1.808.214 3.616.171 5.424.257-.259-.942-.517-1.842-.775-2.784a43.113 43.113 0 00-7.447 4.625c-1.29.985-.602 3.211 1.163 2.74 2.109-.556 4.003-.514 6.112.129-.13-.9-.259-1.841-.345-2.74a24.352 24.352 0 00-6.93 7.279c-.817 1.37.775 2.654 2.067 2.055a36.006 36.006 0 018.651-2.869c-.258-.942-.516-1.927-.818-2.869a44.826 44.826 0 00-20.144 11.304c-.86.814-.258 2.698 1.076 2.57 4.262-.514 8.006-2.27 11.794-4.24a79.604 79.604 0 01-1.506-2.569c-3.66 2.184-7.232 4.496-10.675 6.98-1.291.942-.603 3.254 1.162 2.74 2.238-.642 4.39-.77 6.672-.3-.13-.898-.259-1.84-.345-2.74a1344.366 1344.366 0 01-8.178 5.652c-1.592 1.114-.215 3.512 1.507 2.57a25.074 25.074 0 004.562-3.083l-2.109-2.099c-1.248 1.542-2.496 3.04-3.745 4.582-.904 1.113-.086 2.912 1.464 2.484l3.099-.771c1.808-.428 1.033-3.34-.86-2.869zM19.585 59.091a19.755 19.755 0 014.735-.685c-.345-.856-.69-1.713-1.077-2.57a31.98 31.98 0 01-6.8 5.696c-1.636 1.027-.173 3.554 1.506 2.569 1.808-1.028 3.702-1.841 5.682-2.526 1.808-.6 1.033-3.512-.818-2.87a35.585 35.585 0 00-6.413 2.827c.516.856 1.033 1.713 1.506 2.569 2.755-1.713 5.251-3.768 7.404-6.166.86-.942.3-2.57-1.077-2.57-1.893.043-3.744.3-5.552.771-1.765.6-.947 3.469.904 2.955z"/></g><defs><clipPath id="clip0"><path fill="#fff" d="M0 0h43v65H0z"/></clipPath></defs></svg>
