<svg viewBox="0 0 68 51" fill="none" xmlns="http://www.w3.org/2000/svg"><path d="M40.638 51C58.286 45.724 68 34.853 68 20.464 68 8.314 61.038 0 51 0c-8.095 0-13.762 5.436-13.762 13.11 0 7.674 5.505 13.11 13.276 13.11h.648c-1.133 5.115-5.99 8.952-14.895 11.67L40.638 51zM4.371 51c17.648-5.276 27.362-16.147 27.362-30.536 0-12.15-6.962-20.464-17-20.464C6.638 0 .971 5.436.971 13.11c0 7.674 5.505 13.11 13.277 13.11h.647C13.762 31.334 8.905 35.171 0 37.89L4.371 51z" fill="#FF719C" fill-opacity=".3"/></svg>