<svg width="385" height="292" viewBox="0 0 385 292" fill="none" xmlns="http://www.w3.org/2000/svg">
<path d="M230.083 292C330 261.793 385 199.549 385 117.166C385 47.5987 345.583 0 288.75 0C242.917 0 210.833 31.1223 210.833 75.0596C210.833 118.997 242 150.119 286 150.119H289.667C283.25 179.411 255.75 201.379 205.333 216.94L230.083 292ZM24.75 292C124.667 261.793 179.667 199.549 179.667 117.166C179.667 47.5987 140.25 0 83.4167 0C37.5833 0 5.50003 31.1223 5.50003 75.0596C5.50003 118.997 36.6667 150.119 80.6667 150.119H84.3333C77.9167 179.411 50.4167 201.379 0 216.94L24.75 292Z" fill="white"/>
</svg>
