<svg width="42" height="43" viewBox="0 0 42 43" fill="none" xmlns="http://www.w3.org/2000/svg">
<path fill-rule="evenodd" clip-rule="evenodd" d="M19.251 0.262177C17.3955 0.598386 14.5179 1.75772 12.9644 2.79455C12.2971 3.24009 11.2967 4.08391 10.7416 4.66971C9.60644 5.86769 6.38326 10.6462 6.38326 11.1313C6.38326 11.5856 6.8806 11.9713 8.02467 12.4038C8.57636 12.6126 9.84007 13.2758 10.8328 13.8779C11.8254 14.48 13.0003 15.1118 13.4437 15.2817C14.2431 15.5883 14.2533 15.5872 14.6775 15.1493C14.9127 14.9065 15.4696 14.0486 15.9149 13.2429C16.3601 12.4371 17.1835 11.0363 17.7447 10.1298C19.9887 6.50495 20.2564 6.2321 21.0066 6.80472C21.3566 7.07189 23.1621 9.93388 23.1621 10.2214C23.1621 10.3258 22.5876 10.9551 21.8855 11.6202C20.4051 13.0224 20.2342 13.6408 21.0896 14.4998C21.5355 14.9475 21.6857 14.9825 23.1588 14.9825C24.0324 14.9825 25.9948 15.1515 27.5199 15.3581C29.0449 15.5645 30.7193 15.7088 31.2408 15.6786C32.3722 15.6128 32.2187 15.8692 34.0158 11.0454C36.2042 5.17183 36.3348 4.72703 36.0151 4.237C35.6662 3.70228 34.9888 3.68507 33.6965 4.17821C33.1687 4.37965 32.6432 4.54446 32.5289 4.54446C32.4144 4.54464 31.9219 4.21337 31.4346 3.80849C30.9471 3.4038 29.3174 2.45596 27.8128 1.70242C25.2319 0.409955 24.979 0.32224 23.3445 0.15267C21.2134 -0.0683565 21.0502 -0.0639615 19.251 0.262177ZM26.1621 2.88245C27.0931 3.21335 27.4613 3.49884 28.7608 4.89715C30.2264 6.47418 31.6776 7.47457 32.4992 7.47457C32.9413 7.47457 32.9112 7.69853 32.2542 9.30578C31.9455 10.0612 31.4202 11.3796 31.087 12.2357L30.4811 13.7922L29.4206 13.7783C28.1865 13.762 25.0787 13.5315 24.4907 13.4124C23.9153 13.296 24.1271 12.9127 25.1905 12.1456C26.2011 11.4166 26.808 10.5483 26.809 9.82987C26.8099 9.15818 23.2367 4.94494 21.5557 3.63544C20.8492 3.08498 20.3166 2.56071 20.3723 2.47006C20.5687 2.15125 24.991 2.46622 26.1621 2.88245ZM16.5321 4.58547C16.5562 5.771 16.5323 5.87007 16.2988 5.54979C15.9333 5.04785 15.614 3.89474 15.7453 3.55121C15.8059 3.39263 16.0017 3.26316 16.1805 3.26353C16.4595 3.26408 16.5091 3.45068 16.5321 4.58547ZM18.6026 5.03082C18.6026 5.3945 18.2789 5.32986 18.0619 4.92297C17.7466 4.3313 17.8372 4.08903 18.2379 4.45308C18.4385 4.63528 18.6026 4.89531 18.6026 5.03082ZM14.5836 5.3229C14.6943 5.85175 15.0694 6.81607 15.4172 7.46615C16.5749 9.63045 15.9944 9.29589 14.3062 6.82614L13.2485 5.27859L13.6777 4.82005C13.9137 4.5679 14.1686 4.36152 14.2443 4.36152C14.3202 4.36152 14.4727 4.79405 14.5836 5.3229ZM13.0891 7.89941C13.3857 8.53576 13.8845 9.41144 14.1973 9.84507C14.5101 10.2785 14.7216 10.7056 14.6674 10.7936C14.4382 11.1659 14.022 10.8843 13.1448 9.76358C11.8355 8.09059 11.5519 8.21566 12.1406 10.2062C12.2978 10.738 12.3888 11.211 12.3427 11.2573C12.1933 11.4073 11.0439 10.8326 10.6858 10.429C10.2993 9.9934 10.2935 10.0137 11.3192 8.20705C11.9739 7.05376 12.2053 6.74209 12.4069 6.74209C12.4855 6.74209 12.7924 7.26288 13.0891 7.89941ZM8.489 16.0023C7.7914 16.1413 6.35517 16.4953 5.29737 16.789C4.23958 17.0826 2.96694 17.4186 2.46923 17.5358C1.38845 17.7899 1.09427 18.0057 1.09427 18.5439C1.09427 18.9581 1.53381 19.4384 2.41652 19.9887C2.69246 20.1608 2.91806 20.3694 2.91806 20.4523C2.91806 20.5355 2.40175 21.2134 1.7709 21.9589C0.115081 23.9155 0 24.1171 0 25.0633C0 26.1459 0.457406 27.2582 3.00305 32.3665C5.02125 36.4163 5.10168 36.5437 6.28404 37.5571C6.96705 38.1425 7.80107 38.6785 8.19483 38.7849C9.74578 39.2043 12.6264 39.5187 14.9275 39.5196L17.3621 39.5207L17.8912 38.9519L18.4203 38.3832L18.4624 35.61C18.5259 31.4376 18.5138 31.1178 18.2826 30.8856C18.1418 30.7443 16.9955 30.6478 14.9162 30.6024C11.1804 30.5205 8.22747 30.2753 7.97925 30.0261C7.78137 29.8274 8.36644 28.4104 9.18168 27.1137C9.76529 26.1853 10.2546 26.111 11.3883 26.7781C12.3038 27.3168 13.4003 27.5554 13.5845 27.2558C13.8416 26.8385 13.6948 25.8355 12.9812 23.1314C12.5825 21.6206 12.0777 19.5801 11.8594 18.597C11.428 16.6537 10.8601 15.7013 10.1514 15.7322C9.93454 15.7417 9.1866 15.8631 8.489 16.0023ZM33.8894 18.2994C30.4746 20.5628 30.2749 20.7391 30.2749 21.4917C30.2749 22.1327 31.5025 24.8363 33.3274 28.2137C33.967 29.3976 34.4437 30.4419 34.3866 30.5344C34.225 30.797 31.9681 31.2427 30.4573 31.3105L29.0894 31.3718L28.9822 29.8001C28.8649 28.0802 28.7692 27.801 28.2972 27.801C27.9165 27.801 21.3383 34.3944 21.3383 34.7759C21.3383 35.0996 21.7009 35.6477 22.7206 36.8655C23.1422 37.369 23.7488 38.2343 24.0685 38.7882C24.3882 39.3422 24.8478 40.0014 25.0897 40.2532C25.3317 40.505 25.7411 40.9767 25.9996 41.3016C26.4513 41.869 27.9494 43 28.2496 43C28.3293 43 28.5509 42.827 28.742 42.6153C28.997 42.3331 29.1137 41.8582 29.1806 40.8298L29.2718 39.4291L31.6427 39.3292C33.7299 39.2411 34.1227 39.172 34.9255 38.7523C36.3231 38.0213 37.3061 37.1557 38.4073 35.6858C39.651 34.026 40.1286 33.0882 40.7449 31.0971C41.0099 30.2411 41.4005 29.1286 41.6128 28.625C42.5426 26.4197 41.7782 22.9651 39.5306 19.2157C38.3524 17.2499 37.6499 16.4475 37.1077 16.4475C36.8743 16.4475 35.426 17.2809 33.8894 18.2994ZM9.81599 18.8738C10.4313 19.9667 11.6595 23.1852 11.8052 24.0871C11.9155 24.7694 11.813 24.8048 10.8714 24.4098C10.2825 24.1627 10.1497 24.1622 9.68194 24.405C8.49502 25.0212 6.69002 27.7259 5.90907 30.0578C5.65028 30.8309 5.36485 31.4634 5.27512 31.4634C4.98131 31.4634 2.73568 26.5133 2.73568 25.8656C2.73568 25.666 3.39972 24.1343 4.48305 21.8349C5.04186 20.649 5.03712 20.2727 4.45515 19.5783C4.19727 19.2705 4.03167 18.9447 4.08729 18.8542C4.24961 18.5909 5.8084 18.2324 7.38634 18.0956C8.18881 18.026 8.94185 17.9564 9.06003 17.9408C9.17803 17.9253 9.51817 18.345 9.81599 18.8738ZM36.8717 19.1311C37.4712 19.6757 37.2977 20.2476 36.4054 20.6686C35.2349 21.2211 34.1896 22.194 33.8493 23.0477C33.2694 24.5033 33.8798 24.5011 36.0962 23.0398C37.8531 21.8814 38.1918 21.7611 38.3712 22.2308C38.6069 22.847 38.4418 23.0558 37.262 23.6331C36.591 23.9615 35.6375 24.6257 35.1433 25.1089C34.6489 25.5924 34.2225 25.9632 34.1957 25.933C33.9919 25.7039 32.4634 22.4421 32.4634 22.2365C32.4634 22.005 36.1621 18.8281 36.4314 18.8281C36.4902 18.8281 36.6882 18.9645 36.8717 19.1311ZM39.3938 25.2058C39.3938 25.4537 39.1688 25.5953 38.5275 25.7508C38.051 25.8665 37.4637 26.0172 37.2224 26.0859C36.527 26.2835 36.9219 25.8467 37.9018 25.3345C38.939 24.7921 39.3938 24.7529 39.3938 25.2058ZM38.3652 28.6545C37.6315 29.5562 36.9239 29.9578 36.5193 29.702C35.8196 29.2595 36.0382 28.9107 37.419 28.267C38.1589 27.922 38.7849 27.7263 38.8211 27.8286C38.8573 27.9303 38.6521 28.302 38.3652 28.6545ZM38.4648 31.8754C37.9255 33.2521 37.0922 34.7748 36.45 35.5569C35.4659 36.7559 35.1293 36.846 31.5344 36.8746C29.7695 36.8885 28.2346 36.9566 28.1232 37.0257C28.0119 37.0947 27.8655 37.6432 27.7976 38.2444C27.7163 38.966 27.5925 39.3376 27.4334 39.3376C27.301 39.3376 26.3592 38.2898 25.3406 37.0092L23.4889 34.6806L25.3189 32.889C26.3253 31.9034 27.2277 31.0971 27.3242 31.0971C27.4207 31.0971 27.5507 31.3017 27.6132 31.5517C27.8644 32.5566 29.8434 32.9536 32.6961 32.5716C35.7291 32.1657 36.3722 32.0173 37.3876 31.4896C38.8367 30.7366 38.9018 30.7598 38.4648 31.8754ZM8.29678 32.1501C7.99822 32.8764 7.85779 33.7879 7.95828 34.3475C8.03762 34.7885 7.99859 34.9427 7.80782 34.9427C7.16785 34.9427 6.92875 33.8976 7.22676 32.4019C7.32378 31.9144 7.42136 31.8296 7.8846 31.8296C8.33106 31.8296 8.40493 31.8869 8.29678 32.1501ZM10.2227 32.3568C10.2781 32.4195 10.2315 33.0474 10.1189 33.7524L9.91429 35.0342L9.51671 33.779C8.98927 32.1142 8.99784 31.977 9.62048 32.1245C9.89642 32.1898 10.1674 32.2944 10.2227 32.3568ZM12.5252 32.3931C12.6591 32.5275 12.6668 32.833 12.5491 33.3545C12.3923 34.0498 12.4512 35.0969 12.7082 36.1787C12.7782 36.473 12.724 36.5908 12.5192 36.5908C12.1163 36.5908 11.9256 36.1529 11.5993 34.4781C11.443 33.6762 11.2628 32.8346 11.1988 32.6079C11.0945 32.2382 11.1466 32.1959 11.7056 32.1959C12.0485 32.1959 12.4171 32.2845 12.5252 32.3931ZM16.6085 32.3854C16.9227 32.5542 16.9612 32.7841 16.9612 34.4913C16.9612 35.5532 16.8855 36.4076 16.7913 36.4076C16.6979 36.4076 16.483 35.7834 16.314 35.0203C16.0092 33.6451 15.6373 33.1516 15.3041 33.6799C15.2155 33.8205 15.1418 34.6319 15.1402 35.4829C15.1384 36.5534 15.0791 36.9717 14.9479 36.84C14.7413 36.6325 13.496 33.0287 13.496 32.6385C13.496 32.4792 13.819 32.3755 14.4535 32.3308C14.9802 32.2938 15.601 32.2484 15.8334 32.2298C16.0656 32.2111 16.4145 32.2812 16.6085 32.3854Z" fill="#009564"/>
</svg>
