<svg width="54" height="60" viewBox="0 0 54 60" fill="none" xmlns="http://www.w3.org/2000/svg">
<path d="M35.9809 53.7836C35.4689 53.0036 34.7893 52.4147 33.9635 51.936C32.7737 51.2371 31.6384 50.459 30.4954 49.7002C30.3897 49.6255 30.3147 49.362 30.3651 49.2367C30.8502 48.0319 31.351 46.8443 31.8948 45.6624C31.9938 45.4446 32.3077 45.1991 32.5382 45.1887C34.3216 45.0598 36.0972 44.9502 37.8866 44.8907C38.8986 44.8509 39.2166 44.7074 39.6087 43.7897C39.9853 42.9106 39.3495 41.9038 38.3982 41.9338C35.8273 42.0228 33.2683 42.1387 30.6947 41.9255C28.7679 41.7641 26.8145 41.8935 24.8706 41.9151C24.687 41.9214 24.4234 41.9858 24.3359 42.1189C24.1063 42.4643 24.3737 43.7957 24.6989 44.1123C25.3552 44.7591 26.06 45.3132 27.0988 45.0943C27.2843 45.0552 27.4818 45.0989 27.6752 45.0963C28.8788 45.1426 28.8788 45.1426 28.6084 46.2639C28.5813 46.3872 28.5582 46.5009 28.5214 46.6204C28.0393 48.1832 27.6177 48.3309 26.1541 47.525C25.2109 47.0005 24.2735 46.4336 23.2722 46.0536C21.4005 45.3338 19.4686 44.7354 17.5658 44.0926C16.8599 43.8503 16.8049 43.7619 17.0766 43.0872C17.5927 41.8053 18.1128 40.5138 18.6289 39.2318L18.6191 39.228C19.1508 37.9075 19.6981 36.6043 20.2005 35.2724C20.2955 35.0084 20.3393 34.5904 20.1902 34.3984C19.7707 33.8664 19.31 33.2961 18.7288 32.9687C17.9383 32.5149 17.0155 32.2772 16.151 31.9507C15.756 31.8076 15.5697 31.5675 15.588 31.1285C15.627 30.3853 15.6093 29.6422 15.6542 28.9124C15.6994 28.2942 15.7093 27.6511 15.8953 27.0768C16.3449 25.7354 16.857 24.4073 17.4082 23.0945C18.4273 20.704 20.0634 18.889 22.5987 17.9607C23.2623 17.718 23.4422 17.7771 23.6374 18.4445C24.4972 21.3123 25.3979 24.1627 26.1698 27.0519C26.6614 28.8948 26.9558 30.8056 27.342 32.6853C27.5638 33.7647 28.1851 34.4982 29.1993 34.5931C30.0944 34.675 30.4804 35.0935 30.5842 35.9037C30.5982 36.0095 30.6395 36.1037 30.6671 36.2038C31.0727 37.3326 31.9238 37.7765 33.103 37.4898C33.6302 37.3611 34.1712 37.2823 34.6885 37.1498C35.1278 37.0425 35.5769 36.939 35.9847 36.7414C37.1513 36.1485 37.4075 35.5124 37.0446 34.2775C36.9972 34.114 36.9538 33.9409 36.8928 33.7832C36.6662 33.0812 36.4728 32.3811 36.9417 31.6942C37.004 31.5958 37.0348 31.4629 37.0345 31.3512C36.9867 30.3175 37.0327 29.2758 36.8638 28.2617C36.185 24.3826 35.4319 20.5191 34.7159 16.6478C34.5968 15.9878 34.6689 15.8932 35.3188 15.6563C35.4379 15.6136 35.553 15.5805 35.6623 15.5339C36.5972 15.2075 36.9671 14.7385 36.8355 13.7725C36.684 12.6871 36.4798 11.5923 36.1663 10.544C35.754 9.12258 35.2121 8.86632 33.7359 9.15978C31.8614 9.54308 30.6013 8.85014 29.9674 7.10788C29.9103 6.94056 29.8629 6.77707 29.7746 6.63103C29.6039 6.35241 29.4603 6.00632 29.2059 5.85118C28.7069 5.54473 28.3581 5.17426 28.1221 4.63594C27.8722 3.99178 27.4049 3.83154 26.7725 4.05303C26.2591 4.23178 25.7576 4.43744 25.2443 4.61619C24.7719 4.77749 24.5852 5.07264 24.5592 5.58676C24.5387 5.94685 24.368 6.37094 24.1108 6.61626C23.7406 6.97361 23.5892 7.34951 23.6823 7.8209C23.7893 8.3423 23.8923 8.87334 24.05 9.3811C24.1998 9.85231 24.0971 10.1356 23.6328 10.3893C23.2719 10.583 22.9231 10.9152 22.7424 11.2797C22.5519 11.6403 22.359 11.8103 21.9703 11.8482C19.6011 12.0828 17.3936 12.8715 15.2177 13.7505C14.5561 14.0164 13.8559 14.4345 13.4353 14.9729C12.4931 16.1888 11.5881 17.4527 10.8905 18.8199C9.72645 21.0646 9.16077 23.5095 8.95676 26.04C8.74701 28.6127 8.60757 31.1795 9.3003 33.7033C9.53312 34.5304 9.40225 35.2489 9.01356 35.9894C8.48686 36.9884 7.94061 37.9797 7.54104 39.0283C7.22484 39.8417 6.80463 40.4919 6.04976 40.9332C5.3944 41.3242 4.79212 41.8363 4.09934 42.1234C3.50607 42.3602 3.0986 42.6695 2.89307 43.2362C2.73986 43.6448 2.55342 44.0517 2.50964 44.4696C2.46974 44.8778 2.45375 45.4516 2.69667 45.6915C3.39998 46.3901 4.23384 46.9611 5.03262 47.5631C5.10309 47.613 5.23006 47.6068 5.32972 47.6122C5.53492 47.6366 5.74199 47.6283 5.94534 47.6854C7.09881 47.9686 8.23691 48.3462 9.41165 48.5484C10.7115 48.7773 11.9803 49.0832 13.2008 49.5934C17.8796 51.5769 22.7681 53.0959 27.2955 55.4553C29.4476 56.5748 31.869 56.8289 34.2438 57.1987C34.7754 57.2837 35.2555 57.1031 35.6335 56.7265C36.3193 56.0351 36.5107 54.604 35.9809 53.7836ZM34.9065 34.0225C34.9756 34.2726 35.0114 34.5208 35.0788 34.8594C34.6397 35.0225 34.224 35.1837 33.8063 35.3217C33.4939 35.4228 33.2748 35.2926 33.1099 35.0274C32.6488 34.2896 32.6894 34.1604 33.4915 33.8268C33.6554 33.7569 33.8311 33.714 33.9735 33.6135C34.4862 33.2114 34.7387 33.3992 34.9065 34.0225ZM33.9186 11.6293C34.8787 11.2123 34.9921 11.2678 35.0516 12.2726C35.0821 12.7307 35.099 13.1946 35.1201 13.7606C34.8431 13.8866 34.6032 14.0606 34.3415 14.0923C34.2341 14.1061 34.0399 13.8295 33.9671 13.6449C33.8175 13.2295 33.74 12.7754 33.5943 12.3504C33.4585 11.985 33.5498 11.7864 33.9186 11.6293ZM32.2258 14.1471C33.0616 18.2548 33.8701 22.3742 34.7157 26.4858C34.9515 27.671 35.2751 28.8347 35.5343 30.0179C35.568 30.1872 35.4868 30.5013 35.36 30.5633C33.9454 31.2378 32.5093 31.8815 31.0731 32.5253C30.9228 32.5893 30.7392 32.5956 30.5205 32.6329C30.4263 32.4734 30.3106 32.339 30.2692 32.189C29.6401 30.0693 29.0247 27.9439 28.3956 25.8243C28.1688 25.0665 27.8171 24.3379 27.6509 23.5703C27.0828 20.9056 26.6865 18.2077 25.8276 15.619C25.7034 15.2247 25.8299 15.0511 26.2066 14.9305C27.7878 14.4326 29.361 13.8982 30.9519 13.4041C31.8108 13.1261 32.0495 13.264 32.2258 14.1471ZM30.5688 10.5329C30.7602 10.5073 31.0496 10.5757 31.1652 10.7101C31.3083 10.8886 31.3189 11.1716 31.392 11.4679C31.1657 11.5803 31.0058 11.6963 30.8378 11.7199C29.01 12.0434 27.19 12.3476 25.3564 12.6576C25.0771 12.7047 24.792 12.7383 24.6698 12.3671C24.5535 12.0094 24.7209 11.7624 25.0293 11.671C25.8062 11.4278 26.5968 11.1789 27.3993 11.0127C28.444 10.8072 29.5083 10.6653 30.5688 10.5329ZM25.8426 7.6273C26.5746 7.41127 27.3284 7.28182 28.0841 7.11963C28.1485 7.10017 28.2169 7.12691 28.3596 7.138C28.4342 7.28986 28.5578 7.46082 28.6072 7.64741C28.9451 9.02866 29.1302 8.8779 27.6773 9.11354C27.2301 9.18427 26.777 9.24154 26.3357 9.32572C25.9413 9.40591 25.7338 9.24677 25.6507 8.89086C25.5973 8.65808 25.4814 8.41202 25.514 8.19051C25.5388 7.98828 25.6767 7.67403 25.8426 7.6273ZM32.4671 54.8094C31.4537 54.2908 30.4694 53.7279 29.4696 53.2036C26.253 51.5234 22.8851 50.2192 19.4861 48.9362C17.8158 48.3062 16.136 47.7281 14.3689 47.3949C14.0327 47.3305 13.7429 47.0946 13.4124 46.9879C12.6771 46.7341 11.9495 46.4053 11.1872 46.2749C9.56087 45.9855 7.93846 45.6864 6.47299 44.9133C6.15603 44.7449 5.91295 44.4491 5.62703 44.2036C5.892 43.939 6.10203 43.586 6.41807 43.4195C6.82383 43.1987 7.30395 43.0181 7.74354 43.0225C8.30623 43.0304 8.54389 42.7774 8.71464 42.3533C9.522 40.4043 10.3294 38.4553 11.1367 36.5064C11.1484 36.4774 11.1541 36.4351 11.1755 36.41C12.3553 34.1826 12.1456 31.8364 11.926 29.4305C11.4809 24.6054 12.7349 20.2542 16.2398 16.6929C17.6269 15.2715 19.3084 14.3556 21.2649 13.9374C21.6125 13.8612 21.7964 13.9665 21.9223 14.2722C22.06 14.6048 22.1938 14.9471 22.3549 15.2777C22.5258 15.6122 22.3972 15.7627 22.0694 15.9024C21.2712 16.2264 20.471 16.5274 19.718 16.936C17.6717 18.0553 16.1737 19.6676 15.2849 21.819C14.7124 23.2128 14.1301 24.6027 13.587 26.0079C12.9856 27.5577 13.0779 29.1554 13.3735 30.7543C13.4607 31.2123 13.585 31.6624 13.6957 32.1183C13.832 32.6512 14.1359 33.0487 14.6348 33.2994C15.5093 33.7413 16.3799 34.1929 17.2408 34.6407C17.8395 34.9526 17.9042 35.0448 17.6402 35.6444C17.1219 36.8474 16.4921 38.018 16.0422 39.2477C15.5129 40.703 15.0911 42.2002 14.6732 43.6878C14.5224 44.2312 14.7015 44.7139 15.2201 45.028C15.9774 45.48 16.7076 45.9994 17.5135 46.3588C18.8358 46.9533 20.2145 47.436 21.5641 47.9631C21.5563 47.9824 21.5524 47.992 21.5447 48.0113C23.3831 48.7294 25.2624 49.3742 27.0484 50.1944C28.0813 50.6647 28.9841 51.4301 29.9587 52.045C30.8727 52.6139 31.808 53.1577 32.722 53.7266C32.8766 53.8204 33.0607 53.9816 33.1021 54.1316C33.1555 54.3644 33.1367 54.6359 33.0514 54.8479C33.0417 54.9 32.6392 54.8878 32.4671 54.8094Z" fill="#FF719C"/>
<path d="M15.923 35.8227C15.3057 35.1354 14.5238 34.9973 13.5323 35.3798C12.7828 35.6671 12.3232 36.1903 12.0555 36.9113C11.9568 37.2408 11.8248 37.5686 11.7691 37.9037C11.6229 38.7167 12.0909 39.8031 12.6444 40.0304C13.556 40.4088 14.8542 40.0234 15.4107 39.2034C15.6325 38.8773 15.8485 38.5377 16.0449 38.1905C16.5252 37.363 16.4777 36.4409 15.923 35.8227ZM14.1752 38.2523C13.8124 37.776 13.8803 37.5794 14.4522 37.3677C14.674 37.7444 14.4832 37.9933 14.1752 38.2523Z" fill="#FF719C"/>
<path d="M28.2104 22.8535C28.2392 23.4002 28.584 23.7245 29.0906 23.9001C29.9766 24.2015 30.7123 23.8641 31.3752 23.3422C33.2352 21.8711 32.3135 19.269 30.9305 18.6842C30.5357 18.6528 30.0858 18.4771 29.7579 18.6167C28.9246 18.9717 28.1954 19.5458 28.1454 20.5414C28.0947 21.3136 28.1672 22.0893 28.2104 22.8535ZM30.3706 20.44C30.472 20.3569 30.7456 20.3522 30.8611 20.4308C31.2956 20.7008 31.4497 21.3299 31.2655 21.8157C31.0695 22.3304 30.673 22.3875 30.3202 21.9708C29.983 21.5714 29.9847 20.7801 30.3706 20.44Z" fill="#FF719C"/>
</svg>
