<svg width="51" height="51" viewBox="0 0 51 51" fill="none" xmlns="http://www.w3.org/2000/svg">
<path d="M48.288 33.5999C48.2133 33.2884 47.933 33.0153 47.6965 32.7482C47.3866 32.3957 47.052 32.062 46.6953 31.7608C43.5806 29.0318 40.4523 26.3054 37.3239 23.579C35.6495 22.1232 33.9587 20.6563 32.2484 19.2355C31.3661 18.4948 30.4064 17.8676 29.5462 17.0945C29.1815 16.7523 28.8645 16.2172 28.7854 15.7366C28.5027 14.0629 28.3297 12.3686 28.1018 10.6846C28.0337 10.1879 28.2383 9.85238 28.6966 9.65341C28.8942 9.57398 29.078 9.49713 29.2756 9.4177C30.8808 8.76354 31.7099 7.47621 31.463 5.76745C31.263 4.4462 30.6485 3.32988 28.9862 3.47107C28.4412 3.51643 27.8715 3.58056 27.3425 3.70786C25.9007 4.03422 24.4696 4.41521 23.0415 4.73901C21.819 5.02435 20.5996 5.25251 19.3824 5.56517C18.2584 5.84623 17.1477 6.19557 16.0317 6.51759C16.0291 6.50393 16.0264 6.49028 16.0238 6.47662C15.4209 6.58942 14.8264 6.67234 14.2315 6.82611C13.6229 6.98243 13.0196 7.16608 12.438 7.38812C11.7083 7.65203 11.1881 8.11732 11.1555 8.97259C11.0828 10.5713 12.1504 11.9001 13.7421 12.1259C14.341 12.212 14.9593 12.252 15.564 12.2945C15.9224 12.3124 16.1514 12.4677 16.2094 12.839C16.5353 14.5895 16.8914 16.3486 17.2036 18.1017C17.3598 18.9783 17.3762 19.8668 17.059 20.7188C16.3795 22.6291 15.711 24.5233 14.6137 26.2571C13.8563 27.4744 13.2434 28.7779 12.6279 30.0678C11.5661 32.2762 10.5697 34.5289 9.49413 36.7398C8.49903 38.78 7.96051 40.9046 7.80168 43.1563C7.68699 44.9044 8.22818 46.3741 9.32583 47.7114C10.1463 48.7184 11.1722 49.2482 12.4562 49.2061C14.9804 49.116 17.4671 48.9055 19.8705 47.9746C21.5469 47.3213 23.3365 46.9581 25.0748 46.4772C28.0962 45.6572 31.1038 44.8397 34.1305 44.0469C36.0496 43.5464 37.9766 43.0867 39.9116 42.6681C40.7832 42.4767 41.6875 42.3075 42.5826 42.3099C44.6109 42.2984 46.2634 41.5221 47.6732 40.1544C48.3891 39.4544 49.1797 38.6271 49.1067 37.5935C49.0053 36.2679 48.6029 34.9279 48.288 33.5999ZM16.3984 28.9377C17.0763 27.7495 17.7568 26.5748 18.4811 25.4062C18.5999 25.2141 18.8881 25.0894 19.1294 25.0159C19.5024 24.8895 19.6514 24.706 19.6566 24.2946C19.6566 23.8559 19.7714 23.4239 19.8288 22.9886C19.8377 22.8879 19.8438 22.7735 19.8116 22.6805C19.5282 22.0259 19.8264 21.5879 20.3024 21.1875C20.5473 20.986 20.7948 20.7982 20.9905 20.5634C21.3242 20.1613 21.2494 19.8498 20.7995 19.5802C20.7203 19.5384 20.6412 19.4966 20.5758 19.4522C20.3057 19.3046 19.9035 19.2808 19.9145 18.8258C19.9392 18.3683 20.1058 17.9833 20.515 17.7511C20.7457 17.623 20.9817 17.5222 21.1961 17.3831C21.589 17.1397 21.7008 16.765 21.5199 16.3459C21.3418 15.9405 21.0032 15.8057 20.57 15.9151C20.4494 15.9518 20.3424 15.986 20.2191 16.009C19.9093 16.0953 19.622 16.0783 19.4818 15.7224C19.3443 15.3802 19.4225 15.1249 19.7549 14.9354C20.1531 14.7193 20.5513 14.5033 20.9331 14.2762C21.315 14.0491 21.6235 13.7366 21.3883 13.2569C21.1721 12.802 20.7557 12.8516 20.3363 12.9584C20.0649 13.0234 19.7962 13.1019 19.5221 13.1532C19.2207 13.2096 19.0629 13.0551 19.0456 12.747C19.0195 12.1009 19.4198 11.5306 20.0554 11.44C20.6362 11.3597 21.2192 11.3638 21.8053 11.3108C22.0709 11.2894 22.356 11.2219 22.6057 11.1185C22.8554 11.0152 23.0918 10.8436 23.3199 10.7019C24.2184 10.1375 24.3363 9.64836 23.7369 8.75567C23.6149 8.56621 23.29 8.42886 23.0464 8.41781C22.6769 8.41618 22.2849 8.51784 21.9203 8.61437C21.3912 8.74166 20.8944 8.96198 20.3685 9.03208C18.6399 9.27059 16.9745 9.9077 15.1951 9.95758C14.5599 9.97735 14.1228 9.84685 13.6281 9.27422C13.941 9.13076 14.1801 8.9728 14.4488 8.89421C14.9368 8.77461 15.4353 8.70964 15.9259 8.60369C18.017 8.18415 20.1053 7.75096 22.1963 7.33142C22.3334 7.30579 22.4677 7.26649 22.6021 7.2272C23.3097 6.99574 24.0058 6.85134 24.7806 6.81959C25.7389 6.78183 26.6878 6.47692 27.6279 6.27272C27.8608 6.22914 28.0884 6.15824 28.4805 6.05659C28.3585 6.30585 28.3302 6.45267 28.2449 6.52524C27.5458 7.16555 26.8519 7.83317 26.1174 8.43764C25.6525 8.82184 25.3843 9.2683 25.4736 9.87431C25.8231 12.2573 26.1863 14.6378 26.5495 17.0183C26.5729 17.2121 26.6375 17.3981 26.6583 17.5782C26.7689 18.7322 27.204 19.6556 28.298 20.2435C28.7263 20.4747 29.0521 20.9091 29.37 21.3025C30.1334 22.2353 31.0679 22.9521 32.1791 23.4093C32.4275 23.5186 32.7122 23.5219 32.9827 23.5987C33.2695 23.6865 33.5975 23.7667 33.8291 23.9356C34.3251 24.2957 34.7495 24.7258 35.2233 25.1184C35.493 25.3368 35.5248 25.5007 35.2115 25.715C34.6343 26.106 34.0761 26.5218 33.5153 26.924C33.0808 27.2459 32.5739 27.3407 32.0877 27.1769C30.0964 26.5022 28.3139 27.048 26.619 28.0445C25.9432 28.4398 25.3055 28.8846 24.6434 29.2774C23.0307 30.2585 21.2994 30.4833 19.4797 29.9605C18.5316 29.685 17.6117 29.2627 16.5929 29.3542C16.2888 29.397 16.2822 29.1435 16.3984 28.9377ZM35.1899 29.696C35.1833 29.8812 35.1493 30.0715 35.129 30.2593C35.0199 31.0864 34.7826 31.3997 34.2049 31.4229C33.5287 31.4504 33.0575 31.0715 32.9004 30.3366C32.77 29.7383 32.8557 29.5949 33.4559 29.4684C33.8506 29.3804 34.2263 29.2677 34.621 29.1797C35.0046 29.1079 35.2115 29.2956 35.1899 29.696ZM34.0098 40.0643C33.7649 40.2658 33.2721 39.8485 33.1871 39.4115C33.0598 38.756 33.4694 38.0142 34.0868 37.7571C34.5615 37.5693 35.1202 37.9601 35.0788 38.4773C35.0196 39.196 34.5269 39.6562 34.0098 40.0643ZM46.4383 37.0879C46.3832 38.0464 45.7773 38.6552 44.9075 39.0019C44.8279 39.0309 44.7483 39.06 44.6524 39.0779C41.944 39.7545 39.2382 40.4447 36.5271 41.1077C36.1761 41.2016 35.8146 41.241 35.4531 41.2803C35.3982 41.2906 35.3302 41.2325 35.1799 41.1899C35.4561 40.7844 35.7703 40.4284 35.959 40.011C36.1644 39.5338 36.4004 38.9943 36.3623 38.5061C36.2485 36.9706 35.0294 36.2504 33.5647 36.7509C32.2728 37.1908 31.4791 38.0752 31.5332 39.0841C31.5691 39.9265 31.7942 40.7194 32.3401 41.4099C32.4298 41.5063 32.4838 41.6377 32.6058 41.8272C32.1943 41.9749 31.8239 42.115 31.4483 42.2277C30.0662 42.642 28.6841 43.0563 27.2968 43.4432C26.9047 43.5449 26.4672 43.4852 26.0725 43.5732C25.4502 43.7321 24.8522 43.9431 24.2405 44.1566C21.5139 45.1055 18.8011 46.0518 16.0745 47.0007C15.2626 47.2799 14.4281 47.2238 13.5998 47.0533C13.2909 46.9978 13.1936 46.7896 13.2174 46.4738C13.3066 45.3249 12.6497 44.8675 11.6177 45.3295C11.5134 45.3773 11.4064 45.4115 11.2995 45.4457C11.2615 45.3962 11.2345 45.3304 11.1965 45.2809C11.4714 45.088 11.7299 44.8839 12.0101 44.7183C12.5789 44.3571 12.8277 43.9567 12.6796 43.5599C12.5125 43.1382 11.9551 42.9736 11.308 43.1513C11.1874 43.188 11.0694 43.2384 10.9571 43.2453C10.7463 43.2564 10.3573 43.3009 10.333 43.2488C10.2525 42.9808 10.2052 42.6642 10.286 42.4226C10.3475 42.2271 10.6003 42.0666 10.8036 41.9436C11.5452 41.5218 12.2921 41.1273 13.0337 40.7055C13.3386 40.5211 13.6356 40.2957 13.9189 40.0728C14.238 39.815 14.2729 39.483 14.0916 39.1348C13.9157 38.8139 13.6292 38.6552 13.2646 38.7517C12.7683 38.9012 12.2772 39.078 11.7999 39.2522C11.6271 39.3128 11.4759 39.4119 11.3084 39.4998C11.1179 38.8844 11.3034 38.5242 11.8771 38.2612C12.8707 37.8205 13.8806 37.391 14.8741 36.9503C15.1101 36.8496 15.3408 36.7215 15.5715 36.5934C15.9339 36.4124 16.0864 36.1008 15.9573 35.7287C15.8255 35.3429 15.5148 35.1322 15.0953 35.2389C14.4045 35.4106 13.7354 35.6208 13.0499 35.8198C12.8881 35.8642 12.7126 35.9112 12.5482 35.9419C12.5075 35.8788 12.4669 35.8156 12.4262 35.7525C12.7289 35.4836 13.0047 35.1489 13.3507 34.9568C14.3394 34.418 15.3551 33.9449 16.3817 33.4556C17.0818 33.1123 17.8009 32.7938 17.5939 31.7286C17.8618 31.7917 18.0368 31.8156 18.2061 31.883C19.6449 32.4912 21.0809 32.6471 22.6319 32.3711C24.3061 32.072 25.7796 31.4708 27.1541 30.506C27.8524 30.0074 28.6727 29.6982 29.455 29.3395C29.6499 29.2465 29.8881 29.2302 30.1126 29.2165C31.1367 29.1523 31.2755 29.282 31.4255 30.2729C31.4941 30.6988 31.5927 31.1333 31.7682 31.525C32.2192 32.5304 33.1713 33.0457 34.2586 32.9414C35.5952 32.8045 36.3182 32.2871 36.5337 31.0579C36.6808 30.2803 36.5764 29.4507 36.6059 28.6526C36.616 28.3394 36.5881 27.9766 36.7211 27.7111C37.0371 27.0718 37.4455 26.9812 37.9901 27.4454C39.3542 28.6196 40.6799 29.8152 42.0193 31.0081C43.1518 32.0134 44.3202 32.9836 45.3811 34.0589C46.1971 34.8969 46.5053 35.9714 46.4383 37.0879Z" fill="#FF719C"/>
<path d="M14.8077 40.8695C14.2208 41.0642 13.8872 41.4662 13.7905 42.0645C13.7393 42.3854 13.7344 42.726 13.7681 43.0452C13.938 44.7964 15.2645 45.8502 16.8511 45.5392C17.865 45.3495 18.3824 44.8706 18.5299 44.0222C18.9159 41.7707 16.9936 40.135 14.8077 40.8695ZM16.5376 43.9987C16.0691 44.0722 15.6876 43.7898 15.6195 43.2931C15.5483 42.8536 15.7555 42.5318 16.1281 42.4763C16.5692 42.4079 16.9696 42.715 17.0488 43.1955C17.1337 43.6325 16.9375 43.9381 16.5376 43.9987Z" fill="#FF719C"/>
<path d="M20.3587 35.0626C18.8567 35.8813 18.6882 38.3751 20.0888 39.3724C20.9118 39.9543 21.8063 40.0275 22.7091 39.6322C23.4033 39.3325 23.7409 38.7316 23.781 37.9882C23.7965 37.7023 23.7381 37.4019 23.7288 37.1348C23.6567 36.837 23.6036 36.5639 23.5095 36.2985C23.0948 35.1874 21.372 34.505 20.3587 35.0626ZM22.4529 37.2179C22.5268 37.671 22.5759 38.143 22.0633 38.2813C21.7398 38.3702 21.3349 38.3327 21.0291 38.2201C20.939 38.1945 20.9994 37.7021 21.0012 37.4187C20.9989 37.3343 21.0378 37.2421 21.0657 37.1661C21.1717 36.835 21.2154 36.4023 21.7214 36.4491C22.17 36.4925 22.4118 36.7869 22.4529 37.2179Z" fill="#FF719C"/>
<path d="M23.517 26.1814C24.4346 26.5192 25.8077 25.7669 26.0653 24.8272C26.3003 23.9907 26.0585 23.2576 25.4683 22.6321C24.9136 22.0425 24.2267 22.0153 23.4891 22.2382C21.9718 22.3947 21.8632 23.5897 22.3023 24.7529C22.5476 25.358 22.8752 25.9477 23.517 26.1814ZM24.1067 23.736C24.2928 23.7436 24.4696 23.9228 24.745 24.0977C24.5629 24.3299 24.3972 24.5732 24.3809 24.5621C24.1572 24.4341 23.9693 24.2712 23.7678 24.1107C23.8862 23.9895 24.0055 23.7266 24.1067 23.736Z" fill="#FF719C"/>
</svg>
