<svg width="37" height="55" viewBox="0 0 37 55" fill="none" xmlns="http://www.w3.org/2000/svg">
<path d="M24.6105 19.4738C24.0071 20.4975 23.4274 21.4863 22.8478 22.4751C22.2681 23.4523 21.5582 23.6384 20.5763 23.0801C17.4412 21.3002 14.2944 19.5204 11.1593 17.7405C10.1774 17.1822 9.98807 16.4842 10.5678 15.507C12.8155 11.6798 15.0515 7.8642 17.2993 4.03698C17.8435 3.10634 18.5888 2.90858 19.5352 3.4437C19.8783 3.62982 20.2096 3.82758 20.6236 4.06024C20.7656 3.82758 20.8957 3.61819 21.014 3.4088C21.5227 2.53633 22.0315 1.65223 22.552 0.791394C22.9897 0.081786 23.7114 -0.197404 24.4212 0.186482C26.1248 1.10548 27.8165 2.07101 29.4728 3.07144C30.1116 3.45533 30.2063 4.23474 29.804 4.93271C29.1889 5.99131 28.5619 7.0499 27.8993 8.16666C28.2779 8.38768 28.6328 8.60871 28.9996 8.8181C29.9223 9.36485 30.1235 10.1792 29.5556 11.0865C29.3308 11.4471 29.1061 11.8078 28.8576 12.2149C33.1757 15.5419 35.6483 19.9043 36.3226 25.2205C36.7722 28.7685 36.0387 32.8052 34.5835 35.3411C33.7672 34.9573 32.9391 34.5617 32.0755 34.1546C34.0038 30.0598 34.3351 25.9069 32.738 21.6725C31.6733 18.8573 29.8869 16.5656 27.4261 14.6811C26.9647 15.4605 26.527 16.205 26.0893 16.9379C33.2585 23.5337 31.6969 33.9685 24.9299 38.8543C25.0246 39.0288 25.1192 39.2149 25.2257 39.401C26.2904 41.2158 27.3788 43.0072 28.4081 44.8452C28.7511 45.4734 29.1415 45.6944 29.8632 45.6712C32.4777 45.5897 34.3706 46.8345 35.6838 48.9865C36.4054 50.1615 36.5592 51.4644 36.4527 52.8021C36.3936 53.5466 35.7666 54.0352 34.9266 54.0352C31.6378 54.0352 28.3371 54.0352 25.0482 54.0352C17.4767 54.0352 9.90526 54.0352 2.33378 54.0352C0.961454 54.0352 0.559219 53.5699 0.488237 52.2089C0.322611 48.9749 3.00812 46.1016 6.00122 45.7177C6.66372 45.6363 7.33806 45.6595 8.01239 45.6712C8.35547 45.6828 8.53293 45.5665 8.69856 45.2757C9.7633 43.4144 10.8754 41.588 11.9046 39.7151C12.3897 38.831 13.0167 38.4937 14.0459 38.5635C15.9269 38.6798 17.8316 38.7612 19.689 38.2959C23.9716 37.214 26.6098 34.5268 27.5918 30.3157C28.479 26.5001 27.8165 23.0103 25.131 19.9973C25.0246 19.881 24.9181 19.7647 24.7998 19.66C24.7879 19.5785 24.7288 19.5553 24.6105 19.4738ZM19.1685 6.44499C17.2993 9.62077 15.4656 12.75 13.62 15.9025C16.0926 17.2985 18.5178 18.6828 20.9785 20.0788C22.8478 16.8913 24.6815 13.7737 26.527 10.6212C24.0426 9.21362 21.6292 7.84094 19.1685 6.44499ZM33.6016 51.1852C33.5425 50.9409 33.507 50.7315 33.4478 50.5337C32.9983 49.1843 31.8507 48.4282 30.2063 48.4282C24.9299 48.4282 19.6417 48.4282 14.3653 48.4282C11.81 48.4282 9.24276 48.4165 6.68738 48.4282C4.87733 48.4398 3.58781 49.5449 3.45768 51.1852C13.4662 51.1852 23.4866 51.1852 33.6016 51.1852ZM22.4573 40.227C22.0551 40.3782 21.7239 40.4945 21.3926 40.6109C19.2513 41.367 17.039 41.4484 14.8031 41.3437C14.4008 41.3205 14.1642 41.4252 13.9631 41.7974C13.3834 42.856 12.7564 43.8797 12.153 44.9267C12.0347 45.1361 11.9164 45.3454 11.7863 45.5897C16.4238 45.5897 20.9785 45.5897 25.6042 45.5897C24.5513 43.775 23.5103 42.0184 22.4573 40.227ZM26.6808 4.66515C25.8882 4.21147 25.131 3.78105 24.3384 3.339C23.9007 4.08351 23.5103 4.75822 23.0962 5.45619C23.9007 5.90987 24.646 6.34029 25.4386 6.78234C25.8527 6.07274 26.2549 5.38639 26.6808 4.66515Z" fill="white"/>
<path d="M13.9867 20.9512C13.1112 22.4519 12.2713 23.8711 11.384 25.3833C12.1411 25.8138 12.8983 26.2558 13.7146 26.7211C14.59 25.2438 15.4418 23.7896 16.3291 22.289C17.1572 22.7543 17.9499 23.208 18.7898 23.6849C17.6423 25.6393 16.5302 27.5471 15.3827 29.4432C15.0041 30.0598 14.2469 30.2226 13.6081 29.8736C11.9637 28.9663 10.3192 28.0357 8.69847 27.0818C8.04779 26.6979 7.82302 25.9417 8.17793 25.3019C9.2545 23.3941 10.3902 21.5096 11.5259 19.5669C12.3541 20.0322 13.1467 20.4743 13.9867 20.9512Z" fill="white"/>
<path d="M16.5778 34.1775C16.1164 35.0034 15.6787 35.7712 15.2055 36.6204C11.3369 34.5149 7.48021 32.4326 3.57617 30.3038C4.02573 29.4894 4.47528 28.71 4.93667 27.8608C8.84071 29.9664 12.6856 32.0603 16.5778 34.1775Z" fill="white"/>
</svg>
