<svg width="16" height="16" viewBox="0 0 16 16" fill="none" xmlns="http://www.w3.org/2000/svg">
<path fill-rule="evenodd" clip-rule="evenodd" d="M10.8825 9.93266L14.4692 13.5193C14.5953 13.6455 14.666 13.8165 14.666 13.9949C14.6659 14.1732 14.595 14.3443 14.4689 14.4703C14.3427 14.5964 14.1716 14.6672 13.9933 14.6671C13.8149 14.6671 13.6439 14.5961 13.5179 14.47L9.93119 10.8833C8.859 11.7138 7.51071 12.1046 6.16061 11.9762C4.81051 11.8479 3.56002 11.21 2.66352 10.1924C1.76702 9.17479 1.29185 7.85387 1.3347 6.49836C1.37754 5.14285 1.93516 3.85457 2.89413 2.8956C3.8531 1.93663 5.14138 1.379 6.49689 1.33616C7.8524 1.29332 9.17332 1.76848 10.1909 2.66498C11.2085 3.56148 11.8464 4.81198 11.9748 6.16208C12.1031 7.51218 11.7123 8.86047 10.8819 9.93266H10.8825ZM6.66586 10.6667C7.72673 10.6667 8.74414 10.2452 9.49429 9.49509C10.2444 8.74494 10.6659 7.72753 10.6659 6.66666C10.6659 5.60579 10.2444 4.58838 9.49429 3.83823C8.74414 3.08809 7.72673 2.66666 6.66586 2.66666C5.60499 2.66666 4.58758 3.08809 3.83743 3.83823C3.08729 4.58838 2.66586 5.60579 2.66586 6.66666C2.66586 7.72753 3.08729 8.74494 3.83743 9.49509C4.58758 10.2452 5.60499 10.6667 6.66586 10.6667Z" fill="#2A3B5E" fill-opacity="0.4"/>
</svg>
