<svg width="41" height="40" viewBox="0 0 41 40" fill="none" xmlns="http://www.w3.org/2000/svg">
<path d="M18.5944 1.97977C19.1862 0.12278 21.8138 0.122779 22.4056 1.97977L25.7813 12.5728C26.0456 13.4023 26.8162 13.9656 27.6869 13.9656H38.6922C40.6202 13.9656 41.4319 16.425 39.8827 17.5726L30.9128 24.2174C30.2254 24.7267 29.938 25.6167 30.1977 26.4318L33.6081 37.1336C34.1975 38.983 32.0718 40.5033 30.512 39.3479L21.6905 32.813C20.9833 32.2891 20.0167 32.2891 19.3095 32.813L10.488 39.3479C8.92824 40.5033 6.80254 38.983 7.39192 37.1336L10.8023 26.4318C11.062 25.6167 10.7746 24.7267 10.0872 24.2174L1.1173 17.5726C-0.431946 16.425 0.379774 13.9656 2.3078 13.9656H13.3131C14.1838 13.9656 14.9544 13.4023 15.2187 12.5728L18.5944 1.97977Z" fill="#FF6860"/>
</svg>
