<svg width="57" height="57" viewBox="0 0 57 57" fill="none" xmlns="http://www.w3.org/2000/svg">
<path d="M56.5428 20.1449C56.5428 19.7589 56.4726 19.3612 56.3557 18.9987C55.8527 17.525 54.3323 16.601 52.8235 16.8349C51.2329 17.0805 50.0282 18.4139 50.0165 20.0162C49.9931 22.9402 49.958 25.8524 50.0282 28.7764C50.0633 30.0045 49.806 31.022 49.0574 32.0162C48.6598 32.5542 48.2738 32.7764 47.6305 32.7062C46.882 32.6243 46.1101 32.0396 45.9112 31.3378C45.5604 30.1097 45.2212 28.87 44.8586 27.6419C44.3323 25.8407 42.6013 24.8583 40.8586 25.3612C39.1627 25.8524 38.2387 27.5951 38.7417 29.3963C39.0341 30.4606 39.3966 31.5132 39.6306 32.5893C39.8177 33.3963 39.8528 34.215 39.3499 34.9986C38.73 35.9694 38.2504 37.0103 37.6189 37.9694C36.2855 39.981 36.0282 42.1214 36.613 44.4372C37.0341 46.0863 37.2914 47.7822 37.6306 49.4781C37.4668 49.4898 37.3616 49.5132 37.2446 49.5132C36.2388 49.5366 35.9814 49.8056 35.9814 50.8114C35.9814 52.1681 35.9814 53.5366 35.9814 54.8933C35.9814 55.7003 36.3089 56.0395 37.1042 56.0395C41.6539 56.0395 46.2153 56.0395 50.765 56.0395C51.5253 56.0395 51.8644 55.7003 51.8644 54.9284C51.8761 53.6418 51.8644 52.3553 51.8644 51.0804C51.8644 49.7003 51.7124 49.5366 50.344 49.5015C50.2504 49.5015 50.1568 49.4898 49.9931 49.4781C49.9931 48.4839 49.9697 47.5483 50.0048 46.6243C50.0165 46.3319 50.1451 45.981 50.3323 45.7471C52.2504 43.5249 54.2036 41.3261 56.11 39.0922C56.344 38.8232 56.5077 38.4021 56.5077 38.0512C56.5545 32.0863 56.5545 26.1214 56.5428 20.1449ZM49.958 54.133C45.958 54.133 41.9463 54.133 37.8879 54.133C37.8879 53.1974 37.8879 52.3202 37.8879 51.3962C41.9113 51.3962 45.9112 51.3962 49.958 51.3962C49.958 52.2968 49.958 53.1974 49.958 54.133ZM54.6714 37.4781C54.6714 37.7588 54.5428 38.0863 54.3674 38.2968C52.4609 40.5074 50.5428 42.7062 48.613 44.8933C48.2738 45.2676 48.1335 45.6535 48.1451 46.1565C48.1685 47.2442 48.1568 48.3319 48.1568 49.5132C47.689 49.5132 47.2797 49.5132 46.882 49.5132C44.6013 49.5132 42.3323 49.5015 40.0516 49.5249C39.7007 49.5249 39.5604 49.443 39.4785 49.0687C39.0925 47.022 38.6481 44.9986 38.2621 42.9518C38.0516 41.829 38.2154 40.753 38.8002 39.7471C39.5721 38.4138 40.2738 37.0454 41.1042 35.7588C41.8294 34.636 41.7124 33.4431 41.5019 32.2735C41.2797 31.0805 40.8469 29.9226 40.5428 28.7296C40.3557 28.0045 40.7651 27.3378 41.4668 27.1507C42.1218 26.9635 42.7884 27.3378 43.0457 28.0162C43.0808 28.1214 43.1159 28.2384 43.151 28.3554C43.5721 29.8056 44.0048 31.2676 44.4025 32.7296C44.5311 33.1857 44.7533 33.4898 45.1861 33.6653C45.42 33.7588 45.6539 33.8641 45.8645 34.0045C46.882 34.7413 48.0399 34.6126 49.1744 34.5542C49.4317 34.5425 49.7475 34.3085 49.9112 34.0746C50.5428 33.2091 51.1276 32.3203 51.689 31.408C51.841 31.1624 51.8878 30.8232 51.8995 30.5308C51.9112 27.1039 51.9112 23.6887 51.9112 20.2618C51.9112 19.3378 52.4726 18.718 53.2913 18.7063C54.1334 18.6946 54.7065 19.3261 54.7182 20.2735C54.7182 20.332 54.7182 20.3905 54.7182 20.4489C54.7182 24.6361 54.7182 28.8115 54.7182 32.9986C54.6831 34.4723 54.6948 35.9694 54.6714 37.4781Z" fill="white"/>
<path d="M19.4082 49.4547C19.8176 47.408 20.2035 45.408 20.6012 43.408C20.9287 41.7589 20.6831 40.2033 19.841 38.7413C19.069 37.3963 18.2971 36.0396 17.5369 34.6829C17.4316 34.5074 17.3146 34.2852 17.3263 34.0981C17.3614 33.4197 17.3965 32.7413 17.5486 32.0864C17.7474 31.1741 18.0632 30.2969 18.2854 29.3846C18.3907 28.9753 18.4608 28.5308 18.4258 28.1215C18.2503 26.5191 17.0456 25.3729 15.4667 25.2443C14.0047 25.1273 12.6363 26.1098 12.1919 27.6069C11.8527 28.7414 11.5018 29.8759 11.2328 31.0337C11.0574 31.794 10.6948 32.2384 9.96964 32.5308C9.10415 32.8817 8.51935 32.7647 8.00473 32.0045C7.8176 31.7238 7.65386 31.4314 7.45503 31.1858C7.11585 30.7764 7.02228 30.3203 7.02228 29.7823C7.04567 26.6127 7.03398 23.4431 7.03398 20.2619C7.03398 20.0045 7.03398 19.7472 6.98719 19.5016C6.65971 17.7823 5.13925 16.6478 3.43165 16.8116C1.75914 16.9753 0.507682 18.3788 0.507682 20.1098C0.495987 26.0981 0.495987 32.0747 0.519378 38.0513C0.519378 38.4138 0.706512 38.8466 0.952126 39.139C2.85855 41.3729 4.81176 43.5717 6.74158 45.7822C6.87024 45.9226 7.02228 46.098 7.03398 46.2618C7.05737 47.3261 7.04567 48.3904 7.04567 49.5015C6.80006 49.5015 6.61293 49.5015 6.4141 49.5015C5.46673 49.5015 5.17433 49.8056 5.17433 50.7647C5.17433 52.1448 5.17433 53.5249 5.17433 54.905C5.17433 55.7003 5.51351 56.0278 6.32053 56.0278C10.8585 56.0278 15.3848 56.0278 19.9228 56.0278C20.7181 56.0278 21.0573 55.6886 21.0573 54.8933C21.0573 53.712 21.0573 52.5191 21.0573 51.3378C21.0456 49.6653 21.0456 49.6653 19.4082 49.4547ZM2.69481 38.2969C2.51937 38.0981 2.37902 37.794 2.37902 37.5367C2.36733 31.7589 2.36733 25.9811 2.36733 20.2034C2.36733 19.2794 2.9989 18.6478 3.84101 18.6829C4.62463 18.7297 5.16264 19.3379 5.16264 20.2385C5.16264 23.6186 5.15094 27.0104 5.18603 30.3905C5.18603 30.8232 5.34977 31.3028 5.57199 31.677C6.03983 32.484 6.60123 33.2326 7.10415 34.0162C7.34977 34.3905 7.67725 34.5191 8.12169 34.5659C9.59537 34.753 10.8819 34.2852 12.0749 33.5133C12.3205 33.3495 12.531 33.0337 12.6246 32.753C13.1041 31.1975 13.5252 29.6185 13.993 28.063C14.1918 27.3846 14.7766 27.0221 15.4082 27.1039C15.993 27.1741 16.4959 27.6536 16.5427 28.2618C16.5661 28.5074 16.5076 28.7648 16.4375 28.9987C16.2269 29.7706 15.9813 30.5308 15.7825 31.2911C15.6421 31.8525 15.5018 32.4139 15.4199 32.987C15.2445 34.2384 15.5954 35.3378 16.2971 36.3905C16.9989 37.4431 17.5603 38.5776 18.1918 39.6653C18.8117 40.7413 18.9755 41.8875 18.7298 43.0922C18.3205 45.0922 17.9345 47.0922 17.5135 49.0922C17.4784 49.2442 17.2445 49.4781 17.1041 49.4781C14.4141 49.5015 11.7357 49.4898 9.04567 49.4898C9.01058 49.4898 8.97549 49.4664 8.88192 49.4314C8.88192 48.3086 8.91701 47.1974 8.85853 46.0863C8.83514 45.677 8.6597 45.2091 8.40239 44.8934C6.53105 42.6828 4.60124 40.5074 2.69481 38.2969ZM19.1392 54.1565C15.1041 54.1565 11.1041 54.1565 7.06907 54.1565C7.06907 53.2442 7.06907 52.3553 7.06907 51.4197C11.0691 51.4197 15.0807 51.4197 19.1392 51.4197C19.1392 52.2968 19.1392 53.1974 19.1392 54.1565Z" fill="white"/>
<path d="M27.3846 4.16837C26.7063 1.59528 24.3788 -0.100626 21.6887 0.00463711C19.1507 0.1099 16.987 2.01633 16.4724 4.56603C16.4373 4.74146 16.3671 4.96369 16.2268 5.04556C15.4899 5.52509 14.7297 5.98123 13.8993 6.48415C13.2443 5.81748 12.4841 5.09234 11.7706 4.33211C11.3496 3.87597 10.8935 3.67714 10.2736 3.72392C9.78235 3.75901 9.27943 3.73562 8.7882 3.73562C8.69463 3.49001 8.62446 3.31457 8.54259 3.13913C7.88762 1.8058 6.83499 1.03387 5.34961 0.940307C3.44319 0.835044 1.78237 2.19176 1.45489 4.0865C1.1508 5.91105 2.33208 7.77069 4.13324 8.27362C5.98119 8.78824 7.87592 7.85257 8.62446 6.0631C8.68294 5.92275 8.71802 5.74731 8.82329 5.65374C9.03381 5.46661 10.4256 5.65374 10.6478 5.87596C11.3379 6.55432 12.0163 7.25608 12.718 7.92274C12.9636 8.15666 12.9987 8.36718 12.8935 8.68297C12.5543 9.71221 12.5309 10.7531 12.8818 11.7824C13.0221 12.2034 12.9168 12.4257 12.6011 12.7064C10.4607 14.6596 10.1683 17.8759 11.8993 20.1683C12.9987 21.6303 14.4958 22.3437 16.3554 22.4373C16.3671 22.5543 16.3788 22.6361 16.3905 22.7063C16.6361 25.8642 19.1507 28.1332 22.2852 28.0162C25.256 27.8993 27.5952 25.3964 27.5952 22.297C27.5952 16.7765 27.5952 11.2444 27.5835 5.72392C27.5835 5.2093 27.525 4.67129 27.3846 4.16837ZM5.12739 6.54263C4.10985 6.51924 3.30284 5.67713 3.30284 4.65959C3.30284 3.61866 4.16833 2.78825 5.20926 2.79995C6.2268 2.83504 7.04552 3.66544 7.03382 4.68298C7.03382 5.72392 6.16833 6.56602 5.12739 6.54263ZM25.7121 22.3554C25.7121 24.4373 24.1449 26.0864 22.1449 26.1566C20.1215 26.2268 18.4139 24.718 18.2502 22.7414C18.0864 20.718 19.5016 18.987 21.5601 18.7063C21.677 18.6946 21.794 18.6829 21.9461 18.6712C21.9461 18.0748 21.9461 17.4783 21.9461 16.835C20.5776 16.8467 19.3613 17.2443 18.3788 18.1683C17.794 18.718 17.3145 19.4081 16.9168 20.0981C16.6829 20.5075 16.4373 20.5777 16.0513 20.5426C14.2151 20.3905 12.718 18.835 12.6361 16.9987C12.5543 15.0572 13.911 13.4198 15.8642 13.1157C16.0162 13.0923 16.1683 13.0806 16.3671 13.0572C16.3671 12.6011 16.3671 12.1566 16.3671 11.7122C16.3671 11.5602 16.3437 11.4081 16.332 11.1859C15.7823 11.2678 15.2794 11.3379 14.7648 11.4081C14.0046 9.96952 14.8934 7.73561 16.5426 7.02216C16.9987 8.53093 17.8759 9.7239 19.256 10.4958C20.0747 10.952 20.9636 11.2093 21.9461 11.1976C21.9461 10.5777 21.9461 10.0046 21.9461 9.38472C21.6887 9.33794 21.4314 9.30285 21.1741 9.24437C19.2911 8.82332 18.0045 7.02216 18.2736 5.12743C18.5426 3.16252 20.2618 1.75902 22.2501 1.87598C24.1566 1.99294 25.7121 3.60697 25.7121 5.54848C25.7238 11.1508 25.7238 16.7531 25.7121 22.3554Z" fill="white"/>
<path d="M40.5075 23.7474C40.6128 23.3146 40.6479 22.8819 40.7064 22.5076C41.3262 22.379 41.911 22.3088 42.4607 22.1217C46.5309 20.7533 47.5952 15.572 44.414 12.6714C44.1683 12.4492 44.0046 12.2854 44.1449 11.8995C44.5309 10.8001 44.4724 9.68896 44.1449 8.56615C44.0982 8.40241 44.1566 8.1451 44.2619 8.01645C44.9754 7.26791 45.6537 6.47259 46.4724 5.85271C46.8584 5.57201 47.5251 5.63049 48.0631 5.63049C48.2151 5.63049 48.3905 5.99306 48.4958 6.21528C49.2093 7.74744 50.8935 8.63633 52.5309 8.33224C54.2736 7.99306 55.5484 6.56616 55.6186 4.85856C55.7005 3.11588 54.566 1.53694 52.9169 1.0691C51.2677 0.601268 49.4081 1.27963 48.6829 2.82348C48.297 3.6305 47.8525 3.86442 47.0572 3.73576C46.9286 3.71237 46.7882 3.74746 46.6479 3.73576C46.0982 3.67728 45.6888 3.88781 45.3145 4.28547C44.5777 5.05739 43.8175 5.80593 43.1157 6.50768C42.3789 6.02815 41.7473 5.57201 41.0806 5.19774C40.7765 5.034 40.6128 4.87026 40.5426 4.51938C40.0163 1.78255 37.3847 -0.217443 34.6947 0.039866C31.7005 0.320567 29.4783 2.63635 29.4666 5.53692C29.4432 11.1743 29.4549 16.8234 29.4666 22.4608C29.4783 25.3029 31.6421 27.6655 34.4842 27.9813C37.2327 28.3088 39.8643 26.4491 40.5075 23.7474ZM51.8291 2.81179C52.8701 2.7884 53.7356 3.6188 53.7473 4.65973C53.759 5.70067 52.9052 6.55447 51.8642 6.54277C50.8467 6.54277 50.0163 5.71236 50.0046 4.69482C50.0046 3.67728 50.8116 2.83518 51.8291 2.81179ZM38.7765 22.8936C38.4958 24.8702 36.7882 26.2737 34.7999 26.145C32.8701 26.0281 31.338 24.4024 31.3263 22.4258C31.3146 16.8585 31.3146 11.303 31.3263 5.73575C31.3263 3.60711 32.8701 1.94629 34.8935 1.87612C36.9286 1.80594 38.6713 3.3498 38.7882 5.34979C38.9169 7.43165 37.4432 9.11586 35.3029 9.34978C35.2444 9.36147 35.1859 9.36147 35.0923 9.37317C35.0923 9.95796 35.0923 10.5545 35.0923 11.1509C37.1976 11.455 39.2912 9.8644 40.5075 7.04569C42.0748 7.65388 42.8935 9.64217 42.3087 11.4199C41.759 11.3381 41.2444 11.2679 40.6947 11.186C40.6947 11.841 40.6947 12.4375 40.6947 12.9638C41.2912 13.1626 41.8876 13.2796 42.414 13.5486C43.8526 14.2737 44.6479 15.9229 44.3438 17.455C44.0163 19.1392 42.7181 20.3673 41.0572 20.5544C40.5777 20.6129 40.297 20.5076 40.0748 20.0164C39.1742 18.0515 36.9871 16.6948 35.0806 16.8819C35.0806 17.455 35.0806 18.0281 35.0806 18.648C35.3146 18.6831 35.5485 18.7299 35.7941 18.7766C37.7473 19.186 39.0455 20.9872 38.7765 22.8936Z" fill="white"/>
</svg>
