<svg width="56" height="56" viewBox="0 0 56 56" fill="none" xmlns="http://www.w3.org/2000/svg">
<path d="M53.9455 28.4454C53.5457 27.9565 53.0571 27.5343 52.6019 27.0898C53.7234 25.9676 54.0121 24.9454 53.5124 23.8343C52.9461 22.5676 51.9134 22.1343 50.5809 22.1898C49.8702 22.2231 49.1595 22.2009 48.4044 22.2009C48.4044 20.912 48.4155 19.7009 48.3933 18.4787C48.3933 18.1565 48.4932 18.0009 48.7709 17.8343C52.0022 15.9676 52.935 11.8898 50.8252 8.8787C48.7153 5.85648 44.5734 5.33425 41.6974 7.70092C41.4975 7.86759 41.1755 7.9787 40.909 7.9787C38.8768 8.00092 36.8447 7.98981 34.8126 7.98981C34.6128 7.98981 34.424 7.98981 34.1908 7.98981C34.1908 8.61203 34.1908 9.16759 34.1908 9.73425C33.0026 9.73425 31.8478 9.73425 30.6374 9.73425C30.6374 8.84537 30.6374 7.98981 30.6374 7.0787C28.5165 7.0787 26.4622 7.0787 24.3967 7.0787C24.1858 5.72314 23.6972 4.53425 22.8865 3.50092C21.2764 1.43425 19.1222 0.345366 16.5459 0.0675879C13.1702 -0.31019 9.42803 1.20092 7.67354 4.42314C7.30709 5.08981 6.91844 5.36759 6.17444 5.51203C3.18737 6.0787 1.03312 8.46759 0.566732 11.5898C0.15587 14.3676 1.64386 17.2454 4.24228 18.6676C4.36443 18.7343 4.48658 18.812 4.60873 18.8898C4.58652 18.9343 4.58652 18.9454 4.57541 18.9676C4.45327 19.0787 4.33112 19.2009 4.22007 19.312C1.04422 22.3787 -0.243888 26.0787 0.944281 30.3898C2.03251 34.3454 4.74198 36.9009 8.55078 38.2898C9.52797 38.6454 10.5607 38.8343 11.5712 39.1009C10.9715 41.6343 11.016 42.2454 11.7377 44.7676C11.5712 44.8231 11.4379 44.8787 11.2936 44.9231C8.91723 45.6454 6.92954 46.9343 5.25278 48.7676C4.41995 49.6898 3.90915 50.6343 4.0424 51.9343C4.15345 52.9454 4.06461 53.9898 4.06461 55.012C14.1585 55.012 24.1746 55.012 34.2241 55.012C34.2241 53.512 34.2352 52.0565 34.213 50.5898C34.213 50.4231 34.1353 50.2231 34.0353 50.0898C33.047 48.6343 31.8589 47.3565 30.3376 46.4787C29.1494 45.7898 27.8724 45.2565 26.5843 44.6231C26.5843 44.612 26.6176 44.4676 26.6731 44.3343C28.1167 40.0565 25.8958 35.5787 21.5873 34.1565C21.2542 34.0454 21.0765 33.8676 20.9544 33.5454C18.889 28.4454 16.8235 23.3454 14.7581 18.2565C14.7026 18.112 14.6582 17.9565 14.5805 17.7454C19.9772 17.7454 25.3073 17.7454 30.6818 17.7454C30.6818 16.8454 30.6818 16.0009 30.6818 15.1454C31.87 15.1454 33.0248 15.1454 34.2352 15.1454C34.2352 15.7454 34.2352 16.3009 34.2352 16.8898C36.5116 16.8898 38.7325 16.8898 40.9423 16.9009C41.1532 16.9009 41.3864 16.9454 41.553 17.0565C42.0083 17.3343 42.4414 17.6565 42.8744 17.9676C42.9633 18.0343 43.0743 18.1565 43.0743 18.2565C43.0854 19.5676 43.0854 20.8676 43.0854 22.1565C42.9966 22.1898 42.9633 22.212 42.9299 22.212C42.0971 22.212 41.2643 22.212 40.4315 22.2231C39.2988 22.2343 38.3438 22.9009 37.9441 23.9343C37.5443 24.9565 37.7997 26.0343 38.6103 26.8343C38.6992 26.9231 38.788 27.0009 38.9102 27.112C38.7769 27.2343 38.677 27.3343 38.5659 27.4231C37.7331 28.1009 37.1113 28.9343 36.656 29.9009C35.7454 31.8454 35.8342 33.912 36.123 35.9454C36.656 39.5565 40.3537 42.2343 43.9293 41.7009C43.9293 39.9565 43.9293 38.212 43.9293 36.4343C43.6073 36.4343 43.3075 36.4454 43.0188 36.4343C42.0971 36.3898 41.3531 35.7009 41.3087 34.7898C41.2754 34.112 41.2754 33.4231 41.3087 32.7343C41.3531 31.7787 42.297 31.0231 43.0743 31.1676C43.0743 31.4676 43.0632 31.7898 43.0743 32.1009C43.1298 33.5343 44.318 34.6787 45.7505 34.6676C47.1829 34.6676 48.3489 33.512 48.3933 32.0676C48.4044 31.7565 48.3933 31.4454 48.3933 31.1454C49.4815 31.112 50.17 32.0787 50.17 32.8231C50.17 33.4565 50.1922 34.0787 50.17 34.712C50.1367 35.6787 49.4038 36.412 48.4266 36.4454C48.1379 36.4565 47.8492 36.4454 47.5494 36.4454C47.5494 38.2565 47.5494 40.0009 47.5494 41.7343C51.0917 42.0565 54.2342 40.0343 55.167 36.6787C55.489 35.4898 55.4446 34.2009 55.489 32.9454C55.5445 31.2343 55.0004 29.7343 53.9455 28.4454ZM16.4793 1.82314C19.744 2.2787 22.3646 4.53425 22.5645 7.0787C21.9982 7.0787 21.4319 7.0787 20.8655 7.0787C19.6552 3.01203 13.2479 2.20092 10.7828 6.04537C10.2498 5.85648 9.71674 5.65648 9.19484 5.46759C10.0055 3.1787 13.5478 1.41203 16.4793 1.82314ZM18.9445 7.08981C16.6681 7.08981 14.5138 7.08981 12.2819 7.08981C12.9814 5.88981 14.0363 5.43425 15.2689 5.35648C16.7458 5.25648 18.0228 5.6787 18.9445 7.08981ZM4.2978 33.1898C1.12195 29.1676 1.81042 23.4454 5.84131 20.2787C5.86352 20.2565 5.90794 20.2565 5.98567 20.2343C6.18555 20.7231 6.41874 21.2009 6.5742 21.7009C6.61862 21.8454 6.44095 22.0898 6.3077 22.2343C4.95296 23.6454 4.10903 25.312 4.08682 27.2898C4.0424 30.5343 5.66364 32.8565 8.42863 34.3454C9.42803 34.8787 10.6051 35.0898 11.7266 35.4009C12.0376 35.4898 12.2708 35.5676 12.3596 35.9009C12.404 36.0787 12.4928 36.2454 12.5595 36.412C12.8593 37.1565 12.7371 37.3231 11.9487 37.2454C8.8617 36.912 6.25218 35.6565 4.2978 33.1898ZM7.40703 23.712C8.75066 27.012 10.061 30.2454 11.4268 33.6009C9.00606 33.012 7.20715 31.812 6.25218 29.5676C5.41935 27.6009 5.89684 25.1898 7.40703 23.712ZM32.4252 51.5231C32.4252 52.0898 32.4252 52.6454 32.4252 53.2343C23.5861 53.2343 14.747 53.2343 5.86352 53.2343C5.86352 52.6565 5.86352 52.1009 5.86352 51.5231C14.7248 51.5231 23.5639 51.5231 32.4252 51.5231ZM31.2148 49.4343C31.2703 49.4898 31.3148 49.5454 31.3592 49.6009C31.3703 49.612 31.3592 49.6343 31.3592 49.6787C23.2308 49.6787 15.1024 49.6787 6.84071 49.6787C7.11832 49.4009 7.3293 49.1676 7.56249 48.9676C9.62791 47.1565 12.0265 46.1898 14.7803 46.1676C17.7119 46.1454 20.6546 46.1343 23.5861 46.1676C26.551 46.2231 29.105 47.3343 31.2148 49.4343ZM16.4904 41.7231C16.4904 40.2787 17.6897 39.0787 19.1333 39.0676C20.6101 39.0676 21.8094 40.2676 21.8094 41.7454C21.8094 43.1898 20.6101 44.3898 19.1666 44.4009C17.6897 44.4009 16.4793 43.2009 16.4904 41.7231ZM22.931 36.812C25.1518 38.5343 25.9625 41.5231 24.9075 44.0231C24.7632 44.3676 24.6077 44.5009 24.2191 44.4454C23.7527 44.3787 23.2752 44.4343 22.6756 44.4343C23.5528 43.1343 23.8193 41.8231 23.3751 40.412C23.0753 39.4454 22.4979 38.6676 21.6651 38.0898C19.9994 36.9343 17.7563 37.0565 16.235 38.4009C14.5471 39.8787 14.314 41.8898 15.5576 44.3787C14.958 44.412 14.4139 44.4676 13.8587 44.4454C13.7032 44.4343 13.5033 44.2343 13.4256 44.0676C12.3041 41.5676 13.148 38.5009 15.4133 36.7787C17.6342 35.0787 20.7323 35.1009 22.931 36.812ZM18.9112 33.1787C18.9778 33.3454 19.0333 33.5231 19.0999 33.7343C17.2233 33.7787 15.591 34.3898 14.1141 35.5231C13.3035 33.5231 12.515 31.5787 11.7155 29.6231C10.172 25.812 8.61741 22.0009 7.0739 18.1787C6.94065 17.8565 6.77408 17.7009 6.41874 17.612C3.70927 16.9676 1.94368 14.4343 2.31012 11.7898C2.73209 8.9787 5.0529 7.01203 7.87341 7.11203C11.7266 7.24537 14.1807 11.5454 12.293 14.9009C11.9376 15.5343 11.9154 16.012 12.193 16.6676C14.4472 22.1565 16.6681 27.6676 18.9112 33.1787ZM25.3295 15.9565C21.4985 15.9565 17.6897 15.9565 13.8032 15.9565C15.0024 13.612 15.0246 11.2787 13.7809 8.91203C17.6564 8.91203 21.4652 8.91203 25.3295 8.91203C25.3295 11.2787 25.3295 13.6009 25.3295 15.9565ZM28.8607 15.9454C28.3166 15.9454 27.7614 15.9454 27.1506 15.9454C27.1506 13.5898 27.1506 11.2676 27.1506 8.91203C27.7169 8.91203 28.2611 8.91203 28.8607 8.91203C28.8607 11.2343 28.8607 13.5676 28.8607 15.9454ZM34.2019 13.3231C33.6134 13.3231 33.047 13.3231 32.4807 13.3231C31.9144 13.3231 31.337 13.3231 30.7262 13.3231C30.7262 12.7454 30.7262 12.1898 30.7262 11.5898C31.8589 11.5898 33.0137 11.5898 34.2019 11.5898C34.2019 12.1676 34.2019 12.7231 34.2019 13.3231ZM36.023 15.0676C36.023 13.312 36.023 11.5787 36.023 9.81203C37.3555 9.81203 38.6881 9.81203 40.1205 9.81203C39.3543 11.5676 39.3543 13.3009 40.1316 15.0676C38.7325 15.0676 37.3889 15.0676 36.023 15.0676ZM41.3198 12.412C41.3198 9.9787 43.3297 7.9787 45.7727 7.98981C48.2156 8.00092 50.1922 10.0009 50.1922 12.4454C50.1811 14.8898 48.1823 16.8676 45.7394 16.8676C43.2964 16.8676 41.3198 14.8676 41.3198 12.412ZM46.6166 18.6343C46.6166 19.812 46.6166 20.9676 46.6166 22.1676C46.0503 22.1676 45.484 22.1676 44.8954 22.1676C44.8954 20.9898 44.8954 19.8231 44.8954 18.6343C45.4617 18.6343 46.0059 18.6343 46.6166 18.6343ZM43.0743 29.2676C42.9299 29.2898 42.7967 29.3009 42.6523 29.3231C40.809 29.6009 39.5542 31.0565 39.5431 32.9231C39.5431 33.6231 39.4876 34.3343 39.5764 35.0231C39.7763 36.5898 40.7091 37.5787 42.186 38.0787C42.186 38.6676 42.186 39.2343 42.186 39.8676C41.9083 39.8009 41.664 39.7565 41.4198 39.6787C39.2544 38.9565 37.7775 36.9343 37.7775 34.6454C37.7775 33.6898 37.7442 32.712 37.8997 31.7787C38.3105 29.3565 40.598 27.5009 43.0632 27.5454C43.0743 28.1231 43.0743 28.6787 43.0743 29.2676ZM46.6388 31.8343C46.6388 32.4676 46.2613 32.8676 45.7282 32.8454C45.2063 32.8231 44.8732 32.4454 44.8732 31.8231C44.8621 30.412 44.8732 28.9898 44.8732 27.5343C45.4951 27.5343 46.0281 27.5343 46.5944 27.5343C46.6166 27.6565 46.6388 27.7787 46.6388 27.9009C46.6388 29.212 46.6499 30.5231 46.6388 31.8343ZM45.7282 25.7454C44.0293 25.7454 42.3303 25.7454 40.6313 25.7454C39.9429 25.7454 39.532 25.4009 39.5431 24.8454C39.5542 24.2898 39.954 23.9676 40.6535 23.9676C44.0515 23.9676 47.4383 23.9676 50.8363 23.9676C51.5358 23.9676 51.9467 24.2898 51.9578 24.8343C51.9689 25.4009 51.5581 25.7343 50.8141 25.7343C49.1262 25.7454 47.4272 25.7454 45.7282 25.7454ZM53.6124 35.6898C53.3014 37.7009 51.5914 39.4009 49.6148 39.8231C49.5259 39.8454 49.4371 39.8231 49.3261 39.8231C49.3261 39.2454 49.3261 38.6787 49.3261 38.112C49.6703 37.9454 50.0145 37.812 50.3255 37.612C51.3138 36.9676 51.8801 36.0454 51.9578 34.8676C52.0022 34.112 52.0022 33.3565 51.9578 32.6009C51.8579 30.8009 50.5031 29.5231 48.4599 29.2787C48.4599 28.7231 48.4599 28.1565 48.4599 27.5343C50.0923 27.5787 51.4359 28.2009 52.4797 29.4231C53.3014 30.3787 53.7345 31.512 53.7345 32.7676C53.7345 33.7343 53.7567 34.7231 53.6124 35.6898Z" fill="white"/>
<path d="M7.6625 8.87767C5.69703 8.85545 4.07579 10.4332 4.06468 12.3888C4.04247 14.3554 5.6304 15.9666 7.58477 15.9777C9.56135 15.9888 11.1604 14.3999 11.1604 12.4443C11.1715 10.4999 9.59467 8.8999 7.6625 8.87767ZM7.61809 14.211C6.652 14.211 5.86359 13.4332 5.84138 12.4666C5.83028 11.4999 6.59648 10.6888 7.56256 10.6666C8.55085 10.6443 9.37258 11.4332 9.39479 12.411C9.40589 13.3888 8.60638 14.211 7.61809 14.211Z" fill="white"/>
<path d="M48.4157 12.3888C48.3935 10.9444 47.1942 9.7666 45.7395 9.7666C44.2848 9.77771 43.0967 10.9666 43.0967 12.4222C43.0967 13.8999 44.296 15.0999 45.7728 15.0999C47.2386 15.0888 48.4379 13.8666 48.4157 12.3888ZM44.8734 12.4333C44.8734 11.9333 45.3064 11.5222 45.795 11.5444C46.2725 11.5666 46.6501 11.9777 46.639 12.4555C46.6279 12.9333 46.217 13.3222 45.7395 13.311C45.262 13.311 44.8734 12.911 44.8734 12.4333Z" fill="white"/>
</svg>
