<svg width="49" height="24" viewBox="0 0 49 24" fill="none" xmlns="http://www.w3.org/2000/svg">
<path d="M34.0403 1.45697L34.0382 1.45759C31.6554 2.1595 29.95 3.86116 28.1011 5.86894C28.4056 6.26036 28.7105 6.65176 29.0163 7.04448C29.4267 7.57147 29.839 8.10082 30.2548 8.63568C30.4227 8.47546 30.5881 8.31909 30.7547 8.16476C31.7218 7.26621 32.8107 6.33829 34.1783 5.75277L34.18 5.75206C36.8333 4.62186 39.6609 5.40823 41.3972 7.69968L41.3984 7.70118C44.2577 11.4894 42.737 16.831 38.1775 18.1187L38.1747 18.1195C35.5458 18.8537 33.1384 18.1697 31.192 16.3829C30.0235 15.3143 29.0326 14.0538 28.1095 12.8796L28.1028 12.871C27.3688 11.9407 26.6863 11.0222 26.0138 10.1172C24.9876 8.73602 23.9848 7.38643 22.8582 6.07478C19.7838 2.49836 15.9914 0.69737 11.3235 1.06223L11.3232 1.06225C8.22215 1.30369 5.69575 2.57715 3.77548 5.04862C1.80667 7.59706 1.21915 10.5702 1.61741 13.8529L34.0403 1.45697ZM34.0403 1.45697C39.8234 -0.26014 45.6503 2.98051 47.1708 9.28342C48.3631 14.2336 46.3451 19.1227 42.3038 21.5125L42.303 21.513M34.0403 1.45697L42.303 21.513M42.303 21.513C40.0406 22.854 37.5674 23.1765 34.8897 22.9093C31.0357 22.5125 28.1304 20.4114 25.6478 17.2986C25.6477 17.2985 25.6476 17.2983 25.6475 17.2982L25.645 17.2951C23.5521 14.6687 21.4532 12.0347 19.314 9.44005L19.3133 9.43924M42.303 21.513L19.3133 9.43924M19.3133 9.43924C18.6329 8.61576 17.8566 7.80718 16.9921 7.11859L16.9921 7.11857M19.3133 9.43924L16.9921 7.11857M16.9921 7.11857L16.9874 7.11484M16.9921 7.11857L16.9874 7.11484M16.9874 7.11484C14.5162 5.1707 11.1693 4.97507 8.80683 6.84377C6.69232 8.50669 5.84554 10.8077 6.27583 13.4402L6.27633 13.4432M16.9874 7.11484L6.27633 13.4432M6.27633 13.4432C6.69041 15.9287 8.2056 17.7113 10.5898 18.4622C12.6293 19.1108 14.6503 18.8123 16.3999 17.4266L16.403 17.4241M6.27633 13.4432L16.403 17.4241M16.403 17.4241C16.8469 17.0697 17.2803 16.6521 17.6683 16.2781C17.8196 16.1323 17.9641 15.993 18.0996 15.8668M16.403 17.4241L18.0996 15.8668M18.0996 15.8668C18.2987 15.6846 18.511 15.4864 18.7255 15.2855C19.0998 15.7471 19.4641 16.1962 19.8283 16.645C20.0056 16.8673 20.1818 17.0872 20.3595 17.3091C20.5791 17.5831 20.8011 17.8603 21.0309 18.1489C20.8546 18.3088 20.6804 18.4676 20.5075 18.6252C19.653 19.404 18.8321 20.1522 17.9619 20.8612C15.9861 22.4557 13.7289 23.1234 11.169 22.9664C6.43535 22.6741 2.20921 18.7087 1.61747 13.8533L18.0996 15.8668Z" stroke="white" stroke-width="2"/>
</svg>
