<svg width="107" height="42" viewBox="0 0 107 42" fill="none" xmlns="http://www.w3.org/2000/svg">
<path d="M0.5 38C26.6667 43 83.1 44.2 99.5 9" stroke="#2A3B5E" stroke-dasharray="3 9"/>
<path d="M103.157 2.84694C103.073 2.58407 102.791 2.43952 102.528 2.52408L98.2443 3.90214C97.9814 3.9867 97.8368 4.26836 97.9214 4.53123C98.006 4.79411 98.2876 4.93866 98.5505 4.8541L102.358 3.62915L103.583 7.43698C103.668 7.69985 103.949 7.8444 104.212 7.75984C104.475 7.67527 104.62 7.39362 104.535 7.13074L103.157 2.84694ZM99.4448 10.4011L103.126 3.22836L102.236 2.77176L98.5552 9.94455L99.4448 10.4011Z" fill="#2A3B5E"/>
</svg>
