<svg width="19" height="17" viewBox="0 0 19 17" fill="none" xmlns="http://www.w3.org/2000/svg">
<path d="M0.99707 16.9836C1.35691 15.6984 1.66535 14.4133 2.02519 13.1795C2.128 12.8197 2.128 12.5112 1.92238 12.1514C1.20269 10.7634 0.945664 9.32408 1.04848 7.78191C1.40832 3.97787 4.08142 0.893517 7.83405 0.173835C11.1754 -0.443035 13.8999 0.585082 16.1104 3.20678C17.0871 4.38912 17.704 5.72567 17.9096 7.26785C18.218 9.42689 17.7554 11.3803 16.5216 13.1795C15.2365 15.0301 13.4373 16.2125 11.2268 16.6751C9.32482 17.0864 7.52562 16.8293 5.82922 15.9554C5.6236 15.8526 5.46938 15.8526 5.21235 15.904C3.8758 16.2639 2.59065 16.6237 1.2541 16.9322C1.15129 16.9836 1.09988 16.9836 0.99707 16.9836ZM3.0019 14.9787C3.10471 14.9787 3.15612 14.9273 3.20752 14.9273C3.97861 14.7217 4.69829 14.5161 5.46938 14.3105C5.6236 14.259 5.72641 14.3105 5.82922 14.3619C6.75453 14.9273 7.73124 15.2872 8.81076 15.3386C10.4558 15.4928 11.9465 15.0815 13.3345 14.2076C15.7506 12.6655 16.9843 9.73533 16.3674 7.01082C15.5449 3.10397 11.4839 0.379459 7.16578 1.81882C4.28705 2.79553 2.33362 5.67426 2.48784 8.70721C2.53925 9.99236 2.89909 11.1233 3.61877 12.2028C3.72158 12.357 3.72158 12.4598 3.67018 12.6141C3.56736 12.9739 3.46455 13.3337 3.36174 13.6936C3.25893 14.1048 3.15612 14.5675 3.0019 14.9787Z" fill="white"/>
<path d="M6.80629 4.54353C7.16613 4.44072 7.32035 4.69775 7.42316 5.00619C7.62878 5.46884 7.83441 5.9829 8.04003 6.44555C8.14284 6.65117 8.14284 6.80539 7.98863 6.95961C7.83441 7.16523 7.68019 7.37086 7.52597 7.57648C7.32035 7.7821 7.32035 7.83351 7.47457 8.09054C8.04003 9.06725 8.86253 9.78693 9.83924 10.301C9.99345 10.3524 10.0963 10.4552 10.2505 10.5066C10.5075 10.6094 10.6103 10.6094 10.7645 10.4038C10.9702 10.1468 11.1758 9.94115 11.33 9.68412C11.4842 9.4785 11.587 9.42709 11.7927 9.5299C12.3581 9.78693 12.975 10.0954 13.5405 10.3524C13.5919 10.4038 13.6947 10.5066 13.6947 10.6094C13.6947 11.2263 13.5405 11.6889 13.0264 12.0488C12.3581 12.5114 11.587 12.5628 10.8159 12.3572C9.32518 11.946 8.04003 11.1235 7.01191 9.99256C6.44645 9.37568 5.9838 8.75881 5.57255 8.03913C5.26411 7.37086 5.1099 6.70258 5.26411 5.93149C5.36693 5.46884 5.62395 5.05759 5.9838 4.74916C6.18942 4.59494 6.34364 4.54353 6.80629 4.54353Z" fill="white"/>
</svg>
