<svg width="360" height="646" fill="none" xmlns="http://www.w3.org/2000/svg"><g clip-path="url(#clip0)"><path fill-rule="evenodd" clip-rule="evenodd" d="M88.36 131.543c-1.805-2.292-3.445-4.748-6.397-5.894-1.312-.654-3.034-.818-4.756-.491 1.312-2.947 2.706-5.811 3.198-9.577v-6.794c-.328-2.374-1.23-4.256-2.05-6.139-1.148-1.392-2.542-2.619-3.854-3.847-1.804-.737-3.444-1.555-5.658-1.801h-5.658c-.41.41-1.312.164-2.05.246-2.132.573-4.264 1.227-6.15 2.046a72.2 72.2 0 00-4.756 3.602c-.492.982-1.476 1.391-1.804 2.537-1.066.491-1.066 1.965-2.05 2.538-.41-1.31-1.886-1.474-2.952-2.047-9.02-.818-15.826 2.292-20.5 6.549-.246.9-.902 1.391-1.394 2.046-.082.819-.328 1.555-.656 2.046v5.485c.246.245.246.818.246 1.391.41.573.164 1.801.656 2.292-.164.655.328.573.246 1.146 0 .328.738.819.246.901-1.476-.082-2.87 0-4.1.245C12.51 130.888 9.475 136.291 8 143.33c-.082 1.883.082 3.356.246 4.993.41.41.656.819.656 1.556 2.542 3.683 6.478 5.975 12.3 6.384 1.722.082 3.28 0 4.756-.245 1.23.327 2.624.409 3.854.655 13.12.736 26.076-.164 39.114-.246 2.378-.819 5.986-.573 8.856-.9.082-.328.574-.246.902-.246.164-.327.492-.409.902-.491.246-.573.82-.901 1.394-1.146 1.312.164 1.886-.409 2.952-.491 1.312-1.064 2.624-2.128 3.608-3.438a19.33 19.33 0 002.296-6.549c.328-4.502 0-8.676-1.476-11.623zm-60.517-3.438c-.164.164-.41.246-.492 0 .082-.246.492-.246.492 0zm55.514 13.179c-.492.655-.902 1.391-1.148 2.292-.574.655-1.066 1.391-1.394 2.292-1.312 1.064-1.886 2.783-3.608 3.438.41-.573.246-1.883 0-2.538-.164-.082-.41 0-.492-.245-2.46-.082-3.28 1.637-3.444 3.847h-3.608c-.492-.491.246-.901 0-1.801-.41-1.637-.41-3.847-1.558-4.748-3.198.164-4.428 2.21-5.904 4.093-.082 1.31 0 2.374.902 2.701-.328.491-1.558.082-2.296.246.164-.737.738-1.146.902-1.801-.984-.655-1.558.573-2.05 1.146h-.246c0 .327-.082.491-.246.655-.328-.082-.164-.491 0-.655h.246c.656-1.637 1.64-2.865 2.542-4.338.738-1.31 2.46-2.62 1.558-4.748-2.624.082-3.034 2.456-4.756 3.438-1.394 1.473-2.706 2.947-3.854 4.584a4.016 4.016 0 00-.246 1.883c-5.904.573-12.546.491-18.696.9.082-1.146.738-2.128.246-3.192-.164-.082-.41 0-.492-.246-2.296.246-2.952 2.046-3.854 3.602h-1.558c.328-1.556.984-2.783 1.558-4.093-.082-.491.164-1.064 0-1.555-.164-.573-.246-.573-.656-.901-2.378.491-3.034 2.783-4.51 4.093-.164.9-.656 1.473-.902 2.292-.82.164-.984-.409-1.804-.246.082-2.292 2.296-3.601 1.804-5.648 0-.327-.41-.245-.492-.491-1.64.082-2.542.901-3.444 1.801-.574-.655.574-1.555.246-2.701a1.28 1.28 0 01-.656-.491c-2.788.491-4.182 2.537-5.248 4.747-.738-.818.328-1.637.246-2.537.574-.573.656-1.637 1.148-2.292.656-1.555 1.64-2.783 2.542-4.093-.164-.9-.82-1.31-2.05-1.146-1.722.573-2.706 2.046-3.608 3.438-.492-.409.328-1.31.492-1.801.41-.573.492-1.473.902-2.046.574-1.392 1.804-2.21 2.296-3.602-1.148-.409-2.214.901-2.952 1.555-.41-.163.082-1.309.492-1.391-.082-.819.656-.819.656-1.555 1.968-1.883 4.018-3.766 7.298-4.339.82 0 .984.655 1.394 1.146.41 0 .574.164.656.491.164.328.902 0 .902.492.902-.164 1.312-.819 2.05-1.146.164-1.065.328-2.129.656-2.947-.082-.901-.738-1.228-.492-2.538.246-1.228 1.066-1.964 1.394-3.192-.082-.982-1.23.164-1.394-.491-.082-1.392.984-1.637 1.558-2.292.41-.901 1.558-1.146 1.804-2.292 0-.901-.492-1.392-1.394-1.392.492-.818 1.148-1.473 1.558-2.292 3.362-1.309 10.004-3.028 13.202-.491-.082 2.701-.41 5.648 2.05 5.894 1.066 0 1.476-.819 1.558-1.801.246.164.574.327 1.148.246 1.23-.41 1.722-1.638 2.296-2.702.41-1.309 1.476-2.046 2.05-3.192.984-.655 1.64-1.719 2.706-2.292.574-1.146 2.624-.9 2.706-2.537.082-1.065-.738-1.228-1.394-1.556-1.722-.163-2.296.737-3.444 1.146-1.312.901-2.378 1.965-3.608 2.947 0 .246-.328.164 0 0-.082-.819.656-.819.656-1.555.738-.082.738-.982 1.148-1.392 1.312-.409 2.214-1.391 3.772-1.801.41-.573 1.312-.491 1.804-.9.738-.246 1.722-.246 2.296-.655.328.328.984.246 1.558.246.492-.082.902-.246 1.394-.491h4.1c2.296.245 3.854 1.309 5.248 2.537.984 1.392 1.64 3.029 2.05 4.993v4.502c-.41 4.666-2.46 7.695-3.854 11.378v1.801c0 .246.164.246.246.491.082.491.574.491.902.655.82-.246.738.491 1.148.655.656-.082.984-.573 1.558-.655h3.608c.164.327.738.327 1.148.491.082.246.328.491.656.491.41 1.064 1.312 1.719 1.804 2.702.574.982.902 2.128 1.394 3.192 0 .245 0 .655.246.655-.41 1.882-.902 3.683-1.148 5.648zm-20.746-37.736c0 .328.082.492.246.655 1.23-.082 2.706.164 3.608-.245-.164-1.064-2.952-.655-3.854-.41zm-8.61 10.969c-1.394.655-2.214 1.801-3.444 2.701-.574 1.31-2.05 2.62-1.394 4.584.492.328 1.066.573 2.05.491 1.066-.9 1.394-2.537 2.05-3.847.738-1.31 1.886-2.21 2.05-4.093-.41.082-.492-.245-.902-.245 0 .245-.328.163-.41.409z" fill="#fff"/></g><g clip-path="url(#clip1)"><path fill-rule="evenodd" clip-rule="evenodd" d="M231.26 624.362c2.486-1.949 4.746-4.036 8.814-5.01 1.808-.557 4.181-.696 6.554-.417-1.808-2.505-3.729-4.94-4.407-8.141v-5.775c.452-2.018 1.695-3.618 2.825-5.218 1.582-1.183 3.503-2.227 5.311-3.27 2.486-.626 4.746-1.322 7.797-1.531h7.797c.565.348 1.808.139 2.825.209 2.938.487 5.876 1.043 8.475 1.739 2.26.974 4.52 2.018 6.554 3.062.678.834 2.034 1.182 2.486 2.156 1.469.418 1.469 1.67 2.825 2.157.565-1.113 2.599-1.252 4.068-1.739 12.43-.696 21.809 1.948 28.25 5.566.339.765 1.243 1.183 1.921 1.739.113.696.452 1.322.904 1.74v4.662c-.339.208-.339.695-.339 1.182-.565.487-.226 1.531-.904 1.949.226.556-.452.487-.339.974 0 .278-1.017.695-.339.765 2.034-.07 3.955 0 5.65.209 7.797 2.435 11.978 7.027 14.012 13.011.113 1.6-.113 2.852-.339 4.244-.565.348-.904.696-.904 1.322-3.503 3.131-8.927 5.079-16.95 5.427-2.373.069-4.52 0-6.554-.209-1.695.278-3.616.348-5.311.557-18.08.626-35.934-.139-53.901-.209-3.277-.696-8.249-.487-12.204-.765-.113-.279-.791-.209-1.243-.209-.226-.278-.678-.348-1.243-.418-.339-.487-1.13-.765-1.921-.974-1.808.139-2.599-.348-4.068-.417-1.808-.905-3.616-1.809-4.972-2.922-1.469-1.601-2.599-3.41-3.164-5.567-.452-3.826 0-7.375 2.034-9.879zm83.394-2.923c.226.139.565.209.678 0-.113-.208-.678-.208-.678 0zm-76.501 11.202c.678.557 1.243 1.183 1.582 1.948.791.557 1.469 1.183 1.921 1.949 1.808.904 2.599 2.365 4.972 2.922-.565-.487-.339-1.601 0-2.157.226-.07.565 0 .678-.209 3.39-.069 4.52 1.392 4.746 3.27h4.972c.678-.417-.339-.765 0-1.53.565-1.392.565-3.271 2.147-4.036 4.407.139 6.102 1.879 8.136 3.479.113 1.113 0 2.018-1.243 2.296.452.417 2.147.07 3.164.209-.226-.626-1.017-.974-1.243-1.531 1.356-.557 2.147.487 2.825.974h.339c0 .278.113.418.339.557.452-.07.226-.418 0-.557h-.339c-.904-1.391-2.26-2.435-3.503-3.687-1.017-1.114-3.39-2.227-2.147-4.036 3.616.07 4.181 2.087 6.554 2.922 1.921 1.253 3.729 2.505 5.311 3.897.226.347.452.904.339 1.6 8.136.487 17.289.417 25.764.765-.113-.974-1.017-1.809-.339-2.713.226-.07.565 0 .678-.209 3.164.209 4.068 1.739 5.311 3.061h2.147c-.452-1.322-1.356-2.365-2.147-3.478.113-.418-.226-.905 0-1.322.226-.487.339-.487.904-.766 3.277.418 4.181 2.366 6.215 3.479.226.765.904 1.252 1.243 1.948 1.13.139 1.356-.348 2.486-.209-.113-1.948-3.164-3.061-2.486-4.8 0-.279.565-.209.678-.418 2.26.07 3.503.766 4.746 1.531.791-.557-.791-1.322-.339-2.296.339-.07.678-.209.904-.418 3.842.418 5.763 2.157 7.232 4.036 1.017-.696-.452-1.392-.339-2.157-.791-.487-.904-1.392-1.582-1.948-.904-1.322-2.26-2.366-3.503-3.479.226-.765 1.13-1.113 2.825-.974 2.373.487 3.729 1.739 4.972 2.922.678-.348-.452-1.113-.678-1.531-.565-.487-.678-1.252-1.243-1.739-.791-1.183-2.486-1.879-3.164-3.061 1.582-.348 3.051.765 4.068 1.322.565-.14-.113-1.114-.678-1.183.113-.696-.904-.696-.904-1.322-2.712-1.6-5.537-3.201-10.057-3.688-1.13 0-1.356.557-1.921.974-.565 0-.791.139-.904.418-.226.278-1.243 0-1.243.417-1.243-.139-1.808-.696-2.825-.974-.226-.904-.452-1.809-.904-2.505.113-.765 1.017-1.043.678-2.157-.339-1.043-1.469-1.669-1.921-2.713.113-.835 1.695.139 1.921-.417.113-1.183-1.356-1.392-2.147-1.949-.565-.765-2.147-.974-2.486-1.948 0-.765.678-1.183 1.921-1.183-.678-.695-1.582-1.252-2.147-1.948-4.633-1.113-13.786-2.574-18.193-.417.113 2.296.565 4.801-2.825 5.009-1.469 0-2.034-.695-2.147-1.53-.339.139-.791.278-1.582.208-1.695-.348-2.373-1.391-3.164-2.296-.565-1.113-2.034-1.739-2.825-2.713-1.356-.557-2.26-1.461-3.729-1.948-.791-.974-3.616-.766-3.729-2.157-.113-.905 1.017-1.044 1.921-1.322 2.373-.139 3.164.626 4.746.974 1.808.765 3.277 1.67 4.972 2.505 0 .208.452.139 0 0 .113-.696-.904-.696-.904-1.322-1.017-.07-1.017-.835-1.582-1.183-1.808-.348-3.051-1.183-5.198-1.531-.565-.487-1.808-.417-2.486-.765-1.017-.209-2.373-.209-3.164-.557-.452.279-1.356.209-2.147.209-.678-.07-1.243-.209-1.921-.418h-5.65c-3.164.209-5.311 1.114-7.232 2.157-1.356 1.183-2.26 2.575-2.825 4.245v3.826c.565 3.966 3.39 6.541 5.311 9.672v1.53c0 .209-.226.209-.339.418-.113.417-.791.417-1.243.556-1.13-.208-1.017.418-1.582.557-.904-.07-1.356-.487-2.147-.557h-4.972c-.226.279-1.017.279-1.582.418-.113.208-.452.417-.904.417-.565.905-1.808 1.461-2.486 2.296-.791.835-1.243 1.809-1.921 2.714 0 .208 0 .556-.339.556.565 1.601 1.243 3.131 1.582 4.801zm28.589-32.075c0 .278-.113.418-.339.557-1.695-.07-3.729.139-4.972-.209.226-.904 4.068-.557 5.311-.348zm11.865 9.323c1.921.557 3.051 1.531 4.746 2.297.791 1.113 2.825 2.226 1.921 3.896-.678.278-1.469.487-2.825.417-1.469-.765-1.921-2.157-2.825-3.27-1.017-1.113-2.599-1.878-2.825-3.479.565.07.678-.208 1.243-.208 0 .208.452.139.565.347z" fill="#fff"/></g><g clip-path="url(#clip2)"><path fill-rule="evenodd" clip-rule="evenodd" d="M420.139 36.27c-2.046-2.406-3.906-4.985-7.254-6.188-1.488-.688-3.441-.86-5.394-.516 1.488-3.094 3.069-6.102 3.627-10.056v-7.134c-.372-2.492-1.395-4.469-2.325-6.446-1.302-1.46-2.883-2.75-4.371-4.04-2.046-.773-3.906-1.632-6.417-1.89h-6.417c-.465.43-1.488.172-2.325.258-2.418.601-4.836 1.29-6.975 2.149a81.674 81.674 0 00-5.394 3.781c-.558 1.032-1.674 1.461-2.046 2.665-1.209.515-1.209 2.062-2.325 2.664-.465-1.375-2.139-1.547-3.348-2.149-10.23-.86-17.949 2.407-23.25 6.876-.279.946-1.023 1.461-1.581 2.149-.093.86-.372 1.633-.744 2.149V26.3c.279.258.279.86.279 1.461.465.602.186 1.891.744 2.407-.186.687.372.601.279 1.203 0 .344.837.86.279.945-1.674-.085-3.255 0-4.65.258-6.417 3.009-9.858 8.681-11.532 16.073-.093 1.977.093 3.523.279 5.242.465.43.744.86.744 1.633 2.883 3.868 7.347 6.275 13.95 6.705 1.953.085 3.72 0 5.394-.258 1.395.343 2.976.43 4.371.687 14.88.774 29.574-.172 44.361-.258 2.697-.86 6.789-.601 10.044-.945.093-.344.651-.258 1.023-.258.186-.344.558-.43 1.023-.516.279-.601.93-.945 1.581-1.203 1.488.172 2.139-.43 3.348-.516 1.488-1.117 2.976-2.234 4.092-3.61a19.331 19.331 0 002.604-6.875c.372-4.727 0-9.11-1.674-12.205zm-68.634-3.61c-.186.172-.465.258-.558 0 .093-.257.558-.257.558 0zm62.961 13.838c-.558.688-1.023 1.461-1.302 2.407-.651.687-1.209 1.46-1.581 2.406-1.488 1.117-2.139 2.922-4.092 3.61.465-.602.279-1.977 0-2.664-.186-.087-.465 0-.558-.258-2.79-.086-3.72 1.719-3.906 4.04h-4.092c-.558-.517.279-.946 0-1.892-.465-1.719-.465-4.04-1.767-4.985-3.627.172-5.022 2.32-6.696 4.298-.093 1.375 0 2.492 1.023 2.836-.372.516-1.767.086-2.604.258.186-.774.837-1.203 1.023-1.891-1.116-.688-1.767.602-2.325 1.203h-.279c0 .344-.093.516-.279.688-.372-.086-.186-.516 0-.688h.279c.744-1.719 1.86-3.008 2.883-4.555.837-1.375 2.79-2.75 1.767-4.985-2.976.086-3.441 2.578-5.394 3.61-1.581 1.547-3.069 3.094-4.371 4.813a3.933 3.933 0 00-.279 1.977c-6.696.601-14.229.516-21.204.945.093-1.203.837-2.234.279-3.352-.186-.086-.465 0-.558-.258-2.604.258-3.348 2.15-4.371 3.782h-1.767c.372-1.633 1.116-2.922 1.767-4.297-.093-.516.186-1.118 0-1.633-.186-.602-.279-.602-.744-.946-2.697.516-3.441 2.922-5.115 4.298-.186.945-.744 1.547-1.023 2.406-.93.172-1.116-.43-2.046-.258.093-2.406 2.604-3.781 2.046-5.93 0-.344-.465-.258-.558-.516-1.86.086-2.883.946-3.906 1.891-.651-.688.651-1.633.279-2.836a1.442 1.442 0 01-.744-.516c-3.162.516-4.743 2.664-5.952 4.985-.837-.86.372-1.719.279-2.664.651-.602.744-1.72 1.302-2.407.744-1.633 1.86-2.922 2.883-4.297-.186-.946-.93-1.375-2.325-1.203-1.953.601-3.069 2.148-4.092 3.61-.558-.43.372-1.376.558-1.892.465-.601.558-1.547 1.023-2.148.651-1.461 2.046-2.32 2.604-3.782-1.302-.43-2.511.946-3.348 1.633-.465-.172.093-1.375.558-1.461-.093-.86.744-.86.744-1.633 2.232-1.977 4.557-3.954 8.277-4.555.93 0 1.116.687 1.581 1.203.465 0 .651.172.744.516.186.343 1.023 0 1.023.515 1.023-.172 1.488-.86 2.325-1.203.186-1.117.372-2.235.744-3.094-.093-.946-.837-1.29-.558-2.665.279-1.289 1.209-2.062 1.581-3.351-.093-1.032-1.395.171-1.581-.516-.093-1.461 1.116-1.72 1.767-2.407.465-.945 1.767-1.203 2.046-2.406 0-.946-.558-1.461-1.581-1.461.558-.86 1.302-1.547 1.767-2.407 3.813-1.375 11.346-3.18 14.973-.516-.093 2.837-.465 5.93 2.325 6.189 1.209 0 1.674-.86 1.767-1.891.279.172.651.344 1.302.258 1.395-.43 1.953-1.72 2.604-2.837.465-1.375 1.674-2.148 2.325-3.352 1.116-.687 1.86-1.804 3.069-2.406.651-1.203 2.976-.946 3.069-2.665.093-1.117-.837-1.289-1.581-1.633-1.953-.171-2.604.774-3.906 1.204-1.488.945-2.697 2.063-4.092 3.094 0 .258-.372.172 0 0-.093-.86.744-.86.744-1.633.837-.086.837-1.032 1.302-1.461 1.488-.43 2.511-1.461 4.278-1.891.465-.602 1.488-.516 2.046-.946.837-.257 1.953-.257 2.604-.687.372.344 1.116.258 1.767.258.558-.086 1.023-.258 1.581-.516h4.65c2.604.258 4.371 1.375 5.952 2.664 1.116 1.462 1.86 3.18 2.325 5.243v4.727c-.465 4.9-2.79 8.08-4.371 11.947v1.891c0 .258.186.258.279.516.093.515.651.515 1.023.687.93-.257.837.516 1.302.688.744-.086 1.116-.602 1.767-.688h4.092c.186.344.837.344 1.302.516a.803.803 0 00.744.516c.465 1.117 1.488 1.805 2.046 2.836.651 1.031 1.023 2.235 1.581 3.352 0 .258 0 .688.279.688-.465 1.976-1.023 3.867-1.302 5.93zM390.937 6.876c0 .344.093.516.279.687 1.395-.086 3.069.172 4.092-.257-.186-1.118-3.348-.688-4.371-.43zm-9.765 11.517c-1.581.688-2.511 1.89-3.906 2.836-.651 1.375-2.325 2.75-1.581 4.813.558.344 1.209.602 2.325.516 1.209-.945 1.581-2.664 2.325-4.04.837-1.375 2.139-2.32 2.325-4.297-.465.086-.558-.258-1.023-.258 0 .258-.372.172-.465.43z" fill="#fff"/></g><path d="M207.863 540.834s-23.621 21.551-39.246 16.359c-9.915-3.295-17.969-14.205-21.294-18.915m0 0s-2.047-9.241-1.251-15.08c1.921-14.097 11.374-28.17 22.545-24.027 8.66 3.211 14.068 13.158 12.317 24.027-2.142 13.289-33.611 15.08-33.611 15.08zm0 0s-34.118 8.006-60.12 2.556c-25.758-5.398-43.71-8.34-61.792-31.439-19.373-24.748-31.167-50.712-22.546-83.326 10.295-38.949 43.615-38.608 76.196-47.798 38.862-10.962 66.915-14.809 101.873 8.691 19.027 12.79 31.96 21.526 41.334 45.497 10.597 27.099-17.801 56.255 0 76.936 21.309 24.758 52.056-.197 72.02-26.583 21.126-27.92 21.88-58.907 14.405-95.85-6.98-34.494-18.746-56.158-44.257-73.103-21.749-14.446-41.79 5.966-62.835-9.968-12.849-9.729-27.17-15.761-26.721-34.251.586-24.115 27.913-32.824 47.388-36.493 34.022-6.41 75.209 3.578 75.209 3.578" stroke="#fff" stroke-width="2" stroke-linecap="round" stroke-linejoin="round" stroke-dasharray="15 30"/><g clip-path="url(#clip3)"><path fill-rule="evenodd" clip-rule="evenodd" d="M306.553 239.691c.385-.944-.417-2.225-.468-3.279-.104-.18-.316-.118-.4-.37-.405-.488-.913-.616-1.385-1.005-.534-.173-.971-.823-1.525-.924-.878-.876-1.864-1.51-2.849-2.144-.904-.922-1.905-1.367-2.788-2.36-.96-.589-1.864-1.511-2.85-2.145-1.782-1.798-3.794-2.922-5.576-4.72-1.869-1.628-3.727-3.021-5.514-4.936-.487-.2-.878-.877-1.324-1.221-.519-.362-.904-.921-1.403-1.355-.945-.778-1.863-1.511-2.727-2.576-1.026-.491-1.781-1.799-2.788-2.361-.344-.703-.898-.804-1.262-1.436-.534-.173-.91-1.039-1.464-1.14-1.7-2.086-3.713-3.21-5.454-5.152-.472-.389-.939-.661-1.324-1.22-.554-.101-.93-.967-1.463-1.14-.438-.65-.93-.967-1.525-.924-.56-.218-1.007-.562-1.811.083-.549 1.52.209 3.368.241 5.034-.186 1.61.499 3.44.459 5.088.514 1.748.209 3.368.723 5.116-.178.765.151 1.657-.053 2.377.214.478.065.864.134 1.306-.294.35.283.919-.327 1.151-2.965 1.411-5.91 2.75-8.89 4.351-1.575 1.029-2.919 1.384-4.494 2.413l-2.277 1.315c-1.08.383-.829 1.141-1.013 1.788.841 2.101 2.444 1.657 3.734 2.175.735-.124 1.373.23 2.133.152.787-.033 1.492.222 2.272.071 1.456.483 2.979.867 4.569 1.152.685.327 1.518.267 2.315.468.716.489 1.657.186 2.332.819.144 2.503.625 5.053.696 7.538.181 1.279.289 2.54.325 3.782.155 1.234-.001 2.467.107 3.728-.256.629-.104 1.323-.531 1.87.033.703-.632 1.267.008 2.161.272.685.748.651 1.142.905.522-.062.907.498 1.343.608.868-.321 1.005-.942 1.673-.966 2.986.02 6.36-1.327 9.688-2.647 3.319-1.013 6.719-2.315 10.14-3.689.837-.483 1.577-.489 2.46-.999.786-.033 1.757-.713 2.476-.648.863-.437 1.577-.489 2.399-.783.827-.177 1.69-.615 2.476-.648.904-.581 1.603-.444 2.46-.999.322.236.95-.608 1.251-.301.424-.124 1.012-.824 1.287-.562.418-.242.97-.681 1.286-.563.424-.124 1.012-.824 1.287-.562 1.008-.401 1.403-1.111 2.069-1.676zM265.045 208.8c-.47-1.353-.289-2.54-.806-3.866.668-.024.915 1.156 1.542 1.276.37.748.971.822 1.367 1.616-.784.573-1.365.427-2.103.974zm.463 4.665c-.071-.982-.359-2.018.196-2.88l2.742-1.584c.542.831 1.241.968 1.741 1.943-1.493.741-3.078 1.536-4.679 2.521zm.174 2.125c1.433-1.489 3.736-2.759 5.071-4.311.588.803 1.17 1.49 1.88 1.861.151.154.11.298.043.397-2.144 1.117-5.254 2.492-6.8 4.106-.252-.757-.114-1.377-.194-2.053zm12.109 2.512c.431.533.95.895 1.402 1.356-1.461.904-3.502 1.661-2.933 3.077.625 1.083 1.848.196 2.876-.277.579-.394 1.157-.788 1.274-1.337.881.454 1.536 1.158 2.31 1.854a94.29 94.29 0 011.724 1.591c.15.154.269.145.4.371.078.135.191.01.217.055.748.651 1.455 1.446 2.202 2.097.821.669 1.728 1.168 2.388 1.989.186-.107.224.172 0 0-2.871-1.109-5.727-2.407-8.66-3.3-1.461-.6-2.938-1.011-4.4-1.61-.771-.156-1.502-.456-2.253-.684-.711-.372-1.523-.384-2.146-.926a8.404 8.404 0 012.186-2.225l3.439-1.986-.026-.045zm-3.573-3.29c.695.561 1.309 1.409 2.02 1.781.15.154.109.298.043.396-1.906 1.101-4.046 1.795-5.345 3.086-.201.297-.257.629-.483.881.109.297.318.658-.127.854-.918-.732-2.015-.7-2.914-1.505.16-1.656 2.35-2.8 4.467-3.962.547-.557 1.43-1.066 2.339-1.531zm-11.423 16.279c-.4-.371-.943-.238-1.246-1.085-1.378-.347-3.143-.291-4.309-.701-.217-.054-.4-.37-.664-.398-.362-.092-.859.015-1.268-.05-.481-.083-.855-.408-1.264-.473-.073-.018-.207.179-.326.188-.046.027-.249-.217-.321-.235-.72-.066-1.361.004-2.055-.017.065-.639.961-.374 1.394-.805l5.252-3.032c2.228-.865 3.951-2.281 5.87-2.607.745.111 1.307.869 1.971 1.268.746.111 1.369.653 2.006 1.007 1.457.482 2.948.704 4.383 1.259.436.109.748.651 1.142.904 1.871.664 3.716 1.284 5.587 1.948.948.355 1.804.763 2.793.974.954.471 1.882.898 2.871 1.109.359.514.922.309 1.343.608.446.344.928.427 1.342.608.882.454 1.804.763 2.671 1.406.943.237 1.789.952 2.732 1.189.872.76 1.923.755 2.774 1.586.186-.107.224.172 0 0-5.396-.974-10.956-1.373-16.25-2.708-.775.268-1.259-.355-1.993-.232-.638-.354-1.398-.276-2.072-.368-.544-.407-1.34-.068-1.885-.475-.781.15-1.332-.374-2.133-.152-2.59-.73-5.621-.184-8.345-.716zm3.234 2.704c.456.038.932.003 1.265.473-.636.187-.64.61-1.13.833-.069-.442.079-.828-.135-1.306zm21.23 9.938c-4.031 1.605-7.968 3.157-11.809 4.232-.683.213-1.19.085-1.811.083-2.196 1.027-4.397 1.937-6.409 2.317-.179-.739.104-1.323.07-2.026-.008-.657-.114-1.378.07-2.025-.45-1.424-.103-2.647-.481-4.053.428-.548 1.316-.941 1.335-1.553-.309-.964-.975-.399-1.421-.743-.237-.946-.11-1.801-.347-2.747.82-.835 1.349-1.742 2.143-2.621 1.463-.364 2.538.64 3.94.492 1.233.311 2.568.262 3.801.572 2.635.163 5.086.974 7.68 1.281 2.471.738 5.086.973 7.644 1.541.378-.098.607.191.943.237.673.093 1.222.077 1.994.233.191.01.446.344.725.183.232-.134 1.59.285 2.071.368.653.164 1.439.131 1.808.34.098.063.011.234-.062.215-4.068 1.327-7.833 1.997-11.884 3.674z" fill="#fff"/></g><defs><clipPath id="clip0"><path fill="#fff" transform="translate(8 97)" d="M0 0h82v60H0z"/></clipPath><clipPath id="clip1"><path fill="#fff" transform="matrix(-1 0 0 1 342 595)" d="M0 0h113v51H0z"/></clipPath><clipPath id="clip2"><path fill="#fff" transform="translate(329)" d="M0 0h93v63H0z"/></clipPath><clipPath id="clip3"><path fill="#fff" transform="rotate(60 -24.323 335.872)" d="M0 0h58.342v49.32H0z"/></clipPath></defs></svg>
