<svg width="1353" height="853" fill="none" xmlns="http://www.w3.org/2000/svg"><path d="M718.862 678.888s-56.575 42.156-94 32c-23.748-6.446-43.04-27.788-51.003-37m0 0s-4.902-18.079-2.997-29.5c4.601-27.577 27.243-55.104 54-47.001 20.74 6.282 33.695 25.74 29.5 47.001-5.13 25.997-80.503 29.5-80.503 29.5zm0 0s-81.717 15.659-143.997 5c-61.692-10.56-104.691-16.314-148-61.5-46.4-48.413-74.648-99.201-54-163.001 24.658-76.189 104.464-75.522 182.5-93.5 93.081-21.443 160.27-28.969 244 17 45.572 25.02 76.548 42.11 99 89 25.383 53.011-42.635 110.045 0 150.501 51.039 48.43 124.683-.387 172.5-52.001 50.599-54.616 52.405-115.232 34.5-187.5-16.717-67.474-44.897-109.852-106-143-52.093-28.26-100.094 11.671-150.5-19.5-30.775-19.031-65.076-30.831-64-67 1.404-47.173 66.855-64.21 113.5-71.387C834.85 64.461 933.5 84 933.5 84" stroke="#fff" stroke-width="4" stroke-linecap="round" stroke-linejoin="round" stroke-dasharray="15 30"/><g clip-path="url(#clip0)"><path fill-rule="evenodd" clip-rule="evenodd" d="M1465.3 394.325c-6.27-7.984-11.97-16.538-22.23-20.53-4.56-2.281-10.55-2.851-16.53-1.71 4.56-10.265 9.4-20.245 11.11-33.361v-23.665c-1.14-8.269-4.27-14.827-7.12-21.385-3.99-4.847-8.84-9.124-13.4-13.401-6.27-2.566-11.97-5.418-19.66-6.273h-19.67c-1.42 1.426-4.56.57-7.12.855-7.41 1.996-14.82 4.277-21.38 7.129-5.7 3.991-11.4 8.268-16.53 12.545-1.71 3.422-5.13 4.848-6.27 8.839-3.7 1.711-3.7 6.843-7.12 8.839-1.43-4.562-6.56-5.132-10.26-7.128-31.35-2.851-55.01 7.984-71.25 22.81-.86 3.137-3.14 4.848-4.85 7.129-.28 2.851-1.14 5.417-2.28 7.128v19.104c.86.855.86 2.851.86 4.847 1.42 1.996.57 6.273 2.28 7.983-.57 2.282 1.14 1.996.85 3.992 0 1.141 2.57 2.852.86 3.137-5.13-.285-9.98 0-14.25.855-19.67 9.98-30.21 28.798-35.34 53.319-.29 6.558.28 11.691.85 17.393 1.43 1.426 2.28 2.852 2.28 5.418 8.84 12.831 22.52 20.814 42.75 22.24 5.99.285 11.4 0 16.53-.856 4.28 1.141 9.12 1.426 13.4 2.281 45.6 2.567 90.63-.57 135.94-.855 8.27-2.851 20.81-1.996 30.78-3.136.29-1.141 2-.856 3.14-.856.57-1.14 1.71-1.425 3.13-1.711.86-1.995 2.85-3.136 4.85-3.991 4.56.57 6.55-1.426 10.26-1.711 4.56-3.707 9.12-7.413 12.54-11.976 3.7-6.558 6.55-13.971 7.98-22.81 1.14-15.682 0-30.224-5.13-40.488zm-210.33-11.976c-.57.571-1.43.856-1.71 0 .28-.855 1.71-.855 1.71 0zm192.94 45.906c-1.71 2.281-3.13 4.847-3.99 7.984-1.99 2.281-3.7 4.847-4.84 7.983-4.56 3.707-6.56 9.695-12.54 11.976 1.42-1.996.85-6.558 0-8.839-.57-.285-1.43 0-1.71-.856-8.55-.285-11.4 5.703-11.97 13.401h-12.54c-1.71-1.71.85-3.136 0-6.272-1.43-5.703-1.43-13.401-5.42-16.538-11.11.57-15.39 7.699-20.52 14.257-.28 4.562 0 8.268 3.14 9.409-1.14 1.711-5.42.285-7.98.855.57-2.566 2.56-3.992 3.13-6.273-3.42-2.281-5.41 1.996-7.12 3.992h-.86c0 1.141-.28 1.711-.85 2.281-1.14-.285-.57-1.711 0-2.281h.85c2.28-5.702 5.7-9.979 8.84-15.112 2.56-4.562 8.55-9.124 5.41-16.537-9.12.285-10.54 8.554-16.53 11.975-4.84 5.133-9.4 10.265-13.39 15.968-.57 1.425-1.14 3.706-.86 6.558-20.52 1.995-43.6 1.71-64.98 3.136.29-3.992 2.57-7.413.86-11.12-.57-.285-1.43 0-1.71-.855-7.98.855-10.26 7.128-13.4 12.545h-5.41c1.14-5.417 3.42-9.694 5.41-14.256-.28-1.711.57-3.707 0-5.418-.57-1.996-.85-1.996-2.28-3.136-8.26 1.711-10.54 9.694-15.67 14.256-.57 3.137-2.28 5.133-3.14 7.984-2.85.57-3.42-1.426-6.27-.855.29-7.984 7.98-12.546 6.27-19.674 0-1.141-1.42-.856-1.71-1.711-5.7.285-8.83 3.136-11.97 6.273-1.99-2.281 2-5.418.86-9.41-.86-.285-1.71-.855-2.28-1.71-9.69 1.71-14.54 8.839-18.24 16.537-2.57-2.851 1.14-5.702.85-8.839 2-1.996 2.28-5.702 3.99-7.983 2.28-5.418 5.7-9.695 8.84-14.257-.57-3.136-2.85-4.562-7.13-3.992-5.98 1.996-9.4 7.128-12.54 11.976-1.71-1.426 1.14-4.562 1.71-6.273 1.43-1.996 1.71-5.133 3.14-7.128 1.99-4.848 6.27-7.699 7.98-12.546-3.99-1.426-7.7 3.136-10.26 5.417-1.43-.57.28-4.562 1.71-4.847-.29-2.851 2.28-2.851 2.28-5.417 6.84-6.558 13.96-13.116 25.36-15.112 2.85 0 3.42 2.281 4.85 3.992 1.42 0 1.99.57 2.28 1.71.57 1.141 3.13 0 3.13 1.711 3.14-.57 4.56-2.851 7.13-3.992.57-3.706 1.14-7.413 2.28-10.264-.29-3.137-2.57-4.277-1.71-8.839.85-4.277 3.7-6.843 4.84-11.12-.28-3.422-4.27.57-4.84-1.711-.29-4.847 3.42-5.703 5.41-7.984 1.43-3.136 5.42-3.992 6.27-7.983 0-3.137-1.71-4.848-4.84-4.848 1.71-2.851 3.99-5.132 5.41-7.983 11.69-4.562 34.77-10.55 45.89-1.711-.29 9.409-1.43 19.674 7.12 20.529 3.71 0 5.13-2.851 5.42-6.273.85.571 1.99 1.141 3.99.856 4.27-1.426 5.98-5.703 7.98-9.409 1.42-4.563 5.13-7.129 7.12-11.12 3.42-2.282 5.7-5.988 9.41-7.984 1.99-3.992 9.12-3.137 9.4-8.839.29-3.707-2.56-4.277-4.84-5.418-5.99-.57-7.98 2.567-11.97 3.992-4.56 3.137-8.27 6.843-12.54 10.265 0 .855-1.14.57 0 0-.29-2.851 2.28-2.851 2.28-5.418 2.56-.285 2.56-3.421 3.99-4.847 4.56-1.425 7.69-4.847 13.11-6.273 1.42-1.996 4.56-1.71 6.27-3.136 2.56-.855 5.98-.855 7.98-2.281 1.14 1.14 3.42.855 5.41.855 1.71-.285 3.14-.855 4.85-1.71h14.25c7.98.855 13.39 4.562 18.24 8.839 3.42 4.847 5.7 10.549 7.12 17.392v15.683c-1.42 16.252-8.55 26.802-13.39 39.633v6.272c0 .856.57.856.85 1.711.29 1.711 2 1.711 3.14 2.281 2.85-.855 2.56 1.711 3.99 2.281 2.28-.285 3.42-1.996 5.41-2.281h12.54c.57 1.141 2.57 1.141 3.99 1.711.29.855 1.14 1.711 2.28 1.711 1.43 3.706 4.56 5.988 6.27 9.409 2 3.422 3.14 7.413 4.85 11.12 0 .856 0 2.281.85 2.281-1.42 6.558-3.13 12.831-3.99 19.674zm-72.1-131.445c0 1.141.28 1.711.85 2.281 4.28-.285 9.41.571 12.54-.855-.57-3.707-10.26-2.281-13.39-1.426zm-29.93 38.208c-4.84 2.281-7.69 6.273-11.97 9.409-1.99 4.562-7.12 9.124-4.84 15.967 1.71 1.141 3.7 1.996 7.12 1.711 3.71-3.136 4.85-8.839 7.13-13.401 2.56-4.562 6.55-7.699 7.12-14.257-1.42.286-1.71-.855-3.13-.855 0 .855-1.14.57-1.43 1.426z" fill="#fff"/></g><g clip-path="url(#clip1)"><path fill-rule="evenodd" clip-rule="evenodd" d="M161.699 176.662c-3.63-4.622-6.93-9.575-12.87-11.886-2.64-1.32-6.105-1.65-9.57-.99 2.64-5.943 5.445-11.721 6.435-19.314v-13.701c-.66-4.787-2.475-8.584-4.125-12.381-2.31-2.806-5.115-5.282-7.755-7.758-3.63-1.486-6.93-3.137-11.385-3.632h-11.385c-.825.825-2.64.33-4.125.495-4.29 1.156-8.58 2.476-12.375 4.127-3.3 2.311-6.6 4.787-9.57 7.263-.99 1.981-2.97 2.807-3.63 5.118-2.145.99-2.145 3.962-4.125 5.117-.825-2.641-3.795-2.971-5.94-4.127-18.15-1.651-31.845 4.622-41.25 13.206-.495 1.816-1.815 2.806-2.805 4.127-.165 1.651-.66 3.136-1.32 4.127v11.06c.495.495.495 1.651.495 2.806.825 1.156.33 3.632 1.32 4.622-.33 1.321.66 1.156.495 2.311 0 .661 1.485 1.651.495 1.816-2.97-.165-5.775 0-8.25.495-11.385 5.778-17.49 16.673-20.46 30.869-.165 3.797.165 6.769.495 10.07.825.825 1.32 1.651 1.32 3.136 5.115 7.429 13.035 12.051 24.75 12.876 3.465.165 6.6 0 9.57-.495 2.475.66 5.28.825 7.755 1.321 26.4 1.485 52.47-.33 78.705-.496 4.785-1.65 12.045-1.155 17.82-1.815.165-.661 1.155-.496 1.815-.496.33-.66.99-.825 1.815-.99.495-1.156 1.65-1.816 2.805-2.311 2.64.33 3.795-.825 5.94-.991 2.64-2.146 5.28-4.291 7.26-6.933 2.145-3.796 3.795-8.088 4.62-13.206.66-9.079 0-17.498-2.97-23.44zm-121.77-6.933c-.33.33-.825.495-.99 0 .165-.496.99-.496.99 0zm111.705 26.577c-.99 1.32-1.815 2.806-2.31 4.622-1.155 1.32-2.145 2.806-2.805 4.622-2.64 2.146-3.795 5.612-7.26 6.933.825-1.156.495-3.797 0-5.117-.33-.165-.825 0-.99-.496-4.95-.165-6.6 3.302-6.93 7.759h-7.26c-.99-.991.495-1.816 0-3.632-.825-3.301-.825-7.758-3.135-9.574-6.435.33-8.91 4.457-11.88 8.254-.165 2.641 0 4.787 1.815 5.447-.66.991-3.135.165-4.62.495.33-1.485 1.485-2.311 1.815-3.631-1.98-1.321-3.135 1.155-4.125 2.311h-.495c0 .66-.165.99-.495 1.32-.66-.165-.33-.99 0-1.32h.495c1.32-3.302 3.3-5.778 5.115-8.749 1.485-2.641 4.95-5.283 3.135-9.575-5.28.166-6.105 4.953-9.57 6.934-2.805 2.971-5.445 5.942-7.755 9.244-.33.825-.66 2.146-.495 3.797-11.88 1.155-25.245.99-37.62 1.815.165-2.311 1.485-4.292.495-6.438-.33-.165-.825 0-.99-.495-4.62.495-5.94 4.127-7.755 7.263h-3.135c.66-3.136 1.98-5.612 3.135-8.253-.165-.991.33-2.146 0-3.137-.33-1.155-.495-1.155-1.32-1.816-4.785.991-6.105 5.613-9.075 8.254-.33 1.816-1.32 2.972-1.815 4.622-1.65.33-1.98-.825-3.63-.495.165-4.622 4.62-7.263 3.63-11.39 0-.66-.825-.495-.99-.991-3.3.166-5.115 1.816-6.93 3.632-1.155-1.32 1.155-3.136.495-5.447a2.568 2.568 0 01-1.32-.991c-5.61.991-8.415 5.118-10.56 9.575-1.485-1.651.66-3.302.495-5.118 1.155-1.155 1.32-3.301 2.31-4.622 1.32-3.136 3.3-5.612 5.115-8.254-.33-1.815-1.65-2.641-4.125-2.311-3.465 1.156-5.445 4.127-7.26 6.933-.99-.825.66-2.641.99-3.631.825-1.156.99-2.972 1.815-4.127 1.155-2.806 3.63-4.457 4.62-7.263-2.31-.826-4.455 1.815-5.94 3.136-.825-.33.165-2.641.99-2.806-.165-1.651 1.32-1.651 1.32-3.137 3.96-3.796 8.085-7.593 14.685-8.749 1.65 0 1.98 1.321 2.805 2.311.825 0 1.155.331 1.32.991.33.66 1.815 0 1.815.99 1.815-.33 2.64-1.65 4.125-2.311.33-2.146.66-4.292 1.32-5.942-.165-1.816-1.485-2.477-.99-5.118.495-2.476 2.145-3.962 2.805-6.438-.165-1.981-2.475.331-2.805-.99-.165-2.806 1.98-3.302 3.135-4.622.825-1.816 3.135-2.311 3.63-4.622 0-1.816-.99-2.807-2.805-2.807.99-1.65 2.31-2.971 3.135-4.622 6.765-2.641 20.13-6.107 26.565-.99-.165 5.447-.825 11.39 4.125 11.885 2.145 0 2.97-1.65 3.135-3.631.495.33 1.155.66 2.31.495 2.475-.826 3.465-3.302 4.62-5.448.825-2.641 2.97-4.126 4.125-6.438 1.98-1.32 3.3-3.466 5.445-4.622 1.155-2.311 5.28-1.815 5.445-5.117.165-2.146-1.485-2.476-2.805-3.136-3.465-.331-4.62 1.485-6.93 2.311-2.64 1.815-4.785 3.961-7.26 5.942 0 .496-.66.331 0 0-.165-1.65 1.32-1.65 1.32-3.136 1.485-.165 1.485-1.981 2.31-2.806 2.64-.826 4.455-2.807 7.59-3.632.825-1.156 2.64-.99 3.63-1.816 1.485-.495 3.465-.495 4.62-1.32.66.66 1.98.495 3.135.495.99-.165 1.815-.495 2.805-.991h8.25c4.62.496 7.755 2.642 10.56 5.118 1.98 2.806 3.3 6.107 4.125 10.069v9.079c-.825 9.41-4.95 15.517-7.755 22.946v3.631c0 .496.33.496.495.991.165.99 1.155.99 1.815 1.321 1.65-.496 1.485.99 2.31 1.32 1.32-.165 1.98-1.155 3.135-1.32h7.26c.33.66 1.485.66 2.31.99.165.495.66.99 1.32.99.825 2.146 2.64 3.467 3.63 5.448 1.155 1.981 1.815 4.292 2.805 6.438 0 .495 0 1.32.495 1.32-.825 3.797-1.815 7.429-2.31 11.391zm-41.745-76.1c0 .66.165.99.495 1.321 2.475-.165 5.445.33 7.26-.496-.33-2.146-5.94-1.32-7.755-.825zm-17.325 22.12c-2.805 1.321-4.455 3.632-6.93 5.448-1.155 2.641-4.125 5.282-2.805 9.244.99.66 2.145 1.155 4.125.99 2.145-1.816 2.805-5.117 4.125-7.758 1.485-2.642 3.795-4.457 4.125-8.254-.825.165-.99-.495-1.815-.495 0 .495-.66.33-.825.825z" fill="#fff"/></g><g clip-path="url(#clip2)"><path fill-rule="evenodd" clip-rule="evenodd" d="M215.381 801.662c5.918-4.622 11.298-9.575 20.982-11.886 4.304-1.32 9.953-1.65 15.602-.99-4.304-5.943-8.877-11.721-10.491-19.314v-13.701c1.076-4.787 4.035-8.584 6.725-12.381 3.766-2.806 8.339-5.282 12.643-7.758 5.918-1.486 11.298-3.137 18.561-3.632h18.561c1.345.825 4.304.33 6.725.495 6.994 1.156 13.988 2.476 20.175 4.127 5.38 2.311 10.76 4.787 15.602 7.263 1.614 1.981 4.842 2.807 5.918 5.118 3.497.99 3.497 3.962 6.725 5.117 1.345-2.641 6.187-2.971 9.684-4.127 29.59-1.651 51.917 4.622 67.25 13.206.807 1.816 2.959 2.806 4.573 4.127.269 1.651 1.076 3.136 2.152 4.127v11.06c-.807.495-.807 1.651-.807 2.806-1.345 1.156-.538 3.632-2.152 4.622.538 1.321-1.076 1.156-.807 2.311 0 .661-2.421 1.651-.807 1.816 4.842-.165 9.415 0 13.45.495 18.561 5.778 28.514 16.673 33.356 30.869.269 3.797-.269 6.769-.807 10.07-1.345.825-2.152 1.651-2.152 3.136-8.339 7.429-21.251 12.051-40.35 12.876-5.649.165-10.76 0-15.602-.495-4.035.66-8.608.825-12.643 1.321-43.04 1.485-85.542-.33-128.313-.496-7.801-1.65-19.637-1.155-29.052-1.815-.269-.661-1.883-.496-2.959-.496-.538-.66-1.614-.825-2.959-.99-.807-1.156-2.69-1.816-4.573-2.311-4.304.33-6.187-.825-9.684-.991-4.304-2.146-8.608-4.291-11.836-6.933-3.497-3.796-6.187-8.088-7.532-13.206-1.076-9.079 0-17.498 4.842-23.44zm198.522-6.933c.538.33 1.345.495 1.614 0-.269-.496-1.614-.496-1.614 0zM231.79 821.306c1.614 1.32 2.959 2.806 3.766 4.622 1.883 1.32 3.497 2.806 4.573 4.622 4.304 2.146 6.187 5.612 11.836 6.933-1.345-1.156-.807-3.797 0-5.117.538-.165 1.345 0 1.614-.496 8.07-.165 10.76 3.302 11.298 7.759h11.836c1.614-.991-.807-1.816 0-3.632 1.345-3.301 1.345-7.758 5.111-9.574 10.491.33 14.526 4.457 19.368 8.254.269 2.641 0 4.787-2.959 5.447 1.076.991 5.111.165 7.532.495-.538-1.485-2.421-2.311-2.959-3.631 3.228-1.321 5.111 1.155 6.725 2.311h.807c0 .66.269.99.807 1.32 1.076-.165.538-.99 0-1.32h-.807c-2.152-3.302-5.38-5.778-8.339-8.749-2.421-2.641-8.07-5.283-5.111-9.575 8.608.166 9.953 4.953 15.602 6.934 4.573 2.971 8.877 5.942 12.643 9.244a5.332 5.332 0 01.807 3.797c19.368 1.155 41.157.99 61.332 1.815-.269-2.311-2.421-4.292-.807-6.438.538-.165 1.345 0 1.614-.495 7.532.495 9.684 4.127 12.643 7.263h5.111c-1.076-3.136-3.228-5.612-5.111-8.253.269-.991-.538-2.146 0-3.137.538-1.155.807-1.155 2.152-1.816 7.801.991 9.953 5.613 14.795 8.254.538 1.816 2.152 2.972 2.959 4.622 2.69.33 3.228-.825 5.918-.495-.269-4.622-7.532-7.263-5.918-11.39 0-.66 1.345-.495 1.614-.991 5.38.166 8.339 1.816 11.298 3.632 1.883-1.32-1.883-3.136-.807-5.447.807-.165 1.614-.496 2.152-.991 9.146.991 13.719 5.118 17.216 9.575 2.421-1.651-1.076-3.302-.807-5.118-1.883-1.155-2.152-3.301-3.766-4.622-2.152-3.136-5.38-5.612-8.339-8.254.538-1.815 2.69-2.641 6.725-2.311 5.649 1.156 8.877 4.127 11.836 6.933 1.614-.825-1.076-2.641-1.614-3.631-1.345-1.156-1.614-2.972-2.959-4.127-1.883-2.806-5.918-4.457-7.532-7.263 3.766-.826 7.263 1.815 9.684 3.136 1.345-.33-.269-2.641-1.614-2.806.269-1.651-2.152-1.651-2.152-3.137-6.456-3.796-13.181-7.593-23.941-8.749-2.69 0-3.228 1.321-4.573 2.311-1.345 0-1.883.331-2.152.991-.538.66-2.959 0-2.959.99-2.959-.33-4.304-1.65-6.725-2.311-.538-2.146-1.076-4.292-2.152-5.942.269-1.816 2.421-2.477 1.614-5.118-.807-2.476-3.497-3.962-4.573-6.438.269-1.981 4.035.331 4.573-.99.269-2.806-3.228-3.302-5.111-4.622-1.345-1.816-5.111-2.311-5.918-4.622 0-1.816 1.614-2.807 4.573-2.807-1.614-1.65-3.766-2.971-5.111-4.622-11.029-2.641-32.818-6.107-43.309-.99.269 5.447 1.345 11.39-6.725 11.885-3.497 0-4.842-1.65-5.111-3.631-.807.33-1.883.66-3.766.495-4.035-.826-5.649-3.302-7.532-5.448-1.345-2.641-4.842-4.126-6.725-6.438-3.228-1.32-5.38-3.466-8.877-4.622-1.883-2.311-8.608-1.815-8.877-5.117-.269-2.146 2.421-2.476 4.573-3.136 5.649-.331 7.532 1.485 11.298 2.311 4.304 1.815 7.801 3.961 11.836 5.942 0 .496 1.076.331 0 0 .269-1.65-2.152-1.65-2.152-3.136-2.421-.165-2.421-1.981-3.766-2.806-4.304-.826-7.263-2.807-12.374-3.632-1.345-1.156-4.304-.99-5.918-1.816-2.421-.495-5.649-.495-7.532-1.32-1.076.66-3.228.495-5.111.495-1.614-.165-2.959-.495-4.573-.991h-13.45c-7.532.496-12.643 2.642-17.216 5.118-3.228 2.806-5.38 6.107-6.725 10.069v9.079c1.345 9.41 8.07 15.517 12.643 22.946v3.631c0 .496-.538.496-.807.991-.269.99-1.883.99-2.959 1.321-2.69-.496-2.421.99-3.766 1.32-2.152-.165-3.228-1.155-5.111-1.32H245.24c-.538.66-2.421.66-3.766.99-.269.495-1.076.99-2.152.99-1.345 2.146-4.304 3.467-5.918 5.448-1.883 1.981-2.959 4.292-4.573 6.438 0 .495 0 1.32-.807 1.32 1.345 3.797 2.959 7.429 3.766 11.391zm68.057-76.1c0 .66-.269.99-.807 1.321-4.035-.165-8.877.33-11.836-.496.538-2.146 9.684-1.32 12.643-.825zm28.245 22.12c4.573 1.321 7.263 3.632 11.298 5.448 1.883 2.641 6.725 5.282 4.573 9.244-1.614.66-3.497 1.155-6.725.99-3.497-1.816-4.573-5.117-6.725-7.758-2.421-2.642-6.187-4.457-6.725-8.254 1.345.165 1.614-.495 2.959-.495 0 .495 1.076.33 1.345.825z" fill="#fff"/></g><g clip-path="url(#clip3)"><path fill-rule="evenodd" clip-rule="evenodd" d="M1102.26 94.984c.37-2.187-1.95-4.528-2.55-6.742-.31-.334-.73-.101-1.03-.598-1.09-.843-2.23-.874-3.42-1.475-1.22-.114-2.46-1.287-3.68-1.238-2.28-1.445-4.68-2.323-7.07-3.202-2.36-1.528-4.7-1.998-7.05-3.688-2.32-.795-4.67-2.323-7.07-3.202-4.64-2.973-9.45-4.404-14.09-7.377-4.74-2.57-9.35-4.647-14.06-7.866-1.13-.193-2.28-1.445-3.39-1.963-1.28-.522-2.36-1.528-3.63-2.213-2.37-1.204-4.67-2.323-7.01-4.177-2.42-.553-4.64-2.973-7.05-3.689-1.06-1.33-2.29-1.282-3.36-2.45-1.22-.114-2.43-1.775-3.66-1.726-4.6-3.624-9.41-5.055-14.03-8.353-1.188-.602-2.308-.957-3.392-1.963-1.226.048-2.436-1.612-3.652-1.726-1.237-1.173-2.435-1.612-3.679-1.238-1.292-.198-2.404-.716-3.807 1.037-.442 3.489 2.045 7.055 2.905 10.579.372 3.51 2.696 7.072 3.393 10.591 1.923 3.47 2.046 7.055 3.968 10.525-.015 1.71 1.109 3.449 1.017 5.074.682.914.55 1.806.906 2.71-.458.884 1.038 1.82-.147 2.602-5.629 4.407-11.249 8.652-16.819 13.468-2.856 2.936-5.543 4.329-8.398 7.264l-4.214 3.876c-2.112 1.327-1.219 2.816-1.301 4.279 2.785 4.063 5.979 2.358 8.966 2.845 1.502-.611 3.025-.163 4.604-.691 1.655-.444 3.273-.238 4.861-.928 3.322.333 6.74.425 10.253.275 1.609.369 3.35-.154 5.136-.107 1.76.699 3.61-.391 5.35.632 1.49 5.25 3.73 10.438 5.06 15.683a75.268 75.268 0 012.49 7.881c.91 2.548 1.17 5.241 2 7.868-.25 1.458.4 2.859-.24 4.226.4 1.476-.74 2.992 1.04 4.586.9 1.327 1.9 1.028 2.86 1.379 1.08-.378 2.16.628 3.14.654 1.69-1.094 1.69-2.478 3.09-2.847 6.36-1.377 12.89-5.842 19.33-10.227 6.57-3.732 13.17-8.113 19.79-12.657 1.54-1.424 3.11-1.789 4.75-3.291 1.65-.444 3.39-2.352 4.95-2.554 1.62-1.34 3.12-1.789 4.72-2.804 1.68-.769 3.3-2.109 4.96-2.553 1.64-1.666 3.19-1.705 4.75-3.292.79.347 1.72-1.744 2.51-1.235.84-.466 1.76-2.232 2.47-1.806.77-.712 1.73-1.907 2.46-1.806.84-.466 1.76-2.232 2.47-1.806 1.95-1.332 2.45-3.028 3.6-4.544zM999.396 49.088c-1.643-2.65-1.821-5.259-3.55-7.828 1.406-.37 2.493 2.02 3.881 1.976 1.143 1.414 2.453 1.287 3.673 2.784-1.39 1.591-2.7 1.556-4.004 3.068zm3.204 9.69c-.62-2.051-1.73-4.116-.96-6.211l5.08-4.667c1.54 1.507 3.09 1.467 4.62 3.298-2.82 2.285-5.81 4.729-8.74 7.58zm1.37 4.433c2.34-3.845 6.63-7.637 8.73-11.57 1.63 1.428 3.19 2.61 4.88 3.062.39.255.37.58.28.821-4.02 3.393-9.98 7.791-12.5 11.957-.89-1.49-.89-2.873-1.39-4.27zm26.92-.419c1.17.927 2.45 1.45 3.63 2.214-2.68 2.614-6.65 5.194-4.77 7.93 1.84 2.004 4.02-.462 5.98-1.956 1.04-1.111 2.08-2.223 2.07-3.444 2.09.544 3.81 1.73 5.79 2.84 1.65.94 3 1.71 4.41 2.561.4.255.65.18 1.03.597.23.25.41-.07.49.014 1.9 1.027 3.78 2.38 5.67 3.408 2.06 1.032 4.23 1.66 6.02 3.091.35-.316.56.26 0 0-6.62-.991-13.31-2.391-19.96-2.895-3.39-.58-6.73-.75-10.12-1.33-1.71.036-3.41-.253-5.11-.38-1.69-.453-3.42-.092-5-.948a18.282 18.282 0 013.59-5.765l6.36-5.853-.08-.084zm-9.15-5.291c1.74.86 3.45 2.371 5.14 2.823.39.255.37.58.28.822-3.53 3.243-7.75 5.734-9.89 9.096-.29.725-.25 1.458-.61 2.1.38.58.99 1.247.14 1.876-2.3-1.12-4.62-.53-6.91-1.813-.45-3.594 3.66-7.065 7.61-10.541.9-1.441 2.53-2.944 4.24-4.363zm-16.53 40.012c-1.03-.597-2.12-.057-3.16-1.713-3.095-.083-6.817.876-9.489.56-.488-.013-1.025-.597-1.599-.531-.814-.022-1.818.44-2.718.497-1.063.053-2.012-.461-2.911-.404-.163-.004-.353.48-.602.554-.086.08-.633-.343-.795-.347-1.56.203-2.89.655-4.373.941-.166-1.388 1.864-1.252 2.579-2.373l9.716-8.938c4.32-2.896 7.308-6.723 11.232-8.327 1.63-.119 3.19 1.225 4.79 1.756 1.63-.119 3.22.738 4.74 1.186 3.32.333 6.6.095 9.91.59.98.027 1.9 1.028 2.86 1.38 4.28.521 8.5.96 12.79 1.482 2.18.302 4.19.763 6.39.74 2.26.55 4.43 1.015 6.63.992 1.01.923 2.11.22 3.14.654 1.11.519 2.18.465 3.14.654 2.09.545 4.2.764 6.35 1.717 2.11.056 4.25 1.172 6.36 1.228 2.22 1.2 4.45.69 6.65 2.05.35-.316.56.26 0 0-11.92.495-23.92 2.29-35.81 1.972-1.52.936-2.84-.158-4.34.453-1.52-.448-3.1.08-4.58.203-1.35-.606-2.88.493-4.23-.113-1.59.69-3-.162-4.6.69-5.85-.319-12.03 2.283-18.07 2.447zm8.16 4.207c.98-.136 1.98-.435 2.91.404-1.26.698-1.07 1.599-2.01 2.306-.35-.904-.22-1.796-.9-2.71zm49.82 11.021c-7.8 5.326-15.43 10.494-23.08 14.604-1.34.777-2.48.747-3.8 1.037-4.18 3.226-8.42 6.205-12.52 7.968-.73-1.485-.41-2.86-.81-4.336-.33-1.393-.9-2.873-.81-4.336-1.64-2.812-1.48-5.575-2.95-8.382.64-1.366 2.35-2.623 2.09-3.932-1.11-1.902-2.26-.386-3.37-.905-.95-1.897-1.09-3.773-2.04-5.671 1.34-2.162 2.04-4.341 3.31-6.586 2.93-1.468 5.69.153 8.6-.828 2.77.074 5.58-.664 8.35-.59 5.67-.906 11.26-.349 16.92-.93 5.6.394 11.27-.35 16.97-.36.76-.387 1.38.118 2.12.057 1.47-.123 2.63-.418 4.34-.454.42-.07 1.12.519 1.63.044.43-.395 3.52-.15 4.58-.203 1.46.04 3.12-.405 4-.137.24.088.13.492-.03.488-8.01 4.75-15.69 7.963-23.5 13.452z" fill="#fff"/></g><defs><clipPath id="clip0"><path fill="#fff" transform="translate(1186 274)" d="M0 0h285v209H0z"/></clipPath><clipPath id="clip1"><path fill="#fff" transform="translate(0 107)" d="M0 0h165v121H0z"/></clipPath><clipPath id="clip2"><path fill="#fff" transform="matrix(-1 0 0 1 479 732)" d="M0 0h269v121H0z"/></clipPath><clipPath id="clip3"><path fill="#fff" transform="rotate(47.388 508.906 1161.283)" d="M0 0h127.005v107.365H0z"/></clipPath></defs></svg>
