<svg width="1440" height="1471" viewBox="0 0 1440 1471" fill="none" xmlns="http://www.w3.org/2000/svg">
<path d="M667.749 1036.13C667.424 1038.85 667.026 1041.58 666.792 1044.3C666.643 1046.01 667.157 1047.57 667.99 1049.01C669.265 1051.22 670.515 1053.46 671.811 1055.65C672.271 1056.41 672.843 1057.16 673.457 1057.81C676.804 1061.34 679.342 1065.48 682.094 1069.48C682.597 1070.22 683.057 1070.98 683.632 1071.64C684.032 1072.11 684.534 1072.53 685.083 1072.82C685.823 1073.23 686.584 1073.23 687.282 1072.54C688.024 1071.81 688.792 1071.13 689.591 1070.48C690.211 1069.98 690.914 1069.59 691.52 1069.07C692.033 1068.64 692.523 1068.15 692.93 1067.63C693.308 1067.15 693.167 1066.66 692.858 1066.18C692.655 1065.88 692.576 1065.51 692.416 1065.18C692.185 1064.68 691.978 1064.15 691.661 1063.71C689.074 1060.1 685.895 1057.04 682.916 1053.81C680.323 1051.03 678.79 1047.65 677.715 1043.99C677.215 1042.28 677.455 1040.57 678.47 1039.04C679.816 1037 681.42 1035.19 683.286 1033.65C683.577 1033.41 684.04 1033.19 684.378 1033.22C686.701 1033.43 689.053 1033.58 691.223 1034.55C692.949 1035.32 694.404 1036.48 695.685 1037.86C697.993 1040.38 700.344 1042.87 702.472 1045.54C703.739 1047.14 704.609 1049.06 705.675 1050.83C706.038 1051.46 706.354 1052.14 706.786 1052.72C707.133 1053.18 707.572 1053.64 708.073 1053.91C708.425 1054.11 709.014 1054.15 709.382 1053.96C710.421 1053.44 711.45 1052.89 712.356 1052.16C713.63 1051.17 714.854 1050.07 716.018 1048.92C717.224 1047.74 717.314 1046.46 716.409 1045.1C714.931 1042.91 713.449 1040.74 711.971 1038.55C711.658 1038.1 711.388 1037.61 711.16 1037.1C710.3 1035.22 708.995 1033.71 707.559 1032.3C705.922 1030.81 704.383 1029.22 702.75 1027.71C699.787 1024.98 696.384 1022.98 692.601 1021.55C689.452 1020.35 686.277 1020.15 682.962 1020.98C681.162 1021.42 679.549 1022.24 678.093 1023.48C677.307 1024.15 676.368 1024.63 675.626 1025.35C673.43 1027.47 671.09 1029.42 669.551 1032.15C668.826 1033.44 668.144 1034.7 667.94 1036.17C667.87 1036.16 667.818 1036.15 667.749 1036.13ZM688.383 1068.14C687.541 1069.07 687.394 1069.08 686.468 1068.37C685.525 1067.66 684.548 1067.02 683.601 1066.33C683.448 1066.2 683.401 1065.93 683.303 1065.72C683.561 1065.62 683.813 1065.46 684.047 1065.47C684.228 1065.47 684.413 1065.69 684.583 1065.82C685.83 1066.63 686.896 1067.76 688.383 1068.14C688.315 1067.88 688.301 1067.54 688.126 1067.35C687.783 1066.95 687.385 1066.55 686.948 1066.24C686.184 1065.7 685.352 1065.22 684.55 1064.68C684.927 1064.14 685.258 1064.35 685.58 1064.53C686.407 1064.95 687.256 1065.36 688.061 1065.8C688.37 1065.95 688.731 1066.12 688.903 1066.39C689.636 1067.48 690.038 1067.54 688.383 1068.14ZM700.383 1032.11C699.762 1032.46 699.259 1032.68 698.827 1032.99C698.485 1033.23 698.109 1033.53 697.92 1033.89C697.793 1034.13 697.817 1034.59 697.967 1034.8C698.09 1034.98 698.528 1035.04 698.764 1034.96C699.568 1034.68 700.358 1034.31 701.144 1033.95C701.646 1033.73 702.112 1033.67 702.497 1034.05C703.133 1034.68 703.739 1035.36 704.353 1036C704.541 1036.21 704.747 1036.42 704.965 1036.58C705.367 1036.88 705.863 1037.09 706.157 1037.47C707.151 1038.67 708.08 1039.93 709.027 1041.18C709.304 1041.56 709.175 1041.89 708.864 1042.22C708.072 1043.09 707.277 1043.97 706.485 1044.83C705.791 1045.58 705.749 1045.61 705.18 1044.84C702.915 1041.65 700.321 1038.8 697.574 1036.06C695.58 1034.08 693.396 1032.37 690.835 1031.22C689.835 1030.76 688.748 1030.29 687.672 1030.25C683.785 1030.08 680.457 1031.52 678.08 1034.92C676.907 1036.59 676.013 1038.47 674.996 1040.25C674.254 1041.53 674.293 1042.8 674.714 1044.15C675.274 1045.91 676.062 1047.55 677.013 1049.11C678.429 1051.49 679.798 1053.92 681.239 1056.27C681.65 1056.93 682.297 1057.43 682.807 1058.06C683.501 1058.91 684.17 1059.79 684.801 1060.69C684.894 1060.84 684.809 1061.29 684.655 1061.41C683.759 1062.18 682.836 1062.9 681.903 1063.59C681.749 1063.71 681.344 1063.74 681.277 1063.64C680.643 1062.76 679.892 1061.92 679.498 1060.94C679.176 1060.12 678.808 1059.43 678.203 1058.82C676.892 1057.5 675.518 1056.21 674.301 1054.79C671.454 1051.46 669.763 1047.57 669.836 1042.92C669.865 1041.34 669.805 1039.77 669.908 1038.19C669.956 1037.33 670.073 1036.41 670.425 1035.65C671.856 1032.6 673.78 1029.92 676.469 1027.87C676.798 1027.61 677.127 1027.36 677.426 1027.07C679.354 1025.27 681.631 1024.39 684.11 1023.99C684.636 1023.9 685.198 1023.9 685.692 1024.03C687.449 1024.5 689.193 1025.03 690.908 1025.61C691.902 1025.93 691.855 1025.98 691.546 1027.03C691.459 1027.33 691.535 1027.8 691.723 1028C691.912 1028.21 692.371 1028.26 692.659 1028.18C693.081 1028.08 693.457 1027.78 693.878 1027.59C694.136 1027.49 694.493 1027.35 694.688 1027.45C695.21 1027.7 695.669 1028.07 696.253 1028.45C695.946 1028.69 695.753 1028.82 695.574 1028.98C695.202 1029.26 694.778 1029.54 694.437 1029.85C694.048 1030.2 693.596 1030.61 693.989 1031.19C694.338 1031.73 694.832 1031.54 695.296 1031.33C696.039 1031 696.759 1030.62 697.515 1030.31C697.773 1030.21 698.208 1030.13 698.375 1030.27C699.065 1030.82 699.67 1031.43 700.383 1032.11ZM712.586 1048.82C712.552 1048.89 712.532 1048.98 712.498 1049.05C710.969 1048.45 709.436 1047.87 707.889 1047.27C707.884 1047.21 707.879 1047.15 707.874 1047.09C708.171 1047.06 708.468 1046.95 708.749 1046.98C709.082 1047.03 709.409 1047.19 709.739 1047.32C710.751 1047.73 711.784 1048.04 712.586 1048.82ZM710.531 1050.47C710.558 1050.59 710.572 1050.69 710.6 1050.8C710.338 1050.92 710.068 1051.08 709.797 1051.16C709.603 1051.21 709.306 1051.25 709.222 1051.14C708.936 1050.8 708.736 1050.41 708.515 1050.02C708.462 1049.94 708.472 1049.73 708.544 1049.65C708.599 1049.57 708.806 1049.53 708.885 1049.59C709.455 1049.87 709.999 1050.18 710.531 1050.47Z" fill="#E1E8E5"/>
<path d="M699.45 1077.49C700.152 1077.21 700.676 1076.98 701.23 1076.79C701.885 1076.55 702.24 1076.1 702.308 1075.39C702.386 1074.72 702.036 1074.32 701.494 1074.14C699.967 1073.63 698.414 1073.15 696.879 1072.68C696.162 1072.46 695.427 1072.24 694.689 1072.12C694.357 1072.05 693.919 1072.14 693.608 1072.31C693.085 1072.61 693.029 1073.27 693.529 1073.56C694.368 1074.05 695.253 1074.41 696.151 1074.8C696.58 1075 697.04 1075.14 697.679 1075.38C697.32 1075.6 697.14 1075.76 696.936 1075.85C696.365 1076.12 695.763 1076.37 695.206 1076.66C694.691 1076.92 694.436 1077.41 694.453 1077.99C694.47 1078.57 694.771 1078.93 695.283 1079.09C697.413 1079.75 699.543 1080.42 701.703 1081.03C702.954 1081.39 704.242 1081.66 705.513 1081.93C705.741 1081.98 706.149 1081.94 706.217 1081.8C706.34 1081.58 706.361 1081.16 706.24 1080.96C705.978 1080.59 705.642 1080.21 705.243 1080.04C703.468 1079.25 701.66 1078.54 699.873 1077.8C699.776 1077.75 699.705 1077.66 699.45 1077.49Z" fill="#E1E8E5"/>
<path d="M718.495 1057.8C717.852 1058.15 717.195 1058.48 716.592 1058.9C715.494 1059.65 715.522 1060.75 716.695 1061.28C717.54 1061.65 718.468 1061.82 719.321 1062.15C720.795 1062.73 722.248 1063.39 723.718 1063.98C724.02 1064.1 724.347 1064.18 724.682 1064.23C725.35 1064.34 725.85 1064.06 726.051 1063.49C726.248 1062.93 726.061 1062.31 725.483 1062.04C724.861 1061.73 724.154 1061.55 723.502 1061.29C722.4 1060.85 721.302 1060.39 720.208 1059.91C720.107 1059.87 720.058 1059.76 719.873 1059.61C720.188 1059.43 720.442 1059.27 720.714 1059.11C721.051 1058.91 721.427 1058.77 721.702 1058.52C722.381 1057.93 722.429 1056.98 721.743 1056.47C721.15 1056.03 720.48 1055.69 719.801 1055.38C718.129 1054.64 716.449 1053.93 714.748 1053.24C714.38 1053.09 713.922 1053.02 713.51 1053.07C713.249 1053.1 712.879 1053.37 712.808 1053.6C712.72 1053.83 712.861 1054.26 713.038 1054.45C713.333 1054.75 713.741 1054.96 714.135 1055.16C715.278 1055.74 716.43 1056.29 717.577 1056.86C717.853 1057.01 718.121 1057.19 718.393 1057.36C718.448 1057.52 718.471 1057.66 718.495 1057.8Z" fill="#E1E8E5"/>
<path d="M1380.75 765C1380.75 765 1369.57 756.594 1365.52 744.058C1361.89 732.855 1361.92 722.192 1351.19 717.573C1344.41 714.651 1339.6 716.493 1332.3 717.573C1324.66 718.703 1320.71 720.918 1313.41 723.425C1305.7 726.067 1301.01 726.813 1293.9 730.816C1288.39 733.92 1284.25 735.029 1280.8 740.363C1278.26 744.277 1277.06 747.08 1277.14 751.757C1277.22 756.207 1277.36 757.912 1280.8 760.688C1284.8 763.915 1289.07 765.15 1293.9 763.46C1297.86 762.076 1300.8 760.131 1302.74 756.377C1305.78 750.514 1305.61 746.459 1301.52 741.287C1296.11 734.432 1287.5 727.246 1275.92 723.425C1263.25 719.242 1241.75 723.425 1241.75 723.425" stroke="#E1E8E5" stroke-linecap="round" stroke-linejoin="round" stroke-dasharray="3 9"/>
<path d="M1198.48 721.379C1199.85 722.39 1201.12 723.865 1202.17 725.19C1202.77 725.945 1204.26 727.46 1204.26 727.46C1204.26 727.46 1205.74 729.249 1206.82 730.262C1207.71 731.094 1208.35 731.407 1209.23 732.244C1210.51 733.453 1211.1 734.262 1212.19 735.649C1212.99 736.662 1213.3 737.33 1214.13 738.316C1215.01 739.37 1215.61 739.866 1216.58 740.838C1217.47 741.736 1217.99 742.224 1218.9 743.109C1219.35 743.553 1219.64 743.897 1220.06 744.244C1220.38 744.501 1220.84 744.801 1221.11 745.136C1221.68 745.857 1224.66 743.896 1225.2 743.352C1226.29 742.253 1227.54 741.413 1228.65 740.352C1229.23 739.797 1229.93 739.387 1230.5 738.811C1230.87 738.434 1231.31 738.121 1231.7 737.766C1232.15 737.365 1232.34 736.931 1232.82 736.46C1233.58 735.723 1234.3 735.375 1234.98 734.848C1235.7 734.298 1236.13 733.626 1236.91 732.893C1238.21 731.666 1239.26 730.656 1240.44 729.974C1241 729.65 1241.92 728.19 1242.45 728.19" stroke="#E1E8E5" stroke-width="1.5" stroke-linecap="round" stroke-linejoin="round"/>
<path d="M1198.96 721.54C1200.62 721.54 1202.04 722.513 1203.69 722.513C1205.27 722.513 1206.85 722.513 1208.43 722.513C1210.06 722.513 1211.57 722.742 1213.16 722.99C1213.91 723.107 1214.67 723.025 1215.42 723.198C1216.38 723.42 1217.14 723.648 1218.15 723.648C1220.59 723.648 1223.08 723.995 1225.44 724.657C1226.76 725.026 1228.14 725.145 1229.45 725.513C1230.51 725.808 1231.63 725.698 1232.7 726.044C1234.43 726.608 1236.45 726.445 1238.12 727.09C1238.76 727.336 1239.68 727.288 1240.37 727.387C1240.94 727.47 1241.36 727.702 1241.97 727.702" stroke="#E1E8E5" stroke-width="1.5" stroke-linecap="round" stroke-linejoin="round"/>
<path d="M1198.64 721.216C1200.24 721.216 1201.9 721.054 1203.45 721.054C1205.64 721.054 1207.77 720.568 1209.96 720.568C1214.97 720.568 1219.99 720.406 1225.02 720.406C1228.79 720.406 1232.55 720.406 1236.32 720.406C1240.43 720.406 1244.45 720.73 1248.55 720.73" stroke="#E1E8E5" stroke-width="1.5" stroke-linecap="round" stroke-linejoin="round"/>
<path d="M1199.12 721.217C1202.56 721.217 1205.49 720.222 1208.67 719.037C1209.67 718.666 1211.29 718.46 1212.37 718.46C1213.59 718.46 1214.79 717.812 1216.01 717.812C1219.08 717.812 1222.06 717.163 1225.12 717.163C1227.34 717.163 1229.51 716.43 1231.7 716.028C1235.42 715.344 1239.23 714.45 1243.01 714.244C1244.03 714.188 1244.81 713.803 1245.98 713.595C1246.95 713.423 1248.48 713.235 1248.48 713.235C1248.48 713.235 1249.79 712.989 1250.35 712.947L1255.53 712.055C1256.12 711.922 1256.6 711.96 1257.06 711.776C1257.93 711.422 1258.97 711.572 1259.86 711.316C1260.63 711.095 1261.44 710.769 1262.19 710.514" stroke="#E1E8E5" stroke-width="1.5" stroke-linecap="round" stroke-linejoin="round"/>
<path d="M1249.03 720.893C1250.29 720.399 1252.73 718.046 1252.73 718.046C1252.73 718.046 1254.07 716.941 1254.65 716.352C1255.04 715.957 1255.68 715.432 1256.16 715.217C1256.74 714.957 1257.78 714.235 1257.78 714.235C1257.78 714.235 1259.01 713.558 1259.18 713.271C1259.7 712.386 1261.29 711.304 1262.19 711.001" stroke="#E1E8E5" stroke-width="1.5" stroke-linecap="round" stroke-linejoin="round"/>
<path d="M1249.19 745.378C1247.56 744.818 1246.15 743.796 1244.62 743.108C1243.35 742.538 1241.99 741.482 1240.61 741.171C1239.97 741.029 1239.41 740.333 1238.67 740.198C1237.94 740.063 1237.19 739.645 1236.52 739.342C1235.78 739.011 1234.82 738.914 1234.19 738.406C1233.8 738.092 1232.71 737.849 1232.5 737.433" stroke="#E1E8E5" stroke-width="1.5" stroke-linecap="round" stroke-linejoin="round"/>
<path d="M1249.35 745.378C1248.94 743.251 1249.19 740.898 1249.19 738.73C1249.19 736.709 1249.03 734.701 1249.03 732.658C1249.03 729.023 1248.55 725.458 1248.55 721.865" stroke="#E1E8E5" stroke-width="1.5" stroke-linecap="round" stroke-linejoin="round"/>
<path d="M1242.45 728.189C1243.09 729.473 1243.89 730.761 1244.5 732.081C1245.19 733.549 1245.55 735.18 1246.18 736.622C1246.44 737.2 1246.58 737.782 1246.82 738.531C1247.07 739.302 1247.43 740.513 1247.43 740.513L1248.4 744.764" stroke="#E1E8E5" stroke-width="1.5" stroke-linecap="round" stroke-linejoin="round"/>
<path d="M1224.14 729.672C1224.66 729.477 1224.74 729.022 1225.14 728.711C1225.29 728.596 1225.53 728.413 1225.61 728.246" stroke="#E1E8E5" stroke-width="1.5" stroke-linecap="round" stroke-linejoin="round"/>
<path d="M1226.19 730.38C1226.37 729.943 1226.79 729.615 1227.07 729.24C1227.19 729.094 1227.28 728.94 1227.41 728.808C1227.48 728.735 1227.62 728.667 1227.67 728.575C1227.83 728.285 1228.05 728.035 1228.19 727.751" stroke="#E1E8E5" stroke-width="1.5" stroke-linecap="round" stroke-linejoin="round"/>
<path d="M1228 731.008C1228.14 730.619 1228.58 730.299 1228.84 729.968C1228.91 729.887 1229.15 729.504 1229.17 729.556" stroke="#E1E8E5" stroke-width="1.5" stroke-linecap="round" stroke-linejoin="round"/>
<path d="M1229.64 731.873C1229.69 731.768 1230.16 730.892 1230.27 731.009" stroke="#E1E8E5" stroke-width="1.5" stroke-linecap="round" stroke-linejoin="round"/>
<path d="M1231.17 732.775C1231.3 732.605 1231.41 732.439 1231.53 732.264" stroke="#E1E8E5" stroke-width="1.5" stroke-linecap="round" stroke-linejoin="round"/>
<path d="M436.68 580.7C436.164 579.919 435.481 579.328 434.652 578.847C433.457 578.145 432.317 577.363 431.169 576.601C431.063 576.526 430.987 576.263 431.037 576.138C431.519 574.936 432.016 573.751 432.557 572.572C432.656 572.355 432.969 572.111 433.2 572.101C434.987 571.978 436.766 571.875 438.559 571.822C439.573 571.785 439.891 571.643 440.281 570.728C440.655 569.851 440.014 568.843 439.061 568.869C436.485 568.95 433.921 569.057 431.342 568.835C429.41 568.667 427.453 568.79 425.505 568.805C425.321 568.81 425.058 568.874 424.97 569.006C424.741 569.351 425.014 570.682 425.341 570.999C426.001 571.647 426.709 572.203 427.749 571.988C427.935 571.95 428.133 571.994 428.327 571.992C429.533 572.043 429.533 572.043 429.266 573.162C429.239 573.285 429.217 573.398 429.18 573.518C428.703 575.077 428.281 575.224 426.811 574.413C425.864 573.886 424.923 573.317 423.918 572.934C422.04 572.208 420.102 571.604 418.193 570.955C417.485 570.711 417.429 570.622 417.699 569.949C418.212 568.67 418.729 567.382 419.241 566.103L419.232 566.099C419.76 564.781 420.304 563.481 420.803 562.152C420.897 561.889 420.939 561.471 420.789 561.279C420.367 560.746 419.903 560.175 419.32 559.846C418.526 559.39 417.6 559.149 416.733 558.82C416.337 558.676 416.149 558.435 416.166 557.997C416.203 557.254 416.182 556.512 416.225 555.783C416.268 555.165 416.276 554.523 416.46 553.95C416.906 552.611 417.414 551.286 417.962 549.977C418.975 547.592 420.608 545.784 423.145 544.865C423.81 544.625 423.99 544.685 424.188 545.352C425.06 548.22 425.972 551.071 426.756 553.96C427.255 555.803 427.556 557.713 427.95 559.592C428.176 560.671 428.801 561.406 429.818 561.504C430.715 561.589 431.103 562.009 431.21 562.818C431.224 562.924 431.266 563.018 431.294 563.118C431.705 564.248 432.559 564.694 433.74 564.412C434.267 564.285 434.809 564.208 435.327 564.077C435.767 563.972 436.217 563.87 436.625 563.674C437.792 563.085 438.046 562.451 437.678 561.216C437.63 561.052 437.586 560.879 437.524 560.721C437.295 560.019 437.099 559.319 437.566 558.635C437.628 558.537 437.659 558.404 437.658 558.292C437.606 557.259 437.649 556.219 437.476 555.205C436.782 551.327 436.014 547.465 435.283 543.595C435.162 542.935 435.234 542.841 435.884 542.607C436.003 542.564 436.118 542.532 436.228 542.486C437.164 542.163 437.533 541.695 437.397 540.73C437.242 539.645 437.033 538.55 436.715 537.502C436.297 536.081 435.753 535.823 434.275 536.111C432.398 536.487 431.133 535.791 430.492 534.048C430.434 533.881 430.386 533.717 430.297 533.571C430.125 533.292 429.98 532.946 429.724 532.79C429.223 532.482 428.872 532.111 428.634 531.572C428.381 530.928 427.913 530.766 427.28 530.985C426.766 531.162 426.264 531.366 425.75 531.543C425.277 531.702 425.091 531.996 425.067 532.51C425.048 532.87 424.878 533.293 424.621 533.537C424.252 533.893 424.101 534.268 424.196 534.739C424.305 535.26 424.41 535.791 424.57 536.299C424.722 536.77 424.62 537.053 424.155 537.305C423.794 537.497 423.446 537.828 423.266 538.191C423.077 538.551 422.884 538.72 422.495 538.757C420.121 538.983 417.912 539.763 415.734 540.634C415.072 540.897 414.372 541.313 413.953 541.849C413.013 543.061 412.11 544.32 411.416 545.684C410.257 547.922 409.699 550.363 409.503 552.89C409.302 555.46 409.171 558.024 409.874 560.548C410.11 561.375 409.982 562.092 409.595 562.831C409.071 563.827 408.527 564.815 408.13 565.861C407.816 566.673 407.397 567.321 406.642 567.759C405.987 568.148 405.385 568.657 404.692 568.942C404.098 569.176 403.691 569.484 403.487 570.049C403.335 570.457 403.149 570.863 403.107 571.28C403.068 571.688 403.054 572.261 403.299 572.502C404.006 573.202 404.843 573.775 405.646 574.38C405.717 574.43 405.844 574.424 405.944 574.43C406.149 574.455 406.357 574.447 406.561 574.505C407.718 574.792 408.86 575.173 410.037 575.379C411.341 575.612 412.613 575.922 413.838 576.436C418.534 578.433 423.437 579.967 427.982 582.34C430.143 583.466 432.57 583.728 434.951 584.105C435.484 584.192 435.965 584.013 436.342 583.638C437.027 582.95 437.214 581.521 436.68 580.7ZM435.535 560.954C435.605 561.204 435.642 561.452 435.71 561.79C435.271 561.952 434.855 562.111 434.437 562.248C434.124 562.348 433.904 562.217 433.738 561.952C433.273 561.213 433.314 561.084 434.116 560.753C434.28 560.684 434.456 560.642 434.598 560.542C435.111 560.142 435.364 560.331 435.535 560.954ZM434.467 538.579C435.428 538.165 435.541 538.221 435.604 539.225C435.637 539.683 435.655 540.147 435.678 540.712C435.401 540.837 435.161 541.01 434.899 541.041C434.792 541.054 434.596 540.777 434.523 540.592C434.371 540.177 434.292 539.723 434.144 539.298C434.007 538.932 434.098 538.734 434.467 538.579ZM432.779 541.088C433.631 545.195 434.456 549.313 435.317 553.424C435.558 554.608 435.886 555.772 436.15 556.955C436.184 557.124 436.104 557.438 435.977 557.499C434.562 558.168 433.125 558.807 431.688 559.445C431.538 559.508 431.354 559.514 431.135 559.551C431.04 559.391 430.923 559.256 430.881 559.106C430.244 556.986 429.62 554.861 428.982 552.741C428.752 551.983 428.397 551.254 428.228 550.487C427.649 547.823 427.243 545.126 426.373 542.537C426.247 542.143 426.373 541.97 426.75 541.85C428.333 541.358 429.908 540.83 431.5 540.342C432.36 540.067 432.6 540.205 432.779 541.088ZM431.106 537.472C431.298 537.447 431.588 537.516 431.705 537.651C431.849 537.83 431.86 538.113 431.934 538.409C431.708 538.52 431.548 538.636 431.38 538.659C429.55 538.976 427.727 539.273 425.89 539.577C425.611 539.623 425.325 539.655 425.201 539.284C425.084 538.926 425.251 538.68 425.559 538.59C426.337 538.35 427.128 538.104 427.932 537.94C428.978 537.739 430.044 537.601 431.106 537.472ZM426.36 534.553C427.093 534.34 427.848 534.213 428.605 534.053C428.669 534.034 428.738 534.061 428.881 534.073C428.956 534.225 429.08 534.396 429.131 534.582C429.474 535.964 429.659 535.814 428.204 536.044C427.756 536.113 427.302 536.169 426.86 536.251C426.465 536.33 426.257 536.171 426.172 535.815C426.118 535.582 426.001 535.336 426.033 535.115C426.057 534.913 426.194 534.599 426.36 534.553ZM433.163 581.712C432.145 581.191 431.157 580.625 430.153 580.098C426.924 578.408 423.545 577.094 420.134 575.801C418.458 575.165 416.773 574.582 415.001 574.243C414.664 574.178 414.373 573.941 414.041 573.833C413.303 573.577 412.573 573.246 411.809 573.113C410.178 572.819 408.551 572.515 407.08 571.737C406.762 571.568 406.517 571.272 406.23 571.025C406.494 570.762 406.704 570.41 407.02 570.245C407.426 570.025 407.906 569.847 408.347 569.853C408.911 569.862 409.148 569.61 409.317 569.187C410.12 567.243 410.922 565.299 411.724 563.354C411.736 563.325 411.741 563.283 411.763 563.258C412.937 561.037 412.719 558.692 412.491 556.288C412.028 551.466 413.269 547.123 416.769 543.577C418.154 542.162 419.836 541.253 421.795 540.841C422.143 540.766 422.328 540.872 422.455 541.178C422.594 541.511 422.729 541.853 422.892 542.184C423.064 542.519 422.936 542.669 422.608 542.807C421.809 543.128 421.008 543.426 420.255 543.832C418.209 544.943 416.713 546.549 415.83 548.695C415.261 550.086 414.682 551.472 414.143 552.874C413.546 554.42 413.644 556.017 413.946 557.615C414.035 558.073 414.161 558.523 414.273 558.979C414.412 559.512 414.718 559.91 415.218 560.162C416.096 560.607 416.97 561.061 417.835 561.511C418.436 561.825 418.501 561.917 418.238 562.515C417.723 563.715 417.096 564.883 416.649 566.11C416.124 567.562 415.707 569.056 415.293 570.541C415.144 571.083 415.325 571.566 415.846 571.882C416.606 572.336 417.34 572.857 418.149 573.219C419.476 573.817 420.859 574.304 422.213 574.836C422.205 574.855 422.202 574.864 422.194 574.884C424.039 575.607 425.924 576.258 427.717 577.083C428.753 577.557 429.661 578.324 430.639 578.942C431.557 579.514 432.496 580.06 433.414 580.631C433.569 580.726 433.755 580.887 433.797 581.037C433.851 581.27 433.833 581.541 433.748 581.753C433.739 581.805 433.335 581.791 433.163 581.712Z" fill="#E1E8E5"/>
<path d="M416.517 562.738C415.896 562.049 415.112 561.909 414.12 562.287C413.37 562.572 412.911 563.093 412.645 563.812C412.547 564.141 412.416 564.468 412.362 564.803C412.218 565.614 412.691 566.701 413.246 566.93C414.161 567.311 415.46 566.931 416.015 566.113C416.236 565.788 416.451 565.45 416.647 565.104C417.125 564.279 417.075 563.357 416.517 562.738ZM414.774 565.159C414.409 564.682 414.476 564.486 415.048 564.276C415.272 564.653 415.081 564.901 414.774 565.159Z" fill="#E1E8E5"/>
<path d="M428.808 549.752C428.839 550.298 429.185 550.623 429.693 550.8C430.582 551.105 431.318 550.77 431.98 550.251C433.839 548.788 432.906 546.185 431.519 545.597C431.123 545.564 430.672 545.387 430.344 545.525C429.51 545.877 428.781 546.448 428.735 547.442C428.687 548.213 428.762 548.989 428.808 549.752ZM430.964 547.348C431.065 547.266 431.339 547.262 431.455 547.341C431.891 547.612 432.048 548.241 431.865 548.726C431.671 549.239 431.274 549.295 430.919 548.877C430.579 548.477 430.578 547.687 430.964 547.348Z" fill="#E1E8E5"/>
<path d="M33.6271 355.208C36.5293 354.659 39.4533 354.194 42.325 353.528C44.4389 353.044 46.4874 352.31 48.5664 351.693C48.6155 351.68 48.6767 351.646 48.7215 351.616C51.4711 350.484 52.9305 351.045 54.3148 353.726C54.4545 353.993 54.6487 354.333 54.5994 354.614C54.3608 355.976 54.1844 357.376 53.7351 358.67C53.558 359.197 52.8339 359.708 52.2366 359.901C51.2877 360.221 50.2647 360.259 49.2558 360.417C47.7141 360.679 46.1473 360.913 44.6023 361.23C43.5574 361.451 42.543 361.789 41.4947 362.064C40.7904 362.249 40.4682 362.69 40.5202 363.425C40.7253 366.416 40.8277 369.417 41.1681 372.391C41.7892 377.643 42.9923 382.777 44.4901 387.834C45.4691 391.174 47.0028 394.226 49.2988 396.847C49.9262 397.573 50.6552 398.218 51.4203 398.801C52.3349 399.487 53.1145 399.389 53.9162 398.573C55.3373 397.113 56.2486 395.377 56.5716 393.333C56.6537 392.777 56.7107 392.192 56.8464 391.64C57.1449 390.439 58.0547 389.702 59.283 389.646C60.425 389.595 61.4587 390.268 61.7398 391.476C62.0025 392.547 62.2334 393.698 62.1303 394.776C61.7114 398.929 59.8004 402.263 56.3778 404.569C54.1029 406.111 51.6519 406.043 49.2319 404.755C47.301 403.73 45.6563 402.328 44.3229 400.577C41.786 397.236 39.841 393.615 38.7106 389.495C37.9149 386.587 36.7053 383.77 35.4434 381.02C33.4844 376.744 32.0823 372.321 31.5559 367.632C31.4842 366.957 31.2891 366.278 31.1682 365.615C31.0865 365.102 30.7962 364.929 30.3212 365.054C27.5117 365.756 24.6771 366.43 21.872 367.149C21.0204 367.373 20.935 367.716 21.2764 368.552C23.8186 374.724 26.1075 380.997 27.4224 387.563C28.222 391.556 28.015 395.582 27.8986 399.62C27.7403 404.435 26.6749 409.061 25.5396 413.687C25.4193 414.164 25.1134 414.601 24.8403 415.029C24.4906 415.566 24.0417 416.058 23.7172 416.624C22.9196 417.991 21.8241 418.956 20.1931 418.743C18.4016 418.52 17.3682 417.313 16.9759 415.546C16.8081 414.77 16.5661 413.979 16.5337 413.186C16.5198 412.531 16.5736 411.733 16.932 411.229C20.6595 405.939 21.6545 399.907 21.7119 393.569C21.7702 387.569 20.2508 381.895 18.3295 376.291C17.6677 374.363 17.0102 372.452 16.3811 370.515C16.0365 369.466 15.7222 369.335 14.8932 369.98C13.7268 370.874 12.6018 371.793 11.4398 372.704C11.2366 372.865 11.0466 373.075 10.8173 373.135C9.63802 373.445 9.04261 374.314 8.75063 375.406C8.42694 376.577 8.16111 377.769 8.00664 378.985C7.81822 380.406 7.30247 381.379 6.47376 381.49C5.70726 381.638 4.39862 380.717 4.07812 379.626C3.81323 378.68 3.64555 377.638 3.76716 376.697C4.10569 374.044 5.1756 371.643 6.73452 369.506C8.88554 366.554 11.4655 363.97 14.8157 362.591C20.4536 360.255 25.869 357.336 31.8319 355.84C32.4379 355.681 33.0275 355.526 33.6336 355.367C33.6369 355.313 33.6402 355.258 33.6271 355.208Z" fill="#E1E8E5"/>
<path d="M1219.16 1312.21C1222.06 1311.66 1224.99 1311.19 1227.86 1310.53C1229.97 1310.04 1232.02 1309.31 1234.1 1308.69C1234.15 1308.68 1234.21 1308.65 1234.26 1308.62C1237.01 1307.48 1238.46 1308.04 1239.85 1310.73C1239.99 1310.99 1240.18 1311.33 1240.13 1311.61C1239.89 1312.98 1239.72 1314.38 1239.27 1315.67C1239.09 1316.2 1238.37 1316.71 1237.77 1316.9C1236.82 1317.22 1235.8 1317.26 1234.79 1317.42C1233.25 1317.68 1231.68 1317.91 1230.14 1318.23C1229.09 1318.45 1228.08 1318.79 1227.03 1319.06C1226.32 1319.25 1226 1319.69 1226.05 1320.42C1226.26 1323.42 1226.36 1326.42 1226.7 1329.39C1227.32 1334.64 1228.53 1339.78 1230.02 1344.83C1231 1348.17 1232.54 1351.23 1234.83 1353.85C1235.46 1354.57 1236.19 1355.22 1236.95 1355.8C1237.87 1356.49 1238.65 1356.39 1239.45 1355.57C1240.87 1354.11 1241.78 1352.38 1242.11 1350.33C1242.19 1349.78 1242.24 1349.19 1242.38 1348.64C1242.68 1347.44 1243.59 1346.7 1244.82 1346.65C1245.96 1346.6 1246.99 1347.27 1247.27 1348.48C1247.54 1349.55 1247.77 1350.7 1247.66 1351.78C1247.25 1355.93 1245.33 1359.26 1241.91 1361.57C1239.64 1363.11 1237.19 1363.04 1234.77 1361.75C1232.84 1360.73 1231.19 1359.33 1229.86 1357.58C1227.32 1354.24 1225.38 1350.61 1224.24 1346.49C1223.45 1343.59 1222.24 1340.77 1220.98 1338.02C1219.02 1333.74 1217.62 1329.32 1217.09 1324.63C1217.02 1323.96 1216.82 1323.28 1216.7 1322.61C1216.62 1322.1 1216.33 1321.93 1215.86 1322.05C1213.05 1322.76 1210.21 1323.43 1207.41 1324.15C1206.55 1324.37 1206.47 1324.72 1206.81 1325.55C1209.35 1331.72 1211.64 1338 1212.96 1344.56C1213.76 1348.56 1213.55 1352.58 1213.43 1356.62C1213.27 1361.44 1212.21 1366.06 1211.07 1370.69C1210.95 1371.16 1210.65 1371.6 1210.37 1372.03C1210.02 1372.57 1209.58 1373.06 1209.25 1373.62C1208.45 1374.99 1207.36 1375.96 1205.73 1375.74C1203.94 1375.52 1202.9 1374.31 1202.51 1372.55C1202.34 1371.77 1202.1 1370.98 1202.07 1370.19C1202.05 1369.53 1202.11 1368.73 1202.47 1368.23C1206.19 1362.94 1207.19 1356.91 1207.25 1350.57C1207.3 1344.57 1205.78 1338.9 1203.86 1333.29C1203.2 1331.36 1202.54 1329.45 1201.92 1327.52C1201.57 1326.47 1201.26 1326.33 1200.43 1326.98C1199.26 1327.87 1198.14 1328.79 1196.97 1329.7C1196.77 1329.86 1196.58 1330.07 1196.35 1330.14C1195.17 1330.44 1194.58 1331.31 1194.28 1332.41C1193.96 1333.58 1193.7 1334.77 1193.54 1335.99C1193.35 1337.41 1192.84 1338.38 1192.01 1338.49C1191.24 1338.64 1189.93 1337.72 1189.61 1336.63C1189.35 1335.68 1189.18 1334.64 1189.3 1333.7C1189.64 1331.04 1190.71 1328.64 1192.27 1326.51C1194.42 1323.55 1197 1320.97 1200.35 1319.59C1205.99 1317.25 1211.4 1314.34 1217.37 1312.84C1217.97 1312.68 1218.56 1312.53 1219.17 1312.37C1219.17 1312.31 1219.17 1312.26 1219.16 1312.21Z" fill="#E1E8E5"/>
<path d="M1372.49 193.124C1370.55 192.273 1368.57 191.5 1366.69 190.55C1361.88 188.119 1357.11 185.616 1352.33 183.134C1351.28 182.586 1350.24 182.031 1349.2 181.473C1348.56 181.131 1347.92 180.886 1347.16 181.048C1346.64 181.163 1346.32 180.825 1346.02 180.409C1345.6 179.831 1345.17 179.26 1344.65 178.785C1343.81 178.011 1343.3 177.083 1343.03 175.99C1342.5 173.823 1342.78 171.689 1343.43 169.631C1344.7 165.604 1346.48 161.824 1349.1 158.512C1349.88 157.524 1350.85 156.679 1351.77 155.802C1352.23 155.36 1352.83 155.206 1353.43 155.311C1354.43 155.491 1355.45 155.68 1356.42 156.019C1361.17 157.639 1365.62 159.936 1370.09 162.222C1373.22 163.817 1376.47 165.136 1379.68 166.545C1380.66 166.975 1381.7 167.234 1382.67 167.664C1385.21 168.803 1387.74 169.999 1390.28 171.153C1391.17 171.558 1391.49 172.349 1391.56 173.219C1391.71 174.985 1391.81 176.768 1391 178.433C1390.83 178.757 1390.95 178.919 1391.26 179.029C1391.68 179.179 1392.11 179.329 1392.52 179.51C1393.25 179.832 1393.65 180.39 1393.68 181.227C1393.72 182.85 1393.89 184.463 1393.48 186.071C1393.01 187.9 1392.17 189.465 1390.67 190.618C1389.96 191.169 1389.23 191.701 1388.47 192.169C1388.09 192.408 1387.61 192.53 1387.17 192.63C1386.98 192.671 1386.72 192.594 1386.54 192.491C1385.86 192.096 1385.21 191.648 1384.52 191.273C1384.38 191.199 1384.07 191.272 1383.94 191.386C1382.85 192.349 1381.76 193.327 1380.7 194.315C1380.53 194.476 1380.41 194.706 1380.33 194.929C1379.98 195.873 1379.28 196.195 1378.32 195.784C1376.36 194.934 1374.4 194.063 1372.44 193.203C1372.46 193.187 1372.48 193.156 1372.49 193.124ZM1373.5 190.829C1373.51 190.798 1373.52 190.767 1373.53 190.746C1374.92 191.357 1376.32 191.958 1377.7 192.58C1378.24 192.826 1378.65 192.737 1379.05 192.309C1379.84 191.459 1380.66 190.647 1381.47 189.821C1383.25 188.013 1384.86 186.081 1385.99 183.779C1387.5 180.659 1388.29 177.394 1388.16 173.895C1388.14 173.357 1387.95 173.037 1387.44 172.805C1386.2 172.232 1384.99 171.59 1383.75 170.996C1383.19 170.726 1382.62 170.488 1382.04 170.27C1381.33 169.993 1380.58 169.789 1379.88 169.492C1377.85 168.625 1375.82 167.712 1373.8 166.835C1373.27 166.604 1373.14 166.693 1373.1 167.279C1373.04 168.299 1373.01 169.312 1372.94 170.327C1372.67 174.133 1371.52 177.645 1369.42 180.803C1368.18 182.663 1366.59 184.233 1364.96 185.748C1364.48 186.191 1364.52 186.428 1365.08 186.702C1367.91 188.08 1370.7 189.455 1373.5 190.829ZM1347.06 166.961C1346.82 167.655 1346.47 168.513 1346.21 169.396C1345.69 171.07 1345.24 172.771 1345.46 174.554C1345.53 175.139 1345.73 175.723 1345.97 176.269C1346.17 176.741 1346.58 176.796 1346.98 176.469C1347.29 176.223 1347.57 175.964 1347.86 175.695C1348.55 175.048 1349.29 174.475 1349.66 173.525C1351.02 170.021 1352.19 166.452 1352.78 162.705C1353 161.311 1353.08 159.904 1353.19 158.495C1353.21 158.281 1353 158.053 1352.89 157.835C1352.69 157.932 1352.45 157.986 1352.3 158.141C1352.01 158.411 1351.78 158.728 1351.53 159.037C1349.62 161.365 1348.43 164.108 1347.06 166.961ZM1360.29 170.849C1360.29 170.86 1360.29 170.86 1360.28 170.87C1359.84 170.675 1359.4 170.481 1358.94 170.282C1358.89 170.259 1358.84 170.236 1358.79 170.214C1358.21 169.985 1357.61 170.114 1357.31 170.624C1357.06 171.033 1356.84 171.502 1356.78 171.968C1356.73 172.306 1356.86 172.833 1357.11 173.038C1357.7 173.535 1358.38 173.966 1359.07 174.295C1360.32 174.893 1361.6 175.419 1362.87 175.93C1363.51 176.185 1364.17 176.414 1364.84 176.546C1365.08 176.589 1365.49 176.425 1365.63 176.214C1366.15 175.469 1366.2 174.567 1366.01 173.718C1365.86 173.061 1365.12 172.983 1364.59 172.727C1364.39 172.626 1364.17 172.567 1363.97 172.476C1362.75 171.932 1361.52 171.388 1360.29 170.849ZM1386.79 189.556C1387.24 189.913 1387.68 189.726 1388.12 189.291C1388.56 188.855 1389.08 188.492 1389.46 188.015C1389.92 187.416 1390.45 186.777 1390.64 186.081C1390.95 184.814 1391.03 183.493 1391.2 182.183C1391.27 181.6 1390.86 181.393 1390.4 181.255C1389.91 181.114 1389.86 181.508 1389.73 181.81C1389.65 181.987 1389.57 182.159 1389.53 182.339C1388.97 184.62 1387.71 186.523 1386.41 188.402C1385.93 189.068 1385.94 189.159 1386.79 189.556ZM1362.9 170.196C1362.94 170.25 1362.98 170.304 1363.01 170.357C1363.25 170.253 1363.5 170.174 1363.71 170.035C1364.9 169.3 1366.07 168.531 1367.28 167.831C1367.67 167.617 1368.17 167.529 1368.62 167.53C1369.24 167.532 1369.52 168.051 1369.22 168.596C1369.03 168.931 1368.76 169.245 1368.46 169.47C1367.7 170.06 1366.87 170.597 1366.1 171.183C1365.96 171.292 1365.8 171.631 1365.85 171.714C1365.99 171.9 1366.23 172.029 1366.46 172.104C1366.58 172.148 1366.78 172.035 1366.93 171.977C1367.33 171.808 1367.7 171.615 1368.1 171.456C1368.97 171.099 1369.02 171.122 1369.68 171.844C1369.74 171.907 1369.83 171.933 1369.98 172.036C1370.06 171.676 1370.14 171.367 1370.17 171.06C1370.24 170.533 1370.27 170.008 1370.31 169.482C1370.39 168.36 1370.49 167.231 1370.54 166.095C1370.59 165.239 1370.27 165.027 1369.56 165.427C1368.79 165.854 1368.02 166.282 1367.31 166.782C1365.94 167.735 1364.62 168.731 1363.29 169.713C1363.14 169.832 1363.03 170.031 1362.9 170.196ZM1353.91 169.774C1353.95 169.828 1354 169.886 1354.04 169.94C1354.37 169.729 1354.72 169.548 1355.02 169.298C1356.73 167.915 1358.42 166.513 1360.14 165.135C1361.25 164.232 1362.4 163.382 1363.53 162.483C1363.66 162.379 1363.8 162.072 1363.74 161.973C1363.5 161.559 1362.63 161.484 1362.24 161.805C1359.89 163.685 1357.57 165.609 1355.17 167.455C1354.36 168.073 1354.11 168.874 1353.91 169.774ZM1367.3 164.064C1367.26 163.949 1367.25 163.808 1367.17 163.725C1366.7 163.172 1365.82 163.096 1365.27 163.568C1363.33 165.218 1361.38 166.878 1359.44 168.527C1359.31 168.63 1359.18 168.744 1359.08 168.876C1359 168.977 1358.99 169.13 1358.95 169.26C1359.07 169.304 1359.24 169.427 1359.34 169.386C1359.7 169.245 1360.05 169.068 1360.37 168.863C1362.56 167.358 1364.72 165.844 1366.9 164.345C1367.02 164.262 1367.14 164.179 1367.3 164.064ZM1368.18 177.484C1365.81 179.055 1363.57 180.527 1361.34 181.999C1362.17 182.081 1363.05 181.826 1363.85 181.315C1364.25 181.06 1364.62 181.01 1365.06 181.23C1365.23 181.317 1365.6 181.293 1365.7 181.165C1366.62 180.064 1367.53 178.963 1368.18 177.484ZM1363.22 178.102C1363.21 178.036 1363.19 177.956 1363.18 177.89C1362.88 177.856 1362.57 177.73 1362.28 177.791C1360.98 178.08 1360.01 179.001 1358.94 179.724C1358.8 179.813 1358.94 180.293 1358.95 180.593C1359.16 180.551 1359.41 180.558 1359.58 180.462C1360.65 179.8 1361.73 179.112 1362.78 178.43C1362.93 178.336 1363.07 178.211 1363.22 178.102ZM1355.66 161.605C1355.74 161.636 1355.81 161.683 1355.89 161.715C1356.58 161.108 1357.29 160.521 1357.97 159.895C1358.05 159.83 1357.96 159.397 1357.86 159.352C1357.3 159.093 1356.72 158.89 1356.13 158.703C1356.03 158.673 1355.76 158.86 1355.75 158.967C1355.7 159.844 1355.69 160.729 1355.66 161.605ZM1369.85 172.521C1369.44 172.822 1369.15 173.067 1368.83 173.272C1368.25 173.633 1367.8 174.039 1368.03 174.84C1368.07 174.97 1368.04 175.154 1367.97 175.285C1367.65 175.943 1368.06 176.286 1368.5 176.624C1369 176.144 1369.85 173.669 1369.85 172.521ZM1352.22 173.987C1351.99 174.772 1352.15 174.992 1352.91 174.895C1353.08 174.881 1353.27 174.84 1353.39 174.732C1354 174.165 1354.62 173.599 1355.19 172.984C1355.29 172.871 1355.22 172.53 1355.14 172.336C1355.12 172.276 1354.77 172.259 1354.63 172.333C1354.02 172.655 1353.42 172.997 1352.84 173.384C1352.6 173.524 1352.42 173.778 1352.22 173.987ZM1354.94 178.41C1355.9 179.105 1355.99 179.095 1356.79 178.412C1357.16 178.092 1357.57 177.826 1357.95 177.541C1358.26 177.316 1358.57 177.107 1358.85 176.873C1358.93 176.798 1358.95 176.659 1359 176.545C1358.87 176.49 1358.75 176.385 1358.62 176.392C1358.46 176.396 1358.3 176.471 1358.15 176.555C1357.21 177.068 1356.29 177.585 1355.36 178.102C1355.22 178.166 1355.11 178.278 1354.94 178.41ZM1356.63 174.949C1356.57 174.836 1356.49 174.718 1356.43 174.604C1356.29 174.728 1356.18 174.887 1356.02 174.977C1355.43 175.298 1354.82 175.585 1354.24 175.911C1354.04 176.029 1353.88 176.231 1353.69 176.383C1353.97 176.48 1354.25 176.617 1354.54 176.647C1354.7 176.664 1354.89 176.527 1355.03 176.403C1355.47 176.043 1355.91 175.669 1356.34 175.28C1356.45 175.192 1356.53 175.066 1356.63 174.949ZM1355.23 164.225C1355.28 164.309 1355.33 164.392 1355.39 164.466C1355.67 164.293 1355.95 164.11 1356.22 163.933C1356.17 163.849 1356.13 163.78 1356.08 163.697C1355.8 163.869 1355.52 164.042 1355.23 164.225Z" fill="#E1E8E5"/>
<path d="M1375.6 181.482C1375.24 181.302 1374.89 181.133 1374.54 180.932C1373.86 180.532 1373.62 179.898 1373.89 179.262C1374.15 178.622 1374.76 178.335 1375.52 178.543C1376.35 178.774 1377.17 179.035 1377.98 179.307C1378.37 179.439 1378.6 179.37 1378.81 179.003C1379.18 178.29 1379.6 177.596 1380 176.897C1380.32 176.356 1380.87 176.092 1381.42 176.185C1381.98 176.282 1382.4 176.666 1382.31 177.231C1382.21 177.929 1382.01 178.632 1381.71 179.254C1381.07 180.551 1381.04 180.552 1382.36 181.144C1382.6 181.248 1382.84 181.357 1383.08 181.471C1383.87 181.846 1384.21 182.622 1383.9 183.377C1383.6 184.111 1382.76 184.482 1381.99 184.192C1381.48 184.006 1380.98 183.784 1380.49 183.545C1380.02 183.326 1379.72 183.444 1379.5 183.899C1379.2 184.485 1378.88 185.062 1378.53 185.611C1378.05 186.364 1377.49 186.613 1376.91 186.42C1376.4 186.244 1376.1 185.878 1376.18 185.355C1376.28 184.672 1376.49 184.01 1376.67 183.348C1376.73 183.152 1376.82 182.958 1376.92 182.78C1377.15 182.35 1377.02 182.057 1376.6 181.871C1376.26 181.726 1375.94 181.585 1375.61 181.44C1375.6 181.471 1375.6 181.482 1375.6 181.482Z" fill="#E1E8E5"/>
<path d="M216.528 720.27C216.431 719.858 216.065 719.498 215.756 719.145C215.352 718.68 214.915 718.239 214.448 717.842C210.379 714.241 206.293 710.644 202.206 707.046C200.018 705.125 197.809 703.19 195.575 701.315C194.422 700.338 193.168 699.511 192.044 698.491C191.567 698.039 191.154 697.332 191.052 696.697C190.687 694.483 190.466 692.242 190.173 690.015C190.085 689.358 190.354 688.913 190.955 688.649C191.214 688.543 191.454 688.441 191.713 688.335C193.817 687.465 194.906 685.759 194.588 683.499C194.331 681.751 193.53 680.276 191.353 680.468C190.639 680.53 189.893 680.617 189.2 680.787C187.312 681.223 185.437 681.731 183.567 682.164C181.965 682.546 180.368 682.851 178.774 683.269C177.302 683.644 175.847 684.11 174.385 684.539C174.381 684.521 174.378 684.503 174.374 684.485C173.585 684.636 172.806 684.748 172.027 684.953C171.23 685.162 170.439 685.407 169.677 685.702C168.721 686.054 168.039 686.671 167.993 687.802C167.893 689.918 169.287 691.673 171.37 691.966C172.153 692.078 172.963 692.129 173.754 692.184C174.223 692.206 174.523 692.411 174.597 692.902C175.019 695.217 175.479 697.543 175.883 699.862C176.084 701.021 176.103 702.197 175.685 703.325C174.79 705.855 173.909 708.363 172.467 710.66C171.472 712.273 170.665 713.999 169.855 715.708C168.458 718.633 167.147 721.617 165.732 724.545C164.423 727.247 163.712 730.06 163.497 733.04C163.341 735.353 164.045 737.296 165.478 739.062C166.549 740.391 167.89 741.089 169.571 741.029C172.876 740.902 176.132 740.616 179.281 739.377C181.478 738.507 183.822 738.021 186.099 737.38C190.057 736.285 193.997 735.195 197.962 734.136C200.475 733.468 203 732.854 205.534 732.294C206.676 732.038 207.86 731.811 209.032 731.812C211.687 731.79 213.853 730.758 215.703 728.944C216.642 728.016 217.68 726.919 217.587 725.551C217.459 723.798 216.936 722.026 216.528 720.27ZM174.795 714.201C175.686 712.627 176.581 711.071 177.532 709.522C177.689 709.268 178.066 709.102 178.382 709.004C178.871 708.835 179.067 708.592 179.075 708.048C179.076 707.467 179.228 706.896 179.304 706.319C179.316 706.186 179.325 706.035 179.283 705.912C178.914 705.047 179.305 704.466 179.93 703.935C180.251 703.668 180.576 703.418 180.833 703.107C181.271 702.574 181.174 702.162 180.586 701.807C180.482 701.752 180.379 701.697 180.293 701.638C179.94 701.444 179.414 701.414 179.429 700.812C179.463 700.206 179.682 699.696 180.219 699.388C180.521 699.218 180.831 699.084 181.112 698.899C181.627 698.576 181.774 698.079 181.539 697.526C181.307 696.99 180.864 696.812 180.297 696.958C180.138 697.007 179.998 697.053 179.837 697.084C179.431 697.199 179.055 697.177 178.873 696.707C178.694 696.255 178.797 695.917 179.232 695.665C179.754 695.378 180.276 695.091 180.777 694.789C181.278 694.487 181.682 694.073 181.376 693.439C181.094 692.838 180.549 692.905 180 693.047C179.644 693.134 179.292 693.239 178.933 693.308C178.539 693.383 178.332 693.179 178.311 692.772C178.279 691.917 178.804 691.161 179.637 691.039C180.397 690.931 181.16 690.935 181.928 690.863C182.276 690.834 182.649 690.744 182.976 690.606C183.304 690.469 183.614 690.241 183.913 690.053C185.091 689.303 185.247 688.656 184.465 687.476C184.305 687.226 183.881 687.045 183.562 687.032C183.078 687.031 182.564 687.166 182.087 687.295C181.394 687.465 180.743 687.758 180.054 687.853C177.79 688.173 175.608 689.022 173.279 689.093C172.447 689.121 171.875 688.95 171.229 688.194C171.639 688.003 171.953 687.793 172.305 687.689C172.944 687.529 173.597 687.441 174.24 687.3C176.978 686.738 179.714 686.158 182.452 685.597C182.632 685.562 182.808 685.51 182.984 685.458C183.911 685.149 184.823 684.956 185.837 684.912C187.092 684.859 188.335 684.452 189.566 684.179C189.871 684.121 190.169 684.026 190.683 683.891C190.522 684.221 190.485 684.415 190.373 684.511C189.456 685.361 188.545 686.246 187.582 687.048C186.972 687.558 186.62 688.149 186.735 688.951C187.185 692.103 187.653 695.251 188.121 698.4C188.151 698.656 188.235 698.902 188.262 699.14C188.403 700.666 188.97 701.887 190.4 702.661C190.96 702.966 191.385 703.539 191.8 704.059C192.797 705.291 194.018 706.236 195.471 706.838C195.796 706.981 196.168 706.985 196.522 707.086C196.898 707.201 197.327 707.306 197.629 707.529C198.278 708.004 198.832 708.572 199.451 709.089C199.803 709.378 199.844 709.594 199.434 709.879C198.677 710.398 197.945 710.95 197.209 711.484C196.64 711.911 195.976 712.038 195.34 711.823C192.735 710.936 190.4 711.664 188.178 712.987C187.292 713.513 186.456 714.103 185.588 714.625C183.473 715.928 181.206 716.231 178.826 715.545C177.585 715.183 176.382 714.627 175.048 714.752C174.65 714.809 174.642 714.474 174.795 714.201ZM199.393 715.146C199.384 715.391 199.339 715.643 199.311 715.891C199.166 716.986 198.854 717.401 198.098 717.434C197.213 717.472 196.597 716.972 196.394 716.001C196.225 715.209 196.338 715.019 197.124 714.85C197.641 714.733 198.133 714.582 198.65 714.465C199.152 714.368 199.422 714.616 199.393 715.146ZM197.816 728.867C197.495 729.135 196.851 728.584 196.741 728.006C196.576 727.139 197.115 726.157 197.924 725.815C198.546 725.565 199.276 726.08 199.22 726.764C199.141 727.715 198.494 728.326 197.816 728.867ZM214.095 724.891C214.02 726.159 213.225 726.966 212.085 727.428C211.981 727.467 211.877 727.505 211.751 727.529C208.204 728.433 204.659 729.354 201.108 730.24C200.648 730.365 200.175 730.419 199.701 730.472C199.63 730.485 199.541 730.409 199.344 730.353C199.707 729.816 200.119 729.344 200.368 728.791C200.638 728.159 200.949 727.444 200.9 726.798C200.756 724.767 199.162 723.818 197.243 724.485C195.551 725.071 194.509 726.244 194.577 727.578C194.621 728.693 194.913 729.741 195.626 730.653C195.743 730.78 195.813 730.954 195.972 731.204C195.433 731.401 194.948 731.587 194.456 731.738C192.645 732.29 190.835 732.842 189.017 733.359C188.504 733.494 187.931 733.417 187.414 733.535C186.599 733.747 185.815 734.028 185.014 734.312C181.442 735.576 177.887 736.836 174.315 738.1C173.251 738.472 172.159 738.401 171.075 738.178C170.671 738.105 170.544 737.83 170.576 737.412C170.696 735.892 169.838 735.289 168.486 735.903C168.349 735.967 168.209 736.012 168.069 736.058C168.019 735.992 167.984 735.906 167.934 735.84C168.295 735.584 168.634 735.313 169.001 735.093C169.747 734.614 170.074 734.083 169.881 733.558C169.664 733.001 168.935 732.785 168.087 733.022C167.929 733.071 167.774 733.138 167.627 733.148C167.351 733.163 166.842 733.223 166.81 733.154C166.706 732.8 166.645 732.381 166.751 732.061C166.832 731.802 167.164 731.589 167.43 731.426C168.402 730.866 169.381 730.341 170.354 729.781C170.753 729.536 171.143 729.237 171.514 728.941C171.933 728.599 171.98 728.16 171.743 727.699C171.514 727.275 171.14 727.066 170.662 727.195C170.012 727.394 169.368 727.63 168.743 727.862C168.517 727.943 168.318 728.074 168.099 728.191C167.851 727.377 168.095 726.9 168.847 726.551C170.149 725.964 171.473 725.393 172.775 724.807C173.084 724.673 173.386 724.503 173.689 724.333C174.164 724.092 174.364 723.679 174.196 723.187C174.025 722.677 173.619 722.399 173.07 722.542C172.165 722.771 171.288 723.051 170.39 723.317C170.178 723.376 169.948 723.439 169.733 723.48C169.68 723.397 169.627 723.313 169.574 723.23C169.971 722.873 170.333 722.429 170.787 722.174C172.082 721.458 173.414 720.829 174.759 720.178C175.677 719.722 176.619 719.298 176.351 717.89C176.702 717.972 176.931 718.004 177.152 718.092C179.034 718.892 180.913 719.094 182.945 718.724C185.137 718.323 187.068 717.523 188.871 716.243C189.786 715.581 190.861 715.169 191.886 714.692C192.142 714.568 192.454 714.546 192.748 714.527C194.089 714.439 194.27 714.61 194.463 715.921C194.552 716.484 194.679 717.059 194.908 717.576C195.495 718.905 196.74 719.584 198.164 719.443C199.914 719.257 200.862 718.571 201.148 716.944C201.343 715.914 201.209 714.817 201.25 713.761C201.264 713.347 201.229 712.867 201.404 712.515C201.819 711.668 202.354 711.547 203.066 712.16C204.848 713.709 206.58 715.287 208.329 716.861C209.809 718.187 211.335 719.467 212.721 720.887C213.787 721.993 214.187 723.414 214.095 724.891Z" fill="#E1E8E5"/>
<path d="M159.28 718.963C158.7 719.159 158.369 719.561 158.272 720.159C158.221 720.479 158.215 720.819 158.248 721.138C158.411 722.886 159.719 723.935 161.288 723.621C162.29 723.429 162.802 722.95 162.95 722.102C163.337 719.853 161.441 718.225 159.28 718.963ZM160.982 722.084C160.519 722.158 160.142 721.877 160.076 721.381C160.007 720.942 160.212 720.621 160.581 720.564C161.017 720.495 161.411 720.801 161.489 721.28C161.571 721.716 161.377 722.022 160.982 722.084Z" fill="#E1E8E5"/>
<path d="M164.755 713.155C163.269 713.976 163.096 716.467 164.478 717.46C165.29 718.039 166.173 718.11 167.066 717.713C167.753 717.412 168.088 716.811 168.129 716.069C168.145 715.783 168.088 715.483 168.08 715.217C168.009 714.919 167.957 714.647 167.865 714.382C167.458 713.274 165.757 712.596 164.755 713.155ZM166.819 715.303C166.891 715.755 166.938 716.226 166.431 716.365C166.112 716.455 165.712 716.418 165.41 716.307C165.321 716.281 165.382 715.79 165.384 715.507C165.382 715.422 165.421 715.33 165.448 715.254C165.554 714.923 165.598 714.491 166.098 714.537C166.541 714.579 166.779 714.872 166.819 715.303Z" fill="#E1E8E5"/>
<path d="M167.861 704.267C168.767 704.602 170.125 703.847 170.382 702.909C170.616 702.073 170.379 701.341 169.797 700.718C169.25 700.131 168.572 700.105 167.843 700.33C166.343 700.489 166.233 701.683 166.664 702.843C166.905 703.447 167.227 704.035 167.861 704.267ZM168.449 701.824C168.633 701.831 168.807 702.009 169.079 702.183C168.899 702.416 168.734 702.659 168.718 702.648C168.498 702.521 168.312 702.358 168.114 702.199C168.231 702.077 168.349 701.814 168.449 701.824Z" fill="#E1E8E5"/>
<path d="M285.041 254.243C285.041 249.052 287.356 244.184 289.405 239.566C290.238 237.691 291.678 236.296 293.027 234.848C293.966 233.84 294.769 232.685 295.72 231.72C296.411 231.019 297.269 230.548 297.949 229.858C298.721 229.075 299.682 228.265 300.724 227.881C301.675 227.531 302.53 226.746 303.427 226.291C303.79 226.107 304.174 226.226 304.542 226.04C305.006 225.805 305.473 225.642 305.986 225.622C306.821 225.589 307.557 225.057 308.442 225.057C309.239 225.057 309.945 224.68 310.763 224.68C311.458 224.68 312.162 224.115 312.806 224.115C313.626 224.115 314.356 223.927 315.128 223.927" stroke="#E1E8E5" stroke-width="2" stroke-linecap="round" stroke-linejoin="round"/>
<path d="M345.491 254.243C345.491 249.052 343.176 244.184 341.127 239.566C340.294 237.691 338.854 236.296 337.505 234.848C336.566 233.84 335.763 232.685 334.812 231.72C334.121 231.019 333.264 230.548 332.584 229.858C331.811 229.075 330.85 228.265 329.808 227.881C328.857 227.53 328.002 226.746 327.105 226.291C326.742 226.107 326.358 226.226 325.991 226.04C325.527 225.805 325.059 225.641 324.546 225.621C323.711 225.589 322.975 225.057 322.09 225.057C321.294 225.057 320.587 224.68 319.769 224.68C319.074 224.68 318.37 224.115 317.726 224.115C316.906 224.115 316.176 223.927 315.404 223.927" stroke="#E1E8E5" stroke-width="2" stroke-linecap="round" stroke-linejoin="round"/>
<path d="M315.112 224.166C314.432 224.704 313.755 225.231 313.087 225.758C312.818 225.97 312.593 226.396 312.278 226.538C311.945 226.688 311.876 227.034 311.603 227.197C311.092 227.502 310.28 228.252 309.983 228.778C309.79 229.12 309.483 229.224 309.263 229.503C309.063 229.757 308.84 230.029 308.613 230.258C307.838 231.044 306.81 232.009 306.314 233.015C305.693 234.274 305.14 235.487 304.514 236.756C304.227 237.337 303.83 238.075 303.69 238.717C303.597 239.137 303.298 239.451 303.1 239.812C302.961 240.065 302.894 240.381 302.715 240.608C302.539 240.831 302.478 241.311 302.355 241.591C302.224 241.889 302.054 242.245 301.97 242.544C301.9 242.792 301.607 243.048 301.48 243.279C301.28 243.644 301.138 244.01 301.005 244.399C300.47 245.965 299.995 247.365 299.995 249.072C299.995 249.911 299.815 250.727 299.815 251.581C299.815 252.265 299.815 252.949 299.815 253.633" stroke="#E1E8E5" stroke-width="2" stroke-linecap="round" stroke-linejoin="round"/>
<path d="M315.42 224.166C316.1 224.704 316.777 225.231 317.445 225.758C317.714 225.97 317.939 226.396 318.255 226.538C318.587 226.688 318.656 227.034 318.929 227.197C319.44 227.502 320.253 228.252 320.549 228.778C320.742 229.12 321.049 229.224 321.269 229.503C321.469 229.757 321.692 230.029 321.919 230.258C322.694 231.044 323.722 232.009 324.218 233.015C324.839 234.274 325.392 235.487 326.018 236.756C326.305 237.337 326.702 238.075 326.843 238.717C326.935 239.137 327.235 239.451 327.433 239.812C327.571 240.065 327.638 240.381 327.817 240.608C327.994 240.831 328.055 241.311 328.177 241.591C328.308 241.889 328.478 242.245 328.562 242.544C328.632 242.792 328.926 243.048 329.052 243.279C329.252 243.644 329.394 244.01 329.527 244.399C330.062 245.965 330.537 247.365 330.537 249.072C330.537 249.911 330.717 250.727 330.717 251.581C330.717 252.265 330.717 252.949 330.717 253.633" stroke="#E1E8E5" stroke-width="2" stroke-linecap="round" stroke-linejoin="round"/>
<path d="M315.202 224.623C315.145 224.296 315.292 223.753 315.292 224.349C315.292 224.502 315.216 224.981 315.337 225.079C315.528 225.233 315.419 226.229 315.477 226.493C315.689 227.46 315.742 228.383 315.742 229.412C315.742 230.537 315.742 231.662 315.742 232.788C315.742 234.141 315.922 235.455 315.922 236.791C315.922 238.575 316.012 240.346 316.012 242.139C316.012 243.525 315.832 244.846 315.832 246.244C315.832 247.433 315.652 248.633 315.652 249.822C315.652 251.092 315.652 252.363 315.652 253.633" stroke="#E1E8E5" stroke-width="2" stroke-linecap="round" stroke-linejoin="round"/>
<path d="M285.242 254.413C285.493 254.228 285.74 254.017 285.975 253.832C286.097 253.736 286.152 253.599 286.3 253.532C286.391 253.491 286.571 253.412 286.641 253.355C286.821 253.209 287.054 253.082 287.278 252.981C287.531 252.867 287.865 252.861 288.092 252.682C288.144 252.641 288.402 252.565 288.475 252.544C288.613 252.504 288.742 252.56 288.88 252.498C289.106 252.396 289.485 252.276 289.736 252.266C290.336 252.242 290.986 252.063 291.567 251.932C292.212 251.787 292.907 251.77 293.579 251.77C293.886 251.77 294.193 251.814 294.484 251.825C294.865 251.84 295.236 252.026 295.612 252.046C296.356 252.085 297.047 252.543 297.757 252.703C298.071 252.774 298.411 252.903 298.707 253.037C298.908 253.127 299.739 253.075 299.739 253.367" stroke="#E1E8E5" stroke-width="2" stroke-linecap="round" stroke-linejoin="round"/>
<path d="M299.901 253.807C300.11 253.536 300.426 253.398 300.662 253.146C300.859 252.935 301.213 252.675 301.518 252.651C301.848 252.625 302.264 252.397 302.562 252.253C302.826 252.126 303.249 252.035 303.539 251.993C304.41 251.867 305.307 251.55 306.188 251.55C306.939 251.55 307.628 251.33 308.371 251.33C309.073 251.33 310.044 251.173 310.706 251.412C310.858 251.467 311.059 251.462 311.219 251.492C311.39 251.523 311.56 251.58 311.735 251.602C312.106 251.649 312.473 251.854 312.836 251.88C313.039 251.895 313.485 251.976 313.638 252.1C313.873 252.291 314.269 252.309 314.534 252.458C314.772 252.592 314.975 252.785 315.186 252.951C315.347 253.078 315.664 253.182 315.756 253.367" stroke="#E1E8E5" stroke-width="2" stroke-linecap="round" stroke-linejoin="round"/>
<path d="M330.904 253.752C330.641 253.315 330.138 252.937 329.737 252.621C329.312 252.286 328.916 252.009 328.434 251.746C327.155 251.048 325.705 250.89 324.28 250.89C323.861 250.89 323.38 250.819 322.977 250.945C322.579 251.069 322.101 251.191 321.686 251.22C321.304 251.247 320.899 251.383 320.522 251.452C320.038 251.541 319.54 251.666 319.08 251.838C318.395 252.092 317.764 252.475 317.071 252.718C316.715 252.843 316.391 253.052 316.039 253.189C315.974 253.215 315.608 253.446 315.593 253.477" stroke="#E1E8E5" stroke-width="2" stroke-linecap="round" stroke-linejoin="round"/>
<path d="M345.619 254.303C345.244 253.923 345.006 253.401 344.587 253.067C344.237 252.788 343.91 252.529 343.501 252.333C342.383 251.796 341.184 251.826 339.978 251.826C338.114 251.826 336.221 251.572 334.412 252.183C333.997 252.324 333.572 252.428 333.155 252.572C332.808 252.691 332.467 252.8 332.111 252.884C331.868 252.941 331.508 253.04 331.284 253.159C331.141 253.236 331.025 253.367 330.85 253.367" stroke="#E1E8E5" stroke-width="2" stroke-linecap="round" stroke-linejoin="round"/>
<path d="M315.151 286.392C313.777 285.337 312.796 284.033 311.286 283.158C310.777 282.863 310.474 282.333 309.953 281.806C309.433 281.28 308.619 280.462 308.619 280.462C308.619 280.462 306.355 277.936 305.353 276.92C304.775 276.334 304.408 275.722 303.758 274.995C302.913 274.049 302.239 273.454 301.479 272.684C300.672 271.866 300.023 271.1 299.04 270.134C298.064 269.175 297.274 268.575 296.466 267.756C294.958 266.226 293.231 264.722 291.943 262.981C291.498 262.38 291.223 261.803 290.693 261.098C290.354 260.647 290.149 260.406 289.782 259.977C289.464 259.606 289.248 259.43 288.946 259.045C288.582 258.579 288.478 258.243 288.111 257.778C287.796 257.38 287.542 257.224 287.233 256.82C286.913 256.401 286.792 256.016 286.516 255.673C286.267 255.365 285.325 253.843 285.225 254.048" stroke="#E1E8E5" stroke-width="2" stroke-linecap="round" stroke-linejoin="round"/>
<path d="M315.198 286.515C315.082 286.231 314.911 286.046 314.74 285.799C314.517 285.478 314.359 285.049 314.184 284.697C313.844 284.017 313.402 283.368 313.15 282.647C312.913 281.972 312.584 281.362 312.24 280.736C311.512 279.414 310.828 278.075 310.074 276.768C309.86 276.397 309.777 276.234 309.632 275.912C309.454 275.516 309.267 275.056 308.987 274.721C308.575 274.226 308.417 273.544 308.058 273.019C306.999 271.468 306.27 269.696 305.483 268C305.097 267.169 304.66 266.346 304.328 265.488C303.887 264.351 303.128 263.336 302.77 262.157C302.54 261.397 302.182 260.669 301.975 259.901C301.723 258.964 301.462 258.075 301.075 257.194C300.974 256.964 300.937 256.666 300.872 256.418C300.771 256.031 300.549 255.665 300.473 255.28C300.406 254.942 300.286 254.638 300.234 254.298C300.193 254.025 300.002 253.768 300.002 253.491" stroke="#E1E8E5" stroke-width="2" stroke-linecap="round" stroke-linejoin="round"/>
<path d="M315.67 253.372C315.67 255.259 315.775 257.187 315.614 259.065C315.557 259.724 315.648 260.392 315.581 261.052C315.493 261.933 315.375 262.865 315.375 263.749C315.375 264.732 315.333 265.71 315.316 266.689C315.292 268.11 315.434 269.525 315.434 270.942C315.434 271.604 315.385 272.232 315.316 272.89C315.25 273.531 315.225 274.209 315.11 274.84C315.013 275.371 315.022 275.998 315.022 276.539C315.022 277.659 315.022 278.78 315.022 279.9C315.022 281.496 315.022 283.109 315.022 284.697C315.022 285.275 314.963 285.869 314.963 286.456" stroke="#E1E8E5" stroke-width="2" stroke-linecap="round" stroke-linejoin="round"/>
<path d="M315.081 286.515C315.895 285.521 316.595 284.445 317.263 283.347C317.997 282.141 318.831 280.999 319.557 279.79C320.824 277.68 321.799 275.412 322.796 273.165C323.349 271.919 323.942 270.726 324.59 269.529C324.69 269.343 324.74 269.128 324.825 268.932C324.925 268.701 325.085 268.504 325.179 268.271C325.586 267.259 325.981 266.24 326.376 265.223C326.919 263.827 327.704 262.548 328.068 261.072C328.444 259.548 329.197 258.241 329.819 256.822C330.153 256.059 330.632 255.29 330.751 254.447C330.774 254.286 330.866 254.132 330.866 253.969C330.866 253.794 330.813 253.458 330.984 253.372" stroke="#E1E8E5" stroke-width="2" stroke-linecap="round" stroke-linejoin="round"/>
<path d="M315.257 286.515C315.582 285.882 316.184 285.617 316.7 285.172C317.393 284.573 318.178 284.108 318.847 283.47C319.528 282.82 320.22 282.167 320.912 281.532C321.57 280.927 322.05 280.153 322.734 279.561C323.73 278.7 324.482 277.577 325.264 276.526C325.953 275.6 326.665 274.69 327.453 273.848C328.589 272.636 329.242 271.058 330.28 269.761C330.811 269.098 331.368 268.396 331.962 267.794C332.63 267.117 333.374 266.53 334.105 265.926C334.795 265.356 335.456 264.763 336.095 264.134C336.539 263.698 337.072 263.339 337.544 262.933C338.097 262.459 338.561 261.904 339.092 261.407C339.676 260.861 340.317 260.391 340.879 259.821C341.365 259.329 341.82 258.808 342.305 258.315C342.986 257.625 343.424 256.924 343.935 256.099C344.283 255.537 344.642 254.905 345.106 254.433C345.217 254.321 345.408 254.221 345.473 254.088" stroke="#E1E8E5" stroke-width="2" stroke-linecap="round" stroke-linejoin="round"/>
<path d="M338.428 235.267C337.981 235.692 337.52 236.067 337.027 236.424C336.663 236.688 336.17 236.902 335.852 237.219C335.577 237.493 335.142 237.42 334.906 237.636C334.723 237.803 334.345 237.957 334.124 238.022" stroke="#E1E8E5" stroke-width="2" stroke-linecap="round" stroke-linejoin="round"/>
<path d="M334.824 234.142C335.138 234.101 336.145 233.66 336.366 233.38" stroke="#E1E8E5" stroke-width="2" stroke-linecap="round" stroke-linejoin="round"/>
<path d="M334.124 241.361C334.849 241.361 335.36 240.806 335.961 240.438C336.222 240.279 336.484 240.102 336.749 239.956C337.027 239.804 337.43 239.518 337.734 239.483C338.048 239.447 338.328 239.05 338.682 239.05C338.921 239.05 339.265 238.798 339.44 238.616C339.774 238.27 340.182 237.622 340.622 237.461" stroke="#E1E8E5" stroke-width="2" stroke-linecap="round" stroke-linejoin="round"/>
<path d="M334.588 245.08C335.663 245.08 336.673 244.254 337.607 243.74C338.319 243.349 339.009 242.901 339.715 242.512C340.597 242.027 341.417 241.36 342.267 240.891" stroke="#E1E8E5" stroke-width="2" stroke-linecap="round" stroke-linejoin="round"/>
<path d="M334.588 248.807C336.567 248.807 338.121 247.482 339.89 246.703C340.187 246.572 340.547 246.197 340.801 245.974C341.234 245.594 341.672 245.228 342.105 244.848C342.482 244.516 343.04 243.982 343.493 243.812" stroke="#E1E8E5" stroke-width="2" stroke-linecap="round" stroke-linejoin="round"/>
<path d="M337.373 250.87C339.148 250.87 340.399 249.745 341.849 248.934C342.871 248.363 343.562 247.219 344.58 246.712" stroke="#E1E8E5" stroke-width="2" stroke-linecap="round" stroke-linejoin="round"/>
<path d="M343.346 251.288C343.866 251.086 345.24 249.996 345.703 249.687" stroke="#E1E8E5" stroke-width="2" stroke-linecap="round" stroke-linejoin="round"/>
<path d="M688.687 535.81L683.912 534.611C683.354 534.478 682.795 534.611 682.423 535.011L678.764 538.54C677.772 539.539 676.097 538.807 675.973 537.341L675.601 532.08C675.539 531.481 675.229 530.948 674.795 530.682L670.516 528.018C669.338 527.285 669.462 525.421 670.702 524.821L675.229 522.824C675.725 522.624 676.098 522.091 676.222 521.558L677.214 516.43C677.524 514.965 679.198 514.499 680.067 515.631L683.229 519.627C683.602 520.093 684.098 520.293 684.656 520.226L689.555 519.693C690.92 519.56 691.85 521.159 691.168 522.424L688.625 526.886C688.315 527.419 688.315 528.018 688.501 528.551L690.486 533.346C691.168 534.678 690.051 536.143 688.687 535.81Z" fill="#E1E8E5"/>
<path d="M1422.5 478.81L1417.72 477.611C1417.16 477.478 1416.6 477.611 1416.23 478.011L1412.57 481.54C1411.58 482.539 1409.91 481.807 1409.78 480.341L1409.41 475.08C1409.35 474.481 1409.04 473.948 1408.6 473.682L1404.32 471.018C1403.15 470.285 1403.27 468.421 1404.51 467.821L1409.04 465.824C1409.53 465.624 1409.91 465.091 1410.03 464.558L1411.02 459.43C1411.33 457.965 1413.01 457.499 1413.88 458.631L1417.04 462.627C1417.41 463.093 1417.91 463.293 1418.46 463.226L1423.36 462.693C1424.73 462.56 1425.66 464.159 1424.98 465.424L1422.43 469.886C1422.12 470.419 1422.12 471.018 1422.31 471.551L1424.29 476.346C1424.98 477.678 1423.86 479.143 1422.5 478.81Z" fill="#E1E8E5"/>
<path d="M888.906 1154.81L884.131 1153.61C883.573 1153.48 883.015 1153.61 882.643 1154.01L878.983 1157.54C877.991 1158.54 876.317 1157.81 876.193 1156.34L875.821 1151.08C875.759 1150.48 875.448 1149.95 875.014 1149.68L870.735 1147.02C869.557 1146.29 869.681 1144.42 870.921 1143.82L875.448 1141.82C875.945 1141.62 876.317 1141.09 876.441 1140.56L877.433 1135.43C877.743 1133.97 879.418 1133.5 880.286 1134.63L883.449 1138.63C883.821 1139.09 884.317 1139.29 884.875 1139.23L889.775 1138.69C891.139 1138.56 892.069 1140.16 891.387 1141.42L888.844 1145.89C888.534 1146.42 888.534 1147.02 888.72 1147.55L890.705 1152.35C891.387 1153.68 890.271 1155.14 888.906 1154.81Z" fill="#E1E8E5"/>
<path d="M109.729 1098.81L104.953 1097.61C104.395 1097.48 103.837 1097.61 103.465 1098.01L99.8057 1101.54C98.8135 1102.54 97.139 1101.81 97.015 1100.34L96.6429 1095.08C96.5808 1094.48 96.2708 1093.95 95.8366 1093.68L91.5574 1091.02C90.3791 1090.29 90.5031 1088.42 91.7435 1087.82L96.2708 1085.82C96.7669 1085.62 97.139 1085.09 97.263 1084.56L98.2553 1079.43C98.5654 1077.97 100.24 1077.5 101.108 1078.63L104.271 1082.63C104.643 1083.09 105.139 1083.29 105.697 1083.23L110.597 1082.69C111.961 1082.56 112.891 1084.16 112.209 1085.42L109.667 1089.89C109.356 1090.42 109.356 1091.02 109.542 1091.55L111.527 1096.35C112.209 1097.68 111.093 1099.14 109.729 1098.81Z" fill="#E1E8E5"/>
<path d="M452.721 1237.29C451.958 1236.75 451.109 1236.45 450.164 1236.31C448.799 1236.09 447.456 1235.78 446.112 1235.5C445.986 1235.47 445.82 1235.25 445.821 1235.11C445.831 1233.81 445.862 1232.53 445.935 1231.23C445.948 1230.99 446.15 1230.64 446.361 1230.55C447.976 1229.78 449.59 1229.03 451.236 1228.32C452.164 1227.91 452.408 1227.66 452.437 1226.67C452.466 1225.71 451.504 1225.01 450.628 1225.38C448.265 1226.4 445.923 1227.45 443.447 1228.19C441.592 1228.74 439.819 1229.57 438.016 1230.3C437.847 1230.38 437.625 1230.53 437.592 1230.69C437.505 1231.09 438.242 1232.24 438.661 1232.41C439.51 1232.77 440.37 1233.03 441.258 1232.45C441.416 1232.35 441.616 1232.31 441.796 1232.24C442.934 1231.84 442.934 1231.84 443.093 1232.99C443.114 1233.11 443.134 1233.23 443.143 1233.35C443.267 1234.98 442.928 1235.27 441.269 1235.06C440.198 1234.91 439.116 1234.73 438.044 1234.74C436.036 1234.75 434.016 1234.9 432.007 1235C431.26 1235.03 431.177 1234.97 431.182 1234.24C431.193 1232.86 431.204 1231.47 431.215 1230.09L431.205 1230.09C431.216 1228.66 431.248 1227.25 431.228 1225.83C431.219 1225.55 431.107 1225.14 430.898 1225.02C430.312 1224.67 429.673 1224.31 429.011 1224.22C428.108 1224.09 427.161 1224.2 426.236 1224.21C425.815 1224.22 425.554 1224.07 425.41 1223.65C425.174 1222.95 424.885 1222.26 424.659 1221.57C424.474 1220.97 424.248 1220.37 424.21 1219.77C424.137 1218.36 424.128 1216.93 424.16 1215.51C424.233 1212.91 425.092 1210.63 427.114 1208.84C427.643 1208.37 427.833 1208.36 428.259 1208.91C430.112 1211.26 431.997 1213.59 433.776 1216C434.91 1217.53 435.885 1219.2 436.934 1220.81C437.536 1221.73 438.384 1222.19 439.364 1221.91C440.228 1221.66 440.742 1221.91 441.136 1222.62C441.187 1222.72 441.26 1222.79 441.323 1222.87C442.115 1223.77 443.071 1223.88 444.064 1223.18C444.508 1222.87 444.984 1222.6 445.417 1222.28C445.787 1222.02 446.168 1221.76 446.475 1221.43C447.345 1220.45 447.35 1219.77 446.559 1218.75C446.455 1218.62 446.351 1218.47 446.237 1218.35C445.768 1217.78 445.331 1217.19 445.516 1216.38C445.538 1216.27 445.518 1216.13 445.477 1216.03C445.053 1215.09 444.714 1214.1 444.185 1213.22C442.13 1209.85 440.011 1206.53 437.924 1203.19C437.571 1202.62 437.604 1202.51 438.122 1202.05C438.218 1201.97 438.313 1201.89 438.398 1201.81C439.149 1201.16 439.322 1200.59 438.845 1199.74C438.306 1198.79 437.714 1197.84 437.037 1196.98C436.132 1195.81 435.533 1195.77 434.265 1196.58C432.659 1197.62 431.23 1197.44 430.001 1196.05C429.886 1195.91 429.782 1195.78 429.646 1195.67C429.385 1195.48 429.124 1195.21 428.83 1195.15C428.253 1195.05 427.792 1194.83 427.375 1194.42C426.906 1193.91 426.411 1193.93 425.903 1194.37C425.49 1194.72 425.099 1195.1 424.686 1195.45C424.305 1195.77 424.239 1196.12 424.403 1196.61C424.516 1196.95 424.513 1197.41 424.363 1197.73C424.149 1198.2 424.146 1198.6 424.405 1199C424.696 1199.45 424.987 1199.91 425.32 1200.32C425.633 1200.71 425.641 1201.01 425.301 1201.41C425.036 1201.73 424.833 1202.16 424.798 1202.57C424.753 1202.97 424.635 1203.2 424.287 1203.38C422.165 1204.46 420.397 1206 418.692 1207.61C418.173 1208.1 417.674 1208.75 417.479 1209.4C417.047 1210.88 416.667 1212.39 416.519 1213.91C416.257 1216.43 416.626 1218.91 417.364 1221.34C418.112 1223.81 418.924 1226.25 420.495 1228.35C421.015 1229.03 421.156 1229.75 421.066 1230.58C420.941 1231.7 420.796 1232.82 420.808 1233.94C420.812 1234.82 420.658 1235.57 420.117 1236.26C419.65 1236.86 419.276 1237.56 418.736 1238.08C418.27 1238.52 418.004 1238.95 418.02 1239.56C418.027 1239.99 418.002 1240.44 418.115 1240.85C418.227 1241.24 418.423 1241.78 418.737 1241.91C419.649 1242.31 420.635 1242.53 421.6 1242.8C421.684 1242.82 421.8 1242.77 421.895 1242.74C422.095 1242.69 422.285 1242.6 422.496 1242.58C423.674 1242.43 424.873 1242.36 426.042 1242.12C427.338 1241.86 428.632 1241.68 429.957 1241.71C435.044 1241.85 440.156 1241.48 445.241 1242.02C447.657 1242.28 450.006 1241.63 452.355 1241.11C452.882 1240.99 453.263 1240.65 453.477 1240.16C453.862 1239.27 453.516 1237.86 452.721 1237.29ZM444.473 1219.29C444.63 1219.5 444.754 1219.72 444.941 1220.01C444.592 1220.32 444.263 1220.62 443.925 1220.9C443.671 1221.11 443.419 1221.07 443.168 1220.88C442.467 1220.37 442.458 1220.23 443.083 1219.63C443.21 1219.5 443.358 1219.4 443.454 1219.25C443.784 1218.69 444.089 1218.77 444.473 1219.29ZM435.341 1198.81C436.083 1198.07 436.209 1198.08 436.633 1199C436.829 1199.41 437.015 1199.84 437.242 1200.36C437.03 1200.58 436.871 1200.83 436.638 1200.95C436.543 1201 436.261 1200.82 436.125 1200.67C435.834 1200.34 435.595 1199.94 435.303 1199.6C435.043 1199.31 435.055 1199.09 435.341 1198.81ZM434.687 1201.77C436.972 1205.29 439.236 1208.83 441.532 1212.35C442.186 1213.37 442.915 1214.33 443.59 1215.34C443.683 1215.48 443.723 1215.8 443.628 1215.91C442.557 1217.05 441.454 1218.18 440.352 1219.3C440.236 1219.41 440.067 1219.49 439.877 1219.6C439.73 1219.49 439.573 1219.4 439.48 1219.28C438.116 1217.54 436.763 1215.78 435.4 1214.04C434.91 1213.42 434.316 1212.87 433.879 1212.21C432.373 1209.94 431.014 1207.58 429.264 1205.48C429.004 1205.16 429.058 1204.95 429.365 1204.7C430.656 1203.66 431.926 1202.59 433.227 1201.55C433.926 1200.97 434.199 1201.02 434.687 1201.77ZM431.817 1199.01C431.986 1198.92 432.281 1198.88 432.438 1198.96C432.637 1199.08 432.75 1199.34 432.927 1199.58C432.758 1199.77 432.651 1199.94 432.503 1200.02C430.919 1200.99 429.334 1201.94 427.739 1202.9C427.496 1203.04 427.243 1203.18 426.993 1202.88C426.753 1202.59 426.819 1202.29 427.073 1202.1C427.707 1201.59 428.353 1201.07 429.04 1200.62C429.938 1200.05 430.878 1199.53 431.817 1199.01ZM426.348 1198.04C426.95 1197.57 427.605 1197.17 428.25 1196.75C428.303 1196.7 428.377 1196.7 428.514 1196.66C428.639 1196.78 428.817 1196.89 428.931 1197.05C429.753 1198.21 429.87 1198 428.602 1198.75C428.212 1198.98 427.81 1199.2 427.43 1199.44C427.092 1199.66 426.84 1199.58 426.632 1199.28C426.497 1199.08 426.299 1198.9 426.248 1198.68C426.197 1198.48 426.21 1198.14 426.348 1198.04ZM449.823 1239.53C448.689 1239.42 447.565 1239.25 446.441 1239.13C442.827 1238.74 439.211 1238.76 435.573 1238.8C433.785 1238.83 432.008 1238.9 430.239 1239.24C429.902 1239.3 429.545 1239.19 429.198 1239.21C428.42 1239.24 427.621 1239.2 426.863 1239.36C425.242 1239.68 423.62 1240 421.971 1239.81C421.614 1239.77 421.279 1239.58 420.922 1239.46C421.072 1239.12 421.138 1238.71 421.372 1238.44C421.669 1238.09 422.05 1237.74 422.461 1237.59C422.989 1237.39 423.117 1237.07 423.121 1236.61C423.159 1234.5 423.196 1232.39 423.234 1230.28C423.234 1230.25 423.224 1230.21 423.235 1230.18C423.517 1227.68 422.462 1225.57 421.375 1223.41C419.19 1219.08 418.763 1214.57 420.723 1209.98C421.495 1208.15 422.726 1206.68 424.396 1205.58C424.692 1205.38 424.902 1205.41 425.131 1205.65C425.381 1205.91 425.632 1206.18 425.903 1206.43C426.185 1206.68 426.12 1206.87 425.866 1207.12C425.241 1207.71 424.606 1208.28 424.054 1208.94C422.557 1210.72 421.753 1212.77 421.713 1215.1C421.691 1216.61 421.658 1218.11 421.667 1219.62C421.675 1221.28 422.347 1222.73 423.209 1224.11C423.458 1224.51 423.739 1224.88 424.009 1225.27C424.332 1225.71 424.761 1225.97 425.318 1226.02C426.295 1226.11 427.272 1226.22 428.238 1226.32C428.91 1226.39 429.004 1226.45 428.978 1227.11C428.936 1228.42 428.779 1229.74 428.811 1231.04C428.851 1232.59 429.007 1234.14 429.163 1235.68C429.222 1236.24 429.566 1236.62 430.164 1236.72C431.036 1236.87 431.906 1237.09 432.789 1237.13C434.24 1237.2 435.701 1237.14 437.152 1237.14C437.152 1237.16 437.152 1237.17 437.152 1237.19C439.128 1237.19 441.116 1237.1 443.081 1237.21C444.216 1237.28 445.338 1237.66 446.472 1237.87C447.532 1238.07 448.603 1238.23 449.664 1238.43C449.842 1238.46 450.073 1238.54 450.166 1238.67C450.301 1238.87 450.384 1239.13 450.382 1239.35C450.392 1239.41 450.012 1239.54 449.823 1239.53Z" fill="#E1E8E5"/>
<path d="M427.442 1227.9C426.615 1227.49 425.836 1227.65 425.053 1228.36C424.46 1228.91 424.223 1229.56 424.238 1230.33C424.267 1230.67 424.264 1231.02 424.335 1231.36C424.497 1232.17 425.331 1233.01 425.93 1233.02C426.918 1233.04 427.986 1232.2 428.204 1231.24C428.291 1230.85 428.368 1230.46 428.424 1230.06C428.568 1229.12 428.185 1228.28 427.442 1227.9ZM426.705 1230.8C426.192 1230.49 426.183 1230.28 426.638 1229.88C426.983 1230.15 426.896 1230.45 426.705 1230.8Z" fill="#E1E8E5"/>
<path d="M434.145 1211.34C434.373 1211.84 434.813 1212.02 435.349 1211.99C436.285 1211.95 436.847 1211.37 437.273 1210.64C438.466 1208.59 436.654 1206.51 435.151 1206.47C434.772 1206.58 434.288 1206.58 434.034 1206.83C433.388 1207.47 432.919 1208.27 433.237 1209.21C433.473 1209.95 433.825 1210.65 434.145 1211.34ZM435.273 1208.31C435.337 1208.19 435.59 1208.09 435.727 1208.12C436.23 1208.21 436.605 1208.74 436.611 1209.26C436.617 1209.81 436.269 1210.01 435.787 1209.75C435.327 1209.5 435.038 1208.76 435.273 1208.31Z" fill="#E1E8E5"/>
<path d="M1361.04 1084.91C1361.23 1086.34 1360.98 1087.71 1359.87 1088.86C1359.14 1089.62 1358.3 1090.06 1357.22 1089.99C1356.55 1089.96 1355.87 1089.91 1355.21 1089.96C1352.09 1090.15 1350.04 1087.31 1350.45 1084.49C1350.55 1083.78 1350.78 1083.08 1351 1082.41C1351.13 1082.02 1351.12 1081.71 1350.78 1081.44C1350.16 1080.93 1349.56 1080.38 1348.9 1079.95C1347.56 1079.07 1346.17 1078.26 1344.8 1077.4C1344.42 1077.16 1344.05 1077.06 1343.68 1077.34C1341.45 1079.06 1338.95 1078.96 1336.36 1078.45C1334.51 1078.1 1332.79 1077.54 1331.45 1076.14C1331.18 1075.87 1330.94 1075.57 1330.71 1075.26C1330.47 1074.93 1330.18 1074.84 1329.81 1074.97C1327.58 1075.78 1325.33 1076.6 1323.1 1077.4C1322.58 1077.58 1322.31 1077.93 1322.25 1078.5C1322.04 1080.52 1321.04 1082.22 1319.75 1083.72C1319.41 1084.13 1318.8 1084.41 1318.27 1084.5C1317.1 1084.7 1315.93 1084.5 1314.84 1084.03C1312.41 1082.99 1311.26 1080.61 1312 1078.01C1312.48 1076.34 1313.33 1074.88 1315.01 1074.17C1317.06 1073.3 1318.98 1073.68 1320.63 1075.15C1321.11 1075.57 1321.53 1075.65 1322.13 1075.42C1324.42 1074.54 1326.72 1073.69 1329.03 1072.87C1329.53 1072.69 1329.69 1072.44 1329.57 1071.93C1329.45 1071.47 1329.38 1070.99 1329.3 1070.54C1329.16 1069.69 1329.22 1068.87 1329.6 1068.09C1331.31 1064.51 1334.01 1062.26 1338.09 1061.82C1338.26 1061.8 1338.42 1061.74 1338.6 1061.73C1339.15 1061.68 1339.34 1061.39 1339.34 1060.85C1339.34 1058.96 1339.36 1057.09 1339.38 1055.2C1339.38 1054.75 1339.29 1054.35 1338.79 1054.31C1336.76 1054.1 1335.92 1052.65 1335.45 1050.99C1335.02 1049.48 1335.16 1047.93 1335.87 1046.48C1336.56 1044.99 1337.79 1044.3 1339.36 1044.11C1339.38 1044.11 1339.39 1044.11 1339.42 1044.11C1340.62 1043.99 1341.84 1043.78 1342.88 1044.67C1344.25 1045.88 1345.3 1047.25 1345.66 1049.09C1345.87 1050.14 1345.68 1051.16 1345.45 1052.13C1345.15 1053.37 1344.14 1054 1342.91 1054.25C1342.18 1054.4 1342.08 1054.49 1342.11 1055.22C1342.19 1057.12 1342.26 1059.02 1342.34 1060.93C1342.38 1061.75 1342.48 1061.79 1343.32 1061.81C1344.09 1061.83 1344.87 1061.87 1345.6 1062.06C1346.79 1062.37 1347.39 1063.23 1347.65 1064.43C1348.3 1067.53 1348.09 1070.51 1346.7 1073.38C1346.54 1073.73 1346.63 1074 1346.91 1074.24C1348.06 1075.25 1349.2 1076.28 1350.38 1077.25C1350.75 1077.56 1351.22 1077.77 1351.65 1078.03C1352.05 1078.28 1352.5 1078.5 1352.83 1078.82C1353.52 1079.53 1354.33 1079.79 1355.32 1079.74C1356.82 1079.69 1358.23 1080.01 1359.45 1080.92C1360.47 1081.68 1361.14 1082.64 1361.05 1083.98C1361.01 1084.26 1361.04 1084.55 1361.04 1084.91ZM1334.03 1072.46C1334.07 1072.49 1334.12 1072.53 1334.17 1072.55C1334.25 1072.5 1334.33 1072.47 1334.4 1072.41C1334.84 1071.99 1335.25 1071.54 1335.72 1071.13C1336.34 1070.57 1337.02 1070.14 1337.91 1070.14C1338.4 1070.14 1338.86 1070.2 1339.06 1070.71C1339.27 1071.25 1338.99 1071.58 1338.6 1071.98C1337.73 1072.88 1336.95 1073.88 1336.18 1074.85C1336.1 1074.95 1336.19 1075.18 1336.2 1075.34C1336.35 1075.28 1336.54 1075.27 1336.64 1075.18C1336.87 1074.95 1337.05 1074.68 1337.27 1074.44C1337.73 1073.95 1338.25 1073.58 1338.97 1073.62C1339.51 1073.66 1339.7 1074.01 1339.45 1074.48C1339.29 1074.78 1339.12 1075.05 1338.88 1075.44C1339.23 1075.48 1339.46 1075.54 1339.69 1075.52C1340.83 1075.43 1341.68 1074.85 1342.35 1073.99C1343.79 1072.16 1344.55 1070.09 1344.6 1067.77C1344.63 1066.37 1344.03 1065.54 1342.64 1065.21C1341.27 1064.87 1339.87 1064.85 1338.48 1065.19C1337.5 1065.44 1336.57 1065.8 1336.04 1066.75C1335.61 1067.52 1335.68 1067.6 1336.46 1067.88C1336.79 1068.01 1337.14 1068.32 1337.31 1068.64C1337.52 1069.02 1337.1 1069.22 1336.86 1069.45C1336.04 1070.23 1335.22 1070.99 1334.42 1071.79C1334.25 1071.99 1334.16 1072.24 1334.03 1072.46ZM1356.16 1082.3C1355.65 1082.41 1355.27 1082.42 1354.95 1082.59C1354.7 1082.73 1354.35 1083.05 1354.36 1083.27C1354.45 1084.51 1354.5 1085.78 1355.44 1086.78C1355.8 1087.16 1356.19 1087.24 1356.62 1086.97C1357.45 1086.47 1358.13 1085.82 1358.56 1084.93C1358.95 1084.1 1358.75 1083.29 1357.93 1082.89C1357.35 1082.6 1356.68 1082.47 1356.16 1082.3ZM1339.06 1050.51C1339.02 1051.1 1339.22 1051.49 1339.66 1051.74C1340.19 1052.04 1340.75 1052.12 1341.3 1051.78C1342.09 1051.29 1342.54 1050.55 1342.77 1049.67C1343.08 1048.47 1342.26 1047.45 1341.01 1047.52C1340.8 1047.53 1340.54 1047.63 1340.4 1047.76C1339.64 1048.56 1339.17 1049.5 1339.06 1050.51ZM1316.89 1079.02C1316.88 1079.02 1316.87 1079.02 1316.86 1079.02C1316.86 1079.4 1316.87 1079.79 1316.86 1080.17C1316.83 1080.75 1317.11 1081.17 1317.51 1081.56C1317.82 1081.87 1318.1 1081.87 1318.4 1081.55C1319.48 1080.43 1319.89 1079.09 1319.67 1077.57C1319.6 1077.07 1319.24 1076.71 1318.76 1076.56C1318.43 1076.46 1317.04 1077.12 1316.96 1077.38C1316.92 1077.5 1316.91 1077.64 1316.91 1077.77C1316.89 1078.19 1316.89 1078.6 1316.89 1079.02Z" fill="#E1E8E5"/>
</svg>
