<svg width="375" height="1381" viewBox="0 0 375 1381" fill="none" xmlns="http://www.w3.org/2000/svg">
<path d="M338.751 358.538L336.55 357.988C336.293 357.927 336.036 357.988 335.864 358.172L334.178 359.789C333.721 360.247 332.949 359.911 332.892 359.24L332.721 356.828C332.692 356.554 332.549 356.31 332.349 356.188L330.377 354.967C329.834 354.631 329.891 353.776 330.463 353.501L332.549 352.586C332.778 352.494 332.949 352.25 333.006 352.006L333.464 349.656C333.607 348.984 334.378 348.77 334.778 349.289L336.236 351.121C336.407 351.334 336.636 351.426 336.893 351.395L339.151 351.151C339.78 351.09 340.209 351.823 339.894 352.403L338.723 354.448C338.58 354.692 338.58 354.967 338.665 355.211L339.58 357.408C339.894 358.019 339.38 358.69 338.751 358.538Z" fill="#E8E8E8"/>
<path d="M41.0982 220.919C39.6286 220.29 38.1242 219.72 36.6962 219.016C33.0553 217.218 29.4381 215.365 25.8141 213.527C25.017 213.121 24.231 212.711 23.4373 212.297C22.9539 212.044 22.4669 211.864 21.8941 211.988C21.4946 212.076 21.2516 211.824 21.0245 211.514C20.7104 211.084 20.3852 210.658 19.9916 210.305C19.3604 209.73 18.9745 209.038 18.7723 208.222C18.3802 206.603 18.5996 205.006 19.1006 203.465C20.0835 200.448 21.4504 197.613 23.4548 195.126C24.0541 194.385 24.7928 193.749 25.4958 193.089C25.8434 192.757 26.3022 192.639 26.7604 192.715C27.5192 192.846 28.2937 192.983 29.0287 193.233C32.6356 194.426 36.0039 196.126 39.3946 197.818C41.7649 198.998 44.2342 199.972 46.6652 201.012C47.4079 201.33 48.1967 201.52 48.9393 201.838C50.8633 202.68 52.7783 203.564 54.7068 204.417C55.3835 204.716 55.6187 205.306 55.6705 205.957C55.775 207.277 55.846 208.61 55.2217 209.859C55.098 210.101 55.1848 210.222 55.4183 210.303C55.7411 210.414 56.0639 210.524 56.3766 210.658C56.9316 210.895 57.2334 211.311 57.2494 211.937C57.2793 213.151 57.3965 214.356 57.0787 215.56C56.7169 216.93 56.0693 218.104 54.924 218.972C54.3827 219.387 53.8292 219.788 53.2501 220.141C52.9588 220.321 52.594 220.414 52.255 220.491C52.1118 220.522 51.9141 220.465 51.7801 220.39C51.2678 220.096 50.7723 219.764 50.2532 219.487C50.1471 219.432 49.9099 219.487 49.8079 219.573C48.975 220.298 48.1465 221.034 47.3337 221.776C47.207 221.898 47.1137 222.07 47.0505 222.237C46.7812 222.944 46.2494 223.188 45.519 222.885C44.0304 222.257 42.5486 221.613 41.0634 220.978C41.0779 220.966 41.0881 220.942 41.0982 220.919ZM41.8715 219.198C41.8816 219.175 41.8917 219.151 41.8985 219.136C42.9538 219.588 44.0124 220.031 45.0643 220.491C45.4674 220.673 45.7841 220.605 46.0903 220.283C46.6915 219.644 47.3172 219.034 47.9385 218.413C49.2966 217.053 50.5275 215.603 51.3958 213.877C52.5578 211.537 53.1722 209.092 53.0827 206.476C53.0716 206.074 52.9247 205.835 52.5451 205.664C51.5982 205.24 50.6827 204.765 49.7425 204.326C49.3194 204.126 48.8861 203.95 48.446 203.789C47.9043 203.585 47.339 203.435 46.8041 203.216C45.2652 202.576 43.732 201.901 42.1965 201.253C41.7978 201.082 41.6948 201.149 41.6622 201.588C41.6096 202.351 41.5872 203.108 41.5268 203.868C41.3126 206.715 40.4226 209.347 38.8121 211.716C37.8643 213.112 36.6487 214.292 35.4042 215.432C35.0376 215.765 35.0628 215.942 35.4938 216.145C37.6376 217.164 39.7545 218.181 41.8715 219.198ZM21.8717 201.453C21.6834 201.973 21.4143 202.616 21.2111 203.277C20.816 204.531 20.4678 205.805 20.6226 207.138C20.6739 207.575 20.828 208.011 21.0035 208.419C21.1567 208.771 21.4641 208.81 21.7746 208.564C22.0121 208.379 22.2263 208.184 22.4438 207.982C22.9696 207.495 23.5367 207.063 23.8172 206.352C24.8716 203.726 25.7707 201.052 26.2352 198.247C26.4094 197.204 26.4763 196.151 26.5621 195.098C26.576 194.937 26.4178 194.768 26.34 194.605C26.1877 194.679 26.0031 194.72 25.8876 194.837C25.67 195.039 25.4927 195.278 25.2997 195.509C23.8375 197.258 22.919 199.314 21.8717 201.453ZM31.9118 204.309C31.9085 204.316 31.9085 204.316 31.9051 204.324C31.5689 204.18 31.2328 204.037 30.8889 203.889C30.8498 203.873 30.8107 203.856 30.7716 203.839C30.3349 203.671 29.8751 203.77 29.6447 204.152C29.456 204.459 29.285 204.811 29.2359 205.159C29.2005 205.412 29.2988 205.805 29.4828 205.958C29.9346 206.327 30.4446 206.647 30.9694 206.89C31.9174 207.333 32.889 207.721 33.8562 208.098C34.3398 208.286 34.8413 208.455 35.3464 208.551C35.5275 208.582 35.8409 208.458 35.9465 208.299C36.3462 207.74 36.3884 207.066 36.2461 206.432C36.1346 205.94 35.5746 205.886 35.1749 205.696C35.0219 205.621 34.8554 205.578 34.6991 205.511C33.7801 205.108 32.842 204.707 31.9118 204.309ZM51.9812 218.193C52.3203 218.458 52.6595 218.317 52.9959 217.99C53.3324 217.663 53.729 217.389 54.0141 217.03C54.3665 216.58 54.7783 216.1 54.9207 215.579C55.165 214.63 55.2317 213.642 55.3598 212.662C55.4193 212.226 55.1055 212.073 54.7603 211.971C54.3883 211.868 54.3438 212.163 54.2459 212.389C54.1885 212.521 54.1232 212.651 54.0926 212.785C53.6582 214.494 52.6968 215.921 51.6964 217.332C51.3315 217.832 51.3391 217.9 51.9812 218.193ZM33.898 203.81C33.9269 203.85 33.9559 203.89 33.9848 203.93C34.1673 203.851 34.3509 203.791 34.5167 203.686C35.424 203.132 36.3146 202.552 37.2387 202.023C37.531 201.862 37.9125 201.794 38.2557 201.793C38.7287 201.793 38.9411 202.179 38.7084 202.588C38.5623 202.84 38.3581 203.076 38.1273 203.245C37.5457 203.689 36.9161 204.094 36.3266 204.535C36.2168 204.617 36.0975 204.871 36.1354 204.933C36.2423 205.072 36.4232 205.168 36.5941 205.222C36.6912 205.255 36.8391 205.17 36.951 205.125C37.2567 204.998 37.5422 204.852 37.8445 204.732C38.5083 204.461 38.5474 204.478 39.0467 205.015C39.0913 205.062 39.1572 205.081 39.2722 205.158C39.3334 204.888 39.3967 204.657 39.4219 204.427C39.4723 204.033 39.5037 203.64 39.535 203.247C39.6024 202.407 39.6809 201.562 39.7248 200.713C39.7614 200.072 39.5237 199.915 38.976 200.217C38.3914 200.539 37.8068 200.862 37.2634 201.239C36.2203 201.957 35.2095 202.707 34.1943 203.447C34.0811 203.537 33.9979 203.686 33.898 203.81ZM27.0693 203.53C27.0983 203.57 27.135 203.613 27.164 203.654C27.4183 203.494 27.6814 203.357 27.9112 203.169C29.2147 202.129 30.5059 201.073 31.8172 200.036C32.6679 199.356 33.5475 198.716 34.406 198.039C34.5046 197.961 34.6138 197.73 34.5715 197.657C34.3902 197.348 33.7273 197.296 33.428 197.537C31.6382 198.952 29.8616 200.4 28.0361 201.79C27.4175 202.256 27.2223 202.856 27.0693 203.53ZM37.2638 199.207C37.2361 199.121 37.2264 199.015 37.1695 198.954C36.8107 198.541 36.1478 198.489 35.7252 198.844C34.2423 200.085 32.7559 201.334 31.2729 202.575C31.1743 202.653 31.0723 202.739 31.0016 202.838C30.941 202.914 30.9283 203.028 30.8956 203.125C30.9928 203.158 31.12 203.249 31.1984 203.218C31.467 203.111 31.738 202.977 31.9811 202.823C33.6494 201.689 35.302 200.548 36.9591 199.418C37.0509 199.356 37.1428 199.293 37.2638 199.207ZM37.8836 209.239C36.0732 210.424 34.3692 211.533 32.6653 212.643C33.298 212.701 33.9661 212.507 34.5777 212.122C34.8835 211.929 35.1598 211.89 35.497 212.053C35.6265 212.118 35.9039 212.098 35.9824 212.002C36.6837 211.175 37.385 210.347 37.8836 209.239ZM34.1074 209.721C34.1008 209.672 34.0898 209.612 34.0833 209.563C33.853 209.538 33.6151 209.446 33.4003 209.492C32.4056 209.713 31.6701 210.406 30.85 210.951C30.7469 211.018 30.851 211.377 30.8559 211.601C31.0181 211.568 31.2015 211.573 31.3348 211.501C32.1536 211.001 32.9714 210.482 33.7779 209.968C33.8922 209.897 33.9976 209.803 34.1074 209.721ZM28.4315 197.413C28.4862 197.437 28.5453 197.471 28.6001 197.495C29.1314 197.038 29.675 196.596 30.1941 196.125C30.2524 196.076 30.1885 195.753 30.1103 195.72C29.6838 195.528 29.2482 195.379 28.798 195.241C28.7242 195.219 28.5147 195.36 28.5078 195.441C28.4645 196.097 28.4558 196.758 28.4315 197.413ZM39.1705 205.521C38.8589 205.748 38.6404 205.932 38.3973 206.086C37.9548 206.359 37.6095 206.664 37.7766 207.262C37.8087 207.359 37.7859 207.497 37.7342 207.595C37.4834 208.089 37.7991 208.344 38.1259 208.595C38.5139 208.234 39.169 206.38 39.1705 205.521ZM25.7663 206.687C25.5856 207.275 25.7092 207.439 26.2886 207.363C26.4139 207.352 26.5571 207.321 26.6479 207.24C27.1199 206.814 27.5919 206.387 28.0238 205.925C28.1068 205.841 28.0505 205.585 27.9928 205.441C27.975 205.396 27.7112 205.385 27.6037 205.44C27.1367 205.684 26.682 205.942 26.2406 206.234C26.0558 206.34 25.9177 206.53 25.7663 206.687ZM27.8127 209.984C28.5435 210.5 28.6118 210.492 29.2238 209.978C29.504 209.738 29.8132 209.537 30.1102 209.322C30.341 209.153 30.5763 208.995 30.7915 208.819C30.8531 208.762 30.8702 208.659 30.9074 208.573C30.8136 208.533 30.7177 208.455 30.6226 208.46C30.5007 208.464 30.3742 208.52 30.2633 208.584C29.5488 208.971 28.8421 209.362 28.1354 209.752C28.0313 209.8 27.9483 209.885 27.8127 209.984ZM29.113 207.389C29.0662 207.305 29.0117 207.217 28.965 207.132C28.8596 207.225 28.7709 207.345 28.6489 207.412C28.2009 207.655 27.7362 207.872 27.2961 208.118C27.137 208.207 27.0158 208.358 26.8735 208.473C27.0835 208.544 27.299 208.646 27.5214 208.667C27.6365 208.68 27.7833 208.576 27.8887 208.482C28.2283 208.212 28.5635 207.93 28.8942 207.638C28.9782 207.572 29.0378 207.477 29.113 207.389ZM28.0913 199.375C28.1292 199.437 28.167 199.499 28.2082 199.554C28.4221 199.424 28.6395 199.286 28.8456 199.152C28.8078 199.09 28.7744 199.038 28.7365 198.976C28.5226 199.106 28.3086 199.237 28.0913 199.375Z" fill="#E8E8E8"/>
<path d="M43.5311 212.223C43.2644 212.091 42.9943 211.966 42.7343 211.818C42.2144 211.521 42.0392 211.049 42.2451 210.574C42.4433 210.095 42.9077 209.878 43.4807 210.031C44.1116 210.2 44.7325 210.391 45.3499 210.591C45.6414 210.688 45.8215 210.636 45.9776 210.361C46.2642 209.828 46.5821 209.308 46.8921 208.785C47.1325 208.38 47.5522 208.181 47.9678 208.248C48.3911 208.318 48.7122 208.603 48.6405 209.025C48.563 209.546 48.4094 210.072 48.18 210.537C47.6854 211.507 47.6664 211.508 48.6631 211.944C48.8428 212.021 49.0304 212.101 49.2067 212.186C49.8094 212.462 50.0592 213.04 49.8239 213.605C49.5954 214.153 48.9553 214.434 48.3714 214.221C47.9862 214.084 47.6033 213.92 47.235 213.744C46.8789 213.582 46.6552 213.671 46.4798 214.012C46.2527 214.45 46.01 214.882 45.7394 215.293C45.3745 215.857 44.9504 216.045 44.5116 215.903C44.123 215.774 43.898 215.502 43.9562 215.111C44.0382 214.601 44.1972 214.106 44.3373 213.612C44.3825 213.465 44.4544 213.32 44.5308 213.187C44.7072 212.865 44.6073 212.647 44.2869 212.51C44.0369 212.403 43.7947 212.299 43.5446 212.192C43.5345 212.215 43.5311 212.223 43.5311 212.223Z" fill="#F0F0F0"/>
<path d="M359.127 1262.87L355.826 1262.07C355.44 1261.99 355.054 1262.07 354.797 1262.34L352.267 1264.69C351.581 1265.36 350.424 1264.87 350.338 1263.89L350.081 1260.39C350.038 1259.99 349.824 1259.63 349.523 1259.45L346.565 1257.68C345.751 1257.19 345.836 1255.95 346.694 1255.55L349.824 1254.22C350.166 1254.08 350.424 1253.73 350.509 1253.37L351.195 1249.95C351.41 1248.98 352.567 1248.67 353.168 1249.42L355.354 1252.08C355.611 1252.4 355.954 1252.53 356.34 1252.48L359.727 1252.13C360.67 1252.04 361.313 1253.11 360.842 1253.95L359.084 1256.92C358.869 1257.28 358.869 1257.68 358.998 1258.03L360.37 1261.23C360.842 1262.12 360.07 1263.1 359.127 1262.87Z" fill="#E8E8E8"/>
<path d="M37.1267 845.873L33.8256 845.074C33.4397 844.985 33.0539 845.074 32.7967 845.34L30.2672 847.693C29.5813 848.359 28.4237 847.871 28.338 846.894L28.0808 843.387C28.0379 842.987 27.8235 842.632 27.5234 842.455L24.5653 840.679C23.7507 840.19 23.8364 838.947 24.6939 838.548L27.8235 837.216C28.1665 837.082 28.4237 836.727 28.5095 836.372L29.1954 832.954C29.4098 831.977 30.5673 831.666 31.1675 832.421L33.354 835.085C33.6112 835.395 33.9542 835.529 34.34 835.484L37.7269 835.129C38.6701 835.04 39.3132 836.106 38.8416 836.949L37.0838 839.924C36.8695 840.279 36.8695 840.679 36.9981 841.034L38.37 844.23C38.8416 845.118 38.0699 846.095 37.1267 845.873Z" fill="#E8E8E8"/>
<path d="M275.127 131.873L271.826 131.074C271.44 130.985 271.054 131.074 270.797 131.34L268.267 133.693C267.581 134.359 266.424 133.871 266.338 132.894L266.081 129.387C266.038 128.987 265.824 128.632 265.523 128.455L262.565 126.679C261.751 126.19 261.836 124.947 262.694 124.548L265.824 123.216C266.166 123.082 266.424 122.727 266.509 122.372L267.195 118.954C267.41 117.977 268.567 117.666 269.168 118.421L271.354 121.085C271.611 121.395 271.954 121.529 272.34 121.484L275.727 121.129C276.67 121.04 277.313 122.106 276.842 122.949L275.084 125.924C274.869 126.279 274.869 126.679 274.998 127.034L276.37 130.23C276.842 131.118 276.07 132.095 275.127 131.873Z" fill="#E8E8E8"/>
<path d="M267.127 574.873L263.826 574.074C263.44 573.985 263.054 574.074 262.797 574.34L260.267 576.693C259.581 577.359 258.424 576.871 258.338 575.894L258.081 572.387C258.038 571.987 257.824 571.632 257.523 571.455L254.565 569.679C253.751 569.19 253.836 567.947 254.694 567.548L257.824 566.216C258.166 566.082 258.424 565.727 258.509 565.372L259.195 561.954C259.41 560.977 260.567 560.666 261.168 561.421L263.354 564.085C263.611 564.395 263.954 564.529 264.34 564.484L267.727 564.129C268.67 564.04 269.313 565.106 268.842 565.949L267.084 568.924C266.869 569.279 266.869 569.679 266.998 570.034L268.37 573.23C268.842 574.118 268.07 575.095 267.127 574.873Z" fill="#E8E8E8"/>
<path d="M74.3778 1106.86C74.3124 1106.58 74.0666 1106.34 73.8593 1106.11C73.5875 1105.8 73.2941 1105.5 72.9812 1105.24C70.2493 1102.83 67.5054 1100.43 64.7614 1098.03C63.2927 1096.74 61.8097 1095.45 60.3095 1094.2C59.5356 1093.55 58.6937 1093 57.9392 1092.31C57.6193 1092.01 57.3416 1091.54 57.2725 1091.12C57.0259 1089.64 56.8756 1088.15 56.6771 1086.66C56.6178 1086.22 56.7977 1085.93 57.2003 1085.75C57.3738 1085.68 57.5353 1085.61 57.7088 1085.54C59.1187 1084.96 59.8477 1083.83 59.6326 1082.32C59.4583 1081.16 58.9198 1080.17 57.4603 1080.3C56.9818 1080.34 56.4815 1080.4 56.017 1080.51C54.7509 1080.8 53.4941 1081.13 52.2401 1081.42C51.1665 1081.67 50.0958 1081.88 49.0268 1082.15C48.0398 1082.4 47.0644 1082.71 46.0843 1083C46.082 1082.98 46.0797 1082.97 46.0774 1082.96C45.548 1083.06 45.026 1083.13 44.5036 1083.27C43.9691 1083.41 43.4393 1083.57 42.9285 1083.77C42.2876 1084 41.8305 1084.41 41.8011 1085.17C41.7357 1086.58 42.6718 1087.75 44.0689 1087.95C44.5946 1088.02 45.1375 1088.06 45.6683 1088.09C45.983 1088.11 46.1838 1088.25 46.2344 1088.57C46.5189 1090.12 46.8298 1091.67 47.1024 1093.21C47.2386 1093.99 47.2522 1094.77 46.9729 1095.52C46.3746 1097.21 45.7859 1098.88 44.821 1100.41C44.1549 1101.49 43.6156 1102.64 43.074 1103.77C42.1397 1105.72 41.2629 1107.71 40.3166 1109.66C39.441 1111.46 38.9663 1113.34 38.8247 1115.32C38.7224 1116.87 39.1961 1118.16 40.1586 1119.34C40.8779 1120.23 41.7781 1120.69 42.9054 1120.66C45.1216 1120.57 47.3049 1120.39 49.4158 1119.56C50.8882 1118.99 52.4596 1118.66 53.9862 1118.24C56.6395 1117.51 59.2808 1116.79 61.9387 1116.09C63.624 1115.64 65.3162 1115.23 67.0154 1114.86C67.7808 1114.69 68.5749 1114.54 69.3606 1114.55C71.1414 1114.53 72.5929 1113.85 73.8318 1112.64C74.461 1112.02 75.1559 1111.29 75.0928 1110.38C75.005 1109.21 74.653 1108.03 74.3778 1106.86ZM46.3853 1102.77C46.9815 1101.72 47.5801 1100.69 48.217 1099.66C48.3216 1099.49 48.5747 1099.38 48.7866 1099.31C49.1142 1099.2 49.2451 1099.04 49.2501 1098.67C49.2505 1098.29 49.3517 1097.91 49.4025 1097.52C49.4104 1097.43 49.4159 1097.33 49.3876 1097.25C49.1395 1096.67 49.4017 1096.29 49.82 1095.93C50.0351 1095.76 50.2526 1095.59 50.4247 1095.38C50.718 1095.03 50.6527 1094.75 50.2578 1094.52C50.1884 1094.48 50.119 1094.44 50.0616 1094.4C49.8246 1094.27 49.4715 1094.25 49.4816 1093.85C49.5037 1093.45 49.6503 1093.11 50.0098 1092.9C50.2125 1092.79 50.4198 1092.7 50.6081 1092.58C50.9533 1092.36 51.0518 1092.03 50.8934 1091.66C50.7373 1091.3 50.4402 1091.19 50.0598 1091.28C49.9539 1091.31 49.8599 1091.35 49.7517 1091.37C49.4796 1091.44 49.2274 1091.43 49.1047 1091.11C48.9843 1090.81 49.0531 1090.59 49.3451 1090.42C49.6949 1090.23 50.0447 1090.04 50.3802 1089.84C50.7156 1089.64 50.9867 1089.36 50.7807 1088.94C50.5913 1088.54 50.2257 1088.58 49.8574 1088.67C49.6191 1088.73 49.3831 1088.8 49.1425 1088.85C48.8778 1088.9 48.7394 1088.76 48.7245 1088.49C48.7021 1087.92 49.0542 1087.42 49.6122 1087.34C50.1222 1087.26 50.634 1087.27 51.1486 1087.22C51.3818 1087.2 51.6322 1087.14 51.8515 1087.05C52.0708 1086.96 52.2785 1086.81 52.4789 1086.68C53.2682 1086.18 53.3723 1085.75 52.8468 1084.96C52.7399 1084.8 52.4548 1084.68 52.241 1084.67C51.9166 1084.67 51.5723 1084.76 51.2521 1084.84C50.7875 1084.95 50.3511 1085.15 49.8893 1085.21C48.3715 1085.42 46.9088 1085.99 45.3466 1086.03C44.7889 1086.05 44.4053 1085.94 43.9715 1085.43C44.2464 1085.3 44.4564 1085.16 44.6924 1085.09C45.1209 1084.99 45.5587 1084.93 45.9895 1084.84C47.8256 1084.47 49.6595 1084.08 51.4956 1083.71C51.616 1083.69 51.734 1083.65 51.852 1083.62C52.4734 1083.41 53.0847 1083.28 53.7649 1083.26C54.6062 1083.22 55.4396 1082.95 56.2651 1082.77C56.4697 1082.73 56.6696 1082.67 57.0138 1082.58C56.9065 1082.8 56.8816 1082.93 56.8066 1082.99C56.1922 1083.56 55.5825 1084.15 54.937 1084.68C54.5285 1085.02 54.2926 1085.41 54.3705 1085.95C54.6751 1088.05 54.9917 1090.15 55.3083 1092.25C55.3288 1092.42 55.3853 1092.58 55.4033 1092.74C55.4994 1093.76 55.8805 1094.58 56.8404 1095.09C57.2162 1095.3 57.5018 1095.68 57.7805 1096.03C58.4499 1096.85 59.2696 1097.48 60.2448 1097.88C60.4628 1097.98 60.7127 1097.98 60.9501 1098.05C61.2019 1098.13 61.4897 1098.2 61.6929 1098.35C62.128 1098.66 62.5002 1099.04 62.9158 1099.39C63.1523 1099.58 63.1801 1099.72 62.9049 1099.91C62.3978 1100.26 61.9073 1100.63 61.4146 1100.98C61.0329 1101.27 60.5877 1101.35 60.161 1101.21C58.4134 1100.61 56.848 1101.1 55.3591 1101.98C54.7654 1102.33 54.2051 1102.72 53.6235 1103.07C52.2068 1103.93 50.6866 1104.13 49.0895 1103.67C48.2574 1103.43 47.4502 1103.06 46.5557 1103.14C46.2887 1103.18 46.2831 1102.96 46.3853 1102.77ZM62.8822 1103.43C62.8762 1103.59 62.8462 1103.76 62.8282 1103.92C62.7317 1104.65 62.523 1104.93 62.0158 1104.95C61.4221 1104.97 61.0088 1104.64 60.8716 1103.99C60.7576 1103.46 60.833 1103.34 61.3601 1103.23C61.7067 1103.15 62.0366 1103.05 62.3832 1102.97C62.7201 1102.91 62.9015 1103.07 62.8822 1103.43ZM61.8365 1112.57C61.6213 1112.75 61.189 1112.38 61.1148 1112C61.0036 1111.42 61.3639 1110.76 61.9063 1110.54C62.3232 1110.37 62.8133 1110.71 62.7764 1111.17C62.7238 1111.81 62.2908 1112.21 61.8365 1112.57ZM72.7506 1109.94C72.7013 1110.78 72.1688 1111.32 71.4048 1111.62C71.335 1111.65 71.2651 1111.68 71.1809 1111.69C68.8024 1112.29 66.4263 1112.9 64.0455 1113.49C63.7373 1113.57 63.4199 1113.61 63.1024 1113.64C63.0543 1113.65 62.9946 1113.6 62.8627 1113.56C63.1055 1113.21 63.3817 1112.89 63.5478 1112.52C63.7286 1112.1 63.9362 1111.63 63.9033 1111.2C63.8048 1109.84 62.7352 1109.21 61.4488 1109.65C60.3142 1110.04 59.6166 1110.82 59.6631 1111.71C59.6938 1112.45 59.8907 1113.15 60.3693 1113.76C60.448 1113.85 60.4953 1113.96 60.6022 1114.13C60.2408 1114.26 59.9155 1114.38 59.5856 1114.48C58.3719 1114.85 57.1581 1115.22 55.9397 1115.56C55.5955 1115.65 55.2114 1115.6 54.8648 1115.67C54.3183 1115.82 53.7931 1116 53.2559 1116.19C50.8613 1117.03 48.4787 1117.87 46.0841 1118.71C45.3711 1118.95 44.6385 1118.91 43.9114 1118.76C43.6402 1118.71 43.555 1118.52 43.5763 1118.25C43.6556 1117.23 43.0793 1116.83 42.1729 1117.24C42.0813 1117.28 41.9873 1117.31 41.8934 1117.34C41.8601 1117.3 41.8364 1117.24 41.8031 1117.2C42.0446 1117.02 42.2718 1116.84 42.518 1116.7C43.0177 1116.38 43.2365 1116.03 43.1068 1115.68C42.9605 1115.3 42.4713 1115.16 41.903 1115.32C41.7971 1115.35 41.6934 1115.39 41.5949 1115.4C41.4098 1115.41 41.0682 1115.45 41.0469 1115.4C40.9765 1115.17 40.9353 1114.89 41.0065 1114.67C41.0606 1114.5 41.2827 1114.36 41.4613 1114.25C42.1128 1113.88 42.7689 1113.53 43.4203 1113.16C43.6882 1112.99 43.9492 1112.8 44.1981 1112.6C44.4785 1112.37 44.5094 1112.08 44.3506 1111.77C44.1964 1111.49 43.9451 1111.35 43.6249 1111.43C43.189 1111.57 42.7577 1111.72 42.3385 1111.88C42.1867 1111.93 42.0539 1112.02 41.9068 1112.1C41.7401 1111.55 41.9033 1111.23 42.4072 1111C43.2799 1110.61 44.1669 1110.23 45.0396 1109.84C45.2469 1109.75 45.4496 1109.64 45.6522 1109.53C45.9706 1109.37 46.1047 1109.09 45.9917 1108.76C45.8764 1108.42 45.6038 1108.24 45.2354 1108.33C44.6288 1108.49 44.0411 1108.67 43.4391 1108.85C43.297 1108.89 43.1429 1108.93 42.9986 1108.96C42.9629 1108.9 42.9273 1108.84 42.8916 1108.79C43.1576 1108.55 43.4001 1108.26 43.7041 1108.09C44.5725 1107.61 45.4646 1107.19 46.3665 1106.76C46.9814 1106.46 47.613 1106.17 47.4323 1105.23C47.6674 1105.29 47.821 1105.31 47.9696 1105.37C49.2321 1105.91 50.4928 1106.04 51.8546 1105.8C53.3248 1105.53 54.619 1105 55.8266 1104.15C56.4401 1103.71 57.1605 1103.43 57.8477 1103.12C58.0189 1103.03 58.228 1103.02 58.4252 1103.01C59.3243 1102.95 59.446 1103.06 59.5768 1103.94C59.6366 1104.31 59.7228 1104.7 59.8765 1105.04C60.2715 1105.93 61.1069 1106.38 62.0615 1106.29C63.2351 1106.17 63.8703 1105.71 64.0607 1104.63C64.1906 1103.94 64.0997 1103.21 64.1263 1102.5C64.1355 1102.23 64.1114 1101.91 64.2284 1101.67C64.5063 1101.11 64.865 1101.03 65.3427 1101.44C66.5392 1102.47 67.7019 1103.53 68.8767 1104.58C69.87 1105.46 70.8948 1106.32 71.8252 1107.26C72.5409 1108 72.8105 1108.95 72.7506 1109.94Z" fill="#E8E8E8"/>
<path d="M35.9588 1105.95C35.5699 1106.08 35.3485 1106.35 35.284 1106.75C35.2499 1106.96 35.2464 1107.19 35.2685 1107.4C35.3798 1108.57 36.258 1109.27 37.3094 1109.06C37.9812 1108.93 38.3244 1108.61 38.4227 1108.05C38.6801 1106.55 37.4076 1105.46 35.9588 1105.95ZM37.1027 1108.03C36.7923 1108.08 36.5397 1107.89 36.495 1107.56C36.4481 1107.27 36.5856 1107.06 36.8325 1107.02C37.1248 1106.97 37.3899 1107.18 37.442 1107.5C37.498 1107.79 37.3678 1107.99 37.1027 1108.03Z" fill="#F0F0F0"/>
<path d="M39.6337 1102.08C38.6379 1102.63 38.5245 1104.29 39.4518 1104.95C39.9967 1105.34 40.5893 1105.39 41.1878 1105.12C41.648 1104.92 41.872 1104.52 41.8991 1104.03C41.9096 1103.84 41.8711 1103.64 41.8651 1103.46C41.8176 1103.26 41.7826 1103.08 41.7204 1102.9C41.4464 1102.16 40.3055 1101.71 39.6337 1102.08ZM41.0197 1103.52C41.0683 1103.82 41.1005 1104.13 40.7608 1104.22C40.5464 1104.28 40.2782 1104.26 40.0756 1104.18C40.0159 1104.17 40.0564 1103.84 40.0577 1103.65C40.0563 1103.59 40.0821 1103.53 40.1006 1103.48C40.1711 1103.26 40.2003 1102.97 40.5356 1103C40.8328 1103.03 40.9927 1103.23 41.0197 1103.52Z" fill="#F0F0F0"/>
<path d="M41.7219 1096.16C42.3296 1096.39 43.2399 1095.89 43.4112 1095.26C43.5675 1094.7 43.4077 1094.22 43.0172 1093.8C42.6501 1093.41 42.195 1093.39 41.7062 1093.54C40.7008 1093.64 40.628 1094.44 40.9181 1095.21C41.0802 1095.62 41.2968 1096.01 41.7219 1096.16ZM42.1143 1094.54C42.2376 1094.54 42.3546 1094.66 42.5369 1094.78C42.4161 1094.93 42.3062 1095.09 42.2954 1095.09C42.1473 1095 42.0229 1094.89 41.8895 1094.79C41.968 1094.7 42.0473 1094.53 42.1143 1094.54Z" fill="#F0F0F0"/>
<path d="M298.222 733.159C297.901 735.634 297.515 738.114 297.276 740.587C297.125 742.133 297.572 743.546 298.308 744.837C299.434 746.813 300.538 748.819 301.683 750.781C302.09 751.468 302.598 752.138 303.145 752.712C306.123 755.85 308.368 759.561 310.807 763.134C311.252 763.794 311.659 764.481 312.171 765.066C312.526 765.488 312.975 765.857 313.466 766.114C314.129 766.469 314.814 766.452 315.45 765.811C316.126 765.143 316.825 764.513 317.551 763.905C318.115 763.439 318.752 763.072 319.303 762.587C319.77 762.189 320.216 761.737 320.588 761.255C320.934 760.82 320.812 760.371 320.538 759.947C320.358 759.676 320.291 759.339 320.15 759.041C319.947 758.595 319.766 758.119 319.485 757.727C317.191 754.504 314.357 751.785 311.706 748.91C309.399 746.437 308.052 743.396 307.12 740.104C306.688 738.557 306.921 737.008 307.851 735.597C309.084 733.727 310.547 732.05 312.245 730.62C312.509 730.393 312.929 730.193 313.232 730.212C315.323 730.355 317.441 730.452 319.386 731.289C320.933 731.953 322.232 732.984 323.373 734.21C325.426 736.45 327.519 738.664 329.409 741.047C330.534 742.475 331.298 744.199 332.241 745.783C332.561 746.353 332.84 746.966 333.222 747.477C333.531 747.89 333.921 748.301 334.37 748.533C334.686 748.708 335.215 748.732 335.549 748.551C336.49 748.066 337.423 747.546 338.246 746.869C339.404 745.943 340.519 744.924 341.578 743.861C342.677 742.771 342.771 741.607 341.97 740.389C340.661 738.433 339.347 736.493 338.038 734.536C337.76 734.129 337.522 733.694 337.322 733.231C336.566 731.543 335.406 730.194 334.126 728.944C332.666 727.628 331.296 726.208 329.841 724.876C327.199 722.447 324.153 720.7 320.759 719.473C317.934 718.448 315.077 718.324 312.081 719.134C310.455 719.567 308.994 720.338 307.669 721.491C306.955 722.118 306.103 722.568 305.428 723.236C303.428 725.195 301.3 727.011 299.886 729.517C299.219 730.7 298.592 731.856 298.393 733.189C298.331 733.178 298.284 733.17 298.222 733.159ZM316.487 761.803C315.718 762.66 315.586 762.671 314.759 762.048C313.916 761.421 313.043 760.858 312.197 760.248C312.06 760.139 312.02 759.892 311.934 759.706C312.168 759.61 312.397 759.462 312.607 759.465C312.771 759.459 312.935 759.659 313.087 759.771C314.202 760.479 315.151 761.484 316.487 761.803C316.428 761.57 316.419 761.261 316.263 761.097C315.958 760.736 315.603 760.383 315.213 760.109C314.531 759.631 313.786 759.21 313.068 758.742C313.413 758.238 313.71 758.427 313.998 758.58C314.739 758.949 315.499 759.304 316.22 759.687C316.497 759.821 316.82 759.963 316.973 760.212C317.622 761.181 317.984 761.227 316.487 761.803ZM327.664 728.907C327.1 729.236 326.645 729.447 326.253 729.737C325.942 729.957 325.6 730.239 325.426 730.567C325.31 730.787 325.326 731.2 325.459 731.394C325.569 731.55 325.962 731.602 326.176 731.52C326.903 731.254 327.618 730.9 328.33 730.563C328.785 730.352 329.205 730.288 329.549 730.622C330.115 731.183 330.653 731.79 331.2 732.365C331.368 732.548 331.551 732.734 331.746 732.871C332.105 733.139 332.55 733.319 332.811 733.656C333.694 734.734 334.518 735.853 335.358 736.975C335.605 737.308 335.485 737.612 335.201 737.922C334.479 738.719 333.754 739.533 333.032 740.33C332.399 741.023 332.36 741.05 331.856 740.363C329.848 737.515 327.54 734.973 325.093 732.544C323.317 730.78 321.366 729.275 319.07 728.275C318.174 727.879 317.2 727.469 316.23 727.453C312.73 727.37 309.717 728.741 307.542 731.866C306.467 733.405 305.643 735.125 304.709 736.757C304.027 737.938 304.05 739.087 304.415 740.297C304.902 741.887 305.595 743.359 306.436 744.755C307.687 746.889 308.896 749.068 310.171 751.172C310.535 751.766 311.112 752.209 311.565 752.767C312.182 753.525 312.776 754.313 313.335 755.112C313.417 755.246 313.336 755.659 313.197 755.772C312.381 756.484 311.542 757.158 310.695 757.796C310.555 757.909 310.189 757.947 310.131 757.852C309.568 757.069 308.9 756.319 308.555 755.438C308.273 754.705 307.948 754.083 307.41 753.545C306.242 752.365 305.017 751.227 303.935 749.961C301.405 746.987 299.92 743.495 300.033 739.273C300.076 737.844 300.037 736.418 300.146 734.984C300.198 734.206 300.313 733.371 300.638 732.676C301.958 729.88 303.718 727.418 306.162 725.502C306.461 725.264 306.76 725.026 307.032 724.765C308.787 723.089 310.848 722.253 313.085 721.84C313.56 721.752 314.066 721.738 314.51 721.85C316.088 722.246 317.654 722.691 319.193 723.183C320.085 723.459 320.042 723.503 319.753 724.461C319.672 724.738 319.735 725.159 319.903 725.343C320.071 725.526 320.484 725.564 320.745 725.49C321.126 725.385 321.468 725.103 321.849 724.931C322.082 724.835 322.405 724.703 322.58 724.785C323.048 725.004 323.457 725.332 323.98 725.663C323.7 725.887 323.526 726.011 323.362 726.153C323.024 726.419 322.64 726.677 322.329 726.964C321.976 727.296 321.564 727.668 321.912 728.191C322.221 728.672 322.668 728.494 323.088 728.294C323.761 727.984 324.414 727.62 325.098 727.329C325.331 727.233 325.724 727.148 325.872 727.277C326.489 727.761 327.028 728.3 327.664 728.907ZM338.487 743.833C338.456 743.896 338.437 743.978 338.406 744.041C337.035 743.527 335.659 743.03 334.272 742.513C334.268 742.461 334.264 742.409 334.26 742.357C334.528 742.319 334.796 742.212 335.05 742.239C335.349 742.274 335.642 742.411 335.938 742.531C336.846 742.878 337.773 743.143 338.487 743.833ZM336.619 745.37C336.643 745.477 336.655 745.564 336.678 745.671C336.441 745.783 336.196 745.928 335.951 746.005C335.776 746.06 335.508 746.099 335.433 746C335.18 745.699 335.003 745.343 334.808 745.001C334.761 744.925 334.772 744.739 334.838 744.665C334.889 744.588 335.075 744.552 335.145 744.599C335.656 744.842 336.143 745.115 336.619 745.37Z" fill="#E8E8E8"/>
<path d="M326.723 769.905C327.361 769.631 327.837 769.416 328.341 769.223C328.935 768.994 329.261 768.576 329.33 767.919C329.407 767.298 329.094 766.943 328.605 766.785C327.228 766.346 325.827 765.939 324.442 765.533C323.795 765.348 323.132 765.159 322.466 765.058C322.166 765.005 321.768 765.093 321.485 765.254C321.009 765.539 320.952 766.146 321.402 766.402C322.156 766.836 322.954 767.154 323.763 767.492C324.15 767.667 324.564 767.793 325.14 768.002C324.814 768.208 324.649 768.355 324.464 768.445C323.944 768.705 323.397 768.943 322.89 769.223C322.422 769.474 322.187 769.926 322.196 770.456C322.206 770.987 322.475 771.317 322.937 771.452C324.858 772.023 326.78 772.594 328.729 773.117C329.857 773.423 331.021 773.648 332.168 773.87C332.373 773.906 332.744 773.866 332.806 773.737C332.92 773.528 332.942 773.144 332.835 772.966C332.602 772.625 332.301 772.29 331.942 772.138C330.343 771.448 328.713 770.823 327.103 770.184C327.016 770.133 326.952 770.051 326.723 769.905Z" fill="#E8E8E8"/>
<path d="M344.025 752.256C343.44 752.59 342.843 752.904 342.293 753.297C341.293 754.012 341.307 755.012 342.363 755.479C343.123 755.806 343.961 755.937 344.729 756.231C346.056 756.728 347.364 757.31 348.687 757.824C348.959 757.925 349.254 757.995 349.557 758.031C350.159 758.12 350.614 757.851 350.801 757.324C350.985 756.814 350.822 756.243 350.302 756.011C349.743 755.736 349.105 755.588 348.518 755.362C347.526 754.976 346.537 754.574 345.553 754.154C345.462 754.121 345.419 754.025 345.253 753.891C345.54 753.714 345.771 753.563 346.019 753.414C346.325 753.224 346.667 753.092 346.918 752.856C347.538 752.301 347.59 751.435 346.975 750.977C346.443 750.585 345.84 750.286 345.23 750.02C343.725 749.368 342.213 748.751 340.681 748.147C340.35 748.018 339.937 747.962 339.564 748.019C339.328 748.047 338.99 748.302 338.924 748.518C338.842 748.731 338.965 749.12 339.123 749.288C339.387 749.562 339.754 749.75 340.108 749.917C341.136 750.432 342.172 750.913 343.204 751.411C343.452 751.542 343.693 751.707 343.937 751.856C343.985 752.004 344.005 752.13 344.025 752.256Z" fill="#E8E8E8"/>
<path d="M135.087 1318.94C136.063 1319.64 136.962 1320.67 137.707 1321.6C138.131 1322.12 139.188 1323.18 139.188 1323.18C139.188 1323.18 140.241 1324.43 141.01 1325.14C141.642 1325.72 142.09 1325.94 142.719 1326.52C143.627 1327.36 144.048 1327.93 144.82 1328.89C145.383 1329.6 145.607 1330.07 146.193 1330.76C146.819 1331.49 147.245 1331.84 147.933 1332.51C148.568 1333.14 148.934 1333.48 149.578 1334.1C149.902 1334.41 150.102 1334.65 150.407 1334.89C150.633 1335.07 150.96 1335.28 151.148 1335.51C151.553 1336.02 153.67 1334.65 154.052 1334.27C154.824 1333.5 155.714 1332.92 156.501 1332.18C156.913 1331.79 157.407 1331.5 157.811 1331.1C158.076 1330.84 158.385 1330.62 158.665 1330.37C158.983 1330.09 159.122 1329.79 159.463 1329.46C159.997 1328.95 160.508 1328.7 160.994 1328.34C161.501 1327.95 161.807 1327.48 162.361 1326.97C163.287 1326.12 164.028 1325.41 164.867 1324.93C165.265 1324.71 165.916 1323.69 166.297 1323.69" stroke="#E8E8E8" stroke-width="1.5" stroke-linecap="round" stroke-linejoin="round"/>
<path d="M135.429 1319.05C136.606 1319.05 137.614 1319.73 138.783 1319.73C139.905 1319.73 141.027 1319.73 142.149 1319.73C143.304 1319.73 144.375 1319.89 145.51 1320.06C146.042 1320.14 146.58 1320.09 147.111 1320.21C147.793 1320.36 148.332 1320.52 149.047 1320.52C150.781 1320.52 152.549 1320.76 154.223 1321.23C155.157 1321.48 156.14 1321.57 157.071 1321.82C157.818 1322.03 158.618 1321.95 159.374 1322.19C160.606 1322.59 162.034 1322.47 163.222 1322.92C163.677 1323.1 164.33 1323.06 164.817 1323.13C165.226 1323.19 165.523 1323.35 165.956 1323.35" stroke="#E8E8E8" stroke-width="1.5" stroke-linecap="round" stroke-linejoin="round"/>
<path d="M135.201 1318.83C136.339 1318.83 137.516 1318.71 138.618 1318.71C140.171 1318.71 141.684 1318.37 143.237 1318.37C146.792 1318.37 150.353 1318.26 153.926 1318.26C156.598 1318.26 159.271 1318.26 161.943 1318.26C164.861 1318.26 167.711 1318.49 170.625 1318.49" stroke="#E8E8E8" stroke-width="1.5" stroke-linecap="round" stroke-linejoin="round"/>
<path d="M135.543 1318.83C137.985 1318.83 140.061 1318.13 142.32 1317.3C143.027 1317.05 144.181 1316.9 144.946 1316.9C145.809 1316.9 146.661 1316.45 147.528 1316.45C149.705 1316.45 151.824 1316 153.995 1316C155.57 1316 157.11 1315.49 158.665 1315.21C161.306 1314.73 164.013 1314.1 166.689 1313.96C167.419 1313.92 167.971 1313.65 168.803 1313.51C169.492 1313.39 170.575 1313.26 170.575 1313.26C170.575 1313.26 171.504 1313.09 171.904 1313.06L175.58 1312.43C176 1312.34 176.339 1312.37 176.663 1312.24C177.283 1311.99 178.021 1312.1 178.65 1311.92C179.194 1311.76 179.771 1311.54 180.308 1311.36" stroke="#E8E8E8" stroke-width="1.5" stroke-linecap="round" stroke-linejoin="round"/>
<path d="M170.967 1318.6C171.856 1318.25 173.594 1316.61 173.594 1316.61C173.594 1316.61 174.54 1315.84 174.954 1315.43C175.231 1315.16 175.683 1314.79 176.024 1314.64C176.435 1314.46 177.175 1313.95 177.175 1313.95C177.175 1313.95 178.05 1313.48 178.169 1313.28C178.535 1312.66 179.669 1311.91 180.308 1311.7" stroke="#E8E8E8" stroke-width="1.5" stroke-linecap="round" stroke-linejoin="round"/>
<path d="M171.081 1335.68C169.923 1335.29 168.922 1334.58 167.835 1334.1C166.933 1333.7 165.97 1332.96 164.987 1332.75C164.536 1332.65 164.135 1332.16 163.614 1332.07C163.092 1331.97 162.56 1331.68 162.082 1331.47C161.559 1331.24 160.877 1331.17 160.431 1330.82C160.155 1330.6 159.381 1330.43 159.235 1330.14" stroke="#E8E8E8" stroke-width="1.5" stroke-linecap="round" stroke-linejoin="round"/>
<path d="M171.195 1335.68C170.903 1334.2 171.081 1332.56 171.081 1331.04C171.081 1329.63 170.967 1328.23 170.967 1326.81C170.967 1324.27 170.625 1321.78 170.625 1319.28" stroke="#E8E8E8" stroke-width="1.5" stroke-linecap="round" stroke-linejoin="round"/>
<path d="M166.297 1323.69C166.748 1324.59 167.314 1325.48 167.753 1326.41C168.241 1327.43 168.492 1328.57 168.942 1329.57C169.123 1329.98 169.227 1330.38 169.398 1330.91C169.574 1331.44 169.828 1332.29 169.828 1332.29L170.514 1335.25" stroke="#E8E8E8" stroke-width="1.5" stroke-linecap="round" stroke-linejoin="round"/>
<path d="M160.785 1330.67C161.307 1330.48 161.388 1330.02 161.788 1329.71C161.935 1329.6 162.172 1329.41 162.256 1329.25" stroke="#E8E8E8" stroke-width="1.5" stroke-linecap="round" stroke-linejoin="round"/>
<path d="M162.835 1331.38C163.018 1330.94 163.431 1330.61 163.718 1330.24C163.83 1330.09 163.923 1329.94 164.054 1329.81C164.127 1329.73 164.267 1329.67 164.318 1329.58C164.477 1329.28 164.695 1329.03 164.837 1328.75" stroke="#E8E8E8" stroke-width="1.5" stroke-linecap="round" stroke-linejoin="round"/>
<path d="M164.64 1332.01C164.783 1331.62 165.229 1331.3 165.486 1330.97C165.549 1330.89 165.792 1330.5 165.818 1330.56" stroke="#E8E8E8" stroke-width="1.5" stroke-linecap="round" stroke-linejoin="round"/>
<path d="M166.288 1332.87C166.339 1332.77 166.799 1331.89 166.916 1332.01" stroke="#E8E8E8" stroke-width="1.5" stroke-linecap="round" stroke-linejoin="round"/>
<path d="M167.819 1333.77C167.948 1333.6 168.056 1333.44 168.172 1333.26" stroke="#E8E8E8" stroke-width="1.5" stroke-linecap="round" stroke-linejoin="round"/>
</svg>
