<svg width="255" height="582" viewBox="0 0 255 582" fill="none" xmlns="http://www.w3.org/2000/svg">
<path d="M151 10.5001L151.124 10.0158L151 10.5001ZM229 54.0001L228.679 54.3832L229 54.0001ZM252 126L251.512 125.891L252 126ZM238.5 155L238.9 155.3L238.5 155ZM197.5 183L197.682 183.466L197.5 183ZM151 199.5L150.82 199.034L151 199.5ZM89 226L88.8027 225.541L89 226ZM41.5 244L41.2188 243.587L41.5 244ZM5 286L4.53056 285.828L5 286ZM11 352.5L10.5445 352.706L11 352.5ZM34 380.5L34.3011 380.101L34 380.5ZM77 396L77.1757 395.532L77 396ZM120.5 413L120.302 413.459L120.5 413ZM171.5 437.5L171.159 437.866L171.5 437.5ZM197.5 479L197.975 478.843L197.5 479ZM197.5 543.5L197.929 543.757L197.5 543.5ZM140 574L139.856 573.521L140 574ZM82.5 10.5001L82.6227 10.9848L82.5 10.5001ZM88.9361 580.504C89.8084 580.392 90.6652 580.287 91.5076 580.189L91.6235 581.182C90.7849 581.28 89.9321 581.384 89.0639 581.496L88.9361 580.504ZM96.6471 579.647C98.4163 579.479 100.127 579.334 101.794 579.202L101.873 580.199C100.21 580.331 98.5043 580.475 96.7416 580.642L96.6471 579.647ZM106.939 578.816C108.681 578.689 110.387 578.564 112.079 578.428L112.159 579.425C110.463 579.561 108.753 579.686 107.012 579.813L106.939 578.816ZM117.204 577.965C118.895 577.791 120.589 577.592 122.308 577.354L122.446 578.344C120.713 578.584 119.007 578.785 117.307 578.959L117.204 577.965ZM127.378 576.541C129.012 576.242 130.683 575.899 132.406 575.501L132.631 576.476C130.893 576.877 129.207 577.223 127.558 577.525L127.378 576.541ZM137.383 574.236C138.194 574.01 139.018 573.773 139.856 573.521L140.144 574.479C139.299 574.732 138.468 574.972 137.65 575.199L137.383 574.236ZM139.856 573.521C140.629 573.289 141.398 573.064 142.161 572.843L142.439 573.804C141.678 574.024 140.913 574.248 140.144 574.479L139.856 573.521ZM146.787 571.548C148.353 571.122 149.899 570.71 151.423 570.306L151.679 571.272C150.156 571.676 148.613 572.087 147.05 572.513L146.787 571.548ZM156.056 569.073C157.62 568.653 159.158 568.233 160.671 567.802L160.945 568.764C159.426 569.196 157.882 569.618 156.315 570.039L156.056 569.073ZM165.249 566.434C166.787 565.949 168.295 565.442 169.771 564.903L170.114 565.842C168.621 566.387 167.1 566.899 165.55 567.388L165.249 566.434ZM174.195 563.141C175.658 562.503 177.086 561.819 178.478 561.077L178.948 561.96C177.531 562.715 176.079 563.41 174.595 564.057L174.195 563.141ZM182.56 558.656C183.869 557.793 185.142 556.86 186.378 555.847L187.012 556.62C185.748 557.656 184.447 558.609 183.11 559.491L182.56 558.656ZM189.875 552.652C190.957 551.553 192.006 550.373 193.021 549.104L193.802 549.729C192.766 551.025 191.694 552.23 190.588 553.354L189.875 552.652ZM195.809 545.258C196.236 544.607 196.657 543.936 197.071 543.244L197.929 543.757C197.508 544.461 197.08 545.144 196.644 545.807L195.809 545.258ZM197.071 543.244C197.483 542.554 197.877 541.867 198.252 541.184L199.129 541.665C198.747 542.36 198.347 543.057 197.929 543.757L197.071 543.244ZM200.373 536.937C201.037 535.46 201.62 533.993 202.127 532.533L203.071 532.861C202.555 534.35 201.961 535.844 201.285 537.347L200.373 536.937ZM203.471 527.994C203.851 526.442 204.152 524.894 204.378 523.348L205.367 523.492C205.137 525.07 204.83 526.649 204.442 528.232L203.471 527.994ZM204.845 518.634C204.928 517.058 204.942 515.479 204.892 513.894L205.891 513.862C205.942 515.474 205.928 517.081 205.843 518.687L204.845 518.634ZM204.563 509.16C204.398 507.601 204.18 506.032 203.913 504.45L204.899 504.284C205.169 505.884 205.391 507.473 205.558 509.055L204.563 509.16ZM203.002 499.781C202.665 498.252 202.291 496.709 201.885 495.15L202.852 494.897C203.262 496.468 203.639 498.023 203.978 499.566L203.002 499.781ZM200.612 490.551C200.174 489.046 199.711 487.523 199.229 485.98L200.183 485.682C200.667 487.229 201.132 488.759 201.573 490.272L200.612 490.551ZM197.771 481.428C197.526 480.676 197.277 479.919 197.025 479.157L197.975 478.843C198.227 479.606 198.476 480.365 198.722 481.118L197.771 481.428ZM197.025 479.157C196.761 478.359 196.498 477.576 196.233 476.807L197.179 476.482C197.445 477.254 197.71 478.041 197.975 478.843L197.025 479.157ZM194.555 472.155C193.953 470.569 193.341 469.044 192.711 467.572L193.63 467.179C194.266 468.665 194.884 470.202 195.49 471.801L194.555 472.155ZM190.654 463.088C189.918 461.592 189.151 460.145 188.343 458.734L189.211 458.237C190.029 459.667 190.806 461.133 191.551 462.647L190.654 463.088ZM185.755 454.542C184.854 453.188 183.902 451.856 182.889 450.534L183.683 449.926C184.709 451.265 185.674 452.615 186.587 453.988L185.755 454.542ZM179.774 446.714C178.727 445.504 177.621 444.292 176.448 443.067L177.17 442.375C178.354 443.612 179.472 444.836 180.53 446.059L179.774 446.714ZM172.958 439.57C172.373 439.007 171.774 438.439 171.159 437.866L171.841 437.134C172.46 437.711 173.063 438.283 173.652 438.85L172.958 439.57ZM171.159 437.866C170.572 437.318 169.987 436.79 169.404 436.28L170.062 435.527C170.653 436.045 171.246 436.58 171.841 437.134L171.159 437.866ZM165.748 433.292C164.46 432.312 163.177 431.41 161.896 430.574L162.442 429.737C163.744 430.585 165.046 431.501 166.354 432.497L165.748 433.292ZM157.855 428.145C156.459 427.372 155.059 426.663 153.649 426.001L154.074 425.095C155.502 425.766 156.922 426.486 158.339 427.27L157.855 428.145ZM149.316 424.112C147.86 423.521 146.388 422.962 144.894 422.419L145.236 421.48C146.738 422.025 148.222 422.589 149.692 423.185L149.316 424.112ZM140.418 420.848C138.942 420.343 137.446 419.839 135.917 419.319L136.239 418.373C137.764 418.891 139.265 419.396 140.742 419.902L140.418 420.848ZM131.417 417.766C129.955 417.25 128.464 416.71 126.942 416.135L127.296 415.2C128.809 415.772 130.293 416.309 131.749 416.823L131.417 417.766ZM122.504 414.386C121.777 414.087 121.044 413.779 120.302 413.459L120.698 412.541C121.434 412.858 122.163 413.164 122.884 413.461L122.504 414.386ZM120.302 413.459C119.573 413.145 118.856 412.838 118.152 412.538L118.545 411.618C119.25 411.919 119.967 412.226 120.698 412.541L120.302 413.459ZM113.854 410.724C112.371 410.106 110.937 409.515 109.54 408.946L109.917 408.02C111.317 408.59 112.753 409.182 114.239 409.802L113.854 410.724ZM105.212 407.206C103.744 406.624 102.302 406.059 100.867 405.504L101.229 404.571C102.666 405.128 104.11 405.693 105.58 406.277L105.212 407.206ZM96.5097 403.833C95.071 403.287 93.6211 402.741 92.1418 402.187L92.4927 401.25C93.973 401.805 95.4243 402.351 96.8647 402.898L96.5097 403.833ZM87.7686 400.553C86.354 400.026 84.8981 399.484 83.3919 398.923L83.7411 397.986C85.2486 398.548 86.7013 399.088 88.1177 399.616L87.7686 400.553ZM79.0165 397.29C78.299 397.021 77.5687 396.748 76.8243 396.468L77.1757 395.532C77.9198 395.811 78.6498 396.085 79.3669 396.353L79.0165 397.29ZM76.8243 396.468C76.0963 396.195 75.3772 395.936 74.6664 395.691L74.9925 394.746C75.7115 394.994 76.4391 395.255 77.1757 395.532L76.8243 396.468ZM70.3015 394.308C68.7935 393.869 67.3198 393.478 65.8736 393.117L66.1163 392.147C67.5718 392.511 69.058 392.905 70.5807 393.348L70.3015 394.308ZM61.4042 392.053C59.8876 391.704 58.3915 391.365 56.9152 391.016L57.1457 390.043C58.6178 390.391 60.1068 390.728 61.6284 391.078L61.4042 392.053ZM52.4342 389.88C50.9518 389.472 49.4775 389.026 48.0033 388.515L48.3305 387.57C49.7804 388.072 51.2336 388.513 52.6997 388.916L52.4342 389.88ZM43.6817 386.815C42.3053 386.202 40.9228 385.513 39.5274 384.728L40.018 383.856C41.3849 384.626 42.7393 385.301 44.0883 385.901L43.6817 386.815ZM35.5872 382.263C34.9615 381.831 34.3323 381.377 33.6989 380.899L34.3011 380.101C34.9234 380.57 35.5412 381.016 36.1552 381.44L35.5872 382.263ZM33.6989 380.899C33.0728 380.427 32.4632 379.96 31.8691 379.498L32.4831 378.709C33.073 379.168 33.6787 379.631 34.3011 380.101L33.6989 380.899ZM28.2853 376.6C27.0705 375.573 25.9263 374.554 24.8423 373.525L25.5306 372.8C26.5991 373.814 27.7288 374.82 28.9308 375.836L28.2853 376.6ZM21.6047 370.224C20.5628 369.077 19.5781 367.899 18.6373 366.671L19.4312 366.063C20.3546 367.269 21.3214 368.425 22.3449 369.551L21.6047 370.224ZM15.9787 362.884C15.1689 361.625 14.3865 360.306 13.6204 358.908L14.4973 358.428C15.2529 359.806 16.0234 361.105 16.8196 362.343L15.9787 362.884ZM11.5182 354.799C11.1928 354.12 10.8685 353.422 10.5445 352.706L11.4555 352.294C11.7768 353.004 12.098 353.694 12.4201 354.367L11.5182 354.799ZM10.5445 352.706C10.2063 351.959 9.87288 351.21 9.54462 350.459L10.4608 350.059C10.7873 350.805 11.1191 351.55 11.4555 352.294L10.5445 352.706ZM7.6373 345.924C7.02315 344.4 6.43448 342.868 5.87576 341.328L6.81583 340.987C7.37025 342.515 7.9547 344.036 8.56485 345.55L7.6373 345.924ZM4.28845 336.665C3.79109 335.098 3.32858 333.521 2.9055 331.935L3.87172 331.677C4.29056 333.247 4.74867 334.809 5.24162 336.363L4.28845 336.665ZM1.75766 327.139C1.41795 325.532 1.12228 323.915 0.875183 322.286L1.86388 322.136C2.10796 323.745 2.40015 325.343 2.73604 326.933L1.75766 327.139ZM0.286102 317.385C0.14209 315.754 0.049942 314.11 0.0140686 312.454L1.01384 312.433C1.04922 314.066 1.14011 315.687 1.28223 317.298L0.286102 317.385ZM0.0764313 307.518C0.153412 305.889 0.287292 304.249 0.48204 302.596L1.47517 302.713C1.28319 304.342 1.15121 305.959 1.07532 307.565L0.0764313 307.518ZM1.23108 297.713C1.53278 296.119 1.8929 294.512 2.31483 292.894L3.28249 293.146C2.86627 294.743 2.51111 296.327 2.21364 297.899L1.23108 297.713ZM3.7169 288.159C3.97357 287.385 4.24467 286.608 4.53056 285.828L5.46944 286.172C5.18712 286.942 4.91945 287.709 4.66608 288.473L3.7169 288.159ZM4.53056 285.828C4.80803 285.071 5.09045 284.329 5.37799 283.602L6.308 283.969C6.02359 284.689 5.74413 285.423 5.46944 286.172L4.53056 285.828ZM7.24785 279.224C7.93053 277.744 8.63982 276.327 9.37755 274.965L10.2569 275.441C9.52963 276.784 8.82988 278.182 8.15584 279.643L7.24785 279.224ZM11.7909 270.858C12.6576 269.497 13.5597 268.192 14.4995 266.933L15.3008 267.531C14.3758 268.77 13.4877 270.055 12.6344 271.395L11.7909 270.858ZM17.4906 263.221C18.5301 262.023 19.6108 260.864 20.7352 259.733L21.4444 260.438C20.3351 261.554 19.2698 262.697 18.2459 263.877L17.4906 263.221ZM24.191 256.46C25.3552 255.419 26.5616 254.394 27.8121 253.378L28.4429 254.154C27.2032 255.161 26.009 256.176 24.8577 257.205L24.191 256.46ZM31.5536 250.452C32.7885 249.52 34.0628 248.588 35.3782 247.648L35.9597 248.461C34.6502 249.397 33.3829 250.325 32.156 251.25L31.5536 250.452ZM39.2614 244.926C39.9047 244.483 40.5571 244.037 41.2188 243.587L41.7812 244.414C41.121 244.863 40.4702 245.308 39.8287 245.75L39.2614 244.926ZM41.2188 243.587C41.9434 243.094 42.6614 242.624 43.3734 242.176L43.9058 243.023C43.204 243.464 42.496 243.927 41.7812 244.414L41.2188 243.587ZM47.8223 239.607C49.3876 238.782 50.9295 238.049 52.4568 237.388L52.8539 238.306C51.3489 238.957 49.8301 239.679 48.2888 240.492L47.8223 239.607ZM57.2371 235.518C58.8668 234.942 60.4892 234.425 62.1147 233.94L62.4004 234.898C60.7869 235.38 59.1808 235.892 57.5704 236.461L57.2371 235.518ZM67.0362 232.551C68.6636 232.109 70.2939 231.676 71.9602 231.221L72.2238 232.186C70.5603 232.64 68.9145 233.077 67.2981 233.516L67.0362 232.551ZM76.8543 229.829C78.4343 229.355 80.0444 228.845 81.6933 228.278L82.0184 229.224C80.3547 229.796 78.7316 230.31 77.1413 230.786L76.8543 229.829ZM86.4528 226.514C87.2264 226.205 88.0095 225.881 88.8027 225.541L89.1973 226.46C88.396 226.804 87.605 227.131 86.8236 227.443L86.4528 226.514ZM88.8027 225.541C89.5552 225.218 90.2942 224.9 91.0204 224.586L91.4164 225.505C90.6897 225.818 89.9502 226.136 89.1973 226.46L88.8027 225.541ZM95.4429 222.671C96.9691 222.007 98.4372 221.366 99.8547 220.744L100.256 221.66C98.838 222.282 97.369 222.924 95.8417 223.588L95.4429 222.671ZM104.259 218.804C105.777 218.133 107.239 217.485 108.656 216.855L109.062 217.769C107.645 218.399 106.182 219.048 104.664 219.719L104.259 218.804ZM113.059 214.896C114.561 214.227 116.022 213.576 117.458 212.938L117.864 213.852C116.428 214.49 114.968 215.14 113.466 215.809L113.059 214.896ZM121.863 210.989C123.337 210.34 124.802 209.699 126.278 209.059L126.676 209.976C125.202 210.615 123.738 211.256 122.266 211.904L121.863 210.989ZM130.705 207.157C132.154 206.542 133.629 205.921 135.148 205.29L135.532 206.214C134.015 206.844 132.542 207.463 131.096 208.077L130.705 207.157ZM139.606 203.461C141.047 202.876 142.536 202.279 144.083 201.665L144.452 202.595C142.907 203.208 141.421 203.804 139.982 204.388L139.606 203.461ZM148.572 199.903C149.308 199.617 150.057 199.328 150.82 199.034L151.18 199.967C150.417 200.26 149.669 200.55 148.935 200.835L148.572 199.903ZM150.82 199.034C151.598 198.734 152.368 198.44 153.131 198.152L153.485 199.087C152.724 199.375 151.955 199.668 151.18 199.967L150.82 199.034ZM157.761 196.431C159.338 195.855 160.886 195.299 162.409 194.76L162.742 195.703C161.222 196.241 159.677 196.796 158.104 197.37L157.761 196.431ZM167.071 193.131C168.652 192.585 170.207 192.054 171.742 191.533L172.064 192.48C170.53 193.001 168.976 193.531 167.397 194.076L167.071 193.131ZM176.417 189.953C177.991 189.421 179.547 188.896 181.089 188.371L181.411 189.318C179.868 189.843 178.311 190.369 176.737 190.9L176.417 189.953ZM185.753 186.769C187.309 186.228 188.855 185.681 190.398 185.125L190.738 186.065C189.191 186.624 187.64 187.171 186.081 187.713L185.753 186.769ZM195.019 183.417C195.785 183.127 196.551 182.833 197.318 182.534L197.682 183.466C196.911 183.766 196.142 184.061 195.374 184.353L195.019 183.417ZM197.318 182.534C198.115 182.224 198.898 181.917 199.669 181.612L200.037 182.541C199.265 182.847 198.48 183.155 197.682 183.466L197.318 182.534ZM204.336 179.719C205.928 179.054 207.464 178.39 208.95 177.716L209.364 178.626C207.866 179.306 206.321 179.974 204.721 180.642L204.336 179.719ZM213.478 175.544C214.993 174.772 216.456 173.975 217.878 173.139L218.385 174C216.944 174.848 215.462 175.655 213.932 176.435L213.478 175.544ZM222.101 170.446C223.465 169.504 224.795 168.506 226.101 167.438L226.734 168.212C225.406 169.297 224.055 170.311 222.67 171.269L222.101 170.446ZM229.844 164.118C231.015 162.994 232.174 161.799 233.327 160.52L234.07 161.189C232.901 162.486 231.726 163.699 230.537 164.84L229.844 164.118ZM236.563 156.69C237.075 156.046 237.587 155.383 238.1 154.7L238.9 155.3C238.381 155.99 237.864 156.661 237.346 157.312L236.563 156.69ZM238.1 154.7C238.654 153.963 239.184 153.244 239.692 152.539L240.503 153.124C239.991 153.834 239.457 154.559 238.9 155.3L238.1 154.7ZM242.707 148.116C243.7 146.558 244.59 145.036 245.397 143.506L246.282 143.973C245.461 145.529 244.557 147.075 243.55 148.654L242.707 148.116ZM247.658 138.677C248.315 137.077 248.911 135.419 249.465 133.656L250.419 133.956C249.857 135.743 249.252 137.429 248.583 139.057L247.658 138.677ZM250.898 128.503C251.107 127.659 251.311 126.79 251.512 125.891L252.488 126.109C252.285 127.015 252.079 127.892 251.869 128.743L250.898 128.503ZM251.512 125.891C251.695 125.075 251.867 124.263 252.028 123.454L253.009 123.65C252.846 124.466 252.672 125.286 252.488 126.109L251.512 125.891ZM252.88 118.55C253.125 116.887 253.323 115.241 253.472 113.612L254.468 113.703C254.317 115.351 254.117 117.015 253.869 118.696L252.88 118.55ZM253.777 108.651C253.829 106.976 253.826 105.32 253.77 103.684L254.769 103.649C254.827 105.308 254.829 106.986 254.777 108.682L253.777 108.651ZM253.425 98.7309C253.25 97.073 253.016 95.4356 252.722 93.8189L253.706 93.6399C254.004 95.2816 254.242 96.9437 254.419 98.626L253.425 98.7309ZM251.645 88.9768C251.221 87.3752 250.736 85.795 250.186 84.2363L251.129 83.904C251.688 85.4882 252.181 87.094 252.611 88.7214L251.645 88.9768ZM248.35 79.6297C247.679 78.1274 246.945 76.6462 246.147 75.1863L247.025 74.7068C247.835 76.19 248.581 77.6951 249.263 79.222L248.35 79.6297ZM243.6 70.9297C242.706 69.5587 241.752 68.2077 240.736 66.8769L241.531 66.2702C242.561 67.6204 243.53 68.9915 244.438 70.3835L243.6 70.9297ZM237.587 63.0379C236.509 61.8123 235.375 60.605 234.186 59.416L234.892 58.7086C236.097 59.9124 237.245 61.1354 238.338 62.3775L237.587 63.0379ZM230.563 56.0086C229.948 55.4626 229.32 54.9208 228.679 54.3832L229.321 53.617C229.969 54.1605 230.605 54.7083 231.227 55.2605L230.563 56.0086ZM228.679 54.3832C228.052 53.8574 227.413 53.3251 226.762 52.787L227.399 52.0162C228.052 52.5559 228.693 53.0897 229.321 53.617L228.679 54.3832ZM222.889 49.6352C221.619 48.6178 220.311 47.5861 218.966 46.5444L219.578 45.7538C220.928 46.7989 222.24 47.8341 223.515 48.8547L222.889 49.6352ZM214.99 43.5211C213.677 42.541 212.333 41.5562 210.96 40.5703L211.543 39.7579C212.922 40.7476 214.271 41.7361 215.588 42.7197L214.99 43.5211ZM206.874 37.6971C205.519 36.7644 204.138 35.834 202.733 34.9087L203.282 34.0735C204.694 35.0026 206.08 35.937 207.441 36.8734L206.874 37.6971ZM198.535 32.2103C197.137 31.3335 195.718 30.4645 194.277 29.6058L194.789 28.7467C196.236 29.6094 197.663 30.4825 199.066 31.3632L198.535 32.2103ZM189.957 27.1018C188.517 26.2903 187.058 25.4913 185.58 24.7071L186.048 23.8237C187.534 24.612 189.001 25.4151 190.448 26.2306L189.957 27.1018ZM181.142 22.4276C179.659 21.6911 178.159 20.9712 176.642 20.2702L177.062 19.3625C178.587 20.0675 180.096 20.7915 181.587 21.532L181.142 22.4276ZM172.085 18.2446C170.561 17.5945 169.022 16.9649 167.468 16.3582L167.832 15.4267C169.396 16.0373 170.944 16.6707 172.477 17.3248L172.085 18.2446ZM162.793 14.6197C161.231 14.0678 159.655 13.5404 158.066 13.0395L158.366 12.0858C159.967 12.5902 161.553 13.1212 163.126 13.6768L162.793 14.6197ZM153.285 11.6258C152.485 11.4049 151.682 11.191 150.876 10.9844L151.124 10.0158C151.936 10.2239 152.745 10.4394 153.551 10.6619L153.285 11.6258ZM150.876 10.9844C150.067 10.7771 149.267 10.5763 148.476 10.3821L148.715 9.41094C149.509 9.60601 150.312 9.80762 151.124 10.0158L150.876 10.9844ZM143.659 9.2564C142.01 8.89219 140.398 8.55895 138.816 8.25658L139.003 7.27435C140.596 7.57864 142.217 7.91382 143.875 8.27994L143.659 9.2564ZM133.948 7.40972C132.293 7.15151 130.665 6.92951 129.059 6.74357L129.173 5.7502C130.794 5.93772 132.434 6.16153 134.102 6.42167L133.948 7.40972ZM124.145 6.28337C122.492 6.16601 120.853 6.08831 119.218 6.05013L119.242 5.05041C120.892 5.08896 122.548 5.16742 124.216 5.28588L124.145 6.28337ZM114.287 6.05488C112.652 6.09616 111.013 6.17684 109.36 6.29684L109.288 5.29946C110.956 5.17835 112.611 5.09688 114.261 5.0552L114.287 6.05488ZM104.447 6.76351C102.84 6.95106 101.213 7.17416 99.5574 7.43278L99.403 6.44476C101.071 6.18426 102.711 5.95938 104.331 5.77025L104.447 6.76351ZM94.6891 8.27869C93.1064 8.58007 91.4934 8.91157 89.8441 9.27316L89.6299 8.29636C91.2876 7.93294 92.9096 7.59957 94.502 7.29634L94.6891 8.27869ZM85.024 10.389C84.2326 10.5813 83.4324 10.7799 82.6227 10.9848L82.3773 10.0154C83.19 9.80971 83.9933 9.61033 84.7879 9.41727L85.024 10.389ZM82.6227 10.9848C81.8902 11.1702 81.1498 11.377 80.4029 11.6036L80.1126 10.6467C80.8734 10.4159 81.6287 10.2049 82.3773 10.0154L82.6227 10.9848ZM76.0358 13.1169C74.621 13.6639 73.1946 14.2668 71.7654 14.915L71.3524 14.0042C72.797 13.3491 74.2409 12.7387 75.6751 12.1842L76.0358 13.1169ZM67.5854 16.9296C66.2106 17.6295 64.8419 18.3614 63.4874 19.1153L63.001 18.2416C64.3653 17.4821 65.745 16.7444 67.1317 16.0385L67.5854 16.9296ZM59.4633 21.4406C58.118 22.2455 56.7961 23.0631 55.5065 23.8829L54.97 23.039C56.2667 22.2147 57.5962 21.3924 58.9498 20.5824L59.4633 21.4406ZM51.6119 26.4258C50.2808 27.3175 48.9992 28.1987 47.7786 29.0556L47.204 28.2371C48.4302 27.3764 49.7177 26.4911 51.0553 25.595L51.6119 26.4258ZM43.9953 31.7702C42.6274 32.7731 41.3791 33.7115 40.2737 34.557L39.6661 33.7627C40.7764 32.9135 42.0303 31.9709 43.4041 30.9638L43.9953 31.7702ZM36.6147 37.4201C36.0359 37.8843 35.587 38.2505 35.2831 38.5004C35.1312 38.6254 35.0156 38.7212 34.938 38.7857C34.8993 38.818 34.8701 38.8424 34.8506 38.8586C34.8409 38.8668 34.8336 38.8729 34.8288 38.8769C34.8264 38.8789 34.8246 38.8804 34.8234 38.8814C34.8229 38.8819 34.8224 38.8822 34.8222 38.8825C34.822 38.8826 34.8219 38.8827 34.8219 38.8827C34.8219 38.8827 34.8218 38.8828 34.8218 38.8828C34.8218 38.8828 34.8218 38.8828 34.8218 38.8828C34.8218 38.8828 34.8218 38.8828 34.5 38.5001C34.1782 38.1174 34.1782 38.1174 34.1782 38.1174C34.1782 38.1174 34.1782 38.1174 34.1782 38.1174C34.1783 38.1174 34.1783 38.1173 34.1784 38.1173C34.1785 38.1172 34.1786 38.1171 34.1788 38.1169C34.1791 38.1166 34.1796 38.1162 34.1803 38.1157C34.1816 38.1145 34.1836 38.1129 34.1862 38.1107C34.1913 38.1064 34.1989 38.1 34.209 38.0916C34.2291 38.0748 34.259 38.0498 34.2985 38.017C34.3774 37.9513 34.4945 37.8543 34.6479 37.7281C34.9548 37.4757 35.4068 37.1069 35.9891 36.6399L36.6147 37.4201Z" fill="#E8E8E8"/>
<path d="M172.929 10.9401C172.783 10.847 172.577 10.8225 172.39 10.7885C172.143 10.743 171.894 10.711 171.649 10.6966C169.475 10.5351 167.298 10.3782 165.12 10.2212C163.955 10.1385 162.781 10.0561 161.617 9.99559C161.013 9.96158 160.424 9.98933 159.816 9.93767C159.553 9.91054 159.235 9.80073 159.024 9.64746C158.286 9.11544 157.581 8.54681 156.86 7.99649C156.647 7.8344 156.595 7.65826 156.687 7.46416C156.73 7.38279 156.768 7.306 156.81 7.22464C157.15 6.56031 156.966 5.87276 156.228 5.31851C155.655 4.89237 155.007 4.65085 154.452 5.14427C154.27 5.30569 154.085 5.48051 153.94 5.66742C153.536 6.16933 153.156 6.68824 152.756 7.18558C152.416 7.6143 152.056 8.02145 151.729 8.45867C151.424 8.85962 151.15 9.2818 150.863 9.69549C150.857 9.69125 150.851 9.687 150.845 9.68275C150.667 9.88404 150.481 10.0723 150.321 10.2863C150.157 10.5049 150.006 10.732 149.877 10.9673C149.71 11.2571 149.696 11.5643 150.008 11.8832C150.587 12.4826 151.481 12.6806 152.149 12.3392C152.401 12.2111 152.642 12.0611 152.88 11.9157C153.018 11.8268 153.16 11.8223 153.322 11.9415C154.105 12.4899 154.901 13.0334 155.679 13.5863C156.068 13.8628 156.411 14.1808 156.617 14.5742C157.092 15.448 157.565 16.313 157.82 17.2339C158.003 17.877 158.273 18.5129 158.536 19.1446C158.984 20.2282 159.472 21.3105 159.915 22.3987C160.324 23.4036 160.931 24.3176 161.726 25.1767C162.346 25.8414 163.101 26.2307 164.009 26.4238C164.691 26.5709 165.267 26.4902 165.721 26.1334C166.611 25.4292 167.442 24.6914 167.969 23.7143C168.335 23.0314 168.853 22.4236 169.307 21.7867C170.103 20.6855 170.894 19.5889 171.702 18.4962C172.215 17.8041 172.747 17.1247 173.296 16.4581C173.543 16.1568 173.81 15.8549 174.139 15.6177C174.877 15.0739 175.188 14.3528 175.186 13.4816C175.183 13.0371 175.159 12.5267 174.741 12.1712C174.202 11.7172 173.547 11.3382 172.929 10.9401ZM159.488 17.7317C159.286 17.1202 159.091 16.5131 158.913 15.8964C158.884 15.7951 158.942 15.6733 159.003 15.5824C159.092 15.4373 159.077 15.3311 158.923 15.1805C158.757 15.0213 158.635 14.8341 158.491 14.6609C158.456 14.622 158.415 14.5789 158.368 14.5537C158.016 14.3916 157.96 14.1534 157.982 13.8815C157.996 13.7433 158.015 13.6093 157.998 13.472C157.968 13.2374 157.823 13.1443 157.556 13.1662C157.511 13.172 157.466 13.1779 157.425 13.1792C157.271 13.1975 157.114 13.2959 156.946 13.1279C156.782 12.9554 156.697 12.7714 156.759 12.5782C156.795 12.4704 156.843 12.3711 156.869 12.2636C156.92 12.0708 156.819 11.9051 156.595 11.8012C156.376 11.7015 156.201 11.7427 156.084 11.8975C156.053 11.943 156.027 11.9838 155.991 12.025C155.91 12.1387 155.798 12.2089 155.612 12.1171C155.432 12.0295 155.364 11.9161 155.414 11.759C155.478 11.5747 155.542 11.3904 155.596 11.2064C155.65 11.0224 155.644 10.827 155.377 10.7156C155.125 10.608 154.991 10.7368 154.878 10.8871C154.804 10.9828 154.735 11.0828 154.654 11.1743C154.565 11.275 154.449 11.2609 154.326 11.1537C154.071 10.9263 154.002 10.6129 154.2 10.4109C154.383 10.2273 154.598 10.0737 154.792 9.89858C154.881 9.82016 154.96 9.71984 155.012 9.61593C155.065 9.51201 155.086 9.38686 155.116 9.27478C155.231 8.83102 155.089 8.6222 154.532 8.45781C154.415 8.42153 154.244 8.45812 154.151 8.5189C154.015 8.6166 153.91 8.75776 153.813 8.88978C153.668 9.07669 153.569 9.28876 153.403 9.45411C152.861 10.0005 152.492 10.6746 151.86 11.166C151.635 11.3422 151.425 11.4111 151.027 11.3349C151.087 11.1997 151.115 11.0788 151.184 10.9788C151.317 10.8056 151.475 10.6494 151.614 10.4804C152.221 9.77202 152.822 9.05934 153.428 8.3509C153.469 8.30516 153.503 8.25516 153.537 8.20516C153.709 7.93297 153.909 7.69541 154.181 7.47778C154.517 7.20918 154.749 6.84614 155.016 6.52199C155.085 6.44422 155.141 6.35795 155.246 6.21679C155.296 6.33966 155.341 6.40044 155.337 6.44946C155.324 6.86773 155.323 7.29451 155.283 7.70919C155.258 7.97224 155.329 8.20556 155.591 8.40164C156.622 9.17321 157.656 9.9402 158.691 10.7072C158.772 10.7712 158.867 10.8216 158.942 10.8814C159.42 11.2706 159.929 11.4899 160.552 11.4121C160.796 11.3821 161.08 11.453 161.346 11.5112C161.978 11.6465 162.592 11.658 163.172 11.5282C163.304 11.5018 163.41 11.4273 163.538 11.3832C163.676 11.3387 163.827 11.2806 163.975 11.2802C164.293 11.279 164.611 11.3221 164.934 11.3385C165.115 11.346 165.189 11.397 165.155 11.5581C165.092 11.8535 165.045 12.1528 164.992 12.4479C164.955 12.6802 164.805 12.8495 164.565 12.9194C163.581 13.2043 163.135 13.8765 162.892 14.6888C162.794 15.012 162.729 15.343 162.635 15.6616C162.417 16.4466 161.868 16.9887 161.004 17.2831C160.552 17.4353 160.056 17.5268 159.717 17.831C159.622 17.9274 159.524 17.8372 159.488 17.7317ZM166.655 13.008C166.723 13.077 166.782 13.1551 166.846 13.2286C167.119 13.5577 167.151 13.7345 166.948 13.8966C166.711 14.0864 166.395 14.0743 166.059 13.8495C165.785 13.6671 165.762 13.5923 165.934 13.3867C166.045 13.2498 166.14 13.109 166.251 12.9721C166.364 12.844 166.511 12.8571 166.655 13.008ZM170.15 17.0834C170.136 17.2217 169.798 17.2014 169.601 17.0654C169.306 16.8615 169.175 16.4834 169.304 16.2259C169.407 16.0315 169.759 16.0247 169.94 16.2233C170.191 16.4998 170.184 16.7978 170.15 17.0834ZM173.572 12.6976C173.915 13.06 173.924 13.442 173.737 13.7991C173.719 13.8308 173.701 13.8625 173.672 13.8945C172.937 14.8605 172.208 15.8307 171.466 16.7923C171.373 16.9198 171.256 17.0302 171.139 17.1407C171.122 17.159 171.075 17.156 171.004 17.1805C170.952 16.9599 170.932 16.7472 170.843 16.5456C170.738 16.3178 170.62 16.0593 170.421 15.8923C169.798 15.3655 169.079 15.4286 168.732 15.9998C168.425 16.503 168.47 17.035 168.872 17.3866C169.204 17.6827 169.587 17.9105 170.048 18.0157C170.117 18.0268 170.187 18.0602 170.303 18.0965C170.209 18.2595 170.126 18.4089 170.031 18.5497C169.682 19.0676 169.333 19.5855 168.972 20.095C168.867 20.2361 168.684 20.3309 168.573 20.4678C168.405 20.691 168.266 20.9266 168.123 21.1668C167.484 22.2363 166.849 23.3012 166.21 24.3708C166.019 24.6881 165.692 24.8897 165.324 25.0481C165.19 25.1102 165.076 25.0606 164.965 24.9396C164.562 24.4991 164.149 24.5079 163.946 24.9501C163.926 24.9951 163.9 25.036 163.873 25.0768C163.841 25.069 163.806 25.0523 163.773 25.0445C163.801 24.9014 163.818 24.7586 163.858 24.6239C163.93 24.3416 163.869 24.1302 163.664 24.0256C163.444 23.9171 163.177 24.0056 163.008 24.2422C162.977 24.2876 162.953 24.3373 162.915 24.3697C162.842 24.4298 162.716 24.5494 162.688 24.537C162.557 24.4611 162.419 24.3588 162.358 24.2497C162.306 24.1625 162.338 24.037 162.366 23.9383C162.477 23.588 162.601 23.2462 162.713 22.8959C162.755 22.7478 162.778 22.5871 162.798 22.4309C162.817 22.2524 162.704 22.1227 162.506 22.0446C162.32 21.975 162.155 21.9936 162.058 22.1256C161.933 22.3119 161.82 22.5066 161.711 22.6968C161.671 22.7648 161.653 22.8409 161.625 22.9174C161.322 22.7448 161.254 22.5648 161.364 22.3168C161.561 21.8926 161.768 21.4681 161.965 21.044C162.013 20.9446 162.049 20.8368 162.085 20.729C162.149 20.5669 162.087 20.4133 161.899 20.3127C161.704 20.2078 161.511 20.214 161.398 20.3643C161.21 20.6103 161.044 20.8645 160.869 21.1191C160.826 21.1782 160.78 21.242 160.731 21.2969C160.693 21.2848 160.654 21.2727 160.615 21.2606C160.624 21.0825 160.598 20.8877 160.652 20.726C160.81 20.2675 161.003 19.8257 161.193 19.3751C161.319 19.0643 161.462 18.7575 160.983 18.4261C161.105 18.3778 161.178 18.3399 161.266 18.3193C162.023 18.1572 162.607 17.8318 163.071 17.3191C163.57 16.7652 163.882 16.1551 164.02 15.4395C164.087 15.0728 164.27 14.7425 164.42 14.4043C164.457 14.3187 164.538 14.2494 164.615 14.1847C164.965 13.889 165.065 13.8991 165.495 14.2187C165.682 14.355 165.882 14.4864 166.095 14.5818C166.641 14.8266 167.185 14.7602 167.543 14.4332C167.981 14.028 168.049 13.6479 167.663 13.1447C167.422 12.8234 167.07 12.5502 166.778 12.2529C166.663 12.1365 166.516 12.0123 166.464 11.8806C166.337 11.5646 166.453 11.4232 166.828 11.4467C167.772 11.5098 168.71 11.5909 169.652 11.6674C170.448 11.7308 171.243 11.772 172.038 11.8799C172.654 11.9668 173.174 12.2747 173.572 12.6976Z" fill="#FF719C"/>
<path d="M162.238 23.1713C162.097 23.3974 162.128 23.6313 162.318 23.8736C162.421 24.0033 162.548 24.1279 162.681 24.2345C163.404 24.8235 164.286 24.8535 164.747 24.3204C165.045 23.9831 165.053 23.6726 164.786 23.3264C164.076 22.409 162.758 22.3262 162.238 23.1713ZM164.051 23.8458C163.908 23.9966 163.662 23.9954 163.449 23.8337C163.257 23.6934 163.211 23.522 163.326 23.4032C163.461 23.2615 163.723 23.2666 163.934 23.4196C164.13 23.5553 164.174 23.7179 164.051 23.8458Z" fill="#FF719C"/>
<path d="M162.486 19.2548C162.249 19.9474 163.127 20.893 164.012 20.8834C164.53 20.8762 164.882 20.6664 165.062 20.285C165.201 19.9933 165.097 19.687 164.832 19.4078C164.73 19.3004 164.595 19.2073 164.491 19.1132C164.353 19.0247 164.231 18.94 164.097 18.869C163.527 18.5771 162.644 18.7856 162.486 19.2548ZM164.059 19.4803C164.257 19.6245 164.452 19.7821 164.318 19.9675C164.234 20.0851 164.073 20.1785 163.919 20.2186C163.877 20.2332 163.713 20.0392 163.607 19.9364C163.574 19.9065 163.554 19.8629 163.535 19.8281C163.449 19.6804 163.302 19.5125 163.504 19.3958C163.683 19.293 163.882 19.3355 164.059 19.4803Z" fill="#FF719C"/>
<path d="M161.128 14.8858C161.591 14.7645 161.809 14.1271 161.547 13.718C161.317 13.3524 160.951 13.1509 160.499 13.0809C160.073 13.0146 159.811 13.1872 159.626 13.464C159.131 13.9238 159.543 14.3857 160.143 14.6907C160.462 14.8449 160.805 14.9716 161.128 14.8858ZM160.418 13.8428C160.489 13.7961 160.622 13.8141 160.789 13.8043C160.81 13.9369 160.841 14.0691 160.831 14.0694C160.701 14.0824 160.571 14.0733 160.436 14.0687C160.434 13.9933 160.378 13.8663 160.418 13.8428Z" fill="#FF719C"/>
<path d="M127.34 216.023C126.626 216.279 125.925 216.572 125.196 216.782C123.335 217.316 121.46 217.818 119.59 218.329C119.178 218.44 118.767 218.546 118.353 218.653C118.101 218.718 117.875 218.815 117.741 219.07C117.648 219.249 117.472 219.229 117.279 219.179C117.012 219.109 116.742 219.045 116.479 219.036C116.054 219.018 115.662 218.863 115.28 218.591C114.525 218.049 113.973 217.298 113.533 216.472C112.672 214.853 112.004 213.176 111.675 211.418C111.578 210.893 111.566 210.364 111.533 209.837C111.514 209.574 111.615 209.361 111.791 209.231C112.083 209.017 112.384 208.8 112.715 208.645C114.329 207.868 116.065 207.39 117.805 206.9C119.02 206.557 120.186 206.092 121.366 205.668C121.727 205.539 122.052 205.339 122.413 205.21C123.354 204.882 124.308 204.576 125.255 204.251C125.587 204.137 125.892 204.302 126.162 204.558C126.709 205.076 127.251 205.613 127.537 206.36C127.593 206.506 127.667 206.525 127.773 206.477C127.919 206.409 128.065 206.341 128.217 206.287C128.486 206.19 128.744 206.258 128.993 206.516C129.475 207.016 129.982 207.482 130.349 208.102C130.767 208.807 131.017 209.53 130.99 210.302C130.979 210.669 130.958 211.034 130.911 211.387C130.888 211.567 130.809 211.735 130.73 211.888C130.697 211.952 130.612 211.998 130.539 212.013C130.262 212.071 129.975 212.107 129.701 212.174C129.646 212.189 129.592 212.296 129.593 212.369C129.609 212.969 129.632 213.572 129.662 214.173C129.668 214.269 129.706 214.375 129.751 214.468C129.94 214.861 129.865 215.152 129.514 215.283C128.795 215.547 128.073 215.801 127.352 216.06C127.352 216.049 127.346 216.036 127.34 216.023ZM126.917 215.024C126.911 215.011 126.905 214.997 126.901 214.988C127.413 214.804 127.923 214.616 128.438 214.436C128.637 214.37 128.712 214.229 128.684 213.985C128.627 213.503 128.589 213.025 128.545 212.543C128.449 211.489 128.277 210.442 127.882 209.407C127.341 208.01 126.586 206.763 125.539 205.694C125.379 205.528 125.239 205.48 125.051 205.542C124.584 205.699 124.108 205.824 123.637 205.972C123.424 206.038 123.218 206.118 123.015 206.206C122.763 206.312 122.524 206.45 122.268 206.547C121.528 206.823 120.777 207.082 120.035 207.354C119.842 207.423 119.835 207.488 119.995 207.684C120.275 208.024 120.563 208.351 120.839 208.692C121.879 209.967 122.62 211.39 123.029 212.958C123.27 213.882 123.342 214.81 123.389 215.731C123.402 216.001 123.479 216.067 123.695 216C124.775 215.669 125.846 215.346 126.917 215.024ZM113.633 214.643C113.776 214.928 113.94 215.294 114.133 215.645C114.495 216.313 114.88 216.973 115.448 217.479C115.634 217.645 115.853 217.774 116.068 217.883C116.254 217.977 116.367 217.885 116.37 217.671C116.374 217.509 116.366 217.351 116.357 217.189C116.335 216.797 116.348 216.415 116.16 216.016C115.474 214.536 114.72 213.092 113.777 211.746C113.426 211.245 113.037 210.778 112.655 210.304C112.597 210.232 112.48 210.217 112.392 210.176C112.372 210.261 112.329 210.343 112.338 210.434C112.348 210.596 112.384 210.759 112.412 210.925C112.627 212.18 113.134 213.371 113.633 214.643ZM117.946 212.286C117.948 212.29 117.948 212.29 117.95 212.295C117.786 212.353 117.623 212.412 117.456 212.472C117.437 212.479 117.418 212.486 117.399 212.492C117.195 212.576 117.086 212.781 117.162 213.023C117.221 213.22 117.304 213.428 117.424 213.593C117.511 213.712 117.695 213.842 117.813 213.841C118.101 213.837 118.388 213.791 118.65 213.707C119.124 213.557 119.585 213.376 120.04 213.192C120.268 213.1 120.493 212.993 120.692 212.854C120.762 212.803 120.813 212.64 120.785 212.536C120.695 212.159 120.446 211.86 120.154 211.643C119.927 211.476 119.727 211.651 119.526 211.713C119.448 211.736 119.378 211.777 119.302 211.804C118.852 211.96 118.397 212.124 117.946 212.286ZM129.749 211.017C129.96 211.009 130.013 210.829 129.993 210.572C129.973 210.315 129.993 210.059 129.944 209.807C129.881 209.493 129.826 209.145 129.668 208.875C129.377 208.389 129.013 207.949 128.673 207.491C128.522 207.286 128.362 207.333 128.213 207.413C128.054 207.501 128.154 207.641 128.211 207.771C128.245 207.847 128.274 207.924 128.317 207.992C128.843 208.865 129.092 209.807 129.323 210.756C129.401 211.095 129.43 211.121 129.749 211.017ZM118.385 211.372C118.409 211.378 118.434 211.385 118.459 211.392C118.486 211.294 118.522 211.203 118.534 211.1C118.607 210.545 118.666 209.986 118.754 209.436C118.785 209.264 118.88 209.1 118.989 208.978C119.14 208.81 119.358 208.898 119.443 209.152C119.494 209.31 119.521 209.482 119.513 209.635C119.501 210.028 119.457 210.422 119.441 210.816C119.438 210.89 119.499 211.039 119.535 211.052C119.623 211.072 119.718 211.048 119.794 211.011C119.838 210.99 119.852 210.902 119.87 210.843C119.918 210.681 119.952 210.519 120.002 210.361C120.108 210.012 120.127 210.005 120.495 210.054C120.528 210.058 120.556 210.043 120.623 210.034C120.537 209.899 120.467 209.779 120.386 209.674C120.249 209.49 120.106 209.313 119.963 209.136C119.657 208.759 119.354 208.376 119.037 208.002C118.799 207.72 118.662 207.738 118.605 208.059C118.544 208.402 118.483 208.745 118.457 209.097C118.404 209.769 118.374 210.443 118.338 211.114C118.337 211.192 118.368 211.284 118.385 211.372ZM116.099 213.675C116.123 213.681 116.152 213.687 116.177 213.693C116.196 213.536 116.227 213.385 116.227 213.224C116.237 212.324 116.238 211.422 116.252 210.521C116.259 209.933 116.29 209.351 116.3 208.762C116.301 208.694 116.246 208.559 116.204 208.543C116.026 208.477 115.795 208.69 115.793 208.898C115.773 210.128 115.771 211.367 115.73 212.6C115.714 213.015 115.885 213.337 116.099 213.675ZM117.666 208.241C117.624 208.214 117.579 208.173 117.537 208.168C117.263 208.121 117.031 208.334 117.034 208.633C117.045 209.682 117.057 210.734 117.067 211.783C117.066 211.85 117.067 211.923 117.083 211.989C117.093 212.043 117.134 212.095 117.161 212.148C117.205 212.127 117.281 212.12 117.294 212.08C117.338 211.939 117.372 211.787 117.389 211.636C117.48 210.567 117.563 209.501 117.651 208.438C117.656 208.379 117.661 208.32 117.666 208.241ZM121.769 212.245C121.653 213.385 121.541 214.456 121.43 215.528C121.654 215.328 121.792 215.009 121.837 214.63C121.859 214.441 121.932 214.326 122.103 214.275C122.169 214.257 122.25 214.15 122.238 214.082C122.14 213.485 122.041 212.888 121.769 212.245ZM120.752 213.786C120.731 213.768 120.704 213.747 120.683 213.728C120.6 213.799 120.488 213.845 120.438 213.941C120.207 214.386 120.242 214.939 120.193 215.459C120.186 215.524 120.359 215.638 120.447 215.73C120.486 215.659 120.547 215.596 120.561 215.518C120.628 215.018 120.686 214.509 120.743 214.007C120.752 213.937 120.749 213.86 120.752 213.786ZM114.152 210.617C114.179 210.607 114.211 210.601 114.237 210.591C114.229 210.211 114.23 209.832 114.213 209.449C114.212 209.408 114.066 209.295 114.028 209.308C113.817 209.379 113.62 209.47 113.423 209.572C113.391 209.589 113.379 209.723 113.408 209.759C113.65 210.051 113.905 210.332 114.152 210.617ZM120.732 210.223C120.721 210.429 120.722 210.584 120.705 210.735C120.67 211.007 120.679 211.258 120.965 211.45C121.013 211.48 121.06 211.546 121.081 211.606C121.193 211.902 121.393 211.898 121.595 211.888C121.578 211.598 121.065 210.585 120.732 210.223ZM116.912 215.466C117.083 215.777 117.186 215.802 117.342 215.565C117.377 215.516 117.411 215.452 117.408 215.386C117.393 215.039 117.377 214.692 117.335 214.345C117.329 214.28 117.211 214.192 117.137 214.152C117.114 214.139 117.025 214.228 117.013 214.29C116.959 214.558 116.914 214.828 116.887 215.107C116.869 215.217 116.899 215.346 116.912 215.466ZM118.848 216.128C119.282 216.087 119.3 216.059 119.295 215.626C119.291 215.425 119.312 215.231 119.323 215.035C119.33 214.882 119.344 214.732 119.344 214.582C119.342 214.536 119.307 214.487 119.285 214.437C119.24 214.454 119.179 214.455 119.151 214.491C119.113 214.535 119.095 214.604 119.084 214.67C119.007 215.087 118.934 215.502 118.861 215.917C118.846 215.974 118.852 216.039 118.848 216.128ZM118.252 214.575C118.205 214.556 118.153 214.538 118.105 214.519C118.108 214.596 118.126 214.677 118.113 214.749C118.065 215.01 118.001 215.266 117.957 215.526C117.941 215.62 117.961 215.726 117.96 215.825C118.055 215.781 118.163 215.747 118.242 215.677C118.284 215.642 118.29 215.546 118.288 215.469C118.291 215.235 118.288 214.998 118.279 214.757C118.281 214.7 118.263 214.639 118.252 214.575ZM114.807 211.563C114.843 211.576 114.88 211.589 114.914 211.597C114.932 211.466 114.947 211.331 114.961 211.202C114.925 211.189 114.894 211.179 114.858 211.166C114.84 211.297 114.823 211.428 114.807 211.563Z" fill="#009564"/>
<path d="M124.87 211.129C124.736 211.165 124.604 211.206 124.466 211.234C124.191 211.29 123.957 211.16 123.841 210.9C123.721 210.642 123.784 210.399 124.021 210.267C124.282 210.122 124.549 209.99 124.818 209.862C124.946 209.803 124.983 209.722 124.927 209.559C124.814 209.249 124.716 208.934 124.615 208.62C124.536 208.376 124.591 208.155 124.747 208.042C124.906 207.928 125.115 207.934 125.253 208.127C125.426 208.362 125.578 208.624 125.683 208.888C125.897 209.444 125.891 209.45 126.369 209.289C126.454 209.26 126.543 209.229 126.631 209.203C126.924 209.111 127.222 209.259 127.363 209.564C127.5 209.861 127.406 210.189 127.142 210.3C126.97 210.375 126.788 210.438 126.606 210.491C126.433 210.546 126.397 210.657 126.471 210.853C126.567 211.105 126.655 211.36 126.726 211.615C126.827 211.964 126.765 212.182 126.574 212.273C126.404 212.352 126.23 212.319 126.1 212.143C125.932 211.911 125.793 211.659 125.649 211.414C125.608 211.34 125.575 211.257 125.548 211.178C125.481 210.99 125.367 210.936 125.215 210.989C125.096 211.03 124.981 211.07 124.862 211.112C124.868 211.124 124.87 211.129 124.87 211.129Z" fill="#009564"/>
<path d="M160.501 431.272L157.86 430.623C157.552 430.55 157.243 430.623 157.037 430.839L155.014 432.751C154.465 433.292 153.539 432.895 153.47 432.102L153.265 429.252C153.23 428.927 153.059 428.639 152.819 428.494L150.452 427.051C149.801 426.655 149.869 425.645 150.555 425.32L153.059 424.238C153.333 424.13 153.539 423.841 153.608 423.552L154.156 420.775C154.328 419.981 155.254 419.729 155.734 420.342L157.483 422.506C157.689 422.759 157.963 422.867 158.272 422.831L160.982 422.542C161.736 422.47 162.251 423.336 161.873 424.021L160.467 426.438C160.296 426.727 160.296 427.051 160.398 427.34L161.496 429.937C161.873 430.659 161.256 431.452 160.501 431.272Z" fill="#FF7D5F"/>
</svg>
