<svg width="1142" height="338" viewBox="0 0 1142 338" fill="none" xmlns="http://www.w3.org/2000/svg">
<path d="M69.876 66.6707L67.8953 66.1712C67.6638 66.1158 67.4323 66.1713 67.278 66.3377L65.7603 67.8084C65.3488 68.2246 64.6542 67.9194 64.6028 67.3089L64.4485 65.1168C64.4227 64.8671 64.2941 64.6451 64.1141 64.5341L62.3392 63.4242C61.8504 63.1189 61.9019 62.342 62.4163 62.0922L64.2941 61.2598C64.4999 61.1766 64.6542 60.9546 64.7057 60.7326L65.1173 58.596C65.2459 57.9855 65.9404 57.7913 66.3005 58.263L67.6124 59.9279C67.7667 60.1221 67.9725 60.2054 68.204 60.1776L70.2362 59.9556C70.8021 59.9001 71.1879 60.5661 70.905 61.0933L69.8503 62.9524C69.7217 63.1744 69.7217 63.4242 69.7989 63.6462L70.622 65.644C70.905 66.199 70.4419 66.8095 69.876 66.6707Z" fill="#F1E66B"/>
<path d="M298.876 104.671L296.895 104.171C296.664 104.116 296.432 104.171 296.278 104.338L294.76 105.808C294.349 106.225 293.654 105.919 293.603 105.309L293.448 103.117C293.423 102.867 293.294 102.645 293.114 102.534L291.339 101.424C290.85 101.119 290.902 100.342 291.416 100.092L293.294 99.2598C293.5 99.1766 293.654 98.9546 293.706 98.7326L294.117 96.596C294.246 95.9855 294.94 95.7913 295.301 96.263L296.612 97.9279C296.767 98.1221 296.973 98.2054 297.204 98.1776L299.236 97.9556C299.802 97.9001 300.188 98.5661 299.905 99.0933L298.85 100.952C298.722 101.174 298.722 101.424 298.799 101.646L299.622 103.644C299.905 104.199 299.442 104.809 298.876 104.671Z" fill="#F1E66B"/>
<path d="M408.876 31.6707L406.895 31.1712C406.664 31.1158 406.432 31.1713 406.278 31.3377L404.76 32.8084C404.349 33.2246 403.654 32.9194 403.603 32.3089L403.448 30.1168C403.423 29.8671 403.294 29.6451 403.114 29.5341L401.339 28.4242C400.85 28.1189 400.902 27.342 401.416 27.0922L403.294 26.2598C403.5 26.1766 403.654 25.9546 403.706 25.7326L404.117 23.596C404.246 22.9855 404.94 22.7913 405.301 23.263L406.612 24.9279C406.767 25.1221 406.973 25.2054 407.204 25.1776L409.236 24.9556C409.802 24.9001 410.188 25.5661 409.905 26.0933L408.85 27.9524C408.722 28.1744 408.722 28.4242 408.799 28.6462L409.622 30.644C409.905 31.199 409.442 31.8095 408.876 31.6707Z" fill="#C6C6C6"/>
<path d="M501.876 223.671L499.895 223.171C499.664 223.116 499.432 223.171 499.278 223.338L497.76 224.808C497.349 225.225 496.654 224.919 496.603 224.309L496.448 222.117C496.423 221.867 496.294 221.645 496.114 221.534L494.339 220.424C493.85 220.119 493.902 219.342 494.416 219.092L496.294 218.26C496.5 218.177 496.654 217.955 496.706 217.733L497.117 215.596C497.246 214.985 497.94 214.791 498.301 215.263L499.612 216.928C499.767 217.122 499.973 217.205 500.204 217.178L502.236 216.956C502.802 216.9 503.188 217.566 502.905 218.093L501.85 219.952C501.722 220.174 501.722 220.424 501.799 220.646L502.622 222.644C502.905 223.199 502.442 223.809 501.876 223.671Z" fill="#C6C6C6"/>
<path d="M1005.88 197.671L1003.9 197.171C1003.66 197.116 1003.43 197.171 1003.28 197.338L1001.76 198.808C1001.35 199.225 1000.65 198.919 1000.6 198.309L1000.45 196.117C1000.42 195.867 1000.29 195.645 1000.11 195.534L998.339 194.424C997.85 194.119 997.902 193.342 998.416 193.092L1000.29 192.26C1000.5 192.177 1000.65 191.955 1000.71 191.733L1001.12 189.596C1001.25 188.985 1001.94 188.791 1002.3 189.263L1003.61 190.928C1003.77 191.122 1003.97 191.205 1004.2 191.178L1006.24 190.956C1006.8 190.9 1007.19 191.566 1006.9 192.093L1005.85 193.952C1005.72 194.174 1005.72 194.424 1005.8 194.646L1006.62 196.644C1006.9 197.199 1006.44 197.809 1005.88 197.671Z" fill="#C6C6C6"/>
<path d="M1090.88 88.6707L1088.9 88.1712C1088.66 88.1158 1088.43 88.1713 1088.28 88.3377L1086.76 89.8084C1086.35 90.2246 1085.65 89.9194 1085.6 89.3089L1085.45 87.1168C1085.42 86.8671 1085.29 86.6451 1085.11 86.5341L1083.34 85.4242C1082.85 85.1189 1082.9 84.342 1083.42 84.0922L1085.29 83.2598C1085.5 83.1766 1085.65 82.9546 1085.71 82.7326L1086.12 80.596C1086.25 79.9855 1086.94 79.7913 1087.3 80.263L1088.61 81.9279C1088.77 82.1221 1088.97 82.2054 1089.2 82.1776L1091.24 81.9556C1091.8 81.9001 1092.19 82.5661 1091.9 83.0933L1090.85 84.9524C1090.72 85.1744 1090.72 85.4242 1090.8 85.6462L1091.62 87.644C1091.9 88.199 1091.44 88.8095 1090.88 88.6707Z" fill="#F1E66B"/>
<path d="M709.876 249.671L707.895 249.171C707.664 249.116 707.432 249.171 707.278 249.338L705.76 250.808C705.349 251.225 704.654 250.919 704.603 250.309L704.448 248.117C704.423 247.867 704.294 247.645 704.114 247.534L702.339 246.424C701.85 246.119 701.902 245.342 702.416 245.092L704.294 244.26C704.5 244.177 704.654 243.955 704.706 243.733L705.117 241.596C705.246 240.985 705.94 240.791 706.301 241.263L707.612 242.928C707.767 243.122 707.973 243.205 708.204 243.178L710.236 242.956C710.802 242.9 711.188 243.566 710.905 244.093L709.85 245.952C709.722 246.174 709.722 246.424 709.799 246.646L710.622 248.644C710.905 249.199 710.442 249.809 709.876 249.671Z" fill="#F1E66B"/>
<path d="M841.876 66.6707L839.895 66.1712C839.664 66.1158 839.432 66.1713 839.278 66.3377L837.76 67.8084C837.349 68.2246 836.654 67.9194 836.603 67.3089L836.448 65.1168C836.423 64.8671 836.294 64.6451 836.114 64.5341L834.339 63.4242C833.85 63.1189 833.902 62.342 834.416 62.0922L836.294 61.2598C836.5 61.1766 836.654 60.9546 836.706 60.7326L837.117 58.596C837.246 57.9855 837.94 57.7913 838.301 58.263L839.612 59.9279C839.767 60.1221 839.973 60.2054 840.204 60.1776L842.236 59.9556C842.802 59.9001 843.188 60.5661 842.905 61.0933L841.85 62.9524C841.722 63.1744 841.722 63.4242 841.799 63.6462L842.622 65.644C842.905 66.199 842.442 66.8095 841.876 66.6707Z" fill="#F1E66B"/>
<path d="M138.876 178.671L136.895 178.171C136.664 178.116 136.432 178.171 136.278 178.338L134.76 179.808C134.349 180.225 133.654 179.919 133.603 179.309L133.448 177.117C133.423 176.867 133.294 176.645 133.114 176.534L131.339 175.424C130.85 175.119 130.902 174.342 131.416 174.092L133.294 173.26C133.5 173.177 133.654 172.955 133.706 172.733L134.117 170.596C134.246 169.985 134.94 169.791 135.301 170.263L136.612 171.928C136.767 172.122 136.973 172.205 137.204 172.178L139.236 171.956C139.802 171.9 140.188 172.566 139.905 173.093L138.85 174.952C138.722 175.174 138.722 175.424 138.799 175.646L139.622 177.644C139.905 178.199 139.442 178.809 138.876 178.671Z" fill="#C6C6C6"/>
</svg>
