<svg width="338" height="203" viewBox="0 0 338 203" fill="none" xmlns="http://www.w3.org/2000/svg">
<path d="M6.1258 47.0695L4.58527 46.7199C4.40521 46.681 4.22515 46.7199 4.10511 46.8364L2.9247 47.8659C2.60459 48.1572 2.06441 47.9436 2.02439 47.5163L1.90435 45.9818C1.88435 45.807 1.78431 45.6516 1.64426 45.5739L0.263791 44.7969C-0.11634 44.5833 -0.0763267 44.0394 0.32381 43.8646L1.78431 43.2819C1.94437 43.2236 2.06441 43.0682 2.10442 42.9128L2.42453 41.4172C2.52456 40.9898 3.06475 40.8539 3.34485 41.1841L4.3652 42.3495C4.48524 42.4855 4.64529 42.5438 4.82535 42.5243L6.4059 42.3689C6.84605 42.3301 7.14615 42.7963 6.92607 43.1653L6.10579 44.4667C6.00576 44.6221 6.00576 44.7969 6.06578 44.9523L6.706 46.3508C6.92607 46.7393 6.56595 47.1666 6.1258 47.0695Z" fill="#F1E66B"/>
<path d="M44.1258 202.07L42.5853 201.72C42.4052 201.681 42.2251 201.72 42.1051 201.836L40.9247 202.866C40.6046 203.157 40.0644 202.944 40.0244 202.516L39.9044 200.982C39.8843 200.807 39.7843 200.652 39.6443 200.574L38.2638 199.797C37.8837 199.583 37.9237 199.039 38.3238 198.865L39.7843 198.282C39.9444 198.224 40.0644 198.068 40.1044 197.913L40.4245 196.417C40.5246 195.99 41.0648 195.854 41.3448 196.184L42.3652 197.35C42.4852 197.485 42.6453 197.544 42.8254 197.524L44.4059 197.369C44.846 197.33 45.1461 197.796 44.9261 198.165L44.1058 199.467C44.0058 199.622 44.0058 199.797 44.0658 199.952L44.706 201.351C44.9261 201.739 44.566 202.167 44.1258 202.07Z" fill="#F1E66B"/>
<path d="M337.126 133.07L335.585 132.72C335.405 132.681 335.225 132.72 335.105 132.836L333.925 133.866C333.605 134.157 333.064 133.944 333.024 133.516L332.904 131.982C332.884 131.807 332.784 131.652 332.644 131.574L331.264 130.797C330.884 130.583 330.924 130.039 331.324 129.865L332.784 129.282C332.944 129.224 333.064 129.068 333.104 128.913L333.425 127.417C333.525 126.99 334.065 126.854 334.345 127.184L335.365 128.35C335.485 128.485 335.645 128.544 335.825 128.524L337.406 128.369C337.846 128.33 338.146 128.796 337.926 129.165L337.106 130.467C337.006 130.622 337.006 130.797 337.066 130.952L337.706 132.351C337.926 132.739 337.566 133.167 337.126 133.07Z" fill="#F1E66B"/>
<path d="M232.126 6.06951L230.585 5.71987C230.405 5.68103 230.225 5.71988 230.105 5.83642L228.925 6.86589C228.605 7.15724 228.064 6.94358 228.024 6.51625L227.904 4.98177C227.884 4.80696 227.784 4.65156 227.644 4.57387L226.264 3.79692C225.884 3.58325 225.924 3.03939 226.324 2.86457L227.784 2.28186C227.944 2.22359 228.064 2.06819 228.104 1.9128L228.425 0.417169C228.525 -0.0101556 229.065 -0.146122 229.345 0.184083L230.365 1.34951C230.485 1.48548 230.645 1.54375 230.825 1.52433L232.406 1.36894C232.846 1.33009 233.146 1.79626 232.926 2.16531L232.106 3.46671C232.006 3.6221 232.006 3.79692 232.066 3.95231L232.706 5.35082C232.926 5.7393 232.566 6.16663 232.126 6.06951Z" fill="#F1E66B"/>
<path d="M37.2507 112.202L35.9302 111.903C35.7759 111.869 35.6216 111.903 35.5187 112.003L34.5069 112.885C34.2325 113.135 33.7695 112.952 33.7352 112.585L33.6323 111.27C33.6152 111.12 33.5294 110.987 33.4094 110.92L32.2261 110.254C31.9003 110.071 31.9346 109.605 32.2776 109.455L33.5294 108.956C33.6666 108.906 33.7695 108.773 33.8038 108.64L34.0782 107.358C34.1639 106.991 34.6269 106.875 34.867 107.158L35.7416 108.157C35.8445 108.273 35.9817 108.323 36.136 108.307L37.4908 108.173C37.868 108.14 38.1253 108.54 37.9366 108.856L37.2335 109.971C37.1478 110.105 37.1478 110.254 37.1992 110.388L37.748 111.586C37.9366 111.919 37.628 112.286 37.2507 112.202Z" fill="#C6C6C6"/>
<path d="M327.251 16.2024L325.93 15.9027C325.776 15.8695 325.622 15.9028 325.519 16.0026L324.507 16.885C324.233 17.1348 323.769 16.9516 323.735 16.5854L323.632 15.2701C323.615 15.1202 323.529 14.9871 323.409 14.9205L322.226 14.2545C321.9 14.0714 321.935 13.6052 322.278 13.4553L323.529 12.9559C323.667 12.9059 323.769 12.7727 323.804 12.6395L324.078 11.3576C324.164 10.9913 324.627 10.8748 324.867 11.1578L325.742 12.1567C325.844 12.2733 325.982 12.3232 326.136 12.3066L327.491 12.1734C327.868 12.1401 328.125 12.5397 327.937 12.856L327.234 13.9715C327.148 14.1047 327.148 14.2545 327.199 14.3877L327.748 15.5864C327.937 15.9194 327.628 16.2857 327.251 16.2024Z" fill="#C6C6C6"/>
<path d="M67.2507 5.20243L65.9302 4.90275C65.7759 4.86945 65.6216 4.90275 65.5187 5.00264L64.5069 5.88504C64.2325 6.13478 63.7695 5.95164 63.7352 5.58536L63.6323 4.27009C63.6152 4.12025 63.5294 3.98706 63.4094 3.92046L62.2261 3.2545C61.9003 3.07136 61.9346 2.60519 62.2776 2.45535L63.5294 1.95588C63.6666 1.90593 63.7695 1.77274 63.8038 1.63955L64.0782 0.357573C64.1639 -0.0087048 64.6269 -0.125247 64.867 0.157786L65.7416 1.15673C65.8445 1.27327 65.9817 1.32321 66.136 1.30657L67.4908 1.17337C67.868 1.14008 68.1253 1.53965 67.9366 1.85598L67.2335 2.97147C67.1478 3.10466 67.1478 3.2545 67.1992 3.38769L67.748 4.58642C67.9366 4.9194 67.628 5.28568 67.2507 5.20243Z" fill="#C6C6C6"/>
<path d="M276.251 188.202L274.93 187.903C274.776 187.869 274.622 187.903 274.519 188.003L273.507 188.885C273.233 189.135 272.769 188.952 272.735 188.585L272.632 187.27C272.615 187.12 272.529 186.987 272.409 186.92L271.226 186.254C270.9 186.071 270.935 185.605 271.278 185.455L272.529 184.956C272.667 184.906 272.769 184.773 272.804 184.64L273.078 183.358C273.164 182.991 273.627 182.875 273.867 183.158L274.742 184.157C274.844 184.273 274.982 184.323 275.136 184.307L276.491 184.173C276.868 184.14 277.125 184.54 276.937 184.856L276.234 185.971C276.148 186.105 276.148 186.254 276.199 186.388L276.748 187.586C276.937 187.919 276.628 188.286 276.251 188.202Z" fill="#C6C6C6"/>
</svg>
