<svg width="1030" height="228" viewBox="0 0 1030 228" fill="none" xmlns="http://www.w3.org/2000/svg">
<path d="M7.87603 43.6707L5.89535 43.1712C5.66384 43.1158 5.43233 43.1713 5.27799 43.3377L3.76033 44.8084C3.34876 45.2246 2.65424 44.9194 2.60279 44.3089L2.44845 42.1168C2.42273 41.8671 2.29412 41.6451 2.11405 41.5341L0.33916 40.4242C-0.149579 40.1189 -0.0981343 39.342 0.416328 39.0922L2.29411 38.2598C2.4999 38.1766 2.65424 37.9546 2.70568 37.7326L3.11725 35.596C3.24587 34.9855 3.94039 34.7913 4.30052 35.263L5.61239 36.9279C5.76673 37.1221 5.97252 37.2054 6.20403 37.1776L8.23615 36.9556C8.80206 36.9001 9.18791 37.5661 8.90495 38.0933L7.85031 39.9524C7.72169 40.1744 7.72169 40.4242 7.79886 40.6462L8.622 42.644C8.90495 43.199 8.44194 43.8095 7.87603 43.6707Z" fill="#F1E66B"/>
<path d="M236.876 81.6707L234.895 81.1712C234.664 81.1158 234.432 81.1713 234.278 81.3377L232.76 82.8084C232.349 83.2246 231.654 82.9194 231.603 82.3089L231.448 80.1168C231.423 79.8671 231.294 79.6451 231.114 79.5341L229.339 78.4242C228.85 78.1189 228.902 77.342 229.416 77.0922L231.294 76.2598C231.5 76.1766 231.654 75.9546 231.706 75.7326L232.117 73.596C232.246 72.9855 232.94 72.7913 233.301 73.263L234.612 74.9279C234.767 75.1221 234.973 75.2054 235.204 75.1776L237.236 74.9556C237.802 74.9001 238.188 75.5661 237.905 76.0933L236.85 77.9524C236.722 78.1744 236.722 78.4242 236.799 78.6462L237.622 80.644C237.905 81.199 237.442 81.8095 236.876 81.6707Z" fill="#F1E66B"/>
<path d="M346.876 8.67072L344.895 8.17125C344.664 8.11575 344.432 8.17125 344.278 8.33774L342.76 9.80841C342.349 10.2246 341.654 9.9194 341.603 9.30893L341.448 7.11682C341.423 6.86708 341.294 6.64509 341.114 6.5341L339.339 5.42417C338.85 5.11893 338.902 4.34198 339.416 4.09225L341.294 3.2598C341.5 3.17655 341.654 2.95456 341.706 2.73258L342.117 0.595955C342.246 -0.014508 342.94 -0.208746 343.301 0.262976L344.612 1.92788C344.767 2.12211 344.973 2.20536 345.204 2.17761L347.236 1.95562C347.802 1.90013 348.188 2.56609 347.905 3.09331L346.85 4.95244C346.722 5.17443 346.722 5.42417 346.799 5.64615L347.622 7.64403C347.905 8.199 347.442 8.80947 346.876 8.67072Z" fill="#C6C6C6"/>
<path d="M439.876 200.671L437.895 200.171C437.664 200.116 437.432 200.171 437.278 200.338L435.76 201.808C435.349 202.225 434.654 201.919 434.603 201.309L434.448 199.117C434.423 198.867 434.294 198.645 434.114 198.534L432.339 197.424C431.85 197.119 431.902 196.342 432.416 196.092L434.294 195.26C434.5 195.177 434.654 194.955 434.706 194.733L435.117 192.596C435.246 191.985 435.94 191.791 436.301 192.263L437.612 193.928C437.767 194.122 437.973 194.205 438.204 194.178L440.236 193.956C440.802 193.9 441.188 194.566 440.905 195.093L439.85 196.952C439.722 197.174 439.722 197.424 439.799 197.646L440.622 199.644C440.905 200.199 440.442 200.809 439.876 200.671Z" fill="#C6C6C6"/>
<path d="M943.876 174.671L941.895 174.171C941.664 174.116 941.432 174.171 941.278 174.338L939.76 175.808C939.349 176.225 938.654 175.919 938.603 175.309L938.448 173.117C938.423 172.867 938.294 172.645 938.114 172.534L936.339 171.424C935.85 171.119 935.902 170.342 936.416 170.092L938.294 169.26C938.5 169.177 938.654 168.955 938.706 168.733L939.117 166.596C939.246 165.985 939.94 165.791 940.301 166.263L941.612 167.928C941.767 168.122 941.973 168.205 942.204 168.178L944.236 167.956C944.802 167.9 945.188 168.566 944.905 169.093L943.85 170.952C943.722 171.174 943.722 171.424 943.799 171.646L944.622 173.644C944.905 174.199 944.442 174.809 943.876 174.671Z" fill="#C6C6C6"/>
<path d="M1028.88 65.6707L1026.9 65.1712C1026.66 65.1158 1026.43 65.1713 1026.28 65.3377L1024.76 66.8084C1024.35 67.2246 1023.65 66.9194 1023.6 66.3089L1023.45 64.1168C1023.42 63.8671 1023.29 63.6451 1023.11 63.5341L1021.34 62.4242C1020.85 62.1189 1020.9 61.342 1021.42 61.0922L1023.29 60.2598C1023.5 60.1766 1023.65 59.9546 1023.71 59.7326L1024.12 57.596C1024.25 56.9855 1024.94 56.7913 1025.3 57.263L1026.61 58.9279C1026.77 59.1221 1026.97 59.2054 1027.2 59.1776L1029.24 58.9556C1029.8 58.9001 1030.19 59.5661 1029.9 60.0933L1028.85 61.9524C1028.72 62.1744 1028.72 62.4242 1028.8 62.6462L1029.62 64.644C1029.9 65.199 1029.44 65.8095 1028.88 65.6707Z" fill="#F1E66B"/>
<path d="M647.876 226.671L645.895 226.171C645.664 226.116 645.432 226.171 645.278 226.338L643.76 227.808C643.349 228.225 642.654 227.919 642.603 227.309L642.448 225.117C642.423 224.867 642.294 224.645 642.114 224.534L640.339 223.424C639.85 223.119 639.902 222.342 640.416 222.092L642.294 221.26C642.5 221.177 642.654 220.955 642.706 220.733L643.117 218.596C643.246 217.985 643.94 217.791 644.301 218.263L645.612 219.928C645.767 220.122 645.973 220.205 646.204 220.178L648.236 219.956C648.802 219.9 649.188 220.566 648.905 221.093L647.85 222.952C647.722 223.174 647.722 223.424 647.799 223.646L648.622 225.644C648.905 226.199 648.442 226.809 647.876 226.671Z" fill="#F1E66B"/>
<path d="M779.876 43.6707L777.895 43.1712C777.664 43.1158 777.432 43.1713 777.278 43.3377L775.76 44.8084C775.349 45.2246 774.654 44.9194 774.603 44.3089L774.448 42.1168C774.423 41.8671 774.294 41.6451 774.114 41.5341L772.339 40.4242C771.85 40.1189 771.902 39.342 772.416 39.0922L774.294 38.2598C774.5 38.1766 774.654 37.9546 774.706 37.7326L775.117 35.596C775.246 34.9855 775.94 34.7913 776.301 35.263L777.612 36.9279C777.767 37.1221 777.973 37.2054 778.204 37.1776L780.236 36.9556C780.802 36.9001 781.188 37.5661 780.905 38.0933L779.85 39.9524C779.722 40.1744 779.722 40.4242 779.799 40.6462L780.622 42.644C780.905 43.199 780.442 43.8095 779.876 43.6707Z" fill="#F1E66B"/>
<path d="M76.876 155.671L74.8953 155.171C74.6638 155.116 74.4323 155.171 74.278 155.338L72.7603 156.808C72.3488 157.225 71.6542 156.919 71.6028 156.309L71.4485 154.117C71.4227 153.867 71.2941 153.645 71.1141 153.534L69.3392 152.424C68.8504 152.119 68.9019 151.342 69.4163 151.092L71.2941 150.26C71.4999 150.177 71.6542 149.955 71.7057 149.733L72.1173 147.596C72.2459 146.985 72.9404 146.791 73.3005 147.263L74.6124 148.928C74.7667 149.122 74.9725 149.205 75.204 149.178L77.2362 148.956C77.8021 148.9 78.1879 149.566 77.905 150.093L76.8503 151.952C76.7217 152.174 76.7217 152.424 76.7989 152.646L77.622 154.644C77.905 155.199 77.4419 155.809 76.876 155.671Z" fill="#C6C6C6"/>
</svg>
