<svg width="338" height="756" viewBox="0 0 338 756" fill="none" xmlns="http://www.w3.org/2000/svg">
<path d="M12.4944 16.8667C12.3933 16.6604 12.1408 16.6604 12.0903 16.8667C11.4336 18.4658 10.9789 19.7038 10.3222 20.8386C10.1707 21.1481 9.71605 21.3028 9.31193 21.4576C9.05935 21.5608 8.70575 21.406 8.60472 21.1481C8.45317 20.7354 8.30163 20.3228 8.40266 19.9101C8.65523 18.8269 9.00884 17.7436 9.5645 16.8152C11.6356 13.3591 10.8779 10.0579 9.10987 6.39551C9.00884 6.24076 8.80678 6.18918 8.70575 6.39551C8.40266 6.91133 8.09957 7.27241 7.94802 7.73665C7.29133 9.23254 6.68515 10.7284 5.92742 12.1727C5.77588 12.4822 5.37176 12.5854 5.01815 12.7401C4.76558 12.8433 4.513 12.7401 4.36146 12.4822C4.1594 12.0696 3.95734 11.7085 4.00785 11.399C5.06867 8.04615 6.18 4.74487 7.34184 1.44359C7.84699 0.0508623 8.85729 -0.310216 10.1707 0.257191C12.949 1.49517 15.7273 2.68157 18.4551 3.97113C18.8088 4.12587 19.0108 4.64171 19.2129 5.10595C19.3139 5.36386 19.2129 5.62177 19.0108 5.72494C18.6572 5.93127 18.2531 6.13759 17.95 6.08601C16.5861 5.72493 15.2727 5.15753 13.9088 4.6417C12.949 4.28062 12.0397 3.7648 11.08 3.35214C10.8779 3.24897 10.6758 3.45531 10.7769 3.66164C11.7366 6.29234 12.5954 8.97463 13.6562 11.5538C13.8583 12.018 14.717 12.3275 15.3232 12.4822C16.5356 12.7401 17.849 12.7402 19.0613 13.1012C19.516 13.2044 19.8696 13.6171 20.2737 13.9781C20.5263 14.1845 20.4757 14.5971 20.1727 14.7519C19.7685 15.0098 19.3644 15.2677 18.9098 15.2677C17.7985 15.3193 16.6871 15.1645 15.5758 15.0614C15.3737 15.0614 15.2222 15.2161 15.1717 15.4224C14.9696 19.4975 16.6871 22.4892 20.0211 24.1399C21.1324 24.7073 22.3448 25.1715 23.4056 25.8421C23.7087 25.9968 23.8097 26.4095 23.9613 26.8222C24.0623 27.0801 23.9613 27.338 23.7087 27.4411C23.3046 27.6475 22.9005 27.8538 22.5974 27.7506C21.284 27.338 20.0211 26.7706 18.1521 26.0484C18.0005 25.9968 17.7985 26.1516 17.849 26.3063C18.6067 28.6791 19.2634 30.5361 19.6675 32.4447C19.7685 32.9605 19.5665 33.4763 19.4149 34.0437C19.3139 34.4048 18.8593 34.5079 18.6067 34.3016C18.2026 33.9921 17.7985 33.6311 17.6469 33.2184C16.9397 31.4646 16.384 29.6592 15.6263 27.3896C15.5758 27.1832 15.3232 27.1832 15.2222 27.338C14.3634 28.8855 13.8078 30.0203 13.1006 30.9488C12.8985 31.2583 12.3428 31.3098 11.8377 31.413C11.5851 31.4646 11.383 31.3098 11.3325 31.1035C11.2315 30.6908 11.1305 30.2782 11.2315 29.9171C11.5851 28.8855 12.0397 27.8022 12.6964 26.9253C15.2727 23.6756 14.0098 20.5291 12.4944 16.8667Z" fill="#E1E8E5"/>
<path d="M47.9545 458.603C48.102 459.672 47.9112 460.69 47.0784 461.555C46.532 462.119 45.8987 462.453 45.092 462.402C44.5889 462.376 44.0772 462.342 43.5827 462.376C41.2407 462.521 39.7053 460.391 40.0089 458.286C40.087 457.756 40.2605 457.234 40.4253 456.729C40.5207 456.438 40.512 456.207 40.2605 456.002C39.7921 455.626 39.341 455.215 38.8466 454.89C37.8404 454.231 36.7995 453.624 35.7759 452.982C35.4897 452.802 35.2121 452.725 34.9345 452.939C33.2604 454.222 31.3867 454.145 29.4437 453.769C28.0558 453.504 26.7634 453.085 25.7571 452.041C25.5576 451.835 25.3755 451.613 25.202 451.382C25.0198 451.134 24.803 451.065 24.5254 451.168C22.8513 451.767 21.1685 452.383 19.4943 452.982C19.104 453.119 18.8958 453.375 18.8524 453.803C18.6963 455.318 17.9503 456.584 16.9788 457.713C16.7273 458.013 16.2675 458.226 15.8685 458.295C14.9924 458.44 14.1163 458.295 13.2923 457.944C11.4707 457.166 10.6119 455.386 11.1671 453.435C11.5227 452.186 12.1646 451.1 13.4224 450.569C14.9577 449.919 16.3976 450.201 17.6381 451.296C18.0024 451.613 18.3146 451.673 18.7657 451.502C20.4832 450.843 22.2094 450.21 23.9442 449.594C24.3172 449.457 24.4387 449.269 24.3432 448.892C24.2565 448.55 24.2045 448.191 24.1437 447.849C24.0396 447.215 24.083 446.599 24.3693 446.018C25.6531 443.34 27.6742 441.654 30.7362 441.329C30.8663 441.312 30.9877 441.269 31.1178 441.261C31.5342 441.227 31.673 441.004 31.673 440.602C31.673 439.19 31.6903 437.787 31.7077 436.376C31.7077 436.042 31.6383 435.743 31.2653 435.708C29.7386 435.554 29.1141 434.468 28.7584 433.227C28.4375 432.098 28.5416 430.943 29.0707 429.856C29.5912 428.744 30.5106 428.222 31.6903 428.085C31.7077 428.085 31.7164 428.085 31.7337 428.085C32.6358 427.991 33.5553 427.837 34.336 428.505C35.3595 429.403 36.1489 430.43 36.4178 431.807C36.5739 432.594 36.4351 433.356 36.2617 434.083C36.0361 435.007 35.2815 435.477 34.3533 435.666C33.8068 435.777 33.7288 435.845 33.7548 436.393C33.8155 437.813 33.8676 439.233 33.9283 440.662C33.9543 441.278 34.0324 441.304 34.6656 441.321C35.2381 441.338 35.8279 441.363 36.3744 441.509C37.2679 441.74 37.7189 442.382 37.9098 443.28C38.3955 445.598 38.2394 447.831 37.1985 449.979C37.077 450.236 37.1464 450.441 37.3546 450.621C38.222 451.373 39.0721 452.143 39.9569 452.871C40.2345 453.102 40.5901 453.256 40.9111 453.452C41.2147 453.641 41.5529 453.803 41.7958 454.043C42.3163 454.573 42.9235 454.77 43.6695 454.736C44.7884 454.693 45.8467 454.933 46.7662 455.617C47.5295 456.182 48.0326 456.9 47.9632 457.901C47.9372 458.115 47.9545 458.329 47.9545 458.603ZM27.6915 449.286C27.7262 449.312 27.7609 449.337 27.7956 449.354C27.8563 449.32 27.917 449.294 27.9691 449.252C28.2987 448.935 28.611 448.601 28.9579 448.293C29.4264 447.874 29.9381 447.549 30.6061 447.549C30.9704 447.549 31.3173 447.6 31.4648 447.977C31.6209 448.379 31.4128 448.627 31.1178 448.927C30.4673 449.602 29.8861 450.347 29.3049 451.074C29.2442 451.151 29.3136 451.322 29.3223 451.442C29.435 451.399 29.5738 451.391 29.6519 451.322C29.8254 451.151 29.9555 450.946 30.1203 450.766C30.4673 450.398 30.8576 450.124 31.3954 450.159C31.8031 450.184 31.9506 450.449 31.7597 450.8C31.6383 451.023 31.5082 451.228 31.3347 451.519C31.5949 451.545 31.7684 451.587 31.9419 451.579C32.792 451.51 33.4339 451.074 33.937 450.432C35.0126 449.063 35.5851 447.515 35.6198 445.778C35.6458 444.734 35.1947 444.11 34.1538 443.862C33.1216 443.614 32.072 443.596 31.0311 443.853C30.2938 444.033 29.5998 444.307 29.2008 445.017C28.8799 445.59 28.9319 445.65 29.5131 445.864C29.7647 445.958 30.0249 446.189 30.155 446.428C30.3111 446.711 29.9989 446.865 29.8167 447.036C29.2008 447.618 28.585 448.191 27.9864 448.79C27.8563 448.935 27.7869 449.123 27.6915 449.286ZM44.294 456.644C43.9123 456.729 43.6261 456.738 43.3919 456.866C43.2011 456.969 42.9408 457.208 42.9495 457.371C43.0102 458.303 43.0536 459.253 43.7562 459.997C44.0251 460.28 44.32 460.34 44.641 460.143C45.2655 459.766 45.7773 459.279 46.0983 458.611C46.3932 457.995 46.237 457.388 45.6212 457.089C45.1875 456.875 44.6844 456.772 44.294 456.644ZM31.4648 432.868C31.4388 433.313 31.5862 433.604 31.9159 433.792C32.3149 434.014 32.7312 434.074 33.1476 433.818C33.7375 433.45 34.0757 432.902 34.2492 432.243C34.4834 431.345 33.8676 430.584 32.9307 430.635C32.7746 430.643 32.5751 430.712 32.471 430.815C31.8985 431.413 31.5515 432.115 31.4648 432.868ZM14.8363 454.197C14.8276 454.197 14.8189 454.197 14.8102 454.197C14.8102 454.479 14.8189 454.77 14.8102 455.052C14.7842 455.489 15.0011 455.805 15.296 456.096C15.5302 456.327 15.7384 456.327 15.9639 456.088C16.7793 455.249 17.0829 454.248 16.9181 453.11C16.866 452.734 16.5971 452.469 16.2328 452.357C15.9899 452.28 14.949 452.777 14.8883 452.965C14.8536 453.059 14.8449 453.162 14.8449 453.256C14.8363 453.572 14.8363 453.88 14.8363 454.197Z" fill="#E1E8E5"/>
<path d="M321.555 262.582C322.918 264.572 322.976 265.767 321.712 266.534C320.497 267.312 319.453 266.794 318.035 264.719C317.705 264.205 317.296 263.7 316.966 263.186C316.25 262.073 315.292 262.535 314.529 263.039C314.156 263.305 313.956 264.101 313.984 264.599C314.07 265.579 314.653 266.614 314.515 267.571C314.394 268.359 313.605 269.473 312.935 269.602C312.313 269.741 311.382 268.878 310.731 268.321C310.457 268.09 310.482 267.48 310.394 267.017C309.975 265.129 309.406 263.53 306.921 263.372C305.536 263.301 304.471 262.36 304.937 260.807C305.396 259.179 306.68 259.55 308.077 259.576C310.108 259.612 312.405 259.606 314.218 258.783C317.574 257.301 320.781 255.393 323.763 253.265C325.224 252.22 326.189 250.403 327.174 248.813C327.783 247.808 328.4 247.077 329.629 247.362C330.84 247.619 331.349 248.54 331.116 249.674C330.876 250.732 331.394 251.211 332.195 251.677C333.245 252.27 334.296 252.862 335.262 253.585C336.247 254.336 336.545 255.385 335.701 256.413C334.826 257.46 333.767 257.31 332.741 256.624C332.133 256.199 331.453 255.858 330.834 255.48C328.63 254.199 328.068 254.302 326.603 256.382C326.376 256.679 326.569 257.434 326.808 257.805C327.388 258.643 328.221 259.288 328.832 260.108C329.565 261.052 329.555 262.208 328.477 262.744C327.779 263.089 326.563 262.954 325.847 262.555C324.93 262.041 324.246 261.107 323.587 260.277C322.806 259.323 322.025 259.28 321.046 260.034C319.976 260.842 320.881 261.404 321.206 262.04C321.268 262.201 321.427 262.382 321.555 262.582Z" fill="#E1E8E5"/>
<path d="M49.5 153L49.8213 153.383L49.5 153ZM26.5 225L26.9879 224.891L26.5 225ZM40 254L39.6002 254.3L40 254ZM81 282L80.8185 282.466L81 282ZM127.5 298.5L127.68 298.033L127.5 298.5ZM189.5 325L189.697 324.541L189.5 325ZM237 343L237.281 342.587L237 343ZM273.5 385L273.969 384.828L273.5 385ZM267.5 451.5L267.956 451.706L267.5 451.5ZM244.5 479.5L244.199 479.101L244.5 479.5ZM201.5 495L201.324 494.532L201.5 495ZM158 512L158.198 512.459L158 512ZM107 536.5L107.341 536.866L107 536.5ZM81 578L80.5252 577.843L81 578ZM81 642.5L80.5708 642.757L81 642.5ZM138.5 673L138.644 672.521L138.5 673ZM189.5 680L189.436 680.496L189.5 680ZM120 120C119.838 119.527 119.838 119.527 119.838 119.527C119.838 119.527 119.838 119.527 119.838 119.527C119.838 119.527 119.838 119.527 119.838 119.527C119.838 119.527 119.837 119.527 119.837 119.527C119.837 119.527 119.836 119.528 119.835 119.528C119.834 119.528 119.831 119.529 119.828 119.53C119.821 119.533 119.812 119.536 119.799 119.54C119.773 119.549 119.735 119.562 119.685 119.58C119.584 119.615 119.434 119.666 119.238 119.735C118.846 119.871 118.27 120.073 117.529 120.336L117.864 121.278C118.602 121.016 119.177 120.815 119.567 120.679C119.762 120.611 119.911 120.56 120.011 120.525C120.061 120.508 120.099 120.495 120.124 120.486C120.137 120.482 120.146 120.478 120.153 120.476C120.156 120.475 120.158 120.474 120.16 120.474C120.161 120.474 120.161 120.473 120.162 120.473C120.162 120.473 120.162 120.473 120.162 120.473C120.162 120.473 120.162 120.473 120.162 120.473C120.162 120.473 120.162 120.473 120.162 120.473C120.162 120.473 120.162 120.473 120 120ZM112.942 121.989C111.575 122.488 110.04 123.056 108.368 123.684L108.719 124.62C110.389 123.993 111.921 123.427 113.285 122.928L112.942 121.989ZM103.796 125.422C102.336 125.984 100.81 126.578 99.2334 127.201L99.6008 128.131C101.175 127.51 102.698 126.916 104.155 126.355L103.796 125.422ZM94.6969 129.017C93.2164 129.618 91.706 130.238 90.1763 130.877L90.5614 131.8C92.0879 131.163 93.5952 130.543 95.0728 129.944L94.6969 129.017ZM85.6709 132.786C84.1831 133.426 82.6869 134.08 81.1916 134.746L81.5983 135.66C83.0896 134.996 84.582 134.343 86.0662 133.704L85.6709 132.786ZM76.7372 136.767C75.249 137.456 73.7706 138.154 72.3113 138.859L72.7465 139.76C74.2003 139.057 75.6735 138.361 77.1571 137.675L76.7372 136.767ZM67.9304 141.03C66.4477 141.785 64.9962 142.545 63.5867 143.308L64.0629 144.188C65.4641 143.429 66.908 142.673 68.3839 141.922L67.9304 141.03ZM59.3175 145.709C57.8561 146.564 56.4604 147.421 55.1453 148.275L55.6899 149.113C56.9903 148.269 58.3727 147.421 59.8228 146.572L59.3175 145.709ZM51.1072 151.087C50.428 151.599 49.784 152.109 49.1787 152.617L49.8213 153.383C50.4119 152.888 51.0423 152.388 51.7094 151.885L51.1072 151.087ZM49.1787 152.617C48.5307 153.16 47.8954 153.708 47.2729 154.26L47.9365 155.008C48.552 154.463 49.1802 153.921 49.8213 153.383L49.1787 152.617ZM43.6077 157.709C42.4029 158.912 41.2546 160.135 40.1622 161.377L40.9131 162.038C41.9909 160.812 43.1245 159.605 44.3145 158.416L43.6077 157.709ZM36.9691 165.27C35.9388 166.62 34.9701 167.991 34.0624 169.383L34.9 169.93C35.794 168.559 36.7484 167.208 37.764 165.877L36.9691 165.27ZM31.4754 173.707C30.6649 175.19 29.919 176.695 29.2373 178.222L30.1504 178.63C30.8212 177.127 31.5551 175.646 32.3529 174.186L31.4754 173.707ZM27.3705 182.904C26.8123 184.488 26.3185 186.094 25.8886 187.721L26.8554 187.977C27.2786 186.375 27.7644 184.795 28.3137 183.236L27.3705 182.904ZM24.7944 192.64C24.4957 194.282 24.258 195.944 24.0805 197.626L25.075 197.731C25.2499 196.073 25.4841 194.436 25.7783 192.819L24.7944 192.64ZM23.7309 202.649C23.6734 204.308 23.6711 205.986 23.7235 207.682L24.723 207.651C24.6713 205.976 24.6736 204.32 24.7303 202.683L23.7309 202.649ZM24.0325 212.703C24.1832 214.351 24.3828 216.015 24.6307 217.696L25.62 217.55C25.3747 215.887 25.1773 214.241 25.0283 212.612L24.0325 212.703ZM25.4913 222.65C25.6541 223.466 25.8277 224.286 26.0121 225.109L26.9879 224.891C26.8052 224.075 26.6332 223.263 26.472 222.454L25.4913 222.65ZM26.0121 225.109C26.2149 226.015 26.4207 226.892 26.6311 227.743L27.6019 227.503C27.3934 226.659 27.1892 225.79 26.9879 224.891L26.0121 225.109ZM28.0813 232.956C28.6428 234.743 29.2481 236.428 29.9175 238.057L30.8424 237.677C30.1848 236.077 29.589 234.419 29.0354 232.656L28.0813 232.956ZM32.2183 242.973C33.0393 244.529 33.9435 246.075 34.9502 247.654L35.7935 247.116C34.7999 245.558 33.9097 244.036 33.1028 242.506L32.2183 242.973ZM37.9965 252.123C38.5091 252.834 39.0432 253.559 39.6002 254.3L40.3997 253.7C39.8462 252.963 39.316 252.244 38.8077 251.539L37.9965 252.123ZM39.6002 254.3C40.1186 254.99 40.6363 255.661 41.1541 256.312L41.937 255.69C41.425 255.046 40.9128 254.383 40.3997 253.7L39.6002 254.3ZM44.4301 260.189C45.5988 261.485 46.7742 262.699 47.9634 263.84L48.6557 263.118C47.4846 261.994 46.3259 260.799 45.1729 259.519L44.4301 260.189ZM51.7662 267.212C53.0937 268.297 54.4453 269.311 55.8298 270.269L56.3986 269.446C55.0355 268.504 53.7053 267.505 52.3992 266.438L51.7662 267.212ZM60.1145 273C61.5559 273.848 63.0375 274.655 64.5677 275.434L65.0217 274.543C63.5075 273.772 62.0437 272.975 60.6215 272.138L60.1145 273ZM69.1364 277.626C70.6338 278.306 72.1792 278.974 73.7789 279.641L74.164 278.719C72.5719 278.054 71.036 277.39 69.5496 276.715L69.1364 277.626ZM78.463 281.541C79.2355 281.847 80.0205 282.155 80.8185 282.466L81.1815 281.534C80.3849 281.224 79.6016 280.917 78.8311 280.611L78.463 281.541ZM80.8185 282.466C81.5887 282.766 82.3578 283.061 83.1264 283.352L83.4807 282.417C82.7149 282.127 81.9487 281.833 81.1815 281.534L80.8185 282.466ZM87.7621 285.065C89.3094 285.624 90.8599 286.171 92.4188 286.713L92.7474 285.769C91.1914 285.228 89.6446 284.681 88.1015 284.125L87.7621 285.065ZM97.089 288.318C98.6324 288.843 100.189 289.369 101.763 289.9L102.083 288.953C100.509 288.421 98.9532 287.896 97.4111 287.371L97.089 288.318ZM106.436 291.48C107.97 292.001 109.524 292.531 111.103 293.076L111.429 292.131C109.848 291.585 108.293 291.054 106.758 290.533L106.436 291.48ZM115.758 294.703C117.278 295.241 118.823 295.795 120.396 296.37L120.739 295.431C119.162 294.855 117.614 294.299 116.091 293.76L115.758 294.703ZM125.015 298.087C125.776 298.375 126.545 298.668 127.32 298.967L127.68 298.033C126.902 297.734 126.132 297.44 125.369 297.152L125.015 298.087ZM127.32 298.967C128.083 299.26 128.831 299.55 129.565 299.835L129.928 298.903C129.192 298.617 128.443 298.327 127.68 298.033L127.32 298.967ZM134.048 301.595C135.593 302.208 137.079 302.804 138.518 303.387L138.894 302.461C137.453 301.876 135.964 301.279 134.417 300.665L134.048 301.595ZM142.968 305.214C144.485 305.843 145.958 306.463 147.404 307.077L147.795 306.157C146.346 305.541 144.871 304.921 143.352 304.29L142.968 305.214ZM151.824 308.976C153.298 309.615 154.762 310.256 156.234 310.904L156.637 309.988C155.163 309.34 153.698 308.699 152.222 308.058L151.824 308.976ZM160.636 312.852C162.072 313.49 163.532 314.14 165.034 314.809L165.441 313.895C163.939 313.227 162.478 312.576 161.042 311.938L160.636 312.852ZM169.438 316.769C170.855 317.399 172.318 318.047 173.836 318.719L174.241 317.804C172.723 317.133 171.261 316.485 169.844 315.855L169.438 316.769ZM178.244 320.659C179.662 321.282 181.131 321.924 182.658 322.588L183.057 321.671C181.531 321.007 180.063 320.365 178.645 319.744L178.244 320.659ZM187.084 324.505C187.81 324.818 188.55 325.136 189.303 325.459L189.697 324.541C188.945 324.217 188.206 323.899 187.48 323.586L187.084 324.505ZM189.303 325.459C190.104 325.804 190.895 326.131 191.676 326.443L192.047 325.514C191.274 325.205 190.491 324.881 189.697 324.541L189.303 325.459ZM196.482 328.224C198.145 328.796 199.768 329.31 201.359 329.786L201.646 328.828C200.066 328.355 198.456 327.845 196.807 327.278L196.482 328.224ZM206.276 331.186C207.94 331.64 209.585 332.077 211.202 332.516L211.464 331.551C209.836 331.109 208.206 330.676 206.54 330.221L206.276 331.186ZM216.1 333.898C217.713 334.379 219.319 334.892 220.93 335.461L221.263 334.518C219.633 333.942 218.011 333.425 216.385 332.94L216.1 333.898ZM225.646 337.306C227.151 337.957 228.67 338.679 230.211 339.492L230.678 338.607C229.112 337.782 227.57 337.049 226.043 336.388L225.646 337.306ZM234.594 342.023C235.296 342.464 236.004 342.927 236.719 343.413L237.281 342.587C236.557 342.094 235.839 341.624 235.127 341.176L234.594 342.023ZM236.719 343.413C237.379 343.863 238.03 344.308 238.671 344.75L239.239 343.926C238.595 343.483 237.943 343.037 237.281 342.587L236.719 343.413ZM242.54 347.461C243.85 348.397 245.117 349.324 246.344 350.25L246.946 349.452C245.712 348.52 244.437 347.588 243.122 346.648L242.54 347.461ZM250.057 353.153C251.297 354.161 252.491 355.175 253.642 356.205L254.309 355.46C253.145 354.419 251.938 353.394 250.688 352.377L250.057 353.153ZM257.056 359.438C258.165 360.554 259.23 361.697 260.254 362.877L261.009 362.221C259.97 361.023 258.889 359.864 257.765 358.733L257.056 359.438ZM263.199 366.531C264.124 367.77 265.012 369.055 265.866 370.395L266.709 369.858C265.842 368.497 264.94 367.192 264 365.933L263.199 366.531ZM268.243 374.441C268.97 375.784 269.67 377.182 270.344 378.643L271.252 378.224C270.569 376.744 269.86 375.327 269.122 373.965L268.243 374.441ZM272.192 382.969C272.476 383.689 272.756 384.423 273.031 385.172L273.969 384.828C273.692 384.071 273.41 383.329 273.122 382.602L272.192 382.969ZM273.031 385.172C273.313 385.942 273.581 386.709 273.834 387.473L274.783 387.158C274.526 386.384 274.255 385.608 273.969 384.828L273.031 385.172ZM275.218 392.146C275.634 393.743 275.989 395.327 276.286 396.899L277.269 396.713C276.967 395.119 276.607 393.512 276.185 391.894L275.218 392.146ZM277.025 401.713C277.217 403.342 277.349 404.959 277.425 406.565L278.424 406.517C278.347 404.889 278.213 403.249 278.018 401.596L277.025 401.713ZM277.486 411.433C277.451 413.066 277.36 414.687 277.218 416.297L278.214 416.385C278.358 414.753 278.45 413.11 278.486 411.454L277.486 411.433ZM276.636 421.136C276.392 422.745 276.1 424.343 275.764 425.933L276.742 426.139C277.082 424.532 277.378 422.914 277.625 421.286L276.636 421.136ZM274.628 430.677C274.209 432.247 273.751 433.809 273.258 435.362L274.212 435.665C274.709 434.098 275.171 432.521 275.595 430.935L274.628 430.677ZM271.684 439.987C271.13 441.515 270.545 443.036 269.935 444.55L270.863 444.924C271.477 443.4 272.066 441.868 272.624 440.328L271.684 439.987ZM268.039 449.059C267.713 449.805 267.381 450.55 267.044 451.294L267.956 451.706C268.294 450.959 268.627 450.21 268.955 449.459L268.039 449.059ZM267.044 451.294C266.723 452.004 266.402 452.694 266.08 453.367L266.982 453.799C267.307 453.119 267.632 452.422 267.956 451.706L267.044 451.294ZM264.003 457.428C263.247 458.806 262.477 460.105 261.68 461.342L262.521 461.884C263.331 460.625 264.113 459.306 264.88 457.908L264.003 457.428ZM259.069 465.063C258.145 466.269 257.179 467.424 256.155 468.551L256.895 469.224C257.937 468.077 258.922 466.899 259.863 465.671L259.069 465.063ZM252.969 471.799C251.901 472.813 250.771 473.82 249.569 474.836L250.215 475.6C251.429 474.573 252.574 473.554 253.658 472.525L252.969 471.799ZM246.017 477.709C245.427 478.168 244.821 478.631 244.199 479.101L244.801 479.899C245.427 479.427 246.037 478.96 246.631 478.498L246.017 477.709ZM244.199 479.101C243.577 479.57 242.959 480.016 242.345 480.44L242.913 481.263C243.538 480.831 244.168 480.377 244.801 479.899L244.199 479.101ZM238.482 482.856C237.115 483.626 235.761 484.301 234.412 484.901L234.818 485.815C236.195 485.202 237.577 484.513 238.973 483.728L238.482 482.856ZM230.169 486.57C228.72 487.072 227.266 487.512 225.8 487.916L226.066 488.88C227.548 488.472 229.023 488.025 230.497 487.515L230.169 486.57ZM221.354 489.043C219.882 489.391 218.393 489.728 216.872 490.078L217.096 491.052C218.612 490.704 220.108 490.365 221.585 490.016L221.354 489.043ZM212.384 491.146C210.928 491.511 209.442 491.905 207.919 492.348L208.199 493.308C209.707 492.869 211.18 492.478 212.626 492.117L212.384 491.146ZM203.508 493.746C202.788 493.994 202.061 494.255 201.324 494.532L201.676 495.468C202.404 495.195 203.123 494.936 203.834 494.691L203.508 493.746ZM201.324 494.532C200.58 494.811 199.85 495.085 199.133 495.353L199.484 496.29C200.201 496.021 200.931 495.748 201.676 495.468L201.324 494.532ZM194.759 496.986C193.251 497.548 191.799 498.088 190.382 498.616L190.731 499.553C192.146 499.026 193.602 498.484 195.108 497.923L194.759 496.986ZM186.007 500.25C184.527 500.805 183.076 501.351 181.635 501.898L181.99 502.833C183.429 502.287 184.879 501.741 186.358 501.186L186.007 500.25ZM177.271 503.571C175.834 504.128 174.39 504.693 172.92 505.277L173.288 506.206C174.756 505.624 176.198 505.059 177.633 504.504L177.271 503.571ZM168.583 507.02C167.183 507.59 165.747 508.182 164.261 508.801L164.646 509.724C166.129 509.106 167.563 508.515 168.96 507.946L168.583 507.02ZM159.955 510.618C159.25 510.919 158.533 511.226 157.802 511.541L158.198 512.459C158.927 512.145 159.644 511.838 160.348 511.538L159.955 510.618ZM157.802 511.541C157.066 511.858 156.337 512.164 155.616 512.461L155.996 513.386C156.723 513.087 157.456 512.778 158.198 512.459L157.802 511.541ZM151.204 514.199C149.691 514.772 148.207 515.309 146.751 515.823L147.083 516.766C148.545 516.25 150.036 515.71 151.558 515.135L151.204 514.199ZM142.261 517.372C140.736 517.891 139.235 518.396 137.758 518.902L138.082 519.848C139.558 519.343 141.054 518.839 142.583 518.319L142.261 517.372ZM133.264 520.479C131.762 521.025 130.278 521.589 128.808 522.185L129.184 523.112C130.64 522.521 132.112 521.962 133.606 521.419L133.264 520.479ZM124.426 524.095C122.998 524.766 121.578 525.486 120.161 526.27L120.645 527.145C122.041 526.372 123.441 525.663 124.851 525L124.426 524.095ZM116.058 528.736C114.756 529.585 113.454 530.501 112.146 531.497L112.752 532.292C114.04 531.312 115.323 530.41 116.604 529.574L116.058 528.736ZM108.438 534.527C107.847 535.044 107.254 535.58 106.659 536.134L107.341 536.866C107.928 536.318 108.513 535.79 109.096 535.28L108.438 534.527ZM106.659 536.134C106.04 536.711 105.437 537.283 104.848 537.85L105.542 538.57C106.127 538.007 106.726 537.439 107.341 536.866L106.659 536.134ZM101.33 541.375C100.146 542.612 99.0284 543.836 97.9702 545.059L98.7263 545.714C99.7728 544.504 100.879 543.292 102.052 542.066L101.33 541.375ZM94.817 548.926C93.7913 550.265 92.8265 551.615 91.9128 552.988L92.7453 553.542C93.6465 552.188 94.5984 550.856 95.611 549.534L94.817 548.926ZM89.2887 557.237C88.4706 558.667 87.6939 560.133 86.9487 561.647L87.8459 562.088C88.5824 560.592 89.3494 559.145 90.1566 557.734L89.2887 557.237ZM84.8701 566.179C84.234 567.665 83.6165 569.202 83.0099 570.8L83.9449 571.155C84.547 569.568 85.1593 568.044 85.7894 566.572L84.8701 566.179ZM81.3212 575.482C81.0553 576.254 80.7902 577.041 80.5252 577.843L81.4747 578.157C81.7386 577.358 82.0023 576.576 82.2668 575.807L81.3212 575.482ZM80.5252 577.843C80.2731 578.606 80.0238 579.364 79.7779 580.118L80.7286 580.428C80.974 579.676 81.2229 578.919 81.4747 578.157L80.5252 577.843ZM78.3168 584.682C77.8328 586.229 77.3681 587.759 76.9275 589.272L77.8876 589.551C78.3261 588.046 78.7888 586.523 79.2712 584.98L78.3168 584.682ZM75.6475 593.897C75.2382 595.468 74.861 597.023 74.5215 598.566L75.4982 598.781C75.8346 597.252 76.2087 595.709 76.6152 594.149L75.6475 593.897ZM73.6006 603.284C73.331 604.884 73.1094 606.473 72.9423 608.055L73.9368 608.16C74.1015 606.6 74.3202 605.032 74.5867 603.45L73.6006 603.284ZM72.6085 612.862C72.5578 614.474 72.5716 616.081 72.6569 617.687L73.6555 617.634C73.5718 616.058 73.5582 614.479 73.6081 612.894L72.6085 612.862ZM73.1326 622.492C73.3633 624.07 73.6697 625.649 74.0582 627.232L75.0294 626.994C74.6486 625.442 74.3483 623.894 74.1221 622.348L73.1326 622.492ZM75.4285 631.861C75.9454 633.349 76.5392 634.844 77.215 636.347L78.127 635.937C77.4631 634.46 76.8803 632.993 76.3731 631.533L75.4285 631.861ZM79.3711 640.665C79.7528 641.36 80.1525 642.057 80.5708 642.757L81.4291 642.243C81.017 641.554 80.6233 640.867 80.2475 640.183L79.3711 640.665ZM80.5708 642.757C80.9917 643.461 81.42 644.144 81.8556 644.807L82.6914 644.258C82.2637 643.607 81.8429 642.935 81.4291 642.243L80.5708 642.757ZM84.6977 648.729C85.7345 650.024 86.8064 651.23 87.9125 652.354L88.6252 651.652C87.5434 650.553 86.4942 649.373 85.4786 648.104L84.6977 648.729ZM91.4883 655.62C92.7519 656.656 94.0529 657.609 95.3897 658.491L95.9403 657.656C94.6311 656.793 93.3581 655.86 92.1224 654.847L91.4883 655.62ZM99.5519 660.96C100.969 661.715 102.421 662.41 103.905 663.057L104.305 662.14C102.842 661.503 101.414 660.819 100.022 660.077L99.5519 660.96ZM108.386 664.842C109.879 665.387 111.4 665.899 112.95 666.388L113.251 665.434C111.713 664.949 110.205 664.442 108.729 663.903L108.386 664.842ZM117.555 667.764C119.074 668.196 120.618 668.618 122.185 669.039L122.444 668.073C120.88 667.653 119.342 667.232 117.829 666.802L117.555 667.764ZM126.821 670.272C128.344 670.676 129.887 671.087 131.45 671.513L131.713 670.548C130.147 670.121 128.601 669.71 127.077 669.306L126.821 670.272ZM136.061 672.804C136.822 673.023 137.587 673.248 138.356 673.479L138.644 672.521C137.871 672.289 137.102 672.064 136.339 671.843L136.061 672.804ZM138.356 673.479C139.201 673.732 140.032 673.972 140.85 674.199L141.117 673.236C140.306 673.01 139.482 672.772 138.644 672.521L138.356 673.479ZM145.869 675.476C147.607 675.877 149.293 676.223 150.942 676.525L151.122 675.541C149.488 675.242 147.817 674.899 146.094 674.501L145.869 675.476ZM156.054 677.344C157.787 677.584 159.493 677.785 161.193 677.959L161.296 676.965C159.605 676.791 157.911 676.592 156.192 676.353L156.054 677.344ZM166.341 678.425C168.037 678.561 169.747 678.686 171.488 678.813L171.561 677.816C169.819 677.689 168.113 677.564 166.421 677.428L166.341 678.425ZM176.627 679.199C178.29 679.33 179.996 679.475 181.758 679.642L181.853 678.646C180.084 678.479 178.373 678.334 176.706 678.202L176.627 679.199ZM186.876 680.182C187.715 680.28 188.568 680.384 189.436 680.496L189.564 679.504C188.692 679.392 187.835 679.287 186.992 679.189L186.876 680.182ZM189.436 680.496C190.185 680.592 190.944 680.718 191.713 680.871L191.908 679.89C191.118 679.733 190.336 679.604 189.564 679.504L189.436 680.496ZM196.249 682.05C197.687 682.505 199.151 683.041 200.638 683.652L201.017 682.727C199.508 682.107 198.018 681.561 196.551 681.096L196.249 682.05ZM204.911 685.577C206.286 686.248 207.676 686.974 209.077 687.75L209.561 686.875C208.146 686.092 206.741 685.358 205.349 684.678L204.911 685.577ZM213.143 690.118C214.462 690.923 215.788 691.766 217.118 692.643L217.669 691.808C216.329 690.925 214.993 690.075 213.664 689.264L213.143 690.118ZM221.012 695.297C222.285 696.192 223.56 697.114 224.833 698.06L225.429 697.257C224.149 696.306 222.868 695.379 221.588 694.479L221.012 695.297ZM228.587 700.915C229.822 701.876 231.054 702.855 232.281 703.85L232.911 703.073C231.679 702.074 230.442 701.091 229.202 700.125L228.587 700.915ZM235.919 706.855C237.122 707.866 238.318 708.889 239.506 709.921L240.162 709.166C238.97 708.131 237.77 707.104 236.563 706.089L235.919 706.855ZM243.044 713.042C244.22 714.094 245.385 715.152 246.537 716.211L247.214 715.475C246.059 714.413 244.89 713.352 243.711 712.296L243.044 713.042ZM249.991 719.428C251.146 720.518 252.286 721.605 253.407 722.688L254.101 721.968C252.978 720.883 251.835 719.793 250.677 718.701L249.991 719.428ZM256.786 725.985C257.923 727.108 259.038 728.22 260.128 729.318L260.838 728.614C259.746 727.513 258.628 726.399 257.488 725.273L256.786 725.985ZM263.435 732.682C264.561 733.84 265.654 734.975 266.711 736.082L267.434 735.391C266.375 734.282 265.28 733.145 264.151 731.985L263.435 732.682ZM269.966 739.524C271.095 740.729 272.17 741.888 273.186 742.993L273.923 742.316C272.904 741.209 271.827 740.047 270.696 738.84L269.966 739.524ZM276.349 746.465C277.523 747.767 278.583 748.955 279.514 750.009L280.263 749.347C279.33 748.291 278.268 747.1 277.091 745.795L276.349 746.465ZM282.594 753.536C283.09 754.112 283.471 754.559 283.728 754.861C283.857 755.013 283.954 755.128 284.019 755.205C284.052 755.244 284.076 755.273 284.092 755.292C284.101 755.302 284.107 755.309 284.111 755.314C284.113 755.316 284.114 755.318 284.115 755.319C284.116 755.32 284.116 755.32 284.116 755.321C284.117 755.321 284.117 755.321 284.117 755.321C284.117 755.321 284.117 755.321 284.117 755.321C284.117 755.321 284.117 755.321 284.5 755C284.883 754.679 284.883 754.679 284.883 754.679C284.883 754.679 284.883 754.679 284.883 754.679C284.883 754.679 284.883 754.679 284.883 754.679C284.883 754.679 284.883 754.679 284.883 754.678C284.883 754.678 284.882 754.678 284.882 754.677C284.88 754.676 284.879 754.674 284.877 754.671C284.873 754.666 284.866 754.659 284.858 754.649C284.841 754.629 284.816 754.599 284.783 754.56C284.718 754.482 284.62 754.366 284.49 754.214C284.232 753.91 283.849 753.461 283.351 752.883L282.594 753.536Z" fill="#E8E8E8"/>
<ellipse cx="65" cy="358.5" rx="3" ry="2.5" fill="#E8E8E8"/>
<circle cx="83.5" cy="371.5" r="2.5" fill="#E8E8E8"/>
<circle cx="282" cy="491" r="4" fill="#E8E8E8"/>
<circle cx="306" cy="494" r="2" fill="#E8E8E8"/>
<ellipse cx="288.626" cy="143.5" rx="2.62628" ry="2.5" fill="#E8E8E8"/>
<ellipse cx="5.25257" cy="604" rx="5.25257" ry="5" fill="#E8E8E8"/>
<path d="M88.7146 281.788C88.4108 280.887 88.1309 279.974 87.797 279.086C87.589 278.53 87.1802 278.112 86.6846 277.78C85.9259 277.271 85.1707 276.749 84.407 276.248C84.1376 276.074 83.8332 275.921 83.5308 275.806C81.8814 275.181 80.4083 274.246 78.886 273.387C78.6068 273.228 78.3374 273.054 78.0461 272.93C77.8413 272.84 77.6105 272.781 77.3831 272.767C77.0748 272.746 76.8218 272.857 76.6936 273.175C76.5556 273.508 76.4024 273.832 76.2351 274.152C76.1044 274.399 75.9292 274.623 75.8062 274.874C75.7 275.082 75.6106 275.306 75.554 275.528C75.4995 275.731 75.6218 275.867 75.7966 275.971C75.9101 276.037 75.9928 276.143 76.0964 276.224C76.2488 276.347 76.3976 276.483 76.5697 276.575C77.9778 277.335 79.5014 277.838 80.9834 278.424C82.2684 278.923 83.2918 279.764 84.203 280.756C84.629 281.222 84.807 281.792 84.7007 282.419C84.5603 283.252 84.3006 284.053 83.9113 284.804C83.8515 284.923 83.7289 285.056 83.6123 285.096C82.8067 285.366 81.999 285.656 81.1296 285.665C80.438 285.673 79.7764 285.516 79.1409 285.268C77.9905 284.81 76.8303 284.367 75.7165 283.835C75.0519 283.515 74.4717 283.038 73.8486 282.637C73.6315 282.49 73.4227 282.321 73.1922 282.203C73.0062 282.108 72.7902 282.026 72.583 282.015C72.4351 282.003 72.2332 282.075 72.1393 282.189C71.8709 282.499 71.6116 282.821 71.4198 283.18C71.1458 283.676 70.9039 284.197 70.6899 284.725C70.466 285.268 70.6299 285.683 71.1375 285.98C71.9613 286.454 72.7836 286.921 73.6074 287.395C73.7808 287.493 73.9444 287.607 74.0981 287.735C74.6693 288.201 75.3333 288.489 76.0253 288.724C76.7955 288.954 77.5502 289.234 78.3218 289.47C79.7242 289.903 81.1605 290.04 82.638 289.944C83.8685 289.865 84.9571 289.472 85.9374 288.735C86.4705 288.338 86.8847 287.849 87.182 287.25C87.3416 286.924 87.5827 286.64 87.7206 286.306C88.1324 285.326 88.6166 284.376 88.7161 283.297C88.7626 282.787 88.7993 282.294 88.6455 281.804C88.6706 281.798 88.6895 281.794 88.7146 281.788ZM76.9923 274.713C77.1326 274.301 77.1802 274.277 77.5957 274.365C78.0176 274.452 78.4402 274.513 78.8607 274.594C78.9304 274.61 78.9873 274.689 79.0514 274.74C78.9806 274.809 78.9203 274.895 78.8413 274.926C78.7812 274.953 78.6858 274.909 78.6098 274.894C78.0721 274.82 77.546 274.619 76.9923 274.713C77.0541 274.785 77.1103 274.89 77.1967 274.922C77.3722 275 77.5653 275.068 77.7577 275.102C78.0946 275.163 78.4447 275.194 78.7927 275.245C78.7501 275.472 78.6071 275.452 78.4731 275.443C78.1334 275.429 77.7887 275.423 77.4538 275.401C77.3275 275.398 77.1824 275.398 77.0828 275.336C76.6748 275.101 76.5316 275.14 76.9923 274.713ZM78.4453 287.749C78.5995 287.55 78.7333 287.408 78.8302 287.248C78.9088 287.125 78.9882 286.976 78.9971 286.836C79.003 286.743 78.926 286.603 78.8432 286.556C78.7756 286.519 78.6199 286.561 78.554 286.622C78.3279 286.825 78.1212 287.056 77.9132 287.281C77.7794 287.423 77.6332 287.509 77.4479 287.447C77.1405 287.34 76.8353 287.213 76.5329 287.099C76.4389 287.061 76.3385 287.025 76.2423 287.008C76.0624 286.97 75.8656 286.976 75.7102 286.9C75.1961 286.664 74.6968 286.404 74.1911 286.146C74.0421 286.069 74.0348 285.946 74.0877 285.796C74.221 285.411 74.3529 285.02 74.4862 284.636C74.6039 284.3 74.6137 284.285 74.9195 284.444C76.157 285.119 77.4537 285.641 78.7834 286.104C79.7486 286.441 80.7345 286.661 81.7631 286.655C82.1657 286.654 82.5997 286.647 82.9645 286.504C84.2858 285.998 85.1768 285.065 85.4547 283.657C85.5926 282.963 85.6064 282.245 85.6759 281.54C85.7287 281.029 85.5236 280.637 85.1802 280.276C84.7263 279.803 84.2155 279.402 83.6628 279.049C82.8302 278.505 82.0061 277.94 81.1699 277.41C80.9325 277.261 80.6411 277.197 80.3764 277.074C80.0162 276.907 79.6596 276.726 79.3142 276.536C79.2606 276.503 79.22 276.348 79.253 276.288C79.4358 275.918 79.6338 275.558 79.841 275.209C79.874 275.149 80.004 275.079 80.0423 275.103C80.3863 275.287 80.764 275.443 81.0436 275.694C81.2745 275.903 81.5021 276.068 81.7955 276.171C82.4331 276.399 83.0855 276.604 83.7062 276.875C85.1602 277.512 86.3122 278.488 86.9921 279.959C87.2206 280.458 87.4791 280.943 87.6838 281.454C87.7972 281.73 87.8973 282.035 87.8949 282.324C87.8802 283.488 87.6438 284.605 87.0588 285.638C86.9878 285.766 86.9169 285.893 86.8599 286.025C86.4912 286.87 85.8645 287.473 85.0993 287.956C84.9371 288.059 84.7505 288.141 84.5655 288.171C83.9085 288.275 83.2473 288.361 82.5884 288.427C82.2079 288.468 82.2164 288.447 82.1605 288.072C82.1435 287.965 82.0477 287.829 81.9536 287.792C81.8595 287.754 81.6989 287.804 81.6142 287.869C81.4897 287.964 81.4103 288.113 81.2975 288.231C81.2268 288.299 81.1287 288.394 81.0492 288.393C80.8371 288.389 80.6279 288.338 80.3762 288.304C80.4422 288.184 80.4864 288.115 80.5229 288.041C80.6037 287.898 80.7033 287.75 80.7701 287.604C80.8454 287.436 80.9354 287.244 80.7161 287.118C80.5183 286.999 80.3818 287.129 80.2592 287.262C80.061 287.471 79.8794 287.696 79.6735 287.901C79.6028 287.97 79.4706 288.059 79.3932 288.037C79.0802 287.965 78.7868 287.861 78.4453 287.749ZM71.8492 284.262C71.85 284.236 71.8431 284.205 71.8439 284.178C72.4441 284.146 73.043 284.107 73.6495 284.073C73.6599 284.09 73.6703 284.107 73.6807 284.125C73.587 284.179 73.505 284.257 73.4059 284.286C73.2878 284.32 73.1552 284.317 73.024 284.321C72.6255 284.34 72.2339 284.391 71.8492 284.262ZM72.2841 283.448C72.257 283.415 72.2375 283.386 72.2104 283.353C72.2798 283.278 72.3464 283.191 72.4248 283.127C72.4808 283.081 72.5745 283.027 72.619 283.05C72.7653 283.114 72.892 283.21 73.0236 283.298C73.0542 283.317 73.0819 283.383 73.0699 283.419C73.0642 283.453 73.0005 283.493 72.9663 283.488C72.734 283.482 72.5052 283.463 72.2841 283.448Z" fill="#009DAF"/>
<path d="M72.0513 273.206C71.8613 273.394 71.7211 273.538 71.567 273.678C71.3855 273.845 71.3345 274.034 71.4183 274.264C71.493 274.484 71.6673 274.555 71.8742 274.534C72.4556 274.473 73.0405 274.399 73.6191 274.325C73.8889 274.29 74.1649 274.253 74.4278 274.186C74.5473 274.159 74.6797 274.069 74.7575 273.972C74.8859 273.805 74.8063 273.593 74.5975 273.576C74.247 273.544 73.8998 273.558 73.5449 273.567C73.373 273.567 73.199 273.587 72.9517 273.604C73.038 273.486 73.0746 273.412 73.1279 273.354C73.2765 273.188 73.4392 273.026 73.5801 272.856C73.7113 272.701 73.7231 272.515 73.6315 272.339C73.5399 272.162 73.3858 272.093 73.1929 272.117C72.3886 272.216 71.5842 272.315 70.7777 272.434C70.3102 272.501 69.8432 272.602 69.3825 272.701C69.3007 272.72 69.1706 272.789 69.169 272.842C69.1617 272.929 69.2171 273.061 69.2861 273.104C69.4291 273.183 69.5958 273.25 69.7537 273.246C70.4585 273.236 71.1642 273.199 71.8649 273.17C71.9054 273.174 71.9423 273.192 72.0513 273.206Z" fill="#009DAF"/>
<path d="M68.7646 282.38C68.9252 282.179 69.0935 281.983 69.2311 281.768C69.4818 281.375 69.3091 281.041 68.8405 281.043C68.5045 281.048 68.1725 281.13 67.8393 281.148C67.2651 281.181 66.6841 281.182 66.1085 281.209C65.9911 281.216 65.8702 281.237 65.7521 281.271C65.5144 281.332 65.3909 281.492 65.4098 281.698C65.4272 281.897 65.5831 282.065 65.8143 282.065C66.0671 282.072 66.3277 282.026 66.5827 282.013C67.0144 281.993 67.4474 281.979 67.8818 281.972C67.921 281.969 67.953 281.995 68.0367 282.015C67.9602 282.118 67.8999 282.204 67.8332 282.292C67.7518 282.402 67.6474 282.498 67.5939 282.616C67.4575 282.896 67.5828 283.196 67.8871 283.258C68.1495 283.309 68.4226 283.319 68.6929 283.316C69.3585 283.308 70.0213 283.288 70.6891 283.259C70.833 283.253 70.9951 283.209 71.1239 283.133C71.2065 283.088 71.2887 282.951 71.2771 282.869C71.2718 282.784 71.1611 282.672 71.0746 282.639C70.931 282.587 70.7641 282.579 70.6048 282.576C70.1384 282.558 69.6747 282.553 69.2096 282.541C69.0958 282.534 68.9792 282.515 68.864 282.502C68.8216 282.459 68.7931 282.42 68.7646 282.38Z" fill="#009DAF"/>
<path d="M280.876 415.671L278.895 415.171C278.664 415.116 278.432 415.171 278.278 415.338L276.76 416.808C276.349 417.225 275.654 416.919 275.603 416.309L275.448 414.117C275.423 413.867 275.294 413.645 275.114 413.534L273.339 412.424C272.85 412.119 272.902 411.342 273.416 411.092L275.294 410.26C275.5 410.177 275.654 409.955 275.706 409.733L276.117 407.596C276.246 406.985 276.94 406.791 277.301 407.263L278.612 408.928C278.767 409.122 278.973 409.205 279.204 409.178L281.236 408.956C281.802 408.9 282.188 409.566 281.905 410.093L280.85 411.952C280.722 412.174 280.722 412.424 280.799 412.646L281.622 414.644C281.905 415.199 281.442 415.809 280.876 415.671Z" fill="#009DAF"/>
<path d="M83.9754 606.899C84.0551 607.49 83.952 608.052 83.5019 608.529C83.2065 608.841 82.8642 609.025 82.4281 608.997C82.1562 608.983 81.8795 608.964 81.6123 608.983C80.3463 609.063 79.5164 607.887 79.6805 606.725C79.7227 606.432 79.8165 606.144 79.9056 605.865C79.9571 605.704 79.9525 605.577 79.8165 605.463C79.5633 605.255 79.3195 605.029 79.0522 604.849C78.5083 604.485 77.9457 604.15 77.3924 603.795C77.2376 603.696 77.0876 603.654 76.9376 603.772C76.0326 604.48 75.0199 604.438 73.9696 604.23C73.2194 604.084 72.5207 603.852 71.9768 603.276C71.869 603.162 71.7705 603.04 71.6768 602.912C71.5783 602.775 71.4611 602.737 71.311 602.794C70.4061 603.125 69.4965 603.465 68.5915 603.795C68.3805 603.871 68.268 604.013 68.2446 604.249C68.1602 605.085 67.7569 605.784 67.2318 606.408C67.0958 606.573 66.8473 606.692 66.6316 606.729C66.1581 606.81 65.6845 606.729 65.2391 606.536C64.2544 606.106 63.7902 605.123 64.0903 604.046C64.2825 603.356 64.6295 602.756 65.3094 602.463C66.1393 602.104 66.9176 602.26 67.5881 602.865C67.7851 603.04 67.9539 603.073 68.1977 602.978C69.1261 602.614 70.0591 602.265 70.9969 601.925C71.1985 601.849 71.2641 601.745 71.2126 601.537C71.1657 601.348 71.1375 601.15 71.1047 600.961C71.0485 600.611 71.0719 600.271 71.2266 599.95C71.9206 598.471 73.0131 597.54 74.6682 597.361C74.7385 597.351 74.8042 597.328 74.8745 597.323C75.0996 597.304 75.1746 597.181 75.1746 596.959C75.1746 596.18 75.184 595.405 75.1933 594.625C75.1933 594.441 75.1558 594.276 74.9542 594.257C74.129 594.172 73.7914 593.572 73.5992 592.887C73.4257 592.263 73.4819 591.625 73.768 591.025C74.0493 590.411 74.5463 590.123 75.184 590.047C75.1933 590.047 75.198 590.047 75.2074 590.047C75.695 589.995 76.1921 589.91 76.614 590.279C77.1673 590.775 77.594 591.342 77.7393 592.102C77.8237 592.537 77.7487 592.957 77.655 593.359C77.533 593.869 77.1251 594.129 76.6234 594.233C76.328 594.294 76.2858 594.332 76.2999 594.635C76.3327 595.419 76.3608 596.203 76.3937 596.992C76.4077 597.332 76.4499 597.346 76.7922 597.356C77.1017 597.365 77.4205 597.38 77.7159 597.46C78.1989 597.587 78.4427 597.942 78.5458 598.438C78.8084 599.718 78.724 600.951 78.1613 602.137C78.0957 602.279 78.1332 602.392 78.2457 602.491C78.7146 602.907 79.1741 603.332 79.6524 603.734C79.8024 603.862 79.9947 603.947 80.1681 604.055C80.3322 604.159 80.5151 604.249 80.6464 604.381C80.9277 604.674 81.2559 604.783 81.6592 604.764C82.264 604.74 82.8361 604.873 83.3331 605.251C83.7457 605.562 84.0176 605.959 83.9801 606.512C83.9661 606.63 83.9754 606.748 83.9754 606.899ZM73.0224 601.754C73.0412 601.769 73.0599 601.783 73.0787 601.792C73.1115 601.773 73.1443 601.759 73.1725 601.736C73.3507 601.561 73.5194 601.376 73.707 601.206C73.9602 600.975 74.2368 600.795 74.5979 600.795C74.7948 600.795 74.9823 600.824 75.0621 601.032C75.1465 601.254 75.0339 601.391 74.8745 601.556C74.5228 601.929 74.2087 602.34 73.8945 602.742C73.8617 602.784 73.8992 602.879 73.9039 602.945C73.9649 602.921 74.0399 602.917 74.0821 602.879C74.1759 602.784 74.2462 602.671 74.3353 602.572C74.5228 602.369 74.7338 602.217 75.0245 602.236C75.2449 602.251 75.3246 602.397 75.2215 602.591C75.1558 602.714 75.0855 602.827 74.9917 602.988C75.1324 603.002 75.2262 603.025 75.3199 603.021C75.7794 602.983 76.1264 602.742 76.3984 602.388C76.9798 601.632 77.2892 600.776 77.308 599.817C77.322 599.241 77.0782 598.896 76.5156 598.759C75.9576 598.622 75.3903 598.613 74.8276 598.754C74.4291 598.854 74.054 599.005 73.8383 599.397C73.6648 599.713 73.6929 599.747 74.0071 599.865C74.1431 599.917 74.2837 600.044 74.354 600.176C74.4384 600.332 74.2697 600.417 74.1712 600.512C73.8383 600.833 73.5054 601.15 73.1819 601.48C73.1115 601.561 73.074 601.665 73.0224 601.754ZM81.9968 605.818C81.7905 605.865 81.6357 605.87 81.5091 605.94C81.406 605.997 81.2653 606.129 81.27 606.219C81.3028 606.734 81.3263 607.259 81.7061 607.67C81.8514 607.825 82.0108 607.859 82.1843 607.75C82.5219 607.542 82.7985 607.273 82.972 606.904C83.1314 606.564 83.0471 606.229 82.7141 606.063C82.4797 605.945 82.2078 605.888 81.9968 605.818ZM75.0621 592.688C75.048 592.934 75.1277 593.094 75.3059 593.198C75.5216 593.321 75.7466 593.354 75.9717 593.213C76.2905 593.009 76.4734 592.707 76.5672 592.343C76.6938 591.847 76.3608 591.427 75.8545 591.455C75.7701 591.46 75.6622 591.498 75.606 591.554C75.2965 591.885 75.1089 592.272 75.0621 592.688ZM66.0737 604.466C66.069 604.466 66.0643 604.466 66.0596 604.466C66.0596 604.622 66.0643 604.783 66.0596 604.939C66.0455 605.18 66.1627 605.355 66.3222 605.515C66.4488 605.643 66.5613 605.643 66.6832 605.51C67.1239 605.047 67.2881 604.495 67.199 603.866C67.1708 603.658 67.0255 603.512 66.8286 603.451C66.6973 603.408 66.1346 603.682 66.1018 603.786C66.083 603.838 66.0783 603.895 66.0783 603.947C66.0737 604.121 66.0737 604.292 66.0737 604.466Z" fill="#FF719C"/>
<ellipse cx="276" cy="228.5" rx="2" ry="2.5" fill="#E8E8E8"/>
<circle cx="260" cy="245" r="2" fill="#E8E8E8"/>
<g clip-path="url(#clip0)">
<path fill-rule="evenodd" clip-rule="evenodd" d="M71.6898 151.341C71.7471 150.986 71.6455 150.548 71.2799 150.23C71.0133 149.741 70.7025 149.466 70.3922 149.112L68.8505 146.749C68.7417 146.502 68.3882 146.202 68.4323 145.988C68.61 145.978 68.712 146.336 68.8897 146.326C69.0602 146.506 69.2316 146.527 69.3835 146.72C69.6768 146.847 69.9827 146.912 70.2633 147.1C70.6552 147.136 71.0465 147.252 71.4199 147.3C71.8243 147.275 72.2156 147.391 72.6142 147.316C73.0191 147.211 73.4488 147.064 73.9041 146.713C73.874 146.627 73.96 146.597 74.0337 146.549C74.2998 146.11 74.3026 145.631 74.4278 145.178C74.2525 144.788 74.2486 144.42 74.0732 144.03C73.7154 143.441 73.3448 142.914 72.9496 142.429C72.7966 142.397 72.65 142.333 72.5286 142.147C72.229 142.051 71.9416 141.973 71.6852 141.822C71.2322 141.773 70.7856 141.694 70.3078 141.687C69.8364 141.65 69.3519 141.754 68.9115 141.644C68.4814 141.871 68.1143 141.793 67.6783 141.971C67.588 141.712 67.6079 141.46 67.4073 141.193C67.2247 140.994 66.8528 140.706 66.8232 140.54C67.4761 139.928 67.9946 139.272 68.5251 138.633C69.0009 137.952 69.3969 137.269 69.4444 136.495C69.3298 136.199 69.2701 135.946 69.0452 135.642C68.6126 135.261 68.1426 134.984 67.6784 134.757C66.9501 134.649 66.1908 134.614 65.3048 135.272C64.5349 135.986 64.2544 136.806 64.0535 137.627C64.0686 138.174 64.1143 138.727 64.111 139.287C63.6482 138.82 63.2364 138.027 62.8052 137.407C62.3182 136.903 61.819 136.38 61.3509 135.784C61.0887 135.583 60.8454 135.291 60.59 134.98C60.4375 134.868 60.3404 134.719 60.2001 134.625C60.0598 134.531 59.9262 134.326 59.7602 134.435C59.6509 134.267 59.4475 134.48 59.2999 134.576C59.1213 134.746 58.9994 134.639 58.8208 134.809L57.8061 135.471C57.6842 135.365 57.4804 135.657 57.327 135.705L56.8289 136.03C56.4784 136.258 56.0667 136.474 55.9424 136.767C55.9653 137.044 56.1411 137.354 56.3902 137.695C56.4252 137.991 56.8578 138.371 56.8743 138.679C55.1961 139.695 53.5178 140.711 51.8395 141.726C51.3157 142.254 50.6205 142.761 50.4332 143.361C50.7051 143.979 51.1791 144.624 51.5918 145.257C53.3187 148.426 55.0392 151.627 57.2555 154.901C57.6125 155.649 58.151 156.757 58.7973 157.263C59.3299 157.313 59.9072 157.069 60.4907 156.794L65.527 153.507C65.4969 153.421 65.6197 153.367 65.712 153.307C65.725 153.166 66.044 153.09 65.9348 152.923C66.1188 152.882 65.8944 152.498 66.1386 152.631C66.363 153.015 66.5077 153.398 66.8238 153.801C67.1234 153.898 67.4162 154.104 67.7415 153.998C69.2217 153.324 70.2707 152.029 71.6898 151.341ZM67.3079 142.452C67.4172 142.619 67.5517 142.664 67.6736 142.77C69.0281 142.628 70.3332 142.572 71.5999 142.78C71.7825 142.979 71.9903 143.056 72.2044 143.102C72.5025 143.437 72.8002 143.853 73.0731 144.312C73.3087 144.874 73.3728 145.416 73.1496 145.88C72.4184 146.251 71.7635 146.174 71.1269 146.086C70.8152 145.971 70.4725 145.929 70.1918 145.741C69.8922 145.645 69.6242 145.396 69.312 145.361C68.9716 144.92 68.5992 144.712 68.2205 144.535C67.8952 144.641 68.1128 145.136 67.9598 145.103C67.5048 144.365 67.1294 143.629 66.5826 142.872C66.7725 142.881 67.056 142.59 67.3079 142.452ZM68.0749 145.319C68.0196 145.356 67.9895 145.269 67.9467 145.244C68.0021 145.208 68.0322 145.294 68.0749 145.319ZM65.6687 141.028C65.7784 141.116 65.9071 141.111 65.9979 141.291C66.0892 141.39 66.2183 141.306 66.3285 141.314C66.4189 141.573 66.6762 141.564 66.6199 141.76C66.3742 141.867 66.3427 142.021 66.1582 142.141L65.6848 141.416C65.6003 141.206 65.271 140.943 65.3395 140.766C65.4628 140.632 65.7614 140.888 65.6687 141.028ZM65.2619 137.342C65.5837 136.787 65.7035 136.205 66.5575 135.78C66.6735 135.837 66.7901 135.814 66.9071 135.711C67.4207 135.853 68.284 135.926 68.3467 136.708C68.1094 137.473 67.4866 138.171 66.7904 138.837C66.5686 139.062 66.4997 139.319 66.3084 139.55C66.1914 139.653 66.1662 139.775 65.9574 139.859C66.0851 140.014 65.5705 140.032 65.6982 140.187C65.4414 140.116 65.4806 139.692 65.4083 139.501C65.3791 139.255 65.2582 138.989 65.3208 138.762C65.1522 138.262 65.259 137.821 65.2619 137.342ZM57.1902 137.067C57.9043 136.468 59.0481 135.722 59.8836 135.309C60.4416 136.244 61.0558 136.984 61.6832 137.582C62.5145 138.896 63.3527 140.1 64.203 141.322C63.3369 141.728 62.4145 142.33 61.5042 142.951C61.3683 143.146 61.2751 143.366 61.4635 143.614C61.2858 143.624 61.1901 143.235 61.044 143.092L59.8664 141.288C59.2433 139.971 58.1017 138.302 57.1902 137.067ZM54.2614 147.493C54.4338 147.354 54.7896 147.254 54.6867 147.056C54.5531 146.851 54.3192 147.057 54.1347 147.177C53.8676 146.768 53.6127 146.378 53.4495 146.007C53.7442 145.894 54.1108 146.053 54.1864 145.685C53.9131 145.306 53.5135 145.541 53.177 145.468C52.994 145.349 52.8803 144.893 52.6307 144.632C53.1099 144.398 53.4823 144.606 53.9367 144.416C54.1324 144.474 54.3781 144.366 54.5616 144.406C54.7514 144.414 54.935 144.454 55.1689 144.248C55.0796 143.829 54.5649 143.846 54.2717 143.72C53.91 143.77 53.5919 143.686 53.2608 143.743C53.0957 143.691 52.887 143.775 52.7277 143.772C52.5748 143.74 52.384 143.891 52.2311 143.858C52.0485 143.659 52.4408 143.615 52.5078 143.677C52.6617 143.55 52.7588 143.699 52.9127 143.572C53.1948 143.521 53.4273 143.555 53.7036 143.454C53.9357 143.568 54.2367 143.424 54.4755 143.427C54.6901 143.393 55.0567 143.552 55.1747 143.289C55.2373 143.063 54.8896 142.812 54.7551 142.767C54.5779 142.698 54.3944 142.658 54.2045 142.649C54.021 142.61 53.8253 142.552 53.635 142.623C53.4583 142.473 53.218 142.71 53.0844 142.505C53.7369 141.973 54.2375 142.257 54.8332 142C55.0963 142.041 55.3973 141.897 55.6794 141.846C55.9124 141.8 56.3479 141.701 56.3435 141.412C56.076 141.083 55.7395 141.011 55.4084 141.068C55.4773 140.811 56.0662 140.665 56.1657 140.415L56.9959 139.873C57.1862 139.801 57.1012 139.671 57.2915 139.6L57.4575 139.492C58.3972 141.133 59.3063 142.768 60.4601 144.455C58.4075 145.582 56.3709 147.097 54.7946 148.471C54.5334 148.111 54.5411 147.841 54.2614 147.493ZM64.4123 142.167C64.5293 142.064 64.6337 142.022 64.7255 142.042C64.7065 142.134 64.7488 142.239 64.8522 142.357C64.6867 142.385 64.54 142.322 64.4123 142.167ZM57.342 147.577C57.257 147.447 57.5697 147.402 57.6377 147.305C57.9508 147.18 58.1882 147.423 58.4825 147.39C58.5189 147.446 58.5247 147.495 58.5 147.538L57.6698 148.079C57.4557 148.034 57.2794 147.804 57.0464 147.85C56.9735 147.738 57.2556 147.687 57.342 147.577ZM57.0372 148.36C57.128 148.539 56.8212 148.633 56.6673 148.76C56.644 148.563 56.5468 148.415 56.3759 148.314C56.6342 148.145 56.7794 148.448 57.0372 148.36ZM55.6347 149.355C55.6648 149.441 55.5114 149.488 55.4497 149.555C55.3774 149.364 55.475 149.432 55.6347 149.355ZM55.8371 149.302C55.8624 149.18 55.7347 149.024 55.6375 148.875C55.9638 148.609 56.1639 148.956 56.4648 148.813C56.427 148.997 56.0158 149.132 55.8371 149.302ZM59.25 147.075C59.0621 146.746 58.7858 146.847 58.5727 146.641C58.9776 146.536 59.3005 146.829 59.7306 146.602C59.7937 146.295 59.4014 146.339 59.2921 146.172C59.5625 146.022 59.7699 146.178 59.9898 146.273C60.1869 146.092 60.3083 146.278 60.5054 146.096C60.6535 145.92 60.451 145.972 60.3787 145.781C60.6976 145.705 60.9603 145.826 61.2613 145.682C61.3162 145.726 61.3036 145.787 61.2788 145.83C60.5962 146.275 59.9331 146.549 59.25 147.075ZM62.3124 145.076C62.4964 145.035 62.6488 145.148 62.8455 145.046C63.0052 144.968 62.9814 144.851 62.8658 144.714C63.1362 144.564 63.3454 144.401 63.1265 144.146C63.4153 143.984 63.6217 144.301 63.9173 144.028C64.1814 143.909 64.0173 143.698 64.1591 143.552C64.16 143.392 64.2527 143.252 64.1619 143.073C64.5299 142.992 64.8169 143.149 65.1917 142.958C65.3796 143.286 65.702 143.659 65.7676 143.961C64.7967 144.489 63.733 145.156 62.8528 145.863C62.6576 145.726 62.5071 145.293 62.3124 145.076ZM65.3588 151.92C65.2175 151.985 65.0704 152.002 64.9539 152.025C64.6772 152.205 64.4612 152.479 64.1966 152.678C63.7228 153.04 63.1761 153.291 62.6474 153.61C61.5042 154.276 60.4454 155.153 59.3089 155.709C58.8179 154.836 58.3027 153.926 57.7321 153.052C57.1615 152.178 56.4496 151.369 56.0325 150.448C58.0554 149.154 60.0172 147.847 61.8261 146.507C62.148 146.96 62.4326 147.517 62.7676 147.829C63.009 148.44 63.5684 149.136 63.9627 149.781C64.2424 150.129 64.5406 150.464 64.8139 150.843C64.9538 151.017 65.0805 151.332 65.2335 151.365C65.3855 151.557 65.5059 151.903 65.6895 151.942L65.7623 152.054C65.6089 152.101 65.4933 151.964 65.3588 151.92ZM67.6471 152.362L67.1008 151.525C65.798 150.174 64.6024 148.302 63.3816 146.553C64.3225 145.939 65.2206 145.299 66.0575 144.647C66.1556 144.636 66.2474 144.656 66.3328 144.706C67.2886 146.735 68.7755 149.053 70.2216 151.027C69.3429 151.494 68.4884 151.999 67.6471 152.362Z" fill="#FF7D5F"/>
</g>
<defs>
<clipPath id="clip0">
<rect width="21.1003" height="20.5979" fill="white" transform="translate(65.5979 130.28) rotate(56.8671)"/>
</clipPath>
</defs>
</svg>
