<svg width="781" height="1065" viewBox="0 0 781 1065" fill="none" xmlns="http://www.w3.org/2000/svg">
<path d="M403.958 47.8255C403.808 47.0326 403.468 46.3245 402.981 45.6468C402.281 44.6633 401.649 43.6391 401.004 42.6269C400.946 42.5298 400.971 42.2985 401.05 42.2207C401.805 41.4726 402.566 40.7437 403.36 40.0352C403.505 39.9041 403.825 39.832 404.006 39.9101C405.426 40.4769 406.834 41.0556 408.236 41.678C409.031 42.0253 409.322 42.0334 409.915 41.4721C410.483 40.9347 410.309 39.9206 409.564 39.5884C407.548 38.6968 405.533 37.8303 403.61 36.7046C402.171 35.8604 400.62 35.2306 399.11 34.5211C398.966 34.4574 398.742 34.4086 398.632 34.4786C398.346 34.6592 398.132 35.7861 398.284 36.1518C398.588 36.8957 398.958 37.5864 399.83 37.8056C399.986 37.8447 400.125 37.9521 400.275 38.0224C401.191 38.5077 401.191 38.5077 400.629 39.2716C400.569 39.3566 400.515 39.4356 400.449 39.514C399.583 40.5394 399.211 40.4958 398.333 39.3276C397.769 38.5707 397.223 37.7833 396.569 37.1162C395.348 35.8619 394.043 34.6787 392.775 33.4722C392.305 33.0216 392.291 32.9329 392.713 32.514C393.517 31.718 394.326 30.9161 395.129 30.1201L395.123 30.1135C395.951 29.2936 396.785 28.4928 397.593 27.6531C397.75 27.4849 397.916 27.1789 397.861 26.9752C397.704 26.4081 397.528 25.7961 397.182 25.3266C396.714 24.6813 396.075 24.1532 395.509 23.5785C395.249 23.3205 395.181 23.0658 395.333 22.734C395.598 22.1753 395.819 21.5955 396.083 21.0494C396.313 20.5895 396.524 20.0972 396.849 19.7237C397.619 18.8569 398.434 18.0238 399.274 17.2171C400.816 15.7539 402.654 14.9652 404.907 15.1961C405.496 15.2567 405.617 15.3695 405.557 15.9573C405.318 18.4904 405.116 21.0254 404.801 23.5422C404.6 25.1472 404.225 26.7311 403.931 28.3252C403.762 29.2405 404.012 30.0384 404.766 30.4905C405.432 30.8879 405.599 31.3549 405.423 32.0186C405.401 32.1055 405.403 32.1935 405.393 32.281C405.351 33.3032 405.869 33.9635 406.871 34.1828C407.319 34.2804 407.762 34.4218 408.204 34.5128C408.578 34.5941 408.958 34.682 409.335 34.6819C410.424 34.6604 410.823 34.2654 410.932 33.1774C410.947 33.0336 410.968 32.8838 410.97 32.7394C411.016 32.1133 411.088 31.501 411.667 31.1464C411.746 31.0938 411.812 31.0028 411.847 30.9165C412.136 30.1014 412.5 29.315 412.689 28.4698C413.387 25.2242 414.023 21.9629 414.69 18.7095C414.807 18.1559 414.892 18.1099 415.469 18.1699C415.575 18.1814 415.674 18.1989 415.774 18.2038C416.599 18.3013 417.033 18.0777 417.236 17.2834C417.461 16.3897 417.649 15.4689 417.737 14.5433C417.866 13.2929 417.528 12.8928 416.294 12.5678C414.724 12.1633 413.968 11.1581 414.027 9.57751C414.036 9.42712 414.051 9.28333 414.028 9.1377C413.984 8.85902 413.982 8.53845 413.834 8.32376C413.545 7.90099 413.392 7.48496 413.38 6.98162C413.39 6.39142 413.079 6.09325 412.52 6.02787C412.067 5.97401 411.614 5.94531 411.161 5.89144C410.744 5.83941 410.507 5.99732 410.325 6.38418C410.195 6.65427 409.93 6.9176 409.653 7.01075C409.254 7.14809 409.019 7.38149 408.942 7.77987C408.86 8.22198 408.773 8.67007 408.735 9.12063C408.702 9.54002 408.533 9.72018 408.094 9.74243C407.754 9.75701 407.379 9.88299 407.125 10.0966C406.864 10.3036 406.661 10.3627 406.348 10.2467C404.442 9.54275 402.487 9.32651 400.527 9.19176C399.932 9.14971 399.258 9.21063 398.763 9.46889C397.651 10.0548 396.553 10.6916 395.582 11.4856C393.974 12.7822 392.766 14.4567 391.81 16.3322C390.837 18.2383 389.92 20.166 389.659 22.3714C389.579 23.0963 389.251 23.6016 388.717 24.0276C387.995 24.6014 387.26 25.162 386.62 25.8215C386.119 26.3308 385.589 26.6754 384.866 26.7338C384.236 26.7906 383.609 26.9606 382.983 26.9233C382.449 26.8843 382.037 26.9707 381.699 27.331C381.452 27.589 381.179 27.8332 381.013 28.1391C380.854 28.4392 380.661 28.8757 380.773 29.1515C381.096 29.953 381.561 30.705 381.989 31.4676C382.028 31.5324 382.128 31.5751 382.203 31.6165C382.354 31.712 382.517 31.7829 382.656 31.9029C383.459 32.5521 384.22 33.2685 385.064 33.8633C385.997 34.5253 386.882 35.2352 387.665 36.0846C390.657 39.3622 393.958 42.3597 396.715 45.8707C398.026 47.538 399.818 48.6385 401.538 49.8107C401.922 50.0748 402.351 50.1149 402.762 49.9656C403.51 49.6884 404.109 48.6561 403.958 47.8255ZM409.359 32.1821C409.333 32.4007 409.283 32.6056 409.228 32.892C408.837 32.8537 408.465 32.8227 408.098 32.7732C407.825 32.7345 407.697 32.5522 407.653 32.2861C407.529 31.5447 407.601 31.4603 408.326 31.5025C408.475 31.5099 408.625 31.5424 408.766 31.518C409.29 31.3994 409.426 31.6387 409.359 32.1821ZM415.656 14.5408C416.53 14.5778 416.601 14.663 416.33 15.4602C416.209 15.8249 416.076 16.1891 415.914 16.6335C415.66 16.6272 415.419 16.6719 415.207 16.5985C415.119 16.569 415.057 16.2831 415.058 16.1136C415.074 15.7373 415.157 15.3581 415.178 14.9758C415.189 14.6433 415.322 14.5242 415.656 14.5408ZM413.554 15.8505C412.905 19.3311 412.231 22.8104 411.588 26.2976C411.397 27.2998 411.28 28.3183 411.107 29.3278C411.08 29.4709 410.918 29.6829 410.8 29.6833C409.494 29.6752 408.18 29.6353 406.867 29.5954C406.73 29.5886 406.586 29.5249 406.406 29.472C406.383 29.3138 406.336 29.1669 406.351 29.0357C406.533 27.1658 406.728 25.2966 406.91 23.4267C406.973 22.7575 406.931 22.0641 407.044 21.4099C407.445 19.1425 407.99 16.9135 408.142 14.596C408.17 14.2455 408.323 14.1588 408.652 14.2065C410.032 14.4131 411.417 14.5885 412.803 14.8017C413.555 14.908 413.696 15.1035 413.554 15.8505ZM413.412 12.4439C413.568 12.4957 413.77 12.6565 413.817 12.8033C413.872 12.9945 413.791 13.2168 413.754 13.4726C413.543 13.4747 413.383 13.5045 413.246 13.46C411.73 13.0268 410.227 12.5816 408.711 12.1358C408.481 12.0678 408.25 11.9872 408.272 11.6553C408.295 11.3359 408.502 11.208 408.77 11.2526C409.447 11.3553 410.137 11.4586 410.81 11.6301C411.682 11.8619 412.55 12.1499 413.412 12.4439ZM410.674 8.43745C411.308 8.54426 411.932 8.72596 412.567 8.8831C412.623 8.89216 412.667 8.93835 412.774 9.00019C412.784 9.14521 412.826 9.32322 412.805 9.48558C412.631 10.6772 412.822 10.6301 411.624 10.2691C411.256 10.1566 410.887 10.0316 410.519 9.93166C410.189 9.84618 410.079 9.64592 410.127 9.34039C410.159 9.14089 410.147 8.90779 410.242 8.74912C410.325 8.60241 410.531 8.41151 410.674 8.43745ZM400.918 47.3042C400.298 46.5257 399.714 45.7238 399.106 44.946C397.149 42.4486 394.956 40.1846 392.732 37.9254C391.639 36.8156 390.523 35.7423 389.261 34.8252C389.022 34.65 388.872 34.3598 388.65 34.154C388.161 33.6836 387.702 33.1582 387.154 32.7728C385.988 31.9422 384.828 31.1055 383.938 29.9618C383.746 29.7135 383.652 29.3946 383.508 29.0984C383.796 28.9933 384.07 28.7995 384.367 28.7891C384.75 28.7703 385.178 28.8104 385.517 28.978C385.95 29.1942 386.213 29.0879 386.479 28.8245C387.718 27.6228 388.957 26.4211 390.196 25.2194C390.214 25.2014 390.231 25.1709 390.256 25.1595C391.871 23.8822 392.448 21.9942 393.037 20.0565C394.215 16.1685 396.556 13.2808 400.389 11.843C401.91 11.2648 403.499 11.1864 405.144 11.5946C405.437 11.6657 405.546 11.8156 405.547 12.0984C405.548 12.4064 405.544 12.7204 405.564 13.0356C405.591 13.3574 405.444 13.4255 405.147 13.4108C404.427 13.3626 403.714 13.2959 403.002 13.3298C401.067 13.4287 399.4 14.1128 398.035 15.4402C397.152 16.3014 396.264 17.156 395.401 18.037C394.447 19.0078 394.015 20.2746 393.739 21.6182C393.662 22.004 393.616 22.3976 393.558 22.7906C393.495 23.2526 393.605 23.6727 393.912 24.0524C394.449 24.7199 394.979 25.3934 395.504 26.0604C395.868 26.5246 395.889 26.6199 395.496 26.9837C394.716 27.718 393.86 28.3857 393.124 29.1662C392.256 30.0909 391.458 31.0882 390.666 32.0796C390.378 32.4423 390.364 32.8815 390.666 33.3175C391.109 33.949 391.51 34.6224 392.02 35.2006C392.855 36.1531 393.768 37.0404 394.646 37.951C394.634 37.963 394.628 37.969 394.616 37.9809C395.811 39.2215 397.061 40.4208 398.183 41.7206C398.833 42.4692 399.29 43.3967 399.85 44.235C400.377 45.0152 400.929 45.784 401.456 46.5642C401.546 46.6943 401.638 46.8874 401.622 47.0186C401.59 47.2181 401.49 47.4205 401.357 47.5521C401.333 47.5887 401.026 47.4289 400.918 47.3042Z" fill="#FF719C"/>
<path d="M393.956 26.8601C393.695 26.0999 393.135 25.7015 392.248 25.6263C391.578 25.568 391.058 25.7997 390.624 26.2556C390.444 26.4727 390.239 26.6761 390.09 26.9137C389.721 27.4858 389.74 28.4979 390.096 28.8798C390.682 29.5117 391.806 29.6992 392.495 29.2748C392.769 29.1063 393.043 28.9251 393.304 28.7308C393.936 28.2722 394.19 27.5437 393.956 26.8601ZM391.84 28.0805C391.709 27.5779 391.824 27.4517 392.332 27.502C392.385 27.8752 392.159 27.9959 391.84 28.0805Z" fill="#FF719C"/>
<path d="M407.912 20.9695C407.762 21.4014 407.926 21.7798 408.262 22.1039C408.852 22.6665 409.526 22.6811 410.202 22.5263C412.102 22.0869 412.21 19.7388 411.326 18.7725C411.031 18.601 410.739 18.2978 410.442 18.2831C409.686 18.2457 408.942 18.416 408.59 19.1642C408.308 19.7402 408.12 20.3647 407.912 20.9695ZM410.34 19.9161C410.445 19.8899 410.658 19.9883 410.722 20.0919C410.973 20.462 410.893 21.0041 410.598 21.3096C410.285 21.6329 409.961 21.529 409.819 21.0764C409.685 20.643 409.935 20.0341 410.34 19.9161Z" fill="#FF719C"/>
<path d="M244.332 308.881C244.266 308.625 244.042 308.392 243.851 308.165C243.602 307.867 243.334 307.583 243.049 307.324C240.563 304.988 238.066 302.653 235.569 300.318C234.233 299.071 232.884 297.815 231.521 296.595C230.817 295.96 230.057 295.415 229.37 294.753C229.078 294.461 228.818 294.013 228.744 293.618C228.481 292.242 228.303 290.852 228.082 289.469C228.017 289.061 228.167 288.794 228.517 288.648C228.668 288.59 228.808 288.533 228.96 288.475C230.187 287.997 230.797 286.974 230.561 285.57C230.371 284.484 229.866 283.551 228.58 283.609C228.159 283.627 227.719 283.66 227.312 283.745C226.202 283.962 225.103 284.223 224.004 284.438C223.063 284.629 222.124 284.773 221.188 284.986C220.324 285.177 219.472 285.423 218.615 285.648C218.612 285.637 218.61 285.625 218.607 285.614C218.143 285.685 217.684 285.732 217.227 285.837C216.759 285.944 216.296 286.073 215.851 286.234C215.292 286.424 214.901 286.786 214.898 287.483C214.883 288.786 215.745 289.909 216.985 290.148C217.452 290.239 217.933 290.293 218.403 290.349C218.681 290.376 218.863 290.511 218.917 290.816C219.216 292.257 219.537 293.706 219.825 295.148C219.969 295.869 220.005 296.595 219.781 297.28C219.304 298.817 218.835 300.34 218.03 301.718C217.474 302.686 217.033 303.729 216.589 304.761C215.823 306.527 215.109 308.332 214.333 310.101C213.615 311.732 213.252 313.448 213.188 315.282C213.145 316.705 213.603 317.924 214.488 319.054C215.151 319.905 215.96 320.373 216.955 320.383C218.91 320.397 220.832 320.312 222.672 319.635C223.955 319.159 225.333 318.925 226.668 318.592C228.99 318.027 231.3 317.464 233.627 316.922C235.102 316.58 236.584 316.271 238.073 315.996C238.744 315.87 239.441 315.763 240.135 315.796C241.708 315.857 242.969 315.281 244.026 314.213C244.563 313.666 245.155 313.018 245.071 312.171C244.958 311.085 244.611 309.977 244.332 308.881ZM219.483 303.969C219.978 303.022 220.475 302.086 221.006 301.157C221.093 301.004 221.314 300.913 221.499 300.861C221.785 300.771 221.895 300.626 221.889 300.29C221.877 299.932 221.955 299.583 221.988 299.23C221.992 299.148 221.994 299.055 221.967 298.977C221.73 298.433 221.95 298.086 222.309 297.775C222.493 297.619 222.68 297.474 222.826 297.29C223.074 296.973 223.008 296.716 222.652 296.48C222.59 296.443 222.527 296.406 222.475 296.368C222.262 296.238 221.95 296.204 221.946 295.833C221.953 295.461 222.073 295.152 222.384 294.976C222.559 294.88 222.74 294.806 222.902 294.7C223.201 294.514 223.278 294.212 223.126 293.864C222.978 293.527 222.712 293.405 222.379 293.479C222.286 293.505 222.204 293.529 222.109 293.544C221.871 293.603 221.648 293.58 221.53 293.284C221.414 293 221.468 292.794 221.721 292.651C222.024 292.488 222.327 292.326 222.617 292.153C222.908 291.981 223.139 291.737 222.944 291.337C222.764 290.958 222.443 290.984 222.12 291.057C221.912 291.1 221.705 291.155 221.494 291.187C221.262 291.223 221.135 291.091 221.114 290.839C221.077 290.311 221.372 289.859 221.863 289.807C222.311 289.761 222.763 289.785 223.216 289.762C223.422 289.754 223.641 289.709 223.832 289.633C224.023 289.557 224.202 289.425 224.375 289.317C225.057 288.888 225.136 288.492 224.648 287.743C224.548 287.584 224.293 287.46 224.103 287.443C223.817 287.429 223.516 287.498 223.235 287.564C222.828 287.65 222.449 287.812 222.043 287.851C220.709 287.986 219.434 288.449 218.056 288.428C217.564 288.422 217.221 288.3 216.823 287.815C217.062 287.709 217.243 287.588 217.449 287.534C217.824 287.453 218.209 287.417 218.587 287.348C220.197 287.077 221.806 286.796 223.416 286.526C223.522 286.51 223.625 286.482 223.728 286.455C224.271 286.291 224.807 286.197 225.406 286.198C226.149 286.2 226.876 285.984 227.6 285.85C227.779 285.822 227.954 285.772 228.255 285.703C228.167 285.902 228.149 286.021 228.085 286.077C227.56 286.576 227.039 287.097 226.485 287.565C226.135 287.863 225.938 288.218 226.023 288.716C226.357 290.674 226.7 292.631 227.044 294.587C227.067 294.746 227.122 294.9 227.143 295.048C227.259 295.994 227.62 296.764 228.484 297.282C228.822 297.485 229.086 297.851 229.343 298.184C229.959 298.972 230.702 299.589 231.576 300.001C231.771 300.099 231.992 300.112 232.204 300.184C232.428 300.266 232.685 300.342 232.869 300.488C233.263 300.8 233.603 301.166 233.981 301.503C234.195 301.69 234.224 301.825 233.987 301.989C233.55 302.289 233.128 302.609 232.703 302.918C232.375 303.166 231.984 303.225 231.603 303.075C230.041 302.455 228.673 302.839 227.385 303.594C226.871 303.893 226.388 304.234 225.885 304.532C224.66 305.277 223.324 305.401 221.899 304.911C221.157 304.653 220.433 304.276 219.645 304.316C219.41 304.34 219.399 304.133 219.483 303.969ZM234.074 305.239C234.074 305.39 234.052 305.545 234.041 305.697C233.978 306.369 233.803 306.617 233.355 306.616C232.832 306.615 232.456 306.289 232.315 305.683C232.199 305.19 232.261 305.076 232.724 304.994C233.027 304.935 233.316 304.856 233.619 304.798C233.915 304.753 234.08 304.913 234.074 305.239ZM233.429 313.665C233.245 313.821 232.852 313.464 232.774 313.104C232.658 312.564 232.957 311.972 233.429 311.784C233.792 311.647 234.235 311.986 234.217 312.406C234.19 312.991 233.82 313.35 233.429 313.665ZM242.989 311.666C242.971 312.447 242.517 312.923 241.852 313.176C241.791 313.197 241.73 313.217 241.656 313.229C239.573 313.687 237.493 314.157 235.408 314.605C235.139 314.669 234.859 314.689 234.58 314.708C234.538 314.715 234.483 314.665 234.366 314.625C234.569 314.304 234.804 314.024 234.939 313.689C235.086 313.307 235.255 312.874 235.213 312.474C235.084 311.217 234.12 310.586 232.998 310.944C232.007 311.259 231.415 311.953 231.483 312.779C231.533 313.468 231.728 314.124 232.17 314.706C232.242 314.788 232.287 314.897 232.386 315.056C232.071 315.163 231.788 315.264 231.499 315.343C230.439 315.634 229.378 315.924 228.312 316.192C228.011 316.261 227.67 316.197 227.366 316.256C226.888 316.364 226.429 316.515 225.961 316.668C223.871 317.349 221.792 318.027 219.703 318.708C219.081 318.908 218.432 318.833 217.785 318.665C217.544 318.609 217.464 318.436 217.474 318.178C217.513 317.243 216.992 316.847 216.204 317.189C216.124 317.224 216.042 317.248 215.96 317.272C215.929 317.231 215.906 317.176 215.876 317.134C216.084 316.986 216.279 316.829 216.492 316.703C216.924 316.428 217.106 316.11 216.981 315.78C216.84 315.43 216.404 315.276 215.907 315.399C215.814 315.425 215.724 315.462 215.637 315.464C215.474 315.466 215.173 315.488 215.153 315.445C215.084 315.223 215.039 314.963 215.095 314.769C215.138 314.611 215.33 314.489 215.484 314.395C216.048 314.077 216.617 313.78 217.181 313.462C217.413 313.322 217.637 313.148 217.851 312.976C218.092 312.776 218.11 312.506 217.96 312.216C217.816 311.948 217.589 311.808 217.309 311.874C216.928 311.979 216.552 312.106 216.186 312.232C216.054 312.276 215.939 312.351 215.812 312.417C215.648 311.908 215.783 311.62 216.22 311.426C216.979 311.1 217.751 310.784 218.51 310.459C218.691 310.385 218.866 310.288 219.042 310.192C219.318 310.057 219.428 309.807 219.318 309.499C219.206 309.179 218.96 308.997 218.637 309.069C218.106 309.185 217.593 309.334 217.066 309.473C216.942 309.503 216.807 309.536 216.68 309.555C216.647 309.502 216.614 309.449 216.581 309.396C216.809 309.187 217.014 308.923 217.277 308.778C218.03 308.373 218.805 308.021 219.588 307.658C220.122 307.401 220.671 307.166 220.483 306.289C220.692 306.35 220.829 306.376 220.962 306.437C222.093 306.983 223.211 307.16 224.406 306.989C225.697 306.802 226.824 306.363 227.864 305.622C228.393 305.239 229.021 305.015 229.618 304.75C229.767 304.68 229.951 304.675 230.125 304.672C230.917 304.655 231.028 304.766 231.17 305.58C231.234 305.93 231.322 306.288 231.469 306.614C231.844 307.451 232.596 307.905 233.436 307.857C234.469 307.792 235.016 307.394 235.152 306.398C235.245 305.768 235.143 305.087 235.145 304.437C235.145 304.181 235.113 303.884 235.21 303.672C235.438 303.161 235.752 303.101 236.187 303.499C237.275 304.505 238.334 305.527 239.404 306.548C240.308 307.408 241.239 308.241 242.09 309.156C242.745 309.868 243.012 310.756 242.989 311.666Z" fill="#FF719C"/>
<path d="M217.939 313.576C217.489 313.715 217.241 314.031 217.182 314.516C217.151 314.776 217.156 315.053 217.19 315.315C217.367 316.748 218.422 317.654 219.643 317.455C220.423 317.335 220.812 316.963 220.904 316.276C221.145 314.454 219.613 313.053 217.939 313.576ZM219.36 316.188C218.999 316.232 218.696 315.988 218.631 315.581C218.564 315.22 218.716 314.965 219.003 314.932C219.343 314.892 219.661 315.156 219.735 315.551C219.812 315.91 219.668 316.152 219.36 316.188Z" fill="#FF719C"/>
<path d="M222.336 308.981C221.195 309.596 221.129 311.621 222.239 312.482C222.891 312.984 223.585 313.075 224.273 312.784C224.803 312.564 225.049 312.086 225.06 311.482C225.065 311.25 225.012 311.003 224.998 310.785C224.934 310.54 224.886 310.316 224.807 310.097C224.457 309.177 223.106 308.562 222.336 308.981ZM224.013 310.809C224.082 311.18 224.132 311.566 223.739 311.661C223.491 311.723 223.176 311.678 222.937 311.576C222.866 311.552 222.9 311.153 222.894 310.922C222.89 310.853 222.918 310.78 222.938 310.719C223.011 310.453 223.034 310.102 223.427 310.157C223.775 310.208 223.97 310.456 224.013 310.809Z" fill="#FF719C"/>
<path d="M224.945 302.043C225.665 302.351 226.71 301.785 226.885 301.027C227.046 300.352 226.839 299.746 226.366 299.215C225.92 298.714 225.387 298.669 224.821 298.825C223.649 298.9 223.596 299.871 223.966 300.836C224.172 301.338 224.441 301.83 224.945 302.043ZM225.339 300.068C225.483 300.081 225.625 300.233 225.843 300.386C225.708 300.569 225.586 300.762 225.573 300.752C225.396 300.64 225.246 300.5 225.086 300.362C225.174 300.268 225.26 300.057 225.339 300.068Z" fill="#FF719C"/>
<path d="M599.877 394.474L596.136 393.525C595.698 393.42 595.261 393.525 594.97 393.842L592.103 396.636C591.325 397.427 590.014 396.847 589.916 395.687L589.625 391.522C589.576 391.047 589.333 390.626 588.993 390.415L585.641 388.306C584.717 387.726 584.815 386.25 585.786 385.775L589.333 384.194C589.722 384.035 590.014 383.614 590.111 383.192L590.888 379.132C591.131 377.972 592.443 377.603 593.123 378.5L595.601 381.663C595.893 382.032 596.281 382.19 596.719 382.137L600.557 381.716C601.626 381.61 602.355 382.876 601.82 383.877L599.828 387.41C599.585 387.831 599.585 388.306 599.731 388.728L601.286 392.524C601.82 393.578 600.946 394.738 599.877 394.474Z" fill="#009564"/>
<path d="M21.8769 699.474L18.1357 698.525C17.6984 698.42 17.2611 698.525 16.9695 698.842L14.1028 701.636C13.3254 702.427 12.0136 701.847 11.9164 700.687L11.6249 696.522C11.5763 696.047 11.3333 695.626 10.9932 695.415L7.64063 693.306C6.71746 692.726 6.81464 691.25 7.7864 690.775L11.3333 689.194C11.722 689.035 12.0136 688.614 12.1107 688.192L12.8881 684.132C13.1311 682.972 14.443 682.603 15.1232 683.5L17.6012 686.663C17.8927 687.032 18.2814 687.19 18.7187 687.137L22.5572 686.716C23.6261 686.61 24.3549 687.876 23.8205 688.877L21.8284 692.41C21.5854 692.831 21.5854 693.306 21.7312 693.728L23.286 697.524C23.8205 698.578 22.9459 699.738 21.8769 699.474Z" fill="#FF7D5F"/>
<path d="M307.532 1002.29C307.863 1003.43 307.936 1004.79 307.953 1005.96C307.962 1006.63 308.141 1008.1 308.141 1008.1C308.141 1008.1 308.201 1009.72 308.369 1010.74C308.507 1011.58 308.724 1012.02 308.858 1012.86C309.051 1014.08 309.035 1014.78 309.046 1016C309.054 1016.9 308.945 1017.4 308.982 1018.3C309.021 1019.25 309.142 1019.78 309.265 1020.73C309.378 1021.61 309.455 1022.1 309.581 1022.97C309.644 1023.41 309.654 1023.72 309.744 1024.1C309.811 1024.38 309.938 1024.74 309.942 1025.04C309.951 1025.68 312.437 1025.89 312.967 1025.82C314.037 1025.69 315.088 1025.76 316.154 1025.66C316.711 1025.61 317.271 1025.68 317.831 1025.61C318.199 1025.56 318.573 1025.58 318.943 1025.56C319.361 1025.53 319.655 1025.38 320.121 1025.32C320.851 1025.24 321.398 1025.36 322.002 1025.37C322.631 1025.37 323.156 1025.19 323.9 1025.13C325.144 1025.02 326.153 1024.91 327.097 1025.05C327.546 1025.11 328.675 1024.7 328.972 1024.94" stroke="#FF7D5F" stroke-width="2" stroke-linecap="round" stroke-linejoin="round"/>
<path d="M307.73 1002.58C308.648 1003.29 309.02 1004.44 309.931 1005.15C310.806 1005.83 311.682 1006.51 312.557 1007.19C313.457 1007.89 314.195 1008.66 314.974 1009.49C315.34 1009.87 315.794 1010.15 316.134 1010.57C316.572 1011.11 316.895 1011.56 317.453 1011.99C318.805 1013.04 320.036 1014.3 321.06 1015.68C321.631 1016.45 322.347 1017.11 322.916 1017.88C323.373 1018.49 324.044 1018.92 324.486 1019.56C325.207 1020.62 326.39 1021.4 327.042 1022.47C327.292 1022.88 327.822 1023.25 328.159 1023.6C328.443 1023.89 328.576 1024.2 328.913 1024.46" stroke="#FF7D5F" stroke-width="2" stroke-linecap="round" stroke-linejoin="round"/>
<path d="M307.69 1002.27C308.577 1002.96 309.564 1003.58 310.424 1004.25C311.635 1005.19 313.022 1005.84 314.234 1006.78C317.006 1008.94 319.852 1011.01 322.638 1013.17C324.722 1014.79 326.806 1016.41 328.891 1018.03C331.166 1019.8 333.251 1021.71 335.524 1023.47" stroke="#FF7D5F" stroke-width="2" stroke-linecap="round" stroke-linejoin="round"/>
<path d="M307.956 1002.47C309.861 1003.95 311.904 1004.67 314.17 1005.39C314.879 1005.61 315.867 1006.2 316.464 1006.66C317.136 1007.19 318.077 1007.35 318.753 1007.87C320.451 1009.19 322.38 1010.12 324.073 1011.44C325.301 1012.39 326.814 1012.93 328.199 1013.65C330.549 1014.87 333.04 1016.02 335.216 1017.53C335.808 1017.95 336.403 1018.07 337.14 1018.46C337.75 1018.78 338.676 1019.34 338.676 1019.34C338.676 1019.34 339.505 1019.77 339.835 1019.98L343.082 1021.72C343.465 1021.91 343.714 1022.13 344.045 1022.23C344.679 1022.41 345.191 1022.94 345.79 1023.18C346.309 1023.39 346.897 1023.56 347.424 1023.75" stroke="#FF7D5F" stroke-width="2" stroke-linecap="round" stroke-linejoin="round"/>
<path d="M335.721 1023.77C336.624 1024.04 338.981 1023.8 338.981 1023.8C338.981 1023.8 340.19 1023.77 340.763 1023.7C341.147 1023.65 341.723 1023.64 342.08 1023.73C342.512 1023.83 343.397 1023.89 343.397 1023.89C343.397 1023.89 344.368 1024.05 344.582 1023.96C345.244 1023.7 346.59 1023.79 347.217 1024.01" stroke="#FF7D5F" stroke-width="2" stroke-linecap="round" stroke-linejoin="round"/>
<path d="M325.384 1037.25C324.719 1036.24 324.374 1035.08 323.819 1034.04C323.359 1033.18 323.057 1032.02 322.423 1031.25C322.132 1030.9 322.115 1030.28 321.766 1029.89C321.417 1029.5 321.18 1028.95 320.936 1028.49C320.669 1027.99 320.179 1027.53 320.047 1026.98C319.966 1026.64 319.465 1026.04 319.528 1025.72" stroke="#FF7D5F" stroke-width="2" stroke-linecap="round" stroke-linejoin="round"/>
<path d="M325.472 1037.32C326.151 1035.98 327.291 1034.8 328.214 1033.61C329.075 1032.5 329.841 1031.33 330.711 1030.21C332.259 1028.22 333.51 1026.06 335.04 1024.1" stroke="#FF7D5F" stroke-width="2" stroke-linecap="round" stroke-linejoin="round"/>
<path d="M328.972 1024.94C328.777 1025.91 328.669 1026.96 328.45 1027.95C328.206 1029.05 327.707 1030.1 327.444 1031.16C327.339 1031.59 327.172 1031.97 326.986 1032.48C326.795 1033.01 326.478 1033.83 326.478 1033.83L325.203 1036.57" stroke="#FF7D5F" stroke-width="2" stroke-linecap="round" stroke-linejoin="round"/>
<path d="M320.594 1027.36C321.126 1027.52 321.469 1027.21 321.976 1027.21C322.163 1027.21 322.462 1027.21 322.631 1027.13" stroke="#FF7D5F" stroke-width="2" stroke-linecap="round" stroke-linejoin="round"/>
<path d="M321.779 1029.17C322.192 1028.94 322.719 1028.93 323.176 1028.82C323.354 1028.77 323.522 1028.7 323.706 1028.68C323.809 1028.67 323.961 1028.7 324.057 1028.66C324.362 1028.53 324.686 1028.46 324.973 1028.33" stroke="#FF7D5F" stroke-width="2" stroke-linecap="round" stroke-linejoin="round"/>
<path d="M322.819 1030.78C323.17 1030.56 323.719 1030.58 324.125 1030.47C324.224 1030.45 324.651 1030.3 324.64 1030.35" stroke="#FF7D5F" stroke-width="2" stroke-linecap="round" stroke-linejoin="round"/>
<path d="M323.589 1032.47C323.694 1032.42 324.595 1032.01 324.616 1032.17" stroke="#FF7D5F" stroke-width="2" stroke-linecap="round" stroke-linejoin="round"/>
<path d="M324.244 1034.12C324.451 1034.07 324.638 1034 324.837 1033.94" stroke="#FF7D5F" stroke-width="2" stroke-linecap="round" stroke-linejoin="round"/>
<path d="M735.638 626.429C733.758 627.142 731.906 627.948 729.989 628.547C725.097 630.07 720.172 631.515 715.257 632.982C714.174 633.303 713.097 633.609 712.009 633.919C711.345 634.107 710.75 634.372 710.378 635.027C710.12 635.485 709.665 635.452 709.167 635.345C708.476 635.196 707.78 635.062 707.096 635.064C705.99 635.06 704.982 634.709 704.01 634.063C702.09 632.773 700.718 630.941 699.642 628.906C697.539 624.921 695.946 620.768 695.24 616.382C695.031 615.073 695.046 613.743 695.006 612.421C694.981 611.762 695.26 611.218 695.729 610.873C696.51 610.307 697.311 609.733 698.188 609.31C702.458 607.2 707.02 605.829 711.592 604.428C714.786 603.446 717.863 602.163 720.973 600.982C721.923 600.622 722.787 600.088 723.737 599.727C726.216 598.812 728.729 597.948 731.223 597.04C732.097 596.721 732.877 597.106 733.557 597.722C734.938 598.973 736.302 600.268 736.985 602.117C737.116 602.479 737.308 602.522 737.588 602.39C737.974 602.205 738.36 602.02 738.76 601.868C739.47 601.598 740.136 601.744 740.762 602.368C741.974 603.579 743.253 604.701 744.156 606.223C745.184 607.954 745.774 609.749 745.636 611.691C745.576 612.614 745.492 613.533 745.338 614.428C745.263 614.88 745.041 615.312 744.824 615.703C744.731 615.867 744.505 615.991 744.316 616.037C743.588 616.21 742.837 616.328 742.119 616.524C741.974 616.566 741.824 616.841 741.82 617.023C741.811 618.531 741.818 620.045 741.844 621.553C741.853 621.793 741.942 622.056 742.051 622.284C742.51 623.254 742.29 623.993 741.365 624.357C739.47 625.09 737.566 625.8 735.666 626.521C735.666 626.495 735.652 626.462 735.638 626.429ZM734.622 623.96C734.608 623.927 734.594 623.893 734.584 623.871C735.934 623.359 737.279 622.835 738.634 622.334C739.158 622.148 739.365 621.787 739.314 621.176C739.207 619.969 739.149 618.77 739.077 617.563C738.917 614.923 738.559 612.308 737.619 609.746C736.332 606.287 734.472 603.226 731.837 600.638C731.434 600.238 731.075 600.131 730.58 600.305C729.351 600.746 728.099 601.106 726.86 601.525C726.301 601.711 725.755 601.931 725.22 602.173C724.554 602.464 723.921 602.833 723.246 603.102C721.296 603.868 719.316 604.594 717.361 605.349C716.851 605.543 716.828 605.706 717.229 606.184C717.929 607.011 718.65 607.804 719.341 608.635C721.939 611.737 723.745 615.243 724.675 619.146C725.224 621.445 725.331 623.771 725.374 626.082C725.384 626.759 725.579 626.917 726.148 626.726C728.99 625.789 731.806 624.874 734.622 623.96ZM700.062 624.298C700.408 625.002 700.804 625.906 701.276 626.768C702.162 628.412 703.107 630.034 704.543 631.25C705.015 631.65 705.573 631.952 706.123 632.206C706.599 632.424 706.902 632.181 706.928 631.643C706.952 631.236 706.946 630.839 706.936 630.432C706.913 629.451 706.979 628.487 706.525 627.502C704.865 623.85 703.026 620.293 700.684 617.003C699.814 615.777 698.843 614.641 697.887 613.487C697.742 613.311 697.44 613.284 697.214 613.189C697.155 613.405 697.036 613.617 697.051 613.843C697.062 614.25 697.142 614.657 697.202 615.071C697.654 618.204 698.872 621.149 700.062 624.298ZM711.495 617.952C711.5 617.963 711.5 617.963 711.505 617.974C711.075 618.137 710.645 618.301 710.205 618.468C710.155 618.487 710.105 618.505 710.055 618.524C709.514 618.755 709.215 619.28 709.39 619.883C709.528 620.37 709.725 620.887 710.023 621.288C710.24 621.579 710.709 621.889 711.017 621.875C711.766 621.835 712.518 621.691 713.207 621.455C714.456 621.033 715.672 620.533 716.873 620.025C717.473 619.772 718.069 619.481 718.598 619.113C718.785 618.978 718.933 618.562 718.869 618.303C718.667 617.364 718.043 616.636 717.301 616.121C716.725 615.722 716.189 616.183 715.66 616.358C715.455 616.423 715.269 616.532 715.069 616.608C713.885 617.045 712.685 617.5 711.495 617.952ZM742.342 613.61C742.893 613.568 743.047 613.111 743.017 612.467C742.986 611.823 743.06 611.178 742.955 610.549C742.819 609.765 742.704 608.896 742.317 608.232C741.6 607.039 740.692 605.969 739.844 604.851C739.468 604.351 739.049 604.484 738.653 604.699C738.231 604.936 738.481 605.278 738.618 605.599C738.698 605.787 738.768 605.979 738.874 606.145C740.169 608.289 740.737 610.632 741.255 612.994C741.43 613.841 741.503 613.903 742.342 613.61ZM712.717 615.611C712.781 615.625 712.845 615.639 712.909 615.654C712.989 615.405 713.089 615.174 713.129 614.915C713.368 613.512 713.568 612.099 713.847 610.708C713.941 610.273 714.203 609.852 714.497 609.535C714.904 609.098 715.464 609.296 715.664 609.928C715.784 610.319 715.839 610.749 715.805 611.134C715.739 612.124 715.593 613.118 715.516 614.111C715.502 614.296 715.648 614.666 715.741 614.694C715.969 614.737 716.218 614.668 716.418 614.566C716.534 614.509 716.578 614.287 716.631 614.138C716.769 613.726 716.873 613.314 717.015 612.912C717.322 612.024 717.372 612.005 718.327 612.093C718.411 612.099 718.487 612.058 718.661 612.03C718.45 611.699 718.278 611.404 718.076 611.147C717.734 610.698 717.376 610.268 717.019 609.838C716.256 608.919 715.498 607.985 714.706 607.077C714.111 606.39 713.753 606.449 713.576 607.262C713.388 608.13 713.201 608.998 713.102 609.885C712.905 611.579 712.769 613.277 712.617 614.967C712.608 615.164 712.682 615.393 712.717 615.611ZM706.566 621.623C706.63 621.638 706.704 621.648 706.768 621.662C706.831 621.265 706.924 620.883 706.938 620.479C707.043 618.215 707.123 615.947 707.237 613.679C707.305 612.201 707.436 610.737 707.514 609.254C707.522 609.084 707.391 608.748 707.283 608.712C706.825 608.564 706.203 609.122 706.181 609.644C706.024 612.739 705.91 615.855 705.698 618.957C705.62 620.002 706.039 620.795 706.566 621.623ZM711.115 607.81C711.007 607.748 710.896 607.649 710.787 607.639C710.075 607.549 709.453 608.107 709.436 608.859C709.373 611.493 709.314 614.138 709.251 616.772C709.242 616.943 709.238 617.124 709.274 617.291C709.296 617.424 709.397 617.553 709.464 617.682C709.579 617.625 709.778 617.601 709.815 617.497C709.942 617.14 710.044 616.754 710.102 616.372C710.43 613.676 710.737 610.988 711.059 608.307C711.078 608.159 711.096 608.01 711.115 607.81ZM721.455 617.476C721.054 620.354 720.672 623.058 720.29 625.761C720.892 625.237 721.276 624.423 721.427 623.465C721.502 622.987 721.701 622.693 722.151 622.548C722.326 622.494 722.545 622.218 722.519 622.048C722.314 620.557 722.109 619.066 721.455 617.476ZM718.675 621.45C718.622 621.406 718.553 621.355 718.5 621.311C718.278 621.498 717.982 621.623 717.843 621.868C717.203 623.011 717.247 624.396 717.074 625.709C717.05 625.872 717.491 626.142 717.714 626.366C717.822 626.184 717.984 626.019 718.028 625.823C718.245 624.558 718.441 623.274 718.633 622.006C718.662 621.828 718.661 621.635 718.675 621.45ZM701.759 614.126C701.829 614.099 701.914 614.08 701.984 614.053C701.995 613.098 702.031 612.145 702.018 611.186C702.02 611.082 701.649 610.812 701.549 610.85C700.995 611.047 700.474 611.296 699.952 611.572C699.867 611.617 699.825 611.954 699.897 612.043C700.501 612.752 701.14 613.435 701.759 614.126ZM718.928 612.495C718.882 613.014 718.873 613.403 718.815 613.785C718.701 614.471 718.702 615.101 719.43 615.557C719.553 615.626 719.668 615.788 719.719 615.936C719.986 616.671 720.507 616.64 721.033 616.594C721.015 615.868 719.766 613.372 718.928 612.495ZM708.53 626.047C708.949 626.813 709.216 626.866 709.641 626.255C709.738 626.128 709.83 625.964 709.829 625.798C709.819 624.927 709.808 624.057 709.728 623.187C709.717 623.024 709.419 622.816 709.228 622.721C709.169 622.692 708.931 622.924 708.893 623.08C708.729 623.759 708.59 624.442 708.495 625.147C708.439 625.425 708.507 625.747 708.53 626.047ZM713.514 627.523C714.647 627.376 714.699 627.305 714.723 626.216C714.729 625.712 714.799 625.223 714.845 624.729C714.878 624.344 714.926 623.966 714.94 623.588C714.937 623.473 714.851 623.351 714.799 623.23C714.679 623.275 714.52 623.284 714.444 623.377C714.342 623.493 714.288 623.668 714.255 623.835C714.018 624.889 713.792 625.939 713.565 626.99C713.523 627.134 713.534 627.297 713.514 627.523ZM712.097 623.677C711.974 623.633 711.841 623.594 711.718 623.551C711.719 623.743 711.759 623.946 711.72 624.128C711.572 624.789 711.384 625.439 711.245 626.096C711.195 626.333 711.239 626.6 711.229 626.848C711.479 626.727 711.764 626.632 711.976 626.448C712.087 626.355 712.112 626.114 712.112 625.921C712.14 625.332 712.153 624.736 712.151 624.132C712.16 623.987 712.118 623.836 712.097 623.677ZM703.384 616.441C703.477 616.47 703.571 616.498 703.66 616.516C703.717 616.186 703.769 615.845 703.816 615.518C703.722 615.489 703.643 615.468 703.55 615.439C703.493 615.769 703.436 616.1 703.384 616.441Z" fill="#009564"/>
<path d="M729.408 614.677C729.053 614.784 728.703 614.902 728.338 614.987C727.609 615.158 727.003 614.849 726.719 614.196C726.425 613.547 726.611 612.919 727.246 612.56C727.946 612.163 728.66 611.799 729.379 611.445C729.721 611.281 729.823 611.069 729.691 610.659C729.419 609.877 729.187 609.081 728.945 608.289C728.758 607.675 728.923 607.105 729.342 606.8C729.77 606.492 730.319 606.487 730.666 606.967C731.104 607.551 731.481 608.206 731.735 608.869C732.253 610.268 732.237 610.286 733.507 609.827C733.735 609.743 733.972 609.655 734.204 609.581C734.984 609.316 735.755 609.664 736.101 610.43C736.437 611.175 736.163 612.023 735.46 612.333C734.999 612.541 734.515 612.721 734.031 612.875C733.572 613.033 733.467 613.321 733.647 613.813C733.878 614.448 734.089 615.09 734.256 615.737C734.49 616.619 734.311 617.182 733.801 617.434C733.345 617.652 732.891 617.585 732.562 617.147C732.139 616.571 731.796 615.941 731.437 615.328C731.334 615.143 731.255 614.936 731.191 614.736C731.03 614.262 730.734 614.136 730.329 614.286C730.013 614.403 729.706 614.517 729.39 614.634C729.404 614.666 729.408 614.677 729.408 614.677Z" fill="#009564"/>
<path d="M616.967 76.2356C616.967 76.2356 468.659 -22.6848 397.992 28.8991C362.65 54.6971 372.345 95.9843 338.72 123.984C311.087 146.994 279.922 136.596 255.164 162.676C228.627 190.631 222.176 216.763 221.043 255.291C218.256 350.019 353.62 499.99 406.224 412.119C434.012 365.7 588.329 347.097 633.431 423.644C638.652 432.505 637.547 440.932 633.431 450.811C629.315 460.69 613.488 460.785 598.445 450.811C573.935 434.561 609.272 400.896 633.431 384.129C674.901 355.347 720.562 376.184 756.502 423.644C779.828 454.449 781.677 481.407 779.14 519.964C777.154 550.154 776.342 571.214 756.502 594.056C731.066 623.341 698.078 610.291 661.832 624.104C634.851 634.387 609.2 628.831 593.917 653.329C576.04 681.984 603.919 684.803 589.801 715.484C572.867 752.284 534.404 755.02 493.896 755C428.198 754.967 442.488 696.251 380.704 673.91C355.618 664.84 334.012 676.757 314.024 659.092C314.024 659.092 260.638 621.822 221.043 616C187.844 611.118 167.282 613.338 135.5 624.104C109.329 632.97 97.5061 644.566 74.0003 659.092C48.7709 674.683 25.1656 675.444 10.9996 701.5C-3.64316 728.433 -1.69981 752.098 10.9999 780C22.3273 804.887 34.7232 820.879 61.5001 828.5C97.048 838.618 155.802 828.79 184.5 805.5C192.771 798.788 196.942 794.165 202.772 785.25M202.772 785.25C209.907 777.342 216.487 774.628 221.043 765C227.807 750.703 232.786 735.095 221.043 724.5C210.447 714.94 195.096 714.94 184.5 724.5C172.758 735.095 177.736 750.703 184.5 765C189.056 774.628 195.636 777.342 202.772 785.25ZM202.772 785.25C219.653 785.25 229.183 783.777 246 785.25C264.599 786.879 275.47 787.575 293 794C310.988 800.592 322.088 804.821 335.5 818.5C364.176 847.748 360.595 885.01 352.5 922C346.999 947.14 320.153 950.505 314.024 975.5C310.117 991.43 308.456 1002.07 314.024 1017.5C322.706 1041.56 341.052 1050.48 365.5 1058C385.47 1064.14 398.107 1058 419 1058C448.249 1058 467.774 1071.16 493.896 1058C513.411 1048.17 520.943 1036.04 532.5 1017.5C544.262 998.627 542.331 984.025 552 964C555.456 956.842 561.5 946 561.5 946" stroke="#2A3B5E" stroke-opacity="0.3" stroke-linecap="round" stroke-dasharray="3 9"/>
</svg>
