<svg width="374" height="304" viewBox="0 0 374 304" fill="none" xmlns="http://www.w3.org/2000/svg">
<path d="M34.1258 62.0695L32.5853 61.7199C32.4052 61.681 32.2251 61.7199 32.1051 61.8364L30.9247 62.8659C30.6046 63.1572 30.0644 62.9436 30.0244 62.5163L29.9044 60.9818C29.8843 60.807 29.7843 60.6516 29.6443 60.5739L28.2638 59.7969C27.8837 59.5833 27.9237 59.0394 28.3238 58.8646L29.7843 58.2819C29.9444 58.2236 30.0644 58.0682 30.1044 57.9128L30.4245 56.4172C30.5246 55.9898 31.0648 55.8539 31.3448 56.1841L32.3652 57.3495C32.4852 57.4855 32.6453 57.5438 32.8254 57.5243L34.4059 57.3689C34.846 57.3301 35.1461 57.7963 34.9261 58.1653L34.1058 59.4667C34.0058 59.6221 34.0058 59.7969 34.0658 59.9523L34.706 61.3508C34.9261 61.7393 34.566 62.1666 34.1258 62.0695Z" fill="#F1E66B"/>
<path d="M72.1258 217.07L70.5853 216.72C70.4052 216.681 70.2251 216.72 70.1051 216.836L68.9247 217.866C68.6046 218.157 68.0644 217.944 68.0244 217.516L67.9044 215.982C67.8843 215.807 67.7843 215.652 67.6443 215.574L66.2638 214.797C65.8837 214.583 65.9237 214.039 66.3238 213.865L67.7843 213.282C67.9444 213.224 68.0644 213.068 68.1044 212.913L68.4245 211.417C68.5246 210.99 69.0648 210.854 69.3448 211.184L70.3652 212.35C70.4852 212.485 70.6453 212.544 70.8254 212.524L72.4059 212.369C72.846 212.33 73.1461 212.796 72.9261 213.165L72.1058 214.467C72.0058 214.622 72.0058 214.797 72.0658 214.952L72.706 216.351C72.9261 216.739 72.566 217.167 72.1258 217.07Z" fill="#F1E66B"/>
<path d="M365.126 148.07L363.585 147.72C363.405 147.681 363.225 147.72 363.105 147.836L361.925 148.866C361.605 149.157 361.064 148.944 361.024 148.516L360.904 146.982C360.884 146.807 360.784 146.652 360.644 146.574L359.264 145.797C358.884 145.583 358.924 145.039 359.324 144.865L360.784 144.282C360.944 144.224 361.064 144.068 361.104 143.913L361.425 142.417C361.525 141.99 362.065 141.854 362.345 142.184L363.365 143.35C363.485 143.485 363.645 143.544 363.825 143.524L365.406 143.369C365.846 143.33 366.146 143.796 365.926 144.165L365.106 145.467C365.006 145.622 365.006 145.797 365.066 145.952L365.706 147.351C365.926 147.739 365.566 148.167 365.126 148.07Z" fill="#F1E66B"/>
<path d="M260.126 21.0695L258.585 20.7199C258.405 20.681 258.225 20.7199 258.105 20.8364L256.925 21.8659C256.605 22.1572 256.064 21.9436 256.024 21.5163L255.904 19.9818C255.884 19.807 255.784 19.6516 255.644 19.5739L254.264 18.7969C253.884 18.5833 253.924 18.0394 254.324 17.8646L255.784 17.2819C255.944 17.2236 256.064 17.0682 256.104 16.9128L256.425 15.4172C256.525 14.9898 257.065 14.8539 257.345 15.1841L258.365 16.3495C258.485 16.4855 258.645 16.5438 258.825 16.5243L260.406 16.3689C260.846 16.3301 261.146 16.7963 260.926 17.1653L260.106 18.4667C260.006 18.6221 260.006 18.7969 260.066 18.9523L260.706 20.3508C260.926 20.7393 260.566 21.1666 260.126 21.0695Z" fill="#F1E66B"/>
<path d="M65.2507 127.202L63.9302 126.903C63.7759 126.869 63.6216 126.903 63.5187 127.003L62.5069 127.885C62.2325 128.135 61.7695 127.952 61.7352 127.585L61.6323 126.27C61.6152 126.12 61.5294 125.987 61.4094 125.92L60.2261 125.254C59.9003 125.071 59.9346 124.605 60.2776 124.455L61.5294 123.956C61.6666 123.906 61.7695 123.773 61.8038 123.64L62.0782 122.358C62.1639 121.991 62.6269 121.875 62.867 122.158L63.7416 123.157C63.8445 123.273 63.9817 123.323 64.136 123.307L65.4908 123.173C65.868 123.14 66.1253 123.54 65.9366 123.856L65.2335 124.971C65.1478 125.105 65.1478 125.254 65.1992 125.388L65.748 126.586C65.9366 126.919 65.628 127.286 65.2507 127.202Z" fill="#C6C6C6"/>
<path d="M355.251 31.2024L353.93 30.9027C353.776 30.8695 353.622 30.9028 353.519 31.0026L352.507 31.885C352.233 32.1348 351.769 31.9516 351.735 31.5854L351.632 30.2701C351.615 30.1202 351.529 29.9871 351.409 29.9205L350.226 29.2545C349.9 29.0714 349.935 28.6052 350.278 28.4553L351.529 27.9559C351.667 27.9059 351.769 27.7727 351.804 27.6395L352.078 26.3576C352.164 25.9913 352.627 25.8748 352.867 26.1578L353.742 27.1567C353.844 27.2733 353.982 27.3232 354.136 27.3066L355.491 27.1734C355.868 27.1401 356.125 27.5397 355.937 27.856L355.234 28.9715C355.148 29.1047 355.148 29.2545 355.199 29.3877L355.748 30.5864C355.937 30.9194 355.628 31.2857 355.251 31.2024Z" fill="#C6C6C6"/>
<path d="M95.2507 20.2024L93.9302 19.9027C93.7759 19.8695 93.6216 19.9028 93.5187 20.0026L92.5069 20.885C92.2325 21.1348 91.7695 20.9516 91.7352 20.5854L91.6323 19.2701C91.6152 19.1202 91.5294 18.9871 91.4094 18.9205L90.2261 18.2545C89.9003 18.0714 89.9346 17.6052 90.2776 17.4553L91.5294 16.9559C91.6666 16.9059 91.7695 16.7727 91.8038 16.6395L92.0782 15.3576C92.1639 14.9913 92.6269 14.8748 92.867 15.1578L93.7416 16.1567C93.8445 16.2733 93.9817 16.3232 94.136 16.3066L95.4908 16.1734C95.868 16.1401 96.1253 16.5397 95.9366 16.856L95.2335 17.9715C95.1478 18.1047 95.1478 18.2545 95.1992 18.3877L95.748 19.5864C95.9366 19.9194 95.628 20.2857 95.2507 20.2024Z" fill="#C6C6C6"/>
<path d="M304.251 203.202L302.93 202.903C302.776 202.869 302.622 202.903 302.519 203.003L301.507 203.885C301.233 204.135 300.769 203.952 300.735 203.585L300.632 202.27C300.615 202.12 300.529 201.987 300.409 201.92L299.226 201.254C298.9 201.071 298.935 200.605 299.278 200.455L300.529 199.956C300.667 199.906 300.769 199.773 300.804 199.64L301.078 198.358C301.164 197.991 301.627 197.875 301.867 198.158L302.742 199.157C302.844 199.273 302.982 199.323 303.136 199.307L304.491 199.173C304.868 199.14 305.125 199.54 304.937 199.856L304.234 200.971C304.148 201.105 304.148 201.254 304.199 201.388L304.748 202.586C304.937 202.919 304.628 203.286 304.251 203.202Z" fill="#C6C6C6"/>
</svg>
