<svg width="681" height="906" viewBox="0 0 681 906" fill="none" xmlns="http://www.w3.org/2000/svg">
<path d="M222.191 48.3074C222.042 47.5154 221.703 46.8089 221.217 46.1334C220.519 45.1529 219.888 44.1315 219.245 43.1222C219.187 43.0253 219.213 42.794 219.291 42.716C220.047 41.9653 220.81 41.2339 221.604 40.5227C221.75 40.3911 222.07 40.3178 222.251 40.3952C223.67 40.9564 225.076 41.5296 226.478 42.1465C227.272 42.4906 227.563 42.4977 228.157 41.9343C228.726 41.395 228.553 40.3821 227.809 40.0528C225.795 39.1691 223.781 38.3106 221.86 37.1925C220.423 36.3541 218.873 35.7303 217.364 35.0269C217.22 34.9637 216.996 34.9158 216.887 34.9862C216.6 35.1678 216.385 36.2949 216.536 36.6599C216.838 37.4024 217.207 38.0915 218.079 38.3072C218.235 38.3458 218.374 38.4526 218.524 38.5223C219.439 39.0039 219.439 39.0039 218.875 39.7696C218.815 39.8548 218.761 39.934 218.695 40.0127C217.828 41.0409 217.456 40.9987 216.58 39.8342C216.017 39.0798 215.473 38.2948 214.819 37.6304C213.601 36.3812 212.298 35.2034 211.032 34.0021C210.563 33.5535 210.548 33.4649 210.972 33.0446C211.776 32.2459 212.587 31.4413 213.392 30.6426L213.385 30.636C214.214 29.8134 215.049 29.0098 215.859 28.1674C216.016 27.9987 216.182 27.6922 216.128 27.4887C215.972 26.9225 215.797 26.3115 215.451 25.8434C214.984 25.2001 214.346 24.6747 213.782 24.1023C213.522 23.8455 213.454 23.5911 213.607 23.2589C213.873 22.6994 214.094 22.119 214.36 21.5721C214.591 21.1115 214.802 20.6187 215.127 20.2441C215.899 19.3748 216.715 18.539 217.557 17.7295C219.101 16.2611 220.939 15.4658 223.191 15.6882C223.781 15.7466 223.901 15.8589 223.841 16.4466C223.597 18.9795 223.391 21.5142 223.073 24.0312C222.869 25.6363 222.492 27.2208 222.195 28.8154C222.025 29.731 222.272 30.5276 223.026 30.9767C223.691 31.3714 223.857 31.8376 223.681 32.5017C223.658 32.5886 223.66 32.6766 223.65 32.7641C223.606 33.786 224.123 34.4441 225.125 34.6596C225.573 34.7554 226.016 34.8951 226.457 34.9844C226.831 35.0643 227.21 35.1507 227.588 35.1492C228.677 35.1236 229.076 34.7273 229.187 33.6393C229.202 33.4955 229.223 33.3458 229.226 33.2014C229.273 32.5754 229.345 31.9631 229.925 31.6064C230.004 31.5535 230.07 31.4623 230.105 31.376C230.395 30.56 230.761 29.7727 230.951 28.9271C231.655 25.6802 232.296 22.4179 232.968 19.1633C233.085 18.6096 233.171 18.5633 233.748 18.6211C233.853 18.6322 233.953 18.6493 234.052 18.6538C234.877 18.7482 235.312 18.523 235.516 17.7283C235.742 16.8341 235.931 15.913 236.021 14.9874C236.152 13.7371 235.815 13.3385 234.581 13.0182C233.012 12.6198 232.258 11.6179 232.319 10.0377C232.328 9.88733 232.343 9.74355 232.321 9.59806C232.278 9.31966 232.276 8.99923 232.129 8.78519C231.84 8.36367 231.688 7.94839 231.676 7.44531C231.687 6.85532 231.377 6.55845 230.818 6.49519C230.365 6.44305 229.912 6.41606 229.459 6.36392C229.043 6.31348 228.806 6.47221 228.623 6.85959C228.493 7.13005 228.227 7.39427 227.951 7.48841C227.551 7.62719 227.315 7.86139 227.238 8.25988C227.156 8.70211 227.067 9.15035 227.028 9.60086C226.995 10.0202 226.826 10.2009 226.387 10.2248C226.047 10.2407 225.672 10.368 225.417 10.5825C225.156 10.7904 224.953 10.8502 224.641 10.7354C222.736 10.0389 220.781 9.83011 218.822 9.70277C218.227 9.66297 217.553 9.72639 217.058 9.9864C215.945 10.5762 214.846 11.2169 213.874 12.0142C212.265 13.3163 211.054 14.9946 210.095 16.873C209.119 18.7819 208.198 20.7123 207.935 22.9177C207.853 23.6426 207.524 24.1489 206.99 24.5768C206.267 25.153 205.531 25.7161 204.89 26.3778C204.388 26.8888 203.858 27.2351 203.135 27.2963C202.505 27.3554 201.878 27.5277 201.252 27.4928C200.718 27.4558 200.306 27.5437 199.967 27.9051C199.72 28.1639 199.447 28.409 199.281 28.7155C199.121 29.016 198.927 29.4531 199.038 29.7283C199.361 30.5283 199.824 31.2782 200.251 32.0389C200.289 32.1035 200.389 32.1458 200.465 32.1869C200.615 32.2818 200.778 32.352 200.917 32.4714C201.719 33.1174 202.478 33.8306 203.322 34.422C204.254 35.0803 205.137 35.7866 205.918 36.6327C208.905 39.8976 212.201 42.8815 214.951 46.3806C216.26 48.0424 218.05 49.1356 219.767 50.301C220.151 50.5635 220.579 50.6019 220.991 50.4512C221.739 50.1713 222.34 49.1372 222.191 48.3074ZM227.616 32.6503C227.59 32.869 227.539 33.074 227.484 33.3604C227.093 33.3237 226.721 33.2941 226.354 33.2459C226.081 33.2083 225.953 33.0265 225.91 32.7607C225.787 32.0201 225.859 31.9355 226.584 31.9749C226.733 31.9818 226.882 32.0137 227.024 31.9888C227.548 31.8683 227.683 32.1069 227.616 32.6503ZM233.941 14.9928C234.814 15.0265 234.884 15.1113 234.612 15.9092C234.491 16.2743 234.357 16.6388 234.194 17.0836C233.94 17.0783 233.7 17.1238 233.488 17.0513C233.4 17.0222 233.338 16.7367 233.34 16.5672C233.356 16.191 233.44 15.8116 233.462 15.4294C233.473 15.097 233.606 14.9775 233.941 14.9928ZM231.836 16.3099C231.181 19.7914 230.502 23.2718 229.854 26.7599C229.661 27.7625 229.542 28.781 229.368 29.7906C229.341 29.9339 229.178 30.1463 229.061 30.1472C227.755 30.144 226.441 30.109 225.128 30.074C224.992 30.0678 224.848 30.0047 224.667 29.9524C224.645 29.7944 224.598 29.6478 224.613 29.5165C224.798 27.6468 224.996 25.7776 225.181 23.9078C225.245 23.2386 225.204 22.5457 225.319 21.8914C225.723 19.6233 226.271 17.3933 226.427 15.0761C226.456 14.7257 226.609 14.6385 226.938 14.6849C228.317 14.8862 229.702 15.0564 231.087 15.2642C231.838 15.3677 231.979 15.5626 231.836 16.3099ZM231.7 12.9052C231.856 12.9563 232.058 13.1163 232.105 13.263C232.159 13.4539 232.077 13.6763 232.04 13.9321C231.829 13.9351 231.669 13.9654 231.532 13.9215C230.018 13.4941 228.515 13.0547 227 12.6148C226.77 12.5477 226.539 12.4681 226.562 12.1362C226.585 11.8169 226.793 11.6882 227.06 11.7318C227.737 11.8319 228.427 11.9326 229.099 12.1015C229.971 12.3299 230.839 12.6146 231.7 12.9052ZM228.968 8.91069C229.602 9.01508 230.226 9.19436 230.861 9.34905C230.917 9.35789 230.961 9.4039 231.068 9.46531C231.077 9.61023 231.119 9.78801 231.098 9.95038C230.922 11.1421 231.112 11.0943 229.915 10.738C229.547 10.627 229.179 10.5033 228.812 10.4049C228.482 10.3207 228.372 10.1209 228.42 9.8153C228.453 9.61577 228.441 9.38281 228.536 9.22385C228.619 9.07689 228.825 8.8853 228.968 8.91069ZM219.151 47.7978C218.532 47.0219 217.95 46.2226 217.344 45.4473C215.391 42.9584 213.202 40.7036 210.982 38.4536C209.891 37.3484 208.776 36.2797 207.517 35.3678C207.277 35.1935 207.128 34.904 206.907 34.6991C206.419 34.2308 205.961 33.7073 205.413 33.3242C204.248 32.4982 203.09 31.6663 202.202 30.5264C202.011 30.2789 201.916 29.9605 201.773 29.665C202.062 29.5588 202.336 29.3641 202.633 29.3525C203.016 29.3324 203.444 29.3708 203.782 29.5371C204.214 29.7516 204.478 29.6443 204.744 29.3801C205.985 28.1742 207.226 26.9683 208.466 25.7625C208.484 25.7445 208.502 25.7139 208.527 25.7024C210.143 24.4195 210.724 22.5302 211.316 20.5911C212.499 16.7003 214.845 13.805 218.68 12.3535C220.202 11.7698 221.791 11.6854 223.435 12.0873C223.727 12.1572 223.836 12.3067 223.836 12.5894C223.838 12.8972 223.833 13.2111 223.852 13.5261C223.879 13.8477 223.732 13.9163 223.434 13.9027C222.715 13.8572 222.001 13.7932 221.29 13.8297C219.355 13.9359 217.688 14.626 216.32 15.958C215.436 16.8221 214.547 17.6797 213.682 18.5636C212.727 19.5375 212.293 20.8054 212.015 22.1495C211.937 22.5354 211.891 22.9291 211.832 23.3221C211.769 23.7841 211.878 24.2037 212.184 24.582C212.719 25.2472 213.249 25.9185 213.772 26.5832C214.136 27.0458 214.157 27.141 213.763 27.5062C212.982 28.2431 212.125 28.9137 211.388 29.6966C210.519 30.6242 209.719 31.6241 208.925 32.618C208.637 32.9817 208.622 33.4208 208.923 33.8554C209.365 34.485 209.765 35.1566 210.274 35.7326C211.107 36.6816 212.02 37.5651 212.895 38.4721C212.883 38.4841 212.877 38.4901 212.865 38.5021C214.058 39.7377 215.306 40.9317 216.426 42.2268C217.075 42.9726 217.53 43.898 218.088 44.7339C218.614 45.5118 219.165 46.2782 219.691 47.0561C219.781 47.1858 219.872 47.3784 219.856 47.5097C219.824 47.7092 219.723 47.9119 219.59 48.044C219.566 48.0806 219.259 47.9221 219.151 47.7978Z" fill="#FF719C"/>
<path d="M212.224 27.3428C211.965 26.5838 211.405 26.1878 210.519 26.1158C209.849 26.0601 209.329 26.2937 208.894 26.751C208.714 26.9688 208.508 27.1729 208.359 27.4109C207.989 27.9842 208.007 28.9958 208.362 29.3762C208.946 30.0057 210.07 30.189 210.76 29.7622C211.034 29.5926 211.308 29.4105 211.57 29.2153C212.202 28.7545 212.457 28.0253 212.224 27.3428ZM210.107 28.5708C209.977 28.0688 210.092 27.9422 210.6 27.9906C210.652 28.3634 210.426 28.4849 210.107 28.5708Z" fill="#FF719C"/>
<path d="M226.18 21.467C226.029 21.8993 226.193 22.277 226.528 22.5998C227.116 23.16 227.791 23.172 228.467 23.0147C230.367 22.5683 230.479 20.2205 229.597 19.2578C229.302 19.0875 229.01 18.7855 228.713 18.7719C227.958 18.7374 227.214 18.9104 226.861 19.6597C226.577 20.2366 226.388 20.8616 226.18 21.467ZM228.61 20.4048C228.714 20.3782 228.927 20.4758 228.991 20.5791C229.241 20.9482 229.161 21.4904 228.865 21.7969C228.551 22.1213 228.227 22.0187 228.087 21.5668C227.953 21.134 228.204 20.5243 228.61 20.4048Z" fill="#FF719C"/>
<path d="M49.6531 410.201C49.5951 409.955 49.3731 409.739 49.186 409.529C48.9408 409.251 48.6759 408.988 48.3931 408.75C45.925 406.6 43.4459 404.452 40.9668 402.304C39.6399 401.157 38.3 400.001 36.9443 398.882C36.245 398.298 35.4835 397.805 34.8019 397.196C34.513 396.926 34.2631 396.503 34.2024 396.123C33.9853 394.8 33.8557 393.459 33.6824 392.127C33.6305 391.735 33.7952 391.468 34.1613 391.31C34.3191 391.246 34.4659 391.185 34.6237 391.121C35.9058 390.599 36.5725 389.578 36.3842 388.226C36.2313 387.181 35.7471 386.3 34.4221 386.416C33.9877 386.454 33.5335 386.506 33.1114 386.609C31.9611 386.871 30.8191 387.177 29.6798 387.438C28.7045 387.667 27.7318 387.851 26.7606 388.102C25.8637 388.328 24.9772 388.608 24.0865 388.866C24.0844 388.855 24.0824 388.844 24.0803 388.834C23.5995 388.925 23.1255 388.992 22.6508 389.116C22.1651 389.241 21.6836 389.388 21.2191 389.566C20.6365 389.777 20.2198 390.146 20.1897 390.823C20.124 392.089 20.968 393.137 22.235 393.311C22.7117 393.377 23.2042 393.407 23.6857 393.439C23.9712 393.452 24.1529 393.574 24.1972 393.868C24.4484 395.252 24.7235 396.643 24.9637 398.03C25.0839 398.723 25.0927 399.426 24.8358 400.101C24.2851 401.615 23.7433 403.116 22.8607 404.491C22.2513 405.457 21.7567 406.49 21.26 407.512C20.4033 409.263 19.5985 411.049 18.7309 412.802C17.9281 414.419 17.4888 416.102 17.3513 417.884C17.2514 419.268 17.6754 420.429 18.5434 421.484C19.1921 422.279 20.0069 422.695 21.0301 422.658C23.0416 422.579 25.0237 422.405 26.943 421.661C28.2818 421.139 29.7093 420.846 31.0965 420.461C33.5076 419.803 35.9078 419.147 38.323 418.51C39.8544 418.109 41.3919 417.739 42.9355 417.402C43.6308 417.248 44.3521 417.111 45.0652 417.111C46.6812 417.095 48.0015 416.476 49.1313 415.39C49.7051 414.834 50.339 414.177 50.2859 413.359C50.2115 412.31 49.8975 411.251 49.6531 410.201ZM24.2695 406.607C24.8153 405.665 25.3632 404.733 25.9459 403.806C26.0415 403.654 26.2717 403.554 26.4643 403.495C26.7621 403.394 26.8817 403.248 26.8879 402.923C26.89 402.576 26.9836 402.234 27.0314 401.889C27.039 401.809 27.0444 401.719 27.0192 401.645C26.7966 401.128 27.0363 400.78 27.4175 400.462C27.6135 400.302 27.8116 400.153 27.9688 399.966C28.2365 399.647 28.1785 399.401 27.8213 399.189C27.7585 399.156 27.6956 399.123 27.6437 399.088C27.4293 398.972 27.109 398.954 27.1199 398.594C27.1418 398.232 27.2764 397.927 27.6036 397.742C27.788 397.64 27.9766 397.56 28.148 397.449C28.4622 397.255 28.5531 396.958 28.4111 396.627C28.2711 396.307 28.002 396.201 27.6564 396.289C27.5601 396.318 27.4747 396.346 27.3763 396.364C27.1291 396.434 26.9003 396.421 26.7903 396.14C26.6825 395.869 26.746 395.667 27.0117 395.516C27.33 395.344 27.6483 395.172 27.9536 394.991C28.259 394.81 28.5062 394.562 28.3212 394.183C28.1512 393.824 27.8192 393.864 27.4845 393.95C27.268 394.002 27.0535 394.065 26.835 394.107C26.5945 394.152 26.4696 394.03 26.4573 393.787C26.4396 393.275 26.7614 392.823 27.2682 392.749C27.7313 392.684 28.1957 392.686 28.6629 392.642C28.8746 392.624 29.1021 392.57 29.3015 392.487C29.501 392.405 29.6902 392.268 29.8726 392.155C30.5911 391.706 30.6875 391.319 30.2142 390.614C30.118 390.464 29.8598 390.357 29.6658 390.349C29.3714 390.349 29.0586 390.43 28.7676 390.508C28.3455 390.61 27.9487 390.786 27.5293 390.843C26.151 391.037 24.8211 391.546 23.4031 391.591C22.897 391.608 22.5494 391.506 22.1581 391.055C22.4081 390.94 22.5993 390.814 22.8138 390.751C23.2031 390.655 23.6007 390.602 23.992 390.517C25.66 390.179 27.3259 389.83 28.9938 389.492C29.1031 389.471 29.2104 389.439 29.3176 389.408C29.8825 389.223 30.4378 389.106 31.0552 389.079C31.8188 389.046 32.5763 388.802 33.3263 388.638C33.5121 388.602 33.6937 388.546 34.0066 388.464C33.9082 388.662 33.885 388.778 33.8166 388.836C33.2565 389.344 32.7005 389.875 32.1124 390.355C31.7401 390.661 31.5242 391.015 31.5924 391.494C31.8593 393.379 32.137 395.262 32.4148 397.144C32.4325 397.297 32.4831 397.445 32.4988 397.587C32.5813 398.5 32.9234 399.229 33.7921 399.691C34.1322 399.873 34.3897 400.216 34.641 400.526C35.2447 401.262 35.9857 401.826 36.8688 402.185C37.0662 402.271 37.2929 402.272 37.5081 402.332C37.7362 402.401 37.9971 402.463 38.1808 402.596C38.5742 402.88 38.9102 403.219 39.2858 403.528C39.4996 403.7 39.5241 403.83 39.2735 404C38.8117 404.312 38.365 404.642 37.9162 404.962C37.5685 405.218 37.1642 405.295 36.7776 405.167C35.1944 404.639 33.7717 405.076 32.4165 405.869C31.8762 406.184 31.3659 406.538 30.8366 406.851C29.547 407.632 28.1666 407.815 26.7193 407.407C25.9653 407.192 25.2345 406.86 24.4224 406.936C24.1799 406.971 24.1759 406.77 24.2695 406.607ZM39.2369 407.151C39.2307 407.297 39.2027 407.448 39.1856 407.597C39.0947 408.252 38.9041 408.5 38.4437 408.52C37.9048 408.544 37.5313 408.246 37.4098 407.665C37.3087 407.192 37.3777 407.078 37.8565 406.976C38.1714 406.905 38.4713 406.815 38.7861 406.744C39.0921 406.686 39.256 406.834 39.2369 407.151ZM38.2462 415.359C38.0502 415.519 37.6595 415.191 37.594 414.845C37.4957 414.327 37.8257 413.738 38.3188 413.533C38.6979 413.383 39.1412 413.691 39.1056 414.1C39.055 414.669 38.6602 415.035 38.2462 415.359ZM48.1624 412.967C48.1139 413.725 47.6282 414.209 46.9335 414.486C46.87 414.509 46.8065 414.532 46.73 414.547C44.5689 415.09 42.4098 415.645 40.2467 416.177C39.9666 416.253 39.6784 416.285 39.3901 416.317C39.3464 416.325 39.2925 416.28 39.173 416.246C39.395 415.925 39.647 415.642 39.7994 415.311C39.9654 414.933 40.156 414.505 40.1281 414.119C40.0449 412.904 39.0771 412.338 37.9078 412.739C36.8764 413.09 36.2397 413.793 36.2779 414.591C36.3024 415.258 36.4778 415.884 36.9094 416.429C36.9805 416.505 37.0228 416.609 37.1191 416.758C36.7905 416.877 36.4948 416.989 36.1949 417.079C35.0918 417.411 33.9887 417.743 32.8815 418.053C32.5687 418.135 32.2204 418.089 31.9055 418.16C31.4089 418.287 30.9315 418.456 30.4431 418.627C28.2663 419.386 26.1004 420.143 23.9235 420.902C23.2753 421.125 22.6108 421.083 21.9517 420.951C21.7058 420.908 21.6293 420.743 21.6498 420.493C21.7264 419.584 21.2053 419.224 20.3809 419.593C20.2976 419.631 20.2122 419.658 20.1268 419.686C20.0968 419.646 20.0756 419.595 20.0455 419.556C20.2655 419.402 20.4725 419.24 20.6965 419.108C21.1514 418.82 21.3516 418.503 21.2355 418.189C21.1044 417.856 20.6612 417.727 20.1448 417.87C20.0485 417.899 19.9542 417.94 19.8647 417.945C19.6967 417.955 19.3866 417.991 19.3675 417.95C19.3047 417.738 19.2685 417.488 19.3341 417.296C19.384 417.141 19.5862 417.014 19.7488 416.916C20.3416 416.58 20.9386 416.265 21.5315 415.929C21.7754 415.782 22.0131 415.603 22.2399 415.426C22.4953 415.221 22.5247 414.958 22.382 414.683C22.2434 414.43 22.016 414.305 21.725 414.382C21.3288 414.502 20.9368 414.644 20.5556 414.783C20.4177 414.831 20.2968 414.91 20.1629 414.98C20.014 414.494 20.1637 414.208 20.622 413.998C21.4157 413.647 22.2224 413.304 23.0161 412.952C23.2046 412.872 23.389 412.77 23.5734 412.668C23.863 412.523 23.986 412.276 23.885 411.982C23.7819 411.677 23.5353 411.511 23.2006 411.597C22.6494 411.735 22.1153 411.903 21.5682 412.063C21.4391 412.099 21.2991 412.136 21.1679 412.161C21.1358 412.111 21.1037 412.061 21.0716 412.012C21.3141 411.798 21.5355 411.532 21.8121 411.379C22.6024 410.95 23.4139 410.572 24.2342 410.182C24.7936 409.908 25.3681 409.654 25.2083 408.812C25.4214 408.861 25.5608 408.879 25.6953 408.932C26.8386 409.409 27.982 409.528 29.2189 409.305C30.5542 409.064 31.7311 408.583 32.8308 407.816C33.3896 407.419 34.0446 407.172 34.6696 406.886C34.8254 406.812 35.0152 406.798 35.1942 406.787C36.0104 406.733 36.1203 406.835 36.235 407.619C36.2875 407.955 36.364 408.299 36.5019 408.608C36.8563 409.403 37.6124 409.808 38.4791 409.722C39.5446 409.61 40.1232 409.198 40.3009 408.225C40.4218 407.609 40.3427 406.953 40.3701 406.321C40.3797 406.073 40.3592 405.786 40.4665 405.576C40.7213 405.069 41.0471 404.996 41.4787 405.361C42.5598 406.287 43.6102 407.229 44.6715 408.169C45.5688 408.961 46.4949 409.725 47.3349 410.573C47.981 411.234 48.2213 412.083 48.1624 412.967Z" fill="#FF719C"/>
<path d="M23.0607 416.061C22.5921 416.217 22.3243 416.536 22.2443 417.01C22.2019 417.264 22.1964 417.534 22.2217 417.786C22.3486 419.172 23.4005 420.002 24.6663 419.751C25.4751 419.598 25.8898 419.217 26.0115 418.545C26.33 416.762 24.8062 415.473 23.0607 416.061ZM24.4239 418.533C24.0503 418.592 23.7477 418.37 23.6958 417.977C23.6412 417.629 23.8079 417.374 24.1051 417.329C24.4569 417.273 24.7745 417.515 24.8352 417.895C24.9008 418.241 24.7429 418.483 24.4239 418.533Z" fill="#FF719C"/>
<path d="M27.4653 411.453C26.2642 412.106 26.1178 414.08 27.2292 414.865C27.8823 415.323 28.5949 415.379 29.3164 415.063C29.8711 414.824 30.1431 414.347 30.1787 413.758C30.1924 413.532 30.1473 413.295 30.1412 413.083C30.0852 412.848 30.0442 412.632 29.9705 412.422C29.6454 411.544 28.2757 411.009 27.4653 411.453ZM29.1239 413.153C29.1806 413.511 29.2174 413.885 28.8082 413.996C28.5499 414.067 28.2275 414.038 27.9843 413.95C27.9125 413.93 27.9631 413.54 27.9659 413.316C27.9645 413.249 27.996 413.176 28.0185 413.116C28.1046 412.853 28.1416 412.511 28.5447 412.546C28.902 412.579 29.0932 412.812 29.1239 413.153Z" fill="#FF719C"/>
<path d="M29.952 404.397C30.6816 404.661 31.7796 404.062 31.9895 403.318C32.1809 402.655 31.9918 402.076 31.5246 401.583C31.0854 401.118 30.5382 401.098 29.9492 401.277C28.7393 401.406 28.6469 402.351 28.991 403.27C29.1836 403.748 29.4417 404.214 29.952 404.397ZM30.4341 402.46C30.5823 402.466 30.7223 402.607 30.9409 402.745C30.7947 402.929 30.6614 403.122 30.6485 403.113C30.4709 403.013 30.3219 402.884 30.1621 402.758C30.2571 402.662 30.3535 402.453 30.4341 402.46Z" fill="#FF719C"/>
<path d="M453.877 465.474L450.136 464.525C449.698 464.42 449.261 464.525 448.97 464.842L446.103 467.636C445.325 468.427 444.014 467.847 443.916 466.687L443.625 462.522C443.576 462.047 443.333 461.626 442.993 461.415L439.641 459.306C438.717 458.726 438.815 457.25 439.786 456.775L443.333 455.194C443.722 455.035 444.014 454.614 444.111 454.192L444.888 450.132C445.131 448.972 446.443 448.603 447.123 449.5L449.601 452.663C449.893 453.032 450.281 453.19 450.719 453.137L454.557 452.716C455.626 452.61 456.355 453.876 455.82 454.877L453.828 458.41C453.585 458.831 453.585 459.306 453.731 459.728L455.286 463.524C455.82 464.578 454.946 465.738 453.877 465.474Z" fill="#009564"/>
<path d="M625.322 733.098C623.402 733.912 621.506 734.811 619.553 735.521C614.569 737.326 609.555 739.06 604.549 740.815C603.447 741.199 602.35 741.569 601.243 741.944C600.568 742.171 599.958 742.465 599.558 743.11C599.28 743.56 598.823 743.564 598.326 743.501C597.637 743.414 596.942 743.341 596.253 743.395C595.141 743.475 594.14 743.223 593.187 742.689C591.306 741.622 589.998 740.004 588.996 738.173C587.038 734.587 585.6 730.804 585.064 726.733C584.905 725.518 584.973 724.267 584.985 723.027C584.986 722.409 585.289 721.877 585.775 721.516C586.583 720.924 587.412 720.323 588.311 719.859C592.693 717.549 597.338 715.912 601.995 714.246C605.249 713.079 608.397 711.638 611.574 710.291C612.544 709.879 613.435 709.311 614.406 708.9C616.937 707.85 619.5 706.846 622.046 705.802C622.939 705.435 623.709 705.738 624.369 706.265C625.708 707.336 627.03 708.45 627.644 710.136C627.761 710.467 627.953 710.492 628.24 710.346C628.636 710.143 629.032 709.94 629.44 709.766C630.165 709.459 630.83 709.545 631.435 710.084C632.607 711.13 633.85 712.088 634.698 713.449C635.663 714.999 636.186 716.642 635.97 718.478C635.873 719.351 635.751 720.222 635.561 721.074C635.468 721.505 635.227 721.928 634.993 722.312C634.893 722.473 634.661 722.607 634.468 722.665C633.729 722.884 632.969 723.052 632.238 723.291C632.091 723.341 631.929 723.612 631.918 723.783C631.849 725.201 631.795 726.625 631.761 728.04C631.761 728.266 631.84 728.505 631.94 728.712C632.364 729.589 632.114 730.301 631.168 730.714C629.232 731.547 627.287 732.36 625.346 733.183C625.348 733.158 625.335 733.128 625.322 733.098ZM624.398 730.854C624.385 730.824 624.372 730.794 624.363 730.774C625.742 730.189 627.117 729.594 628.5 729.019C629.035 728.804 629.257 728.449 629.23 727.879C629.17 726.752 629.16 725.629 629.135 724.5C629.079 722.03 628.822 719.598 627.979 717.261C626.821 714.107 625.07 711.37 622.522 709.139C622.132 708.793 621.775 708.719 621.27 708.921C620.015 709.43 618.741 709.863 617.477 710.352C616.907 710.57 616.35 710.818 615.801 711.086C615.119 711.411 614.468 711.806 613.777 712.111C611.784 712.98 609.763 713.813 607.766 714.672C607.245 714.893 607.215 715.048 607.599 715.467C608.271 716.191 608.965 716.882 609.627 717.611C612.119 720.329 613.797 723.488 614.578 727.087C615.039 729.207 615.054 731.385 615.006 733.555C614.989 734.191 615.179 734.324 615.759 734.102C618.656 733.004 621.527 731.929 624.398 730.854ZM589.602 733.809C589.922 734.444 590.285 735.264 590.726 736.039C591.552 737.517 592.439 738.969 593.835 740.004C594.294 740.343 594.844 740.585 595.387 740.782C595.858 740.951 596.172 740.699 596.221 740.191C596.261 739.806 596.271 739.434 596.276 739.052C596.292 738.131 596.397 737.22 595.979 736.328C594.454 733.021 592.744 729.816 590.518 726.902C589.691 725.816 588.759 724.822 587.843 723.809C587.704 723.655 587.401 723.652 587.178 723.581C587.109 723.788 586.981 723.997 586.987 724.208C586.982 724.59 587.047 724.966 587.091 725.351C587.42 728.263 588.53 730.939 589.602 733.809ZM601.361 726.97C601.365 726.98 601.365 726.98 601.369 726.99C600.93 727.176 600.491 727.362 600.042 727.553C599.991 727.574 599.939 727.596 599.888 727.618C599.335 727.876 599.013 728.393 599.166 728.945C599.285 729.393 599.462 729.864 599.747 730.219C599.953 730.475 600.413 730.732 600.723 730.695C601.479 730.6 602.241 730.407 602.945 730.133C604.218 729.64 605.462 729.077 606.69 728.509C607.305 728.224 607.917 727.906 608.463 727.519C608.656 727.378 608.822 726.976 608.768 726.737C608.602 725.87 608.003 725.233 607.277 724.805C606.713 724.474 606.155 724.948 605.616 725.153C605.407 725.23 605.216 725.347 605.012 725.433C603.802 725.934 602.576 726.454 601.361 726.97ZM632.578 720.534C633.135 720.453 633.308 720.011 633.303 719.408C633.298 718.804 633.398 718.192 633.317 717.609C633.211 716.882 633.13 716.073 632.767 715.479C632.093 714.412 631.221 713.475 630.413 712.488C630.055 712.047 629.627 712.204 629.22 712.436C628.786 712.692 629.024 712.994 629.149 713.286C629.222 713.456 629.285 713.632 629.384 713.779C630.603 715.696 631.082 717.856 631.509 720.038C631.651 720.821 631.722 720.874 632.578 720.534ZM602.684 724.675C602.748 724.684 602.811 724.692 602.875 724.701C602.966 724.461 603.075 724.236 603.126 723.989C603.422 722.652 603.68 721.308 604.016 719.979C604.127 719.563 604.408 719.147 604.717 718.826C605.143 718.384 605.7 718.528 605.875 719.107C605.98 719.466 606.019 719.865 605.97 720.23C605.863 721.166 605.677 722.112 605.561 723.051C605.539 723.227 605.671 723.563 605.764 723.583C605.991 723.605 606.244 723.521 606.45 723.41C606.569 723.348 606.622 723.135 606.681 722.992C606.837 722.593 606.957 722.198 607.117 721.81C607.461 720.951 607.512 720.93 608.47 720.939C608.554 720.939 608.632 720.894 608.808 720.855C608.609 720.559 608.448 720.295 608.254 720.069C607.928 719.673 607.585 719.296 607.243 718.919C606.511 718.113 605.786 717.292 605.024 716.499C604.453 715.899 604.09 715.981 603.88 716.759C603.657 717.59 603.433 718.421 603.298 719.262C603.033 720.87 602.828 722.477 602.609 724.078C602.592 724.263 602.657 724.473 602.684 724.675ZM596.254 730.798C596.318 730.806 596.392 730.81 596.456 730.819C596.535 730.441 596.644 730.074 596.674 729.693C596.869 727.556 597.04 725.418 597.245 723.277C597.372 721.882 597.563 720.495 597.7 719.095C597.715 718.934 597.596 718.628 597.489 718.603C597.034 718.499 596.386 719.071 596.343 719.563C596.061 722.485 595.823 725.424 595.486 728.357C595.366 729.345 595.756 730.059 596.254 730.798ZM601.381 717.462C601.275 717.412 601.167 717.328 601.058 717.327C600.345 717.297 599.697 717.868 599.65 718.577C599.481 721.058 599.317 723.55 599.149 726.032C599.133 726.193 599.122 726.364 599.152 726.517C599.168 726.641 599.265 726.754 599.327 726.87C599.445 726.808 599.646 726.771 599.688 726.67C599.83 726.325 599.948 725.954 600.022 725.59C600.459 723.03 600.875 720.479 601.306 717.934C601.33 717.793 601.354 717.652 601.381 717.462ZM611.404 725.762C610.886 728.499 610.394 731.07 609.902 733.641C610.528 733.103 610.948 732.307 611.137 731.396C611.231 730.94 611.444 730.648 611.902 730.478C612.08 730.414 612.312 730.138 612.293 729.98C612.146 728.594 611.999 727.208 611.404 725.762ZM608.448 729.711C608.396 729.673 608.329 729.63 608.277 729.593C608.046 729.786 607.744 729.926 607.594 730.168C606.904 731.291 606.893 732.59 606.667 733.838C606.637 733.993 607.069 734.213 607.285 734.407C607.401 734.227 607.571 734.06 607.623 733.872C607.891 732.666 608.14 731.444 608.384 730.237C608.42 730.067 608.427 729.886 608.448 729.711ZM591.715 724.115C591.786 724.084 591.872 724.06 591.944 724.029C591.993 723.13 592.067 722.232 592.092 721.331C592.098 721.233 591.736 721.007 591.633 721.05C591.067 721.278 590.533 721.552 589.997 721.851C589.909 721.9 589.854 722.221 589.923 722.298C590.503 722.919 591.119 723.512 591.715 724.115ZM609.059 721.271C608.991 721.763 608.967 722.129 608.894 722.493C608.751 723.147 608.727 723.739 609.442 724.112C609.563 724.168 609.672 724.312 609.718 724.446C609.957 725.117 610.483 725.048 611.014 724.965C611.025 724.284 609.867 722.032 609.059 721.271ZM598.055 734.807C598.446 735.496 598.712 735.525 599.164 734.918C599.267 734.791 599.367 734.63 599.372 734.474C599.396 733.656 599.42 732.838 599.375 732.027C599.37 731.874 599.078 731.701 598.89 731.627C598.832 731.604 598.583 731.84 598.538 731.99C598.346 732.641 598.179 733.294 598.056 733.963C597.988 734.229 598.043 734.527 598.055 734.807ZM603.012 735.815C604.159 735.59 604.213 735.52 604.281 734.494C604.307 734.019 604.397 733.554 604.463 733.087C604.512 732.722 604.575 732.362 604.603 732.006C604.606 731.898 604.523 731.791 604.476 731.68C604.353 731.732 604.193 731.752 604.113 731.846C604.006 731.963 603.945 732.131 603.905 732.29C603.625 733.3 603.355 734.304 603.085 735.309C603.036 735.449 603.041 735.601 603.012 735.815ZM601.739 732.306C601.617 732.275 601.485 732.248 601.363 732.217C601.356 732.398 601.388 732.586 601.342 732.76C601.166 733.392 600.951 734.018 600.786 734.646C600.726 734.873 600.759 735.12 600.739 735.354C600.996 735.222 601.286 735.11 601.507 734.922C601.623 734.825 601.658 734.597 601.665 734.416C601.716 733.86 601.753 733.298 601.776 732.73C601.79 732.594 601.754 732.454 601.739 732.306ZM593.257 726.167C593.35 726.187 593.443 726.207 593.532 726.217C593.602 725.902 593.668 725.577 593.729 725.267C593.636 725.247 593.557 725.233 593.464 725.213C593.394 725.528 593.323 725.843 593.257 726.167Z" fill="#009564"/>
<path d="M619.265 723.141C618.898 723.273 618.535 723.414 618.16 723.526C617.409 723.749 616.803 723.494 616.54 722.881C616.267 722.272 616.482 721.647 617.145 721.247C617.876 720.807 618.62 720.397 619.368 719.998C619.723 719.811 619.837 719.597 619.718 719.208C619.474 718.468 619.27 717.711 619.055 716.959C618.89 716.376 619.082 715.807 619.521 715.479C619.971 715.146 620.532 715.099 620.866 715.539C621.289 716.073 621.647 716.681 621.879 717.307C622.35 718.629 622.333 718.647 623.648 718.103C623.884 718.003 624.13 717.899 624.369 717.809C625.177 717.491 625.95 717.77 626.271 718.489C626.583 719.188 626.268 720.034 625.538 720.391C625.06 720.629 624.558 720.841 624.058 721.029C623.582 721.219 623.464 721.506 623.627 721.972C623.837 722.572 624.026 723.181 624.169 723.797C624.372 724.637 624.166 725.2 623.635 725.484C623.161 725.732 622.7 725.702 622.383 725.301C621.975 724.773 621.65 724.186 621.309 723.618C621.211 723.446 621.139 723.25 621.082 723.061C620.938 722.611 620.641 722.511 620.221 722.689C619.893 722.828 619.576 722.962 619.248 723.101C619.261 723.131 619.265 723.141 619.265 723.141Z" fill="#009564"/>
<path d="M482 80.5001C482 80.5001 301.843 -39.6592 216 23.0001C173.069 54.3371 184.846 104.489 144 138.5C110.432 166.451 72.5746 153.82 42.5 185.5C10.264 219.457 2.42795 251.199 1.05124 298C-2.33363 413.067 162.1 595.238 226 488.5C259.756 432.115 447.213 409.517 502 502.5C508.342 513.263 507 523.5 502 535.5C497 547.5 477.774 547.615 459.5 535.5C429.727 515.761 472.653 474.868 502 454.5C552.375 419.538 607.842 444.849 651.5 502.5C679.836 539.918 682.081 572.665 679 619.5C676.587 656.172 675.6 681.754 651.5 709.5C620.601 745.072 580.529 729.221 536.5 746C503.725 758.49 472.565 751.742 454 781.5C432.284 816.307 466.151 819.731 449 857C428.43 901.7 381.706 905.025 332.5 905C252.693 904.96 270.052 833.637 195 806.5C164.527 795.482 138.281 809.958 114 788.5C101.46 777.418 90 753 90 753" stroke="#2A3B5E" stroke-opacity="0.3" stroke-linecap="round" stroke-dasharray="3 9"/>
</svg>
