<svg width="1138" height="1188" viewBox="0 0 1138 1188" fill="none" xmlns="http://www.w3.org/2000/svg">
<path d="M348.869 1C316.056 173.863 421.802 364.566 618.5 282.5C671 260.596 1216.36 74 1126.93 484C1085 597.5 965.238 553.329 951 645.5C944.47 687.774 972.343 711.698 966 754C960.752 788.998 953.104 809.591 932 838C861.648 932.705 742.196 856.981 630.5 819C551.529 792.146 525.364 734.46 444.5 714C341.053 687.827 248.848 710.69 179 744.5C125.218 770.534 93.6013 793.091 60 842.5C12.925 911.721 -14.9534 968.746 12.0001 1048C31.2793 1104.69 213.5 1187 213.5 1187" stroke="#2A3B5E" stroke-opacity="0.3" stroke-linecap="round" stroke-dasharray="3 9"/>
</svg>
