<svg width="1439" height="401" viewBox="0 0 1439 401" fill="none" xmlns="http://www.w3.org/2000/svg">
<mask id="mask0" mask-type="alpha" maskUnits="userSpaceOnUse" x="0" y="0" width="1440" height="401">
<rect width="1440" height="401" fill="#F8F7F6"/>
</mask>
<g mask="url(#mask0)">
<path d="M1101.49 376.121C1101.75 373.736 1102.07 371.349 1102.24 368.964C1102.35 367.472 1101.85 366.084 1101.07 364.799C1099.87 362.835 1098.69 360.843 1097.47 358.891C1097.04 358.207 1096.5 357.535 1095.93 356.954C1092.81 353.782 1090.42 350.088 1087.84 346.517C1087.37 345.858 1086.94 345.175 1086.4 344.585C1086.03 344.161 1085.56 343.783 1085.05 343.513C1084.37 343.139 1083.67 343.125 1083.04 343.718C1082.38 344.336 1081.68 344.916 1080.96 345.474C1080.4 345.9 1079.77 346.228 1079.22 346.674C1078.76 347.038 1078.32 347.457 1077.95 347.907C1077.61 348.314 1077.75 348.755 1078.04 349.178C1078.23 349.448 1078.31 349.777 1078.46 350.073C1078.68 350.514 1078.88 350.983 1079.17 351.375C1081.6 354.6 1084.56 357.36 1087.33 360.263C1089.75 362.761 1091.21 365.767 1092.25 368.999C1092.73 370.517 1092.54 372.008 1091.63 373.334C1090.43 375.092 1089 376.653 1087.31 377.964C1087.05 378.173 1086.63 378.348 1086.32 378.316C1084.19 378.085 1082.03 377.898 1080.03 377.001C1078.44 376.29 1077.09 375.233 1075.9 373.995C1073.75 371.733 1071.55 369.496 1069.56 367.104C1068.38 365.67 1067.55 363.965 1066.55 362.389C1066.21 361.823 1065.91 361.216 1065.5 360.704C1065.18 360.29 1064.77 359.875 1064.31 359.63C1063.98 359.446 1063.44 359.4 1063.11 359.56C1062.17 359.989 1061.23 360.453 1060.42 361.072C1059.27 361.919 1058.16 362.857 1057.11 363.841C1056.03 364.849 1055.97 365.972 1056.82 367.188C1058.2 369.141 1059.59 371.079 1060.98 373.033C1061.27 373.44 1061.53 373.872 1061.75 374.329C1062.56 375.999 1063.78 377.357 1065.12 378.625C1066.64 379.964 1068.07 381.401 1069.59 382.756C1072.35 385.226 1075.49 387.054 1078.98 388.392C1081.88 389.509 1084.79 389.755 1087.81 389.103C1089.45 388.754 1090.91 388.072 1092.22 387.012C1092.93 386.436 1093.78 386.038 1094.45 385.42C1096.43 383.61 1098.54 381.943 1099.91 379.577C1100.55 378.46 1101.15 377.367 1101.32 376.084C1101.38 376.097 1101.43 376.107 1101.49 376.121ZM1082.11 347.557C1082.86 346.76 1083 346.755 1083.85 347.396C1084.73 348.04 1085.63 348.625 1086.51 349.253C1086.65 349.365 1086.7 349.606 1086.79 349.79C1086.56 349.872 1086.33 350.006 1086.12 349.994C1085.95 349.992 1085.78 349.791 1085.62 349.676C1084.47 348.941 1083.47 347.926 1082.11 347.557C1082.17 347.785 1082.19 348.086 1082.35 348.252C1082.67 348.615 1083.04 348.973 1083.45 349.255C1084.16 349.749 1084.92 350.19 1085.67 350.674C1085.33 351.147 1085.02 350.952 1084.73 350.79C1083.96 350.4 1083.18 350.022 1082.44 349.62C1082.15 349.478 1081.82 349.326 1081.66 349.078C1080.97 348.11 1080.6 348.05 1082.11 347.557ZM1071.69 378.945C1072.25 378.651 1072.71 378.467 1073.1 378.202C1073.41 378.004 1073.75 377.745 1073.91 377.435C1074.03 377.227 1074 376.826 1073.86 376.632C1073.74 376.476 1073.34 376.408 1073.12 376.479C1072.39 376.705 1071.68 377.016 1070.96 377.311C1070.51 377.496 1070.08 377.539 1069.72 377.2C1069.13 376.632 1068.57 376.019 1067.99 375.438C1067.82 375.253 1067.63 375.065 1067.42 374.924C1067.05 374.648 1066.59 374.454 1066.32 374.116C1065.39 373.033 1064.52 371.912 1063.63 370.788C1063.37 370.453 1063.49 370.164 1063.77 369.877C1064.48 369.136 1065.19 368.38 1065.9 367.639C1066.53 366.995 1066.57 366.97 1067.1 367.658C1069.22 370.507 1071.64 373.072 1074.2 375.534C1076.05 377.322 1078.08 378.865 1080.44 379.936C1081.36 380.36 1082.37 380.8 1083.35 380.858C1086.91 381.092 1089.93 379.896 1092.06 376.963C1093.1 375.519 1093.89 373.889 1094.79 372.348C1095.45 371.234 1095.4 370.119 1094.99 368.93C1094.45 367.368 1093.7 365.911 1092.81 364.521C1091.48 362.398 1090.19 360.233 1088.83 358.138C1088.44 357.547 1087.84 357.092 1087.37 356.531C1086.72 355.769 1086.09 354.979 1085.5 354.181C1085.41 354.047 1085.48 353.65 1085.62 353.547C1086.43 352.893 1087.26 352.277 1088.11 351.695C1088.25 351.592 1088.62 351.571 1088.68 351.667C1089.27 352.45 1089.97 353.206 1090.35 354.075C1090.66 354.798 1091.01 355.414 1091.57 355.96C1092.79 357.154 1094.07 358.311 1095.2 359.586C1097.86 362.58 1099.47 366.029 1099.48 370.115C1099.47 371.498 1099.55 372.882 1099.48 374.268C1099.45 375.019 1099.36 375.823 1099.05 376.483C1097.79 379.134 1096.07 381.443 1093.64 383.191C1093.34 383.409 1093.05 383.627 1092.78 383.867C1091.04 385.415 1088.97 386.134 1086.71 386.435C1086.23 386.5 1085.71 386.491 1085.26 386.363C1083.65 385.91 1082.04 385.409 1080.46 384.865C1079.55 384.559 1079.59 384.518 1079.86 383.602C1079.93 383.338 1079.85 382.926 1079.68 382.741C1079.5 382.556 1079.08 382.501 1078.82 382.561C1078.43 382.646 1078.09 382.904 1077.71 383.055C1077.48 383.137 1077.15 383.251 1076.97 383.164C1076.49 382.931 1076.07 382.595 1075.52 382.251C1075.8 382.046 1075.98 381.934 1076.14 381.803C1076.47 381.561 1076.86 381.328 1077.17 381.063C1077.52 380.757 1077.92 380.414 1077.55 379.892C1077.23 379.412 1076.78 379.565 1076.36 379.741C1075.68 380.011 1075.03 380.336 1074.34 380.587C1074.11 380.67 1073.71 380.735 1073.55 380.604C1072.91 380.108 1072.35 379.562 1071.69 378.945ZM1060.26 364.004C1060.29 363.944 1060.3 363.865 1060.33 363.806C1061.74 364.364 1063.16 364.906 1064.58 365.468C1064.59 365.519 1064.59 365.569 1064.6 365.62C1064.33 365.645 1064.06 365.737 1063.8 365.7C1063.49 365.652 1063.19 365.507 1062.89 365.377C1061.95 365.001 1061 364.703 1060.26 364.004ZM1062.11 362.597C1062.09 362.492 1062.07 362.407 1062.04 362.302C1062.28 362.204 1062.53 362.074 1062.77 362.01C1062.95 361.965 1063.22 361.939 1063.3 362.038C1063.57 362.341 1063.76 362.693 1063.96 363.033C1064.01 363.11 1064.01 363.289 1063.94 363.358C1063.89 363.43 1063.71 363.457 1063.63 363.409C1063.11 363.15 1062.6 362.864 1062.11 362.597Z" fill="#E8E8E8"/>
<path d="M1072.38 338.896C1071.74 339.126 1071.27 339.307 1070.77 339.466C1070.18 339.656 1069.86 340.035 1069.81 340.651C1069.75 341.232 1070.08 341.581 1070.57 341.75C1071.97 342.224 1073.39 342.669 1074.79 343.111C1075.44 343.314 1076.12 343.521 1076.79 343.645C1077.09 343.708 1077.49 343.643 1077.77 343.504C1078.24 343.256 1078.28 342.687 1077.82 342.426C1077.05 341.985 1076.24 341.65 1075.42 341.297C1075.03 341.115 1074.61 340.978 1074.02 340.757C1074.34 340.577 1074.5 340.446 1074.69 340.369C1075.2 340.147 1075.75 339.947 1076.25 339.706C1076.71 339.489 1076.94 339.074 1076.91 338.574C1076.89 338.075 1076.61 337.752 1076.14 337.605C1074.19 336.983 1072.25 336.361 1070.28 335.784C1069.13 335.446 1067.96 335.183 1066.8 334.924C1066.59 334.881 1066.22 334.902 1066.16 335.021C1066.05 335.213 1066.04 335.573 1066.15 335.745C1066.4 336.077 1066.71 336.406 1067.07 336.565C1068.7 337.284 1070.35 337.944 1071.99 338.616C1072.08 338.668 1072.14 338.748 1072.38 338.896Z" fill="#E8E8E8"/>
<path d="M1055.18 356.441C1055.76 356.15 1056.35 355.878 1056.89 355.53C1057.88 354.896 1057.84 353.947 1056.76 353.458C1055.99 353.115 1055.14 352.954 1054.36 352.642C1053.01 352.112 1051.68 351.503 1050.33 350.958C1050.05 350.851 1049.75 350.772 1049.45 350.724C1048.84 350.613 1048.39 350.848 1048.21 351.34C1048.04 351.815 1048.22 352.364 1048.75 352.607C1049.32 352.891 1049.97 353.059 1050.57 353.3C1051.58 353.709 1052.58 354.134 1053.59 354.574C1053.68 354.61 1053.72 354.702 1053.9 354.837C1053.61 354.992 1053.38 355.125 1053.14 355.256C1052.83 355.423 1052.49 355.533 1052.25 355.745C1051.64 356.245 1051.61 357.063 1052.24 357.525C1052.79 357.92 1053.4 358.23 1054.03 358.508C1055.56 359.192 1057.1 359.844 1058.66 360.483C1058.99 360.62 1059.41 360.691 1059.79 360.654C1060.02 360.637 1060.36 360.41 1060.42 360.208C1060.49 360.01 1060.36 359.636 1060.19 359.469C1059.92 359.198 1059.55 359.004 1059.19 358.829C1058.14 358.297 1057.08 357.795 1056.03 357.278C1055.77 357.143 1055.53 356.976 1055.28 356.824C1055.22 356.682 1055.2 356.561 1055.18 356.441Z" fill="#E8E8E8"/>
<path d="M493.314 57.8954C492.35 58.5966 491.462 59.6204 490.726 60.5394C490.307 61.063 489.264 62.1145 489.264 62.1145C489.264 62.1145 488.223 63.3556 487.464 64.0585C486.84 64.636 486.397 64.853 485.776 65.4336C484.879 66.2723 484.463 66.8336 483.701 67.7963C483.145 68.4987 482.923 68.9625 482.344 69.6465C481.726 70.3779 481.305 70.7218 480.625 71.3967C479.998 72.0193 479.636 72.3583 479 72.9718C478.681 73.2798 478.482 73.5186 478.181 73.7594C477.958 73.938 477.636 74.1462 477.45 74.3782C477.05 74.8783 474.959 73.5182 474.581 73.1406C473.818 72.3779 472.939 71.7956 472.162 71.0591C471.756 70.6742 471.268 70.3899 470.868 69.9903C470.606 69.7284 470.301 69.5114 470.024 69.2652C469.711 68.9864 469.573 68.6854 469.237 68.3589C468.71 67.8472 468.204 67.6057 467.724 67.24C467.224 66.8586 466.921 66.3928 466.374 65.8836C465.46 65.0327 464.727 64.3317 463.899 63.8585C463.505 63.6336 462.863 62.6208 462.486 62.6208" stroke="#E8E8E8" stroke-width="1.5" stroke-linecap="round" stroke-linejoin="round"/>
<path d="M492.977 58.0069C491.815 58.0069 490.818 58.6819 489.664 58.6819C488.556 58.6819 487.448 58.6819 486.339 58.6819C485.198 58.6819 484.14 58.8409 483.02 59.0132C482.494 59.0941 481.962 59.0373 481.439 59.157C480.765 59.3111 480.232 59.4695 479.526 59.4695C477.813 59.4695 476.066 59.7103 474.413 60.1696C473.49 60.4259 472.52 60.508 471.6 60.7634C470.862 60.9685 470.072 60.8921 469.325 61.1322C468.109 61.5231 466.698 61.4102 465.525 61.8572C465.075 62.0286 464.43 61.9949 463.95 62.0635C463.545 62.1213 463.251 62.2823 462.824 62.2823" stroke="#E8E8E8" stroke-width="1.5" stroke-linecap="round" stroke-linejoin="round"/>
<path d="M493.201 57.7823C492.078 57.7823 490.915 57.6698 489.826 57.6698C488.292 57.6698 486.797 57.3323 485.263 57.3323C481.752 57.3323 478.235 57.2198 474.706 57.2198C472.066 57.2198 469.426 57.2198 466.786 57.2198C463.904 57.2198 461.09 57.4448 458.211 57.4448" stroke="#E8E8E8" stroke-width="1.5" stroke-linecap="round" stroke-linejoin="round"/>
<path d="M492.865 57.7826C490.452 57.7826 488.402 57.0921 486.17 56.27C485.472 56.0128 484.332 55.8699 483.576 55.8699C482.724 55.8699 481.883 55.4199 481.026 55.4199C478.876 55.4199 476.783 54.9698 474.638 54.9698C473.082 54.9698 471.562 54.4616 470.025 54.1823C467.417 53.708 464.743 53.0876 462.099 52.9446C461.379 52.9057 460.833 52.6388 460.012 52.4946C459.332 52.3752 458.262 52.2446 458.262 52.2446C458.262 52.2446 457.343 52.0738 456.949 52.0446L453.317 51.4257C452.903 51.3334 452.568 51.3598 452.248 51.232C451.635 50.9867 450.906 51.0905 450.286 50.9132C449.748 50.7594 449.178 50.5336 448.648 50.3569" stroke="#E8E8E8" stroke-width="1.5" stroke-linecap="round" stroke-linejoin="round"/>
<path d="M457.874 57.5575C456.996 57.2149 455.28 55.5823 455.28 55.5823C455.28 55.5823 454.345 54.8159 453.936 54.4072C453.663 54.1334 453.216 53.769 452.88 53.6196C452.474 53.4389 451.742 52.9383 451.742 52.9383C451.742 52.9383 450.878 52.4685 450.761 52.2695C450.4 51.6552 449.279 50.9046 448.648 50.6943" stroke="#E8E8E8" stroke-width="1.5" stroke-linecap="round" stroke-linejoin="round"/>
<path d="M457.761 74.5464C458.905 74.1576 459.894 73.4485 460.968 72.9712C461.858 72.5756 462.81 71.8431 463.781 71.6274C464.226 71.5285 464.622 71.0459 465.137 70.9523C465.652 70.8586 466.178 70.5682 466.65 70.3585C467.167 70.1287 467.84 70.061 468.281 69.7084C468.553 69.491 469.318 69.3225 469.462 69.0334" stroke="#E8E8E8" stroke-width="1.5" stroke-linecap="round" stroke-linejoin="round"/>
<path d="M457.648 74.5465C457.936 73.0706 457.761 71.4382 457.761 69.9335C457.761 68.5314 457.873 67.1385 457.873 65.7206C457.873 63.1988 458.211 60.725 458.211 58.2324" stroke="#E8E8E8" stroke-width="1.5" stroke-linecap="round" stroke-linejoin="round"/>
<path d="M462.487 62.6201C462.042 63.5107 461.483 64.4048 461.049 65.3204C460.567 66.3388 460.318 67.4709 459.874 68.4707C459.696 68.8723 459.593 69.276 459.424 69.7958C459.251 70.3305 458.999 71.171 458.999 71.171L458.321 74.1203" stroke="#E8E8E8" stroke-width="1.5" stroke-linecap="round" stroke-linejoin="round"/>
<path d="M467.615 69.6718C467.093 69.4774 467.012 69.022 466.612 68.7111C466.465 68.5963 466.228 68.4126 466.145 68.2456" stroke="#E8E8E8" stroke-width="1.5" stroke-linecap="round" stroke-linejoin="round"/>
<path d="M465.566 70.3802C465.383 69.9428 464.97 69.6148 464.683 69.24C464.571 69.0935 464.478 68.9396 464.347 68.8084C464.274 68.7348 464.134 68.6668 464.083 68.5751C463.924 68.2845 463.706 68.0348 463.564 67.751" stroke="#E8E8E8" stroke-width="1.5" stroke-linecap="round" stroke-linejoin="round"/>
<path d="M463.76 71.0078C463.617 70.619 463.172 70.299 462.914 69.9678C462.852 69.887 462.609 69.5041 462.583 69.5558" stroke="#E8E8E8" stroke-width="1.5" stroke-linecap="round" stroke-linejoin="round"/>
<path d="M462.112 71.8725C462.061 71.7679 461.601 70.8913 461.484 71.0083" stroke="#E8E8E8" stroke-width="1.5" stroke-linecap="round" stroke-linejoin="round"/>
<path d="M460.582 72.7748C460.453 72.6047 460.345 72.4389 460.229 72.2642" stroke="#E8E8E8" stroke-width="1.5" stroke-linecap="round" stroke-linejoin="round"/>
<path d="M21.0941 -8.7917C24.0366 -9.34053 27.0012 -9.80604 29.9128 -10.4715C32.0561 -10.9557 34.133 -11.6899 36.2409 -12.3074C36.2908 -12.3203 36.3528 -12.3542 36.3982 -12.3838C39.186 -13.5159 40.6657 -12.9554 42.0692 -10.2734C42.2108 -10.0073 42.4077 -9.66652 42.3577 -9.38641C42.1158 -8.02351 41.937 -6.62353 41.4814 -5.32994C41.3019 -4.80251 40.5677 -4.29166 39.9622 -4.0991C39.0001 -3.77853 37.9628 -3.74127 36.94 -3.58305C35.3768 -3.32044 33.7883 -3.08687 32.2218 -2.76997C31.1623 -2.54884 30.1338 -2.21105 29.071 -1.93563C28.357 -1.75057 28.0302 -1.30967 28.083 -0.575295C28.2909 2.41652 28.3947 5.41749 28.7399 8.39154C29.3696 13.6429 30.5894 18.777 32.1081 23.8336C33.1006 27.1742 34.6556 30.2265 36.9835 32.8471C37.6196 33.5727 38.3588 34.2183 39.1345 34.801C40.0618 35.4868 40.8522 35.3888 41.6651 34.5726C43.1059 33.1127 44.0298 31.3772 44.3573 29.3331C44.4406 28.7772 44.4984 28.1922 44.6359 27.6401C44.9386 26.4395 45.861 25.7018 47.1064 25.6462C48.2643 25.5955 49.3123 26.2679 49.5973 27.4764C49.8636 28.5473 50.0978 29.6978 49.9932 30.7757C49.5685 34.9289 47.631 38.263 44.1608 40.5694C41.8543 42.1111 39.3693 42.0426 36.9157 40.7549C34.958 39.7305 33.2905 38.3281 31.9385 36.5768C29.3664 33.2359 27.3943 29.6148 26.2483 25.4947C25.4415 22.5868 24.2151 19.7699 22.9356 17.0202C20.9495 12.7437 19.5279 8.32094 18.9942 3.63246C18.9215 2.95668 18.7236 2.2777 18.6011 1.61484C18.5183 1.10196 18.2239 0.928895 17.7423 1.0537C14.8938 1.75628 12.0199 2.42982 9.17582 3.14907C8.3123 3.37285 8.22581 3.71586 8.57191 4.55234C11.1494 10.7238 13.4701 16.9974 14.8033 23.5626C15.614 27.5559 15.4041 31.5822 15.2861 35.6203C15.1256 40.4352 14.0454 45.061 12.8943 49.6874C12.7723 50.1643 12.4622 50.6009 12.1853 51.0289C11.8308 51.566 11.3756 52.058 11.0466 52.6242C10.2379 53.9915 9.12723 54.9561 7.47354 54.7435C5.65714 54.5196 4.6094 53.3128 4.21169 51.5457C4.04157 50.7705 3.79618 49.9792 3.76332 49.1862C3.74922 48.5308 3.80382 47.733 4.16713 47.2292C7.94639 41.9395 8.9553 35.9073 9.01348 29.5693C9.07261 23.5694 7.53206 17.8951 5.58412 12.2908C4.91307 10.363 4.24643 8.45183 3.60859 6.51543C3.25926 5.46605 2.94052 5.33493 2.10006 5.9802C0.917436 6.87444 -0.223128 7.79341 -1.40133 8.70432C-1.60729 8.86457 -1.79999 9.07481 -2.03248 9.13506C-3.22812 9.44491 -3.83179 10.3138 -4.12784 11.4057C-4.45602 12.5773 -4.72554 13.7692 -4.88216 14.9853C-5.07319 16.4063 -5.5961 17.3789 -6.43633 17.4898C-7.21347 17.6378 -8.54029 16.717 -8.86524 15.6257C-9.13381 14.6801 -9.30381 13.6377 -9.18052 12.6974C-8.83729 10.0436 -7.75252 7.64299 -6.17195 5.5057C-3.99105 2.55384 -1.37529 -0.0298304 2.02144 -1.40882C7.73765 -3.74513 13.2283 -6.66418 19.274 -8.15971C19.8884 -8.31894 20.4863 -8.47387 21.1007 -8.6331C21.104 -8.6874 21.1074 -8.7417 21.0941 -8.7917Z" fill="#E8E8E8"/>
<path d="M964.05 -18.7917C961.108 -19.3405 958.143 -19.806 955.232 -20.4715C953.088 -20.9557 951.011 -21.6899 948.904 -22.3074C948.854 -22.3203 948.792 -22.3542 948.746 -22.3838C945.959 -23.5159 944.479 -22.9554 943.075 -20.2734C942.934 -20.0073 942.737 -19.6665 942.787 -19.3864C943.029 -18.0235 943.208 -16.6235 943.663 -15.3299C943.843 -14.8025 944.577 -14.2917 945.182 -14.0991C946.144 -13.7785 947.182 -13.7413 948.205 -13.583C949.768 -13.3204 951.356 -13.0869 952.923 -12.77C953.982 -12.5488 955.011 -12.2111 956.073 -11.9356C956.788 -11.7506 957.114 -11.3097 957.061 -10.5753C956.854 -7.58348 956.75 -4.58251 956.405 -1.60846C955.775 3.6429 954.555 8.77696 953.036 13.8336C952.044 17.1742 950.489 20.2265 948.161 22.8471C947.525 23.5727 946.786 24.2183 946.01 24.801C945.083 25.4868 944.292 25.3888 943.479 24.5726C942.039 23.1127 941.115 21.3772 940.787 19.3331C940.704 18.7772 940.646 18.1922 940.509 17.6401C940.206 16.4395 939.283 15.7018 938.038 15.6462C936.88 15.5955 935.832 16.2679 935.547 17.4764C935.281 18.5473 935.047 19.6978 935.151 20.7757C935.576 24.9289 937.514 28.263 940.984 30.5694C943.29 32.1111 945.775 32.0426 948.229 30.7549C950.187 29.7305 951.854 28.3281 953.206 26.5768C955.778 23.2359 957.75 19.6148 958.896 15.4947C959.703 12.5868 960.929 9.76987 962.209 7.02015C964.195 2.74371 965.617 -1.67906 966.15 -6.36754C966.223 -7.04332 966.421 -7.7223 966.543 -8.38516C966.626 -8.89804 966.921 -9.0711 967.402 -8.9463C970.251 -8.24372 973.125 -7.57018 975.969 -6.85093C976.832 -6.62715 976.919 -6.28414 976.573 -5.44766C973.995 0.723801 971.674 6.99745 970.341 13.5626C969.531 17.5559 969.74 21.5822 969.858 25.6203C970.019 30.4352 971.099 35.061 972.25 39.6874C972.372 40.1643 972.682 40.6009 972.959 41.0289C973.314 41.566 973.769 42.058 974.098 42.6242C974.907 43.9915 976.017 44.9561 977.671 44.7435C979.487 44.5196 980.535 43.3128 980.933 41.5457C981.103 40.7705 981.348 39.9792 981.381 39.1862C981.395 38.5308 981.341 37.733 980.977 37.2292C977.198 31.9395 976.189 25.9073 976.131 19.5693C976.072 13.5694 977.612 7.89512 979.56 2.29076C980.231 0.362963 980.898 -1.54817 981.536 -3.48457C981.885 -4.53395 982.204 -4.66507 983.044 -4.0198C984.227 -3.12556 985.368 -2.20659 986.546 -1.29568C986.752 -1.13543 986.945 -0.925194 987.177 -0.864945C988.373 -0.555089 988.976 0.313797 989.272 1.40575C989.601 2.57727 989.87 3.76921 990.027 4.98533C990.218 6.40628 990.741 7.37892 991.581 7.4898C992.358 7.63777 993.685 6.71703 994.01 5.62572C994.278 4.68009 994.448 3.63768 994.325 2.69736C993.982 0.0436228 992.897 -2.35701 991.316 -4.4943C989.136 -7.44616 986.52 -10.0298 983.123 -11.4088C977.407 -13.7451 971.916 -16.6642 965.871 -18.1597C965.256 -18.3189 964.658 -18.4739 964.044 -18.6331C964.04 -18.6874 964.037 -18.7417 964.05 -18.7917Z" fill="#E8E8E8"/>
<path d="M1379.63 109.835C1376.72 108.602 1373.74 107.485 1370.92 106.105C1363.72 102.576 1356.57 98.9409 1349.41 95.336C1347.83 94.5397 1346.28 93.7347 1344.71 92.9231C1343.75 92.4265 1342.79 92.0725 1341.66 92.3193C1340.87 92.4934 1340.39 91.9985 1339.94 91.3895C1339.32 90.5439 1338.68 89.7072 1337.9 89.0131C1336.65 87.8832 1335.89 86.5226 1335.49 84.916C1334.72 81.7312 1335.16 78.5868 1336.16 75.5513C1338.11 69.6098 1340.83 64.0269 1344.8 59.1244C1345.99 57.6629 1347.45 56.4093 1348.85 55.1076C1349.54 54.4535 1350.44 54.22 1351.35 54.3681C1352.85 54.6229 1354.38 54.8908 1355.84 55.3802C1362.97 57.7157 1369.63 61.0515 1376.33 64.3698C1381.02 66.6862 1385.9 68.5945 1390.71 70.6346C1392.17 71.2577 1393.73 71.6286 1395.2 72.2518C1399.01 73.9027 1402.79 75.637 1406.61 77.3098C1407.94 77.8958 1408.41 79.0573 1408.51 80.3376C1408.71 82.9354 1408.85 85.5595 1407.61 88.0187C1407.36 88.4969 1407.53 88.7335 1407.99 88.893C1408.63 89.1093 1409.27 89.3257 1409.89 89.588C1410.99 90.0538 1411.58 90.8709 1411.61 92.103C1411.67 94.4927 1411.89 96.8646 1411.26 99.2354C1410.54 101.933 1409.26 104.245 1406.99 105.958C1405.92 106.777 1404.82 107.567 1403.67 108.264C1403.09 108.62 1402.37 108.805 1401.7 108.957C1401.42 109.018 1401.03 108.907 1400.76 108.758C1399.75 108.183 1398.77 107.531 1397.74 106.986C1397.53 106.879 1397.06 106.989 1396.86 107.158C1395.21 108.587 1393.57 110.038 1391.96 111.502C1391.71 111.742 1391.52 112.082 1391.4 112.411C1390.86 113.803 1389.81 114.285 1388.37 113.69C1385.42 112.459 1382.49 111.197 1379.56 109.951C1379.58 109.927 1379.6 109.881 1379.63 109.835ZM1381.16 106.446C1381.18 106.4 1381.2 106.354 1381.21 106.323C1383.3 107.209 1385.39 108.079 1387.47 108.98C1388.27 109.336 1388.9 109.202 1389.5 108.567C1390.7 107.307 1391.94 106.105 1393.17 104.88C1395.86 102.2 1398.3 99.3402 1400.02 95.9399C1402.33 91.3309 1403.55 86.5171 1403.39 81.3673C1403.37 80.5759 1403.08 80.107 1402.32 79.7702C1400.45 78.9393 1398.64 78.0074 1396.78 77.1457C1395.95 76.7542 1395.09 76.4088 1394.22 76.0941C1393.15 75.6941 1392.03 75.4016 1390.97 74.9709C1387.93 73.7159 1384.9 72.393 1381.86 71.1227C1381.08 70.7881 1380.87 70.9199 1380.81 71.7838C1380.7 73.2858 1380.65 74.7767 1380.53 76.272C1380.1 81.8764 1378.33 87.0592 1375.13 91.7283C1373.25 94.4798 1370.84 96.8066 1368.38 99.0545C1367.65 99.7108 1367.7 100.059 1368.55 100.457C1372.79 102.456 1376.98 104.451 1381.16 106.446ZM1341.65 71.5833C1341.27 72.6076 1340.74 73.8732 1340.33 75.176C1339.55 77.6456 1338.86 80.1545 1339.16 82.7763C1339.26 83.6378 1339.56 84.4947 1339.91 85.2968C1340.21 85.9892 1340.82 86.0653 1341.43 85.58C1341.9 85.2155 1342.33 84.8314 1342.76 84.4319C1343.8 83.4726 1344.92 82.6206 1345.48 81.219C1347.58 76.0468 1349.36 70.7807 1350.29 65.2591C1350.64 63.2044 1350.78 61.1324 1350.95 59.0582C1350.98 58.7424 1350.67 58.4095 1350.51 58.0896C1350.21 58.2347 1349.84 58.3162 1349.62 58.5467C1349.18 58.9462 1348.83 59.4158 1348.45 59.8722C1345.55 63.3199 1343.73 67.3692 1341.65 71.5833ZM1361.5 77.1709C1361.5 77.1862 1361.5 77.1862 1361.49 77.2016C1360.83 76.9195 1360.16 76.6375 1359.48 76.3489C1359.4 76.3161 1359.33 76.2833 1359.25 76.2505C1358.39 75.9204 1357.48 76.1166 1357.02 76.8691C1356.64 77.4746 1356.3 78.1678 1356.21 78.8542C1356.14 79.352 1356.33 80.1257 1356.69 80.4256C1357.59 81.1503 1358.59 81.7783 1359.63 82.2551C1361.5 83.1233 1363.43 83.8841 1365.34 84.623C1366.29 84.9924 1367.29 85.3223 1368.29 85.5097C1368.64 85.5707 1369.26 85.3244 1369.47 85.0128C1370.27 83.9113 1370.35 82.5826 1370.07 81.3354C1369.85 80.3688 1368.75 80.2627 1367.96 79.8909C1367.65 79.7443 1367.32 79.6592 1367.01 79.528C1365.2 78.7386 1363.34 77.9515 1361.5 77.1709ZM1401.17 104.434C1401.84 104.955 1402.51 104.676 1403.18 104.031C1403.84 103.385 1404.63 102.845 1405.19 102.139C1405.89 101.252 1406.71 100.306 1406.99 99.2797C1407.48 97.4112 1407.61 95.4664 1407.87 93.5367C1407.99 92.6772 1407.37 92.3775 1406.69 92.1788C1405.95 91.9757 1405.86 92.5568 1405.67 93.0021C1405.55 93.2632 1405.42 93.5176 1405.36 93.783C1404.5 97.1472 1402.59 99.9601 1400.61 102.74C1399.88 103.725 1399.9 103.859 1401.17 104.434ZM1365.44 76.182C1365.49 76.2608 1365.55 76.3397 1365.61 76.4186C1365.97 76.2625 1366.33 76.1437 1366.66 75.9372C1368.46 74.8433 1370.22 73.699 1372.05 72.6555C1372.63 72.3369 1373.39 72.2023 1374.06 72.1994C1375 72.1961 1375.42 72.9564 1374.96 73.7615C1374.67 74.2574 1374.26 74.7226 1373.81 75.0564C1372.65 75.9325 1371.41 76.732 1370.24 77.6015C1370.02 77.764 1369.78 78.2642 1369.86 78.3869C1370.07 78.6585 1370.43 78.8466 1370.77 78.9537C1370.96 79.017 1371.25 78.8501 1371.47 78.7621C1372.08 78.5093 1372.64 78.2214 1373.24 77.9839C1374.56 77.4497 1374.63 77.4825 1375.62 78.5381C1375.71 78.6301 1375.84 78.6672 1376.06 78.8182C1376.19 78.2875 1376.31 77.8313 1376.36 77.3796C1376.46 76.6034 1376.53 75.8294 1376.59 75.0554C1376.73 73.4021 1376.89 71.7401 1376.97 70.0672C1377.05 68.8064 1376.58 68.4978 1375.49 69.0932C1374.34 69.7304 1373.18 70.3675 1372.1 71.112C1370.04 72.5285 1368.03 74.0085 1366.02 75.4666C1365.8 75.6444 1365.63 75.9384 1365.44 76.182ZM1351.93 75.6538C1351.98 75.7326 1352.05 75.8181 1352.11 75.8969C1352.62 75.5828 1353.14 75.3125 1353.59 74.9415C1356.17 72.8886 1358.73 70.8072 1361.33 68.7609C1363.02 67.4194 1364.76 66.1567 1366.46 64.8218C1366.66 64.6681 1366.87 64.214 1366.79 64.0694C1366.43 63.4625 1365.12 63.361 1364.53 63.8374C1360.98 66.6281 1357.46 69.4845 1353.84 72.227C1352.62 73.1448 1352.23 74.327 1351.93 75.6538ZM1372.11 67.1108C1372.06 66.942 1372.04 66.7338 1371.92 66.6133C1371.22 65.8029 1369.9 65.7014 1369.07 66.4017C1366.13 68.8497 1363.18 71.313 1360.25 73.7609C1360.05 73.9146 1359.85 74.0836 1359.71 74.2789C1359.59 74.4282 1359.56 74.654 1359.5 74.8448C1359.69 74.9082 1359.94 75.0877 1360.1 75.0261C1360.63 74.815 1361.16 74.5513 1361.65 74.246C1364.95 72.0081 1368.22 69.7571 1371.51 67.528C1371.69 67.405 1371.87 67.2821 1372.11 67.1108ZM1373.3 86.8567C1369.72 89.1935 1366.34 91.3833 1362.97 93.573C1364.22 93.6856 1365.54 93.3004 1366.75 92.5404C1367.36 92.1604 1367.91 92.0831 1368.57 92.4024C1368.83 92.5292 1369.38 92.4892 1369.53 92.3004C1370.92 90.6698 1372.31 89.0393 1373.3 86.8567ZM1365.83 87.8168C1365.82 87.7203 1365.8 87.6019 1365.78 87.5055C1365.33 87.4578 1364.86 87.2764 1364.43 87.3689C1362.46 87.8075 1361.01 89.1728 1359.38 90.249C1359.18 90.3808 1359.38 91.0865 1359.39 91.5272C1359.71 91.4632 1360.07 91.4716 1360.34 91.3288C1361.96 90.3425 1363.58 89.319 1365.18 88.3042C1365.4 88.1637 1365.61 87.9793 1365.83 87.8168ZM1354.64 63.6098C1354.75 63.6557 1354.87 63.7235 1354.97 63.7695C1356.03 62.8694 1357.1 61.9977 1358.13 61.0691C1358.25 60.9725 1358.12 60.3369 1357.97 60.2713C1357.12 59.8952 1356.26 59.6024 1355.37 59.3337C1355.23 59.29 1354.81 59.5689 1354.8 59.7268C1354.71 61.0183 1354.69 62.3206 1354.64 63.6098ZM1375.86 79.5332C1375.24 79.9811 1374.81 80.3434 1374.33 80.6487C1373.45 81.1868 1372.77 81.7884 1373.1 82.9653C1373.16 83.156 1373.12 83.4279 1373.01 83.621C1372.52 84.5928 1373.14 85.0941 1373.79 85.5867C1374.55 84.8755 1375.86 81.2236 1375.86 79.5332ZM1349.34 81.8723C1348.98 83.0303 1349.22 83.3523 1350.37 83.2019C1350.62 83.1797 1350.9 83.118 1351.08 82.9577C1352.01 82.117 1352.95 81.2762 1353.81 80.3653C1353.97 80.1985 1353.86 79.6966 1353.75 79.4117C1353.71 79.324 1353.19 79.3027 1352.98 79.4126C1352.05 79.8938 1351.15 80.4035 1350.28 80.9789C1349.91 81.1876 1349.64 81.5628 1349.34 81.8723ZM1353.37 88.3551C1354.82 89.3685 1354.95 89.353 1356.17 88.3387C1356.72 87.8645 1357.33 87.4692 1357.92 87.0453C1358.38 86.7116 1358.85 86.3997 1359.27 86.0528C1359.39 85.9409 1359.43 85.7369 1359.5 85.568C1359.32 85.4893 1359.13 85.3361 1358.94 85.3472C1358.7 85.3541 1358.45 85.4662 1358.23 85.5914C1356.81 86.356 1355.41 87.1272 1354.01 87.8983C1353.81 87.9928 1353.64 88.1596 1353.37 88.3551ZM1355.96 83.2437C1355.86 83.0772 1355.76 82.9041 1355.66 82.7376C1355.46 82.922 1355.28 83.1568 1355.04 83.2908C1354.15 83.7698 1353.23 84.1984 1352.36 84.6839C1352.04 84.8597 1351.8 85.1581 1351.52 85.3843C1351.94 85.5241 1352.36 85.7231 1352.8 85.7643C1353.03 85.7881 1353.32 85.5839 1353.53 85.3995C1354.2 84.866 1354.87 84.3105 1355.52 83.7331C1355.69 83.6036 1355.81 83.4171 1355.96 83.2437ZM1353.96 67.4715C1354.04 67.5941 1354.11 67.7168 1354.19 67.8242C1354.62 67.5672 1355.05 67.2948 1355.45 67.0313C1355.38 66.9086 1355.31 66.8078 1355.24 66.6851C1354.82 66.9421 1354.39 67.1991 1353.96 67.4715Z" fill="#E8E8E8"/>
<path d="M1384.48 92.7269C1383.96 92.4669 1383.42 92.2223 1382.91 91.9317C1381.88 91.3504 1381.54 90.4224 1381.95 89.4869C1382.34 88.5449 1383.26 88.1169 1384.39 88.4156C1385.64 88.7448 1386.87 89.12 1388.09 89.5105C1388.66 89.7004 1389.02 89.597 1389.33 89.0558C1389.9 88.0063 1390.53 86.983 1391.14 85.9532C1391.62 85.1556 1392.45 84.7627 1393.27 84.8931C1394.11 85.0301 1394.74 85.5899 1394.6 86.42C1394.44 87.4449 1394.14 88.4788 1393.68 89.3946C1392.7 91.3051 1392.66 91.3073 1394.63 92.1612C1394.99 92.3119 1395.36 92.4691 1395.71 92.6352C1396.9 93.1768 1397.39 94.3127 1396.92 95.4234C1396.47 96.5034 1395.2 97.0567 1394.05 96.6398C1393.29 96.3713 1392.53 96.0503 1391.8 95.7052C1391.1 95.3885 1390.66 95.5642 1390.31 96.2346C1389.86 97.0979 1389.38 97.948 1388.84 98.7566C1388.12 99.8676 1387.28 100.239 1386.41 99.9615C1385.64 99.7084 1385.2 99.1746 1385.32 98.4059C1385.48 97.4029 1385.8 96.4281 1386.07 95.4556C1386.16 95.1664 1386.31 94.8816 1386.46 94.6187C1386.81 93.9855 1386.61 93.5565 1385.98 93.2879C1385.48 93.0783 1385.01 92.8752 1384.51 92.6656C1384.49 92.7116 1384.48 92.7269 1384.48 92.7269Z" fill="#E8E8E8"/>
<path d="M384.693 401.164C384.762 400.877 385.018 400.625 385.235 400.379C385.519 400.054 385.825 399.747 386.152 399.47C389.005 396.957 391.871 394.446 394.737 391.936C396.271 390.595 397.82 389.244 399.386 387.936C400.195 387.254 401.074 386.677 401.862 385.965C402.196 385.65 402.486 385.157 402.558 384.714C402.816 383.171 402.972 381.609 403.179 380.056C403.241 379.598 403.053 379.288 402.633 379.104C402.451 379.031 402.283 378.96 402.102 378.886C400.629 378.281 399.867 377.093 400.091 375.518C400.273 374.3 400.836 373.271 402.36 373.403C402.86 373.446 403.383 373.506 403.868 373.624C405.19 373.926 406.503 374.279 407.813 374.579C408.935 374.844 410.053 375.055 411.17 375.345C412.201 375.606 413.22 375.929 414.244 376.227C414.246 376.215 414.248 376.202 414.251 376.189C414.804 376.294 415.349 376.371 415.895 376.514C416.453 376.658 417.007 376.828 417.54 377.034C418.21 377.278 418.687 377.708 418.718 378.496C418.787 379.971 417.809 381.195 416.35 381.401C415.801 381.48 415.234 381.516 414.679 381.555C414.35 381.571 414.141 381.714 414.088 382.056C413.791 383.67 413.466 385.291 413.182 386.908C413.04 387.716 413.026 388.535 413.318 389.321C413.943 391.083 414.558 392.831 415.566 394.431C416.262 395.554 416.826 396.757 417.392 397.947C418.368 399.984 419.284 402.063 420.273 404.103C421.188 405.985 421.684 407.945 421.833 410.021C421.94 411.633 421.445 412.988 420.44 414.22C419.689 415.147 418.748 415.635 417.571 415.595C415.256 415.509 412.975 415.312 410.77 414.451C409.232 413.846 407.591 413.51 405.996 413.064C403.224 412.305 400.465 411.547 397.688 410.813C395.928 410.349 394.16 409.923 392.385 409.535C391.586 409.358 390.756 409.201 389.936 409.202C388.075 409.189 386.559 408.471 385.265 407.209C384.607 406.562 383.881 405.798 383.947 404.845C384.039 403.623 384.406 402.388 384.693 401.164ZM413.933 396.901C413.31 395.804 412.684 394.72 412.019 393.642C411.91 393.464 411.645 393.349 411.424 393.281C411.082 393.164 410.945 392.995 410.939 392.615C410.939 392.211 410.833 391.812 410.78 391.411C410.772 391.318 410.766 391.213 410.796 391.127C411.055 390.524 410.781 390.119 410.344 389.75C410.119 389.564 409.892 389.39 409.712 389.173C409.406 388.802 409.474 388.515 409.886 388.267C409.959 388.228 410.031 388.19 410.091 388.149C410.339 388.013 410.707 387.992 410.697 387.572C410.674 387.15 410.52 386.795 410.145 386.581C409.933 386.462 409.717 386.369 409.52 386.24C409.159 386.016 409.056 385.67 409.222 385.284C409.385 384.91 409.695 384.786 410.092 384.888C410.203 384.922 410.301 384.953 410.414 384.975C410.699 385.054 410.962 385.039 411.09 384.711C411.216 384.396 411.144 384.16 410.839 383.985C410.473 383.785 410.108 383.586 409.758 383.376C409.407 383.166 409.124 382.878 409.339 382.436C409.537 382.016 409.919 382.062 410.303 382.161C410.552 382.222 410.799 382.294 411.05 382.342C411.327 382.394 411.471 382.252 411.487 381.968C411.51 381.372 411.142 380.846 410.559 380.762C410.027 380.687 409.492 380.69 408.954 380.64C408.711 380.62 408.449 380.558 408.22 380.462C407.991 380.367 407.774 380.208 407.565 380.077C406.74 379.556 406.631 379.105 407.18 378.282C407.292 378.108 407.59 377.981 407.813 377.971C408.152 377.97 408.511 378.065 408.846 378.154C409.331 378.272 409.787 378.476 410.269 378.541C411.855 378.763 413.383 379.352 415.015 379.4C415.597 379.419 415.998 379.299 416.451 378.772C416.164 378.639 415.944 378.493 415.698 378.42C415.25 378.31 414.793 378.249 414.343 378.151C412.425 377.762 410.509 377.36 408.591 376.971C408.466 376.947 408.342 376.91 408.219 376.874C407.57 376.66 406.931 376.526 406.221 376.496C405.342 376.46 404.471 376.178 403.609 375.988C403.395 375.948 403.187 375.882 402.827 375.788C402.939 376.018 402.965 376.153 403.043 376.22C403.685 376.812 404.322 377.428 404.997 377.986C405.423 378.341 405.67 378.753 405.589 379.312C405.271 381.509 404.94 383.703 404.61 385.898C404.589 386.077 404.53 386.248 404.511 386.414C404.411 387.478 404.013 388.329 403.01 388.87C402.618 389.083 402.319 389.483 402.028 389.845C401.329 390.705 400.473 391.365 399.455 391.785C399.227 391.885 398.966 391.888 398.718 391.959C398.455 392.039 398.154 392.113 397.942 392.269C397.488 392.6 397.099 392.996 396.665 393.358C396.418 393.559 396.389 393.71 396.676 393.908C397.206 394.269 397.719 394.653 398.233 395.024C398.632 395.322 399.097 395.41 399.543 395.259C401.368 394.639 403.003 395.145 404.559 396.065C405.179 396.431 405.764 396.842 406.372 397.204C407.852 398.111 409.44 398.32 411.108 397.84C411.977 397.587 412.82 397.199 413.755 397.284C414.034 397.324 414.04 397.09 413.933 396.901ZM396.701 397.579C396.707 397.749 396.738 397.925 396.757 398.098C396.858 398.861 397.076 399.15 397.606 399.172C398.226 399.198 398.658 398.849 398.801 398.172C398.92 397.62 398.841 397.488 398.291 397.371C397.929 397.289 397.584 397.185 397.222 397.103C396.87 397.037 396.68 397.209 396.701 397.579ZM397.795 407.141C398.019 407.327 398.471 406.943 398.548 406.54C398.664 405.935 398.288 405.251 397.721 405.013C397.286 404.839 396.774 405.199 396.813 405.676C396.868 406.339 397.32 406.764 397.795 407.141ZM386.394 404.382C386.445 405.266 387.002 405.828 387.8 406.149C387.873 406.176 387.946 406.203 388.034 406.219C390.518 406.846 393 407.486 395.487 408.1C395.809 408.187 396.141 408.224 396.473 408.26C396.523 408.27 396.585 408.216 396.723 408.177C396.469 407.803 396.181 407.474 396.007 407.089C395.818 406.649 395.601 406.151 395.636 405.701C395.738 404.285 396.855 403.623 398.199 404.086C399.384 404.493 400.113 405.309 400.065 406.24C400.033 407.016 399.827 407.747 399.327 408.383C399.245 408.472 399.196 408.593 399.084 408.768C399.462 408.905 399.802 409.034 400.146 409.138C401.414 409.522 402.682 409.906 403.955 410.264C404.314 410.358 404.716 410.304 405.078 410.385C405.649 410.532 406.197 410.728 406.758 410.925C409.26 411.803 411.749 412.679 414.25 413.557C414.995 413.815 415.76 413.764 416.52 413.608C416.803 413.557 416.892 413.365 416.87 413.074C416.787 412.015 417.389 411.594 418.335 412.021C418.431 412.065 418.529 412.097 418.627 412.128C418.662 412.083 418.687 412.022 418.722 411.977C418.469 411.798 418.232 411.61 417.975 411.457C417.453 411.123 417.224 410.754 417.36 410.388C417.512 409.999 418.023 409.848 418.617 410.013C418.728 410.047 418.836 410.093 418.939 410.1C419.132 410.11 419.489 410.152 419.511 410.104C419.585 409.857 419.628 409.565 419.553 409.342C419.497 409.162 419.265 409.013 419.078 408.9C418.398 408.51 417.712 408.145 417.032 407.755C416.752 407.585 416.479 407.377 416.219 407.171C415.926 406.933 415.894 406.627 416.06 406.306C416.221 406.01 416.483 405.864 416.818 405.954C417.273 406.092 417.724 406.256 418.161 406.417C418.32 406.473 418.459 406.564 418.612 406.646C418.787 406.078 418.616 405.746 418.09 405.503C417.178 405.095 416.251 404.698 415.34 404.291C415.123 404.198 414.911 404.079 414.7 403.961C414.367 403.793 414.227 403.506 414.345 403.163C414.465 402.807 414.75 402.613 415.135 402.712C415.769 402.871 416.382 403.066 417.011 403.25C417.16 403.291 417.321 403.335 417.472 403.363C417.509 403.305 417.546 403.247 417.583 403.189C417.305 402.941 417.052 402.632 416.734 402.454C415.827 401.956 414.895 401.519 413.953 401.066C413.311 400.749 412.651 400.455 412.84 399.473C412.594 399.531 412.433 399.552 412.278 399.614C410.96 400.174 409.643 400.316 408.22 400.059C406.684 399.782 405.332 399.226 404.071 398.335C403.43 397.874 402.677 397.588 401.96 397.256C401.781 397.17 401.562 397.155 401.356 397.142C400.417 397.082 400.29 397.201 400.154 398.115C400.091 398.508 400.001 398.908 399.841 399.269C399.428 400.196 398.556 400.67 397.558 400.572C396.333 400.445 395.669 399.967 395.47 398.833C395.334 398.116 395.429 397.351 395.401 396.615C395.391 396.326 395.417 395.992 395.294 395.747C395.004 395.157 394.629 395.073 394.13 395.5C392.881 396.581 391.666 397.682 390.439 398.781C389.402 399.707 388.331 400.6 387.36 401.59C386.612 402.362 386.331 403.353 386.394 404.382Z" fill="#E8E8E8"/>
<path d="M424.822 400.222C425.228 400.358 425.459 400.638 425.527 401.054C425.562 401.278 425.566 401.515 425.543 401.737C425.427 402.955 424.51 403.687 423.411 403.47C422.71 403.337 422.351 403.003 422.248 402.412C421.979 400.845 423.308 399.709 424.822 400.222ZM423.627 402.398C423.951 402.449 424.215 402.253 424.262 401.908C424.311 401.602 424.167 401.378 423.909 401.339C423.604 401.291 423.327 401.504 423.273 401.838C423.214 402.142 423.35 402.355 423.627 402.398Z" fill="#E8E8E8"/>
<path d="M420.983 396.178C422.023 396.749 422.142 398.484 421.173 399.177C420.604 399.581 419.985 399.631 419.36 399.356C418.879 399.146 418.645 398.728 418.616 398.211C418.606 398.012 418.646 397.803 418.652 397.617C418.702 397.41 418.738 397.22 418.803 397.035C419.089 396.262 420.281 395.789 420.983 396.178ZM419.535 397.676C419.484 397.991 419.451 398.319 419.806 398.416C420.03 398.478 420.31 398.452 420.521 398.374C420.584 398.357 420.541 398.014 420.54 397.817C420.541 397.758 420.514 397.694 420.495 397.641C420.421 397.41 420.391 397.109 420.041 397.141C419.73 397.171 419.563 397.376 419.535 397.676Z" fill="#E8E8E8"/>
<path d="M418.802 389.99C418.168 390.224 417.217 389.699 417.038 389.045C416.874 388.463 417.041 387.953 417.449 387.518C417.832 387.108 418.308 387.09 418.818 387.246C419.868 387.356 419.945 388.188 419.642 388.997C419.473 389.417 419.246 389.828 418.802 389.99ZM418.392 388.287C418.263 388.293 418.141 388.417 417.951 388.539C418.077 388.7 418.192 388.87 418.203 388.862C418.358 388.773 418.488 388.66 418.627 388.548C418.545 388.464 418.462 388.281 418.392 388.287Z" fill="#E8E8E8"/>
<path d="M203 170.373C203 166.37 204.796 162.618 206.386 159.057C207.032 157.612 208.149 156.536 209.196 155.42C209.924 154.643 210.547 153.752 211.285 153.009C211.822 152.468 212.487 152.104 213.015 151.573C213.614 150.969 214.359 150.345 215.168 150.049C215.906 149.778 216.569 149.173 217.265 148.823C217.547 148.681 217.845 148.773 218.13 148.629C218.49 148.448 218.853 148.322 219.251 148.307C219.899 148.281 220.469 147.871 221.156 147.871C221.774 147.871 222.322 147.581 222.957 147.581C223.496 147.581 224.042 147.145 224.542 147.145C225.178 147.145 225.744 147 226.343 147" stroke="#009DAF" stroke-width="2" stroke-linecap="round" stroke-linejoin="round"/>
<path d="M249.9 170.373C249.9 166.37 248.104 162.618 246.514 159.057C245.868 157.612 244.751 156.536 243.704 155.42C242.976 154.643 242.353 153.752 241.615 153.009C241.078 152.468 240.413 152.104 239.886 151.573C239.286 150.969 238.541 150.345 237.732 150.049C236.995 149.778 236.331 149.173 235.635 148.823C235.354 148.681 235.056 148.773 234.77 148.629C234.411 148.448 234.048 148.322 233.65 148.307C233.002 148.281 232.431 147.871 231.745 147.871C231.126 147.871 230.578 147.581 229.943 147.581C229.404 147.581 228.858 147.145 228.358 147.145C227.722 147.145 227.156 147 226.557 147" stroke="#009DAF" stroke-width="2" stroke-linecap="round" stroke-linejoin="round"/>
<path d="M226.331 147.185C225.804 147.6 225.278 148.005 224.76 148.412C224.551 148.575 224.377 148.903 224.132 149.013C223.874 149.129 223.82 149.396 223.608 149.521C223.212 149.756 222.582 150.335 222.352 150.74C222.202 151.004 221.964 151.084 221.793 151.299C221.638 151.495 221.465 151.704 221.289 151.881C220.688 152.487 219.89 153.231 219.505 154.007C219.023 154.977 218.594 155.913 218.109 156.891C217.886 157.339 217.578 157.907 217.469 158.403C217.397 158.727 217.165 158.968 217.011 159.247C216.904 159.442 216.851 159.685 216.712 159.86C216.576 160.032 216.528 160.403 216.433 160.618C216.332 160.848 216.2 161.123 216.134 161.353C216.08 161.544 215.853 161.742 215.754 161.92C215.599 162.201 215.489 162.484 215.386 162.783C214.971 163.991 214.603 165.07 214.603 166.386C214.603 167.033 214.463 167.662 214.463 168.32C214.463 168.847 214.463 169.375 214.463 169.902" stroke="#009DAF" stroke-width="2" stroke-linecap="round" stroke-linejoin="round"/>
<path d="M226.569 147.185C227.097 147.6 227.622 148.005 228.14 148.412C228.349 148.575 228.523 148.903 228.769 149.013C229.027 149.129 229.08 149.396 229.292 149.521C229.689 149.756 230.319 150.335 230.549 150.74C230.698 151.004 230.937 151.084 231.107 151.299C231.262 151.495 231.436 151.704 231.611 151.881C232.213 152.487 233.01 153.231 233.396 154.007C233.877 154.977 234.306 155.913 234.792 156.891C235.014 157.339 235.322 157.907 235.432 158.403C235.503 158.727 235.736 158.968 235.889 159.247C235.997 159.442 236.049 159.685 236.188 159.86C236.325 160.032 236.372 160.403 236.467 160.618C236.569 160.848 236.701 161.123 236.766 161.353C236.82 161.544 237.048 161.742 237.146 161.92C237.301 162.201 237.412 162.484 237.514 162.783C237.929 163.991 238.298 165.07 238.298 166.386C238.298 167.033 238.438 167.662 238.438 168.32C238.438 168.847 238.438 169.375 238.438 169.902" stroke="#009DAF" stroke-width="2" stroke-linecap="round" stroke-linejoin="round"/>
<path d="M226.401 147.536C226.357 147.284 226.47 146.866 226.47 147.325C226.47 147.443 226.412 147.812 226.505 147.888C226.653 148.007 226.569 148.775 226.614 148.978C226.778 149.724 226.82 150.435 226.82 151.229C226.82 152.096 226.82 152.964 226.82 153.831C226.82 154.875 226.959 155.888 226.959 156.918C226.959 158.293 227.029 159.659 227.029 161.04C227.029 162.109 226.889 163.128 226.889 164.205C226.889 165.122 226.75 166.048 226.75 166.964C226.75 167.944 226.75 168.923 226.75 169.902" stroke="#009DAF" stroke-width="2" stroke-linecap="round" stroke-linejoin="round"/>
<path d="M203.156 170.503C203.351 170.361 203.543 170.198 203.725 170.055C203.82 169.981 203.863 169.876 203.978 169.824C204.048 169.793 204.188 169.732 204.242 169.688C204.381 169.576 204.563 169.478 204.736 169.4C204.933 169.312 205.191 169.307 205.368 169.169C205.408 169.137 205.608 169.079 205.665 169.063C205.772 169.032 205.872 169.075 205.979 169.027C206.155 168.949 206.448 168.856 206.643 168.848C207.109 168.83 207.613 168.692 208.064 168.591C208.564 168.479 209.103 168.466 209.625 168.466C209.863 168.466 210.101 168.5 210.327 168.509C210.623 168.52 210.911 168.663 211.202 168.679C211.78 168.709 212.316 169.062 212.866 169.185C213.11 169.24 213.374 169.34 213.604 169.442C213.759 169.512 214.404 169.472 214.404 169.697" stroke="#009DAF" stroke-width="2" stroke-linecap="round" stroke-linejoin="round"/>
<path d="M214.529 170.036C214.691 169.828 214.937 169.721 215.119 169.527C215.272 169.364 215.547 169.163 215.784 169.145C216.04 169.125 216.362 168.949 216.593 168.838C216.799 168.741 217.127 168.67 217.352 168.638C218.027 168.541 218.723 168.296 219.407 168.296C219.99 168.296 220.524 168.126 221.101 168.126C221.645 168.126 222.399 168.005 222.912 168.19C223.03 168.232 223.186 168.229 223.31 168.251C223.443 168.276 223.575 168.319 223.71 168.336C223.998 168.373 224.283 168.531 224.565 168.551C224.722 168.562 225.068 168.625 225.187 168.721C225.37 168.868 225.676 168.881 225.882 168.996C226.067 169.1 226.224 169.248 226.388 169.376C226.513 169.474 226.759 169.554 226.83 169.697" stroke="#009DAF" stroke-width="2" stroke-linecap="round" stroke-linejoin="round"/>
<path d="M238.585 169.994C238.381 169.657 237.99 169.365 237.679 169.122C237.35 168.864 237.042 168.65 236.668 168.447C235.675 167.909 234.551 167.787 233.445 167.787C233.12 167.787 232.747 167.733 232.434 167.83C232.125 167.925 231.755 168.019 231.433 168.042C231.136 168.062 230.822 168.167 230.529 168.221C230.154 168.29 229.768 168.386 229.411 168.518C228.879 168.714 228.39 169.01 227.852 169.197C227.576 169.293 227.324 169.455 227.051 169.56C227.001 169.58 226.717 169.758 226.705 169.782" stroke="#009DAF" stroke-width="2" stroke-linecap="round" stroke-linejoin="round"/>
<path d="M249.999 170.419C249.709 170.126 249.524 169.724 249.199 169.466C248.927 169.251 248.673 169.052 248.356 168.9C247.489 168.486 246.559 168.509 245.623 168.509C244.176 168.509 242.708 168.313 241.305 168.785C240.982 168.893 240.653 168.973 240.329 169.084C240.06 169.176 239.796 169.26 239.519 169.325C239.331 169.369 239.052 169.445 238.878 169.537C238.767 169.596 238.677 169.697 238.541 169.697" stroke="#009DAF" stroke-width="2" stroke-linecap="round" stroke-linejoin="round"/>
<path d="M226.362 195.159C225.295 194.345 224.534 193.339 223.363 192.665C222.968 192.437 222.733 192.029 222.328 191.623C221.925 191.217 221.294 190.587 221.294 190.587C221.294 190.587 219.537 188.639 218.76 187.856C218.311 187.404 218.027 186.932 217.522 186.371C216.866 185.643 216.343 185.184 215.754 184.59C215.128 183.959 214.624 183.369 213.862 182.624C213.104 181.884 212.491 181.422 211.865 180.79C210.694 179.611 209.354 178.452 208.355 177.109C208.01 176.646 207.797 176.201 207.386 175.658C207.122 175.31 206.963 175.124 206.678 174.794C206.432 174.507 206.264 174.372 206.03 174.075C205.747 173.715 205.667 173.456 205.382 173.098C205.138 172.791 204.94 172.671 204.701 172.359C204.453 172.036 204.359 171.74 204.144 171.475C203.951 171.238 203.221 170.065 203.143 170.222" stroke="#009DAF" stroke-width="2" stroke-linecap="round" stroke-linejoin="round"/>
<path d="M226.398 195.253C226.308 195.034 226.175 194.891 226.042 194.701C225.87 194.453 225.747 194.122 225.611 193.852C225.347 193.327 225.004 192.826 224.808 192.271C224.625 191.75 224.37 191.28 224.103 190.798C223.538 189.778 223.007 188.746 222.422 187.738C222.256 187.452 222.191 187.327 222.079 187.078C221.941 186.773 221.796 186.419 221.579 186.16C221.259 185.779 221.136 185.253 220.858 184.848C220.036 183.652 219.471 182.286 218.86 180.978C218.561 180.338 218.222 179.703 217.964 179.042C217.622 178.165 217.033 177.382 216.755 176.474C216.576 175.888 216.299 175.326 216.138 174.735C215.943 174.012 215.74 173.327 215.44 172.647C215.362 172.47 215.333 172.24 215.283 172.049C215.204 171.751 215.032 171.468 214.973 171.172C214.921 170.911 214.828 170.677 214.788 170.415C214.756 170.204 214.607 170.006 214.607 169.793" stroke="#009DAF" stroke-width="2" stroke-linecap="round" stroke-linejoin="round"/>
<path d="M226.763 169.701C226.763 171.156 226.845 172.643 226.72 174.09C226.676 174.599 226.746 175.113 226.695 175.622C226.626 176.301 226.535 177.02 226.535 177.702C226.535 178.459 226.502 179.214 226.489 179.968C226.47 181.064 226.58 182.155 226.58 183.247C226.58 183.758 226.542 184.242 226.489 184.749C226.437 185.243 226.419 185.766 226.329 186.253C226.254 186.662 226.261 187.145 226.261 187.562C226.261 188.426 226.261 189.29 226.261 190.153C226.261 191.384 226.261 192.627 226.261 193.852C226.261 194.297 226.215 194.755 226.215 195.207" stroke="#009DAF" stroke-width="2" stroke-linecap="round" stroke-linejoin="round"/>
<path d="M226.307 195.253C226.938 194.487 227.481 193.657 228 192.811C228.57 191.881 229.217 191.001 229.78 190.069C230.763 188.442 231.519 186.693 232.293 184.961C232.722 184 233.182 183.08 233.684 182.158C233.762 182.014 233.801 181.849 233.867 181.697C233.945 181.519 234.069 181.367 234.141 181.188C234.457 180.407 234.764 179.622 235.071 178.838C235.492 177.762 236.101 176.776 236.383 175.638C236.675 174.463 237.259 173.455 237.741 172.361C238.001 171.773 238.373 171.18 238.465 170.53C238.483 170.406 238.554 170.287 238.554 170.162C238.554 170.027 238.513 169.768 238.645 169.701" stroke="#009DAF" stroke-width="2" stroke-linecap="round" stroke-linejoin="round"/>
<path d="M226.443 195.253C226.695 194.765 227.163 194.561 227.563 194.217C228.1 193.756 228.709 193.398 229.228 192.905C229.757 192.404 230.294 191.901 230.83 191.411C231.341 190.945 231.714 190.348 232.245 189.892C233.017 189.228 233.6 188.362 234.207 187.552C234.742 186.838 235.294 186.136 235.905 185.488C236.787 184.553 237.293 183.337 238.099 182.336C238.511 181.825 238.943 181.284 239.404 180.82C239.922 180.298 240.499 179.846 241.067 179.38C241.602 178.94 242.115 178.483 242.61 177.998C242.955 177.662 243.368 177.386 243.735 177.072C244.164 176.707 244.524 176.279 244.936 175.896C245.389 175.475 245.886 175.112 246.322 174.673C246.699 174.294 247.052 173.892 247.429 173.512C247.957 172.98 248.297 172.439 248.693 171.803C248.963 171.371 249.242 170.883 249.602 170.519C249.688 170.433 249.836 170.356 249.887 170.253" stroke="#009DAF" stroke-width="2" stroke-linecap="round" stroke-linejoin="round"/>
<path d="M242.448 154.511C242.061 154.88 241.662 155.205 241.235 155.514C240.92 155.742 240.493 155.927 240.218 156.201C239.98 156.439 239.603 156.376 239.399 156.562C239.24 156.708 238.912 156.841 238.721 156.897" stroke="#009DAF" stroke-width="2" stroke-linecap="round" stroke-linejoin="round"/>
<path d="M239.329 153.537C239.601 153.502 240.472 153.12 240.663 152.877" stroke="#009DAF" stroke-width="2" stroke-linecap="round" stroke-linejoin="round"/>
<path d="M238.721 159.788C239.349 159.788 239.791 159.307 240.312 158.989C240.538 158.851 240.764 158.698 240.994 158.572C241.234 158.439 241.584 158.192 241.847 158.162C242.119 158.13 242.361 157.786 242.668 157.786C242.875 157.786 243.173 157.569 243.324 157.411C243.613 157.111 243.966 156.55 244.347 156.411" stroke="#009DAF" stroke-width="2" stroke-linecap="round" stroke-linejoin="round"/>
<path d="M239.123 163.009C240.054 163.009 240.928 162.293 241.737 161.848C242.353 161.509 242.951 161.121 243.562 160.785C244.327 160.365 245.036 159.787 245.773 159.381" stroke="#009DAF" stroke-width="2" stroke-linecap="round" stroke-linejoin="round"/>
<path d="M239.123 166.236C240.836 166.236 242.183 165.089 243.714 164.414C243.971 164.3 244.283 163.976 244.503 163.783C244.878 163.454 245.257 163.137 245.632 162.807C245.958 162.52 246.441 162.057 246.834 161.911" stroke="#009DAF" stroke-width="2" stroke-linecap="round" stroke-linejoin="round"/>
<path d="M241.533 168.021C243.07 168.021 244.154 167.048 245.41 166.346C246.294 165.851 246.892 164.86 247.774 164.422" stroke="#009DAF" stroke-width="2" stroke-linecap="round" stroke-linejoin="round"/>
<path d="M246.707 168.384C247.157 168.208 248.347 167.264 248.748 166.997" stroke="#009DAF" stroke-width="2" stroke-linecap="round" stroke-linejoin="round"/>
</g>
<path d="M1281.92 334.509C1282.18 336.414 1281.84 338.228 1280.36 339.767C1279.38 340.772 1278.25 341.367 1276.81 341.275C1275.92 341.23 1275 341.169 1274.12 341.23C1269.94 341.489 1267.2 337.694 1267.75 333.945C1267.88 333.001 1268.19 332.071 1268.49 331.172C1268.66 330.654 1268.64 330.242 1268.19 329.877C1267.36 329.206 1266.55 328.475 1265.67 327.896C1263.88 326.722 1262.02 325.64 1260.19 324.497C1259.68 324.177 1259.19 324.04 1258.69 324.421C1255.71 326.707 1252.37 326.57 1248.9 325.899C1246.42 325.427 1244.12 324.68 1242.32 322.821C1241.97 322.455 1241.64 322.059 1241.33 321.648C1241.01 321.206 1240.62 321.084 1240.13 321.267C1237.14 322.333 1234.14 323.431 1231.15 324.497C1230.46 324.741 1230.08 325.198 1230.01 325.96C1229.73 328.657 1228.4 330.913 1226.66 332.924C1226.22 333.458 1225.4 333.839 1224.68 333.961C1223.12 334.22 1221.56 333.961 1220.09 333.336C1216.84 331.949 1215.31 328.779 1216.3 325.305C1216.93 323.08 1218.08 321.145 1220.32 320.2C1223.06 319.042 1225.63 319.545 1227.84 321.495C1228.49 322.059 1229.05 322.166 1229.85 321.861C1232.92 320.688 1236 319.56 1239.09 318.463C1239.76 318.219 1239.97 317.884 1239.8 317.213C1239.65 316.603 1239.55 315.963 1239.45 315.354C1239.26 314.226 1239.34 313.129 1239.85 312.093C1242.14 307.323 1245.74 304.321 1251.21 303.742C1251.44 303.711 1251.65 303.635 1251.89 303.62C1252.63 303.559 1252.88 303.163 1252.88 302.446C1252.88 299.932 1252.91 297.433 1252.94 294.918C1252.94 294.324 1252.81 293.791 1252.15 293.73C1249.43 293.456 1248.31 291.52 1247.68 289.311C1247.1 287.299 1247.29 285.242 1248.23 283.306C1249.16 281.325 1250.8 280.396 1252.91 280.152C1252.94 280.152 1252.95 280.152 1252.98 280.152C1254.59 279.984 1256.23 279.71 1257.63 280.899C1259.45 282.499 1260.86 284.327 1261.34 286.781C1261.62 288.183 1261.37 289.539 1261.06 290.834C1260.66 292.48 1259.31 293.318 1257.66 293.654C1256.68 293.852 1256.54 293.974 1256.59 294.949C1256.7 297.479 1256.79 300.008 1256.9 302.553C1256.95 303.65 1257.08 303.696 1258.21 303.727C1259.24 303.757 1260.29 303.803 1261.26 304.062C1262.86 304.473 1263.66 305.616 1264 307.216C1264.87 311.346 1264.59 315.323 1262.73 319.148C1262.52 319.606 1262.64 319.971 1263.01 320.291C1264.56 321.632 1266.07 323.004 1267.65 324.299C1268.15 324.711 1268.78 324.985 1269.35 325.335C1269.9 325.671 1270.5 325.96 1270.93 326.387C1271.86 327.332 1272.94 327.682 1274.28 327.621C1276.27 327.545 1278.16 327.972 1279.8 329.191C1281.16 330.197 1282.06 331.477 1281.93 333.26C1281.89 333.641 1281.92 334.022 1281.92 334.509ZM1245.77 317.914C1245.84 317.96 1245.9 318.005 1245.96 318.036C1246.07 317.975 1246.18 317.929 1246.27 317.853C1246.86 317.289 1247.41 316.695 1248.03 316.146C1248.87 315.4 1249.78 314.821 1250.97 314.821C1251.62 314.821 1252.24 314.912 1252.5 315.582C1252.78 316.299 1252.41 316.741 1251.89 317.274C1250.73 318.478 1249.69 319.804 1248.65 321.099C1248.54 321.236 1248.67 321.541 1248.68 321.754C1248.88 321.678 1249.13 321.663 1249.27 321.541C1249.58 321.236 1249.81 320.87 1250.11 320.55C1250.73 319.895 1251.42 319.407 1252.38 319.468C1253.11 319.514 1253.37 319.987 1253.03 320.611C1252.81 321.008 1252.58 321.373 1252.27 321.891C1252.74 321.937 1253.05 322.013 1253.36 321.998C1254.87 321.876 1256.02 321.099 1256.91 319.956C1258.83 317.518 1259.85 314.76 1259.92 311.666C1259.96 309.807 1259.16 308.694 1257.3 308.253C1255.46 307.811 1253.59 307.78 1251.73 308.237C1250.42 308.557 1249.18 309.045 1248.47 310.31C1247.89 311.331 1247.99 311.437 1249.02 311.818C1249.47 311.986 1249.94 312.398 1250.17 312.824C1250.45 313.327 1249.89 313.601 1249.56 313.906C1248.47 314.942 1247.37 315.963 1246.3 317.03C1246.07 317.289 1245.94 317.624 1245.77 317.914ZM1275.39 331.02C1274.71 331.172 1274.2 331.187 1273.78 331.416C1273.44 331.599 1272.98 332.025 1272.99 332.315C1273.1 333.976 1273.18 335.667 1274.43 336.993C1274.91 337.496 1275.44 337.603 1276.01 337.252C1277.12 336.582 1278.04 335.713 1278.61 334.524C1279.13 333.427 1278.86 332.345 1277.76 331.812C1276.98 331.431 1276.09 331.248 1275.39 331.02ZM1252.5 288.67C1252.46 289.463 1252.72 289.981 1253.31 290.316C1254.02 290.712 1254.76 290.819 1255.51 290.362C1256.56 289.707 1257.16 288.731 1257.47 287.558C1257.89 285.958 1256.79 284.602 1255.12 284.693C1254.84 284.708 1254.49 284.83 1254.3 285.013C1253.28 286.08 1252.66 287.329 1252.5 288.67ZM1222.84 326.661C1222.83 326.661 1222.81 326.661 1222.8 326.661C1222.8 327.164 1222.81 327.682 1222.8 328.185C1222.75 328.962 1223.14 329.526 1223.66 330.044C1224.08 330.456 1224.45 330.456 1224.85 330.029C1226.31 328.536 1226.85 326.753 1226.56 324.726C1226.46 324.055 1225.98 323.583 1225.33 323.385C1224.9 323.248 1223.04 324.132 1222.94 324.467C1222.87 324.634 1222.86 324.817 1222.86 324.985C1222.84 325.549 1222.84 326.097 1222.84 326.661Z" fill="#FF719C"/>
</svg>
