<svg width="360" height="237" viewBox="0 0 360 237" fill="none" xmlns="http://www.w3.org/2000/svg">
<path d="M15.7803 74.9373C15.2781 76.3597 14.7459 77.788 14.2803 79.2054C13.9879 80.0923 13.9798 80.8774 14.1163 81.5817C14.3259 82.6589 14.5208 83.7543 14.741 84.823C14.8205 85.1969 14.9471 85.5571 15.1048 85.8611C15.9631 87.522 16.4137 89.5397 16.97 91.4713C17.0707 91.8279 17.1502 92.2018 17.2908 92.5135C17.3864 92.7384 17.5308 92.9297 17.7102 93.0553C17.9512 93.2298 18.2562 93.1913 18.6309 92.7996C19.0266 92.3906 19.4272 92.0025 19.8367 91.6257C20.1533 91.3368 20.4884 91.1009 20.8026 90.8016C21.0664 90.5559 21.3294 90.2798 21.5642 89.9897C21.7801 89.7272 21.7917 89.4768 21.7327 89.2469C21.6927 89.1003 21.7122 88.9114 21.6934 88.7476C21.6685 88.5022 21.6582 88.2387 21.591 88.0278C21.0476 86.2896 20.1924 84.861 19.4406 83.3358C18.7819 82.0251 18.63 80.351 18.6984 78.5159C18.7328 77.6538 19.0617 76.7618 19.6782 75.9197C20.4954 74.803 21.3859 73.7871 22.344 72.9015C22.4938 72.7609 22.7084 72.6293 22.8398 72.6273C23.7423 72.621 24.6636 72.5871 25.4007 72.9813C25.9873 73.2943 26.4108 73.8265 26.7357 74.4762C27.3162 75.6653 27.9179 76.8371 28.4056 78.114C28.6943 78.8797 28.7804 79.829 28.9657 80.6913C29.0244 81.0018 29.0579 81.339 29.1524 81.6142C29.2285 81.8364 29.3412 82.0535 29.5053 82.1669C29.6193 82.2532 29.8496 82.2448 30.0236 82.1277C30.5098 81.8119 30.9978 81.4762 31.4601 81.0562C32.1063 80.4803 32.7471 79.8532 33.3701 79.2036C34.0143 78.5366 34.2255 77.8703 34.049 77.2109C33.7559 76.1523 33.4586 75.1033 33.1654 74.0447C33.1022 73.8243 33.0603 73.5866 33.0394 73.3318C32.9517 72.4024 32.636 71.6834 32.2527 71.0256C31.7999 70.3381 31.4016 69.5875 30.9528 68.8904C30.14 67.6189 29.0497 66.7525 27.7294 66.1971C26.631 65.7327 25.3869 65.7825 23.9459 66.3695C23.1645 66.6848 22.4067 67.1848 21.6537 67.8972C21.2466 68.2844 20.8051 68.5762 20.4093 68.9851C19.2407 70.1843 18.0359 71.308 17.0461 72.794C16.5794 73.4955 16.1338 74.1798 15.8516 74.9472C15.8257 74.9436 15.8063 74.9409 15.7803 74.9373ZM19.6728 90.4741C19.2084 90.9945 19.1484 91.0064 18.874 90.6862C18.5931 90.3652 18.2894 90.0813 18.0045 89.7697C17.9601 89.7132 17.9785 89.5746 17.9676 89.4723C18.0846 89.4078 18.2075 89.3139 18.3 89.3066C18.373 89.2965 18.4163 89.4033 18.4672 89.4607C18.8565 89.8169 19.1292 90.3485 19.6728 90.4741C19.6806 90.3441 19.7219 90.1684 19.6769 90.0815C19.5949 89.8888 19.4895 89.7029 19.3571 89.5636C19.1254 89.3199 18.8578 89.1115 18.6091 88.8756C18.8349 88.5742 18.9383 88.6691 19.0434 88.7441C19.3168 88.923 19.6007 89.0933 19.8634 89.2808C19.9662 89.3454 20.0883 89.4127 20.1194 89.548C20.2648 90.0721 20.418 90.0832 19.6728 90.4741ZM29.4039 71.2769C29.107 71.4878 28.8753 71.6272 28.6597 71.809C28.4904 71.9469 28.2983 72.1219 28.1735 72.3164C28.0902 72.446 28.0373 72.6806 28.0677 72.7856C28.0933 72.8697 28.2595 72.8826 28.366 72.8268C28.7259 72.6447 29.0934 72.4133 29.4568 72.1914C29.6885 72.052 29.8833 71.9983 29.9864 72.1739C30.1546 72.4693 30.3041 72.7923 30.4618 73.0964C30.5092 73.1936 30.5631 73.2918 30.6293 73.3614C30.7488 73.4989 30.9187 73.5829 30.9853 73.7634C31.218 74.3399 31.4191 74.9423 31.6266 75.5455C31.6866 75.7251 31.5894 75.9032 31.4191 76.0914C30.9841 76.5755 30.545 77.0692 30.11 77.5534C29.7295 77.9745 29.7084 77.9918 29.5858 77.622C29.1138 76.0851 28.465 74.7355 27.7381 73.4557C27.2109 72.526 26.5686 71.7518 25.7005 71.279C25.3624 71.0911 24.9918 70.8988 24.5659 70.9306C23.0321 71.031 21.5014 71.9383 20.0852 73.8088C19.3864 74.7303 18.7716 75.744 18.1213 76.7124C17.648 77.4131 17.4904 78.0666 17.4755 78.7399C17.4588 79.6246 17.5503 80.4336 17.7183 81.1926C17.9599 82.355 18.1764 83.544 18.4327 84.6882C18.5068 85.011 18.6972 85.2389 18.816 85.5375C18.9781 85.943 19.1255 86.3665 19.2559 86.7978C19.2726 86.8707 19.1767 87.1094 19.0986 87.1793C18.6346 87.6191 18.1658 88.0381 17.6987 88.4372C17.6205 88.5071 17.4533 88.5444 17.4414 88.4924C17.3069 88.0706 17.1212 87.672 17.0973 87.1848C17.0795 86.7792 17.0266 86.4393 16.8673 86.1551C16.5236 85.5331 16.1482 84.9369 15.855 84.2613C15.1708 82.6749 15.0239 80.7496 15.6891 78.3418C15.9163 77.5265 16.107 76.7162 16.3642 75.895C16.5007 75.4502 16.673 74.97 16.9179 74.5604C17.9084 72.9132 19.0449 71.4374 20.4033 70.2443C20.5701 70.096 20.737 69.9477 20.8949 69.7881C21.9144 68.7598 22.9466 68.1969 23.9948 67.8681C24.2173 67.798 24.4429 67.7687 24.6227 67.8137C25.2618 67.9727 25.8887 68.1601 26.4967 68.3752C26.8506 68.4947 26.8253 68.5214 26.5579 69.0792C26.4818 69.24 26.4484 69.4773 26.4958 69.5746C26.5432 69.6718 26.72 69.6761 26.8459 69.623C27.0295 69.5476 27.2216 69.3725 27.415 69.2581C27.5321 69.1937 27.6938 69.1052 27.7593 69.1445C27.934 69.2493 28.0671 69.4188 28.2497 69.5852C28.0934 69.7249 27.9982 69.8024 27.9054 69.8904C27.7174 70.0559 27.51 70.2188 27.3308 70.3956C27.1265 70.5992 26.8903 70.8286 26.9678 71.1115C27.034 71.3726 27.2575 71.2523 27.4722 71.1207C27.8144 70.916 28.1559 70.681 28.5006 70.4867C28.6176 70.4223 28.8036 70.3573 28.8503 70.4242C29.052 70.6739 29.2114 70.958 29.4039 71.2769ZM32.009 79.3178C31.9861 79.3549 31.9657 79.4025 31.9428 79.4397C31.4119 79.205 30.8768 78.9798 30.3393 78.7442C30.3451 78.7148 30.3509 78.6854 30.3567 78.6559C30.4809 78.6227 30.615 78.5505 30.7229 78.5554C30.8502 78.5629 30.9593 78.6284 31.0726 78.6843C31.4231 78.8437 31.794 78.9554 32.009 79.3178ZM30.9598 80.2714C30.9547 80.3312 30.9472 80.3806 30.9421 80.4403C30.8209 80.5143 30.6916 80.6073 30.5722 80.6613C30.4869 80.7 30.3627 80.7332 30.3443 80.6802C30.276 80.5196 30.2501 80.3245 30.2135 80.138C30.204 80.0964 30.236 79.9899 30.276 79.9451C30.3094 79.8993 30.3971 79.8711 30.4213 79.8946C30.6114 80.0116 30.7868 80.1467 30.9598 80.2714Z" fill="#009DAF"/>
<path d="M27.6337 94.3163C27.9924 94.1232 28.2619 93.9729 28.5415 93.8349C28.8716 93.6708 29.0993 93.4056 29.2385 93.0083C29.3758 92.6325 29.2783 92.4336 29.062 92.3611C28.4523 92.1599 27.8261 91.9784 27.2072 91.7978C26.9175 91.7156 26.6204 91.6324 26.3075 91.6019C26.168 91.5834 25.9576 91.6539 25.7919 91.7633C25.5112 91.9558 25.3859 92.3222 25.5672 92.4556C25.8701 92.6818 26.2129 92.8367 26.5583 93.0029C26.7213 93.0902 26.9056 93.1474 27.1567 93.2464C26.9625 93.3848 26.8575 93.4803 26.7518 93.5428C26.4537 93.7221 26.1455 93.8892 25.8502 94.0798C25.5787 94.2517 25.3904 94.5331 25.3103 94.8507C25.2301 95.1683 25.3102 95.354 25.5165 95.4142C26.3738 95.6702 27.2311 95.9261 28.1096 96.1521C28.6176 96.2851 29.1561 96.3675 29.6872 96.4489C29.7826 96.4615 29.9719 96.421 30.0236 96.3403C30.1131 96.2099 30.1856 95.9788 30.1612 95.8771C30.1004 95.683 30.0057 95.4954 29.8527 95.4204C29.1738 95.0787 28.4691 94.7773 27.7763 94.4666C27.7415 94.4401 27.7233 94.3939 27.6337 94.3163Z" fill="#009DAF"/>
<path d="M37.2602 84.6882C36.9242 84.9119 36.5856 85.1245 36.2575 85.3815C35.6601 85.8495 35.51 86.4412 35.948 86.6709C36.2649 86.831 36.6505 86.8713 36.9764 87.0111C37.5412 87.2469 38.0834 87.5334 38.6436 87.7793C38.7595 87.8268 38.8915 87.8551 39.0327 87.8631C39.3104 87.8891 39.5734 87.7094 39.747 87.3891C39.9161 87.0789 39.9269 86.7477 39.7115 86.6333C39.4836 86.4958 39.1978 86.4365 38.9491 86.3284C38.5289 86.1439 38.1133 85.9493 37.7021 85.7446C37.6635 85.7288 37.6574 85.6743 37.5982 85.6021C37.7649 85.4847 37.901 85.3847 38.0442 85.2857C38.2226 85.1591 38.409 85.0658 38.5677 84.9152C38.9553 84.5588 39.1169 84.0437 38.8911 83.7992C38.6948 83.5908 38.4498 83.4403 38.1958 83.3101C37.5692 82.991 36.9336 82.6921 36.2862 82.4025C36.1462 82.341 35.9547 82.3263 35.7649 82.3763C35.6461 82.4035 35.4424 82.5696 35.3764 82.7003C35.3032 82.8301 35.3016 83.0552 35.3517 83.1477C35.4367 83.2984 35.5847 83.3932 35.7301 83.4768C36.1474 83.736 36.5737 83.9749 36.9955 84.2239C37.0951 84.2908 37.1857 84.3779 37.2807 84.4549C37.2805 84.5407 37.2704 84.6145 37.2602 84.6882Z" fill="#009DAF"/>
<path d="M324.282 49.0052C324.189 48.6034 323.988 48.3252 323.704 48.1227C323.295 47.8255 322.925 47.4784 322.547 47.1431C322.513 47.1094 322.525 46.9652 322.569 46.8893C322.993 46.1589 323.42 45.4371 323.865 44.7147C323.947 44.5817 324.128 44.4144 324.233 44.3886C325.047 44.1616 325.855 43.9462 326.661 43.7582C327.118 43.6485 327.284 43.5391 327.616 42.9809C327.935 42.446 327.826 41.9252 327.398 42.0242C326.24 42.2962 325.083 42.5825 323.975 42.682C323.147 42.7555 322.256 42.9975 321.389 43.177C321.306 43.1964 321.178 43.2559 321.116 43.3395C320.954 43.5567 320.844 44.2947 320.934 44.4477C321.114 44.7609 321.332 45.017 321.831 44.8025C321.921 44.7642 322.001 44.7722 322.087 44.7541C322.614 44.677 322.614 44.677 322.301 45.3412C322.268 45.414 322.238 45.481 322.201 45.5524C321.717 46.4872 321.504 46.6079 320.993 46.2731C320.664 46.0545 320.345 45.811 319.965 45.68C319.258 45.4295 318.502 45.2537 317.767 45.0499C317.495 44.9722 317.486 44.9264 317.723 44.5174C318.173 43.7403 318.627 42.9573 319.077 42.1802L319.073 42.1788C319.537 41.3784 320.005 40.5864 320.457 39.7819C320.545 39.6228 320.637 39.3801 320.603 39.2832C320.509 39.0152 320.402 38.7288 320.2 38.5917C319.927 38.4003 319.558 38.3438 319.23 38.2316C319.079 38.1837 319.038 38.0625 319.121 37.81C319.267 37.3819 319.387 36.9586 319.533 36.5376C319.659 36.1804 319.774 35.812 319.956 35.4678C320.387 34.6624 320.843 33.8592 321.314 33.0614C322.179 31.6074 323.219 30.4293 324.506 29.6806C324.842 29.4848 324.912 29.5031 324.884 29.8678C324.772 31.433 324.681 32.9847 324.527 34.5698C324.428 35.5808 324.229 36.6477 324.077 37.6889C323.99 38.2868 324.14 38.6526 324.574 38.6196C324.958 38.5894 325.057 38.7954 324.964 39.2496C324.952 39.3089 324.954 39.3592 324.949 39.414C324.935 40.0243 325.236 40.2048 325.81 39.9395C326.066 39.8206 326.32 39.7291 326.573 39.6088C326.787 39.5097 327.004 39.4119 327.22 39.2639C327.84 38.8247 328.064 38.439 328.115 37.7644C328.122 37.6751 328.133 37.5798 328.133 37.495C328.153 37.1132 328.188 36.7296 328.514 36.2967C328.559 36.2351 328.596 36.1565 328.615 36.0927C328.772 35.5059 328.971 34.9066 329.071 34.3415C329.438 32.1826 329.768 30.0391 330.117 27.8879C330.178 27.5209 330.226 27.4607 330.556 27.2694C330.616 27.2347 330.673 27.2059 330.73 27.1699C331.201 26.9029 331.447 26.603 331.555 26.0621C331.674 25.4548 331.772 24.8466 331.813 24.2744C331.875 23.4974 331.678 23.3975 330.972 23.6922C330.072 24.0725 329.632 23.7849 329.65 22.8435C329.654 22.7528 329.661 22.6634 329.647 22.5876C329.619 22.443 329.615 22.2575 329.528 22.1907C329.359 22.0585 329.268 21.8767 329.256 21.5893C329.256 21.2426 329.076 21.1913 328.756 21.3722C328.497 21.5186 328.239 21.6793 327.98 21.8256C327.742 21.9584 327.609 22.1432 327.509 22.4393C327.437 22.6468 327.288 22.9039 327.132 23.0663C326.906 23.3024 326.774 23.5302 326.734 23.7917C326.692 24.0805 326.646 24.3752 326.629 24.6518C326.614 24.9083 326.52 25.0791 326.269 25.264C326.076 25.4057 325.863 25.6256 325.72 25.8495C325.574 26.072 325.459 26.1858 325.279 26.2408C324.186 26.5788 323.069 27.2194 321.95 27.909C321.611 28.1179 321.227 28.417 320.948 28.761C320.319 29.537 319.699 30.3373 319.154 31.1788C318.25 32.5619 317.577 34.008 317.051 35.4719C316.514 36.9605 316.01 38.4396 315.883 39.8225C315.844 40.2753 315.662 40.6972 315.362 41.1539C314.956 41.7702 314.542 42.3838 314.184 43.0175C313.903 43.5097 313.605 43.9174 313.193 44.2346C312.834 44.5145 312.479 44.859 312.121 45.0827C311.817 45.269 311.582 45.4809 311.393 45.8225C311.255 46.0692 311.102 46.3178 311.01 46.5604C310.922 46.7972 310.816 47.1265 310.883 47.2428C311.075 47.5815 311.348 47.8362 311.599 48.1116C311.622 48.134 311.679 48.1196 311.722 48.1141C311.809 48.1104 311.903 48.0878 311.983 48.103C312.447 48.1656 312.888 48.2836 313.375 48.2982C313.914 48.3171 314.425 48.3829 314.879 48.5695C316.617 49.3008 318.528 49.7486 320.134 50.7078C320.898 51.1625 321.93 51.0995 322.922 51.1066C323.143 51.1094 323.388 50.9649 323.621 50.7172C324.045 50.263 324.376 49.4286 324.282 49.0052ZM327.209 37.8026C327.196 37.9395 327.17 38.0784 327.141 38.2661C326.918 38.3971 326.705 38.525 326.496 38.6398C326.34 38.7244 326.265 38.6688 326.237 38.5315C326.159 38.1494 326.2 38.0721 326.614 37.8124C326.698 37.7584 326.784 37.7187 326.865 37.649C327.162 37.3751 327.242 37.4608 327.209 37.8026ZM330.627 25.088C331.126 24.7671 331.167 24.7891 331.02 25.3583C330.955 25.6175 330.882 25.8812 330.794 26.2029C330.649 26.2987 330.513 26.4188 330.391 26.4594C330.341 26.4766 330.302 26.3352 330.302 26.2359C330.307 26.0114 330.351 25.7585 330.359 25.5281C330.362 25.3309 330.436 25.2096 330.627 25.088ZM329.441 26.6728C329.105 28.9488 328.755 31.2338 328.422 33.5111C328.323 34.1683 328.266 34.8056 328.178 35.4596C328.163 35.5535 328.073 35.74 328.006 35.7864C327.261 36.2935 326.512 36.785 325.763 37.2765C325.685 37.326 325.602 37.3454 325.499 37.3855C325.484 37.3025 325.456 37.2356 325.464 37.1534C325.549 35.996 325.642 34.8341 325.727 33.6766C325.757 33.263 325.726 32.8768 325.785 32.4523C325.991 30.9781 326.28 29.4701 326.344 28.0644C326.357 27.8497 326.443 27.7396 326.631 27.6383C327.42 27.2177 328.211 26.7769 329.003 26.3577C329.433 26.1249 329.515 26.1831 329.441 26.6728ZM329.327 24.7495C329.417 24.7184 329.534 24.7326 329.562 24.7994C329.595 24.8892 329.551 25.05 329.532 25.2131C329.412 25.2968 329.321 25.3769 329.242 25.4048C328.374 25.7469 327.513 26.0773 326.645 26.4122C326.513 26.4632 326.38 26.5069 326.39 26.3053C326.4 26.1108 326.517 25.9552 326.669 25.8764C327.057 25.6706 327.451 25.4604 327.836 25.2963C328.336 25.0891 328.833 24.9163 329.327 24.7495ZM327.727 23.4952C328.09 23.3088 328.447 23.1699 328.811 23.0122C328.843 22.9956 328.869 23.005 328.93 22.999C328.937 23.0794 328.963 23.1665 328.953 23.2689C328.865 24.0293 328.973 23.9273 328.287 24.1869C328.076 24.2658 327.865 24.3375 327.654 24.4236C327.465 24.5033 327.4 24.4302 327.424 24.2339C327.441 24.1055 327.432 23.9748 327.484 23.8454C327.53 23.7277 327.646 23.5362 327.727 23.4952ZM322.544 49.8937C322.183 49.6845 321.842 49.4474 321.488 49.2337C320.348 48.55 319.076 48.0942 317.786 47.6533C317.152 47.4368 316.505 47.2509 315.777 47.2124C315.639 47.2045 315.551 47.0946 315.422 47.062C315.139 46.9803 314.872 46.8549 314.556 46.8459C313.883 46.8204 313.214 46.789 312.696 46.4731C312.584 46.4041 312.527 46.256 312.442 46.1403C312.605 45.9662 312.759 45.7464 312.928 45.624C313.147 45.4629 313.391 45.3184 313.586 45.2831C313.835 45.2392 313.984 45.0742 314.133 44.8171C314.827 43.6336 315.522 42.4502 316.217 41.2668C316.227 41.2492 316.237 41.2245 316.25 41.2083C317.158 39.8337 317.469 38.5107 317.786 37.1545C318.42 34.4348 319.727 31.8399 321.898 29.5029C322.759 28.5711 323.664 27.903 324.606 27.4956C324.773 27.4222 324.837 27.4666 324.84 27.6305C324.844 27.8088 324.845 27.9929 324.859 28.168C324.878 28.3445 324.795 28.4416 324.625 28.5496C324.214 28.8035 323.807 29.0443 323.402 29.3427C322.299 30.1584 321.356 31.2088 320.59 32.515C320.096 33.3609 319.598 34.2054 319.114 35.0553C318.58 35.9929 318.346 36.8981 318.202 37.7866C318.161 38.0409 318.139 38.2875 318.11 38.5386C318.079 38.8314 318.145 39.0325 318.324 39.1328C318.636 39.3102 318.945 39.4935 319.251 39.6754C319.463 39.8022 319.476 39.8493 319.255 40.2147C318.818 40.9469 318.336 41.6702 317.925 42.4118C317.439 43.2891 316.993 44.1811 316.551 45.0674C316.391 45.3909 316.387 45.6514 316.563 45.7864C316.822 45.9795 317.057 46.2136 317.353 46.3497C317.839 46.5758 318.368 46.7331 318.877 46.9183C318.871 46.93 318.867 46.9359 318.86 46.9476C319.554 47.1999 320.278 47.4068 320.93 47.722C321.308 47.902 321.578 48.2618 321.905 48.5294C322.213 48.776 322.535 49.0063 322.844 49.2529C322.896 49.2932 322.95 49.3695 322.943 49.4517C322.926 49.5802 322.871 49.737 322.797 49.8655C322.783 49.8961 322.607 49.9237 322.544 49.8937Z" fill="#F1E66B"/>
<path d="M318.543 39.193C318.386 38.8524 318.06 38.8408 317.551 39.1455C317.166 39.3749 316.87 39.7144 316.625 40.1507C316.524 40.3481 316.408 40.5473 316.325 40.7442C316.119 41.2227 316.14 41.8049 316.348 41.8874C316.69 42.0255 317.337 41.6926 317.728 41.1747C317.884 40.9686 318.039 40.7554 318.187 40.5395C318.545 40.0238 318.684 39.4994 318.543 39.193ZM317.341 40.7363C317.261 40.4946 317.325 40.3761 317.618 40.2054C317.652 40.4021 317.523 40.5613 317.341 40.7363Z" fill="#F1E66B"/>
<path d="M325.061 32.5171C324.978 32.8289 325.077 32.9855 325.275 33.0425C325.622 33.139 326.012 32.8813 326.402 32.5238C327.496 31.5168 327.535 30.1006 327.014 29.8842C326.841 29.9003 326.669 29.8383 326.497 29.947C326.059 30.2233 325.631 30.6166 325.435 31.1933C325.277 31.6417 325.174 32.0814 325.061 32.5171ZM326.455 30.9422C326.515 30.8856 326.639 30.8592 326.678 30.8944C326.826 31.012 326.786 31.3604 326.618 31.6557C326.44 31.9686 326.252 32.0357 326.165 31.8267C326.083 31.6263 326.222 31.1712 326.455 30.9422Z" fill="#F1E66B"/>
<path d="M109 19.8908C109 16.6559 110.462 13.6228 111.757 10.7453C112.283 9.57683 113.193 8.70786 114.045 7.80549C114.638 7.17748 115.146 6.45741 115.747 5.85646C116.183 5.4196 116.725 5.12573 117.155 4.69617C117.643 4.20792 118.25 3.70363 118.908 3.46417C119.509 3.24568 120.049 2.7567 120.616 2.47336C120.845 2.35884 121.088 2.43303 121.32 2.31692C121.613 2.17039 121.908 2.06865 122.233 2.05618C122.76 2.03588 123.225 1.70418 123.784 1.70418C124.287 1.70418 124.734 1.46951 125.251 1.46951C125.689 1.46951 126.134 1.11752 126.541 1.11752C127.059 1.11752 127.52 1.00018 128.008 1.00018" stroke="#E8E8E8" stroke-linecap="round" stroke-linejoin="round"/>
<path d="M147.191 19.8906C147.191 16.6557 145.728 13.6227 144.433 10.7452C143.908 9.57665 142.998 8.70768 142.145 7.80531C141.552 7.1773 141.045 6.45723 140.444 5.85628C140.007 5.41942 139.466 5.12555 139.036 4.69599C138.548 4.20774 137.941 3.70345 137.283 3.46399C136.682 3.2455 136.141 2.75652 135.575 2.47318C135.346 2.35866 135.103 2.43285 134.871 2.31674C134.578 2.17021 134.282 2.06846 133.958 2.056C133.43 2.0357 132.966 1.704 132.407 1.704C131.903 1.704 131.457 1.46933 130.94 1.46933C130.501 1.46933 130.056 1.11733 129.649 1.11733C129.132 1.11733 128.67 1 128.183 1" stroke="#E8E8E8" stroke-linecap="round" stroke-linejoin="round"/>
<path d="M127.998 1.14923C127.569 1.48461 127.141 1.8127 126.719 2.14088C126.549 2.27304 126.407 2.53853 126.207 2.62723C125.997 2.72065 125.954 2.93619 125.781 3.03779C125.458 3.22766 124.945 3.69534 124.758 4.02313C124.636 4.23628 124.442 4.30111 124.303 4.47474C124.176 4.63274 124.035 4.80231 123.892 4.9453C123.403 5.43489 122.753 6.03597 122.44 6.66332C122.048 7.44737 121.698 8.20364 121.303 8.99402C121.121 9.35647 120.871 9.81574 120.782 10.2162C120.723 10.4781 120.534 10.6733 120.409 10.8984C120.321 11.0559 120.279 11.2526 120.166 11.3942C120.054 11.5333 120.016 11.8325 119.938 12.0069C119.856 12.1928 119.748 12.4146 119.695 12.6006C119.651 12.7551 119.466 12.9147 119.386 13.0585C119.259 13.2861 119.169 13.5144 119.086 13.7565C118.748 14.7324 118.448 15.6045 118.448 16.6683C118.448 17.1915 118.334 17.6995 118.334 18.2315C118.334 18.6579 118.334 19.0842 118.334 19.5106" stroke="#E8E8E8" stroke-linecap="round" stroke-linejoin="round"/>
<path d="M128.193 1.14923C128.622 1.48461 129.05 1.8127 129.472 2.14088C129.642 2.27304 129.784 2.53853 129.983 2.62723C130.194 2.72065 130.237 2.93619 130.41 3.03779C130.733 3.22766 131.246 3.69534 131.433 4.02313C131.555 4.23628 131.749 4.30111 131.888 4.47474C132.014 4.63274 132.155 4.80231 132.298 4.9453C132.788 5.43489 133.437 6.03597 133.751 6.66332C134.143 7.44737 134.493 8.20364 134.888 8.99402C135.069 9.35647 135.32 9.81574 135.409 10.2162C135.467 10.4781 135.657 10.6733 135.782 10.8984C135.869 11.0559 135.912 11.2526 136.025 11.3942C136.136 11.5333 136.175 11.8325 136.252 12.0069C136.335 12.1928 136.442 12.4146 136.496 12.6006C136.54 12.7551 136.725 12.9147 136.805 13.0585C136.931 13.2861 137.021 13.5144 137.105 13.7565C137.443 14.7324 137.743 15.6045 137.743 16.6683C137.743 17.1915 137.857 17.6995 137.857 18.2315C137.857 18.6579 137.857 19.0842 137.857 19.5106" stroke="#E8E8E8" stroke-linecap="round" stroke-linejoin="round"/>
<path d="M128.055 1.43354C128.019 1.22995 128.112 0.891545 128.112 1.263C128.112 1.35836 128.064 1.65667 128.14 1.71777C128.261 1.81425 128.192 2.43482 128.228 2.59889C128.362 3.20177 128.396 3.77662 128.396 4.41797C128.396 5.11908 128.396 5.82018 128.396 6.52129C128.396 7.3648 128.51 8.18347 128.51 9.01621C128.51 10.1276 128.566 11.2314 128.566 12.348C128.566 13.2118 128.453 14.035 128.453 14.9061C128.453 15.6473 128.339 16.3949 128.339 17.1358C128.339 17.9274 128.339 18.719 128.339 19.5107" stroke="#E8E8E8" stroke-linecap="round" stroke-linejoin="round"/>
<path d="M109.127 19.9964C109.285 19.8811 109.442 19.7495 109.59 19.6343C109.667 19.5744 109.702 19.4892 109.796 19.4475C109.853 19.422 109.967 19.3726 110.011 19.337C110.124 19.2464 110.272 19.1672 110.413 19.1045C110.574 19.0333 110.784 19.0296 110.928 18.9177C110.961 18.8923 111.123 18.8453 111.17 18.832C111.257 18.8071 111.339 18.8419 111.425 18.8034C111.569 18.7397 111.808 18.6647 111.966 18.6586C112.345 18.644 112.756 18.5325 113.123 18.4509C113.531 18.3603 113.97 18.3499 114.394 18.3499C114.588 18.3499 114.782 18.3771 114.966 18.3842C115.207 18.3934 115.441 18.5089 115.679 18.5214C116.149 18.5461 116.585 18.8315 117.034 18.9311C117.232 18.9752 117.447 19.0558 117.634 19.1388C117.761 19.1952 118.286 19.1628 118.286 19.3446" stroke="#E8E8E8" stroke-linecap="round" stroke-linejoin="round"/>
<path d="M118.388 19.6189C118.52 19.4502 118.72 19.3642 118.869 19.2072C118.993 19.0756 119.217 18.9134 119.41 18.8985C119.619 18.8825 119.881 18.74 120.069 18.6508C120.236 18.5716 120.504 18.515 120.687 18.4888C121.237 18.4102 121.803 18.2125 122.36 18.2125C122.835 18.2125 123.27 18.0753 123.74 18.0753C124.183 18.0753 124.796 17.9773 125.215 18.1267C125.31 18.161 125.437 18.1578 125.539 18.1763C125.647 18.1959 125.754 18.2311 125.864 18.2449C126.099 18.2742 126.331 18.4019 126.56 18.4183C126.688 18.4274 126.97 18.4779 127.067 18.5555C127.216 18.6744 127.465 18.6854 127.633 18.7785C127.783 18.8619 127.912 18.9818 128.045 19.0853C128.146 19.1645 128.347 19.2292 128.405 19.3445" stroke="#E8E8E8" stroke-linecap="round" stroke-linejoin="round"/>
<path d="M137.975 19.5847C137.809 19.3124 137.491 19.0765 137.238 18.8796C136.969 18.6711 136.719 18.4986 136.414 18.3345C135.606 17.8994 134.69 17.8009 133.79 17.8009C133.525 17.8009 133.221 17.757 132.967 17.8352C132.715 17.9126 132.414 17.9887 132.151 18.0068C131.91 18.0234 131.654 18.1082 131.416 18.1516C131.11 18.2071 130.796 18.285 130.505 18.3917C130.072 18.5503 129.674 18.7889 129.236 18.9405C129.011 19.0184 128.806 19.1486 128.584 19.234C128.543 19.2499 128.312 19.3936 128.302 19.4132" stroke="#E8E8E8" stroke-linecap="round" stroke-linejoin="round"/>
<path d="M147.271 19.9278C147.035 19.6913 146.884 19.366 146.619 19.1579C146.398 18.9842 146.191 18.8228 145.933 18.7006C145.227 18.366 144.47 18.3842 143.708 18.3842C142.53 18.3842 141.334 18.2262 140.192 18.6072C139.929 18.6947 139.661 18.7597 139.397 18.8492C139.178 18.9236 138.963 18.9912 138.737 19.0436C138.584 19.0792 138.357 19.1407 138.215 19.2151C138.125 19.2629 138.051 19.3447 137.941 19.3447" stroke="#E8E8E8" stroke-linecap="round" stroke-linejoin="round"/>
<path d="M128.023 39.9233C127.155 39.2655 126.535 38.453 125.581 37.9079C125.259 37.724 125.068 37.3939 124.738 37.0654C124.41 36.738 123.896 36.2283 123.896 36.2283C123.896 36.2283 122.465 34.6538 121.833 34.0209C121.467 33.6557 121.236 33.2746 120.825 32.8212C120.291 32.2322 119.865 31.8615 119.385 31.3816C118.875 30.8717 118.465 30.3943 117.844 29.7927C117.227 29.1946 116.729 28.821 116.218 28.3104C115.265 27.3574 114.174 26.4203 113.36 25.3353C113.079 24.9606 112.906 24.6013 112.571 24.1622C112.357 23.8811 112.227 23.7307 111.995 23.4638C111.794 23.2323 111.658 23.1228 111.467 22.8826C111.237 22.5921 111.171 22.3829 110.939 22.0935C110.741 21.845 110.58 21.748 110.385 21.4963C110.183 21.235 110.106 20.9953 109.932 20.7818C109.774 20.5896 109.18 19.6415 109.116 19.7688" stroke="#E8E8E8" stroke-linecap="round" stroke-linejoin="round"/>
<path d="M128.052 40C127.979 39.823 127.871 39.7074 127.763 39.5535C127.622 39.3534 127.522 39.0861 127.412 38.8671C127.197 38.443 126.918 38.0385 126.758 37.5895C126.609 37.1688 126.401 36.7886 126.184 36.3988C125.724 35.5751 125.291 34.7409 124.815 33.9263C124.68 33.6951 124.627 33.5937 124.536 33.3929C124.424 33.146 124.305 32.8596 124.129 32.6508C123.868 32.3425 123.768 31.9173 123.542 31.5903C122.872 30.6236 122.412 29.5193 121.915 28.4624C121.671 27.9447 121.395 27.4321 121.185 26.8975C120.907 26.1891 120.427 25.5562 120.201 24.8219C120.055 24.3484 119.829 23.8945 119.698 23.4162C119.539 22.8325 119.374 22.2784 119.13 21.7293C119.066 21.586 119.043 21.4002 119.002 21.2455C118.938 21.0046 118.798 20.7763 118.75 20.5364C118.707 20.3258 118.631 20.1369 118.599 19.9245C118.573 19.7546 118.452 19.5943 118.452 19.4222" stroke="#E8E8E8" stroke-linecap="round" stroke-linejoin="round"/>
<path d="M128.35 19.3477C128.35 20.5238 128.417 21.7252 128.315 22.8952C128.279 23.3061 128.336 23.7218 128.294 24.1335C128.238 24.682 128.164 25.2631 128.164 25.8142C128.164 26.4263 128.137 27.036 128.127 27.6458C128.112 28.5313 128.201 29.4132 128.201 30.2961C128.201 30.7088 128.17 31.0998 128.127 31.5096C128.085 31.9091 128.069 32.3318 127.997 32.7252C127.935 33.056 127.941 33.4466 127.941 33.7836C127.941 34.4817 127.941 35.1797 127.941 35.8778C127.941 36.8723 127.941 37.8774 127.941 38.8671C127.941 39.227 127.904 39.597 127.904 39.9627" stroke="#E8E8E8" stroke-linecap="round" stroke-linejoin="round"/>
<path d="M127.978 40C128.492 39.3805 128.934 38.7096 129.357 38.0257C129.821 37.2746 130.347 36.5629 130.806 35.8096C131.606 34.4946 132.223 33.0813 132.853 31.6812C133.202 30.9048 133.577 30.1611 133.986 29.4154C134.049 29.2995 134.081 29.1657 134.134 29.0433C134.198 28.8995 134.299 28.7768 134.358 28.6319C134.615 28.0008 134.864 27.3659 135.114 26.7321C135.457 25.8626 135.953 25.0658 136.183 24.1459C136.42 23.1965 136.896 22.382 137.289 21.4977C137.501 21.0219 137.803 20.5432 137.878 20.0175C137.893 19.9171 137.951 19.8216 137.951 19.7198C137.951 19.611 137.917 19.4016 138.025 19.3477" stroke="#E8E8E8" stroke-linecap="round" stroke-linejoin="round"/>
<path d="M128.09 39.9999C128.295 39.6054 128.675 39.4403 129.001 39.1626C129.439 38.7898 129.935 38.5 130.357 38.1021C130.788 37.6972 131.225 37.2907 131.662 36.8948C132.078 36.5177 132.381 36.0355 132.813 35.6668C133.443 35.13 133.917 34.43 134.411 33.7752C134.847 33.1983 135.296 32.6311 135.794 32.1069C136.512 31.3516 136.924 30.3685 137.581 29.56C137.916 29.147 138.268 28.7092 138.643 28.3341C139.065 27.9123 139.535 27.5469 139.997 27.1703C140.433 26.815 140.85 26.4455 141.254 26.0539C141.535 25.7819 141.871 25.5586 142.17 25.3056C142.519 25.0099 142.812 24.6642 143.148 24.3546C143.516 24.0144 143.922 23.7212 144.276 23.3664C144.583 23.0595 144.871 22.7349 145.178 22.4279C145.608 21.9982 145.885 21.5608 146.207 21.0469C146.427 20.6971 146.654 20.3027 146.947 20.0092C147.017 19.9394 147.138 19.8768 147.179 19.7942" stroke="#E8E8E8" stroke-linecap="round" stroke-linejoin="round"/>
<path d="M142.266 8.06606C141.988 8.33146 141.701 8.56505 141.393 8.78746C141.166 8.9517 140.859 9.08511 140.661 9.28238C140.49 9.45333 140.219 9.40793 140.072 9.54218C139.957 9.64658 139.722 9.74273 139.584 9.78305" stroke="#E8E8E8" stroke-linecap="round" stroke-linejoin="round"/>
<path d="M140.021 7.36529C140.217 7.33962 140.844 7.06516 140.981 6.8905" stroke="#E8E8E8" stroke-linecap="round" stroke-linejoin="round"/>
<path d="M139.584 11.8635C140.037 11.8635 140.355 11.5176 140.729 11.2884C140.892 11.1892 141.055 11.0794 141.22 10.9884C141.393 10.8932 141.644 10.7153 141.834 10.6934C142.03 10.6707 142.204 10.4234 142.424 10.4234C142.573 10.4234 142.788 10.2666 142.897 10.1533C143.105 9.93725 143.359 9.53386 143.633 9.43329" stroke="#E8E8E8" stroke-linecap="round" stroke-linejoin="round"/>
<path d="M139.874 14.1812C140.544 14.1812 141.173 13.6665 141.755 13.3461C142.198 13.1022 142.628 12.8232 143.068 12.581C143.618 12.2785 144.129 11.8626 144.659 11.571" stroke="#E8E8E8" stroke-linecap="round" stroke-linejoin="round"/>
<path d="M139.874 16.5033C141.107 16.5033 142.075 15.6778 143.177 15.1923C143.362 15.1106 143.587 14.8771 143.745 14.7381C144.015 14.5014 144.288 14.2731 144.557 14.0361C144.792 13.8296 145.14 13.4966 145.422 13.3909" stroke="#E8E8E8" stroke-linecap="round" stroke-linejoin="round"/>
<path d="M141.609 17.7886C142.715 17.7886 143.495 17.0881 144.398 16.5827C145.035 16.2267 145.465 15.5137 146.1 15.1982" stroke="#E8E8E8" stroke-linecap="round" stroke-linejoin="round"/>
<path d="M145.331 18.0496C145.655 17.9233 146.511 17.244 146.8 17.0516" stroke="#E8E8E8" stroke-linecap="round" stroke-linejoin="round"/>
<path d="M359.959 233.573C360.091 234.536 359.921 235.454 359.178 236.232C358.691 236.741 358.126 237.042 357.406 236.995C356.958 236.972 356.501 236.941 356.06 236.972C353.971 237.103 352.602 235.184 352.873 233.288C352.942 232.81 353.097 232.339 353.244 231.885C353.329 231.623 353.322 231.414 353.097 231.229C352.679 230.89 352.277 230.52 351.836 230.227C350.939 229.634 350.01 229.086 349.097 228.508C348.842 228.346 348.595 228.277 348.347 228.47C346.854 229.626 345.183 229.557 343.45 229.218C342.212 228.979 341.059 228.601 340.162 227.66C339.984 227.475 339.821 227.275 339.667 227.067C339.504 226.843 339.311 226.782 339.063 226.874C337.57 227.414 336.069 227.969 334.576 228.508C334.228 228.632 334.042 228.863 334.004 229.248C333.864 230.613 333.199 231.754 332.332 232.771C332.108 233.041 331.698 233.234 331.342 233.295C330.561 233.426 329.779 233.295 329.044 232.979C327.42 232.278 326.654 230.674 327.149 228.917C327.466 227.791 328.039 226.813 329.16 226.335C330.53 225.749 331.814 226.003 332.92 226.99C333.245 227.275 333.524 227.329 333.926 227.175C335.458 226.581 336.998 226.011 338.545 225.456C338.878 225.332 338.986 225.163 338.901 224.824C338.823 224.515 338.777 224.192 338.723 223.883C338.63 223.313 338.669 222.758 338.924 222.234C340.069 219.821 341.872 218.302 344.603 218.009C344.719 217.994 344.827 217.956 344.943 217.948C345.314 217.917 345.438 217.717 345.438 217.354C345.438 216.082 345.454 214.818 345.469 213.546C345.469 213.246 345.407 212.976 345.074 212.945C343.713 212.806 343.156 211.827 342.839 210.71C342.552 209.692 342.645 208.651 343.117 207.672C343.581 206.67 344.401 206.2 345.454 206.077C345.469 206.077 345.477 206.077 345.492 206.077C346.297 205.992 347.117 205.853 347.813 206.455C348.726 207.264 349.43 208.189 349.67 209.43C349.809 210.139 349.685 210.825 349.531 211.48C349.33 212.313 348.656 212.737 347.829 212.907C347.341 213.007 347.272 213.068 347.295 213.562C347.349 214.841 347.395 216.121 347.45 217.408C347.473 217.963 347.542 217.986 348.107 218.002C348.618 218.017 349.144 218.04 349.631 218.171C350.428 218.379 350.83 218.958 351.001 219.767C351.434 221.856 351.295 223.868 350.366 225.803C350.258 226.034 350.32 226.219 350.505 226.381C351.279 227.059 352.037 227.753 352.826 228.408C353.074 228.616 353.391 228.755 353.677 228.932C353.948 229.102 354.25 229.248 354.467 229.464C354.931 229.942 355.472 230.119 356.138 230.089C357.136 230.05 358.079 230.266 358.9 230.883C359.58 231.391 360.029 232.039 359.967 232.941C359.944 233.133 359.959 233.326 359.959 233.573ZM341.887 225.178C341.918 225.201 341.949 225.225 341.98 225.24C342.034 225.209 342.088 225.186 342.135 225.147C342.429 224.862 342.707 224.562 343.017 224.284C343.434 223.906 343.891 223.614 344.486 223.614C344.811 223.614 345.121 223.66 345.252 223.999C345.392 224.361 345.206 224.585 344.943 224.855C344.363 225.464 343.844 226.134 343.326 226.789C343.272 226.859 343.334 227.013 343.341 227.121C343.442 227.082 343.566 227.075 343.635 227.013C343.79 226.859 343.906 226.674 344.053 226.512C344.363 226.18 344.711 225.934 345.191 225.965C345.554 225.988 345.686 226.227 345.515 226.543C345.407 226.743 345.291 226.928 345.136 227.19C345.368 227.213 345.523 227.252 345.678 227.244C346.436 227.183 347.009 226.789 347.457 226.211C348.417 224.978 348.927 223.583 348.958 222.018C348.981 221.077 348.579 220.515 347.651 220.291C346.73 220.068 345.794 220.052 344.866 220.283C344.208 220.445 343.589 220.692 343.233 221.332C342.947 221.848 342.993 221.902 343.512 222.095C343.736 222.18 343.968 222.388 344.084 222.604C344.223 222.858 343.945 222.997 343.782 223.151C343.233 223.675 342.684 224.192 342.15 224.731C342.034 224.862 341.972 225.032 341.887 225.178ZM356.695 231.808C356.354 231.885 356.099 231.892 355.89 232.008C355.72 232.1 355.488 232.316 355.496 232.463C355.55 233.303 355.588 234.159 356.215 234.829C356.455 235.084 356.718 235.138 357.004 234.96C357.561 234.621 358.018 234.182 358.304 233.58C358.567 233.025 358.428 232.478 357.878 232.208C357.492 232.016 357.043 231.923 356.695 231.808ZM345.252 210.386C345.229 210.787 345.361 211.049 345.655 211.218C346.011 211.419 346.382 211.473 346.753 211.241C347.279 210.91 347.581 210.417 347.736 209.823C347.945 209.014 347.395 208.328 346.56 208.374C346.421 208.382 346.243 208.443 346.15 208.536C345.639 209.075 345.33 209.708 345.252 210.386ZM330.422 229.603C330.414 229.603 330.406 229.603 330.398 229.603C330.398 229.857 330.406 230.119 330.398 230.374C330.375 230.767 330.569 231.052 330.832 231.314C331.04 231.522 331.226 231.522 331.427 231.307C332.155 230.551 332.425 229.649 332.278 228.624C332.232 228.285 331.992 228.046 331.667 227.946C331.45 227.876 330.522 228.323 330.468 228.493C330.437 228.578 330.429 228.67 330.429 228.755C330.422 229.04 330.422 229.318 330.422 229.603Z" fill="#E8E8E8"/>
<path d="M68.7215 203.662C67.4497 203.125 66.1475 202.639 64.9119 202.038C61.7614 200.502 58.6316 198.918 55.496 197.349C54.8062 197.002 54.1262 196.651 53.4394 196.298C53.0212 196.081 52.5997 195.927 52.103 196.036C51.7567 196.112 51.5468 195.896 51.3507 195.631C51.0796 195.262 50.7988 194.897 50.4586 194.594C49.9131 194.102 49.5803 193.508 49.4071 192.807C49.0712 191.418 49.2652 190.045 49.703 188.72C50.5619 186.126 51.7531 183.688 53.4959 181.547C54.0169 180.908 54.6585 180.36 55.2693 179.792C55.5713 179.506 55.9691 179.403 56.3659 179.468C57.0231 179.578 57.6938 179.694 58.3301 179.907C61.4525 180.923 64.367 182.376 67.3009 183.821C69.3519 184.83 71.4891 185.66 73.5931 186.549C74.2358 186.82 74.9188 186.981 75.5615 187.252C77.2266 187.971 78.8838 188.726 80.5527 189.454C81.1383 189.71 81.3408 190.216 81.3841 190.775C81.4715 191.909 81.5297 193.054 80.9858 194.128C80.878 194.337 80.953 194.44 81.1551 194.509C81.4345 194.603 81.714 194.697 81.9846 194.812C82.4649 195.014 82.7254 195.371 82.7378 195.908C82.7608 196.951 82.8594 197.986 82.5812 199.021C82.2644 200.199 81.7005 201.209 80.706 201.957C80.236 202.315 79.7554 202.661 79.2527 202.965C78.9999 203.121 78.6836 203.202 78.3897 203.269C78.2655 203.296 78.0943 203.247 77.9785 203.182C77.5352 202.932 77.1067 202.648 76.6576 202.41C76.5658 202.364 76.3601 202.412 76.2716 202.486C75.5481 203.11 74.8285 203.744 74.1224 204.384C74.0123 204.489 73.931 204.637 73.8759 204.781C73.6409 205.389 73.1795 205.6 72.5473 205.341C71.259 204.805 69.9766 204.256 68.6912 203.713C68.7038 203.703 68.7127 203.682 68.7215 203.662ZM69.3957 202.182C69.4045 202.162 69.4133 202.142 69.4192 202.129C70.3325 202.514 71.2488 202.893 72.1591 203.285C72.508 203.441 72.7825 203.382 73.0486 203.104C73.5711 202.554 74.1147 202.028 74.6545 201.493C75.8346 200.322 76.9046 199.073 77.6611 197.588C78.6736 195.576 79.2118 193.474 79.1406 191.227C79.1319 190.881 79.0052 190.677 78.6767 190.53C77.8572 190.168 77.0651 189.763 76.2516 189.387C75.8854 189.217 75.5103 189.067 75.1294 188.93C74.6605 188.756 74.1711 188.628 73.7081 188.441C72.3762 187.895 71.0494 187.319 69.7204 186.766C69.3754 186.62 69.286 186.678 69.2566 187.055C69.2092 187.71 69.188 188.361 69.1339 189.014C68.9414 191.46 68.1639 193.723 66.7628 195.762C65.9382 196.964 64.8821 197.98 63.801 198.963C63.4825 199.249 63.5039 199.401 63.8769 199.575C65.732 200.445 67.5638 201.314 69.3957 202.182ZM52.109 186.986C51.9446 187.433 51.7098 187.985 51.5321 188.554C51.1868 189.632 50.8821 190.728 51.013 191.872C51.0564 192.248 51.1889 192.622 51.3399 192.971C51.4719 193.274 51.7381 193.306 52.0077 193.094C52.214 192.935 52.4 192.767 52.589 192.593C53.0458 192.173 53.5382 191.801 53.7829 191.189C54.7028 188.931 55.4883 186.632 55.8976 184.221C56.051 183.324 56.1114 182.42 56.1884 181.515C56.2008 181.377 56.0641 181.232 55.9971 181.092C55.8649 181.156 55.7049 181.191 55.6045 181.292C55.4156 181.467 55.2613 181.672 55.0935 181.871C53.8224 183.377 53.0216 185.145 52.109 186.986ZM60.8017 189.415C60.7987 189.422 60.7987 189.422 60.7958 189.428C60.5049 189.306 60.214 189.183 59.9163 189.057C59.8825 189.043 59.8486 189.029 59.8148 189.014C59.4368 188.871 59.0382 188.957 58.8376 189.285C58.6733 189.55 58.5243 189.852 58.4809 190.152C58.4496 190.369 58.5339 190.707 58.693 190.838C59.0835 191.153 59.5247 191.427 59.9789 191.635C60.7992 192.013 61.6401 192.344 62.4773 192.665C62.8958 192.826 63.33 192.97 63.7674 193.051C63.9242 193.078 64.1961 192.97 64.288 192.834C64.6357 192.353 64.6739 191.773 64.5521 191.228C64.4567 190.807 63.9716 190.761 63.6257 190.599C63.4933 190.535 63.3492 190.498 63.2139 190.441C62.4185 190.097 61.6067 189.755 60.8017 189.415ZM78.158 201.295C78.4512 201.522 78.7454 201.4 79.0377 201.118C79.33 200.836 79.6743 200.6 79.9222 200.291C80.2286 199.904 80.5866 199.491 80.7113 199.043C80.9253 198.227 80.9854 197.378 81.0988 196.536C81.1513 196.161 80.8799 196.03 80.581 195.944C80.2589 195.856 80.2196 196.109 80.1342 196.304C80.0841 196.418 80.0273 196.529 80.0005 196.645C79.6199 198.113 78.7835 199.342 77.9133 200.556C77.5959 200.986 77.6023 201.045 78.158 201.295ZM62.5238 188.981C62.5488 189.016 62.5738 189.05 62.5988 189.085C62.7571 189.016 62.9163 188.964 63.0602 188.874C63.8477 188.396 64.6208 187.896 65.4227 187.439C65.6764 187.3 66.0071 187.241 66.3046 187.239C66.7144 187.237 66.8975 187.569 66.6949 187.921C66.5677 188.137 66.3902 188.34 66.1898 188.486C65.6848 188.869 65.1382 189.219 64.6264 189.599C64.5311 189.67 64.4271 189.888 64.4598 189.942C64.5521 190.06 64.7086 190.142 64.8565 190.189C64.9406 190.216 65.0689 190.143 65.1661 190.105C65.4312 189.994 65.679 189.868 65.9411 189.764C66.517 189.53 66.5508 189.545 66.9822 190.005C67.0207 190.045 67.0778 190.061 67.1772 190.127C67.2309 189.895 67.2863 189.696 67.3087 189.499C67.3533 189.16 67.3814 188.822 67.4095 188.485C67.4699 187.763 67.54 187.037 67.5801 186.307C67.6133 185.757 67.4077 185.623 66.9325 185.883C66.4251 186.162 65.9178 186.44 65.446 186.766C64.5405 187.385 63.6628 188.032 62.7814 188.669C62.6831 188.747 62.6107 188.875 62.5238 188.981ZM56.6076 188.757C56.6326 188.792 56.6643 188.829 56.6893 188.863C56.91 188.726 57.1384 188.608 57.3379 188.446C58.4699 187.548 59.5912 186.639 60.7299 185.745C61.4686 185.158 62.2324 184.606 62.9779 184.023C63.0635 183.956 63.1586 183.757 63.1222 183.694C62.9658 183.43 62.3915 183.386 62.1317 183.594C60.5774 184.814 59.0346 186.062 57.4494 187.261C56.9123 187.662 56.7417 188.178 56.6076 188.757ZM65.4513 185.019C65.4275 184.946 65.4193 184.855 65.3702 184.802C65.0603 184.449 64.486 184.405 64.119 184.711C62.8311 185.781 61.5402 186.857 60.2522 187.927C60.1666 187.994 60.078 188.068 60.0165 188.154C59.9638 188.219 59.9525 188.317 59.924 188.401C60.0081 188.428 60.1181 188.506 60.1861 188.479C60.4191 188.387 60.6542 188.272 60.8652 188.138C62.3135 187.16 63.7482 186.176 65.1867 185.202C65.2665 185.148 65.3462 185.094 65.4513 185.019ZM65.9642 193.637C64.3927 194.658 62.9136 195.615 61.4345 196.573C61.9825 196.621 62.5619 196.453 63.0928 196.12C63.3582 195.954 63.5977 195.92 63.8895 196.059C64.0016 196.114 64.242 196.097 64.3102 196.014C64.9199 195.302 65.5295 194.59 65.9642 193.637ZM62.6911 194.059C62.6855 194.017 62.6761 193.965 62.6705 193.923C62.4711 193.903 62.2652 193.824 62.0789 193.864C61.2165 194.057 60.5775 194.653 59.8656 195.124C59.7762 195.181 59.8654 195.489 59.8692 195.682C60.0098 195.653 60.1687 195.657 60.2843 195.595C60.995 195.163 61.7049 194.716 62.405 194.272C62.5042 194.211 62.5957 194.13 62.6911 194.059ZM57.8026 183.499C57.8499 183.519 57.9011 183.549 57.9485 183.569C58.41 183.176 58.882 182.795 59.3329 182.389C59.3836 182.347 59.329 182.069 59.2613 182.041C58.8922 181.877 58.5151 181.75 58.1253 181.633C58.0615 181.614 57.8796 181.736 57.8734 181.805C57.8343 182.368 57.8252 182.937 57.8026 183.499ZM67.0882 190.439C66.8177 190.635 66.6279 190.793 66.4169 190.927C66.0328 191.162 65.7329 191.425 65.8762 191.938C65.9038 192.022 65.8838 192.14 65.8387 192.225C65.6202 192.649 65.8931 192.867 66.1757 193.082C66.5128 192.771 67.0849 191.177 67.0882 190.439ZM55.4709 191.472C55.313 191.978 55.4197 192.118 55.9219 192.052C56.0305 192.042 56.1547 192.015 56.2335 191.945C56.6435 191.578 57.0535 191.211 57.4288 190.813C57.501 190.74 57.4528 190.521 57.4032 190.397C57.3879 190.358 57.1593 190.349 57.066 190.397C56.6608 190.608 56.2662 190.831 55.883 191.082C55.7226 191.173 55.6025 191.337 55.4709 191.472ZM57.2362 194.3C57.8682 194.742 57.9273 194.735 58.4589 194.291C58.7023 194.084 58.9707 193.911 59.2285 193.726C59.4289 193.58 59.6332 193.444 59.82 193.292C59.8736 193.243 59.8887 193.154 59.9211 193.081C59.8399 193.046 59.757 192.98 59.6746 192.985C59.569 192.988 59.4592 193.037 59.363 193.091C58.7429 193.426 58.1296 193.763 57.5164 194.1C57.426 194.142 57.3539 194.215 57.2362 194.3ZM58.3691 192.068C58.3288 191.995 58.2818 191.92 58.2415 191.847C58.15 191.928 58.0728 192.03 57.9669 192.089C57.5782 192.298 57.175 192.486 56.793 192.698C56.655 192.775 56.5496 192.905 56.426 193.004C56.6078 193.065 56.7943 193.152 56.987 193.169C57.0867 193.18 57.2141 193.09 57.3057 193.01C57.6006 192.777 57.8917 192.534 58.1789 192.282C58.2519 192.225 58.3037 192.144 58.3691 192.068ZM57.5031 185.185C57.5357 185.239 57.5684 185.292 57.604 185.339C57.7896 185.227 57.9783 185.108 58.1572 184.992C58.1246 184.939 58.0958 184.895 58.0631 184.841C57.8775 184.954 57.6918 185.066 57.5031 185.185Z" fill="#E8E8E8"/>
<path d="M70.8622 196.198C70.6316 196.085 70.3981 195.978 70.1734 195.852C69.724 195.598 69.5735 195.194 69.7529 194.785C69.9256 194.374 70.3282 194.187 70.8238 194.317C71.3696 194.46 71.9066 194.623 72.4406 194.793C72.6926 194.875 72.8487 194.83 72.9845 194.594C73.2339 194.136 73.5103 193.689 73.7799 193.24C73.989 192.891 74.3528 192.72 74.7124 192.776C75.0787 192.836 75.3559 193.08 75.2929 193.442C75.2245 193.889 75.0903 194.34 74.8906 194.74C74.4601 195.574 74.4436 195.575 75.3055 195.946C75.4608 196.012 75.623 196.08 75.7754 196.152C76.2965 196.388 76.5113 196.883 76.3063 197.368C76.1072 197.84 75.5524 198.081 75.0474 197.9C74.7143 197.783 74.3833 197.644 74.0649 197.494C73.757 197.356 73.5631 197.433 73.4105 197.725C73.2128 198.102 73.0017 198.473 72.7665 198.826C72.4492 199.311 72.0816 199.473 71.7021 199.353C71.366 199.243 71.1719 199.01 71.2232 198.675C71.2954 198.237 71.4343 197.812 71.5567 197.387C71.5962 197.261 71.6588 197.137 71.7253 197.022C71.8788 196.746 71.7928 196.559 71.5158 196.442C71.2996 196.351 71.0902 196.262 70.874 196.171C70.8651 196.191 70.8622 196.198 70.8622 196.198Z" fill="#E8E8E8"/>
</svg>
