<svg width="1342" height="233" viewBox="0 0 1342 233" fill="none" xmlns="http://www.w3.org/2000/svg">
<path d="M69.876 44.6707L67.8953 44.1712C67.6638 44.1158 67.4323 44.1713 67.278 44.3377L65.7603 45.8084C65.3488 46.2246 64.6542 45.9194 64.6028 45.3089L64.4485 43.1168C64.4227 42.8671 64.2941 42.6451 64.1141 42.5341L62.3392 41.4242C61.8504 41.1189 61.9019 40.342 62.4163 40.0922L64.2941 39.2598C64.4999 39.1766 64.6542 38.9546 64.7057 38.7326L65.1173 36.596C65.2459 35.9855 65.9404 35.7913 66.3005 36.263L67.6124 37.9279C67.7667 38.1221 67.9725 38.2054 68.204 38.1776L70.2362 37.9556C70.8021 37.9001 71.1879 38.5661 70.905 39.0933L69.8503 40.9524C69.7217 41.1744 69.7217 41.4242 69.7989 41.6462L70.622 43.644C70.905 44.199 70.4419 44.8095 69.876 44.6707Z" fill="#F1E66B"/>
<path d="M909.876 141.671L907.895 141.171C907.664 141.116 907.432 141.171 907.278 141.338L905.76 142.808C905.349 143.225 904.654 142.919 904.603 142.309L904.448 140.117C904.423 139.867 904.294 139.645 904.114 139.534L902.339 138.424C901.85 138.119 901.902 137.342 902.416 137.092L904.294 136.26C904.5 136.177 904.654 135.955 904.706 135.733L905.117 133.596C905.246 132.985 905.94 132.791 906.301 133.263L907.612 134.928C907.767 135.122 907.973 135.205 908.204 135.178L910.236 134.956C910.802 134.9 911.188 135.566 910.905 136.093L909.85 137.952C909.722 138.174 909.722 138.424 909.799 138.646L910.622 140.644C910.905 141.199 910.442 141.809 909.876 141.671Z" fill="#F1E66B"/>
<path d="M279.876 184.671L277.895 184.171C277.664 184.116 277.432 184.171 277.278 184.338L275.76 185.808C275.349 186.225 274.654 185.919 274.603 185.309L274.448 183.117C274.423 182.867 274.294 182.645 274.114 182.534L272.339 181.424C271.85 181.119 271.902 180.342 272.416 180.092L274.294 179.26C274.5 179.177 274.654 178.955 274.706 178.733L275.117 176.596C275.246 175.985 275.94 175.791 276.301 176.263L277.612 177.928C277.767 178.122 277.973 178.205 278.204 178.178L280.236 177.956C280.802 177.9 281.188 178.566 280.905 179.093L279.85 180.952C279.722 181.174 279.722 181.424 279.799 181.646L280.622 183.644C280.905 184.199 280.442 184.809 279.876 184.671Z" fill="#F1E66B"/>
<path d="M693.876 65.6707L691.895 65.1712C691.664 65.1158 691.432 65.1713 691.278 65.3377L689.76 66.8084C689.349 67.2246 688.654 66.9194 688.603 66.3089L688.448 64.1168C688.423 63.8671 688.294 63.6451 688.114 63.5341L686.339 62.4242C685.85 62.1189 685.902 61.342 686.416 61.0922L688.294 60.2598C688.5 60.1766 688.654 59.9546 688.706 59.7326L689.117 57.596C689.246 56.9855 689.94 56.7913 690.301 57.263L691.612 58.9279C691.767 59.1221 691.973 59.2054 692.204 59.1776L694.236 58.9556C694.802 58.9001 695.188 59.5661 694.905 60.0933L693.85 61.9524C693.722 62.1744 693.722 62.4242 693.799 62.6462L694.622 64.644C694.905 65.199 694.442 65.8095 693.876 65.6707Z" fill="#C6C6C6"/>
<path d="M1165.88 204.671L1163.9 204.171C1163.66 204.116 1163.43 204.171 1163.28 204.338L1161.76 205.808C1161.35 206.225 1160.65 205.919 1160.6 205.309L1160.45 203.117C1160.42 202.867 1160.29 202.645 1160.11 202.534L1158.34 201.424C1157.85 201.119 1157.9 200.342 1158.42 200.092L1160.29 199.26C1160.5 199.177 1160.65 198.955 1160.71 198.733L1161.12 196.596C1161.25 195.985 1161.94 195.791 1162.3 196.263L1163.61 197.928C1163.77 198.122 1163.97 198.205 1164.2 198.178L1166.24 197.956C1166.8 197.9 1167.19 198.566 1166.9 199.093L1165.85 200.952C1165.72 201.174 1165.72 201.424 1165.8 201.646L1166.62 203.644C1166.9 204.199 1166.44 204.809 1165.88 204.671Z" fill="#C6C6C6"/>
<path d="M1279.88 8.67072L1277.9 8.17125C1277.66 8.11575 1277.43 8.17125 1277.28 8.33774L1275.76 9.80841C1275.35 10.2246 1274.65 9.9194 1274.6 9.30893L1274.45 7.11682C1274.42 6.86708 1274.29 6.64509 1274.11 6.5341L1272.34 5.42417C1271.85 5.11893 1271.9 4.34198 1272.42 4.09225L1274.29 3.2598C1274.5 3.17655 1274.65 2.95456 1274.71 2.73258L1275.12 0.595955C1275.25 -0.014508 1275.94 -0.208746 1276.3 0.262976L1277.61 1.92788C1277.77 2.12211 1277.97 2.20536 1278.2 2.17761L1280.24 1.95562C1280.8 1.90013 1281.19 2.56609 1280.9 3.09331L1279.85 4.95244C1279.72 5.17443 1279.72 5.42417 1279.8 5.64615L1280.62 7.64403C1280.9 8.199 1280.44 8.80947 1279.88 8.67072Z" fill="#F1E66B"/>
<path d="M684.876 231.671L682.895 231.171C682.664 231.116 682.432 231.171 682.278 231.338L680.76 232.808C680.349 233.225 679.654 232.919 679.603 232.309L679.448 230.117C679.423 229.867 679.294 229.645 679.114 229.534L677.339 228.424C676.85 228.119 676.902 227.342 677.416 227.092L679.294 226.26C679.5 226.177 679.654 225.955 679.706 225.733L680.117 223.596C680.246 222.985 680.94 222.791 681.301 223.263L682.612 224.928C682.767 225.122 682.973 225.205 683.204 225.178L685.236 224.956C685.802 224.9 686.188 225.566 685.905 226.093L684.85 227.952C684.722 228.174 684.722 228.424 684.799 228.646L685.622 230.644C685.905 231.199 685.442 231.809 684.876 231.671Z" fill="#F1E66B"/>
<path d="M7.87603 201.671L5.89535 201.171C5.66384 201.116 5.43233 201.171 5.27799 201.338L3.76033 202.808C3.34876 203.225 2.65424 202.919 2.60279 202.309L2.44845 200.117C2.42273 199.867 2.29412 199.645 2.11405 199.534L0.33916 198.424C-0.149579 198.119 -0.0981343 197.342 0.416328 197.092L2.29411 196.26C2.4999 196.177 2.65424 195.955 2.70568 195.733L3.11725 193.596C3.24587 192.985 3.94039 192.791 4.30052 193.263L5.61239 194.928C5.76673 195.122 5.97252 195.205 6.20403 195.178L8.23615 194.956C8.80206 194.9 9.18791 195.566 8.90495 196.093L7.85031 197.952C7.72169 198.174 7.72169 198.424 7.79886 198.646L8.622 200.644C8.90495 201.199 8.44194 201.809 7.87603 201.671Z" fill="#C6C6C6"/>
<path d="M1340.88 166.671L1338.9 166.171C1338.66 166.116 1338.43 166.171 1338.28 166.338L1336.76 167.808C1336.35 168.225 1335.65 167.919 1335.6 167.309L1335.45 165.117C1335.42 164.867 1335.29 164.645 1335.11 164.534L1333.34 163.424C1332.85 163.119 1332.9 162.342 1333.42 162.092L1335.29 161.26C1335.5 161.177 1335.65 160.955 1335.71 160.733L1336.12 158.596C1336.25 157.985 1336.94 157.791 1337.3 158.263L1338.61 159.928C1338.77 160.122 1338.97 160.205 1339.2 160.178L1341.24 159.956C1341.8 159.9 1342.19 160.566 1341.9 161.093L1340.85 162.952C1340.72 163.174 1340.72 163.424 1340.8 163.646L1341.62 165.644C1341.9 166.199 1341.44 166.809 1340.88 166.671Z" fill="#F1E66B"/>
</svg>
