<svg width="1440" height="453" fill="none" xmlns="http://www.w3.org/2000/svg"><path d="M1246.49 341.121c.26-2.385.58-4.772.75-7.157.11-1.492-.39-2.88-1.17-4.165-1.2-1.964-2.38-3.956-3.6-5.908-.43-.684-.97-1.356-1.54-1.937-3.12-3.172-5.51-6.866-8.09-10.437-.47-.659-.9-1.342-1.44-1.932a4.809 4.809 0 00-1.35-1.072c-.68-.374-1.38-.388-2.01.205-.66.618-1.36 1.198-2.08 1.756-.56.426-1.19.754-1.74 1.2-.46.364-.9.783-1.27 1.233-.34.407-.2.848.09 1.271.19.27.27.599.42.895.22.441.42.91.71 1.302 2.43 3.225 5.39 5.985 8.16 8.888 2.42 2.498 3.88 5.504 4.92 8.736.48 1.518.29 3.009-.62 4.335-1.2 1.758-2.63 3.319-4.32 4.63-.26.209-.68.384-.99.352-2.13-.231-4.29-.418-6.29-1.315-1.59-.711-2.94-1.768-4.13-3.006-2.15-2.262-4.35-4.499-6.34-6.891-1.18-1.434-2.01-3.139-3.01-4.715-.34-.566-.64-1.173-1.05-1.685-.32-.414-.73-.829-1.19-1.074-.33-.184-.87-.23-1.2-.07-.94.429-1.88.893-2.69 1.512a36.711 36.711 0 00-3.31 2.769c-1.08 1.008-1.14 2.131-.29 3.347 1.38 1.953 2.77 3.891 4.16 5.845.29.407.55.839.77 1.296.81 1.67 2.03 3.028 3.37 4.296 1.52 1.339 2.95 2.776 4.47 4.131 2.76 2.47 5.9 4.298 9.39 5.636 2.9 1.117 5.81 1.363 8.83.711 1.64-.349 3.1-1.031 4.41-2.091.71-.576 1.56-.974 2.23-1.592 1.98-1.81 4.09-3.477 5.46-5.843.64-1.117 1.24-2.21 1.41-3.493l.17.037zm-19.38-28.564c.75-.797.89-.802 1.74-.161.88.644 1.78 1.229 2.66 1.857.14.112.19.353.28.537-.23.082-.46.216-.67.204-.17-.002-.34-.203-.5-.318-1.15-.735-2.15-1.75-3.51-2.119.06.228.08.529.24.695.32.363.69.721 1.1 1.003.71.494 1.47.935 2.22 1.419-.34.473-.65.278-.94.116-.77-.39-1.55-.768-2.29-1.17-.29-.142-.62-.294-.78-.542-.69-.968-1.06-1.028.45-1.521zm-10.42 31.388c.56-.294 1.02-.478 1.41-.743.31-.198.65-.457.81-.767.12-.208.09-.609-.05-.803-.12-.156-.52-.224-.74-.153-.73.226-1.44.537-2.16.832-.45.185-.88.228-1.24-.111-.59-.568-1.15-1.181-1.73-1.762a3.313 3.313 0 00-.57-.514c-.37-.276-.83-.47-1.1-.808-.93-1.083-1.8-2.204-2.69-3.328-.26-.335-.14-.624.14-.911.71-.741 1.42-1.497 2.13-2.238.63-.644.67-.669 1.2.019 2.12 2.849 4.54 5.414 7.1 7.876 1.85 1.788 3.88 3.331 6.24 4.402.92.424 1.93.864 2.91.922 3.56.234 6.58-.962 8.71-3.895 1.04-1.444 1.83-3.074 2.73-4.615.66-1.114.61-2.229.2-3.418-.54-1.562-1.29-3.019-2.18-4.409-1.33-2.123-2.62-4.288-3.98-6.383-.39-.591-.99-1.046-1.46-1.607a43.355 43.355 0 01-1.87-2.35c-.09-.134-.02-.531.12-.634.81-.654 1.64-1.27 2.49-1.852.14-.103.51-.124.57-.028.59.783 1.29 1.539 1.67 2.408.31.723.66 1.339 1.22 1.885 1.22 1.194 2.5 2.351 3.63 3.626 2.66 2.994 4.27 6.443 4.28 10.529-.01 1.383.07 2.767 0 4.153-.03.751-.12 1.555-.43 2.215-1.26 2.651-2.98 4.96-5.41 6.708-.3.218-.59.436-.86.676-1.74 1.548-3.81 2.267-6.07 2.568-.48.065-1 .056-1.45-.072a87.988 87.988 0 01-4.8-1.498c-.91-.306-.87-.347-.6-1.263.07-.264-.01-.676-.18-.861-.18-.185-.6-.24-.86-.18-.39.085-.73.343-1.11.494-.23.082-.56.196-.74.109-.48-.233-.9-.569-1.45-.913.28-.205.46-.317.62-.448.33-.242.72-.475 1.03-.74.35-.306.75-.649.38-1.171-.32-.48-.77-.327-1.19-.151-.68.27-1.33.595-2.02.846-.23.083-.63.148-.79.017-.64-.496-1.2-1.042-1.86-1.659zm-11.43-14.941c.03-.06.04-.139.07-.198 1.41.558 2.83 1.1 4.25 1.662.01.051.01.101.02.152-.27.025-.54.117-.8.08-.31-.048-.61-.193-.91-.323-.94-.376-1.89-.674-2.63-1.373zm1.85-1.407c-.02-.105-.04-.19-.07-.295.24-.098.49-.228.73-.292.18-.045.45-.071.53.028.27.303.46.655.66.995.05.077.05.256-.02.325-.05.072-.23.099-.31.051-.52-.259-1.03-.545-1.52-.812zM1217.38 303.896c-.64.23-1.11.411-1.61.57-.59.19-.91.569-.96 1.185-.06.581.27.93.76 1.099 1.4.474 2.82.919 4.22 1.361.65.203 1.33.41 2 .534.3.063.7-.002.98-.141.47-.248.51-.817.05-1.078-.77-.441-1.58-.776-2.4-1.129-.39-.182-.81-.319-1.4-.54.32-.18.48-.311.67-.388.51-.222 1.06-.422 1.56-.663.46-.217.69-.632.66-1.132-.02-.499-.3-.822-.77-.969-1.95-.622-3.89-1.244-5.86-1.821-1.15-.338-2.32-.601-3.48-.86-.21-.043-.58-.022-.64.097-.11.192-.12.552-.01.724.25.332.56.661.92.82 1.63.719 3.28 1.379 4.92 2.051.09.052.15.132.39.28zM1200.18 321.441c.58-.291 1.17-.563 1.71-.911.99-.634.95-1.583-.13-2.072-.77-.343-1.62-.504-2.4-.816-1.35-.53-2.68-1.139-4.03-1.684a4.458 4.458 0 00-.88-.234c-.61-.111-1.06.124-1.24.616a.997.997 0 00.54 1.267c.57.284 1.22.452 1.82.693 1.01.409 2.01.834 3.02 1.274.09.036.13.128.31.263-.29.155-.52.288-.76.419-.31.167-.65.277-.89.489-.61.5-.64 1.318-.01 1.78.55.395 1.16.705 1.79.983 1.53.684 3.07 1.336 4.63 1.975.33.137.75.208 1.13.171.23-.017.57-.244.63-.446.07-.198-.06-.572-.23-.739-.27-.271-.64-.465-1-.64-1.05-.532-2.11-1.034-3.16-1.551-.26-.135-.5-.302-.75-.454-.06-.142-.08-.263-.1-.383z" fill="#E8E8E8"/><path d="M543.314 267.895c-.964.702-1.852 1.725-2.588 2.644-.419.524-1.462 1.576-1.462 1.576s-1.041 1.241-1.8 1.943c-.624.578-1.067.795-1.688 1.376-.897.838-1.313 1.4-2.075 2.362-.556.703-.778 1.166-1.357 1.851-.618.731-1.039 1.075-1.719 1.75-.627.622-.989.961-1.625 1.575-.319.308-.518.547-.819.787-.223.179-.545.387-.731.619-.4.5-2.491-.86-2.869-1.237-.763-.763-1.642-1.345-2.419-2.082-.406-.385-.894-.669-1.294-1.069-.262-.262-.567-.479-.844-.725-.313-.279-.451-.58-.787-.906-.527-.512-1.033-.753-1.513-1.119-.5-.381-.803-.847-1.35-1.356-.914-.851-1.647-1.552-2.475-2.026-.394-.224-1.036-1.237-1.413-1.237" stroke="#E8E8E8" stroke-width="1.5" stroke-linecap="round" stroke-linejoin="round"/><path d="M542.977 268.007c-1.162 0-2.159.675-3.313.675h-3.325c-1.141 0-2.199.159-3.319.331-.526.081-1.058.024-1.581.144-.674.154-1.207.313-1.913.313-1.713 0-3.46.24-5.113.7-.923.256-1.893.338-2.813.593-.738.205-1.528.129-2.275.369-1.216.391-2.627.278-3.8.725-.45.172-1.095.138-1.575.207-.405.057-.699.218-1.126.218M543.201 267.782c-1.123 0-2.286-.112-3.375-.112-1.534 0-3.029-.338-4.563-.338-3.511 0-7.028-.112-10.557-.112h-7.92c-2.882 0-5.696.225-8.575.225" stroke="#E8E8E8" stroke-width="1.5" stroke-linecap="round" stroke-linejoin="round"/><path d="M542.865 267.783c-2.413 0-4.463-.691-6.695-1.513-.698-.257-1.838-.4-2.594-.4-.852 0-1.693-.45-2.55-.45-2.15 0-4.243-.45-6.388-.45-1.556 0-3.076-.508-4.613-.788-2.608-.474-5.282-1.094-7.926-1.237-.72-.039-1.266-.306-2.087-.45-.68-.12-1.75-.25-1.75-.25s-.919-.171-1.313-.2l-3.632-.619c-.414-.093-.749-.066-1.069-.194-.613-.245-1.342-.142-1.962-.319-.538-.154-1.108-.379-1.638-.556M507.874 267.557c-.878-.342-2.594-1.975-2.594-1.975s-.935-.766-1.344-1.175c-.273-.274-.72-.638-1.056-.787-.406-.181-1.138-.682-1.138-.682s-.864-.469-.981-.669c-.361-.614-1.482-1.364-2.113-1.575M507.761 284.546c1.144-.388 2.133-1.098 3.207-1.575.89-.395 1.842-1.128 2.813-1.344.445-.099.841-.581 1.356-.675.515-.093 1.041-.384 1.513-.594.517-.229 1.19-.297 1.631-.65.272-.217 1.037-.386 1.181-.675M507.648 284.546c.288-1.475.113-3.108.113-4.612 0-1.403.112-2.796.112-4.213 0-2.522.338-4.996.338-7.489M512.487 272.62c-.445.891-1.004 1.785-1.438 2.7-.482 1.019-.731 2.151-1.175 3.151-.178.401-.281.805-.45 1.325a83.171 83.171 0 00-.425 1.375l-.678 2.949M517.615 279.672c-.522-.195-.603-.65-1.003-.961-.147-.115-.384-.298-.467-.465M515.566 280.38c-.183-.437-.596-.765-.883-1.14-.112-.147-.205-.3-.336-.432-.073-.073-.213-.141-.264-.233-.159-.291-.377-.54-.519-.824M513.76 281.008c-.143-.389-.588-.709-.846-1.04-.062-.081-.305-.464-.331-.412M512.112 281.873c-.051-.105-.511-.982-.628-.865M510.582 282.775c-.129-.17-.237-.336-.353-.511" stroke="#E8E8E8" stroke-width="1.5" stroke-linecap="round" stroke-linejoin="round"/><path d="M144.955 333.479c-.512-.78-1.192-1.369-2.017-1.847-1.19-.699-2.325-1.477-3.469-2.236-.105-.075-.18-.338-.13-.464a80.113 80.113 0 011.53-3.574c.099-.218.413-.463.643-.473a138.21 138.21 0 015.349-.299c1.012-.039 1.33-.183 1.722-1.1.376-.88-.259-1.886-1.211-1.856-2.571.089-5.13.205-7.703-.009-1.927-.161-3.88-.032-5.824-.01-.184.006-.447.071-.535.204-.23.345.038 1.676.363 1.993.656.647 1.361 1.201 2.4.982.185-.039.383.005.576.002 1.204.046 1.204.046.933 1.168-.027.123-.05.237-.086.356-.483 1.563-.904 1.711-2.368.905-.943-.525-1.88-1.092-2.882-1.472-1.871-.719-3.803-1.318-5.706-1.961-.706-.242-.761-.33-.489-1.005l1.552-3.855-.01-.004c.532-1.321 1.079-2.624 1.582-3.956.095-.264.138-.682-.011-.874-.419-.532-.88-1.102-1.461-1.429-.791-.454-1.713-.692-2.578-1.018-.395-.144-.581-.384-.563-.823.039-.743.021-1.486.066-2.216.046-.618.055-1.261.241-1.835.45-1.342.962-2.67 1.513-3.983 1.019-2.39 2.656-4.205 5.191-5.133.663-.243.843-.184 1.039.483.859 2.868 1.76 5.718 2.532 8.608.491 1.843.786 3.753 1.172 5.633.222 1.079.843 1.813 1.857 1.908.895.082 1.282.5 1.385 1.31.014.106.056.201.083.301.406 1.128 1.257 1.572 2.436 1.286.527-.129 1.068-.208 1.586-.34.439-.108.888-.211 1.296-.409 1.166-.593 1.423-1.229 1.06-2.464-.048-.163-.091-.336-.152-.494-.227-.702-.42-1.402.049-2.089a.675.675 0 00.093-.343c-.048-1.034-.002-2.075-.171-3.089-.679-3.88-1.432-7.743-2.148-11.614-.119-.66-.047-.755.603-.992.119-.043.234-.076.343-.122.935-.327 1.305-.796 1.174-1.762-.152-1.085-.356-2.18-.67-3.228-.412-1.422-.954-1.678-2.43-1.384-1.874.383-3.135-.31-3.768-2.052-.058-.168-.105-.331-.193-.477-.171-.279-.315-.625-.569-.78-.499-.306-.848-.677-1.084-1.215-.25-.644-.717-.805-1.349-.583-.514.179-1.015.384-1.529.563-.472.161-.659.456-.685.971-.02.36-.191.784-.448 1.029-.37.357-.522.733-.429 1.205.107.521.21 1.052.368 1.56.15.471.047.754-.417 1.008-.361.194-.71.526-.89.89-.191.361-.384.531-.773.569-2.369.235-4.576 1.023-6.752 1.902-.662.266-1.362.684-1.783 1.223-.942 1.216-1.847 2.48-2.544 3.847-1.164 2.244-1.73 4.689-1.934 7.22-.21 2.573-.349 5.139.343 7.663.233.827.102 1.546-.286 2.286-.527.999-1.073 1.99-1.473 3.039-.316.814-.736 1.464-1.491 1.905-.655.391-1.258.903-1.951 1.19-.593.237-1 .546-1.206 1.113-.153.409-.339.815-.383 1.233-.04.409-.056.982.187 1.222.703.699 1.537 1.27 2.336 1.872.07.05.197.044.297.049.205.024.412.016.615.073 1.154.283 2.292.661 3.467.863 1.3.229 2.568.535 3.789 1.045 4.679 1.984 9.567 3.503 14.095 5.862 2.152 1.12 4.573 1.374 6.948 1.744.532.084 1.012-.096 1.39-.473.685-.691.877-2.122.347-2.943zm-1.074-19.761c.069.25.105.499.172.837-.439.163-.855.324-1.273.462-.312.102-.531-.029-.696-.294-.461-.738-.42-.867.382-1.2.164-.07.339-.113.482-.214.512-.402.765-.214.933.409zm-.988-22.393c.96-.417 1.073-.361 1.133.643.03.458.047.922.068 1.488-.277.126-.517.3-.778.332-.108.014-.302-.263-.375-.447-.149-.416-.227-.87-.373-1.295-.135-.365-.044-.564.325-.721zm-1.693 2.518c.836 4.108 1.644 8.227 2.49 12.339.236 1.185.559 2.349.818 3.532.034.169-.047.483-.174.545-1.414.675-2.851 1.318-4.287 1.962-.15.064-.334.07-.552.108-.095-.16-.21-.294-.252-.444-.629-2.12-1.244-4.245-1.873-6.365-.227-.758-.579-1.486-.745-2.254-.568-2.665-.964-5.363-1.823-7.951-.124-.394.002-.568.379-.689 1.581-.498 3.154-1.032 4.745-1.526.859-.278 1.098-.14 1.274.743zm-1.657-3.614c.191-.026.481.042.596.177.143.178.154.461.227.758-.226.112-.386.228-.554.252-1.828.323-3.648.627-5.482.937-.279.047-.564.081-.686-.29-.116-.358.051-.605.359-.696.777-.243 1.568-.492 2.37-.658 1.045-.206 2.109-.348 3.17-.48zm-4.726-2.906c.732-.216 1.486-.345 2.241-.508.065-.019.133.008.276.019.074.152.198.323.247.509.338 1.381.523 1.231-.93 1.466-.447.071-.9.128-1.341.213-.395.08-.602-.079-.685-.435-.054-.233-.169-.479-.137-.701.025-.202.163-.516.329-.563zm6.624 47.182c-1.013-.518-1.997-1.081-2.997-1.606-3.217-1.68-6.585-2.984-9.984-4.267-1.67-.63-3.35-1.208-5.117-1.541-.336-.065-.626-.301-.956-.407-.736-.254-1.463-.583-2.226-.713-1.626-.29-3.248-.589-4.714-1.362-.317-.168-.56-.464-.846-.71.265-.264.475-.617.791-.784.406-.22.886-.401 1.326-.397.562.008.8-.245.971-.669l2.422-5.847c.011-.029.017-.071.039-.096 1.179-2.228.97-4.574.75-6.98-.445-4.825.809-9.176 4.314-12.737 1.387-1.422 3.069-2.338 5.025-2.756.348-.076.532.029.657.335.138.333.272.675.433 1.006.171.334.042.485-.285.624-.799.324-1.599.625-2.352 1.034-2.046 1.119-3.544 2.731-4.433 4.883-.572 1.394-1.155 2.784-1.698 4.189-.601 1.55-.509 3.147-.213 4.746.087.458.211.908.322 1.364.136.533.44.931.939 1.181.874.442 1.745.894 2.606 1.341.599.312.663.405.399 1.004-.518 1.203-1.148 2.374-1.598 3.604-.529 1.455-.951 2.952-1.369 4.44-.151.543.029 1.026.547 1.34.758.452 1.488.971 2.294 1.331 1.322.594 2.701 1.077 4.05 1.604l-.019.048c1.838.718 3.718 1.363 5.504 2.183 1.032.471 1.935 1.236 2.91 1.851.914.569 1.849 1.112 2.763 1.681.155.094.339.255.38.405.054.233.035.505-.051.717-.009.052-.412.04-.584-.039z" fill="#F1E66B"/><path d="M124.897 315.519c-.617-.688-1.399-.826-2.391-.443-.749.287-1.209.81-1.476 1.531-.099.33-.231.657-.287.993-.146.813.322 1.899.876 2.126.911.379 2.209-.007 2.766-.827.222-.326.438-.665.634-1.013.48-.827.433-1.749-.122-2.367zm-1.748 2.429c-.362-.476-.295-.673.277-.885.222.377.031.626-.277.885zM137.185 302.549c.029.547.374.871.88 1.047.886.301 1.622-.036 2.285-.558 1.86-1.471.938-4.073-.445-4.658-.395-.032-.845-.207-1.172-.068-.834.355-1.563.929-1.613 1.925-.051.772.022 1.548.065 2.312zm2.16-2.413c.102-.084.375-.088.491-.01.434.27.588.9.404 1.385-.196.515-.592.572-.945.155-.337-.399-.336-1.19.05-1.53z" fill="#F1E66B"/><path d="M22.094 27.208c2.943-.548 5.907-1.014 8.819-1.68 2.143-.484 4.22-1.218 6.328-1.835a.603.603 0 00.157-.077c2.788-1.132 4.268-.571 5.671 2.11.142.267.339.608.289.888-.242 1.363-.421 2.762-.877 4.056-.18.527-.913 1.038-1.519 1.23-.962.322-2 .359-3.022.517-1.563.263-3.152.496-4.718.813-1.06.221-2.088.559-3.151.834-.714.185-1.04.626-.988 1.36.208 2.992.312 5.993.657 8.968.63 5.25 1.85 10.385 3.368 15.442.993 3.34 2.548 6.392 4.876 9.013.636.726 1.375 1.371 2.15 1.954.928.686 1.718.588 2.531-.228 1.44-1.46 2.365-3.196 2.692-5.24.084-.556.141-1.14.279-1.693.303-1.2 1.225-1.938 2.47-1.994 1.158-.05 2.206.622 2.491 1.83.267 1.071.5 2.222.396 3.3-.425 4.153-2.362 7.487-5.832 9.793-2.307 1.542-4.792 1.474-7.245.186a15.055 15.055 0 01-4.977-4.178c-2.573-3.341-4.545-6.962-5.69-11.082-.807-2.908-2.034-5.725-3.313-8.475-1.986-4.276-3.408-8.7-3.942-13.388-.072-.675-.27-1.354-.393-2.017-.083-.513-.377-.686-.859-.561-2.848.702-5.722 1.376-8.566 2.095-.864.224-.95.567-.604 1.403 2.577 6.172 4.898 12.445 6.231 19.01.811 3.994.601 8.02.483 12.058-.16 4.815-1.24 9.441-2.392 14.067-.122.477-.432.914-.709 1.342-.354.537-.81 1.029-1.138 1.595-.81 1.368-1.92 2.332-3.573 2.12-1.817-.224-2.865-1.431-3.262-3.198-.17-.776-.416-1.567-.449-2.36-.014-.655.04-1.453.404-1.957 3.78-5.29 4.788-11.322 4.847-17.66.059-6-1.482-11.674-3.43-17.278-.67-1.928-1.338-3.84-1.975-5.776-.35-1.049-.668-1.18-1.509-.535-1.183.894-2.323 1.813-3.501 2.724-.206.16-.399.37-.631.431-1.196.31-1.8 1.179-2.096 2.27a25.229 25.229 0 00-.754 3.58c-.191 1.421-.714 2.394-1.554 2.505-.777.148-2.104-.773-2.43-1.864-.268-.946-.438-1.988-.315-2.929.344-2.653 1.428-5.054 3.009-7.191 2.18-2.952 4.797-5.536 8.193-6.915 5.717-2.336 11.207-5.255 17.253-6.75l1.827-.474c.003-.054.006-.109-.007-.159zM835.906 5.997c-2.943-.548-5.907-1.014-8.819-1.68-2.143-.484-4.22-1.218-6.328-1.835a.595.595 0 01-.157-.077c-2.788-1.132-4.268-.571-5.671 2.11-.142.267-.339.608-.289.888.242 1.363.421 2.763.877 4.056.179.528.913 1.038 1.519 1.231.962.32 1.999.358 3.022.516 1.563.263 3.152.496 4.718.813 1.06.221 2.088.559 3.151.834.714.186 1.041.626.988 1.36-.208 2.993-.312 5.994-.657 8.968-.63 5.251-1.849 10.385-3.368 15.442-.993 3.34-2.548 6.393-4.875 9.013-.637.726-1.376 1.371-2.151 1.954-.928.686-1.718.588-2.531-.228-1.441-1.46-2.365-3.196-2.692-5.24-.084-.556-.141-1.14-.279-1.693-.303-1.2-1.225-1.938-2.47-1.994-1.158-.05-2.206.622-2.491 1.83-.267 1.071-.501 2.222-.396 3.3.424 4.153 2.362 7.487 5.832 9.793 2.307 1.542 4.792 1.474 7.245.186a15.04 15.04 0 004.977-4.178c2.573-3.341 4.545-6.962 5.691-11.082.807-2.908 2.033-5.725 3.312-8.475 1.987-4.276 3.408-8.699 3.942-13.387.073-.676.27-1.355.393-2.018.083-.513.377-.686.859-.561 2.848.702 5.722 1.376 8.566 2.095.864.224.95.567.604 1.403-2.577 6.172-4.898 12.445-6.231 19.01-.811 3.994-.601 8.02-.483 12.058.16 4.815 1.241 9.441 2.392 14.068.122.476.432.913.709 1.341.354.537.809 1.03 1.138 1.595.809 1.368 1.92 2.332 3.573 2.12 1.817-.224 2.865-1.431 3.262-3.198.17-.775.416-1.567.449-2.36.014-.655-.041-1.453-.404-1.957-3.779-5.29-4.788-11.322-4.846-17.66-.06-6 1.481-11.674 3.429-17.278.671-1.928 1.338-3.84 1.975-5.775.35-1.05.668-1.181 1.509-.536 1.183.895 2.323 1.814 3.501 2.724.206.16.399.37.631.431 1.196.31 1.8 1.179 2.096 2.27.328 1.172.598 2.364.754 3.58.191 1.421.714 2.394 1.554 2.505.777.148 2.104-.773 2.429-1.864.269-.946.439-1.988.316-2.929-.344-2.653-1.428-5.054-3.009-7.191-2.181-2.952-4.797-5.536-8.193-6.915-5.717-2.336-11.207-5.255-17.253-6.75l-1.827-.474a.522.522 0 01.007-.159zM1375.63 125.835c-2.91-1.233-5.89-2.35-8.71-3.73-7.2-3.529-14.35-7.164-21.51-10.769-1.58-.796-3.13-1.601-4.7-2.413-.96-.496-1.92-.851-3.05-.604-.79.174-1.27-.321-1.72-.93-.62-.845-1.26-1.682-2.04-2.376-1.25-1.13-2.01-2.49-2.41-4.097-.77-3.185-.33-6.33.67-9.365 1.95-5.941 4.67-11.524 8.64-16.427 1.19-1.461 2.65-2.715 4.05-4.016.69-.654 1.59-.888 2.5-.74 1.5.255 3.03.523 4.49 1.012 7.13 2.336 13.79 5.672 20.49 8.99 4.69 2.316 9.57 4.224 14.38 6.265 1.46.623 3.02.994 4.49 1.617 3.81 1.65 7.59 3.385 11.41 5.058 1.33.586 1.8 1.747 1.9 3.028.2 2.597.34 5.222-.9 7.681-.25.478-.08.715.38.874.64.216 1.28.433 1.9.695 1.1.466 1.69 1.283 1.72 2.515.06 2.39.28 4.762-.35 7.132-.72 2.698-2 5.01-4.27 6.723-1.07.819-2.17 1.609-3.32 2.306-.58.356-1.3.541-1.97.693-.28.061-.67-.05-.94-.199-1.01-.575-1.99-1.227-3.02-1.772-.21-.107-.68.003-.88.172-1.65 1.429-3.29 2.88-4.9 4.344-.25.24-.44.58-.56.909-.54 1.392-1.59 1.874-3.03 1.279-2.95-1.231-5.88-2.493-8.81-3.739.02-.024.04-.07.07-.116zm1.53-3.389c.02-.046.04-.092.05-.123 2.09.886 4.18 1.756 6.26 2.657.8.356 1.43.222 2.03-.413 1.2-1.26 2.44-2.462 3.67-3.687 2.69-2.68 5.13-5.54 6.85-8.94 2.31-4.609 3.53-9.423 3.37-14.573-.02-.791-.31-1.26-1.07-1.597-1.87-.83-3.68-1.763-5.54-2.624-.83-.392-1.69-.737-2.56-1.052-1.07-.4-2.19-.692-3.25-1.123-3.04-1.255-6.07-2.578-9.11-3.848-.78-.335-.99-.203-1.05.66-.11 1.503-.16 2.994-.28 4.489-.43 5.604-2.2 10.787-5.4 15.456-1.88 2.752-4.29 5.079-6.75 7.326-.73.657-.68 1.005.17 1.403 4.24 1.999 8.43 3.994 12.61 5.989zm-39.51-34.863c-.38 1.025-.91 2.29-1.32 3.593-.78 2.47-1.47 4.978-1.17 7.6.1.862.4 1.719.75 2.521.3.692.91.768 1.52.283.47-.364.9-.749 1.33-1.148 1.04-.96 2.16-1.811 2.72-3.213 2.1-5.172 3.88-10.438 4.81-15.96.35-2.055.49-4.127.66-6.2.03-.317-.28-.65-.44-.97-.3.146-.67.227-.89.458-.44.4-.79.869-1.17 1.325-2.9 3.448-4.72 7.497-6.8 11.711zm19.85 5.588c0 .015 0 .015-.01.03-.66-.281-1.33-.563-2.01-.852-.08-.033-.15-.066-.23-.099-.86-.33-1.77-.133-2.23.62-.38.605-.72 1.298-.81 1.984-.07.498.12 1.272.48 1.572.9.724 1.9 1.352 2.94 1.83 1.87.867 3.8 1.628 5.71 2.367.95.369 1.95.699 2.95.887.35.061.97-.186 1.18-.497.8-1.102.88-2.43.6-3.678-.22-.966-1.32-1.072-2.11-1.444-.31-.147-.64-.232-.95-.363-1.81-.79-3.67-1.577-5.51-2.357zm39.67 27.263c.67.521 1.34.242 2.01-.403.66-.646 1.45-1.186 2.01-1.892.7-.887 1.52-1.833 1.8-2.859.49-1.869.62-3.814.88-5.743.12-.86-.5-1.159-1.18-1.358-.74-.203-.83.378-1.02.823-.12.261-.25.516-.31.781-.86 3.364-2.77 6.177-4.75 8.957-.73.985-.71 1.119.56 1.694zm-35.73-28.252c.05.079.11.158.17.237.36-.156.72-.275 1.05-.482 1.8-1.094 3.56-2.238 5.39-3.281.58-.32 1.34-.454 2.01-.457.94-.003 1.36.757.9 1.563-.29.495-.7.96-1.15 1.294-1.16.877-2.4 1.676-3.57 2.546-.22.162-.46.662-.38.785.21.272.57.46.91.567.19.063.48-.104.7-.192.61-.253 1.17-.54 1.77-.778 1.32-.534 1.39-.501 2.38.554.09.092.22.13.44.28.13-.53.25-.987.3-1.438.1-.777.17-1.55.23-2.325.14-1.653.3-3.315.38-4.988.08-1.26-.39-1.57-1.48-.974-1.15.637-2.31 1.275-3.39 2.019-2.06 1.416-4.07 2.897-6.08 4.355-.22.177-.39.471-.58.715zm-13.51-.528c.05.079.12.164.18.243.51-.314 1.03-.585 1.48-.956 2.58-2.052 5.14-4.134 7.74-6.18 1.69-1.342 3.43-2.604 5.13-3.94.2-.153.41-.607.33-.752-.36-.606-1.67-.708-2.26-.232-3.55 2.791-7.07 5.647-10.69 8.39-1.22.918-1.61 2.1-1.91 3.427zm20.18-8.543c-.05-.169-.07-.377-.19-.498-.7-.81-2.02-.912-2.85-.211a6948.64 6948.64 0 00-8.82 7.359c-.2.154-.4.323-.54.518-.12.15-.15.375-.21.566.19.063.44.243.6.181a9.847 9.847 0 001.55-.78c3.3-2.238 6.57-4.489 9.86-6.718.18-.123.36-.246.6-.417zm1.19 19.746c-3.58 2.337-6.96 4.526-10.33 6.716 1.25.113 2.57-.273 3.78-1.033.61-.38 1.16-.457 1.82-.138.26.127.81.087.96-.102 1.39-1.63 2.78-3.261 3.77-5.443zm-7.47.96a3.372 3.372 0 00-.05-.312c-.45-.047-.92-.229-1.35-.136-1.97.438-3.42 1.804-5.05 2.88-.2.132 0 .838.01 1.278.32-.064.68-.055.95-.198 1.62-.986 3.24-2.01 4.84-3.025.22-.14.43-.325.65-.487zm-11.19-24.207c.11.046.23.114.33.16 1.06-.9 2.13-1.772 3.16-2.7.12-.097-.01-.733-.16-.799a22.24 22.24 0 00-2.6-.937c-.14-.044-.56.235-.57.393-.09 1.291-.11 2.594-.16 3.883zm21.22 15.923c-.62.448-1.05.81-1.53 1.116-.88.538-1.56 1.14-1.23 2.316.06.191.02.463-.09.656-.49.972.13 1.473.78 1.966.76-.712 2.07-4.363 2.07-6.054zm-26.52 2.34c-.36 1.157-.12 1.48 1.03 1.329.25-.022.53-.084.71-.244.93-.841 1.87-1.682 2.73-2.593.16-.166.05-.668-.06-.953-.04-.088-.56-.11-.77 0-.93.482-1.83.991-2.7 1.567-.37.209-.64.584-.94.893zm4.03 6.482c1.45 1.014 1.58.998 2.8-.016.55-.474 1.16-.87 1.75-1.294.46-.333.93-.645 1.35-.992.12-.112.16-.316.23-.485-.18-.079-.37-.232-.56-.221-.24.007-.49.119-.71.244-1.42.765-2.82 1.536-4.22 2.307-.2.095-.37.262-.64.457zm2.59-5.111c-.1-.167-.2-.34-.3-.506-.2.184-.38.419-.62.553-.89.479-1.81.907-2.68 1.393-.32.176-.56.474-.84.7.42.14.84.339 1.28.38.23.024.52-.18.73-.365.67-.533 1.34-1.088 1.99-1.666.17-.13.29-.316.44-.49zm-2-15.772c.08.122.15.245.23.352.43-.257.86-.53 1.26-.793-.07-.122-.14-.223-.21-.346-.42.257-.85.514-1.28.787z" fill="#E8E8E8"/><path d="M1380.48 108.727c-.52-.26-1.06-.505-1.57-.795-1.03-.582-1.37-1.51-.96-2.445.39-.942 1.31-1.37 2.44-1.071 1.25.329 2.48.704 3.7 1.095.57.189.93.086 1.24-.455.57-1.05 1.2-2.073 1.81-3.103.48-.797 1.31-1.19 2.13-1.06.84.137 1.47.697 1.33 1.527-.16 1.025-.46 2.059-.92 2.975-.98 1.91-1.02 1.912.95 2.766.36.151.73.308 1.08.474 1.19.542 1.68 1.678 1.21 2.788-.45 1.08-1.72 1.634-2.87 1.217-.76-.269-1.52-.59-2.25-.935-.7-.317-1.14-.141-1.49.53-.45.863-.93 1.713-1.47 2.522-.72 1.111-1.56 1.482-2.43 1.205-.77-.254-1.21-.787-1.09-1.556.16-1.003.48-1.978.75-2.95.09-.29.24-.574.39-.837.35-.634.15-1.062-.48-1.331-.5-.21-.97-.413-1.47-.622-.02.046-.03.061-.03.061z" fill="#E8E8E8"/><path d="M1077.92 202.509c.26 1.905-.08 3.719-1.56 5.258-.98 1.005-2.11 1.6-3.55 1.508-.89-.045-1.81-.106-2.69-.045-4.18.259-6.92-3.536-6.37-7.285.13-.944.44-1.874.74-2.773.17-.518.15-.93-.3-1.295-.83-.671-1.64-1.402-2.52-1.981-1.79-1.174-3.65-2.256-5.48-3.399-.51-.32-1-.457-1.5-.076-2.98 2.286-6.32 2.149-9.79 1.478-2.48-.472-4.78-1.219-6.58-3.078a13.19 13.19 0 01-.99-1.173c-.32-.442-.71-.564-1.2-.381-2.99 1.066-5.99 2.164-8.98 3.23-.69.244-1.07.701-1.14 1.463-.28 2.697-1.61 4.953-3.35 6.964-.44.534-1.26.915-1.98 1.037-1.56.259-3.12 0-4.59-.625-3.25-1.387-4.78-4.557-3.79-8.031.63-2.225 1.78-4.16 4.02-5.105 2.74-1.158 5.31-.655 7.52 1.295.65.564 1.21.671 2.01.366 3.07-1.173 6.15-2.301 9.24-3.398.67-.244.88-.579.71-1.25-.15-.61-.25-1.25-.35-1.859-.19-1.128-.11-2.225.4-3.261 2.29-4.77 5.89-7.772 11.36-8.351.23-.031.44-.107.68-.122.74-.061.99-.457.99-1.174 0-2.514.03-5.013.06-7.528 0-.594-.13-1.127-.79-1.188-2.72-.274-3.84-2.21-4.47-4.419-.58-2.012-.39-4.069.55-6.005.93-1.981 2.57-2.91 4.68-3.154h.07c1.61-.168 3.25-.442 4.65.747 1.82 1.6 3.23 3.428 3.71 5.882.28 1.402.03 2.758-.28 4.053-.4 1.646-1.75 2.484-3.4 2.82-.98.198-1.12.32-1.07 1.295.11 2.53.2 5.059.31 7.604.05 1.097.18 1.143 1.31 1.174 1.03.03 2.08.076 3.05.335 1.6.411 2.4 1.554 2.74 3.154.87 4.13.59 8.107-1.27 11.932-.21.458-.09.823.28 1.143 1.55 1.341 3.06 2.713 4.64 4.008.5.412 1.13.686 1.7 1.036.55.336 1.15.625 1.58 1.052.93.945 2.01 1.295 3.35 1.234 1.99-.076 3.88.351 5.52 1.57 1.36 1.006 2.26 2.286 2.13 4.069-.04.381-.01.762-.01 1.249zm-36.15-16.595c.07.046.13.091.19.122.11-.061.22-.107.31-.183.59-.564 1.14-1.158 1.76-1.707.84-.746 1.75-1.325 2.94-1.325.65 0 1.27.091 1.53.761.28.717-.09 1.159-.61 1.692-1.16 1.204-2.2 2.53-3.24 3.825-.11.137.02.442.03.655.2-.076.45-.091.59-.213.31-.305.54-.671.84-.991.62-.655 1.31-1.143 2.27-1.082.73.046.99.519.65 1.143-.22.397-.45.762-.76 1.28.47.046.78.122 1.09.107 1.51-.122 2.66-.899 3.55-2.042 1.92-2.438 2.94-5.196 3.01-8.29.04-1.859-.76-2.972-2.62-3.413-1.84-.442-3.71-.473-5.57-.016-1.31.32-2.55.808-3.26 2.073-.58 1.021-.48 1.127.55 1.508.45.168.92.58 1.15 1.006.28.503-.28.777-.61 1.082-1.09 1.036-2.19 2.057-3.26 3.124-.23.259-.36.594-.53.884zm29.62 13.106c-.68.152-1.19.167-1.61.396-.34.183-.8.609-.79.899.11 1.661.19 3.352 1.44 4.678.48.503 1.01.61 1.58.259 1.11-.67 2.03-1.539 2.6-2.728.52-1.097.25-2.179-.85-2.712-.78-.381-1.67-.564-2.37-.792zm-22.89-42.35c-.04.793.22 1.311.81 1.646.71.396 1.45.503 2.2.046 1.05-.655 1.65-1.631 1.96-2.804.42-1.6-.68-2.956-2.35-2.865-.28.015-.63.137-.82.32-1.02 1.067-1.64 2.316-1.8 3.657zm-29.66 37.991h-.04c0 .503.01 1.021 0 1.524-.05.777.34 1.341.86 1.859.42.412.79.412 1.19-.015 1.46-1.493 2-3.276 1.71-5.303-.1-.671-.58-1.143-1.23-1.341-.43-.137-2.29.747-2.39 1.082-.07.167-.08.35-.08.518-.02.564-.02 1.112-.02 1.676z" fill="#009564"/></svg>
