<svg width="308" height="150" fill="none" xmlns="http://www.w3.org/2000/svg"><path d="M11.753 114.827c-.408 1.409-.847 2.822-1.216 4.226a4.241 4.241 0 00.045 2.365c.326 1.076.637 2.171.974 3.239.12.373.29.734.488 1.04 1.077 1.668 1.75 3.685 2.527 5.619.142.357.262.73.442 1.043.124.226.297.419.502.547.275.177.6.144.965-.24.388-.401.782-.78 1.188-1.149.313-.282.651-.512.961-.805.261-.24.518-.511.744-.796.207-.258.197-.507.112-.737-.057-.147-.054-.334-.09-.498-.049-.245-.084-.507-.176-.719-.746-1.74-1.799-3.177-2.75-4.709-.83-1.316-1.149-2.986-1.246-4.813-.043-.858.227-1.741.812-2.57a18.257 18.257 0 012.585-2.962c.148-.137.366-.265.507-.265.97.009 1.957-.009 2.787.395.66.322 1.164.859 1.574 1.512.735 1.194 1.49 2.371 2.134 3.651.382.767.563 1.714.842 2.576.092.31.16.647.287.923.102.222.244.44.43.556.131.088.378.083.554-.031.494-.306.987-.632 1.445-1.043a30.197 30.197 0 001.881-1.814c.63-.653.796-1.313.544-1.973-.413-1.059-.83-2.109-1.245-3.169a3.661 3.661 0 01-.201-.712c-.181-.927-.588-1.648-1.06-2.31-.552-.692-1.05-1.446-1.597-2.148-.993-1.28-2.245-2.161-3.717-2.736-1.224-.481-2.557-.452-4.051.109-.81.301-1.58.786-2.322 1.483-.402.379-.85.662-1.237 1.063-1.145 1.175-2.335 2.275-3.261 3.738-.437.691-.852 1.366-1.084 2.125l-.077-.011zm5.631 15.54c-.45.511-.514.522-.839.198-.332-.324-.685-.612-1.02-.927-.053-.057-.046-.195-.067-.297.12-.062.243-.154.341-.159.078-.009.135.098.195.156.451.361.794.895 1.39 1.029-.003-.129.024-.303-.032-.391a2.018 2.018 0 00-.392-.521c-.272-.247-.579-.458-.868-.698.215-.296.335-.2.455-.123.31.182.631.357.931.548.116.066.254.135.3.27.205.525.371.538-.394.915zm8.675-18.96c-.3.205-.536.34-.75.518-.17.134-.36.306-.476.497-.078.128-.113.361-.07.466.035.084.215.1.324.046.37-.176.744-.4 1.114-.615.236-.135.44-.185.567-.009.209.297.4.622.598.927.06.098.127.196.204.267.142.139.332.225.42.406.304.578.577 1.182.856 1.786.081.18-.007.356-.172.54-.423.475-.85.96-1.272 1.435-.37.413-.39.43-.557.059-.65-1.538-1.474-2.893-2.374-4.18-.654-.935-1.416-1.717-2.394-2.202-.38-.193-.797-.391-1.252-.366-1.64.075-3.2.953-4.55 2.793-.665.906-1.231 1.905-1.84 2.859-.444.69-.552 1.339-.506 2.009.065.881.238 1.688.49 2.447.368 1.162.711 2.35 1.093 3.494.11.322.336.552.491.852.212.406.41.831.59 1.263.025.072-.055.309-.133.377-.458.43-.923.84-1.388 1.23-.077.068-.254.102-.271.05-.184-.422-.42-.822-.492-1.308-.057-.404-.145-.744-.343-1.029-.428-.626-.887-1.226-1.265-1.903-.883-1.592-1.22-3.512-.73-5.899.169-.809.299-1.613.498-2.426.106-.441.246-.916.472-1.32.911-1.625 1.995-3.076 3.345-4.242.165-.145.33-.29.486-.446a6.989 6.989 0 013.154-1.861c.233-.066.472-.091.67-.044.702.169 1.393.366 2.067.591.392.125.367.151.131.702-.067.159-.08.395-.02.492.06.098.25.105.38.054.19-.072.381-.243.579-.354.12-.062.285-.147.359-.107.198.107.357.278.568.447-.155.137-.25.212-.341.298-.187.162-.395.321-.571.494-.2.199-.433.424-.324.707.096.261.325.145.543.018.35-.199.695-.427 1.047-.615.12-.062.314-.124.37-.056.24.252.438.537.675.858zm3.55 8.053c-.022.036-.04.083-.06.12-.593-.243-1.19-.476-1.79-.719l.011-.088c.13-.031.268-.101.384-.094.138.009.262.076.389.134.391.165.8.282 1.065.647zm-1.04.932c0 .059-.003.109-.003.168-.124.072-.254.162-.377.214-.088.037-.219.068-.244.015-.088-.161-.134-.356-.19-.542-.015-.042.01-.147.049-.191.031-.045.123-.072.151-.048.215.119.416.257.614.384zM24.653 134.308c.355-.184.621-.328.899-.46.328-.157.54-.415.647-.805.108-.368-.012-.566-.243-.641-.653-.208-1.32-.397-1.98-.585a5.895 5.895 0 00-.954-.208c-.146-.02-.359.046-.52.151-.274.186-.37.545-.17.68.336.228.707.386 1.081.556.178.088.375.148.645.249-.19.134-.29.226-.393.286-.294.173-.598.332-.888.516-.266.165-.435.44-.489.752-.054.312.047.496.267.559.915.266 1.83.532 2.763.769.54.139 1.108.229 1.668.318.1.014.293-.023.34-.102.08-.127.134-.354.1-.455-.082-.192-.198-.379-.364-.455-.737-.348-1.498-.657-2.247-.974-.038-.027-.062-.073-.162-.151zM34.209 124.688c-.33.216-.665.421-.984.67-.58.453-.683 1.036-.203 1.27.346.163.753.21 1.106.353.613.242 1.206.534 1.815.786.125.049.266.079.414.089.293.03.551-.143.703-.457.148-.304.128-.631-.108-.748-.25-.14-.555-.203-.825-.314-.456-.189-.909-.388-1.358-.597-.042-.016-.053-.07-.122-.142.164-.114.297-.211.437-.306.175-.123.36-.212.513-.358.372-.346.493-.853.234-1.099a3.015 3.015 0 00-.773-.494 49.246 49.246 0 00-2.08-.928.919.919 0 00-.548-.035c-.121.025-.319.186-.376.315a.537.537 0 00.016.442c.103.15.267.246.426.331.46.263.929.506 1.393.759.11.068.213.155.32.233.007.085.004.158 0 .23z" fill="#009DAF"/><path d="M58 19.89c0-3.234 1.462-6.267 2.757-9.145.526-1.168 1.436-2.037 2.288-2.94.593-.628 1.1-1.348 1.702-1.949.436-.436.978-.73 1.408-1.16.488-.488 1.095-.992 1.753-1.232.601-.218 1.141-.707 1.708-.99.229-.115.472-.041.704-.157.293-.147.588-.248.913-.26.527-.021.992-.353 1.55-.353.504 0 .95-.234 1.468-.234.438 0 .883-.352 1.29-.352.518 0 .98-.118 1.467-.118M96.19 19.89c0-3.234-1.462-6.267-2.757-9.145-.526-1.168-1.436-2.037-2.288-2.94-.593-.628-1.1-1.348-1.701-1.949-.437-.437-.979-.73-1.408-1.16-.489-.488-1.095-.993-1.754-1.232-.6-.219-1.14-.707-1.707-.99-.23-.115-.472-.041-.704-.157-.294-.147-.589-.249-.913-.261-.528-.02-.992-.352-1.552-.352-.503 0-.95-.235-1.466-.235-.439 0-.884-.352-1.29-.352-.519 0-.98-.117-1.468-.117" stroke="#E8E8E8" stroke-linecap="round" stroke-linejoin="round"/><path d="M76.998 1.15c-.43.335-.857.663-1.28.99-.17.133-.311.399-.51.487-.211.094-.254.31-.427.41-.323.19-.836.658-1.023.986-.122.213-.316.278-.455.452a5.813 5.813 0 01-.41.47c-.49.49-1.14 1.091-1.453 1.718-.392.784-.742 1.54-1.137 2.331-.182.362-.432.822-.522 1.222-.058.262-.247.457-.372.682-.088.158-.13.355-.243.496-.112.14-.15.438-.228.613-.082.186-.19.408-.243.594-.044.154-.23.314-.31.457a4.297 4.297 0 00-.3.699c-.337.975-.637 1.848-.637 2.911 0 .524-.114 1.032-.114 1.564v1.279M77.193 1.15c.429.335.857.663 1.279.99.17.133.312.399.511.487.21.094.254.31.427.41.322.19.836.658 1.023.986.122.213.316.278.455.452.126.158.267.327.41.47.49.49 1.14 1.091 1.453 1.718.392.784.742 1.54 1.137 2.331.181.362.432.822.52 1.222.06.262.248.457.374.682.087.158.13.355.243.496.111.14.15.438.227.613.083.186.19.408.243.594.044.154.23.314.31.457.126.228.216.456.3.699.338.975.638 1.848.638 2.911 0 .524.113 1.032.113 1.564v1.279M77.055 1.434c-.036-.204.057-.542.057-.171 0 .095-.048.394.028.455.12.096.052.717.089.88.134.604.167 1.179.167 1.82v2.103c0 .844.114 1.662.114 2.495 0 1.112.057 2.215.057 3.332 0 .864-.114 1.687-.114 2.558 0 .741-.114 1.489-.114 2.23v2.375M58.127 19.996c.158-.115.315-.246.463-.362.077-.06.112-.145.206-.186.057-.026.17-.075.215-.111.113-.09.261-.17.402-.232.16-.072.371-.075.515-.187.033-.026.195-.073.242-.086.087-.025.169.01.255-.029.144-.063.383-.138.541-.144.38-.015.79-.127 1.157-.208.408-.09.847-.101 1.271-.101.194 0 .388.027.572.034.24.01.475.125.713.137.47.025.906.31 1.355.41.198.044.413.125.6.208.127.056.652.024.652.206" stroke="#E8E8E8" stroke-linecap="round" stroke-linejoin="round"/><path d="M67.389 19.619c.132-.169.331-.255.48-.412.125-.131.348-.294.541-.309.209-.015.471-.158.66-.247.167-.08.434-.136.617-.162.55-.079 1.117-.277 1.673-.277.475 0 .91-.137 1.38-.137.443 0 1.056-.098 1.475.052.096.034.222.03.324.05.108.019.215.054.326.068.234.03.466.157.695.173.128.01.41.06.507.137.149.12.399.13.566.224.15.083.279.203.412.306.102.08.302.144.36.26" stroke="#E8E8E8" stroke-linecap="round" stroke-linejoin="round"/><path d="M86.975 19.585c-.166-.273-.484-.509-.737-.705a5.689 5.689 0 00-.824-.546c-.808-.435-1.724-.533-2.624-.533-.265 0-.569-.044-.823.034a3.854 3.854 0 01-.816.172c-.241.016-.497.101-.735.145-.306.055-.62.133-.911.24-.433.158-.831.397-1.27.549-.224.077-.43.208-.651.293-.041.016-.273.16-.282.18M96.271 19.928c-.236-.237-.387-.562-.652-.77-.22-.174-.427-.335-.686-.457-.706-.335-1.463-.317-2.226-.317-1.177 0-2.373-.158-3.515.223-.263.088-.531.153-.795.242a6.905 6.905 0 01-.66.195c-.153.035-.38.097-.522.171-.09.048-.164.13-.274.13M77.023 39.923c-.869-.657-1.488-1.47-2.442-2.015-.322-.184-.513-.514-.843-.843l-.842-.837s-1.43-1.574-2.064-2.207c-.365-.365-.596-.746-1.007-1.2-.534-.589-.96-.96-1.44-1.44-.51-.51-.92-.987-1.541-1.588-.617-.598-1.116-.972-1.626-1.483-.953-.953-2.044-1.89-2.858-2.975-.281-.374-.454-.734-.79-1.173a12.166 12.166 0 00-.575-.698c-.201-.232-.337-.341-.528-.581-.23-.29-.296-.5-.528-.79-.199-.248-.36-.345-.554-.597-.203-.261-.279-.5-.453-.714-.158-.192-.753-1.14-.816-1.013" stroke="#E8E8E8" stroke-linecap="round" stroke-linejoin="round"/><path d="M77.052 40c-.073-.177-.181-.293-.29-.447-.14-.2-.24-.467-.35-.686-.215-.424-.494-.828-.654-1.277-.15-.421-.357-.801-.575-1.191-.46-.824-.892-1.658-1.368-2.473a4.858 4.858 0 01-.28-.533c-.111-.247-.23-.533-.407-.742-.26-.309-.36-.734-.587-1.06-.669-.967-1.13-2.072-1.627-3.129-.243-.517-.52-1.03-.73-1.564-.278-.709-.757-1.342-.983-2.076-.146-.474-.372-.927-.503-1.406-.159-.584-.324-1.138-.568-1.687-.064-.143-.087-.329-.128-.483-.064-.241-.205-.47-.253-.71-.042-.21-.118-.4-.15-.612-.027-.17-.147-.33-.147-.502" stroke="#E8E8E8" stroke-linecap="round" stroke-linejoin="round"/><path d="M77.35 19.348c0 1.176.067 2.377-.035 3.547-.036.411.021.827-.021 1.239-.056.548-.13 1.13-.13 1.68 0 .612-.027 1.222-.037 1.832-.016.885.074 1.767.074 2.65 0 .413-.031.804-.074 1.214-.042.4-.058.822-.13 1.215-.062.331-.056.722-.056 1.059v5.084c0 .359-.038.729-.038 1.095M76.978 40c.514-.62.957-1.29 1.379-1.974.464-.751.99-1.463 1.45-2.216.8-1.315 1.416-2.729 2.046-4.129.35-.776.724-1.52 1.133-2.266.063-.116.095-.25.148-.372.064-.143.165-.266.224-.411.257-.631.506-1.266.756-1.9.343-.87.84-1.666 1.07-2.586.237-.95.712-1.764 1.105-2.648.212-.476.514-.955.59-1.48.014-.1.072-.196.072-.298 0-.109-.034-.318.074-.372M77.09 40c.205-.395.585-.56.911-.837.438-.373.934-.663 1.357-1.06.43-.406.867-.812 1.304-1.208.416-.377.72-.86 1.152-1.228.629-.537 1.103-1.237 1.598-1.892.435-.577.885-1.144 1.383-1.668.717-.755 1.13-1.738 1.786-2.547.335-.413.687-.85 1.062-1.226.422-.422.892-.787 1.354-1.164.436-.355.854-.725 1.257-1.116.28-.272.618-.495.916-.748.349-.296.643-.642.978-.951.369-.34.774-.634 1.129-.989.307-.306.594-.631.901-.938.43-.43.707-.867 1.03-1.381.22-.35.446-.744.74-1.038.07-.07.19-.132.231-.215M91.266 8.066a8.27 8.27 0 01-.873.721c-.227.165-.534.298-.732.495-.171.171-.442.126-.59.26-.114.105-.35.2-.487.241M89.02 7.365c.196-.025.823-.3.961-.474M88.584 11.864c.452 0 .77-.346 1.145-.576.162-.099.326-.209.491-.3.173-.095.424-.273.614-.295.195-.022.37-.27.59-.27.15 0 .364-.156.473-.27.208-.216.462-.62.736-.72M88.873 14.181c.67 0 1.3-.514 1.881-.835.444-.244.874-.523 1.314-.765.55-.303 1.06-.718 1.59-1.01M88.873 16.503c1.233 0 2.202-.825 3.304-1.31.185-.082.41-.316.568-.455.27-.237.542-.465.812-.702.235-.206.582-.54.865-.645M90.608 17.789c1.106 0 1.886-.7 2.79-1.206.636-.356 1.067-1.07 1.702-1.385M94.331 18.05c.324-.127 1.18-.806 1.469-.998" stroke="#E8E8E8" stroke-linecap="round" stroke-linejoin="round"/><path d="M288.721 32.662c-1.272-.537-2.574-1.023-3.81-1.624-3.15-1.536-6.28-3.12-9.416-4.69-.689-.346-1.369-.697-2.056-1.05-.418-.217-.84-.37-1.336-.262-.347.076-.557-.14-.753-.405-.271-.37-.552-.734-.892-1.037a3.44 3.44 0 01-1.051-1.787c-.336-1.39-.142-2.762.296-4.087.858-2.594 2.05-5.032 3.792-7.173.521-.639 1.163-1.187 1.774-1.756a1.27 1.27 0 011.096-.323c.658.11 1.328.226 1.965.44 3.122 1.015 6.037 2.468 8.97 3.913 2.051 1.009 4.189 1.84 6.293 2.728.642.27 1.325.432 1.968.703 1.665.719 3.322 1.474 4.991 2.202.586.255.788.762.832 1.32.087 1.135.145 2.28-.399 3.354-.107.209-.032.312.17.381.279.094.558.188.829.303.48.202.741.559.753 1.096.023 1.043.122 2.078-.156 3.113-.317 1.178-.881 2.188-1.875 2.936-.471.358-.951.704-1.454 1.008-.253.156-.569.237-.863.304-.124.027-.295-.022-.411-.087-.443-.25-.872-.534-1.321-.772-.092-.046-.297.002-.386.076-.723.624-1.443 1.258-2.149 1.898-.11.105-.191.253-.247.397-.235.608-.696.819-1.328.56-1.288-.536-2.571-1.085-3.856-1.628.012-.01.021-.03.03-.05zm.674-1.48l.024-.053c.913.385 1.829.764 2.74 1.156.348.156.623.097.889-.18.523-.551 1.066-1.077 1.606-1.612 1.18-1.17 2.25-2.42 3.007-3.905 1.012-2.012 1.55-4.114 1.479-6.361-.009-.346-.135-.55-.464-.697-.819-.362-1.611-.767-2.425-1.143-.366-.17-.741-.32-1.122-.457-.469-.174-.958-.302-1.421-.49-1.332-.545-2.659-1.121-3.988-1.674-.345-.146-.435-.088-.464.289-.047.655-.068 1.306-.123 1.959-.192 2.446-.97 4.709-2.371 6.748-.824 1.202-1.88 2.218-2.961 3.2-.319.287-.298.44.075.613 1.855.87 3.687 1.739 5.519 2.607zm-17.287-15.196c-.164.447-.399 1-.576 1.568-.346 1.078-.65 2.174-.519 3.318.043.376.175.75.326 1.1.132.301.399.334.668.122a8.19 8.19 0 00.581-.501c.457-.42.95-.792 1.194-1.404.92-2.258 1.706-4.557 2.115-6.968.153-.897.214-1.8.291-2.706.012-.138-.124-.283-.191-.423-.133.064-.293.1-.393.2-.189.175-.343.38-.511.58-1.271 1.505-2.072 3.273-2.985 5.114zm8.693 2.429l-.006.013-.879-.37-.102-.044c-.378-.143-.776-.057-.977.271-.164.265-.313.567-.357.867-.031.217.053.555.213.686.39.316.831.59 1.285.797.821.378 1.662.709 2.499 1.03.418.161.853.305 1.29.386.157.027.429-.081.521-.217.347-.481.385-1.061.264-1.606-.096-.421-.581-.467-.927-.629-.132-.064-.276-.1-.412-.158-.795-.344-1.607-.686-2.412-1.026zm17.356 11.88c.294.227.588.105.88-.177.293-.282.637-.518.885-.827.306-.387.664-.8.789-1.248.214-.816.274-1.665.387-2.507.053-.375-.219-.506-.517-.592-.323-.088-.362.165-.447.36-.05.114-.107.225-.134.34-.381 1.47-1.217 2.698-2.087 3.912-.318.43-.311.489.244.74zm-15.634-12.314l.075.104c.159-.069.318-.12.462-.211.787-.478 1.56-.979 2.362-1.435.254-.14.585-.198.882-.2.41-.002.593.33.39.682-.127.216-.304.42-.505.565-.505.383-1.051.733-1.563 1.113-.095.07-.199.29-.167.343.093.118.249.2.397.247.084.027.212-.046.31-.084.265-.11.512-.237.775-.34.576-.235.609-.22 1.041.24.038.04.095.056.195.122.053-.232.109-.43.131-.628.045-.339.073-.677.101-1.014.06-.722.131-1.447.171-2.178.033-.55-.173-.684-.648-.424-.507.279-1.015.557-1.486.883-.906.619-1.784 1.266-2.665 1.903-.098.078-.171.206-.258.312zm-5.916-.224c.025.035.057.072.082.106.221-.137.449-.255.648-.417 1.132-.898 2.254-1.807 3.392-2.702.739-.586 1.503-1.138 2.248-1.721.086-.067.181-.265.145-.329-.157-.264-.731-.308-.991-.1-1.554 1.22-3.097 2.468-4.682 3.667-.537.4-.708.917-.842 1.496zm8.844-3.738c-.024-.073-.032-.164-.081-.217a.917.917 0 00-1.251-.09c-1.288 1.069-2.579 2.146-3.867 3.215a1.207 1.207 0 00-.236.227c-.053.065-.064.163-.093.247.085.027.195.105.263.079.233-.093.468-.208.679-.342 1.448-.978 2.883-1.962 4.321-2.936.08-.054.16-.108.265-.183zm.513 8.618a2807.293 2807.293 0 01-4.53 2.936c.548.048 1.127-.12 1.658-.453.266-.166.505-.2.797-.06.112.055.352.037.421-.046.609-.712 1.219-1.424 1.654-2.377zm-3.273.422l-.021-.136c-.199-.02-.405-.1-.592-.059-.862.193-1.501.79-2.213 1.26-.089.057 0 .365.004.558.14-.028.299-.025.415-.087.711-.432 1.42-.88 2.121-1.323.099-.061.19-.142.286-.213zm-4.889-10.56c.047.02.099.05.146.07.461-.393.934-.774 1.384-1.18.051-.042-.003-.32-.071-.348a9.47 9.47 0 00-1.136-.408c-.064-.02-.246.103-.252.172-.039.563-.048 1.132-.071 1.694zm9.286 6.94c-.271.196-.461.354-.672.488-.384.235-.684.498-.54 1.011a.403.403 0 01-.038.287c-.218.424.055.642.337.857.337-.31.909-1.905.913-2.643zm-11.618 1.034c-.158.505-.051.646.451.58.109-.01.233-.038.312-.108.41-.367.82-.734 1.195-1.132.072-.073.024-.292-.025-.416-.016-.039-.244-.048-.337 0-.406.21-.8.434-1.184.685-.16.091-.28.255-.412.39zm1.766 2.827c.632.441.691.435 1.222-.009.244-.207.512-.38.77-.565.2-.146.405-.282.592-.434.053-.049.068-.138.101-.211-.082-.035-.165-.101-.247-.096a.71.71 0 00-.312.107c-.62.334-1.233.671-1.846 1.008-.09.042-.163.114-.28.2zm1.133-2.232c-.041-.073-.088-.148-.128-.22-.092.08-.169.182-.275.24-.388.21-.791.398-1.173.61-.138.077-.244.207-.367.306.181.061.368.148.56.165.1.01.228-.079.319-.16.295-.232.586-.475.873-.727.073-.057.125-.138.191-.214zm-.866-6.883c.032.054.065.107.1.154.186-.112.375-.231.554-.347-.033-.053-.062-.097-.094-.15-.186.112-.372.224-.56.343z" fill="#F1E66B"/><path d="M290.862 25.198c-.23-.114-.464-.22-.689-.346-.449-.254-.599-.658-.42-1.067.173-.41.575-.598 1.071-.468.546.143 1.083.306 1.617.476.252.082.408.037.544-.199.249-.458.525-.905.795-1.354.209-.348.573-.52.932-.464.367.06.644.303.581.666a4.448 4.448 0 01-.402 1.298c-.431.834-.447.835.414 1.206.156.066.318.134.47.206.522.236.736.731.531 1.216-.199.472-.754.713-1.259.532a10.296 10.296 0 01-.982-.406c-.308-.138-.502-.061-.655.231-.197.377-.408.748-.644 1.101-.317.485-.684.647-1.064.527-.336-.11-.53-.343-.479-.678.072-.438.211-.863.334-1.288.039-.126.102-.25.168-.365.154-.276.068-.463-.209-.58l-.642-.271-.012.027z" fill="#F1E66B"/><path d="M246.959 113.284c.132.797-.038 1.555-.781 2.199-.487.421-1.052.669-1.772.631-.448-.019-.905-.045-1.346-.019-2.089.108-3.458-1.479-3.187-3.047.069-.395.224-.784.371-1.16.085-.217.078-.389-.147-.542-.418-.28-.82-.586-1.261-.828-.897-.491-1.826-.944-2.739-1.422-.255-.134-.502-.191-.75-.032-1.493.956-3.164.899-4.897.619-1.238-.198-2.391-.51-3.288-1.288a5.337 5.337 0 01-.495-.491c-.163-.185-.356-.235-.604-.159-1.493.446-2.994.905-4.487 1.351-.348.102-.534.293-.572.612-.14 1.128-.805 2.072-1.672 2.913-.224.223-.634.382-.99.433-.781.109-1.563 0-2.298-.261-1.624-.58-2.39-1.906-1.895-3.359.317-.931.89-1.74 2.011-2.135 1.37-.485 2.654-.274 3.76.542.325.235.604.28 1.006.153 1.532-.491 3.072-.963 4.619-1.422.333-.102.441-.242.356-.522-.078-.255-.124-.523-.178-.778-.093-.472-.054-.931.201-1.364 1.145-1.995 2.948-3.251 5.679-3.493.116-.013.224-.045.34-.051.371-.025.495-.191.495-.49 0-1.052.016-2.098.031-3.15 0-.248-.062-.471-.395-.497-1.361-.114-1.918-.924-2.235-1.848-.287-.841-.194-1.702.278-2.511.464-.829 1.284-1.218 2.337-1.32h.038c.805-.07 1.625-.184 2.321.313.913.669 1.617 1.434 1.857 2.46.139.586.015 1.154-.139 1.695-.201.689-.875 1.04-1.702 1.18-.488.082-.557.133-.534.541.054 1.058.1 2.117.155 3.18.023.46.092.479.657.492.511.012 1.037.032 1.524.14.797.172 1.199.65 1.37 1.319.433 1.728.294 3.391-.635 4.991-.108.191-.046.344.139.478.774.561 1.532 1.135 2.321 1.676.248.172.565.287.851.434.271.14.573.261.79.44.464.395 1.005.541 1.671.516.998-.032 1.941.146 2.762.656.68.421 1.129.956 1.067 1.702-.023.16-.008.319-.008.523zm-18.072-6.941c.031.019.062.038.093.051.054-.026.108-.045.155-.077.294-.236.572-.484.882-.714.417-.312.874-.554 1.469-.554.325 0 .635.038.766.319.14.299-.046.484-.309.707-.58.504-1.099 1.058-1.617 1.6-.054.057.008.185.015.274.101-.032.225-.038.294-.089.155-.128.271-.281.418-.415.31-.274.658-.478 1.138-.452.363.019.495.217.324.478-.108.166-.224.319-.379.535.232.019.387.051.542.045.758-.051 1.331-.376 1.779-.854.96-1.02 1.47-2.174 1.501-3.468.023-.777-.379-1.242-1.307-1.427a6.946 6.946 0 00-2.785-.007c-.658.134-1.277.338-1.633.867-.286.427-.24.472.279.631.224.07.456.242.572.421.139.21-.139.325-.302.452-.549.434-1.098.861-1.632 1.307-.116.108-.178.249-.263.37zm14.808 5.481c-.341.064-.596.07-.805.166-.17.076-.402.255-.394.376.054.695.092 1.402.719 1.957.24.21.503.255.789.108.557-.28 1.014-.644 1.3-1.141.263-.459.124-.911-.426-1.134-.386-.16-.835-.236-1.183-.332zm-11.443-17.713c-.023.332.109.548.403.689.356.165.727.21 1.098.019a1.92 1.92 0 00.983-1.173c.209-.67-.341-1.237-1.176-1.198-.139.006-.317.057-.41.134-.511.446-.82.968-.898 1.53zm-14.83 15.89h-.024c0 .211.008.427 0 .638-.023.325.171.561.434.777.208.172.394.172.595-.006.728-.625.998-1.37.851-2.218-.046-.281-.286-.478-.611-.561-.217-.057-1.145.312-1.199.453a.532.532 0 00-.039.216c-.007.236-.007.466-.007.701z" fill="#E8E8E8"/></svg>
