<svg width="1440" height="386" viewBox="0 0 1440 386" fill="none" xmlns="http://www.w3.org/2000/svg">
<mask id="mask0" mask-type="alpha" maskUnits="userSpaceOnUse" x="0" y="0" width="1440" height="386">
<rect width="1440" height="386" fill="#F8F7F6"/>
</mask>
<g mask="url(#mask0)">
<path d="M1031.49 296.121C1031.75 293.736 1032.07 291.349 1032.24 288.964C1032.35 287.472 1031.85 286.084 1031.07 284.799C1029.87 282.835 1028.69 280.843 1027.47 278.891C1027.04 278.207 1026.5 277.535 1025.93 276.954C1022.81 273.782 1020.42 270.088 1017.84 266.517C1017.37 265.858 1016.94 265.175 1016.4 264.585C1016.03 264.161 1015.56 263.783 1015.05 263.513C1014.37 263.139 1013.67 263.125 1013.04 263.718C1012.38 264.336 1011.68 264.916 1010.96 265.474C1010.4 265.9 1009.77 266.228 1009.22 266.674C1008.76 267.038 1008.32 267.457 1007.95 267.907C1007.61 268.314 1007.75 268.755 1008.04 269.178C1008.23 269.448 1008.31 269.777 1008.46 270.073C1008.68 270.514 1008.88 270.983 1009.17 271.375C1011.6 274.6 1014.56 277.36 1017.33 280.263C1019.75 282.761 1021.21 285.767 1022.25 288.999C1022.73 290.517 1022.54 292.008 1021.63 293.334C1020.43 295.092 1019 296.653 1017.31 297.964C1017.05 298.173 1016.63 298.348 1016.32 298.316C1014.19 298.085 1012.03 297.898 1010.03 297.001C1008.44 296.29 1007.09 295.233 1005.9 293.995C1003.75 291.733 1001.55 289.496 999.565 287.104C998.38 285.67 997.555 283.965 996.551 282.389C996.209 281.823 995.909 281.216 995.505 280.704C995.179 280.29 994.77 279.875 994.308 279.63C993.982 279.446 993.443 279.4 993.109 279.56C992.166 279.989 991.233 280.453 990.415 281.072C989.265 281.919 988.162 282.857 987.115 283.841C986.029 284.849 985.967 285.972 986.816 287.188C988.203 289.141 989.594 291.079 990.981 293.033C991.275 293.44 991.53 293.872 991.746 294.329C992.563 295.999 993.78 297.357 995.118 298.625C996.639 299.964 998.072 301.401 999.59 302.756C1002.35 305.226 1005.49 307.054 1008.98 308.392C1011.88 309.509 1014.79 309.755 1017.81 309.103C1019.45 308.754 1020.91 308.072 1022.22 307.012C1022.93 306.436 1023.78 306.038 1024.45 305.42C1026.43 303.61 1028.54 301.943 1029.91 299.577C1030.55 298.46 1031.15 297.367 1031.32 296.084C1031.38 296.097 1031.43 296.107 1031.49 296.121ZM1012.11 267.557C1012.86 266.76 1013 266.755 1013.85 267.396C1014.73 268.04 1015.63 268.625 1016.51 269.253C1016.65 269.365 1016.7 269.606 1016.79 269.79C1016.56 269.872 1016.33 270.006 1016.12 269.994C1015.95 269.992 1015.78 269.791 1015.62 269.676C1014.47 268.941 1013.47 267.926 1012.11 267.557C1012.17 267.785 1012.19 268.086 1012.35 268.252C1012.67 268.615 1013.04 268.973 1013.45 269.255C1014.16 269.749 1014.92 270.19 1015.67 270.674C1015.33 271.147 1015.02 270.952 1014.73 270.79C1013.96 270.4 1013.18 270.022 1012.44 269.62C1012.15 269.478 1011.82 269.326 1011.66 269.078C1010.97 268.11 1010.6 268.05 1012.11 267.557ZM1001.69 298.945C1002.25 298.651 1002.71 298.467 1003.1 298.202C1003.41 298.004 1003.75 297.745 1003.91 297.435C1004.03 297.227 1004 296.826 1003.86 296.632C1003.74 296.476 1003.34 296.408 1003.12 296.479C1002.39 296.705 1001.68 297.016 1000.96 297.311C1000.51 297.496 1000.08 297.539 999.722 297.2C999.131 296.632 998.566 296.019 997.994 295.438C997.818 295.253 997.626 295.065 997.424 294.924C997.051 294.648 996.595 294.454 996.319 294.116C995.391 293.033 994.521 291.912 993.635 290.788C993.375 290.453 993.488 290.164 993.767 289.877C994.478 289.136 995.192 288.38 995.903 287.639C996.527 286.995 996.565 286.97 997.097 287.658C999.221 290.507 1001.64 293.072 1004.2 295.534C1006.05 297.322 1008.08 298.865 1010.44 299.936C1011.36 300.36 1012.37 300.8 1013.35 300.858C1016.91 301.092 1019.93 299.896 1022.06 296.963C1023.1 295.519 1023.89 293.889 1024.79 292.348C1025.45 291.234 1025.4 290.119 1024.99 288.93C1024.45 287.368 1023.7 285.911 1022.81 284.521C1021.48 282.398 1020.19 280.233 1018.83 278.138C1018.44 277.547 1017.84 277.092 1017.37 276.531C1016.72 275.769 1016.09 274.979 1015.5 274.181C1015.41 274.047 1015.48 273.65 1015.62 273.547C1016.43 272.893 1017.26 272.277 1018.11 271.695C1018.25 271.592 1018.62 271.571 1018.68 271.667C1019.27 272.45 1019.97 273.206 1020.35 274.075C1020.66 274.798 1021.01 275.414 1021.57 275.96C1022.79 277.154 1024.07 278.311 1025.2 279.586C1027.86 282.58 1029.47 286.029 1029.48 290.115C1029.47 291.498 1029.55 292.882 1029.48 294.268C1029.45 295.019 1029.36 295.823 1029.05 296.483C1027.79 299.134 1026.07 301.443 1023.64 303.191C1023.34 303.409 1023.05 303.627 1022.78 303.867C1021.04 305.415 1018.97 306.134 1016.71 306.435C1016.23 306.5 1015.71 306.491 1015.26 306.363C1013.65 305.91 1012.04 305.409 1010.46 304.865C1009.55 304.559 1009.59 304.518 1009.86 303.602C1009.93 303.338 1009.85 302.926 1009.68 302.741C1009.5 302.556 1009.08 302.501 1008.82 302.561C1008.43 302.646 1008.09 302.904 1007.71 303.055C1007.48 303.137 1007.15 303.251 1006.97 303.164C1006.49 302.931 1006.07 302.595 1005.52 302.251C1005.8 302.046 1005.98 301.934 1006.14 301.803C1006.47 301.561 1006.86 301.328 1007.17 301.063C1007.52 300.757 1007.92 300.414 1007.55 299.892C1007.23 299.412 1006.78 299.565 1006.36 299.741C1005.68 300.011 1005.03 300.336 1004.34 300.587C1004.11 300.67 1003.71 300.735 1003.55 300.604C1002.91 300.108 1002.35 299.562 1001.69 298.945ZM990.257 284.004C990.287 283.944 990.304 283.865 990.334 283.806C991.743 284.364 993.155 284.906 994.58 285.468C994.586 285.519 994.592 285.569 994.597 285.62C994.325 285.645 994.056 285.737 993.798 285.7C993.492 285.652 993.191 285.507 992.886 285.377C991.953 285.001 991.003 284.703 990.257 284.004ZM992.112 282.597C992.085 282.492 992.071 282.407 992.044 282.302C992.282 282.204 992.526 282.074 992.773 282.01C992.949 281.965 993.221 281.939 993.3 282.038C993.566 282.341 993.755 282.693 993.964 283.033C994.014 283.11 994.008 283.289 993.943 283.358C993.894 283.43 993.705 283.457 993.632 283.409C993.106 283.15 992.603 282.864 992.112 282.597Z" fill="#E8E8E8"/>
<path d="M1002.38 258.896C1001.74 259.126 1001.27 259.307 1000.77 259.466C1000.18 259.656 999.864 260.035 999.813 260.651C999.753 261.232 1000.08 261.581 1000.57 261.75C1001.97 262.224 1003.39 262.669 1004.79 263.111C1005.44 263.314 1006.12 263.521 1006.79 263.645C1007.09 263.708 1007.49 263.643 1007.77 263.504C1008.24 263.256 1008.28 262.687 1007.82 262.426C1007.05 261.985 1006.24 261.65 1005.42 261.297C1005.03 261.115 1004.61 260.978 1004.02 260.757C1004.34 260.577 1004.5 260.446 1004.69 260.369C1005.2 260.147 1005.75 259.947 1006.25 259.706C1006.71 259.489 1006.94 259.074 1006.91 258.574C1006.89 258.075 1006.61 257.752 1006.14 257.605C1004.19 256.983 1002.25 256.361 1000.28 255.784C999.134 255.446 997.958 255.183 996.799 254.924C996.592 254.881 996.221 254.902 996.162 255.021C996.053 255.213 996.041 255.573 996.153 255.745C996.397 256.077 996.709 256.406 997.074 256.565C998.699 257.284 1000.35 257.944 1001.99 258.616C1002.08 258.668 1002.14 258.748 1002.38 258.896Z" fill="#E8E8E8"/>
<path d="M985.177 276.441C985.757 276.15 986.349 275.878 986.891 275.53C987.879 274.896 987.837 273.947 986.761 273.458C985.987 273.115 985.139 272.954 984.358 272.642C983.008 272.112 981.675 271.503 980.329 270.958C980.052 270.851 979.753 270.772 979.447 270.724C978.839 270.613 978.388 270.848 978.214 271.34C978.043 271.815 978.223 272.364 978.753 272.607C979.324 272.891 979.97 273.059 980.567 273.3C981.577 273.709 982.583 274.134 983.586 274.574C983.678 274.61 983.725 274.702 983.895 274.837C983.611 274.992 983.382 275.125 983.138 275.256C982.835 275.423 982.494 275.533 982.248 275.745C981.639 276.245 981.61 277.063 982.242 277.525C982.789 277.92 983.404 278.23 984.026 278.508C985.559 279.192 987.099 279.844 988.658 280.483C988.994 280.62 989.412 280.691 989.786 280.654C990.023 280.637 990.356 280.41 990.416 280.208C990.493 280.01 990.358 279.636 990.195 279.469C989.921 279.198 989.547 279.004 989.185 278.829C988.136 278.297 987.08 277.795 986.027 277.278C985.773 277.143 985.527 276.976 985.276 276.824C985.224 276.682 985.201 276.561 985.177 276.441Z" fill="#E8E8E8"/>
<path d="M602.314 86.8954C601.35 87.5966 600.462 88.6204 599.726 89.5394C599.307 90.063 598.264 91.1145 598.264 91.1145C598.264 91.1145 597.223 92.3556 596.464 93.0585C595.84 93.636 595.397 93.853 594.776 94.4336C593.879 95.2723 593.463 95.8336 592.701 96.7963C592.145 97.4987 591.923 97.9625 591.344 98.6465C590.726 99.3779 590.305 99.7218 589.625 100.397C588.998 101.019 588.636 101.358 588 101.972C587.681 102.28 587.482 102.519 587.181 102.759C586.958 102.938 586.636 103.146 586.45 103.378C586.05 103.878 583.959 102.518 583.581 102.141C582.818 101.378 581.939 100.796 581.162 100.059C580.756 99.6742 580.268 99.3899 579.868 98.9903C579.606 98.7284 579.301 98.5114 579.024 98.2652C578.711 97.9864 578.573 97.6854 578.237 97.3589C577.71 96.8472 577.204 96.6057 576.724 96.24C576.224 95.8586 575.921 95.3928 575.374 94.8836C574.46 94.0327 573.727 93.3317 572.899 92.8585C572.505 92.6336 571.863 91.6208 571.486 91.6208" stroke="#E8E8E8" stroke-width="1.5" stroke-linecap="round" stroke-linejoin="round"/>
<path d="M601.977 87.0069C600.815 87.0069 599.818 87.6819 598.664 87.6819C597.556 87.6819 596.448 87.6819 595.339 87.6819C594.198 87.6819 593.14 87.8409 592.02 88.0132C591.494 88.0941 590.962 88.0373 590.439 88.157C589.765 88.3111 589.232 88.4695 588.526 88.4695C586.813 88.4695 585.066 88.7103 583.413 89.1696C582.49 89.4259 581.52 89.508 580.6 89.7634C579.862 89.9685 579.072 89.8921 578.325 90.1322C577.109 90.5231 575.698 90.4102 574.525 90.8572C574.075 91.0286 573.43 90.9949 572.95 91.0635C572.545 91.1213 572.251 91.2823 571.824 91.2823" stroke="#E8E8E8" stroke-width="1.5" stroke-linecap="round" stroke-linejoin="round"/>
<path d="M602.201 86.7823C601.078 86.7823 599.915 86.6698 598.826 86.6698C597.292 86.6698 595.797 86.3323 594.263 86.3323C590.752 86.3323 587.235 86.2198 583.706 86.2198C581.066 86.2198 578.426 86.2198 575.786 86.2198C572.904 86.2198 570.09 86.4448 567.211 86.4448" stroke="#E8E8E8" stroke-width="1.5" stroke-linecap="round" stroke-linejoin="round"/>
<path d="M601.865 86.7826C599.452 86.7826 597.402 86.0921 595.17 85.27C594.472 85.0128 593.332 84.8699 592.576 84.8699C591.724 84.8699 590.883 84.4199 590.026 84.4199C587.876 84.4199 585.783 83.9698 583.638 83.9698C582.082 83.9698 580.562 83.4616 579.025 83.1823C576.417 82.708 573.743 82.0876 571.099 81.9446C570.379 81.9057 569.833 81.6388 569.012 81.4946C568.332 81.3752 567.262 81.2446 567.262 81.2446C567.262 81.2446 566.343 81.0738 565.949 81.0446L562.317 80.4257C561.903 80.3334 561.568 80.3598 561.248 80.232C560.635 79.9867 559.906 80.0905 559.286 79.9132C558.748 79.7594 558.178 79.5336 557.648 79.3569" stroke="#E8E8E8" stroke-width="1.5" stroke-linecap="round" stroke-linejoin="round"/>
<path d="M566.874 86.5575C565.996 86.2149 564.28 84.5823 564.28 84.5823C564.28 84.5823 563.345 83.8159 562.936 83.4072C562.663 83.1334 562.216 82.769 561.88 82.6196C561.474 82.4389 560.742 81.9383 560.742 81.9383C560.742 81.9383 559.878 81.4685 559.761 81.2695C559.4 80.6552 558.279 79.9046 557.648 79.6943" stroke="#E8E8E8" stroke-width="1.5" stroke-linecap="round" stroke-linejoin="round"/>
<path d="M566.761 103.546C567.905 103.158 568.894 102.448 569.968 101.971C570.858 101.576 571.81 100.843 572.781 100.627C573.226 100.528 573.622 100.046 574.137 99.9523C574.652 99.8586 575.178 99.5682 575.65 99.3585C576.167 99.1287 576.84 99.061 577.281 98.7084C577.553 98.491 578.318 98.3225 578.462 98.0334" stroke="#E8E8E8" stroke-width="1.5" stroke-linecap="round" stroke-linejoin="round"/>
<path d="M566.648 103.546C566.936 102.071 566.761 100.438 566.761 98.9335C566.761 97.5314 566.873 96.1385 566.873 94.7206C566.873 92.1988 567.211 89.725 567.211 87.2324" stroke="#E8E8E8" stroke-width="1.5" stroke-linecap="round" stroke-linejoin="round"/>
<path d="M571.487 91.6201C571.042 92.5107 570.483 93.4048 570.049 94.3204C569.567 95.3388 569.318 96.4709 568.874 97.4707C568.696 97.8723 568.593 98.276 568.424 98.7958C568.251 99.3305 567.999 100.171 567.999 100.171L567.321 103.12" stroke="#E8E8E8" stroke-width="1.5" stroke-linecap="round" stroke-linejoin="round"/>
<path d="M576.615 98.6718C576.093 98.4774 576.012 98.022 575.612 97.7111C575.465 97.5963 575.228 97.4126 575.145 97.2456" stroke="#E8E8E8" stroke-width="1.5" stroke-linecap="round" stroke-linejoin="round"/>
<path d="M574.566 99.3802C574.383 98.9428 573.97 98.6148 573.683 98.24C573.571 98.0935 573.478 97.9396 573.347 97.8084C573.274 97.7348 573.134 97.6668 573.083 97.5751C572.924 97.2845 572.706 97.0348 572.564 96.751" stroke="#E8E8E8" stroke-width="1.5" stroke-linecap="round" stroke-linejoin="round"/>
<path d="M572.76 100.008C572.617 99.619 572.172 99.299 571.914 98.9678C571.852 98.887 571.609 98.5041 571.583 98.5558" stroke="#E8E8E8" stroke-width="1.5" stroke-linecap="round" stroke-linejoin="round"/>
<path d="M571.112 100.873C571.061 100.768 570.601 99.8913 570.484 100.008" stroke="#E8E8E8" stroke-width="1.5" stroke-linecap="round" stroke-linejoin="round"/>
<path d="M569.582 101.775C569.453 101.605 569.345 101.439 569.229 101.264" stroke="#E8E8E8" stroke-width="1.5" stroke-linecap="round" stroke-linejoin="round"/>
<path d="M140.955 316.479C140.443 315.699 139.763 315.11 138.938 314.632C137.748 313.933 136.613 313.155 135.469 312.396C135.364 312.321 135.289 312.058 135.339 311.932C135.824 310.728 136.325 309.54 136.869 308.358C136.968 308.14 137.282 307.895 137.512 307.885C139.296 307.756 141.071 307.646 142.861 307.586C143.873 307.547 144.191 307.403 144.583 306.486C144.959 305.606 144.324 304.6 143.372 304.63C140.801 304.719 138.242 304.835 135.669 304.621C133.742 304.46 131.789 304.589 129.845 304.611C129.661 304.617 129.398 304.682 129.31 304.815C129.08 305.16 129.348 306.491 129.673 306.808C130.329 307.455 131.034 308.009 132.073 307.79C132.258 307.751 132.456 307.795 132.649 307.792C133.853 307.838 133.853 307.838 133.582 308.96C133.555 309.083 133.532 309.197 133.496 309.316C133.013 310.879 132.592 311.027 131.128 310.221C130.185 309.696 129.248 309.129 128.246 308.749C126.375 308.03 124.443 307.431 122.54 306.788C121.834 306.546 121.779 306.458 122.051 305.783C122.567 304.501 123.087 303.21 123.603 301.928L123.593 301.924C124.125 300.603 124.672 299.3 125.175 297.968C125.27 297.704 125.313 297.286 125.164 297.094C124.745 296.562 124.284 295.992 123.703 295.665C122.912 295.211 121.99 294.973 121.125 294.647C120.73 294.503 120.544 294.263 120.562 293.824C120.601 293.081 120.583 292.338 120.628 291.608C120.674 290.99 120.683 290.347 120.869 289.773C121.319 288.431 121.831 287.103 122.382 285.79C123.401 283.4 125.038 281.585 127.573 280.657C128.236 280.414 128.416 280.473 128.612 281.14C129.471 284.008 130.372 286.858 131.144 289.748C131.635 291.591 131.93 293.501 132.316 295.381C132.538 296.46 133.159 297.194 134.173 297.289C135.068 297.371 135.455 297.789 135.558 298.599C135.572 298.705 135.614 298.8 135.641 298.9C136.047 300.028 136.898 300.472 138.077 300.186C138.604 300.057 139.145 299.978 139.663 299.846C140.102 299.738 140.551 299.635 140.959 299.437C142.125 298.844 142.382 298.208 142.019 296.973C141.971 296.81 141.928 296.637 141.867 296.479C141.64 295.777 141.447 295.077 141.916 294.39C141.978 294.292 142.009 294.159 142.009 294.047C141.961 293.013 142.007 291.972 141.838 290.958C141.159 287.078 140.406 283.215 139.69 279.344C139.571 278.684 139.643 278.589 140.293 278.352C140.412 278.309 140.527 278.276 140.636 278.23C141.571 277.903 141.941 277.434 141.81 276.468C141.658 275.383 141.454 274.288 141.14 273.24C140.728 271.818 140.186 271.562 138.71 271.856C136.836 272.239 135.575 271.546 134.942 269.804C134.884 269.636 134.837 269.473 134.749 269.327C134.578 269.048 134.434 268.702 134.18 268.547C133.681 268.241 133.332 267.87 133.096 267.332C132.846 266.688 132.379 266.527 131.747 266.749C131.233 266.928 130.732 267.133 130.218 267.312C129.746 267.473 129.559 267.768 129.533 268.283C129.513 268.643 129.342 269.067 129.085 269.312C128.715 269.669 128.563 270.045 128.656 270.517C128.763 271.038 128.866 271.569 129.024 272.077C129.174 272.548 129.071 272.831 128.607 273.085C128.246 273.279 127.897 273.611 127.717 273.975C127.526 274.336 127.333 274.506 126.944 274.544C124.575 274.779 122.368 275.567 120.192 276.446C119.53 276.712 118.83 277.13 118.409 277.669C117.467 278.885 116.562 280.149 115.865 281.516C114.701 283.76 114.135 286.205 113.931 288.736C113.721 291.309 113.582 293.875 114.274 296.399C114.507 297.226 114.376 297.945 113.988 298.685C113.461 299.684 112.915 300.675 112.515 301.724C112.199 302.538 111.779 303.188 111.024 303.629C110.369 304.02 109.766 304.532 109.073 304.819C108.48 305.056 108.073 305.365 107.867 305.932C107.714 306.341 107.528 306.747 107.484 307.165C107.444 307.574 107.428 308.147 107.671 308.387C108.374 309.086 109.208 309.657 110.007 310.259C110.077 310.309 110.204 310.303 110.304 310.308C110.509 310.332 110.716 310.324 110.919 310.381C112.073 310.664 113.211 311.042 114.386 311.244C115.686 311.473 116.954 311.779 118.175 312.289C122.854 314.273 127.742 315.792 132.27 318.151C134.422 319.271 136.843 319.525 139.218 319.895C139.75 319.979 140.23 319.799 140.608 319.422C141.293 318.731 141.485 317.3 140.955 316.479ZM139.881 296.718C139.95 296.968 139.986 297.217 140.053 297.555C139.614 297.718 139.198 297.879 138.78 298.017C138.468 298.119 138.249 297.988 138.084 297.723C137.623 296.985 137.664 296.856 138.466 296.523C138.63 296.453 138.805 296.41 138.948 296.309C139.46 295.907 139.713 296.095 139.881 296.718ZM138.893 274.325C139.853 273.908 139.966 273.964 140.026 274.968C140.056 275.426 140.073 275.89 140.094 276.456C139.817 276.582 139.577 276.756 139.316 276.788C139.208 276.802 139.014 276.525 138.941 276.341C138.792 275.925 138.714 275.471 138.568 275.046C138.433 274.681 138.524 274.482 138.893 274.325ZM137.2 276.843C138.036 280.951 138.844 285.07 139.69 289.182C139.926 290.367 140.249 291.531 140.508 292.714C140.542 292.883 140.461 293.197 140.334 293.259C138.92 293.934 137.483 294.577 136.047 295.221C135.897 295.285 135.713 295.291 135.495 295.329C135.4 295.169 135.285 295.035 135.243 294.885C134.614 292.765 133.999 290.64 133.37 288.52C133.143 287.762 132.791 287.034 132.625 286.266C132.057 283.601 131.661 280.903 130.802 278.315C130.678 277.921 130.804 277.747 131.181 277.626C132.762 277.128 134.335 276.594 135.926 276.1C136.785 275.822 137.024 275.96 137.2 276.843ZM135.543 273.229C135.734 273.203 136.024 273.271 136.139 273.406C136.282 273.584 136.293 273.867 136.366 274.164C136.14 274.276 135.98 274.392 135.812 274.416C133.984 274.739 132.164 275.043 130.33 275.353C130.051 275.4 129.766 275.434 129.644 275.063C129.528 274.705 129.695 274.458 130.003 274.367C130.78 274.124 131.571 273.875 132.373 273.709C133.418 273.503 134.482 273.361 135.543 273.229ZM130.817 270.323C131.549 270.107 132.303 269.978 133.058 269.815C133.123 269.796 133.191 269.823 133.334 269.834C133.408 269.986 133.532 270.157 133.581 270.343C133.919 271.724 134.104 271.574 132.651 271.809C132.204 271.88 131.751 271.937 131.31 272.022C130.915 272.102 130.708 271.943 130.625 271.587C130.571 271.354 130.456 271.108 130.488 270.886C130.513 270.684 130.651 270.37 130.817 270.323ZM137.441 317.505C136.428 316.987 135.444 316.424 134.444 315.899C131.227 314.219 127.859 312.915 124.46 311.632C122.79 311.002 121.11 310.424 119.343 310.091C119.007 310.026 118.717 309.79 118.387 309.684C117.651 309.43 116.924 309.101 116.161 308.971C114.535 308.681 112.913 308.382 111.447 307.609C111.13 307.441 110.887 307.145 110.601 306.899C110.866 306.635 111.076 306.282 111.392 306.115C111.798 305.895 112.278 305.714 112.718 305.718C113.28 305.726 113.518 305.473 113.689 305.049C114.496 303.1 115.303 301.151 116.111 299.202C116.122 299.173 116.128 299.131 116.15 299.106C117.329 296.878 117.12 294.532 116.9 292.126C116.455 287.301 117.709 282.95 121.214 279.389C122.601 277.967 124.283 277.051 126.239 276.633C126.587 276.557 126.771 276.662 126.896 276.968C127.034 277.301 127.168 277.643 127.329 277.974C127.5 278.308 127.371 278.459 127.044 278.598C126.245 278.922 125.445 279.223 124.692 279.632C122.646 280.751 121.148 282.363 120.259 284.515C119.687 285.909 119.104 287.299 118.561 288.704C117.96 290.254 118.052 291.851 118.348 293.45C118.435 293.908 118.559 294.358 118.67 294.814C118.806 295.347 119.11 295.745 119.609 295.995C120.483 296.437 121.354 296.889 122.215 297.336C122.814 297.648 122.878 297.741 122.614 298.34C122.096 299.543 121.466 300.714 121.016 301.944C120.487 303.399 120.065 304.896 119.647 306.384C119.496 306.927 119.676 307.41 120.194 307.724C120.952 308.176 121.682 308.695 122.488 309.055C123.81 309.649 125.189 310.132 126.538 310.659C126.53 310.678 126.527 310.688 126.519 310.707C128.357 311.425 130.237 312.07 132.023 312.89C133.055 313.361 133.958 314.126 134.933 314.741C135.847 315.31 136.782 315.853 137.696 316.422C137.851 316.516 138.035 316.677 138.076 316.827C138.13 317.06 138.111 317.332 138.025 317.544C138.016 317.596 137.613 317.584 137.441 317.505Z" fill="#E8E8E8"/>
<path d="M120.897 298.519C120.28 297.831 119.498 297.693 118.506 298.076C117.757 298.363 117.297 298.886 117.03 299.607C116.931 299.937 116.799 300.264 116.743 300.6C116.597 301.413 117.065 302.499 117.619 302.726C118.53 303.105 119.828 302.719 120.385 301.899C120.607 301.573 120.823 301.234 121.019 300.886C121.499 300.059 121.452 299.137 120.897 298.519ZM119.149 300.948C118.787 300.472 118.854 300.275 119.426 300.063C119.648 300.44 119.457 300.689 119.149 300.948Z" fill="#E8E8E8"/>
<path d="M133.185 285.549C133.214 286.096 133.559 286.42 134.065 286.596C134.951 286.897 135.687 286.56 136.35 286.038C138.21 284.567 137.288 281.965 135.905 281.38C135.51 281.348 135.06 281.173 134.733 281.312C133.899 281.667 133.17 282.241 133.12 283.237C133.069 284.009 133.142 284.785 133.185 285.549ZM135.345 283.136C135.447 283.052 135.72 283.048 135.836 283.126C136.27 283.396 136.424 284.026 136.24 284.511C136.044 285.026 135.648 285.083 135.295 284.666C134.958 284.267 134.959 283.476 135.345 283.136Z" fill="#E8E8E8"/>
<path d="M21.0941 -8.7917C24.0366 -9.34053 27.0012 -9.80604 29.9128 -10.4715C32.0561 -10.9557 34.133 -11.6899 36.2409 -12.3074C36.2908 -12.3203 36.3528 -12.3542 36.3982 -12.3838C39.186 -13.5159 40.6657 -12.9554 42.0692 -10.2734C42.2108 -10.0073 42.4077 -9.66652 42.3577 -9.38641C42.1158 -8.02351 41.937 -6.62353 41.4814 -5.32994C41.3019 -4.80251 40.5677 -4.29166 39.9622 -4.0991C39.0001 -3.77853 37.9628 -3.74127 36.94 -3.58305C35.3768 -3.32044 33.7883 -3.08687 32.2218 -2.76997C31.1623 -2.54884 30.1338 -2.21105 29.071 -1.93563C28.357 -1.75057 28.0302 -1.30967 28.083 -0.575295C28.2909 2.41652 28.3947 5.41749 28.7399 8.39154C29.3696 13.6429 30.5894 18.777 32.1081 23.8336C33.1006 27.1742 34.6556 30.2265 36.9835 32.847C37.6196 33.5727 38.3588 34.2183 39.1345 34.801C40.0618 35.4868 40.8522 35.3888 41.6651 34.5726C43.1059 33.1127 44.0298 31.3772 44.3573 29.3331C44.4406 28.7772 44.4984 28.1922 44.6359 27.6401C44.9386 26.4395 45.861 25.7018 47.1064 25.6462C48.2643 25.5955 49.3123 26.2679 49.5973 27.4764C49.8636 28.5473 50.0978 29.6978 49.9932 30.7757C49.5685 34.9289 47.631 38.263 44.1608 40.5694C41.8543 42.1111 39.3693 42.0426 36.9157 40.7549C34.958 39.7305 33.2905 38.3281 31.9385 36.5768C29.3664 33.2359 27.3943 29.6148 26.2483 25.4947C25.4415 22.5868 24.2151 19.7699 22.9356 17.0202C20.9495 12.7437 19.5279 8.32094 18.9942 3.63246C18.9215 2.95668 18.7236 2.2777 18.6011 1.61484C18.5183 1.10196 18.2239 0.928895 17.7423 1.0537C14.8938 1.75628 12.0199 2.42982 9.17582 3.14907C8.3123 3.37285 8.22581 3.71586 8.57191 4.55235C11.1494 10.7238 13.4701 16.9974 14.8033 23.5626C15.614 27.5559 15.4041 31.5822 15.2861 35.6203C15.1256 40.4352 14.0454 45.061 12.8943 49.6874C12.7723 50.1643 12.4622 50.6009 12.1853 51.0289C11.8308 51.566 11.3756 52.058 11.0466 52.6242C10.2379 53.9915 9.12723 54.9561 7.47354 54.7435C5.65714 54.5196 4.6094 53.3128 4.21169 51.5457C4.04157 50.7705 3.79618 49.9792 3.76332 49.1862C3.74922 48.5308 3.80382 47.733 4.16713 47.2292C7.94639 41.9395 8.9553 35.9073 9.01348 29.5693C9.07261 23.5694 7.53206 17.8951 5.58412 12.2908C4.91307 10.363 4.24643 8.45183 3.60859 6.51543C3.25926 5.46605 2.94052 5.33493 2.10006 5.9802C0.917437 6.87444 -0.223128 7.79341 -1.40133 8.70432C-1.60729 8.86457 -1.79999 9.07481 -2.03248 9.13506C-3.22812 9.44491 -3.83179 10.3138 -4.12784 11.4057C-4.45602 12.5773 -4.72554 13.7692 -4.88216 14.9853C-5.07319 16.4063 -5.5961 17.3789 -6.43633 17.4898C-7.21347 17.6378 -8.54029 16.717 -8.86524 15.6257C-9.13381 14.6801 -9.30381 13.6377 -9.18052 12.6974C-8.83729 10.0436 -7.75252 7.64299 -6.17195 5.5057C-3.99105 2.55384 -1.37529 -0.0298304 2.02144 -1.40882C7.73765 -3.74513 13.2283 -6.66418 19.274 -8.15971C19.8884 -8.31894 20.4863 -8.47387 21.1007 -8.6331C21.104 -8.6874 21.1074 -8.7417 21.0941 -8.7917Z" fill="#E8E8E8"/>
<path d="M834.906 -30.0026C831.963 -30.5515 828.999 -31.017 826.087 -31.6825C823.944 -32.1667 821.867 -32.9008 819.759 -33.5183C819.709 -33.5313 819.647 -33.5651 819.602 -33.5947C816.814 -34.7268 815.334 -34.1663 813.931 -31.4844C813.789 -31.2183 813.592 -30.8775 813.642 -30.5974C813.884 -29.2344 814.063 -27.8345 814.519 -26.5409C814.698 -26.0135 815.432 -25.5026 816.038 -25.31C817 -24.9895 818.037 -24.9522 819.06 -24.794C820.623 -24.5314 822.212 -24.2978 823.778 -23.9809C824.838 -23.7598 825.866 -23.422 826.929 -23.1466C827.643 -22.9615 827.97 -22.5206 827.917 -21.7862C827.709 -18.7944 827.605 -15.7934 827.26 -12.8194C826.63 -7.56804 825.411 -2.43397 823.892 2.62263C822.899 5.96323 821.344 9.01559 819.017 11.6361C818.38 12.3618 817.641 13.0074 816.866 13.59C815.938 14.2759 815.148 14.1779 814.335 13.3617C812.894 11.9018 811.97 10.1662 811.643 8.12216C811.559 7.56625 811.502 6.98131 811.364 6.42915C811.061 5.22861 810.139 4.49085 808.894 4.43528C807.736 4.38456 806.688 5.05696 806.403 6.26548C806.136 7.33637 805.902 8.48684 806.007 9.56478C806.431 13.718 808.369 17.052 811.839 19.3584C814.146 20.9001 816.631 20.8317 819.084 19.544C821.042 18.5196 822.71 17.1172 824.061 15.3658C826.634 12.0249 828.606 8.40384 829.752 4.28371C830.559 1.37586 831.785 -1.44107 833.064 -4.19078C835.051 -8.46723 836.472 -12.89 837.006 -17.5785C837.079 -18.2543 837.276 -18.9332 837.399 -19.5961C837.482 -20.109 837.776 -20.282 838.258 -20.1572C841.106 -19.4547 843.98 -18.7811 846.824 -18.0619C847.688 -17.8381 847.774 -17.4951 847.428 -16.6586C844.851 -10.4871 842.53 -4.21349 841.197 2.3517C840.386 6.345 840.596 10.3713 840.714 14.4093C840.874 19.2243 841.955 23.8501 843.106 28.4765C843.228 28.9534 843.538 29.39 843.815 29.818C844.169 30.3551 844.624 30.8471 844.953 31.4133C845.762 32.7805 846.873 33.7452 848.526 33.5326C850.343 33.3087 851.391 32.1019 851.788 30.3348C851.958 29.5596 852.204 28.7682 852.237 27.9753C852.251 27.3199 852.196 26.5221 851.833 26.0183C848.054 20.7286 847.045 14.6963 846.987 8.35834C846.927 2.35851 848.468 -3.31581 850.416 -8.92018C851.087 -10.848 851.754 -12.7591 852.391 -14.6955C852.741 -15.7449 853.059 -15.876 853.9 -15.2307C855.083 -14.3365 856.223 -13.4175 857.401 -12.5066C857.607 -12.3464 857.8 -12.1361 858.032 -12.0759C859.228 -11.766 859.832 -10.8971 860.128 -9.80519C860.456 -8.63367 860.726 -7.44173 860.882 -6.22561C861.073 -4.80465 861.596 -3.83202 862.436 -3.72114C863.213 -3.57317 864.54 -4.4939 864.865 -5.58522C865.134 -6.53085 865.304 -7.57326 865.181 -8.51358C864.837 -11.1673 863.753 -13.568 862.172 -15.7052C859.991 -18.6571 857.375 -21.2408 853.979 -22.6198C848.262 -24.9561 842.772 -27.8751 836.726 -29.3706C836.112 -29.5299 835.514 -29.6848 834.899 -29.844C834.896 -29.8983 834.893 -29.9526 834.906 -30.0026Z" fill="#E8E8E8"/>
<path d="M1358.4 82.3568C1356.45 81.5347 1354.44 80.7905 1352.54 79.8698C1347.7 77.5163 1342.89 75.0908 1338.07 72.6858C1337.01 72.1546 1335.96 71.6175 1334.9 71.076C1334.26 70.7447 1333.61 70.5088 1332.85 70.6755C1332.32 70.7931 1331.99 70.4623 1331.69 70.055C1331.27 69.4896 1330.84 68.9301 1330.32 68.4662C1329.48 67.7112 1328.97 66.801 1328.7 65.7256C1328.19 63.5939 1328.49 61.4877 1329.17 59.4537C1330.49 55.4724 1332.33 51.7303 1335.01 48.4423C1335.81 47.4621 1336.8 46.6208 1337.74 45.7473C1338.2 45.3084 1338.82 45.1509 1339.43 45.2489C1340.44 45.4176 1341.47 45.5951 1342.45 45.921C1347.25 47.476 1351.73 49.7014 1356.24 51.9149C1359.4 53.4602 1362.68 54.732 1365.92 56.092C1366.91 56.5074 1367.96 56.7538 1368.95 57.1693C1371.51 58.27 1374.06 59.4265 1376.62 60.5419C1377.52 60.9327 1377.83 61.7099 1377.9 62.5671C1378.03 64.3065 1378.12 66.0636 1377.28 67.712C1377.12 68.0325 1377.23 68.1907 1377.54 68.297C1377.97 68.441 1378.4 68.5851 1378.82 68.76C1379.56 69.0705 1379.96 69.6169 1379.98 70.442C1380.01 72.0422 1380.16 73.6303 1379.73 75.2187C1379.24 77.026 1378.37 78.5761 1376.84 79.7259C1376.12 80.2757 1375.38 80.8065 1374.6 81.2742C1374.22 81.5132 1373.73 81.638 1373.28 81.7407C1373.09 81.7824 1372.82 81.7083 1372.64 81.609C1371.96 81.2249 1371.3 80.7894 1370.61 80.4259C1370.47 80.3544 1370.16 80.4288 1370.02 80.5423C1368.91 81.5014 1367.8 82.4752 1366.71 83.4578C1366.54 83.6183 1366.42 83.8463 1366.33 84.0667C1365.97 85.0001 1365.26 85.3238 1364.29 84.9274C1362.31 84.1068 1360.33 83.2656 1358.36 82.4348C1358.38 82.4186 1358.39 82.3877 1358.4 82.3568ZM1359.44 80.0853C1359.46 80.0545 1359.47 80.0236 1359.48 80.003C1360.88 80.5934 1362.29 81.1734 1363.69 81.7741C1364.23 82.0118 1364.65 81.921 1365.06 81.4954C1365.86 80.6502 1366.7 79.8432 1367.53 79.0214C1369.35 77.2233 1371 75.3053 1372.16 73.0261C1373.72 69.9367 1374.55 66.7116 1374.45 63.2632C1374.43 62.7332 1374.24 62.4196 1373.73 62.195C1372.47 61.6409 1371.26 61.0192 1370.01 60.4445C1369.44 60.1834 1368.87 59.9532 1368.28 59.7435C1367.56 59.477 1366.81 59.2826 1366.09 58.9955C1364.05 58.159 1362.01 57.2769 1359.96 56.4301C1359.43 56.207 1359.29 56.2955 1359.25 56.8741C1359.17 57.8801 1359.14 58.8785 1359.06 59.8801C1358.76 63.6336 1357.56 67.1065 1355.4 70.2373C1354.13 72.0823 1352.5 73.6434 1350.84 75.1519C1350.35 75.5923 1350.38 75.8257 1350.96 76.0912C1353.81 77.4244 1356.63 78.7549 1359.44 80.0853ZM1332.87 56.7895C1332.62 57.4759 1332.25 58.3241 1331.98 59.197C1331.45 60.8518 1330.98 62.5328 1331.18 64.2882C1331.24 64.8649 1331.45 65.4384 1331.68 65.975C1331.88 66.4384 1332.29 66.4885 1332.71 66.1628C1333.02 65.9181 1333.31 65.6603 1333.6 65.3922C1334.3 64.7485 1335.06 64.1766 1335.44 63.2373C1336.86 59.771 1338.07 56.2423 1338.7 52.5435C1338.94 51.1671 1339.03 49.7794 1339.15 48.3902C1339.17 48.1787 1338.96 47.9562 1338.86 47.7421C1338.65 47.8396 1338.41 47.8947 1338.25 48.0493C1337.96 48.3174 1337.73 48.6323 1337.47 48.9385C1335.51 51.2509 1334.28 53.9649 1332.87 56.7895ZM1346.24 60.5061C1346.23 60.5164 1346.23 60.5164 1346.23 60.5267C1345.78 60.3386 1345.33 60.1506 1344.88 59.9582C1344.82 59.9363 1344.77 59.9145 1344.72 59.8926C1344.14 59.6727 1343.53 59.8052 1343.22 60.3097C1342.96 60.7157 1342.73 61.1803 1342.67 61.6401C1342.62 61.9735 1342.75 62.4913 1342.99 62.6917C1343.59 63.1759 1344.27 63.5952 1344.97 63.9132C1346.23 64.4922 1347.52 64.9992 1348.81 65.4916C1349.46 65.7377 1350.12 65.9574 1350.8 66.0816C1351.04 66.122 1351.46 65.9563 1351.6 65.7474C1352.13 65.0088 1352.19 64.1189 1352.01 63.2841C1351.86 62.637 1351.11 62.5674 1350.58 62.3194C1350.38 62.2216 1350.16 62.165 1349.95 62.0776C1348.72 61.5513 1347.48 61.0265 1346.24 60.5061ZM1372.92 78.7129C1373.37 79.061 1373.83 78.8732 1374.28 78.4402C1374.73 78.0072 1375.26 77.6444 1375.64 77.1705C1376.11 76.5759 1376.66 75.9415 1376.85 75.2538C1377.18 74.0019 1377.28 72.6993 1377.45 71.4068C1377.53 70.8311 1377.12 70.6312 1376.66 70.499C1376.16 70.3639 1376.1 70.7532 1375.97 71.0516C1375.89 71.2266 1375.8 71.3971 1375.76 71.5749C1375.18 73.8289 1373.89 75.7149 1372.55 77.5792C1372.06 78.2399 1372.07 78.3294 1372.92 78.7129ZM1348.89 59.8389C1348.93 59.8916 1348.96 59.9444 1349 59.9971C1349.25 59.8921 1349.49 59.8121 1349.71 59.6734C1350.93 58.9386 1352.12 58.1701 1353.35 57.469C1353.74 57.2549 1354.25 57.1638 1354.71 57.161C1355.34 57.1576 1355.62 57.6662 1355.31 58.2059C1355.11 58.5383 1354.84 58.8504 1354.53 59.0745C1353.75 59.6627 1352.91 60.1996 1352.12 60.7834C1351.98 60.8925 1351.81 61.2277 1351.86 61.3098C1352.01 61.4914 1352.25 61.617 1352.48 61.6882C1352.6 61.7304 1352.8 61.6182 1352.95 61.559C1353.36 61.389 1353.74 61.1955 1354.14 61.0357C1355.03 60.6762 1355.08 60.6981 1355.75 61.4038C1355.8 61.4652 1355.89 61.4899 1356.05 61.5908C1356.13 61.2352 1356.21 60.9296 1356.25 60.627C1356.32 60.1071 1356.36 59.5887 1356.4 59.0703C1356.5 57.963 1356.61 56.8498 1356.67 55.7294C1356.72 54.8851 1356.41 54.679 1355.67 55.0791C1354.89 55.5072 1354.11 55.9354 1353.39 56.4353C1351.99 57.3865 1350.64 58.3801 1349.28 59.3591C1349.13 59.4784 1349.02 59.6755 1348.89 59.8389ZM1339.79 59.5023C1339.83 59.555 1339.87 59.6121 1339.91 59.6649C1340.25 59.4539 1340.6 59.2723 1340.91 59.0232C1342.65 57.6452 1344.38 56.2482 1346.13 54.8745C1347.27 53.974 1348.45 53.1263 1349.59 52.2302C1349.72 52.127 1349.87 51.8226 1349.82 51.7259C1349.58 51.3199 1348.69 51.2536 1348.29 51.5734C1345.9 53.4467 1343.52 55.364 1341.08 57.2051C1340.26 57.8213 1339.99 58.6134 1339.79 59.5023ZM1353.4 53.7558C1353.36 53.6429 1353.35 53.5034 1353.27 53.4229C1352.8 52.8811 1351.91 52.8148 1351.35 53.2849C1349.36 54.9279 1347.38 56.5812 1345.39 58.2242C1345.26 58.3273 1345.13 58.4408 1345.03 58.5718C1344.95 58.6718 1344.93 58.8231 1344.89 58.951C1345.02 58.9932 1345.19 59.113 1345.29 59.0716C1345.65 58.9296 1346.01 58.7523 1346.34 58.5473C1348.57 57.0445 1350.78 55.5329 1352.99 54.036C1353.11 53.9534 1353.24 53.8708 1353.4 53.7558ZM1354.17 66.9773C1351.76 68.5467 1349.48 70.0174 1347.2 71.488C1348.05 71.5618 1348.94 71.3022 1349.75 70.7918C1350.16 70.5365 1350.53 70.484 1350.98 70.697C1351.15 70.7817 1351.52 70.7541 1351.63 70.6275C1352.57 69.5338 1353.5 68.4401 1354.17 66.9773ZM1349.14 67.6297C1349.13 67.5651 1349.12 67.4859 1349.11 67.4213C1348.8 67.39 1348.48 67.269 1348.2 67.3316C1346.87 67.6278 1345.89 68.5439 1344.79 69.2667C1344.65 69.3552 1344.79 69.8275 1344.8 70.1226C1345.01 70.0794 1345.26 70.0845 1345.43 69.9885C1346.53 69.326 1347.62 68.6385 1348.7 67.957C1348.85 67.8625 1348.99 67.7388 1349.14 67.6297ZM1341.63 51.4335C1341.71 51.4641 1341.78 51.5094 1341.86 51.54C1342.57 50.9359 1343.29 50.3509 1343.99 49.7277C1344.07 49.6629 1343.98 49.2374 1343.88 49.1936C1343.31 48.9428 1342.73 48.7478 1342.13 48.5691C1342.03 48.54 1341.75 48.7273 1341.74 48.8331C1341.68 49.698 1341.67 50.5701 1341.63 51.4335ZM1355.91 62.0698C1355.49 62.3706 1355.2 62.6137 1354.87 62.8188C1354.28 63.1803 1353.82 63.5839 1354.04 64.3717C1354.08 64.4993 1354.05 64.6814 1353.98 64.8108C1353.65 65.4623 1354.07 65.7972 1354.5 66.1262C1355.02 65.649 1355.9 63.2018 1355.91 62.0698ZM1338.03 63.6699C1337.79 64.4458 1337.96 64.6611 1338.73 64.5589C1338.9 64.5438 1339.09 64.5021 1339.21 64.3945C1339.84 63.8303 1340.47 63.2661 1341.05 62.6551C1341.16 62.5431 1341.09 62.2071 1341.01 62.0165C1340.99 61.9579 1340.63 61.9442 1340.49 62.0181C1339.87 62.3415 1339.26 62.684 1338.67 63.0704C1338.42 63.2106 1338.24 63.4622 1338.03 63.6699ZM1340.75 68.006C1341.72 68.6828 1341.81 68.6723 1342.63 67.9915C1343 67.6732 1343.42 67.4077 1343.81 67.1231C1344.12 66.8991 1344.44 66.6896 1344.72 66.4568C1344.81 66.3817 1344.83 66.245 1344.88 66.1318C1344.75 66.0794 1344.63 65.977 1344.5 65.9847C1344.34 65.9896 1344.17 66.065 1344.02 66.1491C1343.07 66.6629 1342.12 67.1811 1341.18 67.6993C1341.04 67.7628 1340.93 67.8748 1340.75 68.006ZM1342.49 64.5799C1342.43 64.4685 1342.36 64.3527 1342.3 64.2413C1342.16 64.3651 1342.04 64.5225 1341.87 64.6126C1341.28 64.9344 1340.66 65.2226 1340.07 65.5488C1339.85 65.6669 1339.69 65.8671 1339.5 66.0189C1339.78 66.112 1340.07 66.2448 1340.36 66.2718C1340.52 66.2874 1340.71 66.1503 1340.86 66.0266C1341.31 65.6684 1341.76 65.2956 1342.2 64.9081C1342.31 64.8212 1342.39 64.6962 1342.49 64.5799ZM1341.17 54.0204C1341.22 54.1024 1341.27 54.1845 1341.32 54.2563C1341.61 54.0836 1341.9 53.9007 1342.18 53.7237C1342.13 53.6416 1342.08 53.5742 1342.03 53.4922C1341.75 53.6648 1341.46 53.8374 1341.17 54.0204Z" fill="#E8E8E8"/>
<path d="M1361.71 70.9057C1361.36 70.7325 1361 70.5695 1360.65 70.3756C1359.96 69.988 1359.73 69.3675 1360.01 68.7411C1360.27 68.1103 1360.89 67.8227 1361.66 68.0211C1362.5 68.2398 1363.32 68.4893 1364.14 68.7491C1364.53 68.8754 1364.77 68.8058 1364.98 68.4433C1365.36 67.7403 1365.79 67.0548 1366.2 66.365C1366.53 65.8307 1367.09 65.5668 1367.64 65.653C1368.2 65.7436 1368.63 66.1174 1368.53 66.6729C1368.42 67.3589 1368.22 68.0511 1367.91 68.6644C1367.25 69.944 1367.22 69.9456 1368.55 70.5144C1368.79 70.6148 1369.03 70.7195 1369.27 70.8301C1370.07 71.1911 1370.4 71.9505 1370.08 72.6942C1369.78 73.4174 1368.92 73.7892 1368.15 73.5117C1367.64 73.3331 1367.13 73.1193 1366.64 72.8893C1366.16 72.6782 1365.87 72.7964 1365.63 73.2454C1365.33 73.8236 1365 74.393 1364.64 74.9347C1364.15 75.679 1363.58 75.9283 1363 75.744C1362.48 75.5756 1362.19 75.219 1362.27 74.7045C1362.38 74.0332 1362.59 73.3806 1362.78 72.7295C1362.84 72.5359 1362.94 72.3452 1363.04 72.169C1363.28 71.7449 1363.14 71.4582 1362.72 71.2792C1362.39 71.1396 1362.06 71.0043 1361.73 70.8647C1361.72 70.8955 1361.71 70.9057 1361.71 70.9057Z" fill="#E8E8E8"/>
<path d="M468.693 353.164C468.762 352.877 469.018 352.625 469.235 352.379C469.519 352.054 469.825 351.747 470.152 351.47C473.005 348.957 475.871 346.446 478.737 343.936C480.271 342.595 481.82 341.244 483.386 339.936C484.195 339.254 485.074 338.677 485.862 337.965C486.196 337.65 486.486 337.157 486.558 336.714C486.816 335.171 486.972 333.609 487.179 332.056C487.241 331.598 487.053 331.288 486.633 331.104C486.451 331.031 486.283 330.96 486.101 330.886C484.629 330.281 483.867 329.093 484.091 327.518C484.273 326.3 484.836 325.271 486.36 325.403C486.86 325.446 487.383 325.506 487.868 325.624C489.19 325.926 490.503 326.279 491.813 326.579C492.935 326.844 494.053 327.055 495.17 327.345C496.201 327.606 497.22 327.929 498.244 328.227C498.246 328.215 498.248 328.202 498.251 328.189C498.804 328.294 499.349 328.371 499.895 328.514C500.453 328.658 501.007 328.828 501.54 329.034C502.21 329.278 502.687 329.708 502.718 330.496C502.787 331.971 501.809 333.195 500.35 333.401C499.801 333.48 499.234 333.516 498.679 333.555C498.35 333.571 498.141 333.714 498.088 334.056C497.791 335.67 497.466 337.291 497.182 338.908C497.04 339.716 497.026 340.535 497.318 341.321C497.943 343.083 498.558 344.831 499.566 346.431C500.262 347.554 500.826 348.757 501.392 349.947C502.368 351.984 503.284 354.063 504.273 356.103C505.188 357.985 505.684 359.945 505.833 362.021C505.94 363.633 505.445 364.988 504.44 366.22C503.689 367.147 502.748 367.635 501.571 367.595C499.256 367.509 496.975 367.312 494.77 366.451C493.232 365.846 491.591 365.51 489.996 365.064C487.224 364.305 484.465 363.547 481.688 362.813C479.928 362.349 478.16 361.923 476.385 361.535C475.586 361.358 474.756 361.201 473.936 361.202C472.075 361.189 470.559 360.471 469.265 359.209C468.607 358.562 467.881 357.798 467.947 356.845C468.039 355.623 468.406 354.388 468.693 353.164ZM497.933 348.901C497.31 347.804 496.684 346.72 496.019 345.642C495.91 345.464 495.645 345.349 495.424 345.281C495.082 345.164 494.945 344.995 494.939 344.615C494.939 344.211 494.833 343.812 494.78 343.411C494.772 343.318 494.766 343.213 494.796 343.127C495.055 342.524 494.781 342.119 494.344 341.75C494.119 341.564 493.892 341.39 493.712 341.173C493.406 340.802 493.474 340.515 493.886 340.267C493.959 340.228 494.031 340.19 494.091 340.149C494.339 340.013 494.707 339.992 494.697 339.572C494.674 339.15 494.52 338.795 494.145 338.581C493.933 338.462 493.717 338.369 493.52 338.24C493.159 338.016 493.056 337.67 493.222 337.284C493.385 336.91 493.695 336.786 494.092 336.888C494.203 336.922 494.301 336.953 494.414 336.975C494.699 337.054 494.962 337.039 495.09 336.711C495.216 336.396 495.144 336.16 494.839 335.985C494.473 335.785 494.108 335.586 493.758 335.376C493.407 335.166 493.124 334.878 493.339 334.436C493.537 334.016 493.919 334.062 494.303 334.161C494.552 334.222 494.799 334.294 495.05 334.342C495.327 334.394 495.471 334.252 495.487 333.968C495.51 333.372 495.142 332.846 494.559 332.762C494.027 332.687 493.492 332.69 492.954 332.64C492.711 332.62 492.449 332.558 492.22 332.462C491.991 332.367 491.774 332.208 491.565 332.077C490.74 331.556 490.631 331.105 491.18 330.282C491.292 330.108 491.59 329.981 491.813 329.971C492.152 329.97 492.511 330.065 492.846 330.154C493.331 330.272 493.787 330.476 494.269 330.541C495.855 330.763 497.383 331.352 499.015 331.4C499.597 331.419 499.998 331.299 500.451 330.772C500.164 330.639 499.944 330.493 499.698 330.42C499.25 330.31 498.793 330.249 498.343 330.151C496.425 329.762 494.509 329.36 492.591 328.971C492.466 328.947 492.342 328.91 492.219 328.874C491.57 328.66 490.931 328.526 490.221 328.496C489.342 328.46 488.471 328.178 487.609 327.988C487.395 327.948 487.187 327.882 486.827 327.788C486.939 328.018 486.965 328.153 487.043 328.22C487.685 328.812 488.322 329.428 488.997 329.986C489.423 330.341 489.67 330.753 489.589 331.312C489.271 333.509 488.94 335.703 488.61 337.898C488.589 338.077 488.53 338.248 488.511 338.414C488.411 339.478 488.013 340.329 487.01 340.87C486.618 341.083 486.319 341.483 486.028 341.845C485.329 342.705 484.473 343.365 483.455 343.785C483.227 343.885 482.966 343.888 482.718 343.959C482.455 344.039 482.154 344.113 481.942 344.269C481.488 344.6 481.099 344.996 480.665 345.358C480.418 345.559 480.389 345.71 480.676 345.908C481.206 346.269 481.719 346.653 482.233 347.024C482.632 347.322 483.097 347.41 483.543 347.259C485.368 346.639 487.003 347.145 488.559 348.065C489.179 348.431 489.764 348.842 490.372 349.204C491.852 350.111 493.44 350.32 495.108 349.84C495.977 349.587 496.82 349.199 497.755 349.284C498.034 349.324 498.04 349.09 497.933 348.901ZM480.701 349.579C480.707 349.749 480.738 349.925 480.757 350.098C480.858 350.861 481.076 351.15 481.606 351.172C482.226 351.198 482.658 350.849 482.801 350.172C482.92 349.62 482.841 349.488 482.291 349.371C481.929 349.289 481.584 349.185 481.222 349.103C480.87 349.037 480.68 349.209 480.701 349.579ZM481.795 359.141C482.019 359.327 482.471 358.943 482.548 358.54C482.664 357.935 482.288 357.251 481.721 357.013C481.286 356.839 480.774 357.199 480.813 357.676C480.868 358.339 481.32 358.764 481.795 359.141ZM470.394 356.382C470.445 357.266 471.002 357.828 471.8 358.149C471.873 358.176 471.946 358.203 472.034 358.219C474.518 358.846 477 359.486 479.487 360.1C479.809 360.187 480.141 360.224 480.473 360.26C480.523 360.27 480.585 360.216 480.723 360.177C480.469 359.803 480.181 359.474 480.007 359.089C479.818 358.649 479.601 358.151 479.636 357.701C479.738 356.285 480.855 355.623 482.199 356.086C483.384 356.493 484.113 357.309 484.065 358.24C484.033 359.016 483.827 359.747 483.327 360.383C483.245 360.472 483.196 360.593 483.084 360.768C483.462 360.905 483.802 361.034 484.146 361.138C485.414 361.522 486.682 361.906 487.955 362.264C488.314 362.358 488.716 362.304 489.078 362.385C489.649 362.532 490.197 362.728 490.758 362.925C493.26 363.803 495.749 364.679 498.25 365.557C498.995 365.815 499.76 365.764 500.52 365.608C500.803 365.557 500.892 365.365 500.87 365.074C500.787 364.015 501.389 363.594 502.335 364.021C502.431 364.065 502.529 364.097 502.627 364.128C502.662 364.083 502.687 364.022 502.722 363.977C502.469 363.798 502.232 363.61 501.975 363.457C501.453 363.123 501.224 362.754 501.36 362.388C501.512 361.999 502.023 361.848 502.617 362.013C502.728 362.047 502.836 362.093 502.939 362.1C503.132 362.11 503.489 362.152 503.511 362.104C503.585 361.857 503.628 361.565 503.553 361.342C503.497 361.162 503.265 361.013 503.078 360.9C502.398 360.51 501.712 360.145 501.032 359.755C500.752 359.585 500.479 359.377 500.219 359.171C499.926 358.933 499.894 358.627 500.06 358.306C500.221 358.01 500.483 357.864 500.818 357.954C501.273 358.092 501.724 358.256 502.161 358.417C502.32 358.473 502.459 358.564 502.612 358.646C502.787 358.078 502.616 357.746 502.09 357.503C501.178 357.095 500.251 356.698 499.34 356.291C499.123 356.198 498.911 356.079 498.7 355.961C498.367 355.793 498.227 355.506 498.345 355.163C498.465 354.807 498.75 354.613 499.135 354.712C499.769 354.871 500.382 355.066 501.011 355.25C501.16 355.291 501.321 355.335 501.472 355.363C501.509 355.305 501.546 355.247 501.583 355.189C501.305 354.941 501.052 354.632 500.734 354.454C499.827 353.956 498.895 353.519 497.953 353.066C497.311 352.749 496.651 352.455 496.84 351.473C496.594 351.531 496.433 351.552 496.278 351.614C494.96 352.174 493.643 352.316 492.22 352.059C490.684 351.782 489.332 351.226 488.071 350.335C487.43 349.874 486.677 349.588 485.96 349.256C485.781 349.17 485.562 349.155 485.356 349.142C484.417 349.082 484.29 349.201 484.154 350.115C484.091 350.508 484.001 350.908 483.841 351.269C483.428 352.196 482.556 352.67 481.558 352.572C480.333 352.445 479.669 351.967 479.47 350.833C479.334 350.116 479.429 349.351 479.401 348.615C479.391 348.326 479.417 347.992 479.294 347.747C479.004 347.157 478.629 347.073 478.13 347.5C476.881 348.581 475.666 349.682 474.439 350.781C473.402 351.707 472.331 352.6 471.36 353.59C470.612 354.362 470.331 355.353 470.394 356.382Z" fill="#FF7D5F"/>
<path d="M508.822 352.222C509.228 352.358 509.459 352.638 509.527 353.054C509.562 353.278 509.566 353.515 509.543 353.737C509.427 354.955 508.51 355.687 507.411 355.47C506.71 355.337 506.351 355.003 506.248 354.412C505.979 352.845 507.308 351.709 508.822 352.222ZM507.627 354.398C507.951 354.449 508.215 354.253 508.262 353.908C508.311 353.602 508.167 353.378 507.909 353.339C507.604 353.291 507.327 353.504 507.273 353.838C507.214 354.142 507.35 354.355 507.627 354.398Z" fill="#FF7D5F"/>
<path d="M504.983 348.178C506.023 348.749 506.142 350.484 505.173 351.177C504.604 351.581 503.985 351.631 503.36 351.356C502.879 351.146 502.645 350.728 502.616 350.211C502.606 350.012 502.646 349.803 502.652 349.617C502.702 349.41 502.738 349.22 502.803 349.035C503.089 348.262 504.281 347.789 504.983 348.178ZM503.535 349.676C503.484 349.991 503.451 350.319 503.806 350.416C504.03 350.478 504.31 350.452 504.521 350.374C504.584 350.357 504.541 350.014 504.54 349.817C504.541 349.758 504.514 349.694 504.495 349.641C504.421 349.41 504.391 349.109 504.041 349.141C503.73 349.171 503.563 349.376 503.535 349.676Z" fill="#FF7D5F"/>
<path d="M502.802 341.99C502.168 342.224 501.217 341.699 501.038 341.045C500.874 340.463 501.041 339.953 501.449 339.518C501.832 339.108 502.308 339.09 502.818 339.246C503.868 339.356 503.945 340.188 503.642 340.997C503.473 341.417 503.246 341.828 502.802 341.99ZM502.392 340.287C502.263 340.293 502.141 340.417 501.951 340.539C502.077 340.7 502.192 340.87 502.203 340.862C502.358 340.773 502.488 340.66 502.627 340.548C502.545 340.464 502.462 340.281 502.392 340.287Z" fill="#FF7D5F"/>
<path d="M183 78.5368C183 70.5677 186.603 63.0958 189.793 56.0071C191.088 53.1285 193.33 50.9878 195.429 48.7648C196.89 47.2177 198.14 45.4438 199.62 43.9634C200.696 42.8872 202.031 42.1632 203.089 41.105C204.292 39.9022 205.786 38.6599 207.409 38.07C208.889 37.5318 210.22 36.3272 211.616 35.6292C212.18 35.347 212.778 35.5298 213.35 35.2438C214.072 34.8828 214.8 34.6321 215.598 34.6014C216.898 34.5514 218.043 33.7343 219.42 33.7343C220.66 33.7343 221.759 33.1562 223.033 33.1562C224.114 33.1562 225.21 32.289 226.213 32.289C227.489 32.289 228.625 32 229.826 32" stroke="#009564" stroke-width="2" stroke-linecap="round" stroke-linejoin="round"/>
<path d="M277.082 78.5368C277.082 70.5677 273.479 63.0958 270.289 56.0071C268.994 53.1285 266.752 50.9878 264.653 48.7648C263.192 47.2177 261.942 45.4438 260.462 43.9634C259.386 42.8872 258.051 42.1632 256.993 41.105C255.79 39.9022 254.296 38.6599 252.674 38.07C251.193 37.5318 249.862 36.3272 248.466 35.6292C247.902 35.347 247.304 35.5298 246.732 35.2438C246.01 34.8828 245.282 34.6321 244.484 34.6014C243.184 34.5514 242.039 33.7343 240.662 33.7343C239.422 33.7343 238.323 33.1562 237.049 33.1562C235.968 33.1562 234.872 32.289 233.869 32.289C232.594 32.289 231.457 32 230.256 32" stroke="#009564" stroke-width="2" stroke-linecap="round" stroke-linejoin="round"/>
<path d="M229.801 32.3677C228.743 33.1939 227.69 34.0021 226.65 34.8106C226.231 35.1362 225.881 35.7902 225.39 36.0087C224.872 36.2388 224.765 36.7698 224.339 37.0201C223.544 37.4879 222.28 38.64 221.819 39.4475C221.519 39.9726 221.041 40.1323 220.698 40.56C220.387 40.9493 220.039 41.367 219.687 41.7193C218.481 42.9254 216.881 44.4061 216.108 45.9516C215.142 47.8831 214.281 49.7461 213.307 51.6932C212.861 52.5861 212.243 53.7175 212.024 54.7041C211.88 55.3492 211.414 55.8301 211.106 56.3846C210.89 56.7726 210.786 57.2573 210.507 57.606C210.232 57.9488 210.137 58.6857 209.946 59.1154C209.743 59.5735 209.478 60.1197 209.347 60.578C209.239 60.9587 208.782 61.3518 208.585 61.7061C208.273 62.2668 208.052 62.8291 207.846 63.4255C207.014 65.8297 206.274 67.978 206.274 70.5987C206.274 71.8876 205.994 73.1391 205.994 74.4498C205.994 75.5001 205.994 76.5504 205.994 77.6007" stroke="#009564" stroke-width="2" stroke-linecap="round" stroke-linejoin="round"/>
<path d="M230.281 32.3677C231.339 33.1939 232.392 34.0021 233.432 34.8106C233.851 35.1362 234.201 35.7902 234.692 36.0087C235.21 36.2388 235.317 36.7698 235.743 37.0201C236.538 37.4879 237.802 38.64 238.263 39.4475C238.563 39.9726 239.041 40.1323 239.384 40.56C239.695 40.9493 240.043 41.367 240.395 41.7193C241.601 42.9254 243.201 44.4061 243.974 45.9516C244.94 47.8831 245.801 49.7461 246.775 51.6932C247.221 52.5861 247.839 53.7175 248.058 54.7041C248.202 55.3492 248.668 55.8301 248.976 56.3846C249.192 56.7726 249.297 57.2573 249.575 57.606C249.85 57.9488 249.945 58.6857 250.136 59.1154C250.339 59.5735 250.604 60.1197 250.735 60.578C250.843 60.9587 251.3 61.3518 251.497 61.7061C251.809 62.2668 252.03 62.8291 252.236 63.4255C253.068 65.8297 253.808 67.978 253.808 70.5987C253.808 71.8876 254.088 73.1391 254.088 74.4498C254.088 75.5001 254.088 76.5504 254.088 77.6007" stroke="#009564" stroke-width="2" stroke-linecap="round" stroke-linejoin="round"/>
<path d="M229.942 33.0679C229.854 32.5664 230.082 31.7327 230.082 32.6478C230.082 32.8827 229.964 33.6176 230.152 33.7681C230.449 34.0058 230.28 35.5345 230.37 35.9387C230.7 37.4239 230.782 38.8401 230.782 40.42C230.782 42.1472 230.782 43.8744 230.782 45.6015C230.782 47.6795 231.062 49.6963 231.062 51.7477C231.062 54.4857 231.202 57.2048 231.202 59.9556C231.202 62.0835 230.922 64.1114 230.922 66.2575C230.922 68.0834 230.642 69.9251 230.642 71.7501C230.642 73.7003 230.642 75.6505 230.642 77.6007" stroke="#009564" stroke-width="2" stroke-linecap="round" stroke-linejoin="round"/>
<path d="M183.312 78.7974C183.703 78.5135 184.088 78.1891 184.453 77.9054C184.643 77.7578 184.73 77.5479 184.96 77.4453C185.102 77.3825 185.381 77.2607 185.491 77.173C185.77 76.9498 186.134 76.7548 186.481 76.6003C186.876 76.4248 187.395 76.4156 187.749 76.1402C187.83 76.0775 188.231 75.9616 188.345 75.929C188.559 75.8677 188.761 75.9533 188.974 75.8585C189.327 75.7016 189.916 75.5168 190.308 75.5017C191.241 75.4658 192.252 75.1911 193.157 74.99C194.161 74.7669 195.242 74.7412 196.288 74.7412C196.766 74.7412 197.243 74.8083 197.697 74.8257C198.29 74.8485 198.868 75.133 199.453 75.1637C200.611 75.2247 201.686 75.9276 202.791 76.1731C203.28 76.2819 203.809 76.4803 204.269 76.6848C204.582 76.8237 205.875 76.7439 205.875 77.1918" stroke="#009564" stroke-width="2" stroke-linecap="round" stroke-linejoin="round"/>
<path d="M206.129 77.8672C206.454 77.4516 206.946 77.2397 207.312 76.8531C207.619 76.5288 208.17 76.1291 208.645 76.0926C209.159 76.053 209.805 75.7022 210.27 75.4823C210.681 75.2872 211.339 75.1477 211.791 75.0832C213.145 74.8897 214.541 74.4025 215.913 74.4025C217.083 74.4025 218.155 74.0645 219.311 74.0645C220.403 74.0645 221.914 73.8232 222.945 74.1913C223.181 74.2756 223.493 74.2679 223.743 74.3133C224.01 74.3618 224.274 74.4483 224.546 74.4823C225.123 74.5545 225.695 74.8692 226.26 74.9095C226.575 74.9321 227.269 75.0564 227.508 75.2475C227.874 75.5404 228.49 75.5674 228.903 75.7968C229.273 76.0024 229.589 76.2978 229.917 76.5527C230.167 76.7477 230.662 76.9071 230.804 77.1911" stroke="#009564" stroke-width="2" stroke-linecap="round" stroke-linejoin="round"/>
<path d="M254.381 77.7829C253.972 77.1122 253.188 76.531 252.564 76.0459C251.904 75.5323 251.286 75.1073 250.536 74.7032C248.545 73.6313 246.289 73.3887 244.071 73.3887C243.419 73.3887 242.67 73.2804 242.043 73.4732C241.424 73.6638 240.68 73.8512 240.034 73.8957C239.439 73.9367 238.809 74.1457 238.222 74.2525C237.469 74.3894 236.694 74.5813 235.978 74.844C234.912 75.2347 233.93 75.8225 232.851 76.1961C232.297 76.3878 231.792 76.7087 231.246 76.9191C231.144 76.9581 230.575 77.3123 230.551 77.3604" stroke="#009564" stroke-width="2" stroke-linecap="round" stroke-linejoin="round"/>
<path d="M277.28 78.6287C276.697 78.0461 276.327 77.2446 275.674 76.7321C275.13 76.304 274.62 75.9066 273.984 75.6054C272.244 74.7812 270.378 74.8261 268.501 74.8261C265.6 74.8261 262.655 74.4369 259.839 75.3754C259.192 75.5911 258.531 75.751 257.882 75.9716C257.342 76.1548 256.812 76.3215 256.257 76.4504C255.88 76.5383 255.319 76.6897 254.971 76.8729C254.747 76.9907 254.567 77.1922 254.295 77.1922" stroke="#009564" stroke-width="2" stroke-linecap="round" stroke-linejoin="round"/>
<path d="M229.862 127.887C227.723 126.267 226.197 124.265 223.846 122.922C223.054 122.469 222.583 121.656 221.771 120.847C220.962 120.04 219.696 118.785 219.696 118.785C219.696 118.785 216.171 114.906 214.612 113.347C213.713 112.447 213.142 111.508 212.13 110.391C210.814 108.94 209.765 108.027 208.583 106.845C207.327 105.589 206.316 104.413 204.787 102.931C203.267 101.457 202.039 100.537 200.781 99.2792C198.433 96.9313 195.745 94.623 193.741 91.9499C193.048 91.0269 192.621 90.1417 191.797 89.0601C191.269 88.3676 190.949 87.997 190.378 87.3395C189.883 86.7692 189.547 86.4995 189.078 85.9077C188.51 85.1921 188.348 84.6768 187.777 83.9637C187.287 83.3517 186.891 83.1127 186.411 82.4926C185.913 81.8489 185.725 81.2583 185.295 80.7325C184.907 80.2591 183.442 77.9233 183.285 78.2369" stroke="#009564" stroke-width="2" stroke-linecap="round" stroke-linejoin="round"/>
<path d="M229.936 128.076C229.755 127.64 229.489 127.355 229.223 126.976C228.877 126.483 228.63 125.825 228.357 125.285C227.829 124.24 227.141 123.244 226.748 122.138C226.379 121.102 225.868 120.165 225.332 119.204C224.199 117.175 223.134 115.12 221.961 113.114C221.628 112.544 221.498 112.294 221.273 111.8C220.997 111.191 220.705 110.486 220.27 109.971C219.627 109.212 219.381 108.164 218.824 107.359C217.175 104.977 216.041 102.257 214.816 99.6534C214.215 98.3779 213.535 97.1151 213.018 95.7982C212.332 94.0531 211.15 92.4939 210.594 90.6851C210.235 89.5185 209.677 88.4002 209.356 87.222C208.964 85.7841 208.557 84.4192 207.956 83.0663C207.799 82.7133 207.741 82.2556 207.64 81.8746C207.483 81.2811 207.137 80.7187 207.019 80.1278C206.915 79.6088 206.727 79.1435 206.647 78.6204C206.582 78.2017 206.285 77.8068 206.285 77.3828" stroke="#009564" stroke-width="2" stroke-linecap="round" stroke-linejoin="round"/>
<path d="M230.668 77.1992C230.668 80.0964 230.832 83.056 230.582 85.9384C230.494 86.9508 230.634 87.9747 230.531 88.9889C230.393 90.3402 230.21 91.7717 230.21 93.1293C230.21 94.6372 230.144 96.1392 230.118 97.6415C230.081 99.8229 230.302 101.995 230.302 104.17C230.302 105.187 230.225 106.15 230.118 107.16C230.015 108.144 229.977 109.185 229.798 110.154C229.647 110.969 229.66 111.932 229.66 112.762C229.66 114.482 229.66 116.201 229.66 117.921C229.66 120.371 229.66 122.847 229.66 125.285C229.66 126.172 229.568 127.083 229.568 127.984" stroke="#009564" stroke-width="2" stroke-linecap="round" stroke-linejoin="round"/>
<path d="M229.752 128.076C231.019 126.55 232.108 124.897 233.149 123.212C234.292 121.362 235.589 119.609 236.719 117.753C238.691 114.513 240.208 111.032 241.761 107.583C242.621 105.67 243.544 103.838 244.551 102.001C244.708 101.715 244.785 101.386 244.918 101.084C245.074 100.73 245.323 100.428 245.468 100.071C246.102 98.516 246.716 96.9519 247.332 95.3905C248.177 93.2486 249.399 91.2857 249.965 89.0195C250.55 86.6806 251.721 84.6742 252.69 82.4957C253.211 81.3234 253.956 80.1444 254.141 78.8493C254.176 78.602 254.319 78.3666 254.319 78.1159C254.319 77.8479 254.237 77.3319 254.503 77.1992" stroke="#009564" stroke-width="2" stroke-linecap="round" stroke-linejoin="round"/>
<path d="M230.027 128.076C230.533 127.104 231.47 126.697 232.273 126.013C233.351 125.095 234.573 124.381 235.614 123.401C236.674 122.403 237.751 121.402 238.828 120.427C239.853 119.498 240.599 118.31 241.664 117.401C243.215 116.079 244.384 114.355 245.601 112.742C246.674 111.32 247.781 109.923 249.008 108.632C250.776 106.771 251.792 104.349 253.408 102.357C254.234 101.34 255.102 100.261 256.026 99.3375C257.065 98.2983 258.223 97.398 259.362 96.4702C260.436 95.5951 261.463 94.6847 262.458 93.7202C263.149 93.0501 263.979 92.4999 264.714 91.8766C265.573 91.1483 266.297 90.2966 267.123 89.5339C268.031 88.6958 269.03 87.9736 269.904 87.0996C270.66 86.3435 271.368 85.5438 272.124 84.7875C273.183 83.7288 273.866 82.6514 274.66 81.3855C275.201 80.5236 275.76 79.5521 276.483 78.829C276.655 78.6571 276.952 78.5029 277.054 78.2993" stroke="#009564" stroke-width="2" stroke-linecap="round" stroke-linejoin="round"/>
<path d="M264.951 49.4075C264.266 50.0613 263.558 50.6367 262.801 51.1847C262.242 51.5892 261.485 51.9179 260.998 52.4039C260.575 52.825 259.908 52.7132 259.545 53.0439C259.264 53.3011 258.683 53.5379 258.344 53.6373" stroke="#009564" stroke-width="2" stroke-linecap="round" stroke-linejoin="round"/>
<path d="M259.42 47.6811C259.902 47.6178 261.447 46.9417 261.786 46.5114" stroke="#009564" stroke-width="2" stroke-linecap="round" stroke-linejoin="round"/>
<path d="M258.344 58.7621C259.458 58.7621 260.241 57.91 261.165 57.3455C261.565 57.1011 261.967 56.8305 262.374 56.6064C262.8 56.372 263.419 55.9336 263.885 55.8796C264.368 55.8237 264.798 55.2144 265.341 55.2144C265.708 55.2144 266.237 54.8282 266.505 54.5492C267.017 54.0169 267.643 53.0231 268.319 52.7754" stroke="#009564" stroke-width="2" stroke-linecap="round" stroke-linejoin="round"/>
<path d="M259.057 64.4717C260.707 64.4717 262.257 63.2038 263.691 62.4145C264.783 61.8138 265.843 61.1263 266.927 60.5298C268.282 59.7845 269.539 58.7601 270.845 58.0415" stroke="#009564" stroke-width="2" stroke-linecap="round" stroke-linejoin="round"/>
<path d="M259.057 70.1926C262.094 70.1926 264.481 68.1592 267.195 66.963C267.651 66.7619 268.204 66.1866 268.595 65.844C269.259 65.261 269.931 64.6987 270.595 64.1148C271.174 63.6061 272.03 62.7856 272.726 62.5254" stroke="#009564" stroke-width="2" stroke-linecap="round" stroke-linejoin="round"/>
<path d="M263.332 73.3589C266.057 73.3589 267.978 71.6332 270.204 70.3883C271.772 69.5113 272.833 67.7548 274.396 66.9775" stroke="#009564" stroke-width="2" stroke-linecap="round" stroke-linejoin="round"/>
<path d="M272.502 74.0014C273.299 73.6903 275.409 72.017 276.12 71.543" stroke="#009564" stroke-width="2" stroke-linecap="round" stroke-linejoin="round"/>
<path d="M1264 298.373C1264 294.37 1265.8 290.618 1267.39 287.057C1268.03 285.612 1269.15 284.536 1270.2 283.42C1270.92 282.643 1271.55 281.752 1272.29 281.009C1272.82 280.468 1273.49 280.104 1274.01 279.573C1274.61 278.969 1275.36 278.345 1276.17 278.049C1276.91 277.778 1277.57 277.173 1278.27 276.823C1278.55 276.681 1278.84 276.773 1279.13 276.629C1279.49 276.448 1279.85 276.322 1280.25 276.307C1280.9 276.281 1281.47 275.871 1282.16 275.871C1282.77 275.871 1283.32 275.581 1283.96 275.581C1284.5 275.581 1285.04 275.145 1285.54 275.145C1286.18 275.145 1286.74 275 1287.34 275" stroke="#E8E8E8" stroke-width="2" stroke-linecap="round" stroke-linejoin="round"/>
<path d="M1310.9 298.373C1310.9 294.37 1309.1 290.618 1307.51 287.057C1306.87 285.612 1305.75 284.536 1304.7 283.42C1303.98 282.643 1303.35 281.752 1302.61 281.009C1302.08 280.468 1301.41 280.104 1300.89 279.573C1300.29 278.969 1299.54 278.345 1298.73 278.049C1297.99 277.778 1297.33 277.173 1296.64 276.823C1296.35 276.681 1296.06 276.773 1295.77 276.629C1295.41 276.448 1295.05 276.322 1294.65 276.307C1294 276.281 1293.43 275.871 1292.74 275.871C1292.13 275.871 1291.58 275.581 1290.94 275.581C1290.4 275.581 1289.86 275.145 1289.36 275.145C1288.72 275.145 1288.16 275 1287.56 275" stroke="#E8E8E8" stroke-width="2" stroke-linecap="round" stroke-linejoin="round"/>
<path d="M1287.33 275.185C1286.8 275.6 1286.28 276.005 1285.76 276.412C1285.55 276.575 1285.38 276.903 1285.13 277.013C1284.87 277.129 1284.82 277.396 1284.61 277.521C1284.21 277.756 1283.58 278.335 1283.35 278.74C1283.2 279.004 1282.96 279.084 1282.79 279.299C1282.64 279.495 1282.46 279.704 1282.29 279.881C1281.69 280.487 1280.89 281.231 1280.5 282.007C1280.02 282.977 1279.59 283.913 1279.11 284.891C1278.89 285.339 1278.58 285.907 1278.47 286.403C1278.4 286.727 1278.16 286.968 1278.01 287.247C1277.9 287.442 1277.85 287.685 1277.71 287.86C1277.58 288.032 1277.53 288.403 1277.43 288.618C1277.33 288.848 1277.2 289.123 1277.13 289.353C1277.08 289.544 1276.85 289.742 1276.75 289.92C1276.6 290.201 1276.49 290.484 1276.39 290.783C1275.97 291.991 1275.6 293.07 1275.6 294.386C1275.6 295.033 1275.46 295.662 1275.46 296.32C1275.46 296.847 1275.46 297.375 1275.46 297.902" stroke="#E8E8E8" stroke-width="2" stroke-linecap="round" stroke-linejoin="round"/>
<path d="M1287.57 275.185C1288.1 275.6 1288.62 276.005 1289.14 276.412C1289.35 276.575 1289.52 276.903 1289.77 277.013C1290.03 277.129 1290.08 277.396 1290.29 277.521C1290.69 277.756 1291.32 278.335 1291.55 278.74C1291.7 279.004 1291.94 279.084 1292.11 279.299C1292.26 279.495 1292.44 279.704 1292.61 279.881C1293.21 280.487 1294.01 281.231 1294.4 282.007C1294.88 282.977 1295.31 283.913 1295.79 284.891C1296.01 285.339 1296.32 285.907 1296.43 286.403C1296.5 286.727 1296.74 286.968 1296.89 287.247C1297 287.442 1297.05 287.685 1297.19 287.86C1297.32 288.032 1297.37 288.403 1297.47 288.618C1297.57 288.848 1297.7 289.123 1297.77 289.353C1297.82 289.544 1298.05 289.742 1298.15 289.92C1298.3 290.201 1298.41 290.484 1298.51 290.783C1298.93 291.991 1299.3 293.07 1299.3 294.386C1299.3 295.033 1299.44 295.662 1299.44 296.32C1299.44 296.847 1299.44 297.375 1299.44 297.902" stroke="#E8E8E8" stroke-width="2" stroke-linecap="round" stroke-linejoin="round"/>
<path d="M1287.4 275.536C1287.36 275.284 1287.47 274.866 1287.47 275.325C1287.47 275.443 1287.41 275.812 1287.51 275.888C1287.65 276.007 1287.57 276.775 1287.61 276.978C1287.78 277.724 1287.82 278.435 1287.82 279.229C1287.82 280.096 1287.82 280.964 1287.82 281.831C1287.82 282.875 1287.96 283.888 1287.96 284.918C1287.96 286.293 1288.03 287.659 1288.03 289.04C1288.03 290.109 1287.89 291.128 1287.89 292.205C1287.89 293.122 1287.75 294.048 1287.75 294.964C1287.75 295.944 1287.75 296.923 1287.75 297.902" stroke="#E8E8E8" stroke-width="2" stroke-linecap="round" stroke-linejoin="round"/>
<path d="M1264.16 298.503C1264.35 298.361 1264.54 298.198 1264.72 298.055C1264.82 297.981 1264.86 297.876 1264.98 297.824C1265.05 297.793 1265.19 297.732 1265.24 297.688C1265.38 297.576 1265.56 297.478 1265.74 297.4C1265.93 297.312 1266.19 297.307 1266.37 297.169C1266.41 297.137 1266.61 297.079 1266.67 297.063C1266.77 297.032 1266.87 297.075 1266.98 297.027C1267.15 296.949 1267.45 296.856 1267.64 296.848C1268.11 296.83 1268.61 296.692 1269.06 296.591C1269.56 296.479 1270.1 296.466 1270.62 296.466C1270.86 296.466 1271.1 296.5 1271.33 296.509C1271.62 296.52 1271.91 296.663 1272.2 296.679C1272.78 296.709 1273.32 297.062 1273.87 297.185C1274.11 297.24 1274.37 297.34 1274.6 297.442C1274.76 297.512 1275.4 297.472 1275.4 297.697" stroke="#E8E8E8" stroke-width="2" stroke-linecap="round" stroke-linejoin="round"/>
<path d="M1275.53 298.036C1275.69 297.828 1275.94 297.721 1276.12 297.527C1276.27 297.364 1276.55 297.163 1276.78 297.145C1277.04 297.125 1277.36 296.949 1277.59 296.838C1277.8 296.741 1278.13 296.67 1278.35 296.638C1279.03 296.541 1279.72 296.296 1280.41 296.296C1280.99 296.296 1281.52 296.126 1282.1 296.126C1282.65 296.126 1283.4 296.005 1283.91 296.19C1284.03 296.232 1284.19 296.229 1284.31 296.251C1284.44 296.276 1284.57 296.319 1284.71 296.336C1285 296.373 1285.28 296.531 1285.56 296.551C1285.72 296.562 1286.07 296.625 1286.19 296.721C1286.37 296.868 1286.68 296.881 1286.88 296.996C1287.07 297.1 1287.22 297.248 1287.39 297.376C1287.51 297.474 1287.76 297.554 1287.83 297.697" stroke="#E8E8E8" stroke-width="2" stroke-linecap="round" stroke-linejoin="round"/>
<path d="M1299.58 297.994C1299.38 297.657 1298.99 297.365 1298.68 297.122C1298.35 296.864 1298.04 296.65 1297.67 296.447C1296.68 295.909 1295.55 295.787 1294.45 295.787C1294.12 295.787 1293.75 295.733 1293.43 295.83C1293.13 295.925 1292.75 296.019 1292.43 296.042C1292.14 296.062 1291.82 296.167 1291.53 296.221C1291.15 296.29 1290.77 296.386 1290.41 296.518C1289.88 296.714 1289.39 297.01 1288.85 297.197C1288.58 297.293 1288.32 297.455 1288.05 297.56C1288 297.58 1287.72 297.758 1287.71 297.782" stroke="#E8E8E8" stroke-width="2" stroke-linecap="round" stroke-linejoin="round"/>
<path d="M1311 298.419C1310.71 298.126 1310.52 297.724 1310.2 297.466C1309.93 297.251 1309.67 297.052 1309.36 296.9C1308.49 296.486 1307.56 296.509 1306.62 296.509C1305.18 296.509 1303.71 296.313 1302.3 296.785C1301.98 296.893 1301.65 296.973 1301.33 297.084C1301.06 297.176 1300.8 297.26 1300.52 297.325C1300.33 297.369 1300.05 297.445 1299.88 297.537C1299.77 297.596 1299.68 297.697 1299.54 297.697" stroke="#E8E8E8" stroke-width="2" stroke-linecap="round" stroke-linejoin="round"/>
<path d="M1287.36 323.159C1286.3 322.345 1285.53 321.339 1284.36 320.665C1283.97 320.437 1283.73 320.029 1283.33 319.623C1282.92 319.217 1282.29 318.587 1282.29 318.587C1282.29 318.587 1280.54 316.639 1279.76 315.856C1279.31 315.404 1279.03 314.932 1278.52 314.371C1277.87 313.643 1277.34 313.184 1276.75 312.59C1276.13 311.959 1275.62 311.369 1274.86 310.624C1274.1 309.884 1273.49 309.422 1272.86 308.79C1271.69 307.611 1270.35 306.452 1269.35 305.109C1269.01 304.646 1268.8 304.201 1268.39 303.658C1268.12 303.31 1267.96 303.124 1267.68 302.794C1267.43 302.507 1267.26 302.372 1267.03 302.075C1266.75 301.715 1266.67 301.456 1266.38 301.098C1266.14 300.791 1265.94 300.671 1265.7 300.359C1265.45 300.036 1265.36 299.74 1265.14 299.475C1264.95 299.238 1264.22 298.065 1264.14 298.222" stroke="#E8E8E8" stroke-width="2" stroke-linecap="round" stroke-linejoin="round"/>
<path d="M1287.4 323.253C1287.31 323.034 1287.18 322.891 1287.04 322.701C1286.87 322.453 1286.75 322.122 1286.61 321.852C1286.35 321.327 1286 320.826 1285.81 320.271C1285.62 319.75 1285.37 319.28 1285.1 318.798C1284.54 317.778 1284.01 316.746 1283.42 315.738C1283.26 315.452 1283.19 315.327 1283.08 315.078C1282.94 314.773 1282.8 314.419 1282.58 314.16C1282.26 313.779 1282.14 313.253 1281.86 312.848C1281.04 311.652 1280.47 310.286 1279.86 308.978C1279.56 308.338 1279.22 307.703 1278.96 307.042C1278.62 306.165 1278.03 305.382 1277.76 304.474C1277.58 303.888 1277.3 303.326 1277.14 302.735C1276.94 302.012 1276.74 301.327 1276.44 300.647C1276.36 300.47 1276.33 300.24 1276.28 300.049C1276.2 299.751 1276.03 299.468 1275.97 299.172C1275.92 298.911 1275.83 298.677 1275.79 298.415C1275.76 298.204 1275.61 298.006 1275.61 297.793" stroke="#E8E8E8" stroke-width="2" stroke-linecap="round" stroke-linejoin="round"/>
<path d="M1287.76 297.701C1287.76 299.156 1287.85 300.643 1287.72 302.09C1287.68 302.599 1287.75 303.113 1287.69 303.622C1287.63 304.301 1287.53 305.02 1287.53 305.702C1287.53 306.459 1287.5 307.214 1287.49 307.968C1287.47 309.064 1287.58 310.155 1287.58 311.247C1287.58 311.758 1287.54 312.242 1287.49 312.749C1287.44 313.243 1287.42 313.766 1287.33 314.253C1287.25 314.662 1287.26 315.145 1287.26 315.562C1287.26 316.426 1287.26 317.29 1287.26 318.153C1287.26 319.384 1287.26 320.627 1287.26 321.852C1287.26 322.297 1287.21 322.755 1287.21 323.207" stroke="#E8E8E8" stroke-width="2" stroke-linecap="round" stroke-linejoin="round"/>
<path d="M1287.31 323.253C1287.94 322.487 1288.48 321.657 1289 320.811C1289.57 319.881 1290.22 319.001 1290.78 318.069C1291.76 316.442 1292.52 314.693 1293.29 312.961C1293.72 312 1294.18 311.08 1294.68 310.158C1294.76 310.014 1294.8 309.849 1294.87 309.697C1294.94 309.519 1295.07 309.367 1295.14 309.188C1295.46 308.407 1295.76 307.622 1296.07 306.838C1296.49 305.762 1297.1 304.776 1297.38 303.638C1297.67 302.463 1298.26 301.455 1298.74 300.361C1299 299.773 1299.37 299.18 1299.46 298.53C1299.48 298.406 1299.55 298.287 1299.55 298.162C1299.55 298.027 1299.51 297.768 1299.65 297.701" stroke="#E8E8E8" stroke-width="2" stroke-linecap="round" stroke-linejoin="round"/>
<path d="M1287.44 323.253C1287.7 322.765 1288.16 322.561 1288.56 322.217C1289.1 321.756 1289.71 321.398 1290.23 320.905C1290.76 320.404 1291.29 319.901 1291.83 319.411C1292.34 318.945 1292.71 318.348 1293.24 317.892C1294.02 317.228 1294.6 316.362 1295.21 315.552C1295.74 314.838 1296.29 314.136 1296.91 313.488C1297.79 312.553 1298.29 311.337 1299.1 310.336C1299.51 309.825 1299.94 309.284 1300.4 308.82C1300.92 308.298 1301.5 307.846 1302.07 307.38C1302.6 306.94 1303.11 306.483 1303.61 305.998C1303.95 305.662 1304.37 305.386 1304.74 305.072C1305.16 304.707 1305.52 304.279 1305.94 303.896C1306.39 303.475 1306.89 303.112 1307.32 302.673C1307.7 302.294 1308.05 301.892 1308.43 301.512C1308.96 300.98 1309.3 300.439 1309.69 299.803C1309.96 299.371 1310.24 298.883 1310.6 298.519C1310.69 298.433 1310.84 298.356 1310.89 298.253" stroke="#E8E8E8" stroke-width="2" stroke-linecap="round" stroke-linejoin="round"/>
<path d="M1303.45 282.511C1303.06 282.88 1302.66 283.205 1302.24 283.514C1301.92 283.742 1301.49 283.927 1301.22 284.201C1300.98 284.439 1300.6 284.376 1300.4 284.562C1300.24 284.708 1299.91 284.841 1299.72 284.897" stroke="#E8E8E8" stroke-width="2" stroke-linecap="round" stroke-linejoin="round"/>
<path d="M1300.33 281.537C1300.6 281.502 1301.47 281.12 1301.66 280.877" stroke="#E8E8E8" stroke-width="2" stroke-linecap="round" stroke-linejoin="round"/>
<path d="M1299.72 287.788C1300.35 287.788 1300.79 287.307 1301.31 286.989C1301.54 286.851 1301.76 286.698 1301.99 286.572C1302.23 286.439 1302.58 286.192 1302.85 286.162C1303.12 286.13 1303.36 285.786 1303.67 285.786C1303.87 285.786 1304.17 285.569 1304.32 285.411C1304.61 285.111 1304.97 284.55 1305.35 284.411" stroke="#E8E8E8" stroke-width="2" stroke-linecap="round" stroke-linejoin="round"/>
<path d="M1300.12 291.009C1301.05 291.009 1301.93 290.293 1302.74 289.848C1303.35 289.509 1303.95 289.121 1304.56 288.785C1305.33 288.365 1306.04 287.787 1306.77 287.381" stroke="#E8E8E8" stroke-width="2" stroke-linecap="round" stroke-linejoin="round"/>
<path d="M1300.12 294.236C1301.84 294.236 1303.18 293.089 1304.71 292.414C1304.97 292.3 1305.28 291.976 1305.5 291.783C1305.88 291.454 1306.26 291.137 1306.63 290.807C1306.96 290.52 1307.44 290.057 1307.83 289.911" stroke="#E8E8E8" stroke-width="2" stroke-linecap="round" stroke-linejoin="round"/>
<path d="M1302.53 296.021C1304.07 296.021 1305.15 295.048 1306.41 294.346C1307.29 293.851 1307.89 292.86 1308.77 292.422" stroke="#E8E8E8" stroke-width="2" stroke-linecap="round" stroke-linejoin="round"/>
<path d="M1307.71 296.384C1308.16 296.208 1309.35 295.264 1309.75 294.997" stroke="#E8E8E8" stroke-width="2" stroke-linecap="round" stroke-linejoin="round"/>
</g>
<path d="M1142.92 143.509C1143.18 145.414 1142.84 147.228 1141.36 148.767C1140.38 149.772 1139.25 150.367 1137.81 150.275C1136.92 150.23 1136 150.169 1135.12 150.23C1130.94 150.489 1128.2 146.694 1128.75 142.945C1128.88 142.001 1129.19 141.071 1129.49 140.172C1129.66 139.654 1129.64 139.242 1129.19 138.877C1128.36 138.206 1127.55 137.475 1126.67 136.896C1124.88 135.722 1123.02 134.64 1121.19 133.497C1120.68 133.177 1120.19 133.04 1119.69 133.421C1116.71 135.707 1113.37 135.57 1109.9 134.899C1107.42 134.427 1105.12 133.68 1103.32 131.821C1102.97 131.455 1102.64 131.059 1102.33 130.648C1102.01 130.206 1101.62 130.084 1101.13 130.267C1098.14 131.333 1095.14 132.431 1092.15 133.497C1091.46 133.741 1091.08 134.198 1091.01 134.96C1090.73 137.657 1089.4 139.913 1087.66 141.924C1087.22 142.458 1086.4 142.839 1085.68 142.961C1084.12 143.22 1082.56 142.961 1081.09 142.336C1077.84 140.949 1076.31 137.779 1077.3 134.305C1077.93 132.08 1079.08 130.145 1081.32 129.2C1084.06 128.042 1086.63 128.545 1088.84 130.495C1089.49 131.059 1090.05 131.166 1090.85 130.861C1093.92 129.688 1097 128.56 1100.09 127.463C1100.76 127.219 1100.97 126.884 1100.8 126.213C1100.65 125.603 1100.55 124.963 1100.45 124.354C1100.26 123.226 1100.34 122.129 1100.85 121.093C1103.14 116.323 1106.74 113.321 1112.21 112.742C1112.44 112.711 1112.65 112.635 1112.89 112.62C1113.63 112.559 1113.88 112.163 1113.88 111.446C1113.88 108.932 1113.91 106.433 1113.94 103.918C1113.94 103.324 1113.81 102.791 1113.15 102.73C1110.43 102.456 1109.31 100.52 1108.68 98.3105C1108.1 96.299 1108.29 94.2417 1109.23 92.3064C1110.16 90.3253 1111.8 89.3957 1113.91 89.1519C1113.94 89.1519 1113.95 89.1519 1113.98 89.1519C1115.59 88.9843 1117.23 88.71 1118.63 89.8986C1120.45 91.4987 1121.86 93.3274 1122.34 95.7808C1122.62 97.1828 1122.37 98.5391 1122.06 99.8344C1121.66 101.48 1120.31 102.318 1118.66 102.654C1117.68 102.852 1117.54 102.974 1117.59 103.949C1117.7 106.479 1117.79 109.008 1117.9 111.553C1117.95 112.65 1118.08 112.696 1119.21 112.727C1120.24 112.757 1121.29 112.803 1122.26 113.062C1123.86 113.473 1124.66 114.616 1125 116.216C1125.87 120.346 1125.59 124.323 1123.73 128.148C1123.52 128.606 1123.64 128.971 1124.01 129.291C1125.56 130.632 1127.07 132.004 1128.65 133.299C1129.15 133.711 1129.78 133.985 1130.35 134.335C1130.9 134.671 1131.5 134.96 1131.93 135.387C1132.86 136.332 1133.94 136.682 1135.28 136.621C1137.27 136.545 1139.16 136.972 1140.8 138.191C1142.16 139.197 1143.06 140.477 1142.93 142.26C1142.89 142.641 1142.92 143.022 1142.92 143.509ZM1106.77 126.914C1106.84 126.96 1106.9 127.005 1106.96 127.036C1107.07 126.975 1107.18 126.929 1107.27 126.853C1107.86 126.289 1108.41 125.695 1109.03 125.146C1109.87 124.4 1110.78 123.821 1111.97 123.821C1112.62 123.821 1113.24 123.912 1113.5 124.582C1113.78 125.299 1113.41 125.741 1112.89 126.274C1111.73 127.478 1110.69 128.804 1109.65 130.099C1109.54 130.236 1109.67 130.541 1109.68 130.754C1109.88 130.678 1110.13 130.663 1110.27 130.541C1110.58 130.236 1110.81 129.87 1111.11 129.55C1111.73 128.895 1112.42 128.407 1113.38 128.468C1114.11 128.514 1114.37 128.987 1114.03 129.611C1113.81 130.008 1113.58 130.373 1113.27 130.891C1113.74 130.937 1114.05 131.013 1114.36 130.998C1115.87 130.876 1117.02 130.099 1117.91 128.956C1119.83 126.518 1120.85 123.76 1120.92 120.666C1120.96 118.807 1120.16 117.694 1118.3 117.253C1116.46 116.811 1114.59 116.78 1112.73 117.237C1111.42 117.557 1110.18 118.045 1109.47 119.31C1108.89 120.331 1108.99 120.437 1110.02 120.818C1110.47 120.986 1110.94 121.398 1111.17 121.824C1111.45 122.327 1110.89 122.601 1110.56 122.906C1109.47 123.942 1108.37 124.963 1107.3 126.03C1107.07 126.289 1106.94 126.624 1106.77 126.914ZM1136.39 140.02C1135.71 140.172 1135.2 140.187 1134.78 140.416C1134.44 140.599 1133.98 141.025 1133.99 141.315C1134.1 142.976 1134.18 144.667 1135.43 145.993C1135.91 146.496 1136.44 146.603 1137.01 146.252C1138.12 145.582 1139.04 144.713 1139.61 143.524C1140.13 142.427 1139.86 141.345 1138.76 140.812C1137.98 140.431 1137.09 140.248 1136.39 140.02ZM1113.5 97.6705C1113.46 98.4629 1113.72 98.981 1114.31 99.3163C1115.02 99.7125 1115.76 99.8192 1116.51 99.362C1117.56 98.7067 1118.16 97.7314 1118.47 96.558C1118.89 94.9579 1117.79 93.6017 1116.12 93.6931C1115.84 93.7084 1115.49 93.8303 1115.3 94.0131C1114.28 95.0799 1113.66 96.3295 1113.5 97.6705ZM1083.84 135.661C1083.83 135.661 1083.81 135.661 1083.8 135.661C1083.8 136.164 1083.81 136.682 1083.8 137.185C1083.75 137.962 1084.14 138.526 1084.66 139.044C1085.08 139.456 1085.45 139.456 1085.85 139.029C1087.31 137.536 1087.85 135.753 1087.56 133.726C1087.46 133.055 1086.98 132.583 1086.33 132.385C1085.9 132.248 1084.04 133.132 1083.94 133.467C1083.87 133.634 1083.86 133.817 1083.86 133.985C1083.84 134.549 1083.84 135.097 1083.84 135.661Z" fill="#F1E66B"/>
</svg>
