<svg width="353" height="163" viewBox="0 0 353 163" fill="none" xmlns="http://www.w3.org/2000/svg">
<path d="M337.256 159.063C337.007 158.655 336.663 158.366 336.238 158.148C335.627 157.83 335.047 157.463 334.462 157.108C334.408 157.073 334.376 156.928 334.406 156.854C334.697 156.142 334.997 155.438 335.318 154.734C335.377 154.604 335.551 154.445 335.673 154.425C336.623 154.237 337.568 154.06 338.519 153.911C339.057 153.823 339.229 153.721 339.463 153.177C339.688 152.655 339.379 152.127 338.874 152.205C337.507 152.422 336.147 152.653 334.788 152.698C333.77 152.731 332.73 152.931 331.698 153.068C331.601 153.084 331.459 153.137 331.409 153.218C331.277 153.428 331.382 154.164 331.545 154.322C331.875 154.646 332.233 154.913 332.79 154.723C332.89 154.688 332.993 154.7 333.096 154.686C333.733 154.635 333.733 154.635 333.558 155.287C333.54 155.358 333.525 155.424 333.502 155.494C333.202 156.409 332.974 156.52 332.22 156.158C331.735 155.923 331.254 155.663 330.733 155.512C329.761 155.226 328.753 155.012 327.762 154.772C327.394 154.68 327.368 154.634 327.531 154.235C327.841 153.477 328.153 152.713 328.463 151.954L328.458 151.953C328.778 151.172 329.105 150.399 329.409 149.613C329.467 149.458 329.502 149.219 329.428 149.12C329.221 148.846 328.993 148.553 328.694 148.406C328.287 148.2 327.804 148.125 327.355 147.996C327.149 147.941 327.057 147.817 327.08 147.568C327.121 147.145 327.133 146.726 327.177 146.31C327.219 145.958 327.242 145.593 327.357 145.256C327.634 144.469 327.943 143.685 328.272 142.907C328.881 141.489 329.8 140.357 331.171 139.668C331.53 139.488 331.624 139.509 331.708 139.874C332.083 141.441 332.48 142.995 332.808 144.579C333.017 145.589 333.119 146.651 333.271 147.689C333.358 148.285 333.666 148.66 334.202 148.648C334.674 148.636 334.867 148.848 334.899 149.3C334.904 149.359 334.923 149.409 334.935 149.464C335.118 150.076 335.557 150.272 336.191 150.034C336.474 149.927 336.763 149.848 337.041 149.739C337.277 149.65 337.518 149.563 337.74 149.425C338.376 149.014 338.53 148.638 338.372 147.963C338.352 147.873 338.334 147.778 338.306 147.693C338.205 147.311 338.123 146.927 338.391 146.508C338.427 146.449 338.447 146.371 338.45 146.308C338.454 145.727 338.508 145.135 338.447 144.572C338.196 142.422 337.906 140.286 337.636 138.143C337.591 137.777 337.632 137.719 337.984 137.543C338.048 137.511 338.11 137.485 338.169 137.451C338.675 137.206 338.884 136.917 338.842 136.379C338.792 135.775 338.715 135.169 338.578 134.597C338.4 133.82 338.119 133.71 337.328 133.971C336.323 134.309 335.674 133.998 335.387 133.054C335.361 132.963 335.341 132.874 335.298 132.797C335.216 132.65 335.149 132.464 335.019 132.392C334.763 132.251 334.588 132.064 334.478 131.775C334.364 131.427 334.12 131.367 333.779 131.533C333.501 131.667 333.229 131.816 332.952 131.95C332.697 132.072 332.589 132.251 332.561 132.543C332.54 132.748 332.438 132.999 332.294 133.154C332.088 133.38 331.997 133.603 332.033 133.863C332.075 134.151 332.114 134.445 332.184 134.722C332.25 134.979 332.187 135.146 331.934 135.319C331.737 135.452 331.542 135.662 331.436 135.88C331.325 136.096 331.218 136.205 331.011 136.251C329.747 136.537 328.554 137.126 327.375 137.764C327.016 137.957 326.633 138.238 326.395 138.57C325.861 139.319 325.345 140.092 324.936 140.91C324.255 142.255 323.886 143.674 323.706 145.118C323.522 146.587 323.375 148.048 323.671 149.43C323.771 149.883 323.682 150.298 323.455 150.742C323.147 151.341 322.829 151.936 322.587 152.555C322.397 153.036 322.155 153.431 321.742 153.729C321.384 153.992 321.05 154.321 320.674 154.528C320.353 154.7 320.128 154.902 320.003 155.235C319.91 155.476 319.8 155.718 319.764 155.958C319.732 156.191 319.707 156.517 319.829 156.637C320.182 156.986 320.609 157.255 321.015 157.544C321.051 157.568 321.119 157.556 321.172 157.553C321.28 157.553 321.39 157.535 321.496 157.554C322.1 157.64 322.693 157.78 323.31 157.819C323.993 157.864 324.658 157.955 325.291 158.165C327.717 158.984 330.267 159.528 332.602 160.57C333.712 161.064 334.989 161.051 336.238 161.107C336.518 161.12 336.777 160.987 336.989 160.75C337.372 160.315 337.514 159.493 337.256 159.063ZM337.245 147.957C337.275 148.093 337.287 148.232 337.313 148.419C337.076 148.539 336.85 148.657 336.625 148.762C336.456 148.84 336.344 148.78 336.264 148.641C336.04 148.253 336.065 148.178 336.5 147.937C336.589 147.887 336.684 147.852 336.762 147.785C337.045 147.525 337.174 147.615 337.245 147.957ZM337.355 135.356C337.876 135.058 337.935 135.082 337.938 135.646C337.941 135.904 337.937 136.165 337.932 136.484C337.782 136.573 337.649 136.687 337.51 136.721C337.452 136.736 337.357 136.592 337.324 136.493C337.256 136.267 337.228 136.016 337.163 135.785C337.101 135.587 337.155 135.469 337.355 135.356ZM336.386 136.889C336.713 139.158 337.025 141.436 337.357 143.706C337.449 144.362 337.588 144.999 337.692 145.651C337.705 145.745 337.653 145.928 337.584 145.971C336.814 146.444 336.034 146.901 335.254 147.357C335.173 147.403 335.075 147.419 334.958 147.454C334.913 147.37 334.855 147.301 334.837 147.219C334.564 146.061 334.297 144.899 334.024 143.741C333.925 143.327 333.759 142.937 333.692 142.514C333.466 141.044 333.333 139.543 332.95 138.135C332.895 137.92 332.967 137.814 333.171 137.721C334.023 137.337 334.873 136.933 335.731 136.551C336.194 136.339 336.317 136.401 336.386 136.889ZM335.609 134.952C335.711 134.925 335.863 134.945 335.92 135.014C335.991 135.106 335.989 135.265 336.019 135.428C335.896 135.506 335.808 135.582 335.718 135.606C334.739 135.907 333.765 136.197 332.784 136.49C332.634 136.535 332.482 136.573 332.428 136.371C332.376 136.176 332.472 136.025 332.638 135.954C333.057 135.766 333.484 135.574 333.914 135.428C334.474 135.245 335.043 135.096 335.609 134.952ZM333.184 133.614C333.579 133.445 333.982 133.323 334.388 133.182C334.422 133.167 334.458 133.178 334.533 133.175C334.569 133.256 334.629 133.345 334.65 133.447C334.79 134.206 334.893 134.109 334.115 134.336C333.876 134.405 333.634 134.467 333.398 134.543C333.186 134.614 333.081 134.537 333.047 134.341C333.025 134.213 332.97 134.081 332.994 133.954C333.013 133.838 333.095 133.651 333.184 133.614ZM335.363 159.87C334.84 159.642 334.334 159.388 333.819 159.156C332.16 158.413 330.41 157.893 328.643 157.387C327.775 157.139 326.901 156.92 325.973 156.846C325.796 156.831 325.649 156.717 325.477 156.678C325.094 156.582 324.717 156.443 324.316 156.418C323.462 156.359 322.61 156.295 321.854 155.953C321.691 155.878 321.57 155.726 321.426 155.606C321.574 155.439 321.695 155.226 321.867 155.111C322.089 154.96 322.349 154.827 322.582 154.801C322.88 154.769 323.013 154.611 323.116 154.36C323.599 153.206 324.083 152.051 324.566 150.897C324.573 150.88 324.577 150.855 324.589 150.84C325.278 149.504 325.233 148.19 325.185 146.844C325.085 144.144 325.874 141.602 327.834 139.362C328.61 138.468 329.528 137.841 330.577 137.479C330.764 137.413 330.858 137.461 330.917 137.625C330.98 137.805 331.042 137.99 331.118 138.166C331.199 138.344 331.126 138.438 330.949 138.538C330.516 138.773 330.083 138.995 329.672 139.274C328.555 140.04 327.715 141.048 327.182 142.322C326.839 143.148 326.491 143.971 326.163 144.801C325.8 145.716 325.804 146.614 325.915 147.499C325.949 147.753 326.002 147.999 326.048 148.25C326.105 148.542 326.255 148.748 326.512 148.857C326.964 149.051 327.413 149.25 327.857 149.447C328.166 149.585 328.197 149.633 328.04 149.989C327.731 150.703 327.364 151.406 327.091 152.13C326.769 152.987 326.503 153.861 326.239 154.73C326.144 155.047 326.225 155.308 326.491 155.452C326.88 155.659 327.253 155.906 327.67 156.057C328.355 156.308 329.072 156.492 329.773 156.703C329.769 156.714 329.766 156.72 329.762 156.731C330.717 157.018 331.695 157.262 332.619 157.61C333.154 157.809 333.611 158.184 334.111 158.469C334.58 158.731 335.06 158.979 335.529 159.241C335.608 159.284 335.701 159.364 335.719 159.446C335.741 159.574 335.723 159.729 335.672 159.854C335.665 159.884 335.452 159.903 335.363 159.87Z" fill="#E8E8E8"/>
<path d="M327.138 149.247C326.83 148.897 326.418 148.869 325.881 149.15C325.475 149.361 325.216 149.688 325.054 150.114C324.992 150.307 324.912 150.501 324.873 150.695C324.772 151.165 324.99 151.75 325.277 151.843C325.75 151.998 326.45 151.696 326.769 151.195C326.896 150.996 327.02 150.79 327.135 150.58C327.413 150.08 327.414 149.561 327.138 149.247ZM326.14 150.736C325.961 150.49 326.003 150.374 326.313 150.217C326.42 150.416 326.311 150.57 326.14 150.736Z" fill="#E8E8E8"/>
<path d="M333.829 142.464C333.828 142.773 334.002 142.935 334.266 143.002C334.728 143.116 335.129 142.876 335.496 142.537C336.527 141.581 336.113 140.163 335.395 139.92C335.186 139.928 334.952 139.857 334.774 139.957C334.321 140.213 333.916 140.586 333.861 141.155C333.812 141.597 333.828 142.033 333.829 142.464ZM335.047 140.953C335.103 140.9 335.248 140.879 335.307 140.916C335.53 141.042 335.594 141.389 335.482 141.677C335.363 141.982 335.151 142.04 334.975 141.826C334.808 141.621 334.832 141.172 335.047 140.953Z" fill="#E8E8E8"/>
<path d="M21.7215 77.6623C20.4497 77.1254 19.1475 76.6393 17.9119 76.0383C14.7614 74.5019 11.6316 72.9185 8.49596 71.3485C7.80623 71.0017 7.12622 70.6511 6.43944 70.2976C6.02119 70.0814 5.59968 69.9273 5.10302 70.0355C4.75671 70.1119 4.54675 69.8961 4.35065 69.6305C4.07958 69.2618 3.7988 68.8969 3.45857 68.5943C2.91307 68.1018 2.58033 67.5083 2.4071 66.8073C2.07122 65.4177 2.26519 64.0452 2.70302 62.7199C3.5619 60.1258 4.75314 57.688 6.49586 55.5465C7.01691 54.9081 7.65853 54.3603 8.26928 53.7915C8.57127 53.5057 8.96908 53.4034 9.36592 53.4676C10.0231 53.5781 10.6938 53.6943 11.3301 53.9072C14.4525 54.9232 17.367 56.3759 20.3009 57.821C22.3519 58.8298 24.4891 59.6604 26.5931 60.5485C27.2358 60.8198 27.9188 60.9809 28.5615 61.2522C30.2266 61.971 31.8838 62.7261 33.5527 63.4544C34.1383 63.7095 34.3408 64.2162 34.3841 64.7749C34.4715 65.9086 34.5297 67.0539 33.9858 68.1277C33.878 68.3365 33.953 68.4397 34.1551 68.5091C34.4345 68.6032 34.714 68.6973 34.9846 68.8116C35.4649 69.0143 35.7254 69.3707 35.7378 69.9084C35.7608 70.9513 35.8594 71.9864 35.5812 73.0214C35.2644 74.1991 34.7005 75.2088 33.706 75.9574C33.236 76.3153 32.7554 76.6609 32.2527 76.9653C31.9999 77.1209 31.6836 77.202 31.3897 77.2686C31.2655 77.2957 31.0943 77.2473 30.9785 77.1825C30.5352 76.9318 30.1067 76.6476 29.6576 76.4103C29.5658 76.3637 29.3601 76.412 29.2716 76.4858C28.5481 77.1104 27.8285 77.7444 27.1224 78.3842C27.0123 78.4888 26.931 78.6373 26.8759 78.7809C26.6409 79.389 26.1795 79.5996 25.5473 79.3408C24.259 78.8049 22.9766 78.2556 21.6912 77.7131C21.7038 77.7025 21.7127 77.6824 21.7215 77.6623ZM22.3957 76.1824C22.4045 76.1623 22.4133 76.1422 22.4192 76.1288C23.3325 76.5143 24.2488 76.8931 25.1591 77.2853C25.508 77.4405 25.7825 77.3815 26.0486 77.1044C26.5711 76.554 27.1147 76.0284 27.6545 75.4933C28.8346 74.3224 29.9046 73.0732 30.6611 71.5884C31.6736 69.5758 32.2118 67.4743 32.1406 65.2268C32.1319 64.8813 32.0052 64.6769 31.6767 64.5302C30.8572 64.1684 30.0651 63.7626 29.2516 63.3874C28.8854 63.2169 28.5103 63.0665 28.1294 62.9296C27.6605 62.7555 27.1711 62.6284 26.7081 62.4409C25.3762 61.8946 24.0494 61.3187 22.7204 60.7657C22.3754 60.62 22.286 60.6776 22.2566 61.0547C22.2092 61.7103 22.188 62.361 22.1339 63.0137C21.9414 65.4599 21.1639 67.7226 19.7628 69.762C18.9382 70.9637 17.8821 71.9803 16.801 72.9625C16.4825 73.2493 16.5039 73.4014 16.8769 73.5748C18.732 74.4452 20.5638 75.3138 22.3957 76.1824ZM5.10896 60.9855C4.94458 61.4327 4.70983 61.9854 4.53214 62.5541C4.18681 63.6323 3.88206 64.7277 4.01301 65.8718C4.05636 66.2477 4.18886 66.6216 4.33991 66.9714C4.47185 67.2735 4.73809 67.3064 5.00768 67.0944C5.21399 66.9351 5.40001 66.7672 5.58897 66.5926C6.04578 66.1735 6.53816 65.8011 6.78294 65.1891C7.70284 62.9308 8.48831 60.6316 8.89756 58.2213C9.05099 57.3244 9.11145 56.4201 9.18839 55.5147C9.20081 55.3769 9.06408 55.2317 8.99707 55.0922C8.86495 55.1556 8.70488 55.1914 8.60451 55.2921C8.41555 55.4666 8.26129 55.6718 8.0935 55.8712C6.8224 57.3772 6.0216 59.1454 5.10896 60.9855ZM13.8017 63.4149C13.7987 63.4216 13.7987 63.4216 13.7958 63.4283C13.5049 63.3055 13.214 63.1827 12.9163 63.0571C12.8825 63.0428 12.8486 63.0285 12.8148 63.0142C12.4368 62.8706 12.0382 62.9566 11.8376 63.2853C11.6733 63.5497 11.5243 63.8524 11.4809 64.152C11.4496 64.3693 11.5339 64.7069 11.693 64.8376C12.0835 65.1535 12.5247 65.4271 12.9789 65.6347C13.7992 66.0128 14.6401 66.3439 15.4773 66.6655C15.8958 66.8262 16.33 66.9698 16.7674 67.0511C16.9242 67.0775 17.1961 66.9698 17.288 66.8337C17.6357 66.3526 17.6739 65.7726 17.5521 65.2284C17.4567 64.8067 16.9716 64.7609 16.6257 64.599C16.4933 64.5351 16.3492 64.4981 16.2139 64.441C15.4185 64.0974 14.6067 63.7547 13.8017 63.4149ZM31.158 75.2951C31.4512 75.5222 31.7454 75.4001 32.0377 75.1181C32.33 74.8361 32.6743 74.6 32.9222 74.2913C33.2286 73.9041 33.5866 73.4909 33.7113 73.0428C33.9253 72.2271 33.9854 71.3782 34.0988 70.5359C34.1513 70.1607 33.8799 70.0302 33.581 69.9438C33.2589 69.8555 33.2196 70.1092 33.1342 70.3036C33.0841 70.4176 33.0273 70.5287 33.0005 70.6445C32.6199 72.1132 31.7835 73.3418 30.9133 74.556C30.5959 74.9864 30.6023 75.0447 31.158 75.2951ZM15.5238 62.9814C15.5488 63.0158 15.5738 63.0502 15.5988 63.0846C15.7571 63.0163 15.9163 62.9643 16.0602 62.874C16.8477 62.3958 17.6208 61.8955 18.4227 61.4392C18.6764 61.2999 19.0071 61.2408 19.3046 61.2392C19.7144 61.2374 19.8975 61.569 19.6949 61.9206C19.5677 62.1371 19.3902 62.3404 19.1898 62.4863C18.6848 62.8692 18.1382 63.2187 17.6264 63.5987C17.5311 63.6698 17.4271 63.8882 17.4598 63.9417C17.5521 64.0601 17.7086 64.1421 17.8565 64.1886C17.9406 64.2162 18.0689 64.1432 18.1661 64.1047C18.4312 63.9941 18.679 63.8682 18.9411 63.7642C19.517 63.5304 19.5508 63.5447 19.9822 64.005C20.0207 64.0451 20.0778 64.0612 20.1772 64.127C20.2309 63.8953 20.2863 63.6962 20.3087 63.499C20.3533 63.1602 20.3814 62.8224 20.4095 62.4845C20.4699 61.7629 20.54 61.0375 20.5801 60.3073C20.6133 59.757 20.4077 59.6225 19.9325 59.8829C19.4251 60.1615 18.9178 60.4401 18.446 60.7656C17.5405 61.3847 16.6628 62.0316 15.7814 62.6689C15.6831 62.7466 15.6107 62.875 15.5238 62.9814ZM9.60757 62.7572C9.63256 62.7916 9.66432 62.8289 9.68931 62.8633C9.91003 62.7259 10.1384 62.6077 10.3379 62.4456C11.4699 61.5484 12.5912 60.6388 13.7299 59.7445C14.4686 59.1582 15.2324 58.6063 15.9779 58.0229C16.0635 57.9557 16.1586 57.7575 16.1222 57.6944C15.9658 57.4297 15.3915 57.386 15.1317 57.5942C13.5774 58.8138 12.0346 60.0621 10.4494 61.2607C9.91232 61.6619 9.74172 62.178 9.60757 62.7572ZM18.4513 59.0193C18.4275 58.9456 18.4193 58.8548 18.3702 58.8022C18.0603 58.4489 17.486 58.4052 17.119 58.7112C15.8311 59.781 14.5402 60.8575 13.2522 61.9272C13.1666 61.9944 13.078 62.0683 13.0165 62.1536C12.9638 62.2187 12.9525 62.3173 12.924 62.4006C13.0081 62.4282 13.1181 62.5064 13.1861 62.4795C13.4191 62.3871 13.6542 62.2717 13.8652 62.1383C15.3135 61.16 16.7482 60.1761 18.1867 59.2017C18.2665 59.1479 18.3462 59.0941 18.4513 59.0193ZM18.9642 67.6366C17.3927 68.6582 15.9136 69.6155 14.4345 70.5727C14.9825 70.6213 15.5619 70.4525 16.0928 70.1203C16.3582 69.9542 16.5977 69.9201 16.8895 70.0592C17.0016 70.1145 17.242 70.0967 17.3102 70.0143C17.9199 69.302 18.5295 68.5897 18.9642 67.6366ZM15.6911 68.0591C15.6855 68.0171 15.6761 67.9654 15.6705 67.9233C15.4711 67.9027 15.2652 67.8237 15.0789 67.8643C14.2165 68.0567 13.5775 68.6532 12.8656 69.1237C12.7762 69.1813 12.8654 69.4892 12.8692 69.6815C13.0098 69.6535 13.1687 69.6569 13.2843 69.5945C13.995 69.1633 14.7049 68.7158 15.405 68.2722C15.5042 68.2107 15.5957 68.1302 15.6911 68.0591ZM10.8026 57.4995C10.8499 57.5195 10.9011 57.549 10.9485 57.569C11.41 57.1757 11.882 56.7948 12.3329 56.389C12.3836 56.3468 12.329 56.0694 12.2613 56.0409C11.8922 55.8771 11.5151 55.7497 11.1253 55.6329C11.0615 55.6139 10.8796 55.7358 10.8734 55.8047C10.8343 56.3684 10.8252 56.9368 10.8026 57.4995ZM20.0882 64.4392C19.8177 64.635 19.6279 64.7933 19.4169 64.9267C19.0328 65.162 18.7329 65.4249 18.8762 65.9384C18.9038 66.0216 18.8838 66.1403 18.8387 66.2246C18.6202 66.6489 18.8931 66.8675 19.1757 67.0821C19.5128 66.7714 20.0849 65.1769 20.0882 64.4392ZM8.47091 65.4725C8.31297 65.978 8.4197 66.1185 8.92193 66.0523C9.03049 66.0425 9.15466 66.0154 9.23354 65.9454C9.64354 65.578 10.0535 65.2106 10.4288 64.8127C10.501 64.7398 10.4528 64.5208 10.4032 64.3965C10.3879 64.3582 10.1593 64.3492 10.066 64.3972C9.66079 64.6077 9.26616 64.8306 8.88299 65.0821C8.7226 65.1734 8.60249 65.3372 8.47091 65.4725ZM10.2362 68.2999C10.8682 68.7415 10.9273 68.7347 11.4589 68.2915C11.7023 68.0842 11.9707 67.9114 12.2285 67.7262C12.4289 67.5803 12.6332 67.4439 12.82 67.2924C12.8736 67.2434 12.8887 67.1544 12.9211 67.0807C12.8399 67.0464 12.757 66.9796 12.6746 66.9846C12.569 66.9877 12.4592 67.0367 12.363 67.0915C11.7429 67.4258 11.1296 67.763 10.5164 68.1003C10.426 68.1416 10.3539 68.2145 10.2362 68.2999ZM11.3691 66.0679C11.3288 65.9953 11.2818 65.9198 11.2415 65.8472C11.15 65.9277 11.0728 66.0303 10.9669 66.0889C10.5782 66.2983 10.175 66.4858 9.79303 66.6981C9.65501 66.775 9.54962 66.9054 9.42601 67.0042C9.6078 67.065 9.79428 67.1517 9.98697 67.1694C10.0867 67.1798 10.2141 67.0905 10.3057 67.0099C10.6006 66.7767 10.8917 66.534 11.1789 66.2817C11.2519 66.2251 11.3037 66.1436 11.3691 66.0679ZM10.5031 59.1852C10.5357 59.2387 10.5684 59.2922 10.604 59.339C10.7896 59.2267 10.9783 59.1076 11.1572 58.9924C11.1246 58.9389 11.0958 58.8949 11.0631 58.8414C10.8775 58.9538 10.6918 59.0661 10.5031 59.1852Z" fill="#E8E8E8"/>
<path d="M23.8622 70.1977C23.6316 70.0845 23.3981 69.9781 23.1734 69.8515C22.724 69.5984 22.5735 69.1938 22.7529 68.7855C22.9256 68.3744 23.3282 68.1872 23.8238 68.317C24.3696 68.46 24.9066 68.6231 25.4406 68.7929C25.6926 68.8755 25.8487 68.8302 25.9845 68.594C26.2339 68.1359 26.5103 67.6892 26.7799 67.2396C26.989 66.8915 27.3528 66.7197 27.7124 66.7762C28.0787 66.8356 28.3559 67.0795 28.2929 67.4417C28.2245 67.8889 28.0903 68.34 27.8906 68.7397C27.4601 69.5736 27.4436 69.5746 28.3055 69.9462C28.4608 70.0118 28.623 70.0802 28.7754 70.1524C29.2965 70.3882 29.5113 70.8834 29.3063 71.3682C29.1072 71.8396 28.5524 72.0815 28.0474 71.9002C27.7143 71.7834 27.3833 71.6437 27.0649 71.4935C26.757 71.3557 26.5631 71.4325 26.4105 71.7252C26.2128 72.102 26.0017 72.473 25.7665 72.826C25.4492 73.311 25.0816 73.4733 24.7021 73.3528C24.366 73.2427 24.1719 73.0101 24.2232 72.6747C24.2954 72.2371 24.4343 71.8117 24.5567 71.3873C24.5962 71.2611 24.6588 71.1368 24.7253 71.022C24.8788 70.7456 24.7928 70.5586 24.5158 70.4417C24.2996 70.3505 24.0902 70.2621 23.874 70.1709C23.8651 70.191 23.8622 70.1977 23.8622 70.1977Z" fill="#E8E8E8"/>
<path d="M248.959 27.5728C249.091 28.5363 248.921 29.4536 248.178 30.2322C247.691 30.741 247.126 31.0416 246.406 30.9953C245.958 30.9722 245.501 30.9414 245.06 30.9722C242.971 31.1033 241.602 29.1839 241.873 27.2876C241.942 26.8097 242.097 26.3394 242.244 25.8846C242.329 25.6226 242.322 25.4144 242.097 25.2294C241.679 24.8903 241.277 24.5203 240.836 24.2273C239.939 23.6338 239.01 23.0865 238.097 22.5084C237.842 22.3465 237.595 22.2771 237.347 22.4698C235.854 23.6261 234.183 23.5567 232.45 23.2175C231.212 22.9786 230.059 22.6009 229.162 21.6604C228.984 21.4754 228.821 21.275 228.667 21.0669C228.504 20.8433 228.311 20.7817 228.063 20.8742C226.57 21.4138 225.069 21.9688 223.576 22.5084C223.228 22.6317 223.042 22.8629 223.004 23.2484C222.864 24.6128 222.199 25.7536 221.332 26.7711C221.108 27.0409 220.698 27.2336 220.342 27.2953C219.561 27.4263 218.779 27.2953 218.044 26.9792C216.42 26.2778 215.654 24.6744 216.149 22.9169C216.466 21.7915 217.039 20.8125 218.16 20.3346C219.53 19.7487 220.814 20.0031 221.92 20.9898C222.245 21.275 222.524 21.329 222.926 21.1748C224.458 20.5813 225.998 20.0108 227.545 19.4558C227.878 19.3325 227.986 19.1629 227.901 18.8237C227.823 18.5154 227.777 18.1916 227.723 17.8833C227.63 17.3129 227.669 16.7579 227.924 16.2337C229.069 13.821 230.872 12.3024 233.603 12.0095C233.719 11.9941 233.827 11.9555 233.943 11.9478C234.314 11.917 234.438 11.7166 234.438 11.3543C234.438 10.0824 234.454 8.81819 234.469 7.5463C234.469 7.24568 234.407 6.97588 234.074 6.94505C232.713 6.8063 232.156 5.82732 231.839 4.7096C231.552 3.69209 231.645 2.65145 232.117 1.67248C232.581 0.670389 233.401 0.200175 234.454 0.07684C234.469 0.07684 234.477 0.07684 234.492 0.07684C235.297 -0.00795267 236.117 -0.146704 236.813 0.454553C237.726 1.26394 238.43 2.18895 238.67 3.43C238.809 4.13918 238.685 4.82523 238.531 5.48045C238.33 6.31296 237.656 6.73692 236.829 6.9065C236.341 7.00671 236.272 7.06838 236.295 7.56172C236.349 8.84132 236.395 10.1209 236.45 11.4082C236.473 11.9632 236.542 11.9864 237.107 12.0018C237.618 12.0172 238.144 12.0403 238.631 12.1714C239.428 12.3795 239.83 12.9576 240.001 13.767C240.434 15.856 240.295 17.8679 239.366 19.8027C239.258 20.034 239.32 20.219 239.505 20.3808C240.279 21.0592 241.037 21.7529 241.826 22.4081C242.074 22.6163 242.391 22.755 242.677 22.9323C242.948 23.1019 243.25 23.2484 243.467 23.4642C243.931 23.9421 244.472 24.1194 245.138 24.0886C246.136 24.05 247.079 24.2659 247.9 24.8826C248.58 25.3913 249.029 26.0388 248.967 26.9407C248.944 27.1334 248.959 27.3261 248.959 27.5728ZM230.887 19.1783C230.918 19.2014 230.949 19.2246 230.98 19.24C231.034 19.2092 231.088 19.186 231.135 19.1475C231.429 18.8623 231.707 18.5616 232.017 18.2841C232.434 17.9064 232.891 17.6135 233.486 17.6135C233.811 17.6135 234.121 17.6598 234.252 17.9989C234.392 18.3612 234.206 18.5848 233.943 18.8546C233.363 19.4635 232.844 20.1342 232.326 20.7894C232.272 20.8588 232.334 21.0129 232.341 21.1208C232.442 21.0823 232.566 21.0746 232.635 21.0129C232.79 20.8588 232.906 20.6738 233.053 20.5119C233.363 20.1804 233.711 19.9337 234.191 19.9646C234.554 19.9877 234.686 20.2267 234.515 20.5427C234.407 20.7431 234.291 20.9281 234.136 21.1902C234.368 21.2133 234.523 21.2519 234.678 21.2442C235.436 21.1825 236.009 20.7894 236.457 20.2112C237.417 18.9779 237.927 17.5827 237.958 16.0179C237.981 15.0774 237.579 14.5147 236.651 14.2912C235.73 14.0676 234.794 14.0522 233.866 14.2835C233.208 14.4453 232.589 14.692 232.233 15.3318C231.947 15.8483 231.993 15.9022 232.512 16.0949C232.736 16.1797 232.968 16.3879 233.084 16.6037C233.223 16.8581 232.945 16.9968 232.782 17.151C232.233 17.6752 231.684 18.1916 231.15 18.7312C231.034 18.8623 230.972 19.0319 230.887 19.1783ZM245.695 25.8076C245.354 25.8846 245.099 25.8924 244.89 26.008C244.72 26.1005 244.488 26.3163 244.496 26.4628C244.55 27.303 244.588 28.1586 245.215 28.8293C245.455 29.0836 245.718 29.1376 246.004 28.9603C246.561 28.6211 247.018 28.1818 247.304 27.5805C247.567 27.0255 247.428 26.4782 246.878 26.2084C246.492 26.0157 246.043 25.9232 245.695 25.8076ZM234.252 4.38585C234.229 4.78669 234.361 5.04877 234.655 5.21836C235.011 5.41878 235.382 5.47274 235.753 5.24149C236.279 4.91002 236.581 4.41668 236.736 3.82313C236.945 3.01375 236.395 2.3277 235.56 2.37395C235.421 2.38166 235.243 2.44333 235.15 2.53583C234.639 3.07542 234.33 3.70751 234.252 4.38585ZM219.422 23.603C219.414 23.603 219.406 23.603 219.398 23.603C219.398 23.8573 219.406 24.1194 219.398 24.3738C219.375 24.7669 219.569 25.0521 219.832 25.3142C220.04 25.5224 220.226 25.5224 220.427 25.3065C221.155 24.5511 221.425 23.6492 221.278 22.624C221.232 22.2848 220.992 22.0459 220.667 21.9456C220.45 21.8763 219.522 22.3234 219.468 22.4929C219.437 22.5777 219.429 22.6702 219.429 22.755C219.422 23.0402 219.422 23.3177 219.422 23.603Z" fill="#E8E8E8"/>
</svg>
