<svg width="1440" height="314" viewBox="0 0 1440 314" fill="none" xmlns="http://www.w3.org/2000/svg">
<g opacity="0.5">
<path d="M135.5 259.998L135.533 260.497L135.5 259.998ZM319.5 33.9999L319.492 33.5L319.5 33.9999ZM549.5 200.499L549.538 200L549.5 200.499ZM805 46.9985L805.039 46.5001L805 46.9985ZM978.5 220.499L978.482 220.998L978.5 220.499ZM1116.5 145.999L1116.37 145.515L1116.5 145.999ZM1287 145.999L1287.16 145.525L1287.16 145.525L1287 145.999ZM-3 79.4985C-3.49164 79.5896 -3.49164 79.5896 -3.49164 79.5896C-3.49163 79.5896 -3.49163 79.5896 -3.49163 79.5896C-3.49162 79.5896 -3.49162 79.5897 -3.49161 79.5897C-3.49159 79.5898 -3.49156 79.59 -3.49153 79.5902C-3.49146 79.5905 -3.49137 79.591 -3.49124 79.5917C-3.49099 79.593 -3.49063 79.595 -3.49014 79.5976C-3.48917 79.6028 -3.48773 79.6105 -3.48582 79.6207C-3.482 79.6412 -3.47629 79.6715 -3.46867 79.7117C-3.45345 79.7922 -3.43061 79.9118 -3.40006 80.0696C-3.33896 80.385 -3.24699 80.8527 -3.12328 81.4629L-2.14321 81.2643C-2.26633 80.6569 -2.35774 80.1921 -2.41831 79.8794C-2.44859 79.723 -2.47116 79.6047 -2.48614 79.5257C-2.49362 79.4861 -2.49921 79.4564 -2.50291 79.4367C-2.50476 79.4268 -2.50614 79.4194 -2.50704 79.4145C-2.5075 79.4121 -2.50783 79.4103 -2.50805 79.4091C-2.50816 79.4085 -2.50824 79.4081 -2.50829 79.4078C-2.50832 79.4077 -2.50834 79.4076 -2.50835 79.4075C-2.50835 79.4075 -2.50836 79.4075 -2.50836 79.4075C-2.50836 79.4075 -2.50836 79.4075 -2.50836 79.4074C-2.50836 79.4075 -2.50836 79.4075 -3 79.4985ZM-1.46991 89.0711C-1.19824 90.2547 -0.898079 91.5363 -0.568744 92.9085L0.40364 92.6751C0.0751017 91.3062 -0.224307 90.0279 -0.495254 88.8474L-1.46991 89.0711ZM1.32331 100.486C1.64027 101.709 1.9738 102.975 2.32419 104.281L3.29003 104.022C2.9404 102.719 2.60759 101.456 2.29134 100.235L1.32331 100.486ZM4.41398 111.815C4.77167 113.063 5.14239 114.338 5.5263 115.636L6.48524 115.352C6.10215 114.057 5.73223 112.785 5.37531 111.539L4.41398 111.815ZM7.80646 123.113C8.1873 124.325 8.57859 125.553 8.98043 126.794L9.93185 126.487C9.5309 125.248 9.14048 124.023 8.76047 122.813L7.80646 123.113ZM11.4567 134.224C11.8794 135.455 12.3119 136.697 12.7542 137.949L13.697 137.615C13.2557 136.367 12.8243 135.128 12.4026 133.899L11.4567 134.224ZM15.4267 145.291C15.881 146.504 16.3444 147.723 16.8169 148.947L17.7499 148.587C17.2786 147.366 16.8163 146.15 16.3631 144.94L15.4267 145.291ZM19.7124 156.232C20.2024 157.429 20.701 158.629 21.2084 159.831L22.1298 159.443C21.6238 158.243 21.1265 157.047 20.6378 155.853L19.7124 156.232ZM24.3327 167.015C24.8654 168.203 25.4067 169.391 25.9566 170.58L26.8641 170.16C26.3159 168.975 25.7763 167.79 25.2451 166.606L24.3327 167.015ZM29.3304 177.644C29.908 178.815 30.4942 179.985 31.089 181.152L31.98 180.698C31.3872 179.535 30.803 178.369 30.2273 177.202L29.3304 177.644ZM34.7383 188.075C35.3634 189.221 35.997 190.363 36.6395 191.5L37.5102 191.009C36.8702 189.876 36.239 188.738 35.6163 187.596L34.7383 188.075ZM40.5971 198.257C41.2764 199.375 41.9645 200.487 42.6617 201.591L43.5073 201.057C42.8132 199.958 42.1281 198.851 41.4517 197.738L40.5971 198.257ZM46.9625 208.14C47.7012 209.22 48.4491 210.291 49.2064 211.353L50.0206 210.773C49.2672 209.716 48.523 208.65 47.788 207.575L46.9625 208.14ZM53.8914 217.64C54.6948 218.67 55.508 219.689 56.331 220.696L57.1053 220.064C56.2873 219.063 55.4789 218.049 54.6801 217.025L53.8914 217.64ZM61.4445 226.649C62.3228 227.62 63.2114 228.577 64.1104 229.518L64.8336 228.827C63.941 227.893 63.0585 226.942 62.1862 225.978L61.4445 226.649ZM69.6837 235.027C70.6479 235.924 71.6231 236.804 72.6096 237.665L73.2671 236.911C72.2889 236.058 71.3216 235.185 70.3651 234.295L69.6837 235.027ZM78.6924 242.619C79.7384 243.411 80.7961 244.182 81.8656 244.931L82.4391 244.112C81.3801 243.37 80.3325 242.606 79.2962 241.822L78.6924 242.619ZM88.4718 249.176C89.6012 249.838 90.7428 250.476 91.8967 251.087L92.3651 250.204C91.224 249.599 90.0949 248.969 88.9776 248.313L88.4718 249.176ZM98.9998 254.453C100.206 254.958 101.424 255.435 102.655 255.883L102.997 254.943C101.781 254.501 100.577 254.03 99.386 253.531L98.9998 254.453ZM110.16 258.207C111.425 258.531 112.701 258.825 113.99 259.088L114.19 258.108C112.917 257.849 111.657 257.558 110.409 257.238L110.16 258.207ZM121.749 260.271C123.055 260.404 124.373 260.505 125.703 260.574L125.755 259.576C124.442 259.507 123.14 259.407 121.851 259.276L121.749 260.271ZM133.535 260.607C134.198 260.578 134.864 260.542 135.533 260.497L135.467 259.5C134.806 259.543 134.148 259.579 133.492 259.608L133.535 260.607ZM135.533 260.497C136.221 260.452 136.903 260.397 137.58 260.333L137.485 259.337C136.818 259.4 136.145 259.455 135.467 259.5L135.533 260.497ZM145.47 259.128C146.803 258.844 148.112 258.522 149.4 258.162L149.131 257.199C147.863 257.553 146.574 257.87 145.262 258.15L145.47 259.128ZM156.955 255.533C158.19 255.015 159.403 254.459 160.595 253.868L160.15 252.972C158.977 253.554 157.783 254.101 156.568 254.612L156.955 255.533ZM167.541 249.877C168.654 249.146 169.747 248.382 170.82 247.586L170.225 246.782C169.166 247.567 168.089 248.321 166.992 249.042L167.541 249.877ZM176.991 242.478C177.966 241.583 178.925 240.66 179.867 239.71L179.157 239.006C178.225 239.945 177.278 240.857 176.315 241.741L176.991 242.478ZM185.248 233.798C186.104 232.777 186.946 231.734 187.774 230.668L186.985 230.054C186.164 231.11 185.33 232.145 184.482 233.156L185.248 233.798ZM192.458 224.212C193.202 223.116 193.935 222.002 194.657 220.871L193.814 220.333C193.097 221.456 192.369 222.562 191.63 223.65L192.458 224.212ZM198.793 214.016C199.444 212.878 200.086 211.725 200.72 210.56L199.841 210.082C199.211 211.242 198.572 212.388 197.925 213.52L198.793 214.016ZM204.405 203.467C204.992 202.286 205.573 201.095 206.147 199.893L205.244 199.462C204.673 200.659 204.095 201.846 203.51 203.022L204.405 203.467ZM209.485 192.645C210.023 191.435 210.556 190.217 211.084 188.991L210.166 188.595C209.639 189.818 209.108 191.032 208.571 192.238L209.485 192.645ZM214.164 181.64C214.666 180.411 215.163 179.176 215.657 177.936L214.728 177.566C214.235 178.804 213.739 180.036 213.238 181.262L214.164 181.64ZM218.555 170.519C219.03 169.278 219.504 168.034 219.974 166.786L219.039 166.433C218.568 167.679 218.096 168.922 217.621 170.161L218.555 170.519ZM222.755 159.328C223.215 158.081 223.673 156.833 224.13 155.583L223.191 155.24C222.734 156.489 222.276 157.736 221.817 158.982L222.755 159.328ZM226.855 148.104C227.308 146.856 227.76 145.608 228.213 144.361L227.273 144.019C226.82 145.267 226.368 146.515 225.915 147.763L226.855 148.104ZM230.937 136.88C231.393 135.632 231.851 134.386 232.309 133.143L231.371 132.797C230.912 134.041 230.454 135.288 229.998 136.537L230.937 136.88ZM235.086 125.689C235.556 124.443 236.028 123.2 236.502 121.962L235.569 121.605C235.094 122.844 234.621 124.088 234.15 125.336L235.086 125.689ZM239.389 114.566C239.884 113.324 240.382 112.087 240.883 110.857L239.957 110.48C239.455 111.712 238.956 112.952 238.46 114.196L239.389 114.566ZM243.951 103.535C244.48 102.307 245.014 101.088 245.552 99.8775L244.639 99.4709C244.098 100.685 243.563 101.908 243.032 103.139L243.951 103.535ZM248.879 92.6649C249.454 91.4627 250.036 90.2715 250.624 89.092L249.729 88.6457C249.138 89.8302 248.554 91.0263 247.977 92.2331L248.879 92.6649ZM254.301 82.0464C254.937 80.8838 255.581 79.7353 256.233 78.6019L255.367 78.1029C254.71 79.2429 254.063 80.3977 253.424 81.5665L254.301 82.0464ZM260.369 71.8119C261.088 70.6986 261.817 69.6035 262.557 68.5277L261.733 67.9609C260.988 69.0451 260.253 70.1482 259.529 71.2694L260.369 71.8119ZM267.255 62.1575C268.088 61.1071 268.935 60.0805 269.795 59.0786L269.036 58.4271C268.167 59.4392 267.313 60.476 266.472 61.5362L267.255 62.1575ZM275.2 53.3093C276.149 52.3848 277.114 51.4891 278.097 50.6234L277.436 49.873C276.44 50.7502 275.463 51.6573 274.502 52.5931L275.2 53.3093ZM284.298 45.7332C285.376 44.9783 286.474 44.2572 287.592 43.5713L287.069 42.7189C285.934 43.4156 284.819 44.1478 283.725 44.914L284.298 45.7332ZM294.564 39.8818C295.755 39.347 296.968 38.8492 298.204 38.3897L297.855 37.4524C296.599 37.9197 295.366 38.4258 294.155 38.9695L294.564 39.8818ZM305.744 36.1346C307.026 35.8404 308.33 35.5841 309.658 35.367L309.496 34.3802C308.148 34.6006 306.823 34.8609 305.521 35.16L305.744 36.1346ZM317.479 34.5625C318.15 34.5323 318.826 34.5114 319.508 34.4998L319.492 33.5C318.8 33.5117 318.114 33.5329 317.434 33.5635L317.479 34.5625ZM319.508 34.4998C320.189 34.4883 320.868 34.4862 321.544 34.4935L321.555 33.4935C320.869 33.4862 320.181 33.4883 319.492 33.5L319.508 34.4998ZM329.582 35.0211C330.921 35.1828 332.251 35.3807 333.573 35.6134L333.747 34.6285C332.407 34.3927 331.059 34.1922 329.702 34.0283L329.582 35.0211ZM341.427 37.4244C342.718 37.7924 344.001 38.193 345.277 38.6251L345.598 37.6779C344.307 37.2408 343.008 36.8353 341.702 36.4627L341.427 37.4244ZM352.796 41.5623C354.021 42.1044 355.239 42.6745 356.452 43.2717L356.894 42.3746C355.669 41.7716 354.438 41.1956 353.2 40.6478L352.796 41.5623ZM363.56 47.1127C364.719 47.7938 365.872 48.4986 367.02 49.2258L367.555 48.381C366.398 47.648 365.235 46.9376 364.067 46.2506L363.56 47.1127ZM373.727 53.7623C374.811 54.5413 375.891 55.3393 376.967 56.1552L377.571 55.3585C376.489 54.5376 375.402 53.7345 374.311 52.9503L373.727 53.7623ZM383.303 61.2001C384.338 62.0627 385.37 62.9406 386.399 63.8331L387.054 63.0777C386.021 62.181 384.984 61.2988 383.943 60.4318L383.303 61.2001ZM392.418 69.2482C393.405 70.1659 394.388 71.0958 395.369 72.0369L396.061 71.3154C395.077 70.3709 394.09 69.4375 393.1 68.5162L392.418 69.2482ZM401.15 77.7378C402.093 78.6911 403.033 79.6537 403.972 80.6247L404.691 79.9297C403.75 78.9561 402.807 77.9909 401.861 77.0347L401.15 77.7378ZM409.555 86.5177C410.473 87.5048 411.39 88.4988 412.305 89.499L413.043 88.8239C412.126 87.8219 411.207 86.8259 410.287 85.8367L409.555 86.5177ZM417.742 95.5242C418.642 96.5342 419.541 97.549 420.44 98.5678L421.19 97.9065C420.29 96.8865 419.39 95.8704 418.489 94.8589L417.742 95.5242ZM425.78 104.677C426.666 105.699 427.552 106.724 428.438 107.751L429.195 107.098C428.309 106.07 427.422 105.045 426.535 104.022L425.78 104.677ZM433.732 113.909C434.612 114.937 435.493 115.965 436.374 116.993L437.133 116.343C436.253 115.314 435.372 114.286 434.491 113.258L433.732 113.909ZM441.662 123.16C442.545 124.188 443.429 125.215 444.313 126.24L445.071 125.587C444.187 124.563 443.303 123.536 442.42 122.509L441.662 123.16ZM449.639 132.38C450.531 133.401 451.424 134.419 452.318 135.433L453.068 134.772C452.175 133.759 451.283 132.742 450.392 131.722L449.639 132.38ZM457.727 141.506C458.633 142.512 459.541 143.513 460.451 144.508L461.189 143.833C460.281 142.84 459.375 141.841 458.47 140.837L457.727 141.506ZM465.99 150.471C466.924 151.459 467.86 152.44 468.798 153.413L469.518 152.719C468.582 151.748 467.648 150.77 466.717 149.784L465.99 150.471ZM474.502 159.197C475.474 160.159 476.448 161.111 477.425 162.053L478.119 161.333C477.145 160.394 476.174 159.445 475.206 158.486L474.502 159.197ZM483.367 167.609C484.377 168.524 485.389 169.425 486.405 170.313L487.063 169.56C486.052 168.676 485.044 167.779 484.039 166.868L483.367 167.609ZM492.642 175.554C493.701 176.406 494.763 177.243 495.83 178.063L496.439 177.27C495.379 176.455 494.322 175.623 493.27 174.775L492.642 175.554ZM502.405 182.861C503.536 183.641 504.671 184.401 505.812 185.14L506.356 184.3C505.223 183.567 504.096 182.812 502.973 182.038L502.405 182.861ZM512.79 189.351C513.979 190.015 515.175 190.656 516.377 191.272L516.833 190.382C515.642 189.772 514.457 189.137 513.278 188.478L512.79 189.351ZM523.78 194.706C525.04 195.229 526.308 195.724 527.583 196.189L527.926 195.25C526.665 194.79 525.41 194.3 524.163 193.782L523.78 194.706ZM535.371 198.627C536.688 198.971 538.014 199.283 539.348 199.561L539.552 198.583C538.235 198.308 536.925 198 535.624 197.659L535.371 198.627ZM547.416 200.815C548.096 200.885 548.778 200.945 549.462 200.997L549.538 200C548.862 199.949 548.189 199.889 547.517 199.82L547.416 200.815ZM549.462 200.997C550.147 201.049 550.832 201.09 551.516 201.119L551.559 200.12C550.885 200.091 550.211 200.051 549.538 200L549.462 200.997ZM559.723 200.95C561.085 200.838 562.446 200.685 563.808 200.492L563.668 199.502C562.325 199.692 560.983 199.843 559.641 199.954L559.723 200.95ZM571.858 198.906C573.173 198.576 574.488 198.212 575.803 197.815L575.514 196.857C574.214 197.25 572.914 197.61 571.615 197.937L571.858 198.906ZM583.542 195.111C584.803 194.612 586.064 194.086 587.325 193.533L586.923 192.617C585.673 193.166 584.423 193.687 583.175 194.181L583.542 195.111ZM594.707 190.002C595.916 189.377 597.124 188.73 598.333 188.062L597.849 187.186C596.648 187.851 595.448 188.493 594.248 189.114L594.707 190.002ZM605.405 183.915C606.546 183.209 607.687 182.485 608.829 181.746L608.285 180.906C607.149 181.643 606.014 182.362 604.879 183.064L605.405 183.915ZM615.611 177.163C616.719 176.385 617.827 175.593 618.935 174.788L618.347 173.979C617.243 174.781 616.14 175.57 615.036 176.345L615.611 177.163ZM625.474 169.89C626.553 169.059 627.632 168.216 628.711 167.363L628.091 166.579C627.015 167.429 625.939 168.269 624.864 169.098L625.474 169.89ZM635.054 162.236C636.103 161.369 637.153 160.494 638.203 159.611L637.559 158.846C636.511 159.727 635.464 160.6 634.417 161.465L635.054 162.236ZM644.406 154.306C645.43 153.417 646.453 152.522 647.477 151.621L646.816 150.87C645.794 151.77 644.772 152.663 643.751 153.551L644.406 154.306ZM653.584 146.183C654.59 145.277 655.595 144.367 656.601 143.454L655.929 142.713C654.924 143.626 653.919 144.535 652.915 145.439L653.584 146.183ZM662.629 137.938C663.627 137.018 664.625 136.096 665.623 135.172L664.943 134.438C663.946 135.362 662.948 136.283 661.951 137.202L662.629 137.938ZM671.603 129.612C672.597 128.684 673.591 127.756 674.585 126.828L673.902 126.097C672.908 127.026 671.914 127.953 670.921 128.88L671.603 129.612ZM680.548 121.254C681.542 120.326 682.536 119.398 683.53 118.471L682.848 117.74C681.854 118.667 680.86 119.595 679.866 120.524L680.548 121.254ZM689.508 112.914C690.505 111.99 691.503 111.069 692.5 110.15L691.823 109.415C690.825 110.334 689.826 111.256 688.828 112.181L689.508 112.914ZM698.523 104.64C699.528 103.727 700.533 102.819 701.538 101.914L700.869 101.171C699.863 102.076 698.857 102.986 697.851 103.9L698.523 104.64ZM707.638 96.4851C708.66 95.586 709.682 94.6928 710.704 93.806L710.048 93.0507C709.025 93.9391 708.001 94.8338 706.977 95.7343L707.638 96.4851ZM716.898 88.5121C717.945 87.6316 718.993 86.7592 720.04 85.8954L719.404 85.124C718.354 85.9898 717.304 86.8643 716.255 87.7466L716.898 88.5121ZM726.368 80.7846C727.445 79.9344 728.521 79.0948 729.597 78.2665L728.987 77.474C727.908 78.305 726.828 79.1471 725.748 79.9997L726.368 80.7846ZM736.117 73.3896C737.221 72.5881 738.326 71.8 739.43 71.026L738.856 70.2072C737.747 70.9844 736.638 71.7756 735.529 72.5802L736.117 73.3896ZM746.185 66.4703C747.321 65.7352 748.458 65.0167 749.593 64.3157L749.068 63.4647C747.926 64.1696 746.784 64.8918 745.642 65.6306L746.185 66.4703ZM756.628 60.2012C757.829 59.5387 759.03 58.8976 760.23 58.2791L759.772 57.3902C758.563 58.0132 757.354 58.6587 756.145 59.3255L756.628 60.2012ZM767.56 54.7862C768.811 54.24 770.062 53.7205 771.312 53.2288L770.946 52.2982C769.684 52.7946 768.422 53.3188 767.16 53.8697L767.56 54.7862ZM778.977 50.5676C780.278 50.1778 781.579 49.8206 782.879 49.4974L782.637 48.5269C781.322 48.8541 780.006 49.2155 778.69 49.6097L778.977 50.5676ZM790.829 47.952C792.172 47.7657 793.515 47.6186 794.857 47.5119L794.778 46.5151C793.416 46.6233 792.054 46.7726 790.691 46.9614L790.829 47.952ZM802.939 47.3707C803.613 47.4018 804.287 47.4438 804.961 47.497L805.039 46.5001C804.355 46.4461 803.67 46.4034 802.985 46.3718L802.939 47.3707ZM804.961 47.497C805.652 47.5515 806.337 47.6162 807.017 47.6909L807.126 46.6969C806.436 46.6211 805.74 46.5554 805.039 46.5001L804.961 47.497ZM815.001 49.0756C816.324 49.3927 817.625 49.7499 818.905 50.1457L819.2 49.1904C817.9 48.7882 816.578 48.4253 815.234 48.1032L815.001 49.0756ZM826.473 53.0346C827.705 53.5976 828.917 54.1984 830.109 54.8354L830.58 53.9534C829.37 53.3069 828.14 52.6969 826.889 52.1251L826.473 53.0346ZM837.024 59.0715C838.134 59.8411 839.226 60.6433 840.301 61.4766L840.914 60.686C839.825 59.8424 838.718 59.0297 837.594 58.2498L837.024 59.0715ZM846.476 66.755C847.46 67.6765 848.429 68.6244 849.386 69.5972L850.099 68.8962C849.133 67.914 848.154 66.9565 847.16 66.0253L846.476 66.755ZM854.875 75.6108C855.749 76.637 856.611 77.6838 857.464 78.7497L858.245 78.1252C857.386 77.0516 856.517 75.9969 855.636 74.9625L854.875 75.6108ZM862.38 85.2525C863.168 86.3526 863.948 87.4683 864.721 88.5985L865.546 88.0342C864.77 86.8982 863.986 85.7764 863.192 84.6699L862.38 85.2525ZM869.192 95.4232C869.913 96.5691 870.629 97.7264 871.338 98.8939L872.193 98.3745C871.48 97.2028 870.762 96.041 870.038 94.8905L869.192 95.4232ZM875.486 105.931C876.161 107.108 876.831 108.292 877.497 109.483L878.37 108.995C877.702 107.801 877.03 106.614 876.354 105.434L875.486 105.931ZM881.425 116.65C882.07 117.849 882.713 119.053 883.354 120.26L884.237 119.791C883.595 118.582 882.952 117.377 882.305 116.176L881.425 116.65ZM887.155 127.498C887.784 128.705 888.412 129.915 889.039 131.125L889.927 130.664C889.299 129.454 888.671 128.244 888.042 127.036L887.155 127.498ZM892.803 138.39C893.431 139.6 894.059 140.81 894.689 142.017L895.575 141.555C894.946 140.348 894.318 139.139 893.69 137.929L892.803 138.39ZM898.498 149.262C899.14 150.47 899.784 151.674 900.43 152.872L901.31 152.398C900.665 151.201 900.022 149.999 899.381 148.793L898.498 149.262ZM904.373 160.047C905.044 161.243 905.718 162.432 906.398 163.612L907.264 163.114C906.587 161.936 905.914 160.751 905.245 159.558L904.373 160.047ZM910.574 170.663C911.287 171.83 912.006 172.987 912.732 174.131L913.576 173.596C912.854 172.456 912.138 171.304 911.427 170.142L910.574 170.663ZM917.249 180.971C918.033 182.107 918.825 183.229 919.627 184.334L920.436 183.747C919.64 182.648 918.852 181.533 918.072 180.403L917.249 180.971ZM924.617 190.847C925.482 191.912 926.359 192.957 927.246 193.98L928.002 193.325C927.121 192.31 926.252 191.273 925.393 190.216L924.617 190.847ZM932.853 199.988C933.833 200.96 934.828 201.906 935.838 202.823L936.51 202.083C935.511 201.176 934.527 200.24 933.557 199.278L932.853 199.988ZM942.179 208.051C943.285 208.872 944.409 209.659 945.551 210.412L946.101 209.577C944.975 208.835 943.867 208.058 942.775 207.248L942.179 208.051ZM952.679 214.52C953.909 215.13 955.159 215.701 956.43 216.232L956.816 215.309C955.564 214.787 954.334 214.225 953.124 213.624L952.679 214.52ZM964.22 218.889C965.533 219.241 966.867 219.551 968.224 219.82L968.418 218.839C967.083 218.575 965.77 218.269 964.478 217.923L964.22 218.889ZM976.385 220.89C977.078 220.936 977.777 220.973 978.482 220.998L978.518 219.999C977.824 219.974 977.135 219.938 976.452 219.892L976.385 220.89ZM978.482 220.998C979.163 221.023 979.839 221.045 980.51 221.064L980.539 220.065C979.871 220.046 979.197 220.024 978.518 219.999L978.482 220.998ZM988.338 221.158C989.697 221.151 991.031 221.131 992.341 221.099L992.317 220.099C991.013 220.131 989.685 220.151 988.333 220.158L988.338 221.158ZM1000.2 220.739C1001.52 220.65 1002.8 220.547 1004.06 220.43L1003.97 219.434C1002.72 219.55 1001.44 219.653 1000.13 219.742L1000.2 220.739ZM1011.88 219.492C1013.23 219.291 1014.55 219.073 1015.83 218.838L1015.65 217.854C1014.38 218.087 1013.07 218.304 1011.74 218.503L1011.88 219.492ZM1023.51 217.149C1024.82 216.809 1026.09 216.45 1027.32 216.073L1027.03 215.116C1025.81 215.489 1024.55 215.845 1023.26 216.181L1023.51 217.149ZM1034.74 213.43C1035.99 212.915 1037.2 212.379 1038.37 211.824L1037.94 210.92C1036.78 211.468 1035.59 211.997 1034.36 212.505L1034.74 213.43ZM1045.29 208.051C1046.43 207.346 1047.52 206.62 1048.58 205.875L1048.01 205.058C1046.96 205.791 1045.88 206.507 1044.77 207.202L1045.29 208.051ZM1054.79 200.955C1055.78 200.071 1056.74 199.17 1057.67 198.255L1056.97 197.543C1056.05 198.446 1055.1 199.335 1054.12 200.207L1054.79 200.955ZM1063.04 192.477C1063.9 191.474 1064.74 190.463 1065.56 189.444L1064.78 188.817C1063.97 189.828 1063.14 190.832 1062.29 191.825L1063.04 192.477ZM1070.37 183.215C1071.16 182.164 1071.94 181.113 1072.72 180.064L1071.91 179.468C1071.13 180.517 1070.36 181.567 1069.57 182.615L1070.37 183.215ZM1077.44 173.807C1078.24 172.777 1079.06 171.757 1079.88 170.747L1079.11 170.113C1078.28 171.13 1077.46 172.158 1076.65 173.193L1077.44 173.807ZM1085.05 164.89C1085.95 163.957 1086.87 163.041 1087.83 162.144L1087.14 161.415C1086.18 162.325 1085.24 163.253 1084.33 164.197L1085.05 164.89ZM1093.8 157.151C1094.83 156.392 1095.89 155.655 1097 154.942L1096.46 154.101C1095.33 154.826 1094.25 155.575 1093.21 156.346L1093.8 157.151ZM1103.79 151.149C1104.93 150.598 1106.12 150.069 1107.36 149.565L1106.98 148.64C1105.73 149.151 1104.52 149.688 1103.35 150.248L1103.79 151.149ZM1114.71 147.015C1115.34 146.831 1115.98 146.654 1116.63 146.482L1116.37 145.515C1115.71 145.689 1115.06 145.869 1114.43 146.054L1114.71 147.015ZM1116.63 146.482C1117.3 146.304 1117.97 146.127 1118.64 145.952L1118.39 144.985C1117.72 145.16 1117.05 145.337 1116.37 145.515L1116.63 146.482ZM1126.65 143.888C1127.99 143.547 1129.33 143.212 1130.66 142.884L1130.42 141.913C1129.09 142.242 1127.75 142.578 1126.4 142.919L1126.65 143.888ZM1138.68 140.944C1140.04 140.626 1141.38 140.315 1142.71 140.011L1142.49 139.036C1141.16 139.34 1139.81 139.652 1138.46 139.97L1138.68 140.944ZM1150.77 138.247C1152.13 137.962 1153.48 137.685 1154.83 137.416L1154.63 136.435C1153.28 136.705 1151.93 136.982 1150.57 137.268L1150.77 138.247ZM1162.94 135.884C1164.31 135.643 1165.66 135.411 1167.01 135.189L1166.85 134.203C1165.49 134.425 1164.14 134.657 1162.77 134.899L1162.94 135.884ZM1175.18 133.96C1176.55 133.773 1177.91 133.598 1179.27 133.434L1179.15 132.441C1177.79 132.606 1176.42 132.782 1175.04 132.969L1175.18 133.96ZM1187.48 132.578C1188.85 132.458 1190.22 132.35 1191.59 132.254L1191.52 131.257C1190.15 131.353 1188.77 131.461 1187.39 131.581L1187.48 132.578ZM1199.83 131.832C1201.21 131.788 1202.58 131.757 1203.96 131.739L1203.94 130.739C1202.56 130.757 1201.18 130.788 1199.8 130.833L1199.83 131.832ZM1212.2 131.796C1213.58 131.833 1214.95 131.883 1216.33 131.948L1216.38 130.949C1214.99 130.884 1213.61 130.833 1212.23 130.796L1212.2 131.796ZM1224.56 132.501C1225.92 132.62 1227.29 132.753 1228.66 132.9L1228.77 131.905C1227.39 131.758 1226.01 131.624 1224.64 131.504L1224.56 132.501ZM1236.85 133.939C1238.2 134.136 1239.56 134.348 1240.93 134.573L1241.09 133.586C1239.72 133.36 1238.35 133.148 1237 132.949L1236.85 133.939ZM1249.04 136.06C1250.38 136.33 1251.73 136.614 1253.08 136.91L1253.3 135.934C1251.93 135.636 1250.58 135.351 1249.23 135.08L1249.04 136.06ZM1261.11 138.799C1262.43 139.132 1263.76 139.477 1265.11 139.836L1265.36 138.869C1264.02 138.51 1262.68 138.163 1261.35 137.829L1261.11 138.799ZM1273.05 142.074C1274.36 142.461 1275.68 142.86 1277 143.27L1277.3 142.315C1275.97 141.903 1274.65 141.503 1273.34 141.115L1273.05 142.074ZM1284.86 145.804C1285.52 146.024 1286.18 146.247 1286.84 146.472L1287.16 145.525C1286.5 145.299 1285.84 145.076 1285.18 144.856L1284.86 145.804ZM1286.84 146.472C1287.45 146.682 1288.07 146.892 1288.69 147.103L1289.01 146.157C1288.39 145.946 1287.78 145.735 1287.16 145.525L1286.84 146.472ZM1296.08 149.662C1297.31 150.092 1298.54 150.524 1299.78 150.958L1300.11 150.015C1298.88 149.58 1297.64 149.148 1296.41 148.718L1296.08 149.662ZM1307.15 153.579C1308.38 154.019 1309.61 154.461 1310.83 154.904L1311.17 153.963C1309.95 153.52 1308.72 153.078 1307.49 152.637L1307.15 153.579ZM1318.19 157.58C1319.41 158.029 1320.64 158.479 1321.86 158.93L1322.2 157.992C1320.98 157.541 1319.76 157.091 1318.53 156.641L1318.19 157.58ZM1329.2 161.657C1330.42 162.116 1331.64 162.574 1332.86 163.033L1333.22 162.098C1332 161.638 1330.77 161.179 1329.55 160.72L1329.2 161.657ZM1340.18 165.806C1341.41 166.272 1342.63 166.738 1343.84 167.203L1344.2 166.269C1342.98 165.804 1341.76 165.338 1340.54 164.871L1340.18 165.806ZM1351.15 170.018C1352.36 170.491 1353.58 170.962 1354.78 171.432L1355.15 170.5C1353.94 170.03 1352.73 169.559 1351.51 169.086L1351.15 170.018ZM1362.07 174.286C1363.3 174.768 1364.52 175.249 1365.72 175.727L1366.09 174.797C1364.88 174.319 1363.66 173.838 1362.44 173.356L1362.07 174.286ZM1372.99 178.615C1374.22 179.105 1375.43 179.591 1376.63 180.074L1377.01 179.146C1375.8 178.663 1374.59 178.176 1373.36 177.687L1372.99 178.615ZM1383.89 182.999C1385.12 183.495 1386.33 183.986 1387.52 184.472L1387.9 183.546C1386.7 183.059 1385.49 182.568 1384.27 182.072L1383.89 182.999ZM1394.77 187.433C1395.99 187.936 1397.2 188.433 1398.39 188.923L1398.77 187.998C1397.58 187.508 1396.37 187.011 1395.15 186.508L1394.77 187.433ZM1405.61 191.912C1406.85 192.426 1408.06 192.93 1409.24 193.423L1409.62 192.501C1408.44 192.007 1407.23 191.503 1405.99 190.989L1405.61 191.912ZM1416.45 196.45C1417.7 196.974 1418.9 197.481 1420.05 197.971L1420.44 197.05C1419.29 196.56 1418.08 196.053 1416.84 195.529L1416.45 196.45ZM1427.26 201.039C1428.56 201.592 1429.76 202.108 1430.87 202.584L1431.27 201.666C1430.16 201.189 1428.95 200.672 1427.66 200.119L1427.26 201.039ZM1438.04 205.687C1438.62 205.938 1439.06 206.131 1439.35 206.26C1439.5 206.325 1439.61 206.374 1439.69 206.407C1439.72 206.423 1439.75 206.436 1439.77 206.444C1439.78 206.448 1439.79 206.451 1439.79 206.453C1439.79 206.454 1439.8 206.455 1439.8 206.455C1439.8 206.456 1439.8 206.456 1439.8 206.456C1439.8 206.456 1439.8 206.456 1439.8 206.456C1439.8 206.456 1439.8 206.456 1439.8 206.456C1439.8 206.456 1439.8 206.456 1439.8 206.456C1439.8 206.456 1439.8 206.456 1440 205.999C1440.2 205.541 1440.2 205.541 1440.2 205.541C1440.2 205.541 1440.2 205.541 1440.2 205.541C1440.2 205.541 1440.2 205.541 1440.2 205.541C1440.2 205.541 1440.2 205.541 1440.2 205.541C1440.2 205.541 1440.2 205.541 1440.2 205.54C1440.2 205.54 1440.2 205.539 1440.19 205.538C1440.19 205.536 1440.18 205.533 1440.17 205.529C1440.15 205.52 1440.13 205.508 1440.09 205.491C1440.01 205.458 1439.9 205.409 1439.75 205.344C1439.46 205.215 1439.02 205.022 1438.44 204.77L1438.04 205.687Z" fill="#949DAF"/>
<path d="M142 215.51L141.912 215.018L142 215.51ZM335.5 71.0097L335.551 71.5071L335.5 71.0097ZM558 179L557.995 179.5L558 179ZM770 90.0004L770.004 90.5003L770 90.0004ZM965.5 180L965.437 179.504L965.5 180ZM1119.5 121.01L1119.55 121.508L1119.55 121.508L1119.5 121.01ZM1288 154L1287.82 154.466L1287.82 154.466L1288 154ZM-1 202C-1.12845 202.484 -1.12844 202.484 -1.12843 202.484C-1.12842 202.484 -1.12841 202.484 -1.1284 202.484C-1.12837 202.484 -1.12833 202.484 -1.12829 202.484C-1.12819 202.484 -1.12806 202.484 -1.12788 202.484C-1.12753 202.484 -1.12702 202.484 -1.12634 202.484C-1.125 202.485 -1.12301 202.485 -1.12038 202.486C-1.11512 202.487 -1.1073 202.489 -1.09693 202.492C-1.0762 202.497 -1.04529 202.506 -1.00435 202.516C-0.922485 202.538 -0.800527 202.57 -0.639706 202.612C-0.318063 202.695 0.159034 202.818 0.781756 202.975L1.02698 202.006C0.406331 201.849 -0.0687548 201.727 -0.388454 201.644C-0.548303 201.602 -0.669305 201.57 -0.750231 201.549C-0.790694 201.539 -0.821137 201.531 -0.841409 201.525C-0.851544 201.522 -0.859137 201.52 -0.864167 201.519C-0.866682 201.518 -0.868556 201.518 -0.869788 201.518C-0.870403 201.517 -0.870858 201.517 -0.871152 201.517C-0.871299 201.517 -0.871406 201.517 -0.871472 201.517C-0.871505 201.517 -0.871529 201.517 -0.871542 201.517C-0.871548 201.517 -0.87155 201.517 -0.871554 201.517C-0.871553 201.517 -0.87155 201.517 -1 202ZM8.58815 204.866C9.79948 205.148 11.111 205.45 12.5152 205.766L12.7352 204.791C11.3334 204.475 10.0243 204.174 8.81525 203.892L8.58815 204.866ZM20.383 207.484C21.6495 207.752 22.9607 208.024 24.3133 208.301L24.5136 207.321C23.1632 207.045 21.8542 206.773 20.5898 206.506L20.383 207.484ZM32.1886 209.858C33.4802 210.104 34.7985 210.352 36.1413 210.599L36.3223 209.615C34.9817 209.368 33.6656 209.122 32.3761 208.875L32.1886 209.858ZM44.0735 212.003C45.3738 212.224 46.6913 212.443 48.0245 212.66L48.1851 211.673C46.8543 211.457 45.5391 211.238 44.2411 211.017L44.0735 212.003ZM55.9756 213.895C57.2903 214.089 58.6164 214.28 59.9526 214.467L60.0911 213.477C58.7575 213.29 57.4339 213.1 56.1217 212.906L55.9756 213.895ZM67.9216 215.516C69.2465 215.679 70.5784 215.837 71.9163 215.99L72.0299 214.997C70.695 214.844 69.3659 214.686 68.0439 214.523L67.9216 215.516ZM79.9099 216.83C81.2419 216.958 82.5775 217.079 83.9153 217.193L84.0004 216.197C82.666 216.083 81.3338 215.962 80.005 215.835L79.9099 216.83ZM91.9343 217.791C93.2723 217.876 94.6104 217.954 95.9476 218.023L95.9991 217.024C94.666 216.955 93.3318 216.878 91.9977 216.794L91.9343 217.791ZM103.988 218.334C105.33 218.368 106.67 218.393 108.005 218.408L108.016 217.408C106.686 217.393 105.351 217.369 104.013 217.335L103.988 218.334ZM116.058 218.369C117.403 218.34 118.741 218.3 120.071 218.247L120.031 217.248C118.708 217.3 117.376 217.34 116.037 217.369L116.058 218.369ZM128.12 217.766C129.466 217.657 130.801 217.533 132.122 217.394L132.018 216.4C130.704 216.538 129.377 216.661 128.039 216.77L128.12 217.766ZM140.118 216.336C140.779 216.23 141.435 216.118 142.088 216.002L141.912 215.018C141.266 215.133 140.614 215.243 139.958 215.349L140.118 216.336ZM142.088 216.002C142.753 215.884 143.413 215.76 144.07 215.632L143.878 214.65C143.227 214.778 142.572 214.9 141.912 215.018L142.088 216.002ZM151.788 213.835C153.081 213.485 154.356 213.114 155.615 212.723L155.318 211.768C154.071 212.155 152.808 212.523 151.526 212.87L151.788 213.835ZM163.097 210.088C164.33 209.602 165.545 209.096 166.744 208.57L166.343 207.654C165.155 208.175 163.951 208.676 162.73 209.158L163.097 210.088ZM173.891 205.116C175.067 204.493 176.228 203.851 177.372 203.191L176.873 202.325C175.738 202.979 174.588 203.615 173.423 204.232L173.891 205.116ZM184.101 198.991C185.199 198.253 186.282 197.497 187.352 196.726L186.767 195.915C185.706 196.68 184.631 197.429 183.543 198.162L184.101 198.991ZM193.639 191.891C194.662 191.054 195.674 190.203 196.673 189.338L196.019 188.582C195.026 189.441 194.022 190.286 193.006 191.117L193.639 191.891ZM202.53 183.998C203.484 183.085 204.427 182.161 205.36 181.225L204.652 180.519C203.724 181.449 202.786 182.369 201.838 183.276L202.53 183.998ZM210.84 175.505C211.734 174.536 212.62 173.557 213.499 172.571L212.752 171.906C211.877 172.888 210.995 173.862 210.105 174.828L210.84 175.505ZM218.676 166.581C219.524 165.572 220.366 164.556 221.203 163.536L220.43 162.902C219.595 163.919 218.756 164.932 217.91 165.937L218.676 166.581ZM226.161 157.37C226.978 156.335 227.791 155.298 228.602 154.257L227.813 153.643C227.004 154.682 226.192 155.718 225.376 156.75L226.161 157.37ZM233.43 147.995C234.231 146.948 235.03 145.901 235.829 144.853L235.034 144.247C234.235 145.294 233.436 146.341 232.636 147.388L233.43 147.995ZM240.62 138.567C241.419 137.521 242.219 136.476 243.021 135.433L242.228 134.824C241.426 135.867 240.625 136.913 239.825 137.96L240.62 138.567ZM247.865 129.197C248.68 128.16 249.498 127.128 250.32 126.101L249.539 125.476C248.716 126.506 247.896 127.54 247.079 128.578L247.865 129.197ZM255.312 119.988C256.155 118.978 257.003 117.976 257.857 116.982L257.099 116.33C256.242 117.328 255.39 118.334 254.544 119.346L255.312 119.988ZM263.089 111.08C263.98 110.109 264.878 109.148 265.784 108.198L265.061 107.507C264.15 108.463 263.247 109.429 262.352 110.405L263.089 111.08ZM271.343 102.614C272.291 101.705 273.249 100.808 274.217 99.9253L273.543 99.1863C272.569 100.075 271.605 100.977 270.651 101.893L271.343 102.614ZM280.179 94.7841C281.197 93.9563 282.228 93.1444 283.271 92.3492L282.665 91.5539C281.613 92.3556 280.575 93.174 279.548 94.0081L280.179 94.7841ZM289.682 87.793C290.774 87.0729 291.88 86.3711 293 85.6886L292.48 84.8345C291.349 85.5234 290.233 86.2317 289.132 86.9584L289.682 87.793ZM299.862 81.8592C301.027 81.2664 302.209 80.6942 303.407 80.1434L302.989 79.2348C301.779 79.7912 300.585 80.3692 299.408 80.9678L299.862 81.8592ZM310.675 77.15C311.891 76.7055 313.124 76.2823 314.375 75.8811L314.069 74.9289C312.806 75.3341 311.56 75.7617 310.332 76.2107L310.675 77.15ZM321.944 73.7803C323.213 73.4812 324.499 73.2038 325.804 72.9488L325.612 71.9674C324.295 72.2248 322.996 72.5049 321.714 72.807L321.944 73.7803ZM333.56 71.7288C334.219 71.6494 334.883 71.5755 335.551 71.5071L335.449 70.5123C334.775 70.5813 334.105 70.6559 333.44 70.736L333.56 71.7288ZM335.551 71.5071C336.235 71.437 336.916 71.3733 337.594 71.3161L337.51 70.3196C336.826 70.3774 336.139 70.4416 335.449 70.5123L335.551 71.5071ZM345.624 70.9283C346.986 70.9128 348.334 70.9235 349.668 70.9597L349.695 69.9601C348.348 69.9235 346.987 69.9127 345.613 69.9283L345.624 70.9283ZM357.693 71.4939C359.031 71.6366 360.355 71.8052 361.666 71.9988L361.812 71.0095C360.488 70.814 359.151 70.6437 357.8 70.4995L357.693 71.4939ZM369.574 73.4967C370.89 73.8017 372.193 74.1318 373.484 74.4862L373.748 73.5218C372.445 73.164 371.129 72.8306 369.8 72.5225L369.574 73.4967ZM381.152 76.9179C382.417 77.3731 383.67 77.8511 384.912 78.3508L385.285 77.423C384.032 76.9188 382.767 76.4364 381.491 75.977L381.152 76.9179ZM392.272 81.6179C393.48 82.2043 394.679 82.8105 395.868 83.4355L396.333 82.5503C395.135 81.9205 393.927 81.3094 392.709 80.7182L392.272 81.6179ZM402.889 87.395C404.039 88.0866 405.18 88.7946 406.314 89.5178L406.851 88.6747C405.71 87.947 404.562 87.2345 403.405 86.5382L402.889 87.395ZM413.011 94.0141C414.111 94.7881 415.204 95.5751 416.292 96.3738L416.884 95.5676C415.791 94.7652 414.692 93.9744 413.587 93.1964L413.011 94.0141ZM422.716 101.263C423.771 102.093 424.821 102.933 425.868 103.78L426.498 103.003C425.447 102.153 424.393 101.31 423.335 100.477L422.716 101.263ZM432.088 108.939C433.115 109.809 434.14 110.685 435.163 111.566L435.816 110.809C434.791 109.926 433.764 109.048 432.735 108.176L432.088 108.939ZM441.253 116.884C442.263 117.775 443.271 118.669 444.28 119.565L444.944 118.817C443.935 117.921 442.925 117.026 441.915 116.134L441.253 116.884ZM450.32 124.948C451.327 125.845 452.334 126.743 453.343 127.639L454.007 126.892C452.999 125.996 451.992 125.099 450.986 124.201L450.32 124.948ZM459.412 132.997C460.428 133.886 461.446 134.772 462.467 135.654L463.121 134.897C462.101 134.017 461.085 133.132 460.07 132.245L459.412 132.997ZM468.641 140.898C469.679 141.763 470.721 142.622 471.768 143.475L472.399 142.699C471.356 141.85 470.317 140.993 469.281 140.13L468.641 140.898ZM478.12 148.509C479.191 149.333 480.269 150.149 481.352 150.955L481.949 150.152C480.87 149.35 479.797 148.538 478.73 147.717L478.12 148.509ZM487.948 155.673C489.063 156.438 490.186 157.191 491.317 157.931L491.865 157.095C490.74 156.359 489.623 155.609 488.514 154.848L487.948 155.673ZM498.209 162.213C499.375 162.899 500.55 163.569 501.736 164.223L502.219 163.348C501.042 162.698 499.874 162.032 498.715 161.351L498.209 162.213ZM508.953 167.941C510.171 168.524 511.399 169.088 512.639 169.634L513.042 168.718C511.812 168.177 510.593 167.617 509.385 167.039L508.953 167.941ZM520.173 172.659C521.445 173.121 522.728 173.563 524.025 173.983L524.333 173.032C523.048 172.615 521.775 172.177 520.514 171.719L520.173 172.659ZM531.837 176.213C533.139 176.534 534.453 176.834 535.78 177.111L535.985 176.132C534.669 175.858 533.367 175.56 532.077 175.242L531.837 176.213ZM543.784 178.483C545.121 178.663 546.471 178.82 547.835 178.953L547.933 177.958C546.581 177.826 545.242 177.67 543.917 177.492L543.784 178.483ZM555.932 179.461C556.616 179.48 557.304 179.493 557.995 179.5L558.005 178.5C557.32 178.493 556.638 178.48 555.96 178.461L555.932 179.461ZM557.995 179.5C558.661 179.507 559.325 179.51 559.985 179.507L559.981 178.507C559.326 178.51 558.667 178.507 558.005 178.5L557.995 179.5ZM567.819 179.241C569.138 179.156 570.444 179.052 571.739 178.928L571.644 177.933C570.36 178.055 569.064 178.159 567.755 178.243L567.819 179.241ZM579.518 177.938C580.816 177.731 582.101 177.504 583.374 177.26L583.186 176.278C581.923 176.52 580.648 176.745 579.361 176.95L579.518 177.938ZM591.029 175.536C592.302 175.207 593.562 174.86 594.812 174.495L594.532 173.535C593.292 173.897 592.041 174.241 590.779 174.568L591.029 175.536ZM602.269 172.072C603.505 171.63 604.73 171.171 605.945 170.696L605.581 169.765C604.375 170.236 603.159 170.692 601.932 171.131L602.269 172.072ZM613.168 167.645C614.358 167.105 615.539 166.55 616.712 165.982L616.276 165.082C615.111 165.646 613.937 166.198 612.754 166.735L613.168 167.645ZM623.687 162.402C624.836 161.78 625.978 161.145 627.113 160.5L626.619 159.631C625.49 160.273 624.354 160.904 623.211 161.523L623.687 162.402ZM633.851 156.506C634.963 155.821 636.068 155.127 637.168 154.425L636.63 153.582C635.534 154.281 634.433 154.972 633.327 155.654L633.851 156.506ZM643.711 150.126C644.793 149.397 645.87 148.661 646.944 147.92L646.377 147.097C645.305 147.836 644.23 148.57 643.152 149.297L643.711 150.126ZM653.348 143.424C654.409 142.668 655.468 141.908 656.526 141.145L655.941 140.334C654.884 141.096 653.827 141.854 652.767 142.61L653.348 143.424ZM662.854 136.552C663.906 135.785 664.959 135.017 666.011 134.249L665.422 133.441C664.369 134.209 663.317 134.977 662.265 135.744L662.854 136.552ZM672.333 129.654C673.388 128.892 674.445 128.132 675.504 127.374L674.922 126.561C673.862 127.319 672.803 128.081 671.747 128.844L672.333 129.654ZM681.886 122.874C682.955 122.132 684.028 121.395 685.104 120.665L684.542 119.837C683.463 120.57 682.388 121.309 681.316 122.052L681.886 122.874ZM691.611 116.356C692.704 115.652 693.802 114.956 694.905 114.269L694.376 113.42C693.269 114.11 692.166 114.809 691.069 115.515L691.611 116.356ZM701.591 110.256C702.717 109.607 703.849 108.969 704.989 108.341L704.507 107.465C703.361 108.096 702.223 108.737 701.092 109.389L701.591 110.256ZM711.897 104.73C713.058 104.156 714.227 103.595 715.405 103.047L714.983 102.14C713.798 102.692 712.622 103.256 711.454 103.834L711.897 104.73ZM722.549 99.9464C723.75 99.4623 724.961 98.9934 726.182 98.5404L725.834 97.6028C724.604 98.0591 723.385 98.5314 722.175 99.0188L722.549 99.9464ZM733.554 96.0453C734.789 95.6672 736.036 95.3059 737.294 94.9623L737.03 93.9976C735.762 94.344 734.506 94.7081 733.261 95.0891L733.554 96.0453ZM744.862 93.1426C746.122 92.8807 747.393 92.6367 748.676 92.4113L748.503 91.4264C747.21 91.6536 745.928 91.8996 744.658 92.1636L744.862 93.1426ZM756.377 91.3037C757.659 91.1596 758.953 91.0341 760.26 90.9277L760.179 89.931C758.862 90.0382 757.558 90.1648 756.266 90.31L756.377 91.3037ZM768.029 90.5287C768.684 90.5145 769.342 90.505 770.004 90.5003L769.996 89.5004C769.33 89.5051 768.667 89.5146 768.007 89.529L768.029 90.5287ZM770.004 90.5003C770.695 90.4955 771.384 90.498 772.069 90.5078L772.083 89.5079C771.391 89.498 770.695 89.4954 769.996 89.5004L770.004 90.5003ZM780.21 90.9747C781.567 91.1116 782.91 91.2772 784.24 91.4702L784.384 90.4806C783.039 90.2855 781.681 90.1182 780.31 89.9797L780.21 90.9747ZM792.254 92.9909C793.585 93.3035 794.904 93.6432 796.21 94.0087L796.479 93.0457C795.16 92.6764 793.828 92.3332 792.483 92.0174L792.254 92.9909ZM803.966 96.5229C805.244 96.9942 806.512 97.4894 807.768 98.0071L808.149 97.0825C806.881 96.5601 805.602 96.0603 804.311 95.5846L803.966 96.5229ZM815.201 101.381C816.42 101.985 817.63 102.609 818.831 103.251L819.303 102.369C818.093 101.722 816.874 101.093 815.645 100.485L815.201 101.381ZM825.922 107.31C827.086 108.018 828.241 108.742 829.39 109.48L829.931 108.639C828.775 107.897 827.613 107.168 826.442 106.456L825.922 107.31ZM836.172 114.049C837.287 114.832 838.395 115.627 839.499 116.433L840.088 115.625C838.98 114.816 837.867 114.018 836.747 113.231L836.172 114.049ZM846.041 121.357C847.119 122.191 848.192 123.033 849.263 123.88L849.884 123.096C848.811 122.247 847.734 121.403 846.653 120.566L846.041 121.357ZM855.643 129.022C856.7 129.887 857.756 130.755 858.809 131.625L859.446 130.854C858.391 129.983 857.335 129.114 856.276 128.248L855.643 129.022ZM865.118 136.864C866.168 137.739 867.219 138.614 868.27 139.486L868.909 138.717C867.859 137.845 866.808 136.971 865.757 136.096L865.118 136.864ZM874.601 144.709C875.661 145.575 876.723 146.437 877.787 147.293L878.414 146.514C877.352 145.66 876.292 144.799 875.233 143.934L874.601 144.709ZM884.233 152.378C885.321 153.216 886.412 154.046 887.507 154.866L888.106 154.065C887.016 153.248 885.928 152.421 884.844 151.586L884.233 152.378ZM894.165 159.679C895.294 160.464 896.428 161.235 897.568 161.992L898.121 161.159C896.987 160.406 895.859 159.639 894.736 158.858L894.165 159.679ZM904.527 166.374C905.709 167.075 906.898 167.759 908.095 168.423L908.58 167.548C907.392 166.889 906.211 166.211 905.038 165.514L904.527 166.374ZM915.421 172.178C916.664 172.762 917.916 173.322 919.179 173.859L919.569 172.938C918.319 172.407 917.078 171.851 915.846 171.273L915.421 172.178ZM926.884 176.768C928.188 177.199 929.503 177.601 930.831 177.975L931.101 177.012C929.789 176.643 928.488 176.245 927.198 175.819L926.884 176.768ZM938.853 179.836C940.199 180.081 941.558 180.296 942.931 180.479L943.063 179.488C941.707 179.307 940.363 179.095 939.033 178.852L938.853 179.836ZM951.155 181.169C952.508 181.217 953.874 181.233 955.253 181.217L955.241 180.217C953.877 180.233 952.527 180.217 951.19 180.17L951.155 181.169ZM963.483 180.736C964.173 180.664 964.866 180.585 965.563 180.496L965.437 179.504C964.748 179.592 964.062 179.671 963.379 179.742L963.483 180.736ZM965.563 180.496C966.232 180.412 966.897 180.324 967.558 180.232L967.421 179.242C966.764 179.332 966.103 179.42 965.437 179.504L965.563 180.496ZM975.404 178.959C976.718 178.713 978.013 178.455 979.292 178.183L979.084 177.205C977.814 177.475 976.526 177.732 975.22 177.976L975.404 178.959ZM987.028 176.338C988.32 175.995 989.594 175.639 990.851 175.271L990.57 174.311C989.321 174.677 988.055 175.03 986.772 175.371L987.028 176.338ZM998.42 172.847C999.682 172.407 1000.93 171.956 1002.16 171.493L1001.81 170.557C1000.58 171.017 999.346 171.465 998.091 171.902L998.42 172.847ZM1009.52 168.524C1010.74 167.996 1011.96 167.458 1013.15 166.911L1012.74 166.001C1011.55 166.545 1010.34 167.081 1009.12 167.606L1009.52 168.524ZM1020.31 163.468C1021.5 162.87 1022.67 162.264 1023.84 161.652L1023.37 160.767C1022.21 161.376 1021.04 161.98 1019.86 162.576L1020.31 163.468ZM1030.81 157.858C1031.97 157.209 1033.12 156.556 1034.26 155.901L1033.76 155.033C1032.62 155.687 1031.48 156.338 1030.32 156.985L1030.81 157.858ZM1041.11 151.912C1042.25 151.241 1043.39 150.57 1044.52 149.899L1044.01 149.038C1042.88 149.709 1041.74 150.38 1040.6 151.051L1041.11 151.912ZM1051.35 145.884C1052.49 145.219 1053.63 144.559 1054.78 143.903L1054.28 143.035C1053.13 143.692 1051.99 144.354 1050.85 145.02L1051.35 145.884ZM1061.68 140.044C1062.84 139.416 1064 138.796 1065.18 138.185L1064.71 137.299C1063.54 137.912 1062.37 138.535 1061.21 139.165L1061.68 140.044ZM1072.25 134.664C1073.43 134.103 1074.63 133.554 1075.84 133.017L1075.43 132.103C1074.21 132.644 1073.01 133.196 1071.82 133.76L1072.25 134.664ZM1083.13 129.988C1084.35 129.52 1085.59 129.065 1086.84 128.624L1086.5 127.681C1085.25 128.125 1084 128.583 1082.78 129.055L1083.13 129.988ZM1094.34 126.218C1095.6 125.856 1096.87 125.509 1098.16 125.179L1097.91 124.21C1096.61 124.543 1095.33 124.892 1094.07 125.257L1094.34 126.218ZM1105.85 123.451C1107.13 123.203 1108.42 122.972 1109.74 122.757L1109.57 121.77C1108.25 121.987 1106.95 122.22 1105.66 122.469L1105.85 123.451ZM1117.56 121.705C1118.22 121.635 1118.88 121.569 1119.55 121.508L1119.45 120.512C1118.78 120.574 1118.11 120.64 1117.45 120.711L1117.56 121.705ZM1119.55 121.508C1120.24 121.444 1120.93 121.382 1121.62 121.322L1121.54 120.326C1120.84 120.386 1120.15 120.448 1119.45 120.512L1119.55 121.508ZM1129.86 120.709C1131.24 120.622 1132.62 120.546 1133.98 120.479L1133.93 119.48C1132.56 119.547 1131.18 119.624 1129.79 119.711L1129.86 120.709ZM1142.23 120.184C1143.61 120.153 1144.99 120.133 1146.36 120.123L1146.35 119.123C1144.98 119.133 1143.6 119.154 1142.2 119.184L1142.23 120.184ZM1154.6 120.186C1155.99 120.218 1157.36 120.26 1158.73 120.313L1158.77 119.314C1157.4 119.261 1156.02 119.218 1154.62 119.186L1154.6 120.186ZM1166.98 120.768C1168.35 120.867 1169.72 120.977 1171.09 121.098L1171.17 120.101C1169.81 119.98 1168.43 119.87 1167.05 119.771L1166.98 120.768ZM1179.29 121.965C1180.67 122.134 1182.03 122.314 1183.39 122.504L1183.53 121.514C1182.16 121.322 1180.79 121.142 1179.42 120.973L1179.29 121.965ZM1191.54 123.787C1192.89 124.024 1194.25 124.272 1195.6 124.53L1195.78 123.548C1194.43 123.289 1193.07 123.04 1191.71 122.802L1191.54 123.787ZM1203.68 126.211C1205.02 126.511 1206.36 126.822 1207.7 127.143L1207.93 126.171C1206.59 125.849 1205.24 125.537 1203.9 125.235L1203.68 126.211ZM1215.7 129.181C1217.03 129.538 1218.35 129.904 1219.68 130.279L1219.96 129.317C1218.62 128.94 1217.29 128.573 1215.96 128.215L1215.7 129.181ZM1227.6 132.617C1228.91 133.02 1230.22 133.431 1231.54 133.85L1231.84 132.898C1230.52 132.477 1229.21 132.065 1227.89 131.661L1227.6 132.617ZM1239.4 136.431C1240.69 136.869 1241.99 137.315 1243.3 137.767L1243.63 136.822C1242.32 136.369 1241.02 135.923 1239.72 135.484L1239.4 136.431ZM1251.09 140.524C1252.38 140.989 1253.68 141.461 1254.98 141.939L1255.33 141C1254.02 140.521 1252.72 140.049 1251.43 139.583L1251.09 140.524ZM1262.72 144.814C1264 145.297 1265.29 145.784 1266.59 146.277L1266.95 145.342C1265.65 144.849 1264.35 144.361 1263.07 143.878L1262.72 144.814ZM1274.31 149.231C1275.59 149.722 1276.87 150.219 1278.17 150.72L1278.53 149.787C1277.23 149.286 1275.95 148.789 1274.67 148.297L1274.31 149.231ZM1285.88 153.711C1286.52 153.961 1287.17 154.213 1287.82 154.466L1288.18 153.534C1287.53 153.281 1286.88 153.029 1286.24 152.779L1285.88 153.711ZM1287.82 154.466C1288.43 154.703 1289.04 154.943 1289.65 155.188L1290.02 154.259C1289.41 154.014 1288.79 153.772 1288.18 153.534L1287.82 154.466ZM1297 158.257C1298.21 158.785 1299.43 159.327 1300.65 159.88L1301.06 158.969C1299.84 158.414 1298.61 157.871 1297.4 157.34L1297 158.257ZM1307.86 163.251C1309.05 163.824 1310.24 164.408 1311.44 165L1311.88 164.104C1310.69 163.51 1309.49 162.925 1308.3 162.35L1307.86 163.251ZM1318.55 168.613C1319.72 169.224 1320.9 169.842 1322.07 170.467L1322.54 169.584C1321.36 168.958 1320.19 168.338 1319.01 167.726L1318.55 168.613ZM1329.08 174.271C1330.24 174.914 1331.4 175.563 1332.56 176.217L1333.05 175.346C1331.89 174.69 1330.73 174.04 1329.56 173.396L1329.08 174.271ZM1339.48 180.178C1340.63 180.846 1341.77 181.518 1342.92 182.194L1343.43 181.333C1342.28 180.656 1341.13 179.983 1339.98 179.314L1339.48 180.178ZM1349.76 186.293C1350.9 186.983 1352.03 187.677 1353.16 188.372L1353.69 187.52C1352.55 186.824 1351.42 186.13 1350.28 185.438L1349.76 186.293ZM1359.93 192.588C1361.06 193.298 1362.18 194.009 1363.3 194.721L1363.84 193.878C1362.72 193.165 1361.59 192.453 1360.47 191.742L1359.93 192.588ZM1370 199.038C1371.12 199.768 1372.24 200.498 1373.35 201.227L1373.9 200.391C1372.79 199.662 1371.67 198.931 1370.55 198.2L1370 199.038ZM1379.99 205.639C1381.1 206.382 1382.2 207.123 1383.29 207.861L1383.85 207.032C1382.76 206.294 1381.66 205.552 1380.55 204.808L1379.99 205.639ZM1389.89 212.361C1390.99 213.119 1392.08 213.873 1393.16 214.621L1393.73 213.799C1392.65 213.051 1391.56 212.297 1390.46 211.538L1389.89 212.361ZM1399.7 219.197C1400.8 219.975 1401.88 220.745 1402.95 221.506L1403.53 220.691C1402.46 219.929 1401.38 219.159 1400.27 218.38L1399.7 219.197ZM1409.43 226.15C1410.53 226.945 1411.61 227.726 1412.66 228.492L1413.25 227.684C1412.2 226.917 1411.12 226.135 1410.02 225.339L1409.43 226.15ZM1419.11 233.224C1420.21 234.039 1421.27 234.83 1422.3 235.595L1422.9 234.794C1421.87 234.028 1420.81 233.236 1419.7 232.421L1419.11 233.224ZM1428.66 240.379C1429.81 241.246 1430.87 242.057 1431.85 242.808L1432.46 242.014C1431.48 241.262 1430.41 240.45 1429.27 239.582L1428.66 240.379ZM1438.18 247.704C1438.68 248.091 1439.05 248.388 1439.31 248.588C1439.43 248.688 1439.53 248.764 1439.59 248.815C1439.62 248.84 1439.65 248.859 1439.66 248.872C1439.67 248.878 1439.68 248.883 1439.68 248.886C1439.68 248.888 1439.69 248.889 1439.69 248.89C1439.69 248.89 1439.69 248.891 1439.69 248.891C1439.69 248.891 1439.69 248.891 1439.69 248.891C1439.69 248.891 1439.69 248.891 1439.69 248.891C1439.69 248.891 1439.69 248.891 1439.69 248.891C1439.69 248.891 1439.69 248.891 1440 248.5C1440.31 248.109 1440.31 248.109 1440.31 248.109C1440.31 248.109 1440.31 248.109 1440.31 248.109C1440.31 248.109 1440.31 248.109 1440.31 248.109C1440.31 248.109 1440.31 248.109 1440.31 248.109C1440.31 248.108 1440.31 248.108 1440.31 248.108C1440.31 248.107 1440.31 248.106 1440.31 248.104C1440.3 248.101 1440.29 248.096 1440.29 248.089C1440.27 248.076 1440.25 248.057 1440.21 248.031C1440.15 247.98 1440.05 247.904 1439.93 247.804C1439.67 247.603 1439.29 247.305 1438.8 246.917L1438.18 247.704Z" fill="#949DAF"/>
<ellipse cx="908.626" cy="186.677" rx="2.62628" ry="2.74329" fill="#2A3B5E" fill-opacity="0.2"/>
<ellipse cx="1382.63" cy="95.5" rx="2.62628" ry="2.5" fill="#2A3B5E" fill-opacity="0.2"/>
<ellipse cx="1390.25" cy="215" rx="5.25257" ry="5" fill="#2A3B5E" fill-opacity="0.2"/>
<ellipse cx="72.2526" cy="308" rx="5.25257" ry="5" fill="#2A3B5E" fill-opacity="0.2"/>
<ellipse cx="459.253" cy="255" rx="5.25257" ry="5" fill="#2A3B5E" fill-opacity="0.2"/>
<ellipse cx="857.253" cy="228" rx="5.25257" ry="5" fill="#2A3B5E" fill-opacity="0.2"/>
<ellipse cx="958.626" cy="309.5" rx="2.62628" ry="2.5" fill="#2A3B5E" fill-opacity="0.2"/>
<ellipse cx="102.192" cy="311.5" rx="2.62628" ry="2.5" fill="#2A3B5E" fill-opacity="0.2"/>
<ellipse cx="580.626" cy="240.5" rx="2.62628" ry="2.5" fill="#2A3B5E" fill-opacity="0.2"/>
<ellipse cx="495.537" cy="281" rx="5.25257" ry="5" fill="#2A3B5E" fill-opacity="0.2"/>
<ellipse cx="1320.4" cy="170" rx="5.25257" ry="5" fill="#2A3B5E" fill-opacity="0.2"/>
<ellipse cx="536.253" cy="57" rx="5.25257" ry="5" fill="#2A3B5E" fill-opacity="0.2"/>
<ellipse cx="1171.25" cy="52" rx="5.25257" ry="5" fill="#2A3B5E" fill-opacity="0.2"/>
</g>
<path d="M1339.94 184.804C1340.14 186.265 1339.88 187.656 1338.75 188.836C1338.02 189.607 1337.16 190.063 1336.07 189.993C1335.39 189.958 1334.7 189.911 1334.03 189.958C1330.87 190.157 1328.79 187.246 1329.2 184.371C1329.31 183.647 1329.54 182.934 1329.76 182.244C1329.89 181.847 1329.88 181.532 1329.54 181.251C1328.91 180.737 1328.3 180.176 1327.63 179.732C1326.27 178.832 1324.86 178.002 1323.48 177.126C1323.09 176.88 1322.72 176.775 1322.34 177.067C1320.08 178.82 1317.55 178.715 1314.92 178.201C1313.05 177.838 1311.3 177.266 1309.94 175.84C1309.67 175.56 1309.43 175.256 1309.19 174.94C1308.95 174.601 1308.65 174.508 1308.28 174.648C1306.02 175.466 1303.74 176.307 1301.48 177.126C1300.95 177.313 1300.67 177.663 1300.61 178.248C1300.4 180.316 1299.39 182.046 1298.08 183.588C1297.74 183.998 1297.12 184.29 1296.58 184.383C1295.4 184.582 1294.21 184.383 1293.1 183.904C1290.64 182.841 1289.48 180.41 1290.23 177.745C1290.71 176.039 1291.57 174.554 1293.27 173.83C1295.35 172.942 1297.29 173.327 1298.97 174.823C1299.46 175.256 1299.88 175.337 1300.49 175.104C1302.82 174.204 1305.15 173.339 1307.49 172.498C1308 172.311 1308.16 172.053 1308.03 171.539C1307.91 171.072 1307.84 170.581 1307.76 170.113C1307.62 169.249 1307.68 168.407 1308.07 167.612C1309.8 163.954 1312.53 161.652 1316.67 161.208C1316.85 161.185 1317.01 161.126 1317.19 161.114C1317.75 161.068 1317.94 160.764 1317.94 160.215C1317.94 158.286 1317.96 156.37 1317.98 154.441C1317.98 153.985 1317.89 153.576 1317.39 153.53C1315.32 153.319 1314.48 151.835 1314 150.14C1313.56 148.598 1313.7 147.02 1314.42 145.536C1315.12 144.016 1316.37 143.303 1317.96 143.116C1317.98 143.116 1318 143.116 1318.02 143.116C1319.24 142.988 1320.48 142.778 1321.54 143.689C1322.92 144.916 1323.98 146.319 1324.35 148.2C1324.56 149.276 1324.37 150.316 1324.14 151.309C1323.83 152.571 1322.81 153.214 1321.56 153.471C1320.82 153.623 1320.71 153.717 1320.75 154.465C1320.83 156.405 1320.9 158.345 1320.98 160.296C1321.02 161.138 1321.12 161.173 1321.98 161.196C1322.75 161.22 1323.55 161.255 1324.29 161.453C1325.5 161.769 1326.11 162.645 1326.36 163.873C1327.02 167.04 1326.81 170.09 1325.4 173.023C1325.24 173.374 1325.33 173.655 1325.61 173.9C1326.79 174.928 1327.94 175.98 1329.13 176.974C1329.51 177.289 1329.99 177.5 1330.42 177.768C1330.83 178.025 1331.29 178.248 1331.62 178.575C1332.32 179.299 1333.14 179.568 1334.15 179.521C1335.66 179.463 1337.09 179.79 1338.33 180.725C1339.36 181.496 1340.04 182.478 1339.95 183.846C1339.92 184.138 1339.94 184.43 1339.94 184.804ZM1312.56 172.077C1312.6 172.112 1312.65 172.147 1312.7 172.17C1312.78 172.124 1312.86 172.088 1312.93 172.03C1313.38 171.598 1313.8 171.142 1314.27 170.721C1314.9 170.148 1315.59 169.704 1316.49 169.704C1316.99 169.704 1317.46 169.774 1317.66 170.289C1317.87 170.838 1317.58 171.177 1317.19 171.586C1316.31 172.509 1315.52 173.526 1314.74 174.519C1314.65 174.625 1314.75 174.858 1314.76 175.022C1314.91 174.963 1315.1 174.952 1315.21 174.858C1315.44 174.625 1315.62 174.344 1315.84 174.099C1316.31 173.596 1316.83 173.222 1317.56 173.269C1318.11 173.304 1318.31 173.666 1318.05 174.145C1317.89 174.449 1317.71 174.73 1317.48 175.127C1317.83 175.162 1318.07 175.221 1318.3 175.209C1319.45 175.115 1320.32 174.519 1321 173.643C1322.45 171.773 1323.22 169.658 1323.27 167.285C1323.31 165.859 1322.7 165.006 1321.29 164.667C1319.89 164.328 1318.48 164.305 1317.07 164.656C1316.07 164.901 1315.13 165.275 1314.6 166.245C1314.16 167.028 1314.23 167.11 1315.02 167.402C1315.36 167.531 1315.71 167.846 1315.89 168.173C1316.1 168.559 1315.67 168.769 1315.43 169.003C1314.6 169.798 1313.76 170.581 1312.95 171.399C1312.78 171.598 1312.69 171.855 1312.56 172.077ZM1334.99 182.128C1334.48 182.244 1334.09 182.256 1333.77 182.431C1333.51 182.572 1333.16 182.899 1333.18 183.121C1333.26 184.395 1333.32 185.692 1334.27 186.709C1334.63 187.095 1335.03 187.176 1335.46 186.908C1336.3 186.393 1337 185.727 1337.43 184.816C1337.83 183.974 1337.62 183.144 1336.79 182.735C1336.2 182.443 1335.52 182.303 1334.99 182.128ZM1317.66 149.65C1317.62 150.257 1317.82 150.655 1318.26 150.912C1318.8 151.216 1319.37 151.297 1319.93 150.947C1320.73 150.444 1321.18 149.696 1321.42 148.796C1321.73 147.569 1320.9 146.529 1319.64 146.599C1319.43 146.611 1319.16 146.704 1319.01 146.845C1318.24 147.663 1317.77 148.621 1317.66 149.65ZM1295.18 178.785C1295.17 178.785 1295.16 178.785 1295.15 178.785C1295.15 179.171 1295.16 179.568 1295.15 179.954C1295.11 180.55 1295.41 180.982 1295.81 181.38C1296.12 181.695 1296.4 181.695 1296.71 181.368C1297.81 180.223 1298.22 178.855 1298 177.301C1297.93 176.787 1297.56 176.424 1297.07 176.272C1296.74 176.167 1295.34 176.845 1295.25 177.102C1295.21 177.231 1295.2 177.371 1295.2 177.5C1295.18 177.932 1295.18 178.353 1295.18 178.785Z" fill="#009564"/>
<path d="M515.877 171.474L512.136 170.525C511.698 170.42 511.261 170.525 510.97 170.842L508.103 173.636C507.325 174.427 506.014 173.847 505.916 172.687L505.625 168.522C505.576 168.047 505.333 167.626 504.993 167.415L501.641 165.306C500.717 164.726 500.815 163.25 501.786 162.775L505.333 161.194C505.722 161.035 506.014 160.614 506.111 160.192L506.888 156.132C507.131 154.972 508.443 154.603 509.123 155.5L511.601 158.663C511.893 159.032 512.281 159.19 512.719 159.137L516.557 158.716C517.626 158.61 518.355 159.876 517.82 160.877L515.828 164.41C515.585 164.831 515.585 165.306 515.731 165.728L517.286 169.524C517.82 170.578 516.946 171.738 515.877 171.474Z" fill="#FF719C"/>
<path d="M957.876 218.671L955.895 218.171C955.664 218.116 955.432 218.171 955.278 218.338L953.76 219.808C953.349 220.225 952.654 219.919 952.603 219.309L952.448 217.117C952.423 216.867 952.294 216.645 952.114 216.534L950.339 215.424C949.85 215.119 949.902 214.342 950.416 214.092L952.294 213.26C952.5 213.177 952.654 212.955 952.706 212.733L953.117 210.596C953.246 209.985 953.94 209.791 954.301 210.263L955.612 211.928C955.767 212.122 955.973 212.205 956.204 212.178L958.236 211.956C958.802 211.9 959.188 212.566 958.905 213.093L957.85 214.952C957.722 215.174 957.722 215.424 957.799 215.646L958.622 217.644C958.905 218.199 958.442 218.809 957.876 218.671Z" fill="#009564"/>
<ellipse cx="725.884" cy="12.5" rx="2.62628" ry="2.5" fill="#2A3B5E" fill-opacity="0.2"/>
<ellipse cx="249.304" cy="2.5" rx="2.62628" ry="2.5" fill="#2A3B5E" fill-opacity="0.2"/>
<path d="M167.417 247.544C166.713 248.506 166.179 249.753 165.76 250.852C165.521 251.479 164.848 252.799 164.848 252.799C164.848 252.799 164.236 254.298 163.728 255.2C163.31 255.94 162.955 256.282 162.541 257.025C161.943 258.097 161.718 258.759 161.286 259.908C160.971 260.747 160.902 261.256 160.56 262.084C160.194 262.97 159.899 263.425 159.458 264.276C159.05 265.06 158.81 265.493 158.391 266.272C158.181 266.663 158.065 266.951 157.852 267.272C157.694 267.51 157.451 267.807 157.345 268.085C157.116 268.683 154.71 268.027 154.235 267.782C153.276 267.289 152.261 267.003 151.296 266.539C150.791 266.297 150.24 266.175 149.737 265.917C149.408 265.747 149.051 265.634 148.712 265.484C148.328 265.314 148.106 265.07 147.685 264.861C147.027 264.535 146.472 264.46 145.903 264.258C145.31 264.048 144.88 263.697 144.204 263.379C143.073 262.848 142.161 262.404 141.228 262.206C140.785 262.112 139.864 261.344 139.505 261.459" stroke="#FF719C" stroke-width="2" stroke-linecap="round" stroke-linejoin="round"/>
<path d="M167.129 247.753C166.022 248.109 165.28 249.056 164.181 249.408C163.125 249.747 162.07 250.085 161.014 250.424C159.928 250.772 158.969 251.247 157.955 251.753C157.479 251.991 156.955 252.099 156.493 252.373C155.898 252.725 155.439 253.039 154.767 253.255C153.136 253.778 151.546 254.54 150.112 255.483C149.312 256.009 148.413 256.383 147.615 256.907C146.975 257.328 146.199 257.497 145.561 257.953C144.523 258.697 143.145 259.02 142.164 259.804C141.788 260.105 141.164 260.27 140.727 260.482C140.36 260.66 140.129 260.903 139.723 261.034" stroke="#FF719C" stroke-width="2" stroke-linecap="round" stroke-linejoin="round"/>
<path d="M167.275 247.471C166.205 247.814 165.063 248.062 164.026 248.395C162.566 248.863 161.039 248.998 159.578 249.467C156.235 250.539 152.852 251.506 149.491 252.584C146.978 253.391 144.464 254.197 141.95 255.003C139.206 255.883 136.594 256.957 133.853 257.837" stroke="#FF719C" stroke-width="2" stroke-linecap="round" stroke-linejoin="round"/>
<path d="M166.954 247.574C164.656 248.311 162.493 248.28 160.117 248.179C159.374 248.147 158.244 248.359 157.525 248.59C156.714 248.85 155.775 248.679 154.959 248.94C152.911 249.597 150.781 249.808 148.739 250.463C147.257 250.938 145.654 250.919 144.106 251.122C141.477 251.467 138.742 251.693 136.181 252.364C135.483 252.547 134.881 252.46 134.055 252.573C133.371 252.667 132.312 252.87 132.312 252.87C132.312 252.87 131.386 252.987 131.001 253.08L127.354 253.6C126.932 253.638 126.621 253.766 126.277 253.742C125.618 253.696 124.956 254.017 124.311 254.038C123.752 254.056 123.141 254.015 122.582 254.008" stroke="#FF719C" stroke-width="2" stroke-linecap="round" stroke-linejoin="round"/>
<path d="M133.566 258.047C132.625 257.989 130.493 256.958 130.493 256.958C130.493 256.958 129.368 256.514 128.854 256.25C128.51 256.073 127.973 255.862 127.608 255.823C127.165 255.775 126.316 255.521 126.316 255.521C126.316 255.521 125.35 255.338 125.178 255.184C124.646 254.71 123.349 254.337 122.685 254.33" stroke="#FF719C" stroke-width="2" stroke-linecap="round" stroke-linejoin="round"/>
<path d="M138.648 274.258C139.618 273.539 140.343 272.561 141.22 271.779C141.947 271.13 142.63 270.142 143.488 269.64C143.882 269.41 144.112 268.83 144.573 268.583C145.035 268.337 145.447 267.9 145.832 267.556C146.254 267.179 146.875 266.909 147.187 266.438C147.38 266.148 148.057 265.754 148.106 265.435" stroke="#FF719C" stroke-width="2" stroke-linecap="round" stroke-linejoin="round"/>
<path d="M138.54 274.293C138.364 272.799 137.698 271.299 137.239 269.866C136.81 268.531 136.492 267.17 136.059 265.82C135.289 263.419 134.855 260.96 134.094 258.586" stroke="#FF719C" stroke-width="2" stroke-linecap="round" stroke-linejoin="round"/>
<path d="M139.505 261.459C139.353 262.443 139.094 263.465 138.96 264.469C138.812 265.586 138.921 266.74 138.804 267.828C138.756 268.265 138.782 268.681 138.78 269.227C138.778 269.789 138.795 270.666 138.795 270.666L139.051 273.682" stroke="#FF719C" stroke-width="2" stroke-linecap="round" stroke-linejoin="round"/>
<path d="M146.542 266.607C145.986 266.581 145.77 266.173 145.294 265.999C145.118 265.934 144.837 265.832 144.706 265.698" stroke="#FF719C" stroke-width="2" stroke-linecap="round" stroke-linejoin="round"/>
<path d="M144.806 267.908C144.498 267.547 144.005 267.361 143.617 267.092C143.466 266.987 143.331 266.868 143.166 266.783C143.073 266.736 142.919 266.714 142.843 266.642C142.602 266.414 142.319 266.243 142.098 266.016" stroke="#FF719C" stroke-width="2" stroke-linecap="round" stroke-linejoin="round"/>
<path d="M143.279 269.057C143.024 268.73 142.502 268.562 142.156 268.325C142.071 268.267 141.723 267.977 141.715 268.034" stroke="#FF719C" stroke-width="2" stroke-linecap="round" stroke-linejoin="round"/>
<path d="M141.975 270.383C141.894 270.299 141.188 269.605 141.112 269.753" stroke="#FF719C" stroke-width="2" stroke-linecap="round" stroke-linejoin="round"/>
<path d="M140.792 271.71C140.617 271.588 140.464 271.463 140.3 271.332" stroke="#FF719C" stroke-width="2" stroke-linecap="round" stroke-linejoin="round"/>
<path d="M877.19 82.0536C876.759 80.775 876.361 79.4794 875.888 78.2199C875.593 77.4314 875.013 76.8384 874.31 76.3667C873.233 75.6455 872.162 74.9045 871.078 74.1942C870.696 73.9468 870.264 73.7293 869.835 73.5671C867.495 72.6794 865.406 71.3529 863.246 70.1354C862.85 69.9098 862.468 69.6624 862.054 69.4872C861.764 69.3583 861.436 69.2751 861.114 69.256C860.676 69.2259 860.317 69.3826 860.136 69.8338C859.94 70.3067 859.722 70.7661 859.485 71.2206C859.3 71.5702 859.051 71.8877 858.877 72.2442C858.726 72.5392 858.599 72.8568 858.519 73.173C858.442 73.4606 858.615 73.6535 858.863 73.8014C859.024 73.8948 859.141 74.0448 859.288 74.16C859.505 74.3338 859.716 74.5273 859.96 74.6576C861.958 75.7353 864.119 76.4498 866.222 77.2802C868.044 77.9885 869.496 79.182 870.789 80.5889C871.393 81.2507 871.646 82.0583 871.495 82.9491C871.296 84.1301 870.927 85.2662 870.375 86.3327C870.29 86.501 870.117 86.6897 869.951 86.7463C868.808 87.1291 867.662 87.5406 866.429 87.5534C865.448 87.5642 864.509 87.3419 863.608 86.9901C861.976 86.3404 860.33 85.7125 858.749 84.9579C857.807 84.5038 856.983 83.827 856.1 83.2571C855.791 83.0485 855.495 82.8093 855.168 82.6423C854.904 82.5073 854.598 82.3914 854.304 82.375C854.094 82.3579 853.808 82.4608 853.674 82.6216C853.294 83.0625 852.926 83.5191 852.654 84.0281C852.265 84.7314 851.922 85.4708 851.618 86.2198C851.301 86.9905 851.533 87.5794 852.253 88.0007C853.422 88.6728 854.589 89.3361 855.757 90.0082C856.003 90.1472 856.235 90.3081 856.453 90.4908C857.264 91.152 858.206 91.5596 859.188 91.893C860.28 92.2196 861.351 92.6164 862.446 92.9519C864.435 93.5662 866.473 93.76 868.569 93.624C870.315 93.5124 871.859 92.9538 873.25 91.9092C874.006 91.345 874.594 90.652 875.015 89.8015C875.242 89.3402 875.584 88.9361 875.779 88.4631C876.364 87.0729 877.051 85.7243 877.192 84.1936C877.258 83.4712 877.31 82.7706 877.092 82.0761C877.127 82.0679 877.154 82.0618 877.19 82.0536ZM860.559 72.0167C860.758 71.4313 860.826 71.3973 861.415 71.5228C862.014 71.6462 862.614 71.7321 863.21 71.8467C863.309 71.8706 863.39 71.9824 863.481 72.0546C863.38 72.1521 863.295 72.274 863.183 72.3183C863.097 72.3565 862.962 72.2944 862.854 72.2726C862.091 72.1682 861.345 71.8833 860.559 72.0167C860.647 72.1176 860.727 72.2669 860.849 72.3132C861.098 72.4237 861.372 72.5191 861.645 72.5682C862.123 72.6542 862.62 72.6985 863.114 72.7715C863.053 73.0925 862.85 73.0645 862.66 73.0523C862.178 73.0324 861.689 73.0235 861.214 72.9928C861.035 72.9873 860.829 72.9879 860.688 72.8993C860.109 72.5667 859.906 72.6225 860.559 72.0167ZM862.621 90.5107C862.84 90.2279 863.029 90.0262 863.167 89.7993C863.278 89.6248 863.391 89.4129 863.403 89.2146C863.412 89.0823 863.303 88.884 863.185 88.8179C863.089 88.7654 862.868 88.8253 862.775 88.9119C862.454 89.1994 862.161 89.5272 861.866 89.8461C861.676 90.0478 861.469 90.1698 861.206 90.0812C860.77 89.9298 860.337 89.7498 859.908 89.5876C859.774 89.5344 859.632 89.4833 859.495 89.4587C859.24 89.4055 858.961 89.4136 858.741 89.3059C858.011 88.9705 857.303 88.6024 856.585 88.2364C856.374 88.1266 856.364 87.9521 856.439 87.7395C856.628 87.1936 856.815 86.6389 857.004 86.093C857.171 85.6174 857.185 85.5955 857.619 85.8219C859.374 86.7783 861.214 87.52 863.1 88.1766C864.47 88.6538 865.868 88.9661 867.328 88.9575C867.899 88.9569 868.515 88.946 869.032 88.7437C870.907 88.0256 872.171 86.703 872.565 84.7048C872.761 83.72 872.78 82.7012 872.879 81.7014C872.954 80.9769 872.663 80.4201 872.175 79.9082C871.531 79.2368 870.807 78.6677 870.023 78.168C868.841 77.3964 867.672 76.5941 866.486 75.8422C866.149 75.6309 865.736 75.5395 865.36 75.365C864.849 75.1284 864.343 74.8721 863.853 74.6029C863.777 74.5551 863.72 74.3357 863.767 74.2505C864.026 73.7258 864.307 73.2147 864.601 72.7192C864.648 72.6341 864.832 72.5359 864.886 72.57C865.374 72.8304 865.91 73.052 866.307 73.4078C866.634 73.705 866.957 73.9381 867.374 74.0847C868.278 74.4079 869.204 74.6983 870.084 75.0828C872.147 75.9874 873.781 77.3718 874.746 79.4588C875.07 80.1662 875.437 80.8546 875.727 81.5791C875.888 81.9703 876.03 82.4031 876.027 82.8134C876.006 84.4654 875.67 86.0498 874.84 87.515C874.74 87.6963 874.639 87.8775 874.558 88.0636C874.035 89.263 873.146 90.1182 872.061 90.8043C871.831 90.9501 871.566 91.0666 871.303 91.1082C870.371 91.2566 869.433 91.3785 868.498 91.4717C867.959 91.5303 867.971 91.4996 867.891 90.9687C867.867 90.816 867.731 90.6238 867.598 90.5706C867.464 90.5175 867.237 90.5883 867.116 90.681C866.94 90.8145 866.827 91.0265 866.667 91.1934C866.567 91.2909 866.428 91.4251 866.315 91.4231C866.014 91.4176 865.717 91.346 865.36 91.2975C865.454 91.1272 865.516 91.029 865.568 90.9241C865.683 90.721 865.824 90.5118 865.919 90.3039C866.026 90.0654 866.153 89.7942 865.842 89.6142C865.562 89.4459 865.368 89.6299 865.194 89.8186C864.913 90.1157 864.655 90.4353 864.363 90.7256C864.263 90.823 864.075 90.9498 863.966 90.9191C863.521 90.8161 863.105 90.6696 862.621 90.5107ZM853.263 85.5637C853.264 85.5262 853.254 85.4819 853.255 85.4444C854.107 85.3982 854.956 85.3431 855.817 85.2948C855.832 85.3194 855.846 85.3439 855.861 85.3684C855.728 85.4454 855.612 85.5558 855.471 85.5974C855.304 85.645 855.116 85.6416 854.93 85.647C854.364 85.6742 853.809 85.7457 853.263 85.5637ZM853.88 84.4079C853.841 84.3609 853.814 84.3207 853.775 84.2736C853.874 84.1673 853.968 84.0433 854.079 83.9527C854.159 83.8879 854.292 83.8109 854.355 83.843C854.563 83.935 854.742 84.0707 854.929 84.1954C854.972 84.2227 855.012 84.316 854.995 84.3665C854.987 84.4149 854.896 84.4728 854.848 84.4653C854.518 84.4571 854.194 84.4291 853.88 84.4079Z" fill="#009DAF"/>
<path d="M853.549 69.8785C853.28 70.1452 853.081 70.3492 852.862 70.5484C852.605 70.7844 852.533 71.0526 852.651 71.3795C852.757 71.6907 853.005 71.7925 853.298 71.7626C854.123 71.6762 854.953 71.57 855.774 71.4658C856.156 71.4155 856.548 71.363 856.921 71.2683C857.091 71.2295 857.278 71.1026 857.389 70.9655C857.571 70.7281 857.458 70.4278 857.162 70.4024C856.665 70.3579 856.172 70.3775 855.668 70.3903C855.425 70.3902 855.178 70.4188 854.827 70.4433C854.949 70.2754 855.001 70.1704 855.077 70.0878C855.288 69.8531 855.518 69.6232 855.718 69.3817C855.905 69.162 855.921 68.8973 855.791 68.6475C855.661 68.3977 855.443 68.2986 855.169 68.3333C854.028 68.4735 852.887 68.6138 851.743 68.7826C851.079 68.8786 850.417 69.021 849.763 69.1614C849.647 69.188 849.463 69.2862 849.46 69.3612C849.45 69.4848 849.529 69.6718 849.627 69.7332C849.829 69.8452 850.066 69.9401 850.29 69.9354C851.29 69.9207 852.291 69.8685 853.285 69.8272C853.343 69.8327 853.395 69.858 853.549 69.8785Z" fill="#009DAF"/>
<path d="M848.887 82.8937C849.114 82.6086 849.353 82.3303 849.548 82.0247C849.904 81.4681 849.659 80.9932 848.994 80.9965C848.518 81.0032 848.047 81.1204 847.574 81.1448C846.759 81.1917 845.935 81.1942 845.118 81.2322C844.952 81.2424 844.78 81.2723 844.613 81.3201C844.276 81.4066 844.1 81.6331 844.127 81.9251C844.152 82.2082 844.373 82.4463 844.701 82.4457C845.06 82.4568 845.429 82.3907 845.791 82.373C846.404 82.3445 847.018 82.3249 847.634 82.3142C847.69 82.3108 847.735 82.3469 847.854 82.3756C847.745 82.5216 847.66 82.6437 847.565 82.7678C847.45 82.9247 847.302 83.0611 847.226 83.2276C847.032 83.6259 847.21 84.051 847.642 84.1384C848.014 84.2115 848.401 84.2253 848.785 84.2213C849.729 84.2099 850.669 84.1808 851.617 84.1408C851.821 84.1313 852.051 84.0693 852.234 83.9622C852.351 83.8981 852.467 83.7037 852.451 83.5864C852.443 83.467 852.286 83.3073 852.164 83.2609C851.96 83.1865 851.723 83.1755 851.497 83.1714C850.836 83.1459 850.178 83.1383 849.518 83.1217C849.356 83.1121 849.191 83.0848 849.028 83.0663C848.967 83.0056 848.927 82.9496 848.887 82.8937Z" fill="#009DAF"/>
</svg>
