<svg width="348" height="824" viewBox="0 0 348 824" fill="none" xmlns="http://www.w3.org/2000/svg">
<path d="M46.876 563.671L44.8953 563.171C44.6638 563.116 44.4323 563.171 44.278 563.338L42.7603 564.808C42.3488 565.225 41.6542 564.919 41.6028 564.309L41.4485 562.117C41.4227 561.867 41.2941 561.645 41.1141 561.534L39.3392 560.424C38.8504 560.119 38.9019 559.342 39.4163 559.092L41.2941 558.26C41.4999 558.177 41.6542 557.955 41.7057 557.733L42.1173 555.596C42.2459 554.985 42.9404 554.791 43.3005 555.263L44.6124 556.928C44.7667 557.122 44.9725 557.205 45.204 557.178L47.2362 556.956C47.8021 556.9 48.1879 557.566 47.905 558.093L46.8503 559.952C46.7217 560.174 46.7217 560.424 46.7989 560.646L47.622 562.644C47.905 563.199 47.4419 563.809 46.876 563.671Z" fill="#C6C6C6"/>
<path d="M346.876 584.671L344.895 584.171C344.664 584.116 344.432 584.171 344.278 584.338L342.76 585.808C342.349 586.225 341.654 585.919 341.603 585.309L341.448 583.117C341.423 582.867 341.294 582.645 341.114 582.534L339.339 581.424C338.85 581.119 338.902 580.342 339.416 580.092L341.294 579.26C341.5 579.177 341.654 578.955 341.706 578.733L342.117 576.596C342.246 575.985 342.94 575.791 343.301 576.263L344.612 577.928C344.767 578.122 344.973 578.205 345.204 578.178L347.236 577.956C347.802 577.9 348.188 578.566 347.905 579.093L346.85 580.952C346.722 581.174 346.722 581.424 346.799 581.646L347.622 583.644C347.905 584.199 347.442 584.809 346.876 584.671Z" fill="#F1E66B"/>
<path d="M54.876 100.671L52.8953 100.171C52.6638 100.116 52.4323 100.171 52.278 100.338L50.7603 101.808C50.3488 102.225 49.6542 101.919 49.6028 101.309L49.4485 99.1168C49.4227 98.8671 49.2941 98.6451 49.1141 98.5341L47.3392 97.4242C46.8504 97.1189 46.9019 96.342 47.4163 96.0922L49.2941 95.2598C49.4999 95.1766 49.6542 94.9546 49.7057 94.7326L50.1173 92.596C50.2459 91.9855 50.9404 91.7913 51.3005 92.263L52.6124 93.9279C52.7667 94.1221 52.9725 94.2054 53.204 94.1776L55.2362 93.9556C55.8021 93.9001 56.1879 94.5661 55.905 95.0933L54.8503 96.9524C54.7217 97.1744 54.7217 97.4242 54.7989 97.6462L55.622 99.644C55.905 100.199 55.4419 100.809 54.876 100.671Z" fill="#F1E66B"/>
<path d="M250.876 8.67072L248.895 8.17125C248.664 8.11575 248.432 8.17125 248.278 8.33774L246.76 9.80841C246.349 10.2246 245.654 9.9194 245.603 9.30893L245.448 7.11682C245.423 6.86708 245.294 6.64509 245.114 6.5341L243.339 5.42417C242.85 5.11893 242.902 4.34198 243.416 4.09225L245.294 3.2598C245.5 3.17655 245.654 2.95456 245.706 2.73258L246.117 0.595955C246.246 -0.014508 246.94 -0.208746 247.301 0.262976L248.612 1.92788C248.767 2.12211 248.973 2.20536 249.204 2.17761L251.236 1.95562C251.802 1.90013 252.188 2.56609 251.905 3.09331L250.85 4.95244C250.722 5.17443 250.722 5.42417 250.799 5.64615L251.622 7.64403C251.905 8.199 251.442 8.80947 250.876 8.67072Z" fill="#F1E66B"/>
<path d="M7.87603 381.671L5.89535 381.171C5.66384 381.116 5.43233 381.171 5.27799 381.338L3.76033 382.808C3.34876 383.225 2.65424 382.919 2.60279 382.309L2.44845 380.117C2.42273 379.867 2.29412 379.645 2.11405 379.534L0.33916 378.424C-0.149579 378.119 -0.0981343 377.342 0.416328 377.092L2.29411 376.26C2.4999 376.177 2.65424 375.955 2.70568 375.733L3.11725 373.596C3.24587 372.985 3.94039 372.791 4.30052 373.263L5.61239 374.928C5.76673 375.122 5.97252 375.205 6.20403 375.178L8.23615 374.956C8.80206 374.9 9.18791 375.566 8.90495 376.093L7.85031 377.952C7.72169 378.174 7.72169 378.424 7.79886 378.646L8.622 380.644C8.90495 381.199 8.44194 381.809 7.87603 381.671Z" fill="#F1E66B"/>
<path d="M320.876 822.671L318.895 822.171C318.664 822.116 318.432 822.171 318.278 822.338L316.76 823.808C316.349 824.225 315.654 823.919 315.603 823.309L315.448 821.117C315.423 820.867 315.294 820.645 315.114 820.534L313.339 819.424C312.85 819.119 312.902 818.342 313.416 818.092L315.294 817.26C315.5 817.177 315.654 816.955 315.706 816.733L316.117 814.596C316.246 813.985 316.94 813.791 317.301 814.263L318.612 815.928C318.767 816.122 318.973 816.205 319.204 816.178L321.236 815.956C321.802 815.9 322.188 816.566 321.905 817.093L320.85 818.952C320.722 819.174 320.722 819.424 320.799 819.646L321.622 821.644C321.905 822.199 321.442 822.809 320.876 822.671Z" fill="#F1E66B"/>
<path d="M346.876 123.671L344.895 123.171C344.664 123.116 344.432 123.171 344.278 123.338L342.76 124.808C342.349 125.225 341.654 124.919 341.603 124.309L341.448 122.117C341.423 121.867 341.294 121.645 341.114 121.534L339.339 120.424C338.85 120.119 338.902 119.342 339.416 119.092L341.294 118.26C341.5 118.177 341.654 117.955 341.706 117.733L342.117 115.596C342.246 114.985 342.94 114.791 343.301 115.263L344.612 116.928C344.767 117.122 344.973 117.205 345.204 117.178L347.236 116.956C347.802 116.9 348.188 117.566 347.905 118.093L346.85 119.952C346.722 120.174 346.722 120.424 346.799 120.646L347.622 122.644C347.905 123.199 347.442 123.809 346.876 123.671Z" fill="#C6C6C6"/>
<path d="M60.876 812.671L58.8953 812.171C58.6638 812.116 58.4323 812.171 58.278 812.338L56.7603 813.808C56.3488 814.225 55.6542 813.919 55.6028 813.309L55.4485 811.117C55.4227 810.867 55.2941 810.645 55.1141 810.534L53.3392 809.424C52.8504 809.119 52.9019 808.342 53.4163 808.092L55.2941 807.26C55.4999 807.177 55.6542 806.955 55.7057 806.733L56.1173 804.596C56.2459 803.985 56.9404 803.791 57.3005 804.263L58.6124 805.928C58.7667 806.122 58.9725 806.205 59.204 806.178L61.2362 805.956C61.8021 805.9 62.1879 806.566 61.905 807.093L60.8503 808.952C60.7217 809.174 60.7217 809.424 60.7989 809.646L61.622 811.644C61.905 812.199 61.4419 812.809 60.876 812.671Z" fill="#C6C6C6"/>
</svg>
