<svg width="1350" height="420" viewBox="0 0 1350 420" fill="none" xmlns="http://www.w3.org/2000/svg">
<g opacity="0.5">
<path d="M-16.5 227.009L-16.4669 227.508L-16.5 227.009ZM167.5 1.01064L167.492 0.510708L167.5 1.01064ZM397.5 167.509L397.538 167.011L397.5 167.509ZM653 14.0093L653.039 13.5108L653 14.0093ZM826.5 187.509L826.482 188.009L826.5 187.509ZM964.5 113.009L964.372 112.526L964.5 113.009ZM1135 113.009L1135.16 112.536L1135 113.009ZM-155 46.5093C-155.492 46.6003 -155.492 46.6003 -155.492 46.6003C-155.492 46.6003 -155.492 46.6003 -155.492 46.6004C-155.492 46.6004 -155.492 46.6004 -155.492 46.6005C-155.492 46.6006 -155.492 46.6007 -155.492 46.6009C-155.491 46.6013 -155.491 46.6018 -155.491 46.6024C-155.491 46.6038 -155.491 46.6058 -155.49 46.6084C-155.489 46.6136 -155.488 46.6213 -155.486 46.6315C-155.482 46.6519 -155.476 46.6823 -155.469 46.7225C-155.453 46.8029 -155.431 46.9226 -155.4 47.0803C-155.339 47.3958 -155.247 47.8635 -155.123 48.4737L-154.143 48.275C-154.266 47.6677 -154.358 47.2028 -154.418 46.8901C-154.449 46.7338 -154.471 46.6155 -154.486 46.5364C-154.494 46.4969 -154.499 46.4672 -154.503 46.4474C-154.505 46.4375 -154.506 46.4302 -154.507 46.4253C-154.507 46.4228 -154.508 46.421 -154.508 46.4198C-154.508 46.4193 -154.508 46.4188 -154.508 46.4186C-154.508 46.4184 -154.508 46.4183 -154.508 46.4183C-154.508 46.4182 -154.508 46.4182 -154.508 46.4182C-154.508 46.4182 -154.508 46.4182 -154.508 46.4182C-154.508 46.4182 -154.508 46.4182 -155 46.5093ZM-153.47 56.0818C-153.198 57.2655 -152.898 58.5471 -152.569 59.9192L-151.596 59.6858C-151.925 58.317 -152.224 57.0386 -152.495 55.8581L-153.47 56.0818ZM-150.677 67.497C-150.36 68.7202 -150.026 69.9862 -149.676 71.292L-148.71 71.0328C-149.06 69.7299 -149.392 68.4666 -149.709 67.2461L-150.677 67.497ZM-147.586 78.8254C-147.228 80.074 -146.858 81.3484 -146.474 82.6465L-145.515 82.3629C-145.898 81.0676 -146.268 79.7959 -146.625 78.55L-147.586 78.8254ZM-144.194 90.124C-143.813 91.336 -143.421 92.5635 -143.02 93.8052L-142.068 93.4973C-142.469 92.2583 -142.86 91.0335 -143.24 89.8242L-144.194 90.124ZM-140.543 101.234C-140.121 102.466 -139.688 103.708 -139.246 104.959L-138.303 104.626C-138.744 103.378 -139.176 102.138 -139.597 100.91L-140.543 101.234ZM-136.573 112.302C-136.119 113.515 -135.656 114.734 -135.183 115.958L-134.25 115.598C-134.721 114.377 -135.184 113.161 -135.637 111.951L-136.573 112.302ZM-132.288 123.243C-131.798 124.439 -131.299 125.64 -130.792 126.842L-129.87 126.453C-130.376 125.254 -130.873 124.057 -131.362 122.864L-132.288 123.243ZM-127.667 134.025C-127.135 135.213 -126.593 136.402 -126.043 137.591L-125.136 137.171C-125.684 135.986 -126.224 134.801 -126.755 133.616L-127.667 134.025ZM-122.67 144.655C-122.092 145.826 -121.506 146.996 -120.911 148.163L-120.02 147.709C-120.613 146.545 -121.197 145.38 -121.773 144.212L-122.67 144.655ZM-117.262 155.086C-116.637 156.232 -116.003 157.374 -115.361 158.511L-114.49 158.019C-115.13 156.886 -115.761 155.749 -116.384 154.607L-117.262 155.086ZM-111.403 165.268C-110.724 166.386 -110.035 167.497 -109.338 168.602L-108.493 168.068C-109.187 166.969 -109.872 165.862 -110.548 164.749L-111.403 165.268ZM-105.037 175.15C-104.299 176.231 -103.551 177.302 -102.794 178.364L-101.979 177.783C-102.733 176.727 -103.477 175.661 -104.212 174.586L-105.037 175.15ZM-98.1086 184.65C-97.3052 185.681 -96.492 186.7 -95.669 187.707L-94.8947 187.074C-95.7127 186.073 -96.5211 185.06 -97.3199 184.035L-98.1086 184.65ZM-90.5555 193.659C-89.6772 194.63 -88.7886 195.587 -87.8896 196.529L-87.1664 195.838C-88.059 194.903 -88.9415 193.953 -89.8138 192.989L-90.5555 193.659ZM-82.3163 202.037C-81.3521 202.935 -80.3769 203.815 -79.3904 204.675L-78.7329 203.922C-79.7111 203.068 -80.6784 202.196 -81.6349 201.306L-82.3163 202.037ZM-73.3076 209.629C-72.2616 210.422 -71.2039 211.193 -70.1344 211.941L-69.5609 211.122C-70.6199 210.381 -71.6675 209.617 -72.7038 208.832L-73.3076 209.629ZM-63.5282 216.187C-62.3988 216.849 -61.2572 217.487 -60.1033 218.098L-59.6349 217.215C-60.776 216.61 -61.9051 215.979 -63.0224 215.324L-63.5282 216.187ZM-53.0002 221.464C-51.7944 221.969 -50.576 222.446 -49.345 222.894L-49.003 221.954C-50.2189 221.512 -51.4225 221.04 -52.614 220.541L-53.0002 221.464ZM-41.8398 225.218C-40.5755 225.542 -39.2988 225.836 -38.0096 226.099L-37.8098 225.119C-39.0826 224.859 -40.3431 224.569 -41.5914 224.249L-41.8398 225.218ZM-30.2506 227.281C-28.9447 227.414 -27.6269 227.516 -26.297 227.585L-26.2451 226.587C-27.5585 226.518 -28.8598 226.418 -30.1492 226.287L-30.2506 227.281ZM-18.4647 227.617C-17.8016 227.589 -17.1356 227.553 -16.4669 227.508L-16.5331 226.51C-17.1942 226.554 -17.8523 226.59 -18.5076 226.618L-18.4647 227.617ZM-16.4669 227.508C-15.7792 227.462 -15.0971 227.408 -14.4203 227.343L-14.5145 226.348C-15.1819 226.411 -15.8548 226.465 -16.5331 226.51L-16.4669 227.508ZM-6.52966 226.139C-5.19737 225.855 -3.88783 225.532 -2.60037 225.173L-2.86923 224.21C-4.1367 224.564 -5.42618 224.881 -6.73834 225.161L-6.52966 226.139ZM4.95528 222.544C6.19026 222.025 7.40314 221.47 8.59462 220.879L8.15034 219.983C6.97737 220.565 5.78348 221.112 4.56793 221.622L4.95528 222.544ZM15.541 216.888C16.654 216.157 17.7469 215.392 18.8203 214.596L18.2247 213.793C17.1661 214.578 16.0887 215.332 14.9919 216.052L15.541 216.888ZM24.9909 209.489C25.9664 208.594 26.9247 207.671 27.8667 206.721L27.1568 206.017C26.2254 206.956 25.2783 207.868 24.3147 208.752L24.9909 209.489ZM33.2481 200.809C34.1042 199.788 34.9461 198.744 35.7744 197.679L34.9849 197.065C34.1638 198.121 33.3297 199.155 32.4819 200.167L33.2481 200.809ZM40.4578 191.223C41.2018 190.127 41.9346 189.013 42.6567 187.882L41.8139 187.343C41.0966 188.467 40.3689 189.573 39.6304 190.661L40.4578 191.223ZM46.7933 181.027C47.4439 179.888 48.0859 178.736 48.7197 177.571L47.8413 177.093C47.2106 178.252 46.572 179.398 45.925 180.531L46.7933 181.027ZM52.4053 170.478C52.9924 169.297 53.5727 168.106 54.1467 166.904L53.2444 166.473C52.6725 167.67 52.0945 168.857 51.5099 170.033L52.4053 170.478ZM57.4851 159.655C58.0231 158.445 58.556 157.227 59.0841 156.002L58.1658 155.606C57.6391 156.828 57.1078 158.043 56.5714 159.249L57.4851 159.655ZM62.1641 148.651C62.6655 147.422 63.1632 146.187 63.6574 144.947L62.7285 144.577C62.2352 145.815 61.7385 147.047 61.2382 148.273L62.1641 148.651ZM66.5547 137.529C67.0304 136.289 67.5035 135.044 67.9745 133.797L67.0389 133.444C66.5685 134.69 66.096 135.933 65.621 137.171L66.5547 137.529ZM70.7552 126.338C71.2149 125.092 71.6732 123.844 72.1305 122.594L71.1914 122.25C70.7343 123.499 70.2763 124.747 69.8169 125.992L70.7552 126.338ZM74.8545 115.115C75.3075 113.867 75.7605 112.619 76.2133 111.371L75.2733 111.03C74.8203 112.278 74.3677 113.525 73.9146 114.773L74.8545 115.115ZM78.937 103.891C79.3934 102.643 79.8506 101.397 80.309 100.153L79.3707 99.8076C78.912 101.052 78.4545 102.299 77.9978 103.547L78.937 103.891ZM83.0861 92.6996C83.5561 91.4535 84.0281 90.2111 84.5024 88.973L83.5686 88.6153C83.0936 89.8551 82.621 91.0991 82.1504 92.3466L83.0861 92.6996ZM87.3889 81.5771C87.8837 80.3347 88.3818 79.0981 88.8834 77.8681L87.9574 77.4905C87.4547 78.7232 86.9556 79.9623 86.4599 81.2071L87.3889 81.5771ZM91.9507 70.5456C92.4798 69.318 93.0135 68.0986 93.5523 66.8882L92.6387 66.4816C92.0983 67.6958 91.563 68.9188 91.0324 70.1498L91.9507 70.5456ZM96.8785 59.6757C97.454 58.4735 98.0357 57.2822 98.6241 56.1028L97.7292 55.6564C97.1384 56.8409 96.5543 58.037 95.9766 59.2439L96.8785 59.6757ZM102.301 49.0572C102.937 47.8945 103.581 46.746 104.233 45.6126L103.367 45.1137C102.71 46.2537 102.063 47.4085 101.424 48.5772L102.301 49.0572ZM108.369 38.8226C109.088 37.7093 109.817 36.6143 110.557 35.5384L109.733 34.9716C108.988 36.0558 108.253 37.159 107.529 38.2802L108.369 38.8226ZM115.255 29.1682C116.088 28.1179 116.935 27.0912 117.795 26.0894L117.036 25.4378C116.167 26.45 115.312 27.4867 114.472 28.5469L115.255 29.1682ZM123.2 20.3201C124.149 19.3956 125.114 18.4998 126.097 17.6341L125.436 16.8838C124.44 17.7609 123.463 18.668 122.502 19.6038L123.2 20.3201ZM132.298 12.7439C133.376 11.989 134.474 11.2679 135.592 10.582L135.069 9.72963C133.934 10.4263 132.819 11.1585 131.725 11.9248L132.298 12.7439ZM142.564 6.8925C143.755 6.35775 144.968 5.85995 146.204 5.4004L145.855 4.46316C144.599 4.93042 143.366 5.43655 142.155 5.98021L142.564 6.8925ZM153.744 3.14538C155.026 2.8511 156.33 2.59485 157.658 2.37779L157.496 1.39089C156.148 1.61135 154.823 1.87168 153.521 2.17073L153.744 3.14538ZM165.479 1.57325C166.15 1.54304 166.826 1.5221 167.508 1.51057L167.492 0.510708C166.8 0.522403 166.114 0.54363 165.434 0.574266L165.479 1.57325ZM167.508 1.51057C168.189 1.49905 168.868 1.49698 169.544 1.5042L169.555 0.504262C168.869 0.496935 168.181 0.499037 167.492 0.510708L167.508 1.51057ZM177.582 2.03181C178.921 2.19358 180.251 2.39142 181.573 2.62414L181.747 1.63928C180.407 1.40348 179.059 1.20299 177.702 1.03903L177.582 2.03181ZM189.427 4.4351C190.718 4.80315 192.001 5.20378 193.277 5.63584L193.598 4.68867C192.307 4.25151 191.008 3.84603 189.702 3.47344L189.427 4.4351ZM200.796 8.573C202.021 9.11511 203.239 9.68529 204.452 10.2824L204.894 9.38531C203.669 8.7823 202.438 8.20632 201.2 7.65852L200.796 8.573ZM211.56 14.1234C212.719 14.8046 213.872 15.5093 215.02 16.2365L215.555 15.3917C214.398 14.6588 213.235 13.9483 212.067 13.2613L211.56 14.1234ZM221.727 20.773C222.811 21.5521 223.891 22.35 224.967 23.1659L225.571 22.3692C224.489 21.5483 223.402 20.7453 222.311 19.961L221.727 20.773ZM231.303 28.2109C232.338 29.0734 233.37 29.9513 234.399 30.8438L235.054 30.0884C234.021 29.1918 232.984 28.3095 231.943 27.4425L231.303 28.2109ZM240.418 36.259C241.405 37.1767 242.388 38.1065 243.369 39.0477L244.061 38.3261C243.077 37.3816 242.09 36.4483 241.1 35.527L240.418 36.259ZM249.15 44.7485C250.093 45.7019 251.033 46.6644 251.972 47.6355L252.691 46.9405C251.75 45.9668 250.807 45.0016 249.861 44.0455L249.15 44.7485ZM257.555 53.5285C258.473 54.5156 259.39 55.5096 260.305 56.5097L261.043 55.8347C260.126 54.8326 259.207 53.8367 258.287 52.8475L257.555 53.5285ZM265.742 62.535C266.642 63.545 267.541 64.5597 268.44 65.5786L269.19 64.9173C268.29 63.8972 267.39 62.8811 266.489 61.8697L265.742 62.535ZM273.78 71.688C274.666 72.71 275.552 73.7347 276.438 74.7615L277.195 74.1083C276.309 73.0809 275.422 72.0555 274.535 71.0327L273.78 71.688ZM281.732 80.9199C282.612 81.9473 283.493 82.9754 284.374 84.0038L285.133 83.3533C284.253 82.3249 283.372 81.2966 282.491 80.269L281.732 80.9199ZM289.662 90.171C290.545 91.199 291.429 92.226 292.313 93.2512L293.071 92.5981C292.187 91.5734 291.303 90.547 290.42 89.5193L289.662 90.171ZM297.639 99.3903C298.531 100.411 299.424 101.43 300.318 102.444L301.068 101.783C300.175 100.77 299.283 99.7526 298.392 98.7325L297.639 99.3903ZM305.727 108.517C306.633 109.523 307.541 110.524 308.451 111.519L309.189 110.844C308.281 109.851 307.375 108.852 306.47 107.847L305.727 108.517ZM313.99 117.482C314.924 118.47 315.86 119.451 316.798 120.424L317.518 119.729C316.582 118.759 315.648 117.781 314.717 116.795L313.99 117.482ZM322.502 126.208C323.474 127.17 324.448 128.122 325.425 129.063L326.119 128.343C325.145 127.405 324.174 126.456 323.206 125.497L322.502 126.208ZM331.367 134.62C332.377 135.534 333.389 136.436 334.405 137.324L335.063 136.571C334.052 135.687 333.044 134.789 332.039 133.879L331.367 134.62ZM340.642 142.565C341.701 143.417 342.763 144.254 343.83 145.074L344.439 144.281C343.379 143.466 342.322 142.634 341.27 141.786L340.642 142.565ZM350.405 149.872C351.536 150.652 352.671 151.412 353.812 152.151L354.356 151.311C353.223 150.578 352.096 149.823 350.973 149.049L350.405 149.872ZM360.79 156.362C361.979 157.026 363.175 157.667 364.377 158.283L364.833 157.393C363.642 156.783 362.457 156.148 361.278 155.489L360.79 156.362ZM371.78 161.717C373.04 162.24 374.308 162.735 375.583 163.2L375.926 162.261C374.665 161.8 373.41 161.311 372.163 160.793L371.78 161.717ZM383.371 165.638C384.688 165.982 386.014 166.294 387.348 166.572L387.552 165.593C386.235 165.318 384.925 165.01 383.624 164.67L383.371 165.638ZM395.416 167.826C396.096 167.895 396.778 167.956 397.462 168.008L397.538 167.011C396.862 166.96 396.189 166.9 395.517 166.831L395.416 167.826ZM397.462 168.008C398.147 168.06 398.832 168.1 399.516 168.13L399.559 167.131C398.885 167.102 398.211 167.062 397.538 167.011L397.462 168.008ZM407.723 167.961C409.085 167.849 410.446 167.696 411.808 167.503L411.668 166.513C410.325 166.703 408.983 166.854 407.641 166.964L407.723 167.961ZM419.858 165.917C421.173 165.587 422.488 165.223 423.803 164.825L423.514 163.868C422.214 164.261 420.914 164.621 419.615 164.947L419.858 165.917ZM431.542 162.122C432.803 161.623 434.064 161.097 435.325 160.544L434.923 159.628C433.673 160.176 432.423 160.698 431.174 161.192L431.542 162.122ZM442.707 157.013C443.916 156.388 445.124 155.741 446.333 155.072L445.849 154.197C444.648 154.861 443.448 155.504 442.248 156.124L442.707 157.013ZM453.405 150.925C454.546 150.219 455.687 149.496 456.829 148.756L456.285 147.917C455.149 148.653 454.014 149.373 452.879 150.075L453.405 150.925ZM463.611 144.174C464.719 143.396 465.827 142.604 466.935 141.799L466.347 140.99C465.243 141.792 464.14 142.581 463.036 143.356L463.611 144.174ZM473.474 136.901C474.553 136.069 475.632 135.227 476.711 134.374L476.091 133.589C475.015 134.44 473.939 135.28 472.864 136.109L473.474 136.901ZM483.054 129.246C484.103 128.38 485.153 127.505 486.203 126.622L485.559 125.857C484.511 126.738 483.464 127.611 482.417 128.475L483.054 129.246ZM492.406 121.317C493.43 120.428 494.453 119.533 495.477 118.632L494.816 117.881C493.794 118.78 492.772 119.674 491.751 120.562L492.406 121.317ZM501.584 113.193C502.59 112.288 503.595 111.378 504.601 110.464L503.929 109.724C502.924 110.637 501.919 111.546 500.915 112.45L501.584 113.193ZM510.629 104.948C511.627 104.029 512.625 103.107 513.623 102.182L512.943 101.449C511.946 102.372 510.948 103.294 509.951 104.213L510.629 104.948ZM519.603 96.6223C520.597 95.6952 521.591 94.7671 522.585 93.8385L521.902 93.1078C520.908 94.0363 519.914 94.9642 518.921 95.891L519.603 96.6223ZM528.548 88.2652C529.542 87.3368 530.536 86.4089 531.53 85.4821L530.848 84.7508C529.854 85.6778 528.86 86.6059 527.866 87.5345L528.548 88.2652ZM537.508 79.925C538.505 79.0012 539.503 78.0797 540.5 77.1609L539.823 76.4254C538.825 77.3448 537.826 78.267 536.828 79.1913L537.508 79.925ZM546.523 71.6507C547.528 70.738 548.533 69.8293 549.538 68.9251L548.869 68.1817C547.863 69.087 546.857 69.9967 545.851 70.9103L546.523 71.6507ZM555.638 63.4958C556.66 62.5967 557.682 61.7035 558.704 60.8167L558.048 60.0615C557.025 60.9498 556.001 61.8445 554.977 62.745L555.638 63.4958ZM564.898 55.5229C565.945 54.6424 566.993 53.7699 568.04 52.9061L567.404 52.1347C566.354 53.0006 565.304 53.875 564.255 54.7574L564.898 55.5229ZM574.368 47.7953C575.445 46.9452 576.521 46.1056 577.597 45.2772L576.987 44.4848C575.908 45.3157 574.828 46.1579 573.748 47.0105L574.368 47.7953ZM584.117 40.4003C585.221 39.5988 586.326 38.8107 587.43 38.0367L586.856 37.2179C585.747 37.9951 584.638 38.7864 583.529 39.5909L584.117 40.4003ZM594.185 33.481C595.321 32.7459 596.458 32.0274 597.593 31.3264L597.068 30.4754C595.926 31.1803 594.784 31.9026 593.642 32.6413L594.185 33.481ZM604.628 27.2119C605.829 26.5494 607.03 25.9084 608.23 25.2898L607.772 24.4009C606.563 25.0239 605.354 25.6694 604.145 26.3363L604.628 27.2119ZM615.56 21.7969C616.811 21.2508 618.062 20.7313 619.312 20.2395L618.946 19.309C617.684 19.8053 616.422 20.3296 615.16 20.8804L615.56 21.7969ZM626.977 17.5784C628.278 17.1885 629.579 16.8314 630.879 16.5081L630.637 15.5377C629.322 15.8649 628.006 16.2262 626.69 16.6204L626.977 17.5784ZM638.829 14.9627C640.172 14.7765 641.515 14.6293 642.857 14.5227L642.778 13.5258C641.416 13.634 640.054 13.7833 638.691 13.9722L638.829 14.9627ZM650.939 14.3815C651.613 14.4125 652.287 14.4546 652.961 14.5077L653.039 13.5108C652.355 13.4568 651.67 13.4141 650.985 13.3825L650.939 14.3815ZM652.961 14.5077C653.652 14.5623 654.337 14.627 655.017 14.7017L655.126 13.7077C654.436 13.6318 653.74 13.5662 653.039 13.5108L652.961 14.5077ZM663.001 16.0864C664.324 16.4034 665.625 16.7606 666.905 17.1565L667.201 16.2011C665.9 15.7989 664.578 15.436 663.234 15.1139L663.001 16.0864ZM674.473 20.0454C675.705 20.6084 676.917 21.2092 678.109 21.8462L678.58 20.9642C677.37 20.3176 676.14 19.7076 674.889 19.1358L674.473 20.0454ZM685.024 26.0822C686.133 26.8519 687.226 27.6541 688.301 28.4873L688.914 27.6968C687.825 26.8531 686.718 26.0405 685.594 25.2605L685.024 26.0822ZM694.477 33.7658C695.46 34.6873 696.429 35.6351 697.386 36.6079L698.099 35.9069C697.133 34.9248 696.154 33.9673 695.16 33.036L694.477 33.7658ZM702.875 42.6215C703.749 43.6478 704.612 44.6945 705.464 45.7605L706.245 45.1359C705.386 44.0623 704.517 43.0077 703.636 41.9733L702.875 42.6215ZM710.38 52.2632C711.168 53.3633 711.948 54.4791 712.721 55.6092L713.546 55.045C712.77 53.909 711.986 52.7871 711.192 51.6806L710.38 52.2632ZM717.192 62.434C717.913 63.5799 718.629 64.7371 719.338 65.9047L720.193 65.3853C719.48 64.2135 718.763 63.0518 718.038 61.9012L717.192 62.434ZM723.486 72.9419C724.161 74.1185 724.831 75.3029 725.497 76.4941L726.37 76.006C725.702 74.812 725.03 73.6246 724.354 72.4448L723.486 72.9419ZM729.424 83.6605C730.07 84.8595 730.713 86.0633 731.354 87.2707L732.237 86.802C731.595 85.593 730.952 84.3875 730.305 83.1865L729.424 83.6605ZM735.155 94.5088C735.784 95.7162 736.412 96.9253 737.039 98.1353L737.927 97.675C737.299 96.4647 736.671 95.255 736.042 94.0469L735.155 94.5088ZM740.803 105.4C741.431 106.611 742.059 107.821 742.689 109.028L743.575 108.566C742.946 107.359 742.318 106.15 741.69 104.94L740.803 105.4ZM746.498 116.273C747.14 117.481 747.784 118.684 748.43 119.883L749.31 119.408C748.665 118.212 748.022 117.01 747.381 115.804L746.498 116.273ZM752.373 127.058C753.044 128.254 753.718 129.442 754.398 130.623L755.264 130.125C754.587 128.947 753.914 127.761 753.245 126.568L752.373 127.058ZM758.574 137.674C759.287 138.841 760.006 139.997 760.732 141.142L761.576 140.607C760.854 139.467 760.138 138.315 759.427 137.152L758.574 137.674ZM765.249 147.982C766.033 149.118 766.825 150.24 767.627 151.345L768.436 150.758C767.64 149.659 766.852 148.544 766.072 147.414L765.249 147.982ZM772.617 157.858C773.482 158.923 774.359 159.968 775.246 160.991L776.002 160.336C775.121 159.321 774.252 158.284 773.393 157.227L772.617 157.858ZM780.853 166.999C781.833 167.971 782.828 168.917 783.838 169.834L784.51 169.094C783.511 168.187 782.527 167.251 781.557 166.289L780.853 166.999ZM790.18 175.062C791.285 175.882 792.409 176.67 793.551 177.423L794.101 176.588C792.975 175.845 791.867 175.069 790.775 174.259L790.18 175.062ZM800.679 181.53C801.909 182.14 803.159 182.712 804.43 183.243L804.816 182.32C803.564 181.798 802.334 181.235 801.124 180.635L800.679 181.53ZM812.22 185.9C813.533 186.252 814.867 186.562 816.224 186.83L816.418 185.849C815.083 185.585 813.77 185.28 812.479 184.934L812.22 185.9ZM824.385 187.9C825.078 187.947 825.777 187.983 826.482 188.009L826.518 187.01C825.824 186.984 825.135 186.949 824.452 186.903L824.385 187.9ZM826.482 188.009C827.163 188.034 827.839 188.056 828.51 188.075L828.539 187.075C827.871 187.056 827.197 187.034 826.518 187.01L826.482 188.009ZM836.338 188.169C837.697 188.162 839.031 188.142 840.341 188.11L840.317 187.11C839.013 187.142 837.685 187.162 836.333 187.169L836.338 188.169ZM848.202 187.75C849.516 187.661 850.803 187.557 852.064 187.441L851.972 186.445C850.719 186.561 849.44 186.663 848.134 186.752L848.202 187.75ZM859.883 186.503C861.231 186.302 862.546 186.083 863.829 185.849L863.649 184.865C862.377 185.098 861.072 185.314 859.735 185.514L859.883 186.503ZM871.51 184.16C872.818 183.82 874.089 183.461 875.324 183.083L875.032 182.127C873.81 182.5 872.553 182.855 871.258 183.192L871.51 184.16ZM882.74 180.44C883.989 179.926 885.197 179.39 886.367 178.835L885.938 177.931C884.784 178.479 883.592 179.008 882.359 179.516L882.74 180.44ZM893.293 175.062C894.429 174.357 895.524 173.631 896.581 172.886L896.006 172.068C894.964 172.802 893.885 173.517 892.765 174.212L893.293 175.062ZM902.786 167.966C903.781 167.082 904.741 166.181 905.671 165.266L904.97 164.553C904.052 165.457 903.104 166.346 902.122 167.218L902.786 167.966ZM911.045 159.487C911.904 158.485 912.742 157.473 913.562 156.455L912.783 155.828C911.969 156.839 911.138 157.843 910.286 158.836L911.045 159.487ZM918.37 150.225C919.157 149.175 919.937 148.123 920.717 147.075L919.914 146.478C919.134 147.528 918.355 148.578 917.57 149.626L918.37 150.225ZM925.443 140.818C926.244 139.788 927.056 138.767 927.884 137.758L927.11 137.124C926.276 138.141 925.459 139.169 924.654 140.203L925.443 140.818ZM933.055 131.901C933.951 130.968 934.874 130.052 935.828 129.155L935.144 128.426C934.176 129.335 933.241 130.264 932.334 131.208L933.055 131.901ZM941.8 124.161C942.828 123.403 943.892 122.666 944.999 121.952L944.457 121.112C943.333 121.837 942.25 122.586 941.206 123.357L941.8 124.161ZM951.786 118.16C952.934 117.609 954.123 117.08 955.356 116.576L954.977 115.65C953.726 116.162 952.519 116.699 951.353 117.259L951.786 118.16ZM962.705 114.025C963.336 113.842 963.977 113.665 964.628 113.493L964.372 112.526C963.714 112.7 963.065 112.88 962.426 113.065L962.705 114.025ZM964.628 113.493C965.302 113.315 965.973 113.138 966.642 112.963L966.389 111.996C965.719 112.171 965.047 112.348 964.372 112.526L964.628 113.493ZM974.646 110.899C975.992 110.558 977.329 110.223 978.656 109.894L978.415 108.924C977.087 109.253 975.749 109.588 974.401 109.93L974.646 110.899ZM986.684 107.954C988.036 107.636 989.38 107.326 990.714 107.022L990.492 106.047C989.155 106.351 987.81 106.662 986.455 106.981L986.684 107.954ZM998.773 105.258C1000.13 104.972 1001.48 104.695 1002.83 104.427L1002.63 103.446C1001.28 103.715 999.93 103.993 998.568 104.279L998.773 105.258ZM1010.94 102.894C1012.31 102.653 1013.66 102.422 1015.01 102.2L1014.85 101.213C1013.49 101.436 1012.14 101.668 1010.77 101.91L1010.94 102.894ZM1023.18 100.971C1024.55 100.784 1025.91 100.609 1027.27 100.444L1027.15 99.4517C1025.79 99.6165 1024.42 99.7927 1023.04 99.9798L1023.18 100.971ZM1035.48 99.5884C1036.85 99.4683 1038.22 99.3605 1039.59 99.2651L1039.52 98.2675C1038.15 98.3633 1036.77 98.4716 1035.39 98.5922L1035.48 99.5884ZM1047.83 98.8432C1049.21 98.7988 1050.58 98.7675 1051.96 98.7497L1051.94 97.7498C1050.56 97.7677 1049.18 97.7991 1047.8 97.8437L1047.83 98.8432ZM1060.2 98.8065C1061.58 98.8433 1062.95 98.894 1064.33 98.9588L1064.38 97.9599C1062.99 97.8948 1061.61 97.8439 1060.23 97.8068L1060.2 98.8065ZM1072.56 99.5113C1073.92 99.6303 1075.29 99.7633 1076.66 99.9105L1076.77 98.9162C1075.39 98.7683 1074.01 98.6347 1072.64 98.5151L1072.56 99.5113ZM1084.85 100.949C1086.2 101.147 1087.56 101.358 1088.93 101.584L1089.09 100.597C1087.72 100.371 1086.35 100.158 1085 99.9599L1084.85 100.949ZM1097.04 103.071C1098.38 103.341 1099.73 103.624 1101.08 103.921L1101.3 102.944C1099.93 102.646 1098.58 102.362 1097.23 102.091L1097.04 103.071ZM1109.11 105.81C1110.43 106.143 1111.76 106.488 1113.11 106.846L1113.36 105.88C1112.02 105.521 1110.68 105.174 1109.35 104.84L1109.11 105.81ZM1121.05 109.085C1122.36 109.472 1123.68 109.87 1125 110.281L1125.3 109.326C1123.97 108.914 1122.65 108.514 1121.34 108.126L1121.05 109.085ZM1132.86 112.815C1133.52 113.035 1134.18 113.257 1134.84 113.483L1135.16 112.536C1134.5 112.31 1133.84 112.087 1133.18 111.867L1132.86 112.815ZM1134.84 113.483C1135.45 113.692 1136.07 113.903 1136.69 114.114L1137.01 113.168C1136.39 112.957 1135.78 112.746 1135.16 112.536L1134.84 113.483ZM1144.08 116.673C1145.31 117.103 1146.54 117.535 1147.78 117.968L1148.11 117.025C1146.88 116.591 1145.64 116.159 1144.41 115.729L1144.08 116.673ZM1155.15 120.589C1156.38 121.03 1157.61 121.471 1158.83 121.914L1159.17 120.974C1157.95 120.531 1156.72 120.088 1155.49 119.648L1155.15 120.589ZM1166.19 124.591C1167.41 125.04 1168.64 125.49 1169.86 125.941L1170.2 125.003C1168.98 124.552 1167.76 124.102 1166.53 123.652L1166.19 124.591ZM1177.2 128.668C1178.42 129.126 1179.64 129.585 1180.86 130.044L1181.22 129.108C1180 128.649 1178.77 128.19 1177.55 127.731L1177.2 128.668ZM1188.18 132.816C1189.41 133.283 1190.63 133.748 1191.84 134.214L1192.2 133.28C1190.98 132.814 1189.76 132.348 1188.54 131.882L1188.18 132.816ZM1199.15 137.029C1200.36 137.502 1201.58 137.973 1202.78 138.443L1203.15 137.511C1201.94 137.041 1200.73 136.569 1199.51 136.097L1199.15 137.029ZM1210.07 141.297C1211.3 141.779 1212.52 142.259 1213.72 142.737L1214.09 141.808C1212.88 141.329 1211.66 140.849 1210.44 140.366L1210.07 141.297ZM1220.99 145.626C1222.22 146.115 1223.43 146.602 1224.63 147.085L1225.01 146.157C1223.8 145.673 1222.59 145.187 1221.36 144.697L1220.99 145.626ZM1231.89 150.01C1233.12 150.506 1234.33 150.997 1235.52 151.483L1235.9 150.557C1234.7 150.07 1233.49 149.579 1232.27 149.083L1231.89 150.01ZM1242.77 154.444C1243.99 154.947 1245.2 155.444 1246.39 155.933L1246.77 155.009C1245.58 154.519 1244.37 154.022 1243.15 153.518L1242.77 154.444ZM1253.61 158.923C1254.85 159.437 1256.06 159.941 1257.24 160.434L1257.62 159.511C1256.44 159.018 1255.23 158.513 1253.99 158L1253.61 158.923ZM1264.45 163.461C1265.7 163.985 1266.9 164.492 1268.05 164.982L1268.44 164.061C1267.29 163.571 1266.08 163.063 1264.84 162.54L1264.45 163.461ZM1275.26 168.049C1276.56 168.602 1277.76 169.118 1278.87 169.595L1279.27 168.676C1278.16 168.199 1276.95 167.683 1275.66 167.13L1275.26 168.049ZM1286.04 172.698C1286.62 172.949 1287.06 173.142 1287.35 173.271C1287.5 173.336 1287.61 173.385 1287.69 173.418C1287.72 173.434 1287.75 173.446 1287.77 173.455C1287.78 173.459 1287.79 173.462 1287.79 173.464C1287.79 173.465 1287.8 173.466 1287.8 173.466C1287.8 173.466 1287.8 173.467 1287.8 173.467C1287.8 173.467 1287.8 173.467 1287.8 173.467C1287.8 173.467 1287.8 173.467 1287.8 173.467V173.467C1287.8 173.467 1287.8 173.467 1288 173.009C1288.2 172.552 1288.2 172.552 1288.2 172.552V172.552C1288.2 172.552 1288.2 172.552 1288.2 172.552C1288.2 172.552 1288.2 172.552 1288.2 172.552C1288.2 172.551 1288.2 172.551 1288.2 172.551C1288.2 172.551 1288.2 172.55 1288.19 172.549C1288.19 172.547 1288.18 172.543 1288.17 172.539C1288.15 172.531 1288.13 172.519 1288.09 172.502C1288.01 172.469 1287.9 172.42 1287.75 172.355C1287.46 172.226 1287.02 172.033 1286.44 171.781L1286.04 172.698Z" fill="#949DAF"/>
<path d="M-10 182.521L-10.0876 182.028L-10 182.521ZM183.5 38.0204L183.551 38.5178L183.5 38.0204ZM406 146.011L405.995 146.511L406 146.011ZM618 57.0111L618.004 57.5111L618 57.0111ZM813.5 147.011L813.437 146.515L813.5 147.011ZM967.5 88.0207L967.546 88.5185L967.5 88.0207ZM1136 121.011L1135.82 121.477L1136 121.011ZM-153 169.011C-153.128 169.494 -153.128 169.494 -153.128 169.494C-153.128 169.494 -153.128 169.494 -153.128 169.494C-153.128 169.494 -153.128 169.494 -153.128 169.494C-153.128 169.494 -153.128 169.494 -153.128 169.494C-153.128 169.495 -153.127 169.495 -153.126 169.495C-153.125 169.495 -153.123 169.496 -153.12 169.496C-153.115 169.498 -153.107 169.5 -153.097 169.503C-153.076 169.508 -153.045 169.516 -153.004 169.527C-152.922 169.549 -152.801 169.581 -152.64 169.622C-152.318 169.706 -151.841 169.829 -151.218 169.986L-150.973 169.017C-151.594 168.86 -152.069 168.737 -152.388 168.654C-152.548 168.613 -152.669 168.581 -152.75 168.56C-152.791 168.549 -152.821 168.541 -152.841 168.536C-152.852 168.533 -152.859 168.531 -152.864 168.53C-152.867 168.529 -152.869 168.529 -152.87 168.528C-152.87 168.528 -152.871 168.528 -152.871 168.528C-152.871 168.528 -152.871 168.528 -152.871 168.528C-152.872 168.528 -152.872 168.528 -152.872 168.528C-152.872 168.528 -152.872 168.528 -152.872 168.528C-152.872 168.528 -152.872 168.528 -153 169.011ZM-143.412 171.877C-142.201 172.159 -140.889 172.46 -139.485 172.777L-139.265 171.802C-140.667 171.486 -141.976 171.185 -143.185 170.903L-143.412 171.877ZM-131.617 174.495C-130.35 174.762 -129.039 175.035 -127.687 175.312L-127.486 174.332C-128.837 174.056 -130.146 173.783 -131.41 173.516L-131.617 174.495ZM-119.811 176.868C-118.52 177.115 -117.202 177.362 -115.859 177.609L-115.678 176.626C-117.018 176.379 -118.334 176.132 -119.624 175.886L-119.811 176.868ZM-107.926 179.014C-106.626 179.235 -105.309 179.454 -103.976 179.671L-103.815 178.684C-105.146 178.467 -106.461 178.249 -107.759 178.028L-107.926 179.014ZM-96.0244 180.906C-94.7097 181.1 -93.3836 181.291 -92.0474 181.478L-91.9089 180.487C-93.2425 180.301 -94.5661 180.111 -95.8783 179.917L-96.0244 180.906ZM-84.0784 182.527C-82.7535 182.69 -81.4216 182.848 -80.0837 183.001L-79.9701 182.008C-81.305 181.855 -82.6341 181.697 -83.9561 181.534L-84.0784 182.527ZM-72.0901 183.841C-70.7581 183.968 -69.4225 184.089 -68.0847 184.204L-67.9996 183.207C-69.334 183.093 -70.6662 182.973 -71.995 182.846L-72.0901 183.841ZM-60.0657 184.802C-58.7277 184.887 -57.3896 184.964 -56.0524 185.033L-56.0009 184.035C-57.334 183.966 -58.6682 183.889 -60.0023 183.804L-60.0657 184.802ZM-48.0122 185.345C-46.6695 185.379 -45.3301 185.404 -43.9949 185.418L-43.9839 184.418C-45.3141 184.404 -46.6488 184.379 -47.9868 184.345L-48.0122 185.345ZM-35.942 185.38C-34.5972 185.351 -33.2592 185.31 -31.9293 185.258L-31.9688 184.259C-33.2925 184.311 -34.6244 184.351 -35.9634 184.38L-35.942 185.38ZM-23.8801 184.777C-22.5341 184.668 -21.1995 184.544 -19.8776 184.405L-19.9822 183.411C-21.2959 183.549 -22.6226 183.672 -23.9611 183.78L-23.8801 184.777ZM-11.882 183.347C-11.2212 183.24 -10.5646 183.129 -9.91245 183.013L-10.0876 182.028C-10.7344 182.143 -11.3858 182.254 -12.0416 182.36L-11.882 183.347ZM-9.91245 183.013C-9.24734 182.895 -8.58661 182.771 -7.93018 182.643L-8.12248 181.661C-8.77316 181.789 -9.42818 181.911 -10.0876 182.028L-9.91245 183.013ZM-0.212097 180.846C1.08081 180.495 2.35619 180.124 3.61458 179.733L3.31776 178.778C2.07109 179.166 0.807495 179.533 -0.473557 179.88L-0.212097 180.846ZM11.0971 177.099C12.3296 176.613 13.545 176.106 14.7441 175.581L14.3426 174.665C13.1548 175.185 11.9509 175.687 10.7301 176.169L11.0971 177.099ZM21.8907 172.127C23.0672 171.504 24.2276 170.862 25.3723 170.202L24.8727 169.335C23.7382 169.99 22.5885 170.626 21.4227 171.243L21.8907 172.127ZM32.1007 166.002C33.1987 165.264 34.2822 164.508 35.3519 163.737L34.767 162.926C33.706 163.691 32.6314 164.44 31.5426 165.172L32.1007 166.002ZM41.6388 158.902C42.6625 158.065 43.6736 157.213 44.6729 156.349L44.0185 155.592C43.026 156.451 42.0221 157.297 41.0058 158.128L41.6388 158.902ZM50.5302 151.009C51.4835 150.096 52.4266 149.171 53.3601 148.236L52.6523 147.53C51.7239 148.46 50.7862 149.379 49.8385 150.287L50.5302 151.009ZM58.8403 142.516C59.7344 141.546 60.6204 140.568 61.4991 139.581L60.7524 138.916C59.8773 139.899 58.9951 140.873 58.1051 141.838L58.8403 142.516ZM66.6759 133.591C67.5239 132.582 68.3661 131.567 69.2032 130.547L68.4301 129.913C67.5953 130.93 66.7556 131.942 65.9104 132.948L66.6759 133.591ZM74.1613 124.38C74.9781 123.346 75.7914 122.308 76.6018 121.268L75.8128 120.653C75.0037 121.692 74.1918 122.728 73.3765 123.761L74.1613 124.38ZM81.4302 115.006C82.2311 113.959 83.0305 112.911 83.829 111.864L83.0336 111.258C82.2353 112.305 81.4364 113.352 80.636 114.398L81.4302 115.006ZM88.6197 105.578C89.4193 104.532 90.2195 103.487 91.0209 102.444L90.2281 101.835C89.4259 102.878 88.6251 103.924 87.8251 104.971L88.6197 105.578ZM95.8651 96.2074C96.6803 95.1709 97.4983 94.1387 98.3198 93.1116L97.5388 92.487C96.7155 93.5164 95.8958 94.5508 95.0791 95.5892L95.8651 96.2074ZM103.312 86.9984C104.155 85.9892 105.003 84.987 105.857 83.9926L105.099 83.3411C104.242 84.3391 103.39 85.3447 102.544 86.3572L103.312 86.9984ZM111.089 78.0912C111.98 77.12 112.878 76.1587 113.784 75.2083L113.061 74.5182C112.15 75.4735 111.247 76.4395 110.352 77.4153L111.089 78.0912ZM119.343 69.6249C120.291 68.7154 121.249 67.8188 122.217 66.936L121.543 66.1971C120.569 67.0858 119.605 67.9882 118.651 68.9033L119.343 69.6249ZM128.179 61.7948C129.197 60.9671 130.228 60.1552 131.271 59.36L130.665 58.5647C129.613 59.3664 128.575 60.1848 127.548 61.0189L128.179 61.7948ZM137.682 54.8038C138.774 54.0836 139.88 53.3818 141 52.6994L140.48 51.8453C139.349 52.5341 138.233 53.2424 137.132 53.9691L137.682 54.8038ZM147.862 48.8699C149.027 48.2772 150.209 47.705 151.407 47.1541L150.99 46.2455C149.779 46.8019 148.585 47.3799 147.408 47.9786L147.862 48.8699ZM158.675 44.1607C159.891 43.7162 161.124 43.293 162.375 42.8918L162.069 41.9396C160.806 42.3449 159.56 42.7724 158.332 43.2215L158.675 44.1607ZM169.944 40.7911C171.213 40.4919 172.499 40.2145 173.804 39.9596L173.612 38.9782C172.295 39.2356 170.996 39.5157 169.714 39.8178L169.944 40.7911ZM181.56 38.7396C182.219 38.6601 182.883 38.5862 183.551 38.5178L183.449 37.523C182.775 37.592 182.105 37.6666 181.44 37.7467L181.56 38.7396ZM183.551 38.5178C184.235 38.4477 184.916 38.3841 185.594 38.3268L185.51 37.3304C184.826 37.3881 184.139 37.4523 183.449 37.523L183.551 38.5178ZM193.624 37.939C194.986 37.9235 196.334 37.9343 197.668 37.9705L197.695 36.9708C196.348 36.9343 194.987 36.9234 193.613 36.9391L193.624 37.939ZM205.693 38.5046C207.031 38.6474 208.355 38.816 209.666 39.0095L209.812 38.0203C208.488 37.8247 207.151 37.6544 205.8 37.5103L205.693 38.5046ZM217.574 40.5074C218.89 40.8124 220.193 41.1426 221.484 41.4969L221.748 40.5326C220.445 40.1748 219.129 39.8413 217.8 39.5333L217.574 40.5074ZM229.152 43.9287C230.417 44.3838 231.67 44.8618 232.912 45.3615L233.285 44.4338C232.032 43.9296 230.767 43.4472 229.491 42.9878L229.152 43.9287ZM240.272 48.6286C241.48 49.215 242.679 49.8213 243.868 50.4462L244.333 49.561C243.135 48.9312 241.927 48.3202 240.709 47.729L240.272 48.6286ZM250.889 54.4057C252.039 55.0974 253.18 55.8054 254.314 56.5286L254.851 55.6854C253.71 54.9578 252.562 54.2452 251.405 53.549L250.889 54.4057ZM261.011 61.0248C262.111 61.7989 263.204 62.5858 264.292 63.3845L264.884 62.5784C263.791 61.7759 262.692 60.9852 261.587 60.2071L261.011 61.0248ZM270.716 68.2741C271.771 69.104 272.821 69.9433 273.868 70.791L274.498 70.0139C273.447 69.1634 272.393 68.3212 271.335 67.4882L270.716 68.2741ZM280.088 75.9493C281.115 76.8194 282.14 77.6957 283.163 78.5772L283.816 77.8197C282.791 76.9366 281.764 76.0584 280.735 75.1863L280.088 75.9493ZM289.253 83.8949C290.263 84.7857 291.271 85.6795 292.28 86.5755L292.944 85.8279C291.935 84.9314 290.925 84.0368 289.915 83.1452L289.253 83.8949ZM298.32 91.9584C299.327 92.8558 300.334 93.7534 301.343 94.6502L302.007 93.9028C300.999 93.0065 299.992 92.1093 298.986 91.212L298.32 91.9584ZM307.412 100.008C308.428 100.897 309.446 101.783 310.467 102.665L311.121 101.908C310.101 101.028 309.085 100.143 308.07 99.2556L307.412 100.008ZM316.641 107.909C317.679 108.774 318.721 109.633 319.768 110.486L320.399 109.71C319.356 108.86 318.317 108.004 317.281 107.141L316.641 107.909ZM326.12 115.52C327.191 116.344 328.269 117.16 329.352 117.965L329.949 117.163C328.87 116.361 327.797 115.548 326.73 114.727L326.12 115.52ZM335.948 122.683C337.063 123.449 338.186 124.202 339.317 124.942L339.865 124.106C338.74 123.369 337.623 122.62 336.514 121.859L335.948 122.683ZM346.209 129.224C347.375 129.909 348.55 130.58 349.736 131.234L350.219 130.358C349.042 129.709 347.874 129.043 346.715 128.362L346.209 129.224ZM356.953 134.952C358.171 135.534 359.399 136.099 360.639 136.644L361.042 135.729C359.812 135.188 358.593 134.628 357.385 134.05L356.953 134.952ZM368.173 139.67C369.445 140.132 370.728 140.574 372.025 140.994L372.333 140.043C371.048 139.626 369.775 139.188 368.514 138.73L368.173 139.67ZM379.837 143.223C381.139 143.545 382.453 143.845 383.78 144.122L383.985 143.143C382.669 142.868 381.367 142.571 380.077 142.253L379.837 143.223ZM391.784 145.494C393.121 145.674 394.471 145.831 395.835 145.964L395.933 144.969C394.581 144.837 393.242 144.681 391.917 144.503L391.784 145.494ZM403.932 146.471C404.616 146.49 405.304 146.504 405.995 146.511L406.005 145.511C405.32 145.504 404.638 145.491 403.96 145.472L403.932 146.471ZM405.995 146.511C406.661 146.518 407.325 146.52 407.985 146.518L407.981 145.518C407.326 145.52 406.667 145.518 406.005 145.511L405.995 146.511ZM415.819 146.252C417.138 146.167 418.444 146.063 419.739 145.939L419.643 144.943C418.36 145.066 417.064 145.17 415.755 145.254L415.819 146.252ZM427.518 144.948C428.816 144.741 430.101 144.515 431.375 144.27L431.186 143.288C429.923 143.531 428.648 143.756 427.361 143.961L427.518 144.948ZM439.029 142.547C440.302 142.218 441.562 141.87 442.812 141.506L442.532 140.546C441.292 140.908 440.041 141.252 438.779 141.578L439.029 142.547ZM450.269 139.083C451.505 138.64 452.73 138.181 453.945 137.707L453.581 136.775C452.375 137.247 451.159 137.702 449.932 138.141L450.269 139.083ZM461.168 134.656C462.358 134.115 463.539 133.561 464.712 132.993L464.276 132.093C463.111 132.657 461.937 133.208 460.754 133.745L461.168 134.656ZM471.687 129.413C472.836 128.79 473.978 128.156 475.113 127.511L474.619 126.642C473.49 127.284 472.354 127.914 471.211 128.534L471.687 129.413ZM481.851 123.516C482.963 122.831 484.068 122.137 485.168 121.436L484.63 120.592C483.534 121.292 482.433 121.983 481.327 122.665L481.851 123.516ZM491.711 117.137C492.793 116.407 493.87 115.672 494.944 114.931L494.377 114.107C493.305 114.847 492.23 115.58 491.152 116.308L491.711 117.137ZM501.348 110.435C502.409 109.678 503.468 108.918 504.526 108.156L503.941 107.345C502.884 108.106 501.827 108.865 500.767 109.621L501.348 110.435ZM510.854 103.563C511.906 102.796 512.959 102.027 514.011 101.26L513.422 100.452C512.369 101.22 511.317 101.988 510.265 102.755L510.854 103.563ZM520.333 96.6652C521.388 95.9026 522.445 95.1423 523.504 94.3849L522.922 93.5716C521.862 94.33 520.803 95.0913 519.747 95.8546L520.333 96.6652ZM529.886 89.8846C530.955 89.1429 532.028 88.4062 533.104 87.6753L532.542 86.8481C531.463 87.581 530.388 88.3195 529.316 89.0628L529.886 89.8846ZM539.611 83.367C540.704 82.6632 541.802 81.967 542.905 81.2794L542.376 80.4307C541.268 81.121 540.166 81.8199 539.069 82.5262L539.611 83.367ZM549.591 77.2664C550.717 76.6177 551.849 75.9793 552.989 75.3522L552.507 74.4761C551.361 75.1066 550.223 75.7481 549.092 76.4L549.591 77.2664ZM559.897 71.741C561.058 71.1669 562.227 70.6056 563.405 70.058L562.983 69.1512C561.798 69.7023 560.622 70.2671 559.454 70.8446L559.897 71.741ZM570.549 66.9571C571.75 66.4731 572.961 66.0041 574.182 65.5511L573.834 64.6136C572.604 65.0699 571.385 65.5422 570.175 66.0296L570.549 66.9571ZM581.554 63.0561C582.789 62.678 584.036 62.3167 585.294 61.973L585.03 61.0084C583.762 61.3547 582.506 61.7188 581.261 62.0998L581.554 63.0561ZM592.862 60.1534C594.122 59.8915 595.393 59.6475 596.676 59.422L596.503 58.4371C595.21 58.6643 593.928 58.9103 592.658 59.1743L592.862 60.1534ZM604.377 58.3145C605.659 58.1704 606.953 58.0448 608.26 57.9384L608.179 56.9417C606.862 57.049 605.558 57.1755 604.266 57.3207L604.377 58.3145ZM616.029 57.5395C616.684 57.5252 617.342 57.5157 618.004 57.5111L617.996 56.5111C617.33 56.5158 616.667 56.5254 616.007 56.5397L616.029 57.5395ZM618.004 57.5111C618.695 57.5062 619.384 57.5088 620.069 57.5186L620.083 56.5187C619.391 56.5088 618.695 56.5062 617.996 56.5111L618.004 57.5111ZM628.21 57.9854C629.567 58.1224 630.91 58.288 632.24 58.481L632.384 57.4913C631.039 57.2962 629.681 57.1289 628.31 56.9905L628.21 57.9854ZM640.254 60.0017C641.585 60.3142 642.904 60.6539 644.21 61.0194L644.479 60.0564C643.16 59.6872 641.828 59.344 640.483 59.0282L640.254 60.0017ZM651.966 63.5336C653.244 64.0049 654.512 64.5001 655.768 65.0179L656.149 64.0932C654.881 63.5708 653.602 63.0711 652.311 62.5954L651.966 63.5336ZM663.201 68.3915C664.42 68.9955 665.63 69.6194 666.831 70.2619L667.303 69.3802C666.093 68.733 664.874 68.1042 663.645 67.4954L663.201 68.3915ZM673.922 74.3207C675.086 75.0289 676.241 75.7527 677.39 76.4909L677.931 75.6497C676.775 74.9073 675.613 74.1791 674.442 73.4665L673.922 74.3207ZM684.172 81.0596C685.287 81.8432 686.395 82.6382 687.499 83.4433L688.088 82.6355C686.98 81.8271 685.867 81.0287 684.747 80.2416L684.172 81.0596ZM694.041 88.3676C695.119 89.2018 696.192 90.0434 697.263 90.8911L697.884 90.1071C696.811 89.2574 695.734 88.4135 694.653 87.5768L694.041 88.3676ZM703.643 96.0327C704.7 96.8974 705.756 97.7656 706.809 98.6359L707.446 97.865C706.391 96.9938 705.335 96.1246 704.276 95.2586L703.643 96.0327ZM713.118 103.875C714.168 104.75 715.219 105.624 716.27 106.497L716.909 105.728C715.859 104.856 714.808 103.981 713.757 103.106L713.118 103.875ZM722.601 111.72C723.661 112.586 724.723 113.448 725.787 114.304L726.414 113.525C725.352 112.67 724.292 111.81 723.233 110.945L722.601 111.72ZM732.233 119.389C733.321 120.227 734.412 121.057 735.507 121.876L736.107 121.076C735.016 120.259 733.928 119.432 732.844 118.596L732.233 119.389ZM742.165 126.689C743.294 127.474 744.428 128.246 745.568 129.003L746.121 128.17C744.987 127.417 743.859 126.649 742.736 125.868L742.165 126.689ZM752.527 133.385C753.709 134.086 754.898 134.77 756.095 135.433L756.58 134.559C755.392 133.9 754.211 133.222 753.038 132.525L752.527 133.385ZM763.421 139.188C764.664 139.772 765.916 140.333 767.179 140.869L767.569 139.949C766.319 139.418 765.078 138.862 763.846 138.283L763.421 139.188ZM774.884 143.779C776.188 144.209 777.503 144.612 778.831 144.986L779.101 144.023C777.789 143.654 776.488 143.255 775.198 142.829L774.884 143.779ZM786.853 146.846C788.2 147.092 789.558 147.307 790.931 147.49L791.063 146.499C789.706 146.318 788.363 146.106 787.033 145.863L786.853 146.846ZM799.155 148.18C800.508 148.228 801.874 148.244 803.253 148.227L803.241 147.227C801.877 147.244 800.527 147.228 799.19 147.181L799.155 148.18ZM811.483 147.747C812.173 147.675 812.866 147.595 813.563 147.507L813.437 146.515C812.748 146.602 812.062 146.681 811.379 146.752L811.483 147.747ZM813.563 147.507C814.232 147.422 814.898 147.334 815.558 147.243L815.421 146.252C814.764 146.343 814.103 146.431 813.437 146.515L813.563 147.507ZM823.404 145.97C824.718 145.724 826.013 145.465 827.292 145.194L827.084 144.216C825.814 144.486 824.526 144.743 823.22 144.987L823.404 145.97ZM835.028 143.348C836.32 143.006 837.594 142.65 838.851 142.282L838.57 141.322C837.321 141.688 836.055 142.041 834.772 142.382L835.028 143.348ZM846.42 139.857C847.682 139.418 848.928 138.966 850.157 138.504L849.805 137.568C848.583 138.027 847.346 138.476 846.091 138.913L846.42 139.857ZM857.517 135.535C858.744 135.007 859.956 134.469 861.154 133.921L860.739 133.012C859.547 133.556 858.341 134.091 857.121 134.616L857.517 135.535ZM868.31 130.479C869.496 129.88 870.671 129.275 871.835 128.662L871.37 127.777C870.21 128.387 869.041 128.99 867.859 129.586L868.31 130.479ZM878.81 124.868C879.968 124.22 881.117 123.567 882.261 122.912L881.763 122.044C880.623 122.698 879.476 123.349 878.321 123.996L878.81 124.868ZM889.111 118.923C890.251 118.252 891.388 117.58 892.523 116.91L892.015 116.049C890.88 116.72 889.743 117.391 888.604 118.061L889.111 118.923ZM899.352 112.895C900.492 112.23 901.633 111.569 902.778 110.914L902.28 110.046C901.133 110.703 899.99 111.365 898.848 112.031L899.352 112.895ZM909.684 107.055C910.841 106.427 912.004 105.807 913.176 105.196L912.713 104.309C911.537 104.923 910.369 105.546 909.207 106.175L909.684 107.055ZM920.246 101.674C921.432 101.114 922.627 100.565 923.835 100.027L923.429 99.1137C922.214 99.6543 921.011 100.207 919.819 100.77L920.246 101.674ZM931.134 96.9991C932.354 96.5304 933.587 96.0753 934.836 95.6349L934.503 94.6918C933.245 95.1354 932.003 95.5938 930.775 96.0657L931.134 96.9991ZM942.345 93.2285C943.599 92.8667 944.87 92.5202 946.159 92.1899L945.911 91.2212C944.612 91.554 943.332 91.9031 942.068 92.2676L942.345 93.2285ZM953.85 90.4617C955.127 90.2142 956.422 89.9826 957.736 89.7677L957.574 88.7808C956.251 88.9973 954.946 89.2306 953.659 89.48L953.85 90.4617ZM965.557 88.7159C966.215 88.646 966.878 88.5802 967.546 88.5185L967.454 87.5228C966.782 87.5848 966.114 87.6511 965.451 87.7214L965.557 88.7159ZM967.546 88.5185C968.241 88.4544 968.932 88.3926 969.621 88.333L969.535 87.3367C968.844 87.3965 968.151 87.4585 967.454 87.5228L967.546 88.5185ZM977.856 87.7194C979.242 87.6332 980.616 87.5566 981.979 87.4894L981.93 86.4906C980.562 86.558 979.184 86.6349 977.794 86.7213L977.856 87.7194ZM990.225 87.1945C991.614 87.1641 992.991 87.1439 994.358 87.1338L994.35 86.1339C992.979 86.144 991.597 86.1643 990.203 86.1948L990.225 87.1945ZM1002.6 87.1966C1003.99 87.2285 1005.36 87.271 1006.73 87.3242L1006.77 86.3249C1005.4 86.2716 1004.02 86.2289 1002.62 86.1969L1002.6 87.1966ZM1014.98 87.7789C1016.35 87.8778 1017.72 87.9876 1019.09 88.1083L1019.17 87.1122C1017.81 86.991 1016.43 86.8808 1015.05 86.7815L1014.98 87.7789ZM1027.29 88.9762C1028.67 89.1447 1030.03 89.3243 1031.39 89.5147L1031.53 88.5244C1030.16 88.3332 1028.79 88.1529 1027.42 87.9837L1027.29 88.9762ZM1039.54 90.798C1040.89 91.0349 1042.25 91.2827 1043.6 91.541L1043.78 90.5588C1042.43 90.2995 1041.07 90.0508 1039.71 89.8129L1039.54 90.798ZM1051.68 93.2215C1053.02 93.5222 1054.36 93.8331 1055.7 94.1541L1055.93 93.1817C1054.59 92.8596 1053.24 92.5475 1051.9 92.2457L1051.68 93.2215ZM1063.7 96.1914C1065.03 96.5483 1066.35 96.9146 1067.68 97.2902L1067.96 96.3279C1066.62 95.9512 1065.29 95.5837 1063.96 95.2258L1063.7 96.1914ZM1075.6 99.6276C1076.91 100.03 1078.22 100.442 1079.54 100.861L1079.84 99.9083C1078.52 99.4878 1077.21 99.0755 1075.89 98.6718L1075.6 99.6276ZM1087.4 103.442C1088.69 103.88 1089.99 104.325 1091.3 104.778L1091.63 103.833C1090.32 103.38 1089.02 102.933 1087.72 102.495L1087.4 103.442ZM1099.09 107.534C1100.38 108 1101.68 108.471 1102.98 108.95L1103.33 108.011C1102.02 107.532 1100.72 107.06 1099.43 106.594L1099.09 107.534ZM1110.72 111.825C1112 112.307 1113.29 112.795 1114.59 113.288L1114.95 112.353C1113.65 111.86 1112.35 111.372 1111.07 110.889L1110.72 111.825ZM1122.31 116.241C1123.59 116.733 1124.87 117.229 1126.17 117.73L1126.53 116.798C1125.23 116.297 1123.95 115.8 1122.67 115.308L1122.31 116.241ZM1133.88 120.721C1134.52 120.972 1135.17 121.224 1135.82 121.477L1136.18 120.545C1135.53 120.292 1134.88 120.04 1134.24 119.789L1133.88 120.721ZM1135.82 121.477C1136.43 121.714 1137.04 121.954 1137.65 122.199L1138.02 121.27C1137.41 121.024 1136.79 120.783 1136.18 120.545L1135.82 121.477ZM1145 125.268C1146.21 125.796 1147.43 126.338 1148.65 126.891L1149.06 125.98C1147.84 125.425 1146.61 124.881 1145.4 124.351L1145 125.268ZM1155.86 130.262C1157.05 130.835 1158.24 131.418 1159.44 132.011L1159.88 131.115C1158.69 130.521 1157.49 129.936 1156.3 129.361L1155.86 130.262ZM1166.55 135.624C1167.72 136.234 1168.9 136.852 1170.07 137.478L1170.54 136.595C1169.36 135.968 1168.19 135.349 1167.01 134.737L1166.55 135.624ZM1177.08 141.281C1178.24 141.924 1179.4 142.573 1180.56 143.228L1181.05 142.356C1179.89 141.701 1178.73 141.051 1177.56 140.406L1177.08 141.281ZM1187.48 147.189C1188.63 147.857 1189.77 148.529 1190.92 149.205L1191.43 148.344C1190.28 147.667 1189.13 146.994 1187.98 146.325L1187.48 147.189ZM1197.76 153.303C1198.9 153.994 1200.03 154.687 1201.16 155.383L1201.69 154.531C1200.55 153.835 1199.42 153.14 1198.28 152.449L1197.76 153.303ZM1207.93 159.599C1209.06 160.309 1210.18 161.02 1211.3 161.732L1211.84 160.888C1210.72 160.176 1209.59 159.464 1208.47 158.753L1207.93 159.599ZM1218 166.049C1219.12 166.779 1220.24 167.509 1221.35 168.237L1221.9 167.402C1220.79 166.672 1219.67 165.942 1218.55 165.21L1218 166.049ZM1227.99 172.649C1229.1 173.393 1230.2 174.133 1231.29 174.871L1231.85 174.043C1230.76 173.304 1229.66 172.563 1228.55 171.819L1227.99 172.649ZM1237.89 179.372C1238.99 180.13 1240.08 180.884 1241.16 181.631L1241.73 180.81C1240.65 180.061 1239.56 179.307 1238.46 178.548L1237.89 179.372ZM1247.7 186.208C1248.8 186.986 1249.88 187.756 1250.95 188.516L1251.53 187.701C1250.46 186.94 1249.38 186.17 1248.27 185.391L1247.7 186.208ZM1257.43 193.161C1258.53 193.955 1259.61 194.736 1260.66 195.503L1261.25 194.695C1260.2 193.927 1259.12 193.146 1258.02 192.35L1257.43 193.161ZM1267.11 200.235C1268.21 201.05 1269.27 201.841 1270.3 202.606L1270.9 201.804C1269.87 201.038 1268.81 200.247 1267.7 199.431L1267.11 200.235ZM1276.66 207.389C1277.81 208.257 1278.87 209.068 1279.85 209.819L1280.46 209.025C1279.48 208.273 1278.41 207.461 1277.27 206.592L1276.66 207.389ZM1286.18 214.714C1286.68 215.102 1287.05 215.399 1287.31 215.599C1287.43 215.699 1287.53 215.775 1287.59 215.826C1287.62 215.851 1287.65 215.87 1287.66 215.883C1287.67 215.889 1287.68 215.894 1287.68 215.897C1287.68 215.899 1287.69 215.9 1287.69 215.901C1287.69 215.901 1287.69 215.901 1287.69 215.902C1287.69 215.902 1287.69 215.902 1287.69 215.902C1287.69 215.902 1287.69 215.902 1287.69 215.902C1287.69 215.902 1287.69 215.902 1287.69 215.902C1287.69 215.902 1287.69 215.902 1288 215.511C1288.31 215.12 1288.31 215.12 1288.31 215.12V215.12C1288.31 215.12 1288.31 215.12 1288.31 215.12C1288.31 215.119 1288.31 215.119 1288.31 215.119C1288.31 215.119 1288.31 215.119 1288.31 215.118C1288.31 215.117 1288.31 215.116 1288.31 215.115C1288.3 215.111 1288.29 215.106 1288.29 215.1C1288.27 215.087 1288.25 215.068 1288.21 215.042C1288.15 214.991 1288.05 214.915 1287.93 214.814C1287.67 214.614 1287.29 214.316 1286.8 213.927L1286.18 214.714Z" fill="#949DAF"/>
<ellipse cx="756.626" cy="153.688" rx="2.62628" ry="2.74329" fill="#2A3B5E" fill-opacity="0.2"/>
<ellipse cx="1230.63" cy="62.5107" rx="2.62628" ry="2.5" fill="#2A3B5E" fill-opacity="0.2"/>
<ellipse cx="1238.25" cy="182.011" rx="5.25257" ry="5" fill="#2A3B5E" fill-opacity="0.2"/>
<ellipse cx="307.253" cy="222.011" rx="5.25257" ry="5" fill="#2A3B5E" fill-opacity="0.2"/>
<ellipse cx="705.253" cy="195.011" rx="5.25257" ry="5" fill="#2A3B5E" fill-opacity="0.2"/>
<ellipse cx="806.626" cy="276.511" rx="2.62628" ry="2.5" fill="#2A3B5E" fill-opacity="0.2"/>
<ellipse cx="428.626" cy="207.511" rx="2.62628" ry="2.5" fill="#2A3B5E" fill-opacity="0.2"/>
<ellipse cx="343.537" cy="248.011" rx="5.25257" ry="5" fill="#2A3B5E" fill-opacity="0.2"/>
<ellipse cx="1168.4" cy="137.011" rx="5.25257" ry="5" fill="#2A3B5E" fill-opacity="0.2"/>
<ellipse cx="384.253" cy="24.0107" rx="5.25257" ry="5" fill="#2A3B5E" fill-opacity="0.2"/>
<ellipse cx="1019.25" cy="19.0107" rx="5.25257" ry="5" fill="#2A3B5E" fill-opacity="0.2"/>
</g>
<path d="M1349.94 320.804C1350.14 322.265 1349.88 323.656 1348.75 324.836C1348.02 325.607 1347.16 326.063 1346.07 325.993C1345.39 325.958 1344.7 325.911 1344.03 325.958C1340.87 326.157 1338.79 323.246 1339.2 320.371C1339.31 319.647 1339.54 318.934 1339.76 318.244C1339.89 317.847 1339.88 317.532 1339.54 317.251C1338.91 316.737 1338.3 316.176 1337.63 315.732C1336.27 314.832 1334.86 314.002 1333.48 313.126C1333.09 312.88 1332.72 312.775 1332.34 313.067C1330.08 314.82 1327.55 314.715 1324.92 314.201C1323.05 313.838 1321.3 313.266 1319.94 311.84C1319.67 311.56 1319.43 311.256 1319.19 310.94C1318.95 310.601 1318.65 310.508 1318.28 310.648C1316.02 311.466 1313.74 312.307 1311.48 313.126C1310.95 313.313 1310.67 313.663 1310.61 314.248C1310.4 316.316 1309.39 318.046 1308.08 319.588C1307.74 319.998 1307.12 320.29 1306.58 320.383C1305.4 320.582 1304.21 320.383 1303.1 319.904C1300.64 318.84 1299.48 316.41 1300.23 313.745C1300.71 312.039 1301.57 310.554 1303.27 309.83C1305.35 308.942 1307.29 309.327 1308.97 310.823C1309.46 311.256 1309.88 311.337 1310.49 311.104C1312.82 310.204 1315.15 309.339 1317.49 308.498C1318 308.311 1318.16 308.053 1318.03 307.539C1317.91 307.072 1317.84 306.581 1317.76 306.113C1317.62 305.249 1317.68 304.407 1318.07 303.612C1319.8 299.954 1322.53 297.652 1326.67 297.208C1326.85 297.185 1327.01 297.126 1327.19 297.114C1327.75 297.068 1327.94 296.764 1327.94 296.215C1327.94 294.286 1327.96 292.37 1327.98 290.441C1327.98 289.985 1327.89 289.576 1327.39 289.53C1325.32 289.319 1324.48 287.835 1324 286.14C1323.56 284.598 1323.7 283.02 1324.42 281.536C1325.12 280.016 1326.37 279.303 1327.96 279.116C1327.98 279.116 1328 279.116 1328.02 279.116C1329.24 278.988 1330.48 278.778 1331.54 279.689C1332.92 280.916 1333.98 282.319 1334.35 284.2C1334.56 285.276 1334.37 286.316 1334.14 287.309C1333.83 288.571 1332.81 289.214 1331.56 289.471C1330.82 289.623 1330.71 289.717 1330.75 290.465C1330.83 292.405 1330.9 294.345 1330.98 296.296C1331.02 297.138 1331.12 297.173 1331.98 297.196C1332.75 297.22 1333.55 297.255 1334.29 297.453C1335.5 297.769 1336.11 298.645 1336.36 299.873C1337.02 303.04 1336.81 306.09 1335.4 309.023C1335.24 309.374 1335.33 309.655 1335.61 309.9C1336.79 310.928 1337.94 311.98 1339.13 312.974C1339.51 313.289 1339.99 313.5 1340.42 313.768C1340.83 314.025 1341.29 314.248 1341.62 314.575C1342.32 315.299 1343.14 315.568 1344.15 315.521C1345.66 315.463 1347.09 315.79 1348.33 316.725C1349.36 317.496 1350.04 318.478 1349.95 319.846C1349.92 320.138 1349.94 320.43 1349.94 320.804ZM1322.56 308.077C1322.6 308.112 1322.65 308.147 1322.7 308.17C1322.78 308.124 1322.86 308.088 1322.93 308.03C1323.38 307.598 1323.8 307.142 1324.27 306.721C1324.9 306.148 1325.59 305.704 1326.49 305.704C1326.99 305.704 1327.46 305.774 1327.66 306.289C1327.87 306.838 1327.58 307.177 1327.19 307.586C1326.31 308.509 1325.52 309.526 1324.74 310.519C1324.65 310.625 1324.75 310.858 1324.76 311.022C1324.91 310.963 1325.1 310.952 1325.21 310.858C1325.44 310.625 1325.62 310.344 1325.84 310.099C1326.31 309.596 1326.83 309.222 1327.56 309.269C1328.11 309.304 1328.31 309.666 1328.05 310.145C1327.89 310.449 1327.71 310.73 1327.48 311.127C1327.83 311.162 1328.07 311.221 1328.3 311.209C1329.45 311.115 1330.32 310.519 1331 309.643C1332.45 307.773 1333.22 305.658 1333.27 303.285C1333.31 301.859 1332.7 301.006 1331.29 300.667C1329.89 300.328 1328.48 300.305 1327.07 300.656C1326.07 300.901 1325.13 301.275 1324.6 302.245C1324.16 303.028 1324.23 303.11 1325.02 303.402C1325.36 303.531 1325.71 303.846 1325.89 304.173C1326.1 304.559 1325.67 304.769 1325.43 305.003C1324.6 305.798 1323.76 306.581 1322.95 307.399C1322.78 307.598 1322.69 307.855 1322.56 308.077ZM1344.99 318.128C1344.48 318.244 1344.09 318.256 1343.77 318.431C1343.51 318.572 1343.16 318.899 1343.18 319.121C1343.26 320.395 1343.32 321.692 1344.27 322.709C1344.63 323.095 1345.03 323.176 1345.46 322.908C1346.3 322.393 1347 321.727 1347.43 320.816C1347.83 319.974 1347.62 319.144 1346.79 318.735C1346.2 318.443 1345.52 318.303 1344.99 318.128ZM1327.66 285.65C1327.62 286.257 1327.82 286.655 1328.26 286.912C1328.8 287.216 1329.37 287.297 1329.93 286.947C1330.73 286.444 1331.18 285.696 1331.42 284.796C1331.73 283.569 1330.9 282.529 1329.64 282.599C1329.43 282.611 1329.16 282.704 1329.01 282.845C1328.24 283.663 1327.77 284.621 1327.66 285.65ZM1305.18 314.785C1305.17 314.785 1305.16 314.785 1305.15 314.785C1305.15 315.171 1305.16 315.568 1305.15 315.954C1305.11 316.55 1305.41 316.982 1305.81 317.38C1306.12 317.695 1306.4 317.695 1306.71 317.368C1307.81 316.223 1308.22 314.855 1308 313.301C1307.93 312.787 1307.56 312.424 1307.07 312.272C1306.74 312.167 1305.34 312.845 1305.25 313.102C1305.21 313.231 1305.2 313.371 1305.2 313.5C1305.18 313.932 1305.18 314.353 1305.18 314.785Z" fill="#009564"/>
<path d="M525.877 307.474L522.136 306.525C521.698 306.42 521.261 306.525 520.97 306.842L518.103 309.636C517.325 310.427 516.014 309.847 515.916 308.687L515.625 304.522C515.576 304.047 515.333 303.626 514.993 303.415L511.641 301.306C510.717 300.726 510.815 299.25 511.786 298.775L515.333 297.194C515.722 297.035 516.014 296.614 516.111 296.192L516.888 292.132C517.131 290.972 518.443 290.603 519.123 291.5L521.601 294.663C521.893 295.032 522.281 295.19 522.719 295.137L526.557 294.716C527.626 294.61 528.355 295.876 527.82 296.877L525.828 300.41C525.585 300.831 525.585 301.306 525.731 301.728L527.286 305.524C527.82 306.578 526.946 307.738 525.877 307.474Z" fill="#FF719C"/>
<path d="M967.876 354.671L965.895 354.171C965.664 354.116 965.432 354.171 965.278 354.338L963.76 355.808C963.349 356.225 962.654 355.919 962.603 355.309L962.448 353.117C962.423 352.867 962.294 352.645 962.114 352.534L960.339 351.424C959.85 351.119 959.902 350.342 960.416 350.092L962.294 349.26C962.5 349.177 962.654 348.955 962.706 348.733L963.117 346.596C963.246 345.985 963.94 345.791 964.301 346.263L965.612 347.928C965.767 348.122 965.973 348.205 966.204 348.178L968.236 347.956C968.802 347.9 969.188 348.566 968.905 349.093L967.85 350.952C967.722 351.174 967.722 351.424 967.799 351.646L968.622 353.644C968.905 354.199 968.442 354.809 967.876 354.671Z" fill="#009564"/>
<ellipse cx="735.884" cy="148.5" rx="2.62628" ry="2.5" fill="#2A3B5E" fill-opacity="0.2"/>
<ellipse cx="259.304" cy="138.5" rx="2.62628" ry="2.5" fill="#2A3B5E" fill-opacity="0.2"/>
<path d="M177.417 383.544C176.713 384.506 176.179 385.753 175.76 386.852C175.521 387.479 174.848 388.799 174.848 388.799C174.848 388.799 174.236 390.298 173.728 391.2C173.31 391.94 172.955 392.282 172.541 393.025C171.943 394.097 171.718 394.759 171.286 395.908C170.971 396.747 170.902 397.256 170.56 398.084C170.194 398.97 169.899 399.425 169.458 400.276C169.05 401.06 168.81 401.493 168.391 402.272C168.181 402.663 168.065 402.951 167.852 403.272C167.694 403.51 167.451 403.807 167.345 404.085C167.116 404.683 164.71 404.027 164.235 403.782C163.276 403.289 162.261 403.003 161.296 402.539C160.791 402.297 160.24 402.175 159.737 401.917C159.408 401.747 159.051 401.634 158.712 401.484C158.328 401.314 158.106 401.07 157.685 400.861C157.027 400.535 156.472 400.46 155.903 400.258C155.31 400.048 154.88 399.697 154.204 399.379C153.073 398.848 152.161 398.404 151.228 398.206C150.785 398.112 149.864 397.344 149.505 397.459" stroke="#FF719C" stroke-width="2" stroke-linecap="round" stroke-linejoin="round"/>
<path d="M177.129 383.753C176.022 384.109 175.28 385.056 174.181 385.408C173.125 385.747 172.07 386.085 171.014 386.424C169.928 386.772 168.969 387.247 167.955 387.753C167.479 387.991 166.955 388.099 166.493 388.373C165.898 388.725 165.439 389.039 164.767 389.255C163.136 389.778 161.546 390.54 160.112 391.483C159.312 392.009 158.413 392.383 157.615 392.907C156.975 393.328 156.199 393.497 155.561 393.953C154.523 394.697 153.145 395.02 152.164 395.804C151.788 396.105 151.164 396.27 150.727 396.482C150.36 396.66 150.129 396.903 149.723 397.034" stroke="#FF719C" stroke-width="2" stroke-linecap="round" stroke-linejoin="round"/>
<path d="M177.275 383.471C176.205 383.814 175.063 384.062 174.026 384.395C172.566 384.863 171.039 384.998 169.578 385.467C166.235 386.539 162.852 387.506 159.491 388.584C156.978 389.391 154.464 390.197 151.95 391.003C149.206 391.883 146.594 392.957 143.853 393.837" stroke="#FF719C" stroke-width="2" stroke-linecap="round" stroke-linejoin="round"/>
<path d="M176.954 383.574C174.656 384.311 172.493 384.28 170.117 384.179C169.374 384.147 168.244 384.359 167.525 384.59C166.714 384.85 165.775 384.679 164.959 384.94C162.911 385.597 160.781 385.808 158.739 386.463C157.257 386.938 155.654 386.919 154.106 387.122C151.477 387.467 148.742 387.693 146.181 388.364C145.483 388.547 144.881 388.46 144.055 388.573C143.371 388.667 142.312 388.87 142.312 388.87C142.312 388.87 141.386 388.987 141.001 389.08L137.354 389.6C136.932 389.638 136.621 389.766 136.277 389.742C135.618 389.696 134.956 390.017 134.311 390.038C133.752 390.056 133.141 390.015 132.582 390.008" stroke="#FF719C" stroke-width="2" stroke-linecap="round" stroke-linejoin="round"/>
<path d="M143.566 394.047C142.625 393.989 140.493 392.958 140.493 392.958C140.493 392.958 139.368 392.514 138.854 392.25C138.51 392.073 137.973 391.862 137.608 391.823C137.165 391.775 136.316 391.521 136.316 391.521C136.316 391.521 135.35 391.338 135.178 391.184C134.646 390.71 133.349 390.337 132.685 390.33" stroke="#FF719C" stroke-width="2" stroke-linecap="round" stroke-linejoin="round"/>
<path d="M148.648 410.258C149.618 409.539 150.343 408.561 151.22 407.779C151.947 407.13 152.63 406.142 153.488 405.64C153.882 405.41 154.112 404.83 154.573 404.583C155.035 404.337 155.447 403.9 155.832 403.556C156.254 403.179 156.875 402.909 157.187 402.438C157.38 402.148 158.057 401.754 158.106 401.435" stroke="#FF719C" stroke-width="2" stroke-linecap="round" stroke-linejoin="round"/>
<path d="M148.54 410.293C148.364 408.799 147.698 407.299 147.239 405.866C146.81 404.531 146.492 403.17 146.059 401.82C145.289 399.419 144.855 396.96 144.094 394.586" stroke="#FF719C" stroke-width="2" stroke-linecap="round" stroke-linejoin="round"/>
<path d="M149.505 397.459C149.353 398.443 149.094 399.465 148.96 400.469C148.812 401.586 148.921 402.74 148.804 403.828C148.756 404.265 148.782 404.681 148.78 405.227C148.778 405.789 148.795 406.666 148.795 406.666L149.051 409.682" stroke="#FF719C" stroke-width="2" stroke-linecap="round" stroke-linejoin="round"/>
<path d="M156.542 402.607C155.986 402.581 155.77 402.173 155.294 401.999C155.118 401.934 154.837 401.832 154.706 401.698" stroke="#FF719C" stroke-width="2" stroke-linecap="round" stroke-linejoin="round"/>
<path d="M154.806 403.908C154.498 403.547 154.005 403.361 153.617 403.092C153.466 402.987 153.331 402.868 153.166 402.783C153.073 402.736 152.919 402.714 152.843 402.642C152.602 402.414 152.319 402.243 152.098 402.016" stroke="#FF719C" stroke-width="2" stroke-linecap="round" stroke-linejoin="round"/>
<path d="M153.279 405.057C153.024 404.73 152.502 404.562 152.156 404.325C152.071 404.267 151.723 403.977 151.715 404.034" stroke="#FF719C" stroke-width="2" stroke-linecap="round" stroke-linejoin="round"/>
<path d="M151.975 406.383C151.894 406.299 151.188 405.605 151.112 405.753" stroke="#FF719C" stroke-width="2" stroke-linecap="round" stroke-linejoin="round"/>
<path d="M150.792 407.71C150.617 407.588 150.464 407.463 150.3 407.332" stroke="#FF719C" stroke-width="2" stroke-linecap="round" stroke-linejoin="round"/>
<path d="M887.19 218.054C886.759 216.775 886.361 215.479 885.888 214.22C885.593 213.431 885.013 212.838 884.31 212.367C883.233 211.645 882.162 210.905 881.078 210.194C880.696 209.947 880.264 209.729 879.835 209.567C877.495 208.679 875.406 207.353 873.246 206.135C872.85 205.91 872.468 205.662 872.054 205.487C871.764 205.358 871.436 205.275 871.114 205.256C870.676 205.226 870.317 205.383 870.136 205.834C869.94 206.307 869.722 206.766 869.485 207.221C869.3 207.57 869.051 207.888 868.877 208.244C868.726 208.539 868.599 208.857 868.519 209.173C868.442 209.461 868.615 209.653 868.863 209.801C869.024 209.895 869.141 210.045 869.288 210.16C869.505 210.334 869.716 210.527 869.96 210.658C871.958 211.735 874.119 212.45 876.222 213.28C878.044 213.989 879.496 215.182 880.789 216.589C881.393 217.251 881.646 218.058 881.495 218.949C881.296 220.13 880.927 221.266 880.375 222.333C880.29 222.501 880.117 222.69 879.951 222.746C878.808 223.129 877.662 223.541 876.429 223.553C875.448 223.564 874.509 223.342 873.608 222.99C871.976 222.34 870.33 221.713 868.749 220.958C867.807 220.504 866.983 219.827 866.1 219.257C865.791 219.049 865.495 218.809 865.168 218.642C864.904 218.507 864.598 218.391 864.304 218.375C864.094 218.358 863.808 218.461 863.674 218.622C863.294 219.063 862.926 219.519 862.654 220.028C862.265 220.731 861.922 221.471 861.618 222.22C861.301 222.991 861.533 223.579 862.253 224.001C863.422 224.673 864.589 225.336 865.757 226.008C866.003 226.147 866.235 226.308 866.453 226.491C867.264 227.152 868.206 227.56 869.188 227.893C870.28 228.22 871.351 228.616 872.446 228.952C874.435 229.566 876.473 229.76 878.569 229.624C880.315 229.512 881.859 228.954 883.25 227.909C884.006 227.345 884.594 226.652 885.015 225.802C885.242 225.34 885.584 224.936 885.779 224.463C886.364 223.073 887.051 221.724 887.192 220.194C887.258 219.471 887.31 218.771 887.092 218.076C887.127 218.068 887.154 218.062 887.19 218.054ZM870.559 208.017C870.758 207.431 870.826 207.397 871.415 207.523C872.014 207.646 872.614 207.732 873.21 207.847C873.309 207.871 873.39 207.982 873.481 208.055C873.38 208.152 873.295 208.274 873.183 208.318C873.097 208.356 872.962 208.294 872.854 208.273C872.091 208.168 871.345 207.883 870.559 208.017C870.647 208.118 870.727 208.267 870.849 208.313C871.098 208.424 871.372 208.519 871.645 208.568C872.123 208.654 872.62 208.699 873.114 208.772C873.053 209.093 872.85 209.065 872.66 209.052C872.178 209.032 871.689 209.023 871.214 208.993C871.035 208.987 870.829 208.988 870.688 208.899C870.109 208.567 869.906 208.623 870.559 208.017ZM872.621 226.511C872.84 226.228 873.029 226.026 873.167 225.799C873.278 225.625 873.391 225.413 873.403 225.215C873.412 225.082 873.303 224.884 873.185 224.818C873.089 224.765 872.868 224.825 872.775 224.912C872.454 225.199 872.161 225.527 871.866 225.846C871.676 226.048 871.469 226.17 871.206 226.081C870.77 225.93 870.337 225.75 869.908 225.588C869.774 225.534 869.632 225.483 869.495 225.459C869.24 225.406 868.961 225.414 868.741 225.306C868.011 224.971 867.303 224.602 866.585 224.236C866.374 224.127 866.364 223.952 866.439 223.74C866.628 223.194 866.815 222.639 867.004 222.093C867.171 221.617 867.185 221.596 867.619 221.822C869.374 222.778 871.214 223.52 873.1 224.177C874.47 224.654 875.868 224.966 877.328 224.957C877.899 224.957 878.515 224.946 879.032 224.744C880.907 224.026 882.171 222.703 882.565 220.705C882.761 219.72 882.78 218.701 882.879 217.701C882.954 216.977 882.663 216.42 882.175 215.908C881.531 215.237 880.807 214.668 880.023 214.168C878.841 213.396 877.672 212.594 876.486 211.842C876.149 211.631 875.736 211.54 875.36 211.365C874.849 211.128 874.343 210.872 873.853 210.603C873.777 210.555 873.72 210.336 873.767 210.251C874.026 209.726 874.307 209.215 874.601 208.719C874.648 208.634 874.832 208.536 874.886 208.57C875.374 208.83 875.91 209.052 876.307 209.408C876.634 209.705 876.957 209.938 877.374 210.085C878.278 210.408 879.204 210.698 880.084 211.083C882.147 211.987 883.781 213.372 884.746 215.459C885.07 216.166 885.437 216.855 885.727 217.579C885.888 217.97 886.03 218.403 886.027 218.813C886.006 220.465 885.67 222.05 884.84 223.515C884.74 223.696 884.639 223.878 884.558 224.064C884.035 225.263 883.146 226.118 882.061 226.804C881.831 226.95 881.566 227.067 881.303 227.108C880.371 227.257 879.433 227.378 878.498 227.472C877.959 227.53 877.971 227.5 877.891 226.969C877.867 226.816 877.731 226.624 877.598 226.571C877.464 226.517 877.237 226.588 877.116 226.681C876.94 226.815 876.827 227.026 876.667 227.193C876.567 227.291 876.428 227.425 876.315 227.423C876.014 227.418 875.717 227.346 875.36 227.298C875.454 227.127 875.516 227.029 875.568 226.924C875.683 226.721 875.824 226.512 875.919 226.304C876.026 226.065 876.153 225.794 875.842 225.614C875.562 225.446 875.368 225.63 875.194 225.819C874.913 226.116 874.655 226.435 874.363 226.726C874.263 226.823 874.075 226.95 873.966 226.919C873.521 226.816 873.105 226.67 872.621 226.511ZM863.263 221.564C863.264 221.526 863.254 221.482 863.255 221.444C864.107 221.398 864.956 221.343 865.817 221.295C865.832 221.319 865.846 221.344 865.861 221.368C865.728 221.445 865.612 221.556 865.471 221.597C865.304 221.645 865.116 221.642 864.93 221.647C864.364 221.674 863.809 221.746 863.263 221.564ZM863.88 220.408C863.841 220.361 863.814 220.321 863.775 220.274C863.874 220.167 863.968 220.043 864.079 219.953C864.159 219.888 864.292 219.811 864.355 219.843C864.563 219.935 864.742 220.071 864.929 220.195C864.972 220.223 865.012 220.316 864.995 220.366C864.987 220.415 864.896 220.473 864.848 220.465C864.518 220.457 864.194 220.429 863.88 220.408Z" fill="#009DAF"/>
<path d="M863.549 205.878C863.28 206.145 863.081 206.349 862.862 206.548C862.605 206.784 862.533 207.053 862.651 207.38C862.757 207.691 863.005 207.792 863.298 207.763C864.123 207.676 864.953 207.57 865.774 207.466C866.156 207.415 866.548 207.363 866.921 207.268C867.091 207.229 867.278 207.103 867.389 206.965C867.571 206.728 867.458 206.428 867.162 206.402C866.665 206.358 866.172 206.378 865.668 206.39C865.425 206.39 865.178 206.419 864.827 206.443C864.949 206.275 865.001 206.17 865.077 206.088C865.288 205.853 865.518 205.623 865.718 205.382C865.905 205.162 865.921 204.897 865.791 204.647C865.661 204.398 865.443 204.299 865.169 204.333C864.028 204.474 862.887 204.614 861.743 204.783C861.079 204.879 860.417 205.021 859.763 205.161C859.647 205.188 859.463 205.286 859.46 205.361C859.45 205.485 859.529 205.672 859.627 205.733C859.829 205.845 860.066 205.94 860.29 205.935C861.29 205.921 862.291 205.869 863.285 205.827C863.343 205.833 863.395 205.858 863.549 205.878Z" fill="#009DAF"/>
<path d="M858.887 218.894C859.114 218.609 859.353 218.33 859.548 218.025C859.904 217.468 859.659 216.993 858.994 216.996C858.518 217.003 858.047 217.12 857.574 217.145C856.759 217.192 855.935 217.194 855.118 217.232C854.952 217.242 854.78 217.272 854.613 217.32C854.276 217.407 854.1 217.633 854.127 217.925C854.152 218.208 854.373 218.446 854.701 218.446C855.06 218.457 855.429 218.391 855.791 218.373C856.404 218.345 857.018 218.325 857.634 218.314C857.69 218.311 857.735 218.347 857.854 218.376C857.745 218.522 857.66 218.644 857.565 218.768C857.45 218.925 857.302 219.061 857.226 219.228C857.032 219.626 857.21 220.051 857.642 220.138C858.014 220.212 858.401 220.225 858.785 220.221C859.729 220.21 860.669 220.181 861.617 220.141C861.821 220.131 862.051 220.069 862.234 219.962C862.351 219.898 862.467 219.704 862.451 219.586C862.443 219.467 862.286 219.307 862.164 219.261C861.96 219.186 861.723 219.176 861.497 219.171C860.836 219.146 860.178 219.138 859.518 219.122C859.356 219.112 859.191 219.085 859.028 219.066C858.967 219.006 858.927 218.95 858.887 218.894Z" fill="#009DAF"/>
</svg>
