<svg width="105" height="97" viewBox="0 0 105 97" fill="none" xmlns="http://www.w3.org/2000/svg">
<path d="M13.6618 71.9465C13.0611 68.3617 12.3586 64.7792 11.8834 61.1856C11.5826 58.9374 12.2069 56.7919 13.2779 54.778C14.9187 51.6972 16.5225 48.5759 18.1937 45.5121C18.7873 44.4387 19.5368 43.3735 20.3499 42.443C24.7808 37.3615 28.0601 31.5551 31.6435 25.9192C32.2979 24.8799 32.8915 23.8065 33.6504 22.8654C34.177 22.1901 34.849 21.5766 35.5911 21.1212C36.5921 20.4941 37.6439 20.4103 38.6489 21.2511C39.7148 22.1259 40.8149 22.9407 41.956 23.719C42.8406 24.314 43.8347 24.7524 44.7021 25.3774C45.4346 25.8871 46.1395 26.4803 46.7321 27.1294C47.281 27.7144 47.1139 28.3931 46.7128 29.0595C46.4489 29.4859 46.3609 29.9911 46.1579 30.4516C45.8652 31.1391 45.6095 31.8673 45.1952 32.4866C41.8187 37.5849 37.592 42.0284 33.6522 46.6722C30.2218 50.6709 28.2892 55.3507 27.0056 60.3351C26.4106 62.6752 26.837 64.9145 28.3267 66.839C30.3006 69.3914 32.6191 71.622 35.2861 73.4538C35.7013 73.746 36.3542 73.9735 36.8193 73.8975C40.0204 73.3551 43.2653 72.8768 46.2118 71.34C48.556 70.1192 50.5034 68.3985 52.1981 66.4175C55.2496 62.8006 58.362 59.2178 61.157 55.4175C62.8197 53.1412 63.9152 50.4875 65.291 48.0108C65.7579 47.1238 66.1574 46.1793 66.7221 45.367C67.1774 44.7111 67.7581 44.0465 68.4356 43.6341C68.9123 43.327 69.7235 43.2074 70.2443 43.4201C71.709 43.9838 73.1631 44.6009 74.4562 45.4645C76.2729 46.6414 78.0276 47.9618 79.7005 49.3552C81.4342 50.7826 81.63 52.4769 80.4546 54.3925C78.5323 57.474 76.6034 60.5319 74.6811 63.6133C74.2734 64.2562 73.9266 64.9332 73.6405 65.6443C72.5555 68.2444 70.8359 70.4096 68.9271 72.449C66.7463 74.613 64.707 76.9159 62.5328 79.1035C58.5871 83.0905 53.993 86.1396 48.8406 88.4797C44.552 90.4326 40.1736 91.0676 35.5428 90.353C33.0292 89.9737 30.753 89.0739 28.6704 87.5895C27.5464 86.7811 26.2206 86.2557 25.1547 85.3809C22.0008 82.8205 18.6555 80.4896 16.3755 77.0328C15.3009 75.4005 14.2872 73.8023 13.9233 71.8753C13.8282 71.9012 13.7569 71.9206 13.6618 71.9465ZM40.4158 26.975C39.199 25.8374 38.9956 25.8422 37.7545 26.8892C36.4896 27.9428 35.1745 28.9088 33.903 29.9388C33.6984 30.1212 33.6485 30.4893 33.5246 30.7763C33.8867 30.8803 34.245 31.0614 34.5674 31.0242C34.8184 31.0065 35.0612 30.6872 35.2896 30.4983C36.9693 29.2812 38.3802 27.656 40.4158 26.975C40.3355 27.3262 40.336 27.7819 40.1037 28.0478C39.6523 28.6266 39.123 29.2013 38.5368 29.6648C37.5108 30.476 36.3871 31.2126 35.307 32.0132C35.8586 32.6988 36.3049 32.3747 36.7407 32.104C37.8606 31.4445 39.0109 30.8021 40.1004 30.1255C40.519 29.8849 41.009 29.6248 41.2319 29.2349C42.1845 27.7091 42.738 27.5837 40.4158 26.975ZM59.0153 73.5269C58.1362 73.1331 57.429 72.8951 56.8142 72.5307C56.3277 72.2579 55.7909 71.8975 55.509 71.4424C55.3211 71.139 55.3284 70.5292 55.5237 70.2227C55.6847 69.9763 56.2857 69.838 56.6175 69.9249C57.7449 70.2004 58.8579 70.6065 59.9642 70.9891C60.6714 71.2271 61.3189 71.2534 61.831 70.7087C62.6745 69.7952 63.4743 68.8177 64.2874 67.8871C64.5368 67.5912 64.8101 67.2889 65.1032 67.0571C65.6419 66.6065 66.3155 66.2712 66.7021 65.7353C68.0086 64.0119 69.2239 62.2374 70.4629 60.4563C70.8258 59.927 70.6285 59.4995 70.1801 59.0897C69.0375 58.0332 67.8882 56.9531 66.7455 55.8966C65.7443 54.9789 65.6835 54.9448 64.9406 56.0335C61.9851 60.536 58.5574 64.6352 54.9103 68.5915C52.2637 71.465 49.338 73.9839 45.8606 75.8172C44.503 76.5414 43.0264 77.2981 41.54 77.4748C36.1746 78.1507 31.4915 76.6145 28.0162 72.3688C26.3004 70.278 24.9595 67.8825 23.4549 65.6328C22.3566 64.007 22.3405 62.3145 22.8474 60.4796C23.5243 58.0665 24.5224 55.7939 25.7505 53.6106C27.576 50.2769 29.3342 46.8856 31.1968 43.5924C31.7284 42.6626 32.5945 41.9202 33.2649 41.0285C34.1781 39.8174 35.0543 38.5657 35.8763 37.3035C35.9963 37.0935 35.8544 36.499 35.6349 36.3562C34.3523 35.4391 33.0354 34.5819 31.7079 33.7784C31.4884 33.6355 30.9255 33.6368 30.8398 33.7868C30.0112 35.0255 29.02 36.2325 28.5297 37.5817C28.1291 38.7038 27.6583 39.6678 26.8558 40.5449C25.1174 42.4618 23.2878 44.3277 21.6843 46.3599C17.9335 51.1296 15.81 56.4946 16.17 62.6777C16.2989 64.77 16.3023 66.8713 16.5329 68.9613C16.6476 70.0951 16.8602 71.3035 17.3897 72.2738C19.538 76.1717 22.3478 79.5095 26.1808 81.9356C26.6501 82.2384 27.1195 82.5411 27.548 82.8804C30.3144 85.065 33.513 85.967 36.9633 86.2178C37.6954 86.2718 38.4723 86.2122 39.1486 85.9774C41.5514 85.1458 43.9342 84.2437 46.2735 83.2775C47.63 82.7309 47.5625 82.6733 47.0763 81.3114C46.9398 80.918 47.0185 80.2887 47.2679 79.9928C47.5174 79.697 48.1489 79.5757 48.552 79.6432C49.1414 79.736 49.6782 80.0963 50.2704 80.2897C50.6325 80.3937 51.1335 80.5359 51.3989 80.3876C52.1068 79.9923 52.7207 79.4452 53.5077 78.8763C53.0687 78.5906 52.795 78.4372 52.5385 78.2538C52.0083 77.9169 51.4068 77.5995 50.9175 77.2262C50.3608 76.7953 49.7129 76.3132 50.2235 75.4903C50.676 74.7339 51.3699 74.9249 52.0228 75.1523C53.0684 75.5008 54.0862 75.9328 55.1489 76.2513C55.5111 76.3553 56.1177 76.4181 56.3394 76.2057C57.2636 75.3969 58.0662 74.5199 59.0153 73.5269ZM74.9599 49.8862C74.9096 49.7986 74.8765 49.681 74.8262 49.5934C72.7446 50.5654 70.6565 51.5139 68.5512 52.4924C68.5473 52.5694 68.5434 52.6464 68.5395 52.7235C68.9531 52.7375 69.3694 52.8521 69.7565 52.772C70.2149 52.6725 70.6574 52.4254 71.1064 52.2018C72.484 51.5481 73.8947 51.012 74.9599 49.8862ZM72.0259 47.9245C72.0575 47.7639 72.0719 47.6333 72.1034 47.4728C71.7347 47.3453 71.3526 47.1707 70.9733 47.0967C70.7024 47.0438 70.2888 47.0298 70.1793 47.1863C69.8031 47.6686 69.5486 48.2191 69.2637 48.7526C69.1951 48.8725 69.2205 49.1442 69.325 49.2424C69.4057 49.3471 69.6938 49.3699 69.7994 49.2905C70.572 48.8522 71.3075 48.3733 72.0259 47.9245Z" fill="#F8F7F6"/>
<path d="M54.3512 12.9897C55.3302 13.281 56.0619 13.5128 56.8345 13.7082C57.746 13.9418 58.2584 14.487 58.3915 15.4145C58.5352 16.2884 58.0768 16.8445 57.3417 17.1462C55.2726 17.9888 53.1664 18.7909 51.0841 19.5864C50.1109 19.953 49.114 20.326 48.1078 20.5748C47.6555 20.698 47.0484 20.6351 46.6117 20.4497C45.8774 20.1171 45.7641 19.2603 46.4356 18.8237C47.5604 18.0861 48.7555 17.5069 49.9678 16.8977C50.5468 16.5878 51.1695 16.342 52.0342 15.9543C51.53 15.7112 51.2733 15.5275 50.9888 15.4275C50.1896 15.1379 49.3495 14.8849 48.5675 14.5653C47.8464 14.2798 47.4702 13.6721 47.4616 12.9136C47.4529 12.1551 47.8465 11.642 48.5407 11.3769C51.4295 10.2602 54.3184 9.14345 57.251 8.09092C58.9487 7.47627 60.7033 6.97291 62.4342 6.47603C62.7436 6.39174 63.307 6.39043 63.4077 6.5659C63.5892 6.84618 63.64 7.39034 63.4855 7.66069C63.1461 8.18432 62.7048 8.71033 62.1667 8.98372C59.7727 10.2193 57.3282 11.3671 54.9142 12.532C54.7847 12.618 54.6922 12.7446 54.3512 12.9897Z" fill="#F8F7F6"/>
<path d="M81.964 37.9834C81.0604 37.5957 80.1397 37.2379 79.2876 36.7601C77.7355 35.8897 77.7143 34.4503 79.2978 33.6133C80.4384 33.0237 81.7063 32.7037 82.8603 32.1612C84.8549 31.2376 86.8164 30.1962 88.8044 29.2491C89.2129 29.0617 89.6584 28.915 90.1172 28.8154C91.0281 28.5927 91.7319 28.9081 92.0394 29.6357C92.3403 30.3397 92.1176 31.1864 91.3378 31.6016C90.4998 32.0834 89.5374 32.3963 88.6558 32.8139C87.1648 33.5243 85.6804 34.2582 84.2026 35.0156C84.0665 35.0781 84.0045 35.2218 83.7587 35.4408C84.2019 35.6497 84.5605 35.831 84.9428 36.0057C85.4165 36.2317 85.9416 36.3676 86.3333 36.6665C87.2994 37.3669 87.4169 38.6026 86.5025 39.3588C85.711 40.0054 84.8083 40.5302 83.8924 41.0079C81.6348 42.1806 79.364 43.3062 77.0627 44.4148C76.5657 44.6515 75.9403 44.7965 75.3703 44.7743C75.0106 44.7708 74.4866 44.4572 74.3766 44.1575C74.2427 43.8644 74.4128 43.2856 74.6453 43.0194C75.035 42.5837 75.5835 42.2568 76.1148 41.96C77.6545 41.0588 79.2076 40.2048 80.754 39.3272C81.1253 39.0993 81.4834 38.8242 81.8482 38.5728C81.9141 38.352 81.9391 38.1677 81.964 37.9834Z" fill="#F8F7F6"/>
</svg>
