<svg width="61" height="68" viewBox="0 0 61 68" fill="none" xmlns="http://www.w3.org/2000/svg">
<path d="M31.0941 4.20513C34.0366 3.6563 37.0012 3.19079 39.9128 2.5253C42.0561 2.04111 44.133 1.30693 46.2409 0.689416C46.2908 0.676505 46.3528 0.642625 46.3982 0.613049C49.186 -0.519075 50.6657 0.0414281 52.0692 2.72339C52.2108 2.98949 52.4077 3.33031 52.3577 3.61041C52.1158 4.97331 51.937 6.3733 51.4814 7.66688C51.3019 8.19431 50.5677 8.70517 49.9622 8.89773C49.0001 9.2183 47.9628 9.25556 46.94 9.41378C45.3768 9.67638 43.7883 9.90996 42.2218 10.2269C41.1623 10.448 40.1338 10.7858 39.071 11.0612C38.357 11.2463 38.0302 11.6872 38.083 12.4215C38.2909 15.4133 38.3947 18.4143 38.7399 21.3884C39.3696 26.6397 40.5894 31.7738 42.1081 36.8304C43.1006 40.171 44.6556 43.2234 46.9835 45.8439C47.6196 46.5696 48.3588 47.2151 49.1345 47.7978C50.0618 48.4836 50.8522 48.3857 51.6651 47.5694C53.1059 46.1096 54.0298 44.374 54.3573 42.3299C54.4406 41.774 54.4984 41.1891 54.6359 40.6369C54.9386 39.4364 55.861 38.6986 57.1064 38.643C58.2643 38.5923 59.3123 39.2647 59.5973 40.4732C59.8636 41.5441 60.0978 42.6946 59.9932 43.7725C59.5685 47.9257 57.631 51.2598 54.1608 53.5662C51.8543 55.1079 49.3693 55.0395 46.9157 53.7517C44.958 52.7273 43.2905 51.3249 41.9385 49.5736C39.3664 46.2327 37.3943 42.6116 36.2483 38.4915C35.4415 35.5836 34.2151 32.7667 32.9356 30.017C30.9495 25.7405 29.5279 21.3178 28.9942 16.6293C28.9215 15.9535 28.7236 15.2745 28.6011 14.6117C28.5183 14.0988 28.2239 13.9257 27.7423 14.0505C24.8938 14.7531 22.0199 15.4267 19.1758 16.1459C18.3123 16.3697 18.2258 16.7127 18.5719 17.5492C21.1494 23.7206 23.4701 29.9943 24.8033 36.5595C25.614 40.5528 25.4041 44.579 25.2861 48.6171C25.1256 53.432 24.0454 58.0579 22.8943 62.6843C22.7723 63.1611 22.4622 63.5977 22.1853 64.0257C21.8308 64.5629 21.3756 65.0549 21.0466 65.621C20.2379 66.9883 19.1272 67.953 17.4735 67.7403C15.6571 67.5164 14.6094 66.3096 14.2117 64.5426C14.0416 63.7673 13.7962 62.976 13.7633 62.183C13.7492 61.5277 13.8038 60.7298 14.1671 60.226C17.9464 54.9363 18.9553 48.9041 19.0135 42.5661C19.0726 36.5663 17.5321 30.892 15.5841 25.2876C14.9131 23.3598 14.2464 21.4487 13.6086 19.5123C13.2593 18.4629 12.9405 18.3318 12.1001 18.977C10.9174 19.8713 9.77687 20.7902 8.59867 21.7012C8.39271 21.8614 8.20001 22.0716 7.96752 22.1319C6.77188 22.4417 6.16821 23.3106 5.87216 24.4026C5.54398 25.5741 5.27446 26.766 5.11784 27.9822C4.92681 29.4031 4.4039 30.3757 3.56367 30.4866C2.78653 30.6346 1.45971 29.7139 1.13476 28.6225C0.866192 27.6769 0.696188 26.6345 0.819479 25.6942C1.16271 23.0404 2.24748 20.6398 3.82805 18.5025C6.00895 15.5507 8.62471 12.967 12.0214 11.588C17.7377 9.2517 23.2283 6.33264 29.274 4.83712C29.8884 4.67788 30.4863 4.52296 31.1007 4.36372C31.104 4.30942 31.1074 4.25512 31.0941 4.20513Z" fill="#F8F7F6"/>
</svg>
