<svg width="1440" height="357" viewBox="0 0 1440 357" fill="none" xmlns="http://www.w3.org/2000/svg">
<circle cx="273.5" cy="251.5" r="2.5" fill="#2A3B5E" fill-opacity="0.2"/>
<circle cx="1175.5" cy="282.5" r="2.5" fill="#2A3B5E" fill-opacity="0.2"/>
<circle cx="758.5" cy="207.5" r="2.5" fill="#2A3B5E" fill-opacity="0.2"/>
<circle cx="1127" cy="183" r="5" fill="#2A3B5E" fill-opacity="0.2"/>
<circle cx="1296" cy="316" r="5" fill="#2A3B5E" fill-opacity="0.2"/>
<circle cx="159" cy="348" r="5" fill="#2A3B5E" fill-opacity="0.2"/>
<circle cx="468" cy="266" r="5" fill="#2A3B5E" fill-opacity="0.2"/>
<circle cx="863" cy="352" r="5" fill="#2A3B5E" fill-opacity="0.2"/>
<circle cx="1034.5" cy="346.5" r="2.5" fill="#2A3B5E" fill-opacity="0.2"/>
<circle cx="405.5" cy="175.5" r="2.5" fill="#2A3B5E" fill-opacity="0.2"/>
<circle cx="187.5" cy="351.5" r="2.5" fill="#2A3B5E" fill-opacity="0.2"/>
<circle cx="1274.5" cy="110.5" r="2.5" fill="#2A3B5E" fill-opacity="0.2"/>
<circle cx="753.5" cy="26.5" r="2.5" fill="#2A3B5E" fill-opacity="0.2"/>
<circle cx="306.5" cy="21.5" r="2.5" fill="#2A3B5E" fill-opacity="0.2"/>
<circle cx="575.5" cy="230.5" r="2.5" fill="#2A3B5E" fill-opacity="0.2"/>
<circle cx="371.5" cy="122.5" r="2.5" fill="#2A3B5E" fill-opacity="0.2"/>
<circle cx="420" cy="286" r="5" fill="#2A3B5E" fill-opacity="0.2"/>
<circle cx="1299" cy="253" r="5" fill="#2A3B5E" fill-opacity="0.2"/>
<circle cx="157" cy="67" r="5" fill="#2A3B5E" fill-opacity="0.2"/>
<circle cx="639" cy="48" r="5" fill="#2A3B5E" fill-opacity="0.2"/>
<circle cx="1110" cy="219" r="5" fill="#2A3B5E" fill-opacity="0.2"/>
<circle cx="231" cy="5" r="5" fill="#2A3B5E" fill-opacity="0.2"/>
</svg>
