<svg width="375" height="743" viewBox="0 0 375 743" fill="none" xmlns="http://www.w3.org/2000/svg">
<path d="M-45.1533 1C0.977764 39.0319 121.152 129.608 232.801 187.657C372.362 260.217 -112.89 239.2 210.028 375.314C468.362 484.205 37.0001 498.5 51.5 604C65.9999 709.5 382.5 717 382.5 717" stroke="#2A3B5E" stroke-opacity="0.5" stroke-dasharray="3 9"/>
<path d="M-49 90C23.3451 91.6661 187.639 112.192 266.051 180.968C364.067 266.937 75.2703 303.924 186.705 321.418C298.14 338.911 326.728 606.316 226.378 544.838C146.098 495.656 27.5 467.5 32 617.5C36.5 767.5 375 702.5 375 702.5" stroke="#2A3B5E" stroke-opacity="0.5" stroke-dasharray="3 9"/>
<mask id="mask0" mask-type="alpha" maskUnits="userSpaceOnUse" x="0" y="1" width="375" height="742">
<rect y="1" width="375" height="742" fill="#C4C4C4"/>
</mask>
<g mask="url(#mask0)">
</g>
</svg>
