<svg width="375" height="605" viewBox="0 0 375 605" fill="none" xmlns="http://www.w3.org/2000/svg">
<circle cx="314" cy="51" r="5" fill="#2A3B5E" fill-opacity="0.2"/>
<circle cx="35" cy="211" r="5" fill="#2A3B5E" fill-opacity="0.2"/>
<circle cx="340" cy="300" r="5" fill="#2A3B5E" fill-opacity="0.2"/>
<circle cx="40" cy="421" r="5" fill="#2A3B5E" fill-opacity="0.2"/>
<circle cx="214" cy="61" r="5" fill="#2A3B5E" fill-opacity="0.2"/>
<circle cx="340" cy="582" r="5" fill="#2A3B5E" fill-opacity="0.2"/>
<circle cx="171" cy="421" r="5" fill="#2A3B5E" fill-opacity="0.2"/>
<circle cx="45" cy="21" r="5" fill="#2A3B5E" fill-opacity="0.2"/>
<circle cx="235.5" cy="99.5" r="2.5" fill="#2A3B5E" fill-opacity="0.2"/>
<circle cx="280.5" cy="18.5" r="2.5" fill="#2A3B5E" fill-opacity="0.2"/>
<circle cx="332.5" cy="124.5" r="2.5" fill="#2A3B5E" fill-opacity="0.2"/>
<circle cx="163.5" cy="226.5" r="2.5" fill="#2A3B5E" fill-opacity="0.2"/>
<circle cx="96.5" cy="598.5" r="2.5" fill="#2A3B5E" fill-opacity="0.2"/>
<circle cx="93.5" cy="186.5" r="2.5" fill="#2A3B5E" fill-opacity="0.2"/>
<circle cx="256.5" cy="295.5" r="2.5" fill="#2A3B5E" fill-opacity="0.2"/>
<circle cx="362.5" cy="142.5" r="2.5" fill="#2A3B5E" fill-opacity="0.2"/>
<circle cx="108.5" cy="428.5" r="2.5" fill="#2A3B5E" fill-opacity="0.2"/>
<circle cx="20.5" cy="343.5" r="2.5" fill="#2A3B5E" fill-opacity="0.2"/>
<circle cx="347.5" cy="507.5" r="2.5" fill="#2A3B5E" fill-opacity="0.2"/>
<circle cx="23.5" cy="555.5" r="2.5" fill="#2A3B5E" fill-opacity="0.2"/>
</svg>
