<svg width="1440" height="357" viewBox="0 0 1440 357" fill="none" xmlns="http://www.w3.org/2000/svg">
<path d="M-7 264.708C24.5 269.374 184.714 329.062 273.5 223.501C427 40.9996 378.5 13.7928 668 203C816.402 299.99 720.5 -17.0006 1013.5 232.999C1134.84 336.535 1129.5 76.5004 1279 56.4999C1313.83 55.6665 1396.1 69.5999 1446.5 132" stroke="#2A3B5E" stroke-opacity="0.5" stroke-linecap="round" stroke-dasharray="3 9"/>
<path d="M-26.5 152.496C5 157.163 240.676 432.004 273.5 298.031C372 -104.003 493 31.498 631 241.998C728.2 390.263 699 -70.502 992 179.498C1113.34 283.034 1088 124.999 1237.5 104.998C1272.33 104.165 1389.5 95.5 1442.5 19.4995" stroke="#2A3B5E" stroke-opacity="0.5" stroke-linecap="round" stroke-dasharray="3 9"/>
</svg>
