<svg width="1031" height="166" viewBox="0 0 1031 166" fill="none" xmlns="http://www.w3.org/2000/svg">
<path d="M7.87603 25.6707L5.89535 25.1712C5.66384 25.1158 5.43233 25.1713 5.27799 25.3377L3.76033 26.8084C3.34876 27.2246 2.65424 26.9194 2.60279 26.3089L2.44845 24.1168C2.42273 23.8671 2.29412 23.6451 2.11405 23.5341L0.33916 22.4242C-0.149579 22.1189 -0.0981343 21.342 0.416328 21.0922L2.29411 20.2598C2.4999 20.1766 2.65424 19.9546 2.70568 19.7326L3.11725 17.596C3.24587 16.9855 3.94039 16.7913 4.30052 17.263L5.61239 18.9279C5.76673 19.1221 5.97252 19.2054 6.20403 19.1776L8.23615 18.9556C8.80206 18.9001 9.18791 19.5661 8.90495 20.0933L7.85031 21.9524C7.72169 22.1744 7.72169 22.4242 7.79886 22.6462L8.622 24.644C8.90495 25.199 8.44194 25.8095 7.87603 25.6707Z" fill="#F1E66B"/>
<path d="M227.876 61.6707L225.895 61.1712C225.664 61.1158 225.432 61.1713 225.278 61.3377L223.76 62.8084C223.349 63.2246 222.654 62.9194 222.603 62.3089L222.448 60.1168C222.423 59.8671 222.294 59.6451 222.114 59.5341L220.339 58.4242C219.85 58.1189 219.902 57.342 220.416 57.0922L222.294 56.2598C222.5 56.1766 222.654 55.9546 222.706 55.7326L223.117 53.596C223.246 52.9855 223.94 52.7913 224.301 53.263L225.612 54.9279C225.767 55.1221 225.973 55.2054 226.204 55.1776L228.236 54.9556C228.802 54.9001 229.188 55.5661 228.905 56.0933L227.85 57.9524C227.722 58.1744 227.722 58.4242 227.799 58.6462L228.622 60.644C228.905 61.199 228.442 61.8095 227.876 61.6707Z" fill="#F1E66B"/>
<path d="M524.876 164.671L522.895 164.171C522.664 164.116 522.432 164.171 522.278 164.338L520.76 165.808C520.349 166.225 519.654 165.919 519.603 165.309L519.448 163.117C519.423 162.867 519.294 162.645 519.114 162.534L517.339 161.424C516.85 161.119 516.902 160.342 517.416 160.092L519.294 159.26C519.5 159.177 519.654 158.955 519.706 158.733L520.117 156.596C520.246 155.985 520.94 155.791 521.301 156.263L522.612 157.928C522.767 158.122 522.973 158.205 523.204 158.178L525.236 157.956C525.802 157.9 526.188 158.566 525.905 159.093L524.85 160.952C524.722 161.174 524.722 161.424 524.799 161.646L525.622 163.644C525.905 164.199 525.442 164.809 524.876 164.671Z" fill="#F1E66B"/>
<path d="M347.876 8.67072L345.895 8.17125C345.664 8.11575 345.432 8.17125 345.278 8.33774L343.76 9.80841C343.349 10.2246 342.654 9.9194 342.603 9.30893L342.448 7.11682C342.423 6.86708 342.294 6.64509 342.114 6.5341L340.339 5.42417C339.85 5.11893 339.902 4.34198 340.416 4.09225L342.294 3.2598C342.5 3.17655 342.654 2.95456 342.706 2.73258L343.117 0.595955C343.246 -0.014508 343.94 -0.208746 344.301 0.262976L345.612 1.92788C345.767 2.12211 345.973 2.20536 346.204 2.17761L348.236 1.95562C348.802 1.90013 349.188 2.56609 348.905 3.09331L347.85 4.95244C347.722 5.17443 347.722 5.42417 347.799 5.64615L348.622 7.64403C348.905 8.199 348.442 8.80947 347.876 8.67072Z" fill="#C6C6C6"/>
<path d="M943.876 141.671L941.895 141.171C941.664 141.116 941.432 141.171 941.278 141.338L939.76 142.808C939.349 143.225 938.654 142.919 938.603 142.309L938.448 140.117C938.423 139.867 938.294 139.645 938.114 139.534L936.339 138.424C935.85 138.119 935.902 137.342 936.416 137.092L938.294 136.26C938.5 136.177 938.654 135.955 938.706 135.733L939.117 133.596C939.246 132.985 939.94 132.791 940.301 133.263L941.612 134.928C941.767 135.122 941.973 135.205 942.204 135.178L944.236 134.956C944.802 134.9 945.188 135.566 944.905 136.093L943.85 137.952C943.722 138.174 943.722 138.424 943.799 138.646L944.622 140.644C944.905 141.199 944.442 141.809 943.876 141.671Z" fill="#C6C6C6"/>
<path d="M1029.88 65.6707L1027.9 65.1712C1027.66 65.1158 1027.43 65.1713 1027.28 65.3377L1025.76 66.8084C1025.35 67.2246 1024.65 66.9194 1024.6 66.3089L1024.45 64.1168C1024.42 63.8671 1024.29 63.6451 1024.11 63.5341L1022.34 62.4242C1021.85 62.1189 1021.9 61.342 1022.42 61.0922L1024.29 60.2598C1024.5 60.1766 1024.65 59.9546 1024.71 59.7326L1025.12 57.596C1025.25 56.9855 1025.94 56.7913 1026.3 57.263L1027.61 58.9279C1027.77 59.1221 1027.97 59.2054 1028.2 59.1776L1030.24 58.9556C1030.8 58.9001 1031.19 59.5661 1030.9 60.0933L1029.85 61.9524C1029.72 62.1744 1029.72 62.4242 1029.8 62.6462L1030.62 64.644C1030.9 65.199 1030.44 65.8095 1029.88 65.6707Z" fill="#F1E66B"/>
<path d="M77.876 154.671L75.8953 154.171C75.6638 154.116 75.4323 154.171 75.278 154.338L73.7603 155.808C73.3488 156.225 72.6542 155.919 72.6028 155.309L72.4485 153.117C72.4227 152.867 72.2941 152.645 72.1141 152.534L70.3392 151.424C69.8504 151.119 69.9019 150.342 70.4163 150.092L72.2941 149.26C72.4999 149.177 72.6542 148.955 72.7057 148.733L73.1173 146.596C73.2459 145.985 73.9404 145.791 74.3005 146.263L75.6124 147.928C75.7667 148.122 75.9725 148.205 76.204 148.178L78.2362 147.956C78.8021 147.9 79.1879 148.566 78.905 149.093L77.8503 150.952C77.7217 151.174 77.7217 151.424 77.7989 151.646L78.622 153.644C78.905 154.199 78.4419 154.809 77.876 154.671Z" fill="#C6C6C6"/>
</svg>
