<svg width="374" height="681" viewBox="0 0 374 681" fill="none" xmlns="http://www.w3.org/2000/svg">
<path d="M-36.1534 1C9.9777 39.0319 130.152 129.608 241.801 187.657C381.362 260.217 -103.89 239.2 219.027 375.314C398.674 451.038 294.11 514.855 147.5 556.299C83.2831 574.451 115.217 695.015 180 679" stroke="#2A3B5E" stroke-opacity="0.5" stroke-dasharray="3 9"/>
<path d="M180 663.5C149.656 649.656 102.505 584.168 99 551C95.2805 515.804 194.048 519.517 235.378 544.838C335.728 606.316 307.14 338.911 195.705 321.418C84.2703 303.924 373.067 266.937 275.051 180.968C196.639 112.192 32.3451 91.6661 -40 90" stroke="#2A3B5E" stroke-opacity="0.5" stroke-dasharray="3 9"/>
<circle cx="323" cy="52" r="5" fill="#2A3B5E" fill-opacity="0.2"/>
<circle cx="44" cy="212" r="5" fill="#2A3B5E" fill-opacity="0.2"/>
<circle cx="349" cy="301" r="5" fill="#2A3B5E" fill-opacity="0.2"/>
<circle cx="49" cy="422" r="5" fill="#2A3B5E" fill-opacity="0.2"/>
<circle cx="223" cy="62" r="5" fill="#2A3B5E" fill-opacity="0.2"/>
<circle cx="349" cy="583" r="5" fill="#2A3B5E" fill-opacity="0.2"/>
<circle cx="180" cy="422" r="5" fill="#2A3B5E" fill-opacity="0.2"/>
<circle cx="54" cy="22" r="5" fill="#2A3B5E" fill-opacity="0.2"/>
<circle cx="244.5" cy="100.5" r="2.5" fill="#2A3B5E" fill-opacity="0.2"/>
<circle cx="289.5" cy="19.5" r="2.5" fill="#2A3B5E" fill-opacity="0.2"/>
<circle cx="341.5" cy="125.5" r="2.5" fill="#2A3B5E" fill-opacity="0.2"/>
<circle cx="172.5" cy="227.5" r="2.5" fill="#2A3B5E" fill-opacity="0.2"/>
<circle cx="105.5" cy="599.5" r="2.5" fill="#2A3B5E" fill-opacity="0.2"/>
<circle cx="102.5" cy="187.5" r="2.5" fill="#2A3B5E" fill-opacity="0.2"/>
<circle cx="265.5" cy="296.5" r="2.5" fill="#2A3B5E" fill-opacity="0.2"/>
<circle cx="371.5" cy="143.5" r="2.5" fill="#2A3B5E" fill-opacity="0.2"/>
<circle cx="117.5" cy="429.5" r="2.5" fill="#2A3B5E" fill-opacity="0.2"/>
<circle cx="29.5" cy="344.5" r="2.5" fill="#2A3B5E" fill-opacity="0.2"/>
<circle cx="356.5" cy="508.5" r="2.5" fill="#2A3B5E" fill-opacity="0.2"/>
<circle cx="32.5" cy="556.5" r="2.5" fill="#2A3B5E" fill-opacity="0.2"/>
</svg>
