<svg width="1138" height="968" viewBox="0 0 1138 968" fill="none" xmlns="http://www.w3.org/2000/svg">
<path d="M231 70.5C198.188 243.363 421.802 144.566 618.5 62.5C671 40.596 1216.36 -146 1126.93 264C1085 377.5 965.238 333.329 951 425.5C944.47 467.774 972.343 491.698 966 534C960.752 568.998 953.104 589.591 932 618C861.648 712.705 742.196 636.981 630.5 599C551.529 572.146 525.364 514.46 444.5 494C341.053 467.827 248.848 490.69 179 524.5C125.218 550.534 93.6013 573.091 60 622.5C12.925 691.721 -14.9534 748.746 12.0001 828C31.2793 884.688 213.5 967 213.5 967" stroke="#2A3B5E" stroke-opacity="0.3" stroke-linecap="round" stroke-dasharray="3 9"/>
</svg>
