<svg width="325" height="161" viewBox="0 0 325 161" fill="none" xmlns="http://www.w3.org/2000/svg">
<path d="M6.1258 27.0695L4.58527 26.7199C4.40521 26.681 4.22515 26.7199 4.10511 26.8364L2.9247 27.8659C2.60459 28.1572 2.06441 27.9436 2.02439 27.5163L1.90435 25.9818C1.88435 25.807 1.78431 25.6516 1.64426 25.5739L0.263791 24.7969C-0.11634 24.5833 -0.0763267 24.0394 0.32381 23.8646L1.78431 23.2819C1.94437 23.2236 2.06441 23.0682 2.10442 22.9128L2.42453 21.4172C2.52456 20.9898 3.06475 20.8539 3.34485 21.1841L4.3652 22.3495C4.48524 22.4855 4.64529 22.5438 4.82535 22.5243L6.4059 22.3689C6.84605 22.3301 7.14615 22.7963 6.92607 23.1653L6.10579 24.4667C6.00576 24.6221 6.00576 24.7969 6.06578 24.9523L6.706 26.3508C6.92607 26.7393 6.56595 27.1666 6.1258 27.0695Z" fill="#F1E66B"/>
<path d="M243.126 160.07L241.585 159.72C241.405 159.681 241.225 159.72 241.105 159.836L239.925 160.866C239.605 161.157 239.064 160.944 239.024 160.516L238.904 158.982C238.884 158.807 238.784 158.652 238.644 158.574L237.264 157.797C236.884 157.583 236.924 157.039 237.324 156.865L238.784 156.282C238.944 156.224 239.064 156.068 239.104 155.913L239.425 154.417C239.525 153.99 240.065 153.854 240.345 154.184L241.365 155.35C241.485 155.485 241.645 155.544 241.825 155.524L243.406 155.369C243.846 155.33 244.146 155.796 243.926 156.165L243.106 157.467C243.006 157.622 243.006 157.797 243.066 157.952L243.706 159.351C243.926 159.739 243.566 160.167 243.126 160.07Z" fill="#F1E66B"/>
<path d="M324.126 124.07L322.585 123.72C322.405 123.681 322.225 123.72 322.105 123.836L320.925 124.866C320.605 125.157 320.064 124.944 320.024 124.516L319.904 122.982C319.884 122.807 319.784 122.652 319.644 122.574L318.264 121.797C317.884 121.583 317.924 121.039 318.324 120.865L319.784 120.282C319.944 120.224 320.064 120.068 320.104 119.913L320.425 118.417C320.525 117.99 321.065 117.854 321.345 118.184L322.365 119.35C322.485 119.485 322.645 119.544 322.825 119.524L324.406 119.369C324.846 119.33 325.146 119.796 324.926 120.165L324.106 121.467C324.006 121.622 324.006 121.797 324.066 121.952L324.706 123.351C324.926 123.739 324.566 124.167 324.126 124.07Z" fill="#F1E66B"/>
<path d="M229.126 6.06951L227.585 5.71987C227.405 5.68103 227.225 5.71988 227.105 5.83642L225.925 6.86589C225.605 7.15724 225.064 6.94358 225.024 6.51625L224.904 4.98177C224.884 4.80696 224.784 4.65156 224.644 4.57387L223.264 3.79692C222.884 3.58325 222.924 3.03939 223.324 2.86457L224.784 2.28186C224.944 2.22359 225.064 2.06819 225.104 1.9128L225.425 0.417169C225.525 -0.0101556 226.065 -0.146122 226.345 0.184083L227.365 1.34951C227.485 1.48548 227.645 1.54375 227.825 1.52433L229.406 1.36894C229.846 1.33009 230.146 1.79626 229.926 2.16531L229.106 3.46671C229.006 3.6221 229.006 3.79692 229.066 3.95231L229.706 5.35082C229.926 5.7393 229.566 6.16663 229.126 6.06951Z" fill="#F1E66B"/>
<path d="M33.2507 126.202L31.9302 125.903C31.7759 125.869 31.6216 125.903 31.5187 126.003L30.5069 126.885C30.2325 127.135 29.7695 126.952 29.7352 126.585L29.6323 125.27C29.6152 125.12 29.5294 124.987 29.4094 124.92L28.2261 124.254C27.9003 124.071 27.9346 123.605 28.2776 123.455L29.5294 122.956C29.6666 122.906 29.7695 122.773 29.8038 122.64L30.0782 121.358C30.1639 120.991 30.6269 120.875 30.867 121.158L31.7416 122.157C31.8445 122.273 31.9817 122.323 32.136 122.307L33.4908 122.173C33.868 122.14 34.1253 122.54 33.9366 122.856L33.2335 123.971C33.1478 124.105 33.1478 124.254 33.1992 124.388L33.748 125.586C33.9366 125.919 33.628 126.286 33.2507 126.202Z" fill="#C6C6C6"/>
<path d="M324.251 16.2024L322.93 15.9027C322.776 15.8695 322.622 15.9028 322.519 16.0026L321.507 16.885C321.233 17.1348 320.769 16.9516 320.735 16.5854L320.632 15.2701C320.615 15.1202 320.529 14.9871 320.409 14.9205L319.226 14.2545C318.9 14.0714 318.935 13.6052 319.278 13.4553L320.529 12.9559C320.667 12.9059 320.769 12.7727 320.804 12.6395L321.078 11.3576C321.164 10.9913 321.627 10.8748 321.867 11.1578L322.742 12.1567C322.844 12.2733 322.982 12.3232 323.136 12.3066L324.491 12.1734C324.868 12.1401 325.125 12.5397 324.937 12.856L324.234 13.9715C324.148 14.1047 324.148 14.2545 324.199 14.3877L324.748 15.5864C324.937 15.9194 324.628 16.2857 324.251 16.2024Z" fill="#C6C6C6"/>
<path d="M64.2507 5.20243L62.9302 4.90275C62.7759 4.86945 62.6216 4.90275 62.5187 5.00264L61.5069 5.88504C61.2325 6.13478 60.7695 5.95164 60.7352 5.58536L60.6323 4.27009C60.6152 4.12025 60.5294 3.98706 60.4094 3.92046L59.2261 3.2545C58.9003 3.07136 58.9346 2.60519 59.2776 2.45535L60.5294 1.95588C60.6666 1.90593 60.7695 1.77274 60.8038 1.63955L61.0782 0.357573C61.1639 -0.0087048 61.6269 -0.125247 61.867 0.157786L62.7416 1.15673C62.8445 1.27327 62.9817 1.32321 63.136 1.30657L64.4908 1.17337C64.868 1.14008 65.1253 1.53965 64.9366 1.85598L64.2335 2.97147C64.1478 3.10466 64.1478 3.2545 64.1992 3.38769L64.748 4.58642C64.9366 4.9194 64.628 5.28568 64.2507 5.20243Z" fill="#C6C6C6"/>
</svg>
