<svg width="37" height="484" viewBox="0 0 37 484" fill="none" xmlns="http://www.w3.org/2000/svg">
<path d="M16.4944 17.6125C16.3933 17.4062 16.1408 17.4062 16.0903 17.6125C15.4336 19.2116 14.9789 20.4496 14.3222 21.5844C14.1707 21.8939 13.716 22.0486 13.3119 22.2034C13.0594 22.3065 12.7057 22.1518 12.6047 21.8939C12.4532 21.4812 12.3016 21.0686 12.4027 20.6559C12.6552 19.5727 13.0088 18.4894 13.5645 17.561C15.6356 14.1049 14.8779 10.8037 13.1099 7.1413C13.0088 6.98655 12.8068 6.93497 12.7057 7.1413C12.4027 7.65712 12.0996 8.01819 11.948 8.48244C11.2913 9.97833 10.6851 11.4742 9.92742 12.9185C9.77588 13.228 9.37176 13.3312 9.01815 13.4859C8.76558 13.5891 8.513 13.4859 8.36146 13.228C8.1594 12.8154 7.95734 12.4543 8.00785 12.1448C9.06867 8.79193 10.18 5.49066 11.3418 2.18938C11.847 0.796651 12.8573 0.435572 14.1707 1.00298C16.949 2.24096 19.7273 3.42735 22.4551 4.71692C22.8088 4.87166 23.0108 5.38749 23.2129 5.85174C23.3139 6.10965 23.2129 6.36756 23.0108 6.47072C22.6572 6.67705 22.2531 6.88338 21.95 6.8318C20.5861 6.47072 19.2727 5.90331 17.9088 5.38749C16.949 5.02641 16.0397 4.51059 15.08 4.09793C14.8779 3.99476 14.6758 4.2011 14.7769 4.40743C15.7366 7.03813 16.5954 9.72042 17.6562 12.2995C17.8583 12.7638 18.717 13.0733 19.3232 13.228C20.5356 13.4859 21.849 13.4859 23.0613 13.847C23.516 13.9502 23.8696 14.3628 24.2737 14.7239C24.5263 14.9303 24.4757 15.3429 24.1727 15.4977C23.7685 15.7556 23.3644 16.0135 22.9098 16.0135C21.7985 16.0651 20.6871 15.9103 19.5758 15.8071C19.3737 15.8071 19.2222 15.9619 19.1717 16.1682C18.9696 20.2432 20.6871 23.235 24.0211 24.8857C25.1324 25.4531 26.3448 25.9173 27.4056 26.5879C27.7087 26.7426 27.8097 27.1553 27.9613 27.5679C28.0623 27.8259 27.9613 28.0838 27.7087 28.1869C27.3046 28.3933 26.9005 28.5996 26.5974 28.4964C25.284 28.0838 24.0211 27.5164 22.1521 26.7942C22.0005 26.7426 21.7985 26.8974 21.849 27.0521C22.6067 29.4249 23.2634 31.2819 23.6675 33.1904C23.7685 33.7063 23.5665 34.2221 23.4149 34.7895C23.3139 35.1506 22.8593 35.2537 22.6067 35.0474C22.2026 34.7379 21.7985 34.3768 21.6469 33.9642C20.9397 32.2104 20.384 30.405 19.6263 28.1354C19.5758 27.929 19.3232 27.929 19.2222 28.0838C18.3634 29.6312 17.8078 30.7661 17.1006 31.6945C16.8985 32.004 16.3428 32.0556 15.8377 32.1588C15.5851 32.2104 15.383 32.0556 15.3325 31.8493C15.2315 31.4366 15.1305 31.024 15.2315 30.6629C15.5851 29.6312 16.0397 28.548 16.6964 27.6711C19.2727 24.4214 18.0098 21.2749 16.4944 17.6125Z" fill="#E1E8E5"/>
<path d="M36.9545 479.603C37.102 480.672 36.9112 481.69 36.0784 482.555C35.532 483.119 34.8987 483.453 34.092 483.402C33.5889 483.376 33.0772 483.342 32.5827 483.376C30.2407 483.521 28.7053 481.391 29.0089 479.286C29.087 478.756 29.2605 478.234 29.4253 477.729C29.5207 477.438 29.512 477.207 29.2605 477.002C28.7921 476.626 28.341 476.215 27.8466 475.89C26.8404 475.231 25.7995 474.624 24.7759 473.982C24.4897 473.802 24.2121 473.725 23.9345 473.939C22.2604 475.222 20.3867 475.145 18.4437 474.769C17.0558 474.504 15.7634 474.085 14.7571 473.041C14.5576 472.835 14.3755 472.613 14.202 472.382C14.0198 472.134 13.803 472.065 13.5254 472.168C11.8513 472.767 10.1685 473.383 8.49434 473.982C8.104 474.119 7.89582 474.375 7.85245 474.803C7.69631 476.318 6.95033 477.584 5.97881 478.713C5.72726 479.013 5.26752 479.226 4.86851 479.295C3.99241 479.44 3.11631 479.295 2.29225 478.944C0.470663 478.166 -0.388087 476.386 0.167064 474.435C0.522708 473.186 1.1646 472.1 2.42237 471.569C3.95771 470.919 5.39764 471.201 6.63805 472.296C7.00237 472.613 7.31464 472.673 7.7657 472.502C9.4832 471.843 11.2094 471.21 12.9442 470.594C13.3172 470.457 13.4387 470.269 13.3432 469.892C13.2565 469.55 13.2045 469.191 13.1437 468.849C13.0396 468.215 13.083 467.599 13.3693 467.018C14.6531 464.34 16.6742 462.654 19.7362 462.329C19.8663 462.312 19.9877 462.269 20.1178 462.261C20.5342 462.227 20.673 462.004 20.673 461.602C20.673 460.19 20.6903 458.787 20.7077 457.376C20.7077 457.042 20.6383 456.743 20.2653 456.708C18.7386 456.554 18.1141 455.468 17.7584 454.227C17.4375 453.098 17.5416 451.943 18.0707 450.856C18.5912 449.744 19.5106 449.222 20.6903 449.085C20.7077 449.085 20.7164 449.085 20.7337 449.085C21.6358 448.991 22.5553 448.837 23.336 449.505C24.3595 450.403 25.1489 451.43 25.4178 452.807C25.5739 453.594 25.4351 454.356 25.2617 455.083C25.0361 456.007 24.2815 456.477 23.3533 456.666C22.8068 456.777 22.7288 456.845 22.7548 457.393C22.8155 458.813 22.8676 460.233 22.9283 461.662C22.9543 462.278 23.0324 462.304 23.6656 462.321C24.2381 462.338 24.8279 462.363 25.3744 462.509C26.2679 462.74 26.7189 463.382 26.9098 464.28C27.3955 466.598 27.2394 468.831 26.1985 470.979C26.077 471.236 26.1464 471.441 26.3546 471.621C27.222 472.373 28.0721 473.143 28.9569 473.871C29.2345 474.102 29.5901 474.256 29.9111 474.452C30.2147 474.641 30.553 474.803 30.7958 475.043C31.3163 475.573 31.9235 475.77 32.6695 475.736C33.7884 475.693 34.8467 475.933 35.7662 476.617C36.5295 477.182 37.0326 477.9 36.9632 478.901C36.9372 479.115 36.9545 479.329 36.9545 479.603ZM16.6915 470.286C16.7262 470.312 16.7609 470.337 16.7956 470.354C16.8563 470.32 16.917 470.294 16.9691 470.252C17.2987 469.935 17.611 469.601 17.9579 469.293C18.4264 468.874 18.9381 468.549 19.6061 468.549C19.9704 468.549 20.3173 468.6 20.4648 468.977C20.6209 469.379 20.4128 469.627 20.1178 469.927C19.4673 470.602 18.8861 471.347 18.3049 472.074C18.2442 472.151 18.3136 472.322 18.3223 472.442C18.435 472.399 18.5738 472.391 18.6519 472.322C18.8254 472.151 18.9555 471.946 19.1203 471.766C19.4673 471.398 19.8576 471.124 20.3954 471.159C20.8031 471.184 20.9506 471.449 20.7597 471.8C20.6383 472.023 20.5082 472.228 20.3347 472.519C20.5949 472.545 20.7684 472.587 20.9419 472.579C21.792 472.51 22.4339 472.074 22.937 471.432C24.0126 470.063 24.5851 468.515 24.6198 466.778C24.6458 465.734 24.1947 465.11 23.1538 464.862C22.1216 464.614 21.072 464.596 20.0311 464.853C19.2938 465.033 18.5998 465.307 18.2008 466.017C17.8799 466.59 17.9319 466.65 18.5131 466.864C18.7646 466.958 19.0249 467.189 19.155 467.428C19.3111 467.711 18.9989 467.865 18.8167 468.036C18.2008 468.618 17.585 469.191 16.9864 469.79C16.8563 469.935 16.7869 470.123 16.6915 470.286ZM33.294 477.644C32.9123 477.729 32.6261 477.738 32.3919 477.866C32.2011 477.969 31.9408 478.208 31.9495 478.371C32.0102 479.303 32.0536 480.253 32.7562 480.997C33.0251 481.28 33.32 481.34 33.641 481.143C34.2655 480.766 34.7773 480.279 35.0983 479.611C35.3932 478.995 35.237 478.388 34.6212 478.089C34.1875 477.875 33.6844 477.772 33.294 477.644ZM20.4648 453.868C20.4388 454.313 20.5862 454.604 20.9159 454.792C21.3149 455.014 21.7312 455.074 22.1476 454.818C22.7375 454.45 23.0758 453.902 23.2492 453.243C23.4834 452.345 22.8676 451.584 21.9307 451.635C21.7746 451.643 21.5751 451.712 21.471 451.815C20.8985 452.413 20.5515 453.115 20.4648 453.868ZM3.83627 475.197C3.8276 475.197 3.81892 475.197 3.81025 475.197C3.81025 475.479 3.81892 475.77 3.81025 476.052C3.78423 476.489 4.00108 476.805 4.29601 477.096C4.53021 477.327 4.73839 477.327 4.96392 477.088C5.7793 476.249 6.0829 475.248 5.91809 474.11C5.86604 473.734 5.59714 473.469 5.23282 473.357C4.98995 473.28 3.94904 473.777 3.88832 473.965C3.85362 474.059 3.84494 474.162 3.84494 474.256C3.83627 474.572 3.83627 474.88 3.83627 475.197Z" fill="#E1E8E5"/>
</svg>
