<svg fill="none" xmlns="http://www.w3.org/2000/svg" viewBox="0 0 317 214"><path d="M111.297 9.214c-.154 1.331-.344 2.665-.453 3.995-.069.832.189 1.596.604 2.296.637 1.073 1.261 2.16 1.908 3.226.229.373.514.737.819 1.05 1.665 1.712 2.931 3.727 4.302 5.669.251.358.48.73.766 1.05.199.23.449.431.721.573.367.197.744.192 1.088-.149.365-.355.743-.69 1.136-1.012.306-.247.652-.44.951-.697.252-.211.494-.451.694-.708.186-.233.115-.475-.039-.706-.102-.147-.141-.328-.221-.49-.116-.242-.22-.5-.378-.712-1.288-1.753-2.869-3.238-4.351-4.805-1.289-1.349-2.056-2.996-2.598-4.776a2.793 2.793 0 01.362-2.422 11.958 11.958 0 012.369-2.65c.143-.12.371-.226.538-.213 1.15.092 2.314.16 3.39.624.856.368 1.579.933 2.216 1.601 1.148 1.222 2.317 2.428 3.377 3.726.63.777 1.065 1.71 1.597 2.571.181.309.34.641.554.92.174.224.392.448.64.576.175.097.466.113.648.018.513-.254 1.02-.528 1.467-.887.627-.49 1.23-1.032 1.803-1.597.594-.58.635-1.205.184-1.867-.737-1.063-1.475-2.117-2.212-3.18a4.375 4.375 0 01-.405-.708c-.43-.915-1.079-1.65-1.794-2.332-.813-.72-1.578-1.494-2.39-2.222-1.473-1.327-3.161-2.29-5.036-2.974a7.87 7.87 0 00-4.77-.244 5.804 5.804 0 00-2.402 1.238c-.387.333-.851.57-1.216.924-1.08 1.041-2.233 2.005-2.988 3.344-.355.633-.689 1.251-.787 1.968l-.094-.018zm10.288 15.559c-.414.456-.487.461-.947.12-.468-.344-.953-.654-1.423-.988-.076-.06-.1-.193-.149-.294.127-.05.252-.128.367-.125.09-.002.182.107.266.168.619.39 1.149.937 1.886 1.119-.035-.126-.042-.293-.129-.382a3.243 3.243 0 00-.586-.54c-.379-.262-.792-.494-1.19-.751.185-.27.35-.166.509-.081.41.204.831.4 1.231.612.153.074.332.153.418.288.365.526.564.554-.253.854zm5.845-17.64c-.306.172-.554.283-.767.436-.169.116-.354.266-.447.442a.509.509 0 00.026.445c.061.085.278.116.395.073.397-.138.786-.324 1.174-.5.248-.11.478-.142.67.04.316.306.617.637.923.95.094.1.196.202.304.277.2.147.445.247.592.43.495.587.957 1.196 1.429 1.806.138.182.075.345-.078.51-.389.424-.781.857-1.17 1.281-.341.369-.363.383-.646.01-1.128-1.549-2.418-2.934-3.784-4.26-.992-.963-2.076-1.787-3.346-2.342-.496-.22-1.035-.448-1.568-.463-1.923-.07-3.566.648-4.733 2.316-.576.821-1.013 1.742-1.512 2.614-.364.631-.341 1.25-.13 1.905.282.86.676 1.658 1.15 2.416.707 1.158 1.39 2.34 2.109 3.483.205.322.526.565.78.869.346.412.679.84.993 1.275.046.073.006.295-.07.355-.442.377-.897.735-1.356 1.072-.076.06-.276.078-.31.026-.316-.425-.689-.834-.886-1.31-.162-.398-.346-.735-.647-1.029-.651-.643-1.334-1.265-1.94-1.955-1.416-1.62-2.263-3.511-2.239-5.784.011-.77-.023-1.538.024-2.31.022-.419.077-.868.25-1.24.7-1.497 1.645-2.81 2.97-3.825.162-.126.324-.252.471-.39.949-.891 2.074-1.327 3.299-1.533.26-.044.538-.048.783.015.87.224 1.734.475 2.584.751.492.155.469.178.319.692-.042.149-.004.376.09.476.094.1.321.124.463.086.209-.054.394-.204.602-.294.127-.05.303-.119.4-.073.259.121.487.3.777.483-.151.119-.246.184-.335.26-.183.14-.392.276-.56.429-.191.176-.414.374-.218.658.174.261.418.169.647.064.366-.162.722-.354 1.095-.506.127-.05.342-.093.425-.023.343.265.644.56.998.891zm6.079 8.116c-.017.033-.027.077-.043.111-.758-.286-1.518-.564-2.285-.852a2.39 2.39 0 00-.008-.084c.148-.019.294-.075.433-.058.165.021.327.097.491.164.502.193 1.013.342 1.412.719zm-1.013.814c.014.058.022.105.035.163-.129.059-.262.135-.396.175-.096.028-.243.047-.284-.007-.142-.163-.242-.356-.353-.542-.026-.042-.022-.142.014-.181.027-.041.129-.059.168-.034.283.135.553.286.816.426zM126.997 29.267c.345-.142.603-.253.877-.353.322-.118.496-.339.528-.69.036-.331-.138-.523-.406-.61-.756-.245-1.524-.472-2.284-.698a8.991 8.991 0 00-1.083-.268.874.874 0 00-.533.098c-.258.149-.283.473-.035.613.415.237.853.412 1.298.598.213.096.44.167.757.282-.177.108-.266.185-.366.233-.281.135-.577.258-.852.404-.253.131-.377.37-.367.654.01.284.16.462.413.537 1.054.319 2.108.637 3.176.93.619.172 1.256.3 1.885.427.112.02.314.002.347-.067.06-.111.069-.316.009-.412-.131-.183-.298-.365-.496-.449-.878-.38-1.774-.724-2.659-1.077-.047-.028-.083-.072-.209-.152zM136.379 19.69c-.317.174-.64.339-.937.545-.54.376-.523.911.058 1.169.418.18.877.256 1.299.419.73.275 1.45.596 2.177.88.149.056.311.096.477.117.33.052.576-.089.674-.37.096-.271.001-.578-.285-.706-.308-.151-.658-.235-.98-.36a55.798 55.798 0 01-1.631-.667c-.05-.019-.075-.07-.166-.143.155-.093.28-.172.414-.25.165-.1.351-.169.486-.293.334-.293.354-.756.014-1.006a5.09 5.09 0 00-.962-.524c-.828-.36-1.66-.7-2.502-1.035a1.28 1.28 0 00-.612-.076c-.128.013-.31.148-.345.263-.042.113.028.322.116.413.147.15.349.252.544.344.566.283 1.137.548 1.705.822.137.072.27.162.404.243.028.08.04.147.052.215z" fill="#E8E8E8"/><path d="M268.499 57.167c-.278-.419-.648-.728-1.098-.972-.649-.357-1.267-.759-1.89-1.15-.058-.039-.098-.183-.07-.254.267-.68.543-1.352.842-2.022.055-.123.227-.268.352-.28a75.315 75.315 0 012.922-.304c.553-.048.727-.136.943-.655.207-.498-.138-1.04-.658-.998-1.404.116-2.802.247-4.207.195-1.052-.04-2.119.083-3.181.146-.101.008-.245.05-.293.127-.126.197.018.929.195 1.096.357.342.741.63 1.309.482.101-.026.209-.007.314-.014.658-.005.658-.005.508.624-.015.069-.028.133-.048.2-.267.88-.497.972-1.295.563-.514-.266-1.025-.556-1.571-.741-1.021-.35-2.075-.633-3.113-.94-.385-.116-.415-.163-.266-.545l.856-2.178-.006-.002c.293-.747.595-1.484.872-2.236.052-.148.077-.381-.004-.484-.228-.284-.479-.589-.795-.755-.431-.231-.935-.34-1.406-.498-.216-.069-.317-.197-.306-.441.022-.414.014-.825.04-1.231.026-.344.033-.701.135-1.025.249-.755.531-1.505.834-2.248.562-1.352 1.459-2.401 2.846-2.982.362-.152.461-.124.566.241.464 1.569.95 3.126 1.366 4.709.265 1.01.422 2.061.63 3.094.119.593.457.984 1.01 1.01.489.022.699.244.754.691.008.058.03.11.045.164.219.616.683.84 1.328.65.288-.085.584-.142.867-.23.24-.07.485-.14.708-.26.639-.359.78-.718.584-1.394-.025-.09-.049-.184-.082-.27-.122-.383-.227-.767.031-1.16a.392.392 0 00.051-.193c-.024-.572.003-1.15-.087-1.709-.363-2.134-.767-4.257-1.15-6.386-.064-.363-.025-.417.331-.566.065-.026.128-.048.188-.077.511-.205.714-.475.644-1.007-.081-.598-.19-1.2-.359-1.773-.223-.778-.518-.906-1.325-.705-1.025.261-1.712-.09-2.054-1.04-.031-.092-.057-.181-.105-.26-.093-.15-.17-.338-.309-.418a1.328 1.328 0 01-.59-.646c-.135-.35-.39-.427-.736-.288-.28.113-.555.24-.835.352-.259.102-.361.27-.376.556a.972.972 0 01-.247.583c-.203.208-.287.42-.237.68.058.286.113.578.198.855.081.258.024.418-.23.57a1.29 1.29 0 00-.488.517c-.105.205-.21.305-.423.336-1.294.191-2.502.686-3.692 1.23-.362.165-.745.415-.976.724-.517.7-1.013 1.424-1.397 2.2-.64 1.276-.954 2.647-1.07 4.055-.12 1.433-.201 2.86.172 4.242.126.453.053.855-.161 1.276-.289.567-.59 1.132-.81 1.724-.174.459-.405.83-.818 1.095-.359.234-.689.533-1.068.71-.324.147-.548.33-.661.65-.084.23-.187.46-.212.693-.022.228-.032.547.1.673.383.37.837.665 1.272.978.039.026.108.019.162.02.112.007.226-.003.336.024.63.127 1.251.307 1.892.389.71.093 1.402.23 2.068.48 2.551.98 5.219 1.695 7.687 2.886 1.173.565 2.495.643 3.792.787.29.033.552-.08.76-.298.376-.401.483-1.2.195-1.642zm-.548-10.933c.037.137.056.274.092.46-.24.102-.467.202-.696.29-.17.064-.29-.003-.379-.146-.251-.397-.228-.47.21-.675.09-.043.186-.072.264-.131.281-.237.418-.139.509.202zm-.496-12.395c.525-.256.587-.228.617.327.016.254.025.51.035.824-.152.077-.283.18-.426.204-.059.01-.164-.138-.204-.238-.08-.227-.122-.477-.201-.709-.073-.199-.023-.311.179-.408zm-.93 1.44c.449 2.257.882 4.521 1.336 6.78.127.651.301 1.288.44 1.938.019.093-.026.27-.096.307-.774.41-1.559.805-2.345 1.2-.082.039-.183.047-.302.073-.051-.086-.114-.157-.137-.24-.339-1.159-.671-2.322-1.011-3.481-.122-.414-.313-.81-.402-1.23-.305-1.464-.516-2.95-.98-4.364-.067-.215.002-.315.208-.392.865-.317 1.725-.654 2.595-.97.47-.176.6-.106.694.38zm-.898-1.961c.105-.02.263.011.326.083.078.095.083.252.122.414-.124.068-.211.137-.303.154-.999.227-1.994.443-2.996.663-.152.033-.308.06-.374-.144-.063-.195.029-.336.197-.395.425-.155.858-.314 1.296-.427a25.513 25.513 0 011.732-.348zm-2.575-1.49c.4-.138.812-.23 1.225-.339.035-.012.072 0 .15.003.041.082.108.174.135.276.181.758.283.67-.511.838-.245.05-.492.094-.733.152-.216.055-.329-.028-.374-.223-.028-.128-.091-.261-.073-.385.014-.113.09-.29.181-.321zm3.526 26c-.553-.262-1.089-.548-1.634-.813-1.754-.849-3.591-1.485-5.445-2.108-.911-.306-1.827-.583-2.792-.722-.183-.027-.341-.15-.522-.201-.401-.122-.798-.285-1.214-.338-.887-.118-1.773-.242-2.572-.633-.173-.085-.305-.242-.461-.371.146-.154.261-.355.434-.456.222-.133.485-.245.725-.254.307-.01.437-.157.531-.397l1.335-3.306c.006-.016.009-.04.021-.054.649-1.266.539-2.562.424-3.891-.234-2.665.459-5.11 2.381-7.177a5.627 5.627 0 012.75-1.66c.19-.05.29.003.358.17.075.18.147.367.235.546.092.181.022.268-.158.354-.436.2-.874.388-1.286.634-1.12.674-1.941 1.607-2.431 2.824-.315.788-.636 1.574-.935 2.367-.332.876-.285 1.76-.126 2.639.047.251.114.498.173.748a.896.896 0 00.511.63c.477.223.951.45 1.421.677.326.157.361.207.216.546-.286.681-.632 1.347-.88 2.04-.292.821-.525 1.663-.757 2.499-.083.305.014.568.297.729.412.231.81.5 1.25.679.721.295 1.473.527 2.209.784a.31.31 0 01-.011.027c1.003.351 2.028.66 3.002 1.068.563.235 1.055.636 1.586.951.498.292 1.008.57 1.506.861.084.049.185.133.207.215a.712.712 0 01-.029.399c-.005.029-.225.033-.319-.006z" fill="#4150A3"/><path d="M257.579 47.342c-.336-.365-.763-.422-1.305-.184-.41.18-.662.482-.81.89-.054.185-.127.37-.158.558-.082.455.172 1.046.474 1.158.497.186 1.207-.062 1.512-.532.122-.186.241-.38.349-.578.264-.472.24-.983-.062-1.312zm-.96 1.395c-.197-.256-.159-.366.154-.499.12.203.015.347-.154.498zM264.302 40.37c.015.304.203.475.479.56.483.144.886-.063 1.249-.37 1.019-.866.521-2.288-.233-2.577-.216-.007-.461-.093-.641-.007-.456.219-.855.557-.885 1.112-.029.43.009.86.031 1.283zm1.185-1.397c.056-.049.205-.058.268-.018.237.14.32.485.218.76-.108.29-.325.333-.516.11-.184-.213-.181-.653.03-.852z" fill="#4150A3"/><path d="M1 78.89c0-3.234 1.462-6.267 2.757-9.145.526-1.168 1.436-2.037 2.288-2.94.593-.628 1.1-1.348 1.702-1.949.437-.436.978-.73 1.408-1.16.488-.488 1.095-.992 1.753-1.232.601-.218 1.141-.707 1.708-.99.229-.115.472-.041.704-.157.293-.147.588-.248.912-.26.528-.021.993-.353 1.552-.353.503 0 .95-.235 1.467-.235.438 0 .883-.352 1.29-.352.518 0 .98-.117 1.467-.117M39.19 78.89c0-3.234-1.462-6.267-2.757-9.145-.526-1.168-1.435-2.037-2.288-2.94-.593-.628-1.1-1.348-1.701-1.949-.437-.437-.979-.73-1.408-1.16-.488-.488-1.095-.993-1.754-1.232-.6-.218-1.14-.707-1.707-.99-.23-.115-.472-.041-.704-.157-.293-.147-.589-.248-.913-.261-.528-.02-.992-.352-1.551-.352-.504 0-.95-.235-1.467-.235-.439 0-.884-.352-1.29-.352-.519 0-.98-.117-1.467-.117" stroke="#E8E8E8" stroke-linecap="round" stroke-linejoin="round"/><path d="M19.998 60.15c-.43.335-.857.663-1.28.99-.17.133-.311.398-.51.487-.211.094-.254.31-.427.41-.323.19-.836.658-1.023.986-.122.213-.316.278-.455.452a5.815 5.815 0 01-.41.47c-.49.49-1.14 1.091-1.453 1.718-.393.784-.742 1.54-1.137 2.331-.182.362-.433.822-.522 1.222-.058.262-.247.457-.372.682-.088.158-.13.355-.243.496-.112.14-.15.438-.228.613-.082.186-.19.408-.243.594-.044.154-.23.314-.31.457a4.297 4.297 0 00-.3.698c-.337.976-.637 1.849-.637 2.912 0 .523-.114 1.031-.114 1.563v1.28M20.193 60.15c.429.335.857.663 1.279.99.17.133.312.398.511.487.21.094.254.31.427.41.323.19.836.658 1.023.986.122.213.316.278.455.452.126.158.267.327.41.47.49.49 1.14 1.091 1.453 1.718.392.784.742 1.54 1.137 2.331.181.362.432.822.521 1.222.058.262.248.457.373.682.087.158.13.355.243.496.111.14.15.438.227.613.083.186.19.408.243.594.045.154.23.314.31.457.126.228.216.456.3.698.338.976.638 1.849.638 2.912 0 .523.114 1.031.114 1.563v1.28M20.055 60.434c-.036-.204.057-.542.057-.171 0 .095-.048.394.028.455.12.096.052.717.089.88.134.604.167 1.179.167 1.82v2.103c0 .844.114 1.662.114 2.495 0 1.112.056 2.215.056 3.332 0 .864-.113 1.687-.113 2.558 0 .741-.114 1.489-.114 2.23v2.375M1.127 78.996c.158-.115.315-.246.463-.362.077-.06.112-.145.206-.186.057-.026.17-.075.215-.111.113-.09.261-.17.402-.233.16-.07.371-.074.515-.186.032-.026.195-.073.242-.086.087-.025.168.01.255-.029.143-.063.382-.138.541-.144.38-.015.79-.127 1.157-.208.408-.09.847-.101 1.271-.101.194 0 .388.027.572.034.24.01.475.125.713.137.47.025.906.31 1.355.41.198.044.413.125.6.208.127.056.652.024.652.206" stroke="#E8E8E8" stroke-linecap="round" stroke-linejoin="round"/><path d="M10.389 78.619c.131-.169.331-.255.48-.412.124-.131.348-.294.54-.308.21-.017.472-.159.66-.248.167-.08.434-.136.618-.162.55-.079 1.116-.276 1.673-.276.475 0 .91-.138 1.38-.138.443 0 1.056-.098 1.475.052.096.034.222.03.324.05.108.019.215.054.325.068.235.03.467.157.696.173.128.01.41.06.507.137.148.12.398.13.566.223.15.084.279.204.412.307.101.08.302.144.36.26" stroke="#E8E8E8" stroke-linecap="round" stroke-linejoin="round"/><path d="M29.975 78.585c-.166-.273-.484-.508-.738-.705a5.689 5.689 0 00-.823-.545c-.808-.436-1.724-.534-2.624-.534-.265 0-.569-.044-.823.034a3.854 3.854 0 01-.816.172c-.241.016-.497.101-.735.145-.306.055-.62.133-.911.24-.433.158-.831.397-1.27.549-.224.077-.43.208-.651.293-.041.016-.273.16-.282.18M39.271 78.928c-.236-.237-.387-.562-.652-.77-.22-.174-.428-.335-.686-.457-.706-.335-1.463-.317-2.225-.317-1.178 0-2.374-.158-3.517.223-.262.088-.53.153-.794.242a6.895 6.895 0 01-.66.195c-.153.035-.38.097-.522.171-.09.048-.164.13-.274.13M20.023 98.923c-.869-.657-1.488-1.47-2.442-2.015-.322-.184-.513-.514-.843-.843l-.842-.837s-1.43-1.574-2.064-2.207c-.365-.365-.596-.746-1.007-1.2-.534-.589-.96-.96-1.44-1.44-.51-.51-.92-.987-1.54-1.588-.618-.598-1.117-.972-1.627-1.483-.953-.953-2.044-1.89-2.858-2.975-.28-.374-.454-.734-.789-1.173a12.153 12.153 0 00-.576-.698c-.2-.232-.337-.341-.528-.581-.23-.29-.296-.5-.528-.79-.198-.248-.36-.345-.554-.597-.202-.261-.279-.5-.453-.714-.158-.192-.752-1.14-.816-1.013" stroke="#E8E8E8" stroke-linecap="round" stroke-linejoin="round"/><path d="M20.052 99c-.073-.177-.18-.293-.289-.447-.14-.2-.24-.467-.352-.686-.214-.424-.493-.829-.653-1.278-.15-.42-.357-.8-.575-1.19-.46-.824-.892-1.658-1.368-2.473a4.876 4.876 0 01-.28-.533c-.111-.247-.23-.533-.406-.742-.261-.308-.361-.734-.588-1.06-.669-.967-1.129-2.072-1.626-3.129-.244-.517-.52-1.03-.73-1.565-.279-.708-.758-1.34-.984-2.075-.146-.474-.372-.928-.503-1.406-.159-.584-.324-1.138-.568-1.687-.064-.143-.087-.329-.128-.483-.064-.241-.205-.47-.252-.71-.043-.21-.119-.4-.151-.612-.027-.17-.147-.33-.147-.502" stroke="#E8E8E8" stroke-linecap="round" stroke-linejoin="round"/><path d="M20.35 78.348c0 1.176.067 2.377-.035 3.547-.036.411.021.827-.02 1.239-.057.548-.131 1.13-.131 1.68 0 .612-.027 1.222-.037 1.832-.015.885.074 1.767.074 2.65 0 .413-.031.804-.074 1.214-.042.4-.058.822-.13 1.215-.062.331-.056.722-.056 1.059v5.084c0 .359-.037.729-.037 1.095M19.978 99c.514-.62.957-1.29 1.379-1.974.464-.751.99-1.463 1.45-2.216.8-1.315 1.416-2.729 2.046-4.129.35-.776.724-1.52 1.133-2.266.063-.116.095-.25.148-.372.064-.144.165-.266.224-.411.257-.631.506-1.266.756-1.9.343-.87.84-1.666 1.07-2.586.237-.95.712-1.764 1.105-2.648.212-.476.514-.955.59-1.48.014-.1.072-.196.072-.298 0-.109-.034-.318.074-.372M20.09 99c.205-.395.585-.56.911-.837.438-.373.934-.663 1.356-1.06.43-.406.868-.812 1.305-1.208.416-.377.72-.86 1.151-1.228.63-.537 1.104-1.237 1.598-1.892.436-.577.886-1.144 1.383-1.668.718-.755 1.13-1.739 1.787-2.547.335-.413.687-.85 1.062-1.226.422-.422.892-.787 1.354-1.164.436-.355.853-.725 1.257-1.116.28-.272.617-.495.916-.748.349-.296.642-.642.978-.951.368-.34.774-.634 1.128-.989.307-.306.595-.631.902-.938.43-.43.707-.867 1.03-1.381.219-.35.446-.744.74-1.038.07-.07.19-.132.231-.215M34.266 67.066a8.281 8.281 0 01-.873.721c-.227.165-.534.298-.732.495-.171.171-.442.126-.59.26-.113.105-.35.2-.487.241M32.021 66.365c.196-.025.823-.3.96-.474M31.584 70.864c.453 0 .77-.346 1.146-.576.162-.099.325-.209.49-.3.173-.095.425-.273.614-.295.196-.022.37-.27.59-.27.15 0 .364-.156.473-.27.208-.216.462-.62.736-.72M31.873 73.181c.67 0 1.3-.514 1.882-.835.443-.244.873-.523 1.313-.765.55-.303 1.06-.718 1.59-1.01M31.873 75.503c1.233 0 2.202-.825 3.304-1.31.185-.082.41-.316.568-.455.27-.237.543-.465.812-.702.235-.206.583-.54.865-.645M33.609 76.789c1.106 0 1.886-.7 2.79-1.206.636-.356 1.066-1.07 1.7-1.385M37.331 77.05c.324-.127 1.18-.806 1.469-.998" stroke="#E8E8E8" stroke-linecap="round" stroke-linejoin="round"/><path d="M81.96 210.573c.131.963-.04 1.881-.782 2.659-.487.509-1.052.81-1.772.763-.448-.023-.905-.054-1.346-.023-2.089.131-3.458-1.788-3.187-3.684.07-.478.224-.949.371-1.403.085-.262.078-.471-.147-.656-.418-.339-.82-.709-1.26-1.002-.898-.593-1.827-1.141-2.74-1.719-.255-.162-.502-.231-.75-.038-1.493 1.156-3.164 1.087-4.897.748-1.238-.239-2.39-.617-3.288-1.558a6.118 6.118 0 01-.495-.593c-.163-.224-.356-.285-.604-.193-1.493.54-2.994 1.095-4.487 1.634-.348.124-.534.355-.572.74-.14 1.365-.805 2.506-1.671 3.523-.225.27-.635.463-.99.524-.782.131-1.564 0-2.299-.316-1.624-.701-2.39-2.305-1.895-4.062.317-1.126.89-2.104 2.011-2.582 1.37-.586 2.654-.332 3.76.655.325.285.604.339 1.006.185a192.962 192.962 0 014.619-1.719c.332-.124.44-.293.356-.632-.078-.309-.124-.632-.178-.941-.093-.57-.054-1.125.2-1.649 1.146-2.413 2.948-3.932 5.68-4.225.116-.015.224-.053.34-.061.371-.031.495-.231.495-.594 0-1.272.016-2.536.031-3.808 0-.3-.062-.57-.394-.601-1.362-.139-1.92-1.118-2.236-2.235a4.232 4.232 0 01.278-3.038c.464-1.002 1.284-1.472 2.337-1.595h.038c.805-.085 1.625-.224 2.321.378.913.809 1.617 1.734 1.857 2.975.14.709.015 1.395-.14 2.05-.2.833-.874 1.257-1.701 1.427-.488.1-.557.161-.534.655.054 1.279.1 2.559.155 3.846.023.555.092.578.657.594.51.015 1.037.038 1.524.169.797.208 1.2.787 1.37 1.596.433 2.089.294 4.101-.635 6.036-.108.231-.046.416.14.578.773.678 1.531 1.372 2.32 2.027.248.208.565.347.851.524.271.17.573.316.79.532.464.478 1.005.655 1.67.625.999-.039 1.942.177 2.763.794.68.508 1.13 1.156 1.067 2.058-.023.192-.007.385-.007.632zm-18.073-8.395c.031.023.062.047.093.062.054-.031.108-.054.155-.093.294-.285.572-.585.881-.863.418-.378.875-.67 1.47-.67.325 0 .635.046.766.385.14.362-.046.586-.31.856-.58.609-1.098 1.279-1.616 1.934-.054.07.008.224.016.332.1-.039.224-.046.293-.108.155-.154.271-.339.418-.501.31-.332.658-.578 1.138-.547.363.023.495.262.324.578-.108.2-.224.385-.379.647.232.023.387.062.542.054.758-.061 1.33-.455 1.78-1.033.959-1.233 1.47-2.628 1.5-4.193.023-.941-.379-1.503-1.307-1.727a5.78 5.78 0 00-2.785-.008c-.658.162-1.277.409-1.633 1.049-.286.516-.24.57.279.763.224.085.456.293.572.509.14.254-.14.393-.302.547-.549.524-1.098 1.041-1.632 1.58-.116.131-.178.301-.263.447zm14.808 6.63c-.34.077-.596.084-.805.2-.17.092-.402.308-.394.455.054.84.092 1.696.719 2.366.24.255.503.309.79.131.556-.339 1.013-.778 1.299-1.38.263-.555.124-1.102-.426-1.372-.386-.192-.835-.285-1.183-.4zm-11.443-21.422c-.023.401.109.663.403.832.356.201.727.255 1.098.023.526-.331.828-.824.983-1.418.209-.809-.34-1.495-1.176-1.449-.14.008-.317.069-.41.162-.51.539-.82 1.172-.898 1.85zm-14.83 19.217h-.024c0 .254.008.516 0 .771-.023.393.17.678.434.94.209.208.394.208.595-.007.727-.756.998-1.658.851-2.683-.046-.339-.286-.578-.61-.678-.218-.07-1.146.377-1.2.547a.768.768 0 00-.039.262c-.008.285-.008.563-.008.848z" fill="#FF719C"/><path d="M299.721 185.662c-1.271-.537-2.574-1.023-3.809-1.624-3.151-1.536-6.28-3.12-9.416-4.689-.69-.347-1.37-.698-2.057-1.051-.418-.217-.839-.371-1.336-.262-.346.076-.556-.14-.752-.405-.272-.369-.552-.734-.893-1.037-.545-.492-.878-1.086-1.051-1.787-.336-1.389-.142-2.762.296-4.087.859-2.594 2.05-5.032 3.793-7.173.521-.639 1.162-1.187 1.773-1.755.302-.286.7-.389 1.097-.324.657.11 1.328.226 1.964.439 3.122 1.016 6.037 2.469 8.971 3.914 2.051 1.009 4.188 1.839 6.292 2.728.643.271 1.326.432 1.968.703 1.666.719 3.323 1.474 4.992 2.202.585.256.788.762.831 1.321.087 1.134.146 2.279-.398 3.353-.108.209-.033.312.169.381.279.094.559.188.829.303.481.202.741.559.754 1.096.023 1.043.121 2.078-.157 3.113-.317 1.178-.881 2.188-1.875 2.936-.47.358-.951.704-1.453 1.008-.253.156-.569.237-.863.304-.125.027-.296-.022-.412-.087-.443-.25-.871-.534-1.321-.772-.091-.046-.297.002-.386.076-.723.624-1.443 1.258-2.149 1.898-.11.105-.191.253-.246.397-.235.608-.697.819-1.329.56-1.288-.536-2.571-1.085-3.856-1.628.013-.01.022-.031.03-.051zm.675-1.48l.023-.053c.913.385 1.83.764 2.74 1.156.349.156.623.097.889-.181.523-.55 1.067-1.076 1.606-1.611 1.18-1.171 2.25-2.42 3.007-3.905 1.012-2.012 1.551-4.114 1.479-6.361-.008-.346-.135-.55-.463-.697-.82-.362-1.612-.767-2.426-1.143-.366-.17-.741-.32-1.122-.457-.469-.174-.958-.302-1.421-.489-1.332-.546-2.659-1.122-3.988-1.675-.345-.146-.434-.088-.463.289-.048.655-.069 1.306-.123 1.959-.193 2.446-.97 4.709-2.371 6.748-.825 1.202-1.881 2.218-2.962 3.201-.319.286-.297.438.076.612 1.855.87 3.687 1.739 5.519 2.607zm-17.287-15.196c-.165.447-.399.999-.577 1.568-.345 1.078-.65 2.174-.519 3.318.043.376.176.75.327 1.099.132.303.398.335.668.123.206-.159.392-.327.581-.501.457-.42.949-.792 1.194-1.404.92-2.258 1.705-4.557 2.114-6.968.154-.897.214-1.801.291-2.706.013-.138-.124-.283-.191-.423-.132.064-.292.099-.393.2-.189.175-.343.38-.511.579-1.271 1.506-2.072 3.274-2.984 5.115zm8.693 2.429l-.006.013a314.544 314.544 0 01-.981-.414c-.378-.143-.777-.057-.977.271-.165.265-.314.567-.357.867-.031.217.053.555.212.686.39.315.832.589 1.286.797.82.378 1.661.709 2.498 1.03.419.161.853.305 1.29.386.157.027.429-.081.521-.217.348-.481.386-1.061.264-1.606-.095-.421-.581-.467-.926-.629-.133-.064-.277-.101-.412-.158-.796-.344-1.607-.686-2.412-1.026zm17.356 11.88c.293.227.587.105.88-.177.292-.282.636-.518.884-.827.307-.387.664-.8.789-1.248.214-.816.274-1.665.388-2.507.052-.375-.219-.506-.518-.592-.322-.088-.361.165-.447.36-.05.114-.107.225-.134.341-.38 1.468-1.217 2.697-2.087 3.911-.317.43-.311.489.245.739zm-15.634-12.314l.075.104c.158-.069.317-.121.461-.211.788-.478 1.561-.978 2.363-1.435.253-.139.584-.198.881-.2.41-.002.593.33.391.682a1.913 1.913 0 01-.505.565c-.505.383-1.052.733-1.564 1.113-.095.071-.199.289-.166.343.092.118.248.2.396.247.085.027.213-.046.31-.084.265-.111.513-.237.775-.341.576-.234.61-.219 1.041.241.039.04.096.056.195.122.054-.232.109-.431.132-.628.044-.339.072-.677.1-1.014.061-.722.131-1.448.171-2.178.033-.55-.172-.684-.648-.424-.507.279-1.014.557-1.486.883-.906.619-1.783 1.266-2.665 1.903-.098.078-.17.206-.257.312zm-5.917-.224c.025.035.057.072.082.106.221-.137.449-.255.649-.417 1.132-.898 2.253-1.807 3.392-2.701.739-.587 1.502-1.139 2.248-1.722.085-.067.181-.266.144-.329-.156-.264-.731-.308-.99-.1-1.555 1.22-3.098 2.468-4.683 3.667-.537.401-.707.917-.842 1.496zm8.844-3.738c-.024-.073-.032-.164-.081-.217a.917.917 0 00-1.251-.091l-3.867 3.216a1.184 1.184 0 00-.236.227c-.052.065-.064.163-.092.247.084.027.194.105.262.078.233-.092.468-.207.679-.341 1.448-.978 2.883-1.962 4.322-2.936.079-.054.159-.108.264-.183zm.513 8.618c-1.571 1.021-3.051 1.978-4.53 2.936.548.048 1.128-.12 1.659-.453.265-.166.505-.2.796-.061.112.055.353.038.421-.045.61-.712 1.219-1.424 1.654-2.377zm-3.273.422l-.021-.136c-.199-.02-.405-.099-.591-.059-.863.193-1.502.789-2.213 1.26-.09.057-.001.365.003.558.141-.029.3-.025.415-.087.711-.432 1.421-.879 2.121-1.323.099-.061.191-.142.286-.213zm-4.889-10.56c.048.02.099.05.146.07.462-.393.934-.774 1.385-1.18.05-.042-.004-.32-.072-.348a9.47 9.47 0 00-1.136-.408c-.064-.019-.245.103-.252.172-.039.563-.048 1.132-.071 1.694zm9.286 6.94c-.27.196-.46.354-.671.488-.384.235-.684.498-.541 1.011a.4.4 0 01-.037.287c-.219.424.054.642.337.857.337-.311.909-1.905.912-2.643zm-11.617 1.033c-.158.506-.051.646.451.58.108-.01.233-.037.311-.107.41-.367.82-.734 1.196-1.132.072-.073.024-.292-.026-.416-.015-.039-.244-.048-.337 0-.405.211-.8.434-1.183.685-.161.091-.281.255-.412.39zm1.765 2.828c.632.442.691.435 1.223-.009.243-.207.512-.38.769-.565.201-.146.405-.282.592-.434.053-.049.069-.138.101-.211-.081-.035-.164-.101-.247-.096a.713.713 0 00-.311.106c-.62.335-1.233.672-1.847 1.009-.09.042-.162.115-.28.2zm1.133-2.232c-.04-.073-.087-.148-.128-.221-.091.081-.168.183-.274.242-.389.209-.792.397-1.174.609-.138.077-.243.207-.367.306.182.061.368.148.561.165.1.011.227-.079.319-.159.294-.233.586-.476.873-.728.073-.057.125-.138.19-.214zm-.866-6.883c.033.054.065.107.101.154.186-.112.374-.231.553-.347l-.094-.151c-.186.113-.371.225-.56.344z" fill="#E8E8E8"/><path d="M301.862 178.198c-.23-.113-.464-.22-.689-.346-.449-.254-.599-.658-.42-1.067.173-.411.575-.598 1.071-.468a32.34 32.34 0 011.617.476c.252.082.408.037.544-.199.249-.458.525-.905.795-1.354.209-.349.573-.52.932-.464.367.06.644.304.581.666a4.453 4.453 0 01-.402 1.298c-.431.834-.447.835.415 1.206.155.066.317.134.469.206.522.236.736.731.531 1.216-.199.472-.754.713-1.259.532a10.396 10.396 0 01-.982-.406c-.308-.138-.502-.061-.654.231-.198.377-.409.748-.644 1.101-.318.485-.685.647-1.065.527-.336-.11-.53-.343-.479-.678.072-.438.211-.863.334-1.288.039-.126.102-.25.168-.365.154-.276.068-.463-.209-.58l-.642-.271-.012.027z" fill="#E8E8E8"/></svg>
