<svg width="351" height="505" viewBox="0 0 351 505" fill="none" xmlns="http://www.w3.org/2000/svg">
<path d="M39.3702 27.1597C39.2992 26.8999 39.0732 26.6626 38.8809 26.4322C38.6288 26.1282 38.3587 25.8386 38.0732 25.5748C35.5759 23.1893 33.0683 20.8054 30.5607 18.4215C29.2186 17.1484 27.8636 15.8655 26.4958 14.6196C25.7898 13.9705 25.03 13.4115 24.3394 12.7367C24.046 12.4387 23.7803 11.984 23.6983 11.5849C23.4075 10.1944 23.1994 8.79194 22.9499 7.39544C22.8756 6.98346 23.0165 6.71639 23.357 6.57301C23.504 6.51643 23.6407 6.46135 23.7877 6.40477C24.9821 5.93778 25.5562 4.91494 25.2911 3.49722C25.0793 2.4006 24.5606 1.45423 23.2996 1.49638C22.8862 1.50943 22.4547 1.53685 22.0571 1.61806C20.9726 1.82249 19.8987 2.07236 18.8246 2.27529C17.9054 2.45572 16.986 2.5892 16.0721 2.79235C15.2279 2.97365 14.3969 3.21174 13.5605 3.42711C13.5579 3.41575 13.5553 3.40439 13.5526 3.39303C13.0981 3.45902 12.6486 3.5008 12.202 3.60087C11.745 3.70245 11.2934 3.82675 10.8599 3.98362C10.3155 4.16836 9.93988 4.52823 9.9535 5.23087C9.96998 6.54375 10.8437 7.6852 12.0673 7.94206C12.5277 8.03962 13.0009 8.10009 13.4638 8.16206C13.7379 8.19273 13.9195 8.33078 13.9803 8.63902C14.3076 10.0947 14.6582 11.5587 14.9751 13.0159C15.1336 13.7444 15.1861 14.4766 14.9826 15.1638C14.5505 16.7063 14.126 18.2358 13.3675 19.6143C12.8448 20.5827 12.4362 21.6284 12.025 22.6629C11.3149 24.4336 10.6566 26.2437 9.93608 28.0159C9.26922 29.6511 8.95425 31.3762 8.93447 33.2228C8.92567 34.6568 9.40438 35.8908 10.3014 37.0406C10.9722 37.9062 11.7781 38.3881 12.7551 38.4106C14.6755 38.4489 16.5617 38.3864 18.3522 37.7272C19.6008 37.2641 20.9488 37.0449 22.2524 36.7264C24.5189 36.1859 26.7751 35.647 29.0469 35.1292C30.4874 34.8027 31.9359 34.5102 33.3922 34.2517C34.0481 34.133 34.7299 34.034 35.4123 34.0759C36.9581 34.1568 38.1831 33.5914 39.1963 32.5283C39.7106 31.9839 40.2762 31.3381 40.174 30.4839C40.037 29.3881 39.67 28.2671 39.3702 27.1597ZM14.8487 21.9006C15.312 20.9525 15.778 20.0159 16.2776 19.0861C16.3596 18.9332 16.5736 18.8434 16.7543 18.7937C17.033 18.7063 17.1383 18.5618 17.1238 18.2234C17.104 17.8622 17.1722 17.5117 17.1963 17.1559C17.1985 17.0734 17.1981 16.9795 17.1693 16.9015C16.9238 16.3499 17.1315 16.0027 17.4763 15.6943C17.6539 15.5393 17.8342 15.3957 17.9729 15.2112C18.2091 14.895 18.1382 14.6352 17.783 14.3932C17.7208 14.3553 17.6586 14.3173 17.6067 14.2779C17.3942 14.1443 17.0864 14.1068 17.0744 13.7328C17.0726 13.3572 17.1823 13.0477 17.4838 12.8747C17.654 12.7796 17.8293 12.7071 17.9865 12.6021C18.2751 12.4193 18.3434 12.1158 18.1867 11.7627C18.0327 11.4211 17.7685 11.295 17.4432 11.3657C17.3528 11.3906 17.2728 11.4139 17.1799 11.4274C16.9475 11.4847 16.7277 11.4579 16.6049 11.1586C16.4847 10.8707 16.5328 10.6641 16.7776 10.5229C17.0715 10.3628 17.3654 10.2027 17.6463 10.0327C17.9272 9.86274 18.1483 9.61925 17.9474 9.21391C17.7621 8.82979 17.4469 8.85206 17.132 8.92128C16.928 8.96263 16.7267 9.01535 16.52 9.04535C16.2928 9.07835 16.1655 8.94416 16.1385 8.68972C16.0895 8.15664 16.3691 7.70502 16.8495 7.65875C17.2887 7.61848 17.7333 7.64787 18.1777 7.63032C18.3793 7.62454 18.5936 7.58168 18.7793 7.50774C18.965 7.4338 19.1376 7.30306 19.3051 7.19654C19.9647 6.77195 20.0326 6.37455 19.5354 5.61294C19.4339 5.45153 19.18 5.32398 18.9938 5.30404C18.7121 5.28623 18.4178 5.35245 18.1441 5.41567C17.7465 5.49688 17.3777 5.65612 16.9799 5.6904C15.6728 5.80971 14.4318 6.25999 13.0774 6.22176C12.5941 6.20973 12.255 6.08282 11.8521 5.58936C12.0842 5.4852 12.2594 5.36582 12.4607 5.3131C12.8273 5.23639 13.2045 5.20511 13.5737 5.13976C15.149 4.88756 16.7216 4.624 18.2969 4.3718C18.4002 4.3568 18.5008 4.33044 18.6015 4.30408C19.1305 4.14506 19.6548 4.05721 20.244 4.0656C20.9729 4.07722 21.6826 3.86848 22.3901 3.74227C22.5657 3.71678 22.736 3.66856 23.0303 3.60234C22.9486 3.80211 22.9336 3.92171 22.8719 3.97765C22.3677 4.47363 21.8687 4.99232 21.336 5.45722C20.9988 5.75278 20.8144 6.10838 20.9098 6.61124C21.2834 8.58863 21.6674 10.5645 22.0514 12.5404C22.078 12.7009 22.1355 12.857 22.1595 13.0062C22.2958 13.9611 22.669 14.7407 23.5295 15.2734C23.8664 15.4829 24.1343 15.855 24.3944 16.193C25.0183 16.9949 25.763 17.6267 26.6307 18.0526C26.825 18.1536 27.0422 18.169 27.2519 18.2443C27.4745 18.3294 27.7282 18.41 27.9124 18.5594C28.3067 18.878 28.6495 19.2509 29.0285 19.5952C29.2439 19.7871 29.2755 19.9234 29.0463 20.0859C28.6238 20.3821 28.217 20.6995 27.8075 21.0056C27.4908 21.2512 27.1086 21.3067 26.7305 21.1502C25.1821 20.506 23.8477 20.8759 22.6004 21.6207C22.103 21.916 21.6368 22.2538 21.1497 22.5476C19.9644 23.2834 18.6546 23.3914 17.2438 22.8799C16.5086 22.6108 15.7883 22.2222 15.0157 22.2521C14.7858 22.2738 14.7694 22.0648 14.8487 21.9006ZM29.2089 23.3622C29.2122 23.5144 29.1948 23.6695 29.1878 23.8232C29.1419 24.4993 28.975 24.7466 28.5357 24.74C28.0214 24.7324 27.6451 24.3995 27.4923 23.7876C27.3659 23.2892 27.4248 23.1749 27.8767 23.0976C28.1737 23.0427 28.455 22.9667 28.752 22.9118C29.0412 22.8698 29.2074 23.0336 29.2089 23.3622ZM28.7757 31.8452C28.5981 32.0002 28.2036 31.6347 28.1192 31.2711C27.9926 30.7258 28.2715 30.1334 28.7306 29.9493C29.0841 29.8158 29.5276 30.1624 29.5192 30.5864C29.5065 31.1754 29.1515 31.5323 28.7757 31.8452ZM38.1169 29.9487C38.118 30.7354 37.6835 31.2095 37.036 31.4562C36.9766 31.4766 36.9173 31.4969 36.845 31.5074C34.8105 31.9437 32.7788 32.3914 30.7417 32.8163C30.4784 32.878 30.2046 32.8943 29.9307 32.9106C29.8894 32.9166 29.8349 32.8658 29.7184 32.824C29.9107 32.5025 30.1342 32.2234 30.2593 31.8882C30.3945 31.5045 30.5501 31.0709 30.4991 30.6672C30.3432 29.3981 29.3814 28.7509 28.2873 29.0977C27.3222 29.4022 26.7569 30.0949 26.8435 30.9279C26.9087 31.623 27.116 32.2858 27.5633 32.8785C27.636 32.9619 27.6831 33.0725 27.7846 33.2339C27.4776 33.3372 27.2015 33.436 26.9202 33.5121C25.8852 33.7915 24.8502 34.071 23.8099 34.3277C23.5156 34.3939 23.1793 34.3253 22.8823 34.3802C22.4151 34.4833 21.9687 34.6303 21.5119 34.7788C19.476 35.4384 17.4504 36.0966 15.4144 36.7562C14.808 36.95 14.1693 36.8666 13.5301 36.6893C13.2921 36.6299 13.2086 36.4541 13.2125 36.1952C13.2288 35.2533 12.7074 34.8475 11.9415 35.1819C11.8641 35.2166 11.7841 35.24 11.7041 35.2633C11.6729 35.2209 11.6494 35.1656 11.6181 35.1231C11.819 34.9765 12.007 34.8201 12.2131 34.6962C12.6305 34.4242 12.8022 34.1057 12.6714 33.7724C12.525 33.4178 12.0927 33.2575 11.6074 33.3749C11.517 33.3998 11.4293 33.436 11.3441 33.4366C11.1838 33.4364 10.8893 33.4557 10.8684 33.4117C10.795 33.1875 10.7447 32.9247 10.7955 32.7294C10.8335 32.5713 11.019 32.4504 11.1684 32.3582C11.7149 32.044 12.2665 31.7525 12.8129 31.4383C13.0371 31.3001 13.2534 31.1278 13.4594 30.9569C13.691 30.7589 13.7027 30.4871 13.5488 30.1924C13.4002 29.9203 13.1747 29.7769 12.9011 29.8402C12.5294 29.9411 12.163 30.0647 11.807 30.1869C11.6779 30.2291 11.5672 30.3039 11.4434 30.3689C11.2704 29.8538 11.3957 29.5655 11.8212 29.3745C12.5589 29.056 13.3095 28.7474 14.0471 28.4289C14.2225 28.3565 14.3926 28.2613 14.5627 28.1662C14.8309 28.0333 14.9331 27.7836 14.8179 27.4715C14.7001 27.148 14.4537 26.9607 14.1388 27.0299C13.6198 27.1405 13.1191 27.2836 12.6055 27.4169C12.4841 27.4463 12.3525 27.4771 12.2285 27.4951C12.1947 27.4413 12.1608 27.3875 12.127 27.3337C12.3457 27.1258 12.5409 26.8626 12.796 26.7199C13.5255 26.3204 14.2785 25.9762 15.0393 25.6191C15.5575 25.3677 16.0914 25.1375 15.8857 24.2514C16.0927 24.3153 16.2272 24.3427 16.3593 24.4058C17.4836 24.9706 18.5854 25.163 19.7554 25.0048C21.0183 24.8332 22.1146 24.4039 23.1191 23.6709C23.629 23.2916 24.2405 23.0736 24.8207 22.8132C24.9651 22.7453 25.146 22.7425 25.3166 22.7412C26.0944 22.734 26.2061 22.8469 26.365 23.6694C26.4364 24.0231 26.5312 24.3851 26.6826 24.7154C27.0716 25.5632 27.8207 26.0299 28.6449 25.9924C29.6577 25.9393 30.1857 25.5456 30.2947 24.5433C30.3718 23.9097 30.2549 23.222 30.2415 22.5664C30.2351 22.3089 30.1975 22.0091 30.287 21.7964C30.4991 21.2841 30.8064 21.2278 31.2424 21.6342C32.3353 22.6616 33.3997 23.7049 34.4745 24.7467C35.3831 25.6248 36.3175 26.4756 37.1747 27.408C37.8345 28.1343 38.1178 29.0326 38.1169 29.9487Z" fill="#FF719C"/>
<path d="M13.0982 31.5489C12.6604 31.6828 12.4246 31.9983 12.3779 32.4857C12.3533 32.7472 12.365 33.0269 12.4049 33.2907C12.6128 34.7376 13.6694 35.6627 14.8626 35.4777C15.6254 35.3669 15.9976 34.9964 16.0718 34.3057C16.2643 32.4725 14.7283 31.0426 13.0982 31.5489ZM14.5548 34.1977C14.2017 34.2373 13.8988 33.9882 13.8246 33.5769C13.7507 33.2125 13.8939 32.9573 14.1749 32.9282C14.5074 32.8917 14.8259 33.1619 14.9077 33.5603C14.992 33.9232 14.8564 34.1657 14.5548 34.1977Z" fill="#FF719C"/>
<path d="M17.4912 26.9566C16.3869 27.5616 16.3707 29.6004 17.4792 30.4811C18.1304 30.9952 18.8131 31.095 19.4811 30.8108C19.995 30.5957 20.2245 30.1176 20.2217 29.5095C20.2206 29.2755 20.1628 29.0265 20.1438 28.8069C20.0757 28.5593 20.0231 28.3328 19.9397 28.1108C19.5749 27.1807 18.2358 26.5441 17.4912 26.9566ZM19.1784 28.8183C19.2548 29.1934 19.3132 29.5828 18.9301 29.6736C18.6883 29.7321 18.3792 29.6833 18.1418 29.5773C18.0722 29.5523 18.0961 29.151 18.0847 28.9185C18.0792 28.8491 18.1046 28.7752 18.1224 28.7141C18.1881 28.4471 18.2019 28.094 18.5883 28.1549C18.931 28.2105 19.1278 28.4628 19.1784 28.8183Z" fill="#FF719C"/>
<path d="M20.1751 20.0497C20.8895 20.3682 21.9023 19.8106 22.0564 19.0492C22.198 18.3718 21.9809 17.7581 21.5031 17.2175C21.0539 16.7079 20.5292 16.655 19.977 16.8056C18.8277 16.8669 18.7985 17.8448 19.1853 18.8209C19.3994 19.3294 19.6755 19.8289 20.1751 20.0497ZM20.5149 18.0648C20.657 18.0793 20.7998 18.2346 21.0175 18.3907C20.8892 18.5735 20.7738 18.7662 20.7608 18.7564C20.5846 18.6412 20.4342 18.4988 20.2734 18.3579C20.3582 18.2635 20.4373 18.0526 20.5149 18.0648Z" fill="#FF719C"/>
<path d="M335.659 495.411C334.303 495.918 332.97 496.494 331.585 496.915C328.049 497.984 324.487 498.996 320.932 500.024C320.149 500.249 319.369 500.463 318.583 500.679C318.102 500.81 317.674 500.999 317.419 501.483C317.242 501.821 316.909 501.79 316.542 501.704C316.033 501.584 315.521 501.474 315.021 501.467C314.214 501.449 313.468 501.174 312.741 500.68C311.306 499.693 310.257 498.309 309.42 496.779C307.782 493.781 306.513 490.665 305.886 487.387C305.701 486.409 305.678 485.418 305.615 484.432C305.58 483.941 305.771 483.54 306.104 483.289C306.661 482.877 307.231 482.46 307.861 482.156C310.928 480.641 314.227 479.68 317.532 478.696C319.841 478.008 322.057 477.092 324.3 476.254C324.985 475.998 325.603 475.611 326.288 475.355C328.076 474.706 329.89 474.096 331.689 473.452C332.32 473.226 332.9 473.524 333.413 473.992C334.453 474.942 335.482 475.925 336.028 477.313C336.133 477.584 336.274 477.619 336.476 477.524C336.753 477.391 337.03 477.258 337.319 477.15C337.831 476.959 338.321 477.077 338.794 477.55C339.711 478.469 340.673 479.322 341.372 480.467C342.166 481.771 342.643 483.117 342.592 484.562C342.571 485.249 342.532 485.933 342.443 486.597C342.4 486.934 342.248 487.252 342.099 487.541C342.035 487.662 341.874 487.751 341.736 487.783C341.209 487.903 340.663 487.981 340.143 488.117C340.039 488.146 339.936 488.349 339.938 488.485C339.97 489.608 340.012 490.737 340.07 491.861C340.083 492.04 340.154 492.237 340.239 492.408C340.599 493.137 340.458 493.685 339.791 493.944C338.425 494.465 337.051 494.968 335.681 495.481C335.681 495.461 335.67 495.436 335.659 495.411ZM334.854 493.558C334.843 493.533 334.831 493.508 334.824 493.492C335.797 493.128 336.767 492.756 337.744 492.4C338.123 492.268 338.264 492.002 338.212 491.546C338.103 490.645 338.03 489.751 337.947 488.85C337.764 486.881 337.435 484.928 336.684 483.006C335.657 480.411 334.22 478.105 332.229 476.142C331.925 475.839 331.66 475.754 331.303 475.877C330.415 476.19 329.51 476.441 328.615 476.736C328.211 476.868 327.818 477.025 327.433 477.198C326.954 477.406 326.501 477.672 326.014 477.864C324.608 478.409 323.181 478.923 321.771 479.46C321.403 479.597 321.39 479.719 321.695 480.08C322.228 480.706 322.775 481.307 323.301 481.935C325.278 484.281 326.686 486.918 327.464 489.839C327.923 491.559 328.06 493.294 328.15 495.016C328.174 495.521 328.321 495.641 328.732 495.507C330.784 494.847 332.819 494.202 334.854 493.558ZM309.61 493.35C309.881 493.88 310.193 494.559 310.559 495.208C311.248 496.444 311.98 497.665 313.06 498.591C313.415 498.895 313.83 499.127 314.238 499.324C314.592 499.493 314.807 499.315 314.813 498.915C314.82 498.612 314.806 498.317 314.787 498.013C314.746 497.281 314.77 496.564 314.413 495.824C313.108 493.081 311.674 490.405 309.88 487.922C309.213 486.997 308.475 486.138 307.747 485.265C307.637 485.132 307.416 485.108 307.248 485.034C307.21 485.194 307.129 485.351 307.146 485.519C307.164 485.823 307.233 486.127 307.287 486.437C307.696 488.777 308.661 490.988 309.61 493.35ZM317.803 488.774C317.807 488.782 317.807 488.782 317.811 488.79C317.501 488.906 317.191 489.022 316.874 489.141C316.838 489.154 316.802 489.167 316.765 489.181C316.376 489.346 316.171 489.733 316.314 490.184C316.427 490.549 316.584 490.937 316.812 491.24C316.978 491.459 317.329 491.697 317.553 491.691C318.1 491.671 318.645 491.574 319.143 491.407C320.045 491.109 320.92 490.752 321.785 490.39C322.217 490.209 322.646 490 323.023 489.733C323.156 489.635 323.253 489.327 323.2 489.133C323.029 488.431 322.555 487.88 321.999 487.486C321.568 487.182 321.189 487.518 320.806 487.641C320.658 487.687 320.525 487.766 320.381 487.82C319.527 488.129 318.661 488.453 317.803 488.774ZM340.233 485.949C340.635 485.925 340.735 485.586 340.697 485.106C340.658 484.625 340.696 484.145 340.603 483.675C340.484 483.089 340.378 482.44 340.079 481.941C339.525 481.042 338.834 480.232 338.186 479.388C337.899 479.01 337.596 479.104 337.312 479.259C337.01 479.43 337.201 479.688 337.309 479.929C337.373 480.07 337.429 480.214 337.51 480.339C338.511 481.954 338.985 483.708 339.423 485.475C339.572 486.108 339.627 486.156 340.233 485.949ZM318.637 487.045C318.684 487.057 318.731 487.068 318.779 487.08C318.831 486.895 318.897 486.725 318.92 486.532C319.06 485.49 319.17 484.44 319.339 483.406C319.396 483.084 319.577 482.774 319.784 482.541C320.07 482.221 320.485 482.376 320.646 482.849C320.744 483.143 320.795 483.463 320.781 483.75C320.757 484.487 320.675 485.226 320.645 485.965C320.639 486.103 320.755 486.38 320.824 486.402C320.991 486.437 321.171 486.389 321.315 486.316C321.398 486.275 321.425 486.11 321.46 486C321.55 485.694 321.615 485.388 321.71 485.091C321.912 484.434 321.948 484.42 322.647 484.498C322.709 484.504 322.763 484.474 322.89 484.456C322.727 484.206 322.594 483.984 322.44 483.79C322.178 483.451 321.906 483.126 321.634 482.8C321.054 482.105 320.477 481.399 319.874 480.712C319.423 480.192 319.162 480.231 319.054 480.835C318.938 481.479 318.823 482.124 318.773 482.783C318.673 484.043 318.616 485.307 318.548 486.564C318.546 486.711 318.606 486.882 318.637 487.045ZM314.294 491.444C314.342 491.455 314.396 491.464 314.443 491.475C314.479 491.181 314.537 490.897 314.537 490.596C314.557 488.91 314.558 487.221 314.584 485.533C314.596 484.432 314.655 483.343 314.674 482.239C314.677 482.112 314.572 481.86 314.492 481.832C314.154 481.716 313.713 482.123 313.711 482.512C313.674 484.816 313.67 487.136 313.593 489.445C313.562 490.223 313.888 490.819 314.294 491.444ZM317.269 481.211C317.189 481.163 317.105 481.088 317.025 481.079C316.503 481.002 316.062 481.41 316.069 481.97C316.089 483.932 316.113 485.902 316.134 487.865C316.132 487.992 316.133 488.127 316.164 488.251C316.183 488.351 316.26 488.448 316.312 488.545C316.395 488.504 316.54 488.489 316.564 488.412C316.648 488.148 316.713 487.861 316.746 487.578C316.917 485.573 317.074 483.574 317.241 481.58C317.251 481.47 317.26 481.36 317.269 481.211ZM325.069 488.551C324.849 490.69 324.638 492.7 324.427 494.71C324.853 494.327 325.114 493.725 325.2 493.014C325.242 492.659 325.381 492.442 325.706 492.34C325.832 492.302 325.985 492.1 325.962 491.972C325.774 490.859 325.587 489.745 325.069 488.551ZM323.138 491.476C323.098 491.442 323.047 491.403 323.007 491.369C322.849 491.506 322.636 491.595 322.541 491.776C322.102 492.62 322.169 493.652 322.076 494.628C322.063 494.75 322.391 494.957 322.56 495.127C322.634 494.992 322.749 494.872 322.776 494.726C322.902 493.786 323.014 492.832 323.122 491.889C323.138 491.757 323.133 491.613 323.138 491.476ZM310.593 485.793C310.643 485.774 310.705 485.761 310.755 485.742C310.739 485.03 310.742 484.32 310.708 483.605C310.707 483.528 310.429 483.322 310.357 483.349C309.956 483.488 309.582 483.667 309.208 483.865C309.147 483.898 309.124 484.149 309.179 484.216C309.639 484.752 310.123 485.27 310.593 485.793ZM323.097 484.806C323.076 485.192 323.08 485.482 323.047 485.765C322.981 486.275 322.997 486.745 323.541 487.094C323.632 487.148 323.721 487.27 323.762 487.381C323.975 487.932 324.355 487.916 324.739 487.889C324.707 487.348 323.731 485.471 323.097 484.806ZM315.841 494.766C316.167 495.343 316.363 495.386 316.658 494.936C316.726 494.843 316.79 494.722 316.785 494.598C316.755 493.949 316.725 493.3 316.645 492.651C316.633 492.53 316.41 492.37 316.268 492.297C316.224 492.275 316.056 492.445 316.032 492.56C315.929 493.064 315.845 493.571 315.793 494.095C315.76 494.302 315.817 494.542 315.841 494.766ZM319.521 495.933C320.345 495.838 320.381 495.786 320.371 494.975C320.363 494.599 320.402 494.235 320.422 493.869C320.437 493.582 320.463 493.301 320.463 493.019C320.458 492.933 320.392 492.842 320.351 492.75C320.264 492.783 320.148 492.787 320.095 492.856C320.024 492.941 319.989 493.07 319.969 493.194C319.823 493.976 319.684 494.756 319.545 495.536C319.517 495.643 319.529 495.765 319.521 495.933ZM318.388 493.048C318.297 493.014 318.199 492.982 318.108 492.948C318.113 493.092 318.148 493.244 318.124 493.379C318.032 493.869 317.911 494.351 317.827 494.839C317.796 495.015 317.835 495.214 317.834 495.399C318.014 495.312 318.219 495.245 318.37 495.111C318.449 495.043 318.461 494.864 318.455 494.72C318.461 494.282 318.456 493.837 318.439 493.387C318.442 493.28 318.408 493.166 318.388 493.048ZM311.838 487.539C311.907 487.562 311.977 487.585 312.042 487.599C312.075 487.354 312.105 487.1 312.131 486.858C312.062 486.835 312.003 486.818 311.934 486.795C311.901 487.041 311.868 487.286 311.838 487.539Z" fill="#009564"/>
<path d="M330.97 486.465C330.716 486.54 330.466 486.622 330.205 486.681C329.683 486.798 329.238 486.561 329.016 486.075C328.787 485.592 328.905 485.13 329.355 484.872C329.85 484.588 330.355 484.328 330.865 484.076C331.107 483.959 331.176 483.804 331.07 483.499C330.854 482.918 330.666 482.326 330.471 481.737C330.32 481.281 330.424 480.862 330.718 480.642C331.02 480.42 331.416 480.423 331.678 480.783C332.009 481.219 332.299 481.708 332.499 482.202C332.909 483.242 332.898 483.255 333.803 482.932C333.965 482.873 334.134 482.811 334.299 482.76C334.856 482.574 335.421 482.841 335.69 483.412C335.952 483.967 335.776 484.589 335.277 484.81C334.95 484.958 334.605 485.084 334.26 485.192C333.932 485.303 333.864 485.514 334.007 485.88C334.19 486.353 334.359 486.83 334.496 487.31C334.688 487.965 334.573 488.379 334.211 488.559C333.888 488.715 333.558 488.659 333.31 488.331C332.99 487.9 332.726 487.43 332.451 486.973C332.371 486.834 332.309 486.68 332.258 486.532C332.13 486.179 331.913 486.082 331.624 486.188C331.399 486.271 331.181 486.351 330.955 486.433C330.966 486.457 330.97 486.465 330.97 486.465Z" fill="#009564"/>
</svg>
