<svg width="1294" height="465" viewBox="0 0 1294 465" fill="none" xmlns="http://www.w3.org/2000/svg">
<path d="M357.417 428.544C356.713 429.506 356.179 430.753 355.76 431.852C355.521 432.479 354.848 433.799 354.848 433.799C354.848 433.799 354.236 435.298 353.728 436.2C353.31 436.94 352.955 437.282 352.541 438.025C351.943 439.097 351.718 439.759 351.286 440.908C350.971 441.747 350.902 442.256 350.56 443.084C350.194 443.97 349.899 444.425 349.458 445.276C349.05 446.06 348.81 446.493 348.391 447.272C348.181 447.663 348.065 447.951 347.852 448.272C347.694 448.51 347.451 448.807 347.345 449.085C347.116 449.683 344.71 449.027 344.235 448.782C343.276 448.289 342.261 448.003 341.296 447.539C340.791 447.297 340.24 447.175 339.737 446.917C339.408 446.747 339.051 446.634 338.712 446.484C338.328 446.314 338.106 446.07 337.685 445.861C337.027 445.535 336.472 445.46 335.903 445.258C335.31 445.048 334.88 444.697 334.204 444.379C333.073 443.848 332.161 443.404 331.228 443.206C330.785 443.112 329.864 442.344 329.505 442.459" stroke="#E1E8E5" stroke-width="2" stroke-linecap="round" stroke-linejoin="round"/>
<path d="M357.129 428.754C356.022 429.109 355.28 430.056 354.181 430.408C353.125 430.747 352.07 431.085 351.014 431.424C349.928 431.772 348.969 432.247 347.955 432.753C347.479 432.991 346.955 433.099 346.493 433.373C345.898 433.726 345.439 434.039 344.767 434.255C343.136 434.778 341.546 435.541 340.112 436.483C339.312 437.009 338.413 437.384 337.615 437.908C336.975 438.328 336.199 438.497 335.561 438.954C334.523 439.697 333.145 440.021 332.164 440.805C331.788 441.105 331.164 441.27 330.727 441.482C330.36 441.661 330.129 441.904 329.723 442.034" stroke="#E1E8E5" stroke-width="2" stroke-linecap="round" stroke-linejoin="round"/>
<path d="M357.275 428.471C356.205 428.814 355.063 429.062 354.027 429.395C352.566 429.863 351.04 429.998 349.579 430.467C346.235 431.539 342.852 432.506 339.492 433.584C336.978 434.391 334.464 435.197 331.95 436.003C329.206 436.883 326.595 437.957 323.853 438.837" stroke="#E1E8E5" stroke-width="2" stroke-linecap="round" stroke-linejoin="round"/>
<path d="M356.954 428.574C354.656 429.311 352.493 429.28 350.117 429.179C349.374 429.147 348.244 429.359 347.525 429.59C346.714 429.85 345.775 429.679 344.959 429.94C342.911 430.597 340.781 430.808 338.739 431.463C337.257 431.938 335.654 431.919 334.106 432.122C331.477 432.467 328.742 432.693 326.181 433.364C325.483 433.547 324.881 433.46 324.055 433.573C323.371 433.667 322.312 433.87 322.312 433.87C322.312 433.87 321.386 433.987 321.001 434.08L317.354 434.6C316.932 434.638 316.621 434.766 316.277 434.742C315.618 434.696 314.956 435.017 314.311 435.038C313.752 435.056 313.141 435.015 312.582 435.008" stroke="#E1E8E5" stroke-width="2" stroke-linecap="round" stroke-linejoin="round"/>
<path d="M323.566 439.047C322.625 438.989 320.492 437.958 320.492 437.958C320.492 437.958 319.368 437.514 318.854 437.25C318.509 437.073 317.973 436.862 317.607 436.823C317.165 436.775 316.316 436.521 316.316 436.521C316.316 436.521 315.35 436.338 315.177 436.184C314.646 435.71 313.349 435.337 312.685 435.33" stroke="#E1E8E5" stroke-width="2" stroke-linecap="round" stroke-linejoin="round"/>
<path d="M328.648 455.258C329.618 454.539 330.343 453.562 331.22 452.779C331.947 452.131 332.63 451.142 333.488 450.641C333.882 450.41 334.112 449.83 334.573 449.583C335.035 449.337 335.447 448.9 335.832 448.556C336.254 448.179 336.875 447.909 337.187 447.439C337.38 447.149 338.057 446.755 338.106 446.435" stroke="#E1E8E5" stroke-width="2" stroke-linecap="round" stroke-linejoin="round"/>
<path d="M328.541 455.293C328.364 453.799 327.699 452.299 327.239 450.866C326.811 449.531 326.492 448.17 326.059 446.82C325.289 444.419 324.855 441.96 324.094 439.586" stroke="#E1E8E5" stroke-width="2" stroke-linecap="round" stroke-linejoin="round"/>
<path d="M329.505 442.459C329.353 443.443 329.094 444.465 328.961 445.469C328.812 446.586 328.922 447.74 328.804 448.828C328.756 449.265 328.782 449.681 328.78 450.227C328.778 450.789 328.795 451.666 328.795 451.666L329.051 454.682" stroke="#E1E8E5" stroke-width="2" stroke-linecap="round" stroke-linejoin="round"/>
<path d="M336.542 447.607C335.986 447.582 335.769 447.173 335.294 446.999C335.118 446.935 334.837 446.832 334.706 446.698" stroke="#E1E8E5" stroke-width="2" stroke-linecap="round" stroke-linejoin="round"/>
<path d="M334.806 448.908C334.498 448.547 334.005 448.361 333.617 448.092C333.466 447.987 333.331 447.868 333.166 447.783C333.073 447.736 332.919 447.714 332.843 447.642C332.603 447.414 332.319 447.243 332.098 447.016" stroke="#E1E8E5" stroke-width="2" stroke-linecap="round" stroke-linejoin="round"/>
<path d="M333.279 450.057C333.025 449.731 332.503 449.562 332.156 449.325C332.072 449.267 331.724 448.977 331.715 449.034" stroke="#E1E8E5" stroke-width="2" stroke-linecap="round" stroke-linejoin="round"/>
<path d="M331.975 451.383C331.894 451.299 331.188 450.605 331.112 450.753" stroke="#E1E8E5" stroke-width="2" stroke-linecap="round" stroke-linejoin="round"/>
<path d="M330.792 452.71C330.618 452.588 330.464 452.463 330.3 452.332" stroke="#E1E8E5" stroke-width="2" stroke-linecap="round" stroke-linejoin="round"/>
<path d="M624.976 28.5055C624.92 28.2442 624.679 28.0225 624.477 27.8044C624.212 27.5165 623.925 27.2454 623.616 27.0025C620.927 24.7981 618.225 22.5963 615.523 20.3945C614.076 19.219 612.616 18.0346 611.136 16.89C610.373 16.2929 609.537 15.7948 608.794 15.1695C608.48 14.8922 608.216 14.4498 608.162 14.0454C607.97 12.6372 607.876 11.2078 607.733 9.78906C607.69 9.37058 607.885 9.0793 608.303 8.89492C608.483 8.82081 608.65 8.74936 608.83 8.67525C610.29 8.06566 611.079 6.94645 610.92 5.50736C610.788 4.39493 610.279 3.47043 608.785 3.64742C608.296 3.70465 607.784 3.77865 607.305 3.90475C606.003 4.231 604.708 4.60316 603.418 4.92676C602.313 5.21069 601.213 5.44607 600.112 5.75296C599.096 6.02985 598.089 6.36414 597.078 6.67547C597.077 6.66399 597.075 6.65251 597.073 6.64103C596.529 6.7574 595.994 6.84817 595.456 6.99897C594.905 7.15241 594.359 7.32881 593.83 7.537C593.167 7.78575 592.685 8.19789 592.625 8.92357C592.502 10.2805 593.409 11.3693 594.826 11.5057C595.359 11.558 595.911 11.5705 596.451 11.5857C596.771 11.5884 596.971 11.7121 597.009 12.0246C597.238 13.4964 597.493 14.9744 597.709 16.4488C597.817 17.186 597.8 17.9382 597.485 18.6708C596.808 20.3127 596.141 21.9405 595.096 23.4472C594.374 24.5046 593.778 25.6301 593.18 26.744C592.15 28.6515 591.177 30.5944 590.134 32.5045C589.169 34.2673 588.61 36.0858 588.387 37.9988C588.221 39.4837 588.652 40.7101 589.587 41.8052C590.285 42.63 591.184 43.0434 592.335 42.9634C594.598 42.7999 596.832 42.5358 599.017 41.6642C600.541 41.0529 602.156 40.6835 603.73 40.216C606.464 39.417 609.186 38.6207 611.924 37.8446C613.66 37.3543 615.402 36.8984 617.149 36.477C617.937 36.2847 618.752 36.1102 619.553 36.0813C621.37 36.0015 622.877 35.2869 624.188 34.0796C624.855 33.4618 625.592 32.7337 625.564 31.8605C625.521 30.7411 625.21 29.6197 624.976 28.5055ZM596.597 25.6565C597.246 24.6265 597.898 23.6079 598.589 22.5928C598.702 22.426 598.964 22.3104 599.183 22.2398C599.522 22.1199 599.662 21.9592 599.681 21.6105C599.697 21.2389 599.815 20.869 599.882 20.4982C599.894 20.4126 599.904 20.3155 599.878 20.2378C599.648 19.693 599.931 19.3117 600.371 18.956C600.598 18.7769 600.826 18.6092 601.01 18.4036C601.323 18.0514 601.268 17.7901 600.875 17.5772C600.805 17.5445 600.736 17.5118 600.679 17.4765C600.442 17.3607 600.083 17.3544 600.11 16.9687C600.148 16.5802 600.311 16.2483 600.686 16.0374C600.897 15.921 601.112 15.8274 601.309 15.7021C601.669 15.4824 601.783 15.1611 601.636 14.8123C601.492 14.475 601.193 14.3725 600.802 14.4801C600.692 14.5154 600.595 14.548 600.484 14.5718C600.204 14.6556 599.947 14.6511 599.834 14.3545C599.724 14.0693 599.803 13.8503 600.107 13.6783C600.472 13.4815 600.836 13.2848 601.186 13.0792C601.536 12.8736 601.823 12.5982 601.63 12.2C601.453 11.8221 601.078 11.8785 600.699 11.9834C600.454 12.0478 600.21 12.1236 599.963 12.1765C599.691 12.2347 599.556 12.1093 599.551 11.8488C599.551 11.3024 599.93 10.8054 600.503 10.7067C601.025 10.6186 601.547 10.602 602.074 10.5368C602.312 10.5095 602.57 10.4425 602.797 10.3464C603.024 10.2502 603.242 10.0967 603.452 9.96871C604.276 9.45957 604.4 9.04113 603.895 8.30556C603.793 8.14927 603.507 8.04412 603.289 8.04317C602.959 8.05454 602.604 8.1542 602.274 8.24856C601.796 8.37466 601.343 8.57845 600.87 8.65599C599.314 8.91771 597.8 9.51493 596.205 9.61861C595.636 9.65728 595.249 9.56181 594.827 9.09377C595.112 8.96143 595.332 8.81936 595.576 8.74351C596.017 8.62535 596.465 8.55309 596.908 8.44641C598.795 8.01881 600.681 7.57974 602.568 7.15215C602.691 7.12571 602.813 7.08778 602.935 7.04986C603.576 6.82934 604.205 6.68299 604.9 6.62935C605.759 6.56429 606.619 6.27322 607.468 6.06778C607.678 6.02282 607.885 5.9549 608.239 5.85525C608.121 6.07063 608.09 6.19599 608.011 6.26041C607.362 6.82699 606.717 7.41653 606.038 7.95398C605.608 8.29551 605.351 8.683 605.41 9.1933C605.636 11.2001 605.875 13.2042 606.115 15.2084C606.129 15.3717 606.18 15.5271 606.192 15.6789C606.249 16.6527 606.605 17.42 607.563 17.8803C607.938 18.0614 608.214 18.4182 608.485 18.7405C609.134 19.5044 609.945 20.0793 610.923 20.4284C611.142 20.5123 611.396 20.5053 611.636 20.561C611.889 20.6255 612.18 20.6821 612.381 20.8173C612.812 21.1052 613.177 21.4549 613.587 21.7711C613.82 21.9469 613.843 22.0846 613.555 22.277C613.024 22.6282 612.509 22.9997 611.992 23.3598C611.592 23.6474 611.135 23.7453 610.705 23.6233C608.947 23.1204 607.332 23.6443 605.778 24.547C605.159 24.9053 604.572 25.3041 603.965 25.6597C602.486 26.5465 600.928 26.7968 599.318 26.4166C598.479 26.216 597.671 25.8899 596.756 26.0027C596.482 26.0494 596.485 25.8348 596.597 25.6565ZM613.391 25.6503C613.379 25.8074 613.341 25.9699 613.316 26.1297C613.189 26.8341 612.965 27.1078 612.447 27.1473C611.841 27.1939 611.433 26.8892 611.319 26.2721C611.223 25.7697 611.305 25.6452 611.847 25.5174C612.204 25.4292 612.544 25.3207 612.901 25.2326C613.247 25.1585 613.425 25.3104 613.391 25.6503ZM611.96 34.4748C611.734 34.654 611.308 34.3175 611.247 33.9502C611.157 33.3992 611.551 32.7567 612.113 32.5176C612.544 32.342 613.03 32.6538 612.975 33.0935C612.896 33.7044 612.438 34.1112 611.96 34.4748ZM623.194 31.5243C623.11 32.3383 622.545 32.8749 621.754 33.1986C621.682 33.226 621.61 33.2533 621.523 33.2718C619.074 33.9385 616.627 34.6166 614.176 35.2718C613.858 35.3635 613.533 35.4093 613.208 35.4552C613.159 35.4657 613.1 35.4189 612.967 35.388C613.229 35.0349 613.523 34.7225 613.707 34.3623C613.908 33.951 614.139 33.4858 614.123 33.0735C614.076 31.7766 613.011 31.2086 611.682 31.6832C610.509 32.1004 609.767 32.877 609.779 33.7299C609.78 34.4423 609.953 35.1063 610.417 35.6723C610.494 35.7509 610.537 35.8604 610.64 36.0167C610.266 36.1561 609.929 36.2875 609.589 36.396C608.337 36.7947 607.085 37.1933 605.829 37.569C605.474 37.6687 605.084 37.6332 604.728 37.7214C604.165 37.8775 603.622 38.0769 603.067 38.2789C600.592 39.1768 598.129 40.0722 595.654 40.9701C594.917 41.2347 594.172 41.216 593.437 41.1001C593.162 41.0638 593.083 40.8907 593.115 40.6224C593.237 39.646 592.665 39.2812 591.725 39.7082C591.629 39.7523 591.532 39.7849 591.435 39.8176C591.403 39.777 591.381 39.7222 591.349 39.6816C591.602 39.5086 591.841 39.3268 592.098 39.1768C592.62 38.8512 592.857 38.5035 592.739 38.1724C592.605 37.8209 592.112 37.7007 591.526 37.8736C591.417 37.9089 591.309 37.9556 591.208 37.9653C591.019 37.982 590.67 38.0331 590.65 37.9898C590.587 37.7656 590.556 37.4989 590.637 37.2915C590.699 37.1238 590.932 36.9791 591.118 36.8679C591.797 36.4849 592.48 36.1249 593.159 35.742C593.439 35.5752 593.713 35.374 593.975 35.1755C594.269 34.946 594.313 34.6635 594.163 34.3748C594.017 34.109 593.766 33.9844 593.437 34.0788C592.987 34.2226 592.541 34.3893 592.107 34.5534C591.95 34.6107 591.811 34.6998 591.658 34.7801C591.51 34.2654 591.689 33.9538 592.212 33.7112C593.118 33.3036 594.037 32.9048 594.942 32.4972C595.157 32.4037 595.369 32.2872 595.58 32.1708C595.911 32.0049 596.058 31.7357 595.956 31.4249C595.852 31.1026 595.582 30.9348 595.202 31.0397C594.578 31.209 593.971 31.4101 593.35 31.6024C593.204 31.6456 593.045 31.6915 592.897 31.7232C592.863 31.6711 592.828 31.619 592.794 31.5669C593.075 31.3286 593.334 31.0356 593.651 30.8609C594.555 30.3703 595.482 29.9345 596.418 29.4845C597.057 29.1695 597.713 28.8749 597.566 27.9796C597.803 28.0238 597.959 28.038 598.108 28.0893C599.374 28.5549 600.654 28.6374 602.053 28.35C603.562 28.0389 604.903 27.4787 606.168 26.6139C606.812 26.1674 607.557 25.8771 608.27 25.5463C608.448 25.4607 608.662 25.4387 608.863 25.4194C609.783 25.3296 609.902 25.4347 610.001 26.269C610.047 26.6275 610.119 26.9921 610.262 27.3179C610.63 28.1541 611.463 28.5578 612.44 28.4319C613.642 28.2698 614.308 27.8065 614.545 26.7578C614.705 26.0939 614.641 25.3947 614.697 24.7175C614.717 24.4518 614.705 24.1455 614.834 23.916C615.14 23.3634 615.509 23.2726 615.979 23.647C617.158 24.5947 618.302 25.5618 619.458 26.5262C620.435 27.3387 621.446 28.1204 622.357 28.9947C623.057 29.6765 623.294 30.5762 623.194 31.5243Z" fill="#E1E8E5"/>
<path d="M586.624 28.6294C586.222 28.7694 585.985 29.0355 585.904 29.4211C585.86 29.6279 585.848 29.8461 585.862 30.0495C585.929 31.1664 586.798 31.8066 587.879 31.5661C588.57 31.4183 588.933 31.0982 589.056 30.5512C589.378 29.0995 588.123 28.1023 586.624 28.6294ZM587.709 30.588C587.39 30.6473 587.14 30.4764 587.107 30.1601C587.071 29.8806 587.22 29.6691 587.474 29.6239C587.774 29.5686 588.036 29.7548 588.077 30.0604C588.122 30.338 587.981 30.5387 587.709 30.588Z" fill="#E1E8E5"/>
<path d="M590.277 24.807C589.237 25.371 589.055 26.9734 589.976 27.5759C590.518 27.9272 591.122 27.9507 591.744 27.6738C592.222 27.4636 592.467 27.0697 592.515 26.5923C592.533 26.4087 592.502 26.2177 592.503 26.0468C592.462 25.8578 592.434 25.6842 592.377 25.5166C592.127 24.8155 590.978 24.4233 590.277 24.807ZM591.636 26.1334C591.674 26.4218 591.694 26.723 591.343 26.825C591.122 26.8904 590.849 26.877 590.645 26.8128C590.584 26.7988 590.639 26.4817 590.648 26.3001C590.648 26.246 590.677 26.1859 590.698 26.1365C590.779 25.9215 590.82 25.6431 591.162 25.6599C591.465 25.676 591.62 25.8583 591.636 26.1334Z" fill="#E1E8E5"/>
<path d="M592.243 18.8944C592.854 19.0869 593.801 18.5699 594.001 17.9616C594.182 17.42 594.038 16.9568 593.657 16.5716C593.298 16.2084 592.835 16.2088 592.331 16.3705C591.302 16.5099 591.196 17.2777 591.461 18.0111C591.611 18.3922 591.816 18.7613 592.243 18.8944ZM592.707 17.3135C592.833 17.3136 592.947 17.4238 593.129 17.5286C592.999 17.682 592.881 17.842 592.87 17.8353C592.723 17.7592 592.6 17.6597 592.468 17.5622C592.552 17.4815 592.639 17.3101 592.707 17.3135Z" fill="#E1E8E5"/>
<path d="M1293.92 442.509C1294.18 444.414 1293.84 446.228 1292.36 447.767C1291.38 448.772 1290.25 449.367 1288.81 449.275C1287.92 449.23 1287 449.169 1286.12 449.23C1281.94 449.489 1279.2 445.694 1279.75 441.945C1279.88 441.001 1280.19 440.071 1280.49 439.172C1280.66 438.654 1280.64 438.242 1280.19 437.877C1279.36 437.206 1278.55 436.475 1277.67 435.896C1275.88 434.722 1274.02 433.64 1272.19 432.497C1271.68 432.177 1271.19 432.04 1270.69 432.421C1267.71 434.707 1264.37 434.57 1260.9 433.899C1258.42 433.427 1256.12 432.68 1254.32 430.821C1253.97 430.455 1253.64 430.059 1253.33 429.648C1253.01 429.206 1252.62 429.084 1252.13 429.267C1249.14 430.333 1246.14 431.431 1243.15 432.497C1242.46 432.741 1242.08 433.198 1242.01 433.96C1241.73 436.657 1240.4 438.913 1238.66 440.924C1238.22 441.458 1237.4 441.839 1236.68 441.961C1235.12 442.22 1233.56 441.961 1232.09 441.336C1228.84 439.949 1227.31 436.779 1228.3 433.305C1228.93 431.08 1230.08 429.145 1232.32 428.2C1235.06 427.042 1237.63 427.545 1239.84 429.495C1240.49 430.059 1241.05 430.166 1241.85 429.861C1244.92 428.688 1248 427.56 1251.09 426.463C1251.76 426.219 1251.97 425.884 1251.8 425.213C1251.65 424.603 1251.55 423.963 1251.45 423.354C1251.26 422.226 1251.34 421.129 1251.85 420.093C1254.14 415.323 1257.74 412.321 1263.21 411.742C1263.44 411.711 1263.65 411.635 1263.89 411.62C1264.63 411.559 1264.88 411.163 1264.88 410.446C1264.88 407.932 1264.91 405.433 1264.94 402.918C1264.94 402.324 1264.81 401.791 1264.15 401.73C1261.43 401.456 1260.31 399.52 1259.68 397.311C1259.1 395.299 1259.29 393.242 1260.23 391.306C1261.16 389.325 1262.8 388.396 1264.91 388.152C1264.94 388.152 1264.95 388.152 1264.98 388.152C1266.59 387.984 1268.23 387.71 1269.63 388.899C1271.45 390.499 1272.86 392.327 1273.34 394.781C1273.62 396.183 1273.37 397.539 1273.06 398.834C1272.66 400.48 1271.31 401.318 1269.66 401.654C1268.68 401.852 1268.54 401.974 1268.59 402.949C1268.7 405.479 1268.79 408.008 1268.9 410.553C1268.95 411.65 1269.08 411.696 1270.21 411.727C1271.24 411.757 1272.29 411.803 1273.26 412.062C1274.86 412.473 1275.66 413.616 1276 415.216C1276.87 419.346 1276.59 423.323 1274.73 427.148C1274.52 427.606 1274.64 427.971 1275.01 428.291C1276.56 429.632 1278.07 431.004 1279.65 432.299C1280.15 432.711 1280.78 432.985 1281.35 433.335C1281.9 433.671 1282.5 433.96 1282.93 434.387C1283.86 435.332 1284.94 435.682 1286.28 435.621C1288.27 435.545 1290.16 435.972 1291.8 437.191C1293.16 438.197 1294.06 439.477 1293.93 441.26C1293.89 441.641 1293.92 442.022 1293.92 442.509ZM1257.77 425.914C1257.84 425.96 1257.9 426.005 1257.96 426.036C1258.07 425.975 1258.18 425.929 1258.27 425.853C1258.86 425.289 1259.41 424.695 1260.03 424.146C1260.87 423.4 1261.78 422.821 1262.97 422.821C1263.62 422.821 1264.24 422.912 1264.5 423.582C1264.78 424.299 1264.41 424.741 1263.89 425.274C1262.73 426.478 1261.69 427.804 1260.65 429.099C1260.54 429.236 1260.67 429.541 1260.68 429.754C1260.88 429.678 1261.13 429.663 1261.27 429.541C1261.58 429.236 1261.81 428.87 1262.11 428.55C1262.73 427.895 1263.42 427.407 1264.38 427.468C1265.11 427.514 1265.37 427.987 1265.03 428.611C1264.81 429.008 1264.58 429.373 1264.27 429.891C1264.74 429.937 1265.05 430.013 1265.36 429.998C1266.87 429.876 1268.02 429.099 1268.91 427.956C1270.83 425.518 1271.85 422.76 1271.92 419.666C1271.96 417.807 1271.16 416.694 1269.3 416.253C1267.46 415.811 1265.59 415.78 1263.73 416.237C1262.42 416.557 1261.18 417.045 1260.47 418.31C1259.89 419.331 1259.99 419.437 1261.02 419.818C1261.47 419.986 1261.94 420.398 1262.17 420.824C1262.45 421.327 1261.89 421.601 1261.56 421.906C1260.47 422.942 1259.37 423.963 1258.3 425.03C1258.07 425.289 1257.94 425.624 1257.77 425.914ZM1287.39 439.02C1286.71 439.172 1286.2 439.187 1285.78 439.416C1285.44 439.599 1284.98 440.025 1284.99 440.315C1285.1 441.976 1285.18 443.667 1286.43 444.993C1286.91 445.496 1287.44 445.603 1288.01 445.252C1289.12 444.582 1290.04 443.713 1290.61 442.524C1291.13 441.427 1290.86 440.345 1289.76 439.812C1288.98 439.431 1288.09 439.248 1287.39 439.02ZM1264.5 396.67C1264.46 397.463 1264.72 397.981 1265.31 398.316C1266.02 398.712 1266.76 398.819 1267.51 398.362C1268.56 397.707 1269.16 396.731 1269.47 395.558C1269.89 393.958 1268.79 392.602 1267.12 392.693C1266.84 392.708 1266.49 392.83 1266.3 393.013C1265.28 394.08 1264.66 395.329 1264.5 396.67ZM1234.84 434.661C1234.83 434.661 1234.81 434.661 1234.8 434.661C1234.8 435.164 1234.81 435.682 1234.8 436.185C1234.75 436.962 1235.14 437.526 1235.66 438.044C1236.08 438.456 1236.45 438.456 1236.85 438.029C1238.31 436.536 1238.85 434.753 1238.56 432.726C1238.46 432.055 1237.98 431.583 1237.33 431.385C1236.9 431.248 1235.04 432.132 1234.94 432.467C1234.87 432.634 1234.86 432.817 1234.86 432.985C1234.84 433.549 1234.84 434.097 1234.84 434.661Z" fill="#E1E8E5"/>
<path d="M1203.56 184.026C1205.47 186.859 1205.55 188.56 1203.78 189.652C1202.08 190.759 1200.62 190.023 1198.64 187.068C1198.18 186.337 1197.61 185.617 1197.14 184.886C1196.14 183.302 1194.8 183.96 1193.73 184.677C1193.21 185.055 1192.93 186.188 1192.97 186.898C1193.09 188.292 1193.91 189.766 1193.71 191.128C1193.54 192.249 1192.44 193.835 1191.5 194.019C1190.63 194.217 1189.33 192.989 1188.42 192.196C1188.03 191.867 1188.07 190.998 1187.95 190.34C1187.36 187.652 1186.57 185.376 1183.09 185.152C1181.15 185.049 1179.66 183.71 1180.31 181.5C1180.95 179.183 1182.75 179.711 1184.7 179.747C1187.55 179.799 1190.76 179.791 1193.3 178.619C1197.99 176.51 1202.48 173.794 1206.65 170.765C1208.7 169.276 1210.05 166.691 1211.43 164.428C1212.28 162.998 1213.14 161.956 1214.86 162.362C1216.56 162.728 1217.27 164.039 1216.94 165.653C1216.61 167.159 1217.33 167.841 1218.45 168.504C1219.92 169.348 1221.39 170.191 1222.74 171.219C1224.12 172.289 1224.54 173.782 1223.36 175.246C1222.14 176.736 1220.65 176.522 1219.22 175.545C1218.37 174.941 1217.42 174.455 1216.55 173.917C1213.46 172.094 1212.68 172.24 1210.63 175.201C1210.31 175.623 1210.58 176.699 1210.91 177.227C1211.73 178.42 1212.89 179.338 1213.75 180.505C1214.77 181.848 1214.76 183.495 1213.25 184.257C1212.27 184.747 1210.57 184.556 1209.57 183.989C1208.29 183.256 1207.33 181.927 1206.41 180.745C1205.31 179.387 1204.22 179.327 1202.85 180.399C1201.36 181.55 1202.62 182.349 1203.08 183.255C1203.16 183.484 1203.38 183.742 1203.56 184.026Z" fill="#E1E8E5"/>
<path d="M11.8921 95.7434C11.7507 95.4529 11.3971 95.4529 11.3264 95.7434C10.407 97.9944 9.77049 99.7371 8.85112 101.335C8.63896 101.77 8.00247 101.988 7.4367 102.206C7.08309 102.351 6.58805 102.133 6.4466 101.77C6.23444 101.189 6.02228 100.608 6.16372 100.028C6.51733 98.5027 7.01237 96.9778 7.79031 95.6708C10.6899 90.8057 9.62905 86.1585 7.15382 81.003C7.01237 80.7851 6.72949 80.7125 6.58805 81.003C6.16372 81.7291 5.73939 82.2374 5.52723 82.8909C4.60786 84.9967 3.75921 87.1025 2.69839 89.1356C2.48623 89.5713 1.92046 89.7165 1.42541 89.9344C1.07181 90.0796 0.718202 89.9344 0.506039 89.5713C0.223154 88.9904 -0.0597297 88.4821 0.0109913 88.0464C1.49613 83.3266 3.052 78.6794 4.67858 74.0321C5.38579 72.0716 6.80021 71.5633 8.63896 72.362C12.5286 74.1048 16.4183 75.7749 20.2372 77.5902C20.7323 77.808 21.0151 78.5341 21.298 79.1877C21.4395 79.5507 21.298 79.9138 21.0151 80.059C20.5201 80.3495 19.9543 80.6399 19.53 80.5673C17.6205 80.059 15.7818 79.2603 13.8723 78.5341C12.5286 78.0259 11.2556 77.2997 9.91194 76.7188C9.62905 76.5736 9.34617 76.8641 9.48761 77.1545C10.8313 80.8578 12.0336 84.6336 13.5187 88.2643C13.8016 88.9178 15.0039 89.3535 15.8525 89.5713C17.5498 89.9344 19.3886 89.9344 21.0859 90.4427C21.7223 90.5879 22.2174 91.1688 22.7832 91.6771C23.1368 91.9675 23.066 92.5484 22.6417 92.7663C22.076 93.1293 21.5102 93.4924 20.8737 93.4924C19.3178 93.565 17.762 93.3472 16.2061 93.2019C15.9232 93.2019 15.7111 93.4198 15.6403 93.7102C15.3575 99.4467 17.762 103.658 22.4296 105.982C23.9854 106.781 25.6827 107.434 27.1679 108.378C27.5922 108.596 27.7336 109.177 27.9458 109.758C28.0872 110.121 27.9458 110.484 27.5922 110.629C27.0264 110.919 26.4607 111.21 26.0363 111.065C24.1976 110.484 22.4296 109.685 19.8129 108.668C19.6007 108.596 19.3178 108.814 19.3886 109.032C20.4494 112.372 21.3687 114.986 21.9345 117.672C22.076 118.399 21.7931 119.125 21.5809 119.923C21.4395 120.432 20.803 120.577 20.4494 120.287C19.8836 119.851 19.3178 119.343 19.1057 118.762C18.1156 116.293 17.3376 113.751 16.2768 110.556C16.2061 110.266 15.8525 110.266 15.7111 110.484C14.5088 112.662 13.7309 114.26 12.7408 115.567C12.4579 116.002 11.68 116.075 10.9728 116.22C10.6191 116.293 10.3363 116.075 10.2655 115.785C10.1241 115.204 9.98266 114.623 10.1241 114.114C10.6191 112.662 11.2556 111.137 12.175 109.903C15.7818 105.328 14.0138 100.899 11.8921 95.7434Z" fill="#E1E8E5"/>
</svg>
