<svg width="1440" height="357" viewBox="0 0 1440 357" fill="none" xmlns="http://www.w3.org/2000/svg">
<circle cx="273" cy="251.5" r="2.5" fill="#2A3B5E" fill-opacity="0.2"/>
<circle cx="1175" cy="282.5" r="2.5" fill="#2A3B5E" fill-opacity="0.2"/>
<circle cx="758" cy="207.5" r="2.5" fill="#2A3B5E" fill-opacity="0.2"/>
<circle cx="1126.5" cy="183" r="5" fill="#2A3B5E" fill-opacity="0.2"/>
<circle cx="1295.5" cy="316" r="5" fill="#2A3B5E" fill-opacity="0.2"/>
<circle cx="158.5" cy="348" r="5" fill="#2A3B5E" fill-opacity="0.2"/>
<circle cx="467.5" cy="266" r="5" fill="#2A3B5E" fill-opacity="0.2"/>
<circle cx="862.5" cy="352" r="5" fill="#2A3B5E" fill-opacity="0.2"/>
<circle cx="1034" cy="346.5" r="2.5" fill="#2A3B5E" fill-opacity="0.2"/>
<circle cx="405" cy="175.5" r="2.5" fill="#2A3B5E" fill-opacity="0.2"/>
<circle cx="187" cy="351.5" r="2.5" fill="#2A3B5E" fill-opacity="0.2"/>
<path d="M-7.5 264.708C24 269.374 184.214 329.062 273 223.501C426.5 40.9996 378 13.7928 667.5 203C815.902 299.99 720 -17.0006 1013 232.999C1134.34 336.535 1129 76.5004 1278.5 56.4999C1313.33 55.6665 1395.6 69.5999 1446 132" stroke="#2A3B5E" stroke-opacity="0.5" stroke-linecap="round" stroke-dasharray="3 9"/>
<path d="M-27 152.496C4.5 157.163 240.176 432.004 273 298.031C371.5 -104.003 492.5 31.498 630.5 241.998C727.7 390.263 698.5 -70.502 991.5 179.498C1112.84 283.034 1087.5 124.999 1237 104.998C1271.83 104.165 1389 95.5 1442 19.4995" stroke="#2A3B5E" stroke-opacity="0.5" stroke-linecap="round" stroke-dasharray="3 9"/>
<circle cx="1274" cy="110.5" r="2.5" fill="#2A3B5E" fill-opacity="0.2"/>
<circle cx="753" cy="26.5" r="2.5" fill="#2A3B5E" fill-opacity="0.2"/>
<circle cx="306" cy="21.5" r="2.5" fill="#2A3B5E" fill-opacity="0.2"/>
<circle cx="575" cy="230.5" r="2.5" fill="#2A3B5E" fill-opacity="0.2"/>
<circle cx="371" cy="122.5" r="2.5" fill="#2A3B5E" fill-opacity="0.2"/>
<circle cx="419.5" cy="286" r="5" fill="#2A3B5E" fill-opacity="0.2"/>
<circle cx="1298.5" cy="253" r="5" fill="#2A3B5E" fill-opacity="0.2"/>
<circle cx="156.5" cy="67" r="5" fill="#2A3B5E" fill-opacity="0.2"/>
<circle cx="638.5" cy="48" r="5" fill="#2A3B5E" fill-opacity="0.2"/>
<circle cx="1109.5" cy="219" r="5" fill="#2A3B5E" fill-opacity="0.2"/>
<circle cx="230.5" cy="5" r="5" fill="#2A3B5E" fill-opacity="0.2"/>
</svg>
