<svg fill="none" xmlns="http://www.w3.org/2000/svg" viewBox="0 0 1385 405"><path d="M1031.49 332.121c.26-2.385.58-4.772.75-7.157.11-1.492-.39-2.88-1.17-4.165-1.2-1.964-2.38-3.956-3.6-5.908-.44-.684-.97-1.356-1.54-1.937-3.12-3.172-5.51-6.866-8.09-10.437-.47-.659-.9-1.342-1.44-1.932a4.955 4.955 0 00-1.35-1.072c-.68-.374-1.38-.388-2.01.205-.66.618-1.36 1.198-2.08 1.756-.56.426-1.19.754-1.74 1.2-.46.364-.9.783-1.27 1.233-.34.407-.2.848.09 1.271.19.27.27.599.42.895.22.441.42.91.71 1.302 2.43 3.225 5.39 5.985 8.16 8.888 2.42 2.498 3.88 5.504 4.92 8.736.48 1.518.29 3.009-.62 4.335a20.502 20.502 0 01-4.32 4.63c-.26.209-.68.384-.99.352-2.13-.231-4.29-.418-6.29-1.315-1.59-.711-2.94-1.768-4.13-3.006-2.16-2.262-4.35-4.499-6.336-6.891-1.184-1.434-2.01-3.139-3.013-4.715-.343-.566-.643-1.173-1.047-1.685-.325-.414-.734-.829-1.196-1.074-.326-.184-.865-.23-1.2-.07-.942.429-1.876.893-2.693 1.512a36.186 36.186 0 00-3.301 2.769c-1.085 1.008-1.148 2.131-.298 3.347 1.387 1.953 2.777 3.891 4.164 5.845.294.407.549.839.766 1.296.816 1.67 2.034 3.028 3.371 4.296 1.521 1.339 2.955 2.776 4.473 4.131 2.75 2.47 5.9 4.298 9.39 5.636 2.9 1.117 5.8 1.363 8.83.711 1.64-.349 3.1-1.031 4.41-2.091.71-.576 1.56-.974 2.23-1.592 1.98-1.81 4.09-3.477 5.45-5.843.65-1.117 1.25-2.21 1.42-3.493l.17.037zm-19.39-28.564c.76-.797.9-.802 1.75-.161.88.644 1.78 1.229 2.66 1.857.14.112.19.353.28.537-.23.082-.46.216-.67.204-.17-.002-.34-.203-.5-.318-1.16-.735-2.15-1.75-3.52-2.119.07.228.09.529.25.695.32.363.69.721 1.1 1.003.71.494 1.47.935 2.22 1.419-.34.473-.65.278-.94.116-.77-.39-1.55-.768-2.29-1.17-.29-.142-.62-.294-.78-.542-.69-.968-1.06-1.028.44-1.521zm-10.41 31.388c.56-.294 1.02-.478 1.41-.743.31-.198.65-.457.81-.767.12-.208.09-.609-.05-.803-.12-.156-.52-.224-.74-.153-.73.226-1.44.537-2.16.832-.45.185-.88.228-1.238-.111-.592-.568-1.157-1.181-1.729-1.762a3.93 3.93 0 00-.57-.514c-.372-.276-.829-.47-1.105-.808-.928-1.083-1.798-2.204-2.684-3.328-.26-.335-.147-.624.133-.911.711-.741 1.425-1.497 2.136-2.238.623-.644.662-.669 1.194.019 2.123 2.849 4.543 5.414 7.103 7.876 1.85 1.788 3.88 3.331 6.24 4.402.92.424 1.92.864 2.91.922 3.56.234 6.58-.962 8.71-3.895 1.04-1.444 1.83-3.074 2.73-4.615.66-1.114.61-2.229.2-3.418-.54-1.562-1.29-3.019-2.18-4.409-1.33-2.123-2.62-4.288-3.98-6.383-.39-.591-.99-1.046-1.46-1.607a43.355 43.355 0 01-1.87-2.35c-.09-.134-.02-.531.12-.634.81-.654 1.64-1.27 2.49-1.852.14-.103.51-.124.57-.028.59.783 1.29 1.539 1.67 2.408.31.723.66 1.339 1.22 1.885 1.22 1.194 2.5 2.351 3.63 3.626 2.66 2.994 4.27 6.443 4.28 10.529-.01 1.383.07 2.767 0 4.153-.03.751-.12 1.555-.43 2.215-1.26 2.651-2.98 4.96-5.41 6.708-.3.218-.59.436-.86.676-1.74 1.548-3.81 2.267-6.07 2.568-.48.065-1 .056-1.45-.072a85.335 85.335 0 01-4.8-1.498c-.91-.306-.87-.347-.6-1.263.07-.264-.01-.676-.18-.861-.18-.185-.6-.24-.86-.18-.39.085-.73.343-1.11.494-.23.082-.56.196-.74.109-.48-.233-.91-.569-1.45-.913.28-.205.46-.317.62-.448.33-.242.72-.475 1.03-.74.34-.306.75-.649.38-1.171-.32-.48-.77-.327-1.19-.151-.68.27-1.33.595-2.02.846-.23.083-.63.148-.79.017-.64-.496-1.2-1.042-1.86-1.659zm-11.433-14.941c.03-.06.047-.139.077-.198 1.409.558 2.821 1.1 4.246 1.662l.017.152c-.272.025-.542.117-.8.08-.306-.048-.607-.193-.911-.323-.933-.376-1.883-.674-2.629-1.373zm1.855-1.407c-.027-.105-.042-.19-.069-.295.238-.098.483-.228.73-.292.176-.045.448-.071.526.028.267.303.456.655.665.995.049.077.043.256-.022.325-.049.072-.237.099-.31.051-.526-.259-1.029-.545-1.52-.812zM1002.38 294.896c-.64.23-1.11.411-1.61.57-.59.19-.906.569-.958 1.185-.06.581.268.93.758 1.099 1.4.474 2.82.919 4.22 1.361.65.203 1.33.41 2 .534.3.063.7-.002.98-.141.47-.248.51-.817.05-1.078-.77-.441-1.58-.776-2.4-1.129-.4-.182-.82-.319-1.4-.54.32-.18.48-.311.67-.388.51-.222 1.06-.422 1.56-.663.46-.217.69-.632.66-1.132-.02-.499-.3-.822-.77-.969-1.95-.622-3.89-1.244-5.86-1.821-1.147-.338-2.322-.601-3.481-.86-.207-.043-.579-.022-.638.097-.108.192-.12.552-.008.724.244.332.555.661.92.82 1.626.719 3.277 1.379 4.917 2.051.09.052.15.132.39.28zM985.177 312.441c.579-.291 1.172-.563 1.714-.911.988-.634.945-1.583-.131-2.072-.774-.343-1.621-.504-2.403-.816-1.35-.53-2.682-1.139-4.029-1.684a4.29 4.29 0 00-.881-.234c-.609-.111-1.06.124-1.234.616a.997.997 0 00.54 1.267c.57.284 1.216.452 1.813.693 1.01.409 2.017.834 3.02 1.274.092.036.138.128.309.263-.284.155-.513.288-.758.419-.303.167-.643.277-.89.489-.608.5-.637 1.318-.005 1.78.546.395 1.162.705 1.784.983 1.532.684 3.072 1.336 4.631 1.975.337.137.754.208 1.129.171.237-.017.569-.244.63-.446.077-.198-.058-.572-.222-.739-.274-.271-.648-.465-1.009-.64-1.05-.532-2.106-1.034-3.159-1.551-.253-.135-.5-.302-.75-.454a2.309 2.309 0 01-.099-.383z" fill="#009DAF"/><path d="M602.314 122.895c-.964.702-1.852 1.725-2.588 2.644-.419.524-1.462 1.576-1.462 1.576s-1.041 1.241-1.8 1.943c-.624.578-1.067.795-1.688 1.376-.897.838-1.313 1.4-2.075 2.362-.556.703-.778 1.166-1.357 1.851-.618.731-1.039 1.075-1.719 1.75-.627.622-.989.961-1.625 1.575-.319.308-.518.547-.819.787-.223.179-.545.387-.731.619-.4.5-2.491-.86-2.869-1.237-.763-.763-1.642-1.345-2.419-2.082-.406-.385-.894-.669-1.294-1.069-.262-.262-.567-.479-.844-.725-.313-.279-.451-.58-.787-.906-.527-.512-1.033-.753-1.513-1.119-.5-.381-.803-.847-1.35-1.356-.914-.851-1.647-1.552-2.475-2.026-.394-.224-1.036-1.237-1.413-1.237" stroke="#F1E66B" stroke-width="1.5" stroke-linecap="round" stroke-linejoin="round"/><path d="M601.976 123.007c-1.162 0-2.158.675-3.313.675h-3.325c-1.14 0-2.199.159-3.319.331-.526.081-1.058.024-1.581.144-.674.154-1.207.313-1.913.313-1.713 0-3.459.24-5.113.7-.923.256-1.893.338-2.813.593-.738.205-1.528.129-2.275.369-1.216.391-2.627.278-3.8.725-.45.172-1.095.138-1.575.207-.405.057-.699.218-1.126.218M602.201 122.782c-1.123 0-2.286-.112-3.375-.112-1.534 0-3.029-.338-4.563-.338-3.511 0-7.028-.112-10.557-.112h-7.92c-2.882 0-5.696.225-8.575.225" stroke="#F1E66B" stroke-width="1.5" stroke-linecap="round" stroke-linejoin="round"/><path d="M601.864 122.783c-2.413 0-4.463-.691-6.695-1.513-.698-.257-1.838-.4-2.594-.4-.852 0-1.693-.45-2.55-.45-2.15 0-4.243-.45-6.388-.45-1.556 0-3.076-.508-4.613-.788-2.608-.474-5.281-1.094-7.926-1.237-.72-.039-1.266-.306-2.087-.45-.68-.12-1.75-.25-1.75-.25s-.919-.171-1.313-.2l-3.632-.619c-.414-.093-.749-.066-1.068-.194-.614-.245-1.343-.142-1.963-.319-.538-.154-1.108-.379-1.638-.556M566.873 122.557c-.878-.342-2.594-1.975-2.594-1.975s-.935-.766-1.344-1.175c-.274-.274-.72-.638-1.056-.787-.407-.181-1.138-.682-1.138-.682s-.864-.469-.981-.669c-.362-.614-1.482-1.364-2.113-1.575M566.761 139.546c1.143-.388 2.133-1.098 3.206-1.575.891-.395 1.842-1.128 2.813-1.344.445-.099.841-.581 1.356-.675.516-.093 1.041-.384 1.513-.594.517-.229 1.191-.297 1.631-.65.272-.217 1.037-.386 1.182-.675M566.648 139.546c.288-1.475.112-3.108.112-4.612 0-1.403.113-2.796.113-4.213 0-2.522.337-4.996.337-7.489M571.486 127.62c-.445.891-1.004 1.785-1.438 2.7-.482 1.019-.731 2.151-1.175 3.151-.178.401-.281.805-.45 1.325-.173.534-.425 1.375-.425 1.375l-.678 2.949M576.615 134.672c-.522-.195-.603-.65-1.003-.961-.148-.115-.384-.298-.468-.465M574.564 135.38c-.183-.437-.595-.765-.883-1.14-.112-.147-.204-.3-.335-.432-.074-.073-.214-.141-.264-.233-.16-.291-.377-.54-.519-.824M572.759 136.008c-.143-.389-.588-.709-.846-1.04-.062-.081-.305-.464-.331-.412M571.112 136.873c-.051-.105-.512-.982-.629-.865M569.581 137.775c-.129-.17-.237-.336-.353-.511" stroke="#F1E66B" stroke-width="1.5" stroke-linecap="round" stroke-linejoin="round"/><path d="M140.955 352.479c-.512-.78-1.192-1.369-2.017-1.847-1.19-.699-2.325-1.477-3.469-2.236-.105-.075-.18-.338-.13-.464a80.113 80.113 0 011.53-3.574c.099-.218.413-.463.643-.473a138.21 138.21 0 015.349-.299c1.012-.039 1.33-.183 1.722-1.1.376-.88-.259-1.886-1.211-1.856-2.571.089-5.13.205-7.703-.009-1.927-.161-3.88-.032-5.824-.01-.184.006-.447.071-.535.204-.23.345.038 1.676.363 1.993.656.647 1.361 1.201 2.4.982.185-.039.383.005.576.002 1.204.046 1.204.046.933 1.168-.027.123-.05.237-.086.356-.483 1.563-.904 1.711-2.368.905-.943-.525-1.88-1.092-2.882-1.472-1.871-.719-3.803-1.318-5.706-1.961-.706-.242-.761-.33-.489-1.005l1.552-3.855-.01-.004c.532-1.321 1.079-2.624 1.582-3.956.095-.264.138-.682-.011-.874-.419-.532-.88-1.102-1.461-1.429-.791-.454-1.713-.692-2.578-1.018-.395-.144-.581-.384-.563-.823.039-.743.021-1.486.066-2.216.046-.618.055-1.261.241-1.835.45-1.342.962-2.67 1.513-3.983 1.019-2.39 2.656-4.205 5.191-5.133.663-.243.843-.184 1.039.483.859 2.868 1.76 5.718 2.532 8.608.491 1.843.786 3.753 1.172 5.633.222 1.079.843 1.813 1.857 1.908.895.082 1.282.5 1.385 1.31.014.106.056.201.083.301.406 1.128 1.257 1.572 2.436 1.286.527-.129 1.068-.208 1.586-.34.439-.108.888-.211 1.296-.409 1.166-.593 1.423-1.229 1.06-2.464-.048-.163-.091-.336-.152-.494-.227-.702-.42-1.402.049-2.089a.675.675 0 00.093-.343c-.048-1.034-.002-2.075-.171-3.089-.679-3.88-1.432-7.743-2.148-11.614-.119-.66-.047-.755.603-.992.119-.043.234-.076.343-.122.935-.327 1.305-.796 1.174-1.762-.152-1.085-.356-2.18-.67-3.228-.412-1.422-.954-1.678-2.43-1.384-1.874.383-3.135-.31-3.768-2.052-.058-.168-.105-.331-.193-.477-.171-.279-.315-.625-.569-.78-.499-.306-.848-.677-1.084-1.215-.25-.644-.717-.805-1.349-.583-.514.179-1.015.384-1.529.563-.472.161-.659.456-.685.971-.02.36-.191.784-.448 1.029-.37.357-.522.733-.429 1.205.107.521.21 1.052.368 1.56.15.471.047.754-.417 1.008-.361.194-.71.526-.89.89-.191.361-.384.531-.773.569-2.369.235-4.576 1.023-6.752 1.902-.662.266-1.362.684-1.783 1.223-.942 1.216-1.847 2.48-2.544 3.847-1.164 2.244-1.73 4.689-1.934 7.22-.21 2.573-.349 5.139.343 7.663.233.827.102 1.546-.286 2.286-.527.999-1.073 1.99-1.473 3.039-.316.814-.736 1.464-1.491 1.905-.655.391-1.258.903-1.951 1.19-.593.237-1 .546-1.206 1.113-.153.409-.339.815-.383 1.233-.04.409-.056.982.187 1.222.703.699 1.537 1.27 2.336 1.872.07.05.197.044.297.049.205.024.412.016.615.073 1.154.283 2.292.661 3.467.863 1.3.229 2.568.535 3.789 1.045 4.679 1.984 9.567 3.503 14.095 5.862 2.152 1.12 4.573 1.374 6.948 1.744.532.084 1.012-.096 1.39-.473.685-.691.877-2.122.347-2.943zm-1.074-19.761c.069.25.105.499.172.837-.439.163-.855.324-1.273.462-.312.102-.531-.029-.696-.294-.461-.738-.42-.867.382-1.2.164-.07.339-.113.482-.214.512-.402.765-.214.933.409zm-.988-22.393c.96-.417 1.073-.361 1.133.643.03.458.047.922.068 1.488-.277.126-.517.3-.778.332-.108.014-.302-.263-.375-.447-.149-.416-.227-.87-.373-1.295-.135-.365-.044-.564.325-.721zm-1.693 2.518c.836 4.108 1.644 8.227 2.49 12.339.236 1.185.559 2.349.818 3.532.034.169-.047.483-.174.545-1.414.675-2.851 1.318-4.287 1.962-.15.064-.334.07-.552.108-.095-.16-.21-.294-.252-.444-.629-2.12-1.244-4.245-1.873-6.365-.227-.758-.579-1.486-.745-2.254-.568-2.665-.964-5.363-1.823-7.951-.124-.394.002-.568.379-.689 1.581-.498 3.154-1.032 4.745-1.526.859-.278 1.098-.14 1.274.743zm-1.657-3.614c.191-.026.481.042.596.177.143.178.154.461.227.758-.226.112-.386.228-.554.252-1.828.323-3.648.627-5.482.937-.279.047-.564.081-.686-.29-.116-.358.051-.605.359-.696.777-.243 1.568-.492 2.37-.658 1.045-.206 2.109-.348 3.17-.48zm-4.726-2.906c.732-.216 1.486-.345 2.241-.508.065-.019.133.008.276.019.074.152.198.323.247.509.338 1.381.523 1.231-.93 1.466-.447.071-.9.128-1.341.213-.395.08-.602-.079-.685-.435-.054-.233-.169-.479-.137-.701.025-.202.163-.516.329-.563zm6.624 47.182c-1.013-.518-1.997-1.081-2.997-1.606-3.217-1.68-6.585-2.984-9.984-4.267-1.67-.63-3.35-1.208-5.117-1.541-.336-.065-.626-.301-.956-.407-.736-.254-1.463-.583-2.226-.713-1.626-.29-3.248-.589-4.714-1.362-.317-.168-.56-.464-.846-.71.265-.264.475-.617.791-.784.406-.22.886-.401 1.326-.397.562.008.8-.245.971-.669l2.422-5.847c.011-.029.017-.071.039-.096 1.179-2.228.97-4.574.75-6.98-.445-4.825.809-9.176 4.314-12.737 1.387-1.422 3.069-2.338 5.025-2.756.348-.076.532.029.657.335.138.333.272.675.433 1.006.171.334.042.485-.285.624-.799.324-1.599.625-2.352 1.034-2.046 1.119-3.544 2.731-4.433 4.883-.572 1.394-1.155 2.784-1.698 4.189-.601 1.55-.509 3.147-.213 4.746.087.458.211.908.322 1.364.136.533.44.931.939 1.181.874.442 1.745.894 2.606 1.341.599.312.663.405.399 1.004-.518 1.203-1.148 2.374-1.598 3.604-.529 1.455-.951 2.952-1.369 4.44-.151.543.029 1.026.547 1.34.758.452 1.488.971 2.294 1.331 1.322.594 2.701 1.077 4.05 1.604l-.019.048c1.838.718 3.718 1.363 5.504 2.183 1.032.471 1.935 1.236 2.91 1.851.914.569 1.849 1.112 2.763 1.681.155.094.339.255.38.405.054.233.035.505-.051.717-.009.052-.412.04-.584-.039z" fill="#FF719C"/><path d="M120.897 334.519c-.617-.688-1.399-.826-2.391-.443-.749.287-1.209.81-1.476 1.531-.099.33-.231.657-.287.993-.146.813.322 1.899.876 2.126.911.379 2.209-.007 2.766-.827.222-.326.438-.665.634-1.013.48-.827.433-1.749-.122-2.367zm-1.748 2.429c-.362-.476-.295-.673.277-.885.222.377.031.626-.277.885zM133.185 321.549c.028.547.373.871.88 1.047.886.301 1.621-.036 2.284-.558 1.86-1.471.939-4.073-.444-4.658-.395-.032-.845-.207-1.173-.068-.833.355-1.563.929-1.613 1.925-.05.772.022 1.548.066 2.312zm2.16-2.413c.101-.084.375-.088.49-.01.435.27.589.9.405 1.385-.196.515-.593.572-.946.155-.337-.399-.335-1.19.051-1.53z" fill="#FF719C"/><path d="M21.094 27.208c2.943-.548 5.907-1.014 8.819-1.68 2.143-.484 4.22-1.218 6.328-1.835a.603.603 0 00.157-.077c2.788-1.132 4.268-.571 5.671 2.11.142.267.339.608.289.888-.242 1.363-.421 2.762-.877 4.056-.18.527-.913 1.038-1.519 1.23-.962.322-2 .359-3.022.517-1.563.263-3.152.496-4.718.813-1.06.221-2.088.559-3.151.834-.714.185-1.04.626-.988 1.36.208 2.992.312 5.993.657 8.968.63 5.25 1.85 10.385 3.368 15.442.993 3.34 2.548 6.392 4.876 9.013.636.726 1.375 1.371 2.15 1.954.928.686 1.718.588 2.531-.228 1.44-1.46 2.365-3.196 2.692-5.24.084-.556.141-1.14.279-1.693.303-1.2 1.225-1.938 2.47-1.994 1.158-.05 2.206.622 2.491 1.83.267 1.071.5 2.222.396 3.3-.425 4.153-2.362 7.487-5.832 9.793-2.307 1.542-4.792 1.474-7.245.186a15.055 15.055 0 01-4.977-4.178c-2.573-3.341-4.545-6.962-5.69-11.082-.807-2.908-2.034-5.725-3.313-8.475-1.986-4.276-3.408-8.7-3.942-13.388-.072-.675-.27-1.354-.393-2.017-.083-.513-.377-.686-.859-.561-2.848.702-5.722 1.376-8.566 2.095-.864.224-.95.567-.604 1.403 2.577 6.172 4.898 12.445 6.231 19.01.811 3.994.601 8.02.483 12.058-.16 4.815-1.24 9.441-2.392 14.067-.122.477-.432.914-.709 1.342-.354.537-.81 1.029-1.138 1.595-.81 1.368-1.92 2.332-3.573 2.12-1.817-.224-2.865-1.431-3.262-3.198-.17-.776-.416-1.567-.449-2.36-.014-.655.04-1.453.404-1.957 3.78-5.29 4.788-11.322 4.846-17.66.06-6-1.48-11.674-3.429-17.278-.67-1.928-1.338-3.84-1.975-5.776-.35-1.049-.668-1.18-1.509-.535-1.183.894-2.323 1.813-3.501 2.724-.206.16-.399.37-.631.431-1.196.31-1.8 1.179-2.096 2.27a25.229 25.229 0 00-.754 3.58c-.191 1.421-.714 2.394-1.554 2.505-.777.148-2.104-.773-2.43-1.864-.268-.946-.438-1.988-.315-2.929.344-2.653 1.428-5.054 3.009-7.191 2.18-2.952 4.797-5.536 8.193-6.915 5.717-2.336 11.207-5.255 17.253-6.75l1.827-.474c.003-.054.006-.109-.007-.159zM834.906 5.997c-2.943-.548-5.907-1.014-8.819-1.68-2.143-.484-4.22-1.218-6.328-1.835a.595.595 0 01-.157-.077c-2.788-1.132-4.268-.571-5.671 2.11-.142.267-.339.608-.289.888.242 1.363.421 2.763.877 4.056.179.528.913 1.038 1.519 1.231.962.32 1.999.358 3.022.516 1.563.263 3.152.496 4.718.813 1.06.221 2.088.559 3.151.834.714.186 1.041.626.988 1.36-.208 2.993-.312 5.994-.657 8.968-.63 5.251-1.849 10.385-3.368 15.442-.993 3.34-2.548 6.393-4.875 9.013-.637.726-1.376 1.371-2.151 1.954-.928.686-1.718.588-2.531-.228-1.441-1.46-2.365-3.196-2.692-5.24-.084-.556-.141-1.14-.279-1.693-.303-1.2-1.225-1.938-2.47-1.994-1.158-.05-2.206.622-2.491 1.83-.267 1.071-.501 2.222-.396 3.3.424 4.153 2.362 7.487 5.832 9.793 2.307 1.542 4.792 1.474 7.245.186a15.04 15.04 0 004.977-4.178c2.573-3.341 4.545-6.962 5.691-11.082.807-2.908 2.033-5.725 3.312-8.475 1.987-4.276 3.408-8.699 3.942-13.387.073-.676.27-1.355.393-2.018.083-.513.377-.686.859-.561 2.848.702 5.722 1.376 8.566 2.095.864.224.95.567.604 1.403-2.577 6.172-4.898 12.445-6.231 19.01-.811 3.994-.601 8.02-.483 12.058.16 4.815 1.241 9.441 2.392 14.068.122.476.432.913.709 1.341.354.537.809 1.03 1.138 1.595.809 1.368 1.92 2.332 3.573 2.12 1.817-.224 2.865-1.431 3.262-3.198.17-.775.416-1.567.449-2.36.014-.655-.041-1.453-.404-1.957-3.779-5.29-4.788-11.322-4.846-17.66-.06-6 1.481-11.674 3.429-17.278.671-1.928 1.338-3.84 1.975-5.775.35-1.05.668-1.181 1.509-.536 1.183.895 2.323 1.814 3.501 2.724.206.16.399.37.631.431 1.196.31 1.8 1.179 2.096 2.27.328 1.172.598 2.364.754 3.58.191 1.421.714 2.394 1.554 2.505.777.148 2.104-.773 2.429-1.864.269-.946.439-1.988.316-2.929-.344-2.653-1.428-5.054-3.009-7.191-2.181-2.952-4.797-5.536-8.193-6.915-5.717-2.336-11.207-5.255-17.253-6.75l-1.827-.474a.522.522 0 01.007-.159z" fill="#E8E8E8"/><path d="M1358.4 118.357c-1.95-.822-3.96-1.567-5.86-2.487-4.84-2.354-9.65-4.779-14.47-7.184-1.06-.531-2.11-1.069-3.17-1.61-.64-.331-1.29-.567-2.05-.4-.53.117-.86-.214-1.16-.621-.42-.565-.85-1.125-1.37-1.589-.84-.755-1.35-1.665-1.62-2.74-.51-2.132-.21-4.238.47-6.272 1.32-3.982 3.16-7.724 5.84-11.012.8-.98 1.79-1.821 2.73-2.695.46-.439 1.08-.596 1.69-.498 1.01.169 2.04.346 3.02.672 4.8 1.555 9.28 3.78 13.79 5.994 3.16 1.545 6.44 2.817 9.68 4.177.99.415 2.04.662 3.03 1.077 2.56 1.101 5.11 2.258 7.67 3.373.9.39 1.21 1.168 1.28 2.025.13 1.739.22 3.497-.62 5.145-.16.321-.05.479.26.585.43.144.86.288 1.28.463.74.31 1.14.857 1.16 1.682.03 1.6.18 3.188-.25 4.777-.49 1.807-1.36 3.357-2.89 4.507-.72.55-1.46 1.08-2.24 1.548-.38.239-.87.364-1.32.467-.19.041-.46-.033-.64-.132-.68-.384-1.34-.82-2.03-1.183-.14-.072-.45.003-.59.116-1.11.959-2.22 1.933-3.31 2.916-.17.16-.29.388-.38.609-.36.933-1.07 1.257-2.04.86-1.98-.82-3.96-1.661-5.93-2.492.02-.016.03-.047.04-.078zm1.04-2.272c.02-.031.03-.061.04-.082 1.4.59 2.81 1.17 4.21 1.771.54.238.96.147 1.37-.279.8-.845 1.64-1.652 2.47-2.474 1.82-1.798 3.47-3.716 4.63-5.995 1.56-3.089 2.39-6.314 2.29-9.763-.02-.53-.21-.843-.72-1.068-1.26-.554-2.47-1.176-3.72-1.75a21.07 21.07 0 00-1.73-.701c-.72-.267-1.47-.461-2.19-.748-2.04-.837-4.08-1.72-6.13-2.566-.53-.223-.67-.135-.71.444-.08 1.006-.11 2.005-.19 3.006-.3 3.754-1.5 7.227-3.66 10.357-1.27 1.845-2.9 3.406-4.56 4.915-.49.44-.46.674.12.939 2.85 1.333 5.67 2.664 8.48 3.994zm-26.57-23.295c-.25.686-.62 1.534-.89 2.407-.53 1.655-1 3.336-.8 5.091.06.577.27 1.15.5 1.687.2.463.61.514 1.03.188.31-.245.6-.503.89-.771.7-.643 1.46-1.215 1.84-2.155 1.42-3.466 2.63-6.995 3.26-10.694.24-1.376.33-2.764.45-4.153.02-.211-.19-.434-.29-.648-.21.098-.45.153-.61.307-.29.268-.52.583-.78.89-1.96 2.312-3.19 5.026-4.6 7.85zm13.37 3.716c-.01.01-.01.01-.01.02-.45-.187-.9-.375-1.35-.568a2.624 2.624 0 01-.16-.065c-.58-.22-1.19-.088-1.5.417-.26.406-.49.87-.55 1.33-.05.334.08.851.32 1.052.6.484 1.28.903 1.98 1.221 1.26.579 2.55 1.086 3.84 1.579.65.246 1.31.465 1.99.59.24.04.66-.126.8-.335.53-.738.59-1.628.41-2.463-.15-.647-.9-.717-1.43-.965-.2-.097-.42-.154-.63-.241-1.23-.527-2.47-1.052-3.71-1.572zm26.68 18.207c.45.348.91.16 1.36-.273.45-.433.98-.796 1.36-1.27.47-.594 1.02-1.229 1.21-1.916.33-1.252.43-2.555.6-3.847.08-.576-.33-.776-.79-.908-.5-.135-.56.254-.69.553-.08.175-.17.345-.21.523-.58 2.254-1.87 4.14-3.21 6.004-.49.661-.48.75.37 1.134zm-24.03-18.874c.04.053.07.105.11.158.25-.105.49-.185.71-.324 1.22-.734 2.41-1.503 3.64-2.204.39-.214.9-.305 1.36-.308.63-.003.91.505.6 1.045-.2.332-.47.644-.78.868-.78.589-1.62 1.126-2.41 1.71-.14.108-.31.444-.26.526.15.181.39.307.62.378.12.042.32-.07.47-.129.41-.17.79-.364 1.19-.523.89-.36.94-.338 1.61.368.05.061.14.086.3.187.08-.356.16-.661.2-.964.07-.52.11-1.038.15-1.557.1-1.107.21-2.22.27-3.34.05-.845-.26-1.051-1-.65-.78.427-1.56.855-2.28 1.355-1.4.951-2.75 1.945-4.11 2.924-.15.12-.26.317-.39.48zm-9.1-.337l.12.163c.34-.211.69-.393 1-.642 1.74-1.378 3.47-2.775 5.22-4.148 1.14-.901 2.32-1.749 3.46-2.645.13-.103.28-.407.23-.504-.24-.406-1.13-.472-1.53-.153-2.39 1.874-4.77 3.791-7.21 5.632-.82.616-1.09 1.408-1.29 2.297zm13.61-5.746c-.04-.113-.05-.253-.13-.333-.47-.542-1.36-.608-1.92-.138-1.99 1.643-3.97 3.296-5.96 4.94-.13.102-.26.216-.36.347-.08.1-.1.251-.14.379.13.042.3.162.4.12.36-.141.72-.319 1.05-.524 2.23-1.502 4.44-3.014 6.65-4.511.12-.083.25-.165.41-.28zm.77 13.221c-2.41 1.57-4.69 3.04-6.97 4.511.85.074 1.74-.186 2.55-.696.41-.255.78-.308 1.23-.095.17.085.54.057.65-.069.94-1.094 1.87-2.188 2.54-3.651zm-5.03.653l-.03-.209c-.31-.031-.63-.152-.91-.089-1.33.296-2.31 1.212-3.41 1.935-.14.088 0 .56.01.856.21-.044.46-.039.63-.134 1.1-.663 2.19-1.35 3.27-2.032.15-.094.29-.218.44-.327zm-7.51-16.197c.08.031.15.076.23.107.71-.604 1.43-1.19 2.13-1.812.08-.065-.01-.49-.11-.534-.57-.251-1.15-.446-1.75-.625-.1-.029-.38.158-.39.264-.06.865-.07 1.737-.11 2.6zm14.28 10.637c-.42.3-.71.544-1.04.749-.59.361-1.05.765-.83 1.553.04.127.01.309-.06.439-.33.651.09.986.52 1.315.52-.477 1.4-2.924 1.41-4.056zm-17.88 1.6c-.24.776-.07.991.7.889.17-.015.36-.057.48-.164.63-.565 1.26-1.129 1.84-1.74.11-.112.04-.448-.04-.639-.02-.058-.38-.072-.52.002-.62.323-1.23.666-1.82 1.052-.25.14-.43.392-.64.6zm2.72 4.336c.97.677 1.06.666 1.88-.015.37-.318.79-.583 1.18-.868.31-.224.63-.433.91-.666.09-.075.11-.212.16-.325-.13-.053-.25-.155-.38-.147-.16.005-.33.08-.48.164-.95.514-1.9 1.032-2.84 1.55-.14.064-.25.176-.43.307zm1.74-3.426c-.06-.112-.13-.227-.19-.339-.14.124-.26.282-.43.372-.59.321-1.21.61-1.8.936-.22.118-.38.318-.57.47.28.093.57.226.86.253.16.015.35-.122.5-.245.45-.359.9-.731 1.34-1.119.11-.087.19-.212.29-.328zm-1.32-10.56c.05.082.1.165.15.236.29-.172.58-.355.86-.532-.05-.082-.1-.15-.15-.232-.28.173-.57.345-.86.528z" fill="#4150A3"/><path d="M1361.71 106.906c-.35-.174-.71-.337-1.06-.53-.69-.388-.92-1.008-.64-1.635.26-.631.88-.918 1.65-.72.83.219 1.66.468 2.48.728.39.126.63.057.84-.306.38-.703.81-1.388 1.22-2.078.33-.534.88-.798 1.44-.712.56.091.99.464.89 1.02a6.856 6.856 0 01-.62 1.991c-.66 1.28-.69 1.282.64 1.85.23.101.48.206.72.316.8.361 1.13 1.12.81 1.864-.3.723-1.16 1.095-1.93.818-.52-.179-1.02-.393-1.51-.623-.48-.211-.78-.093-1.01.356-.31.579-.63 1.148-.99 1.69-.49.744-1.06.993-1.64.809-.52-.168-.82-.525-.74-1.039.12-.672.33-1.324.52-1.976.06-.193.16-.384.26-.56.23-.424.1-.711-.32-.89-.34-.139-.66-.275-.99-.414a.124.124 0 01-.02.041z" fill="#4150A3"/><path d="M468.693 389.164c.068-.287.325-.539.541-.785.284-.325.591-.632.917-.909 2.854-2.513 5.719-5.024 8.585-7.534a269.485 269.485 0 014.65-4c.808-.682 1.688-1.259 2.476-1.971.334-.315.624-.808.696-1.251.257-1.543.414-3.105.621-4.658.062-.458-.126-.768-.547-.952-.181-.073-.35-.144-.531-.218-1.473-.605-2.235-1.793-2.01-3.368.182-1.218.744-2.247 2.269-2.115.499.043 1.022.103 1.507.221 1.323.302 2.636.655 3.946.955 1.121.265 2.24.476 3.356.766 1.031.261 2.05.584 3.074.882l.007-.038c.553.105 1.099.182 1.644.325.559.144 1.112.314 1.646.52.669.244 1.147.674 1.178 1.462.068 1.475-.909 2.699-2.369 2.905-.549.079-1.116.115-1.67.154-.329.016-.539.159-.592.501-.297 1.614-.621 3.235-.905 4.852-.143.808-.157 1.627.135 2.413.625 1.762 1.241 3.51 2.249 5.11.696 1.123 1.259 2.326 1.825 3.516.977 2.037 1.893 4.116 2.882 6.156.915 1.882 1.411 3.842 1.559 5.918.107 1.612-.387 2.967-1.393 4.199-.751.927-1.691 1.415-2.869 1.375-2.315-.086-4.595-.283-6.8-1.144-1.538-.605-3.18-.941-4.775-1.387-2.771-.759-5.53-1.517-8.307-2.251a128.16 128.16 0 00-5.303-1.278c-.8-.177-1.629-.334-2.45-.333-1.86-.013-3.376-.731-4.671-1.993-.657-.647-1.383-1.411-1.317-2.364.091-1.222.459-2.457.746-3.681zm29.239-4.263a101.967 101.967 0 00-1.914-3.259c-.109-.178-.373-.293-.595-.361-.342-.117-.479-.286-.484-.666 0-.404-.106-.803-.159-1.204a.71.71 0 01.015-.284c.259-.603-.015-1.008-.452-1.377-.225-.186-.452-.36-.631-.577-.307-.371-.239-.658.174-.906.072-.039.145-.077.205-.118.247-.136.616-.157.605-.577-.023-.422-.176-.777-.552-.991-.211-.119-.428-.212-.625-.341-.36-.224-.463-.57-.298-.956.163-.374.474-.498.871-.396.111.034.209.065.322.087.284.079.547.064.676-.264.125-.315.053-.551-.252-.726-.365-.2-.731-.399-1.081-.609-.35-.21-.634-.498-.419-.94.198-.42.58-.374.965-.275.249.061.495.133.747.181.276.052.421-.09.436-.374.024-.596-.344-1.122-.927-1.206-.533-.075-1.068-.072-1.605-.122a2.471 2.471 0 01-.734-.178c-.229-.095-.447-.254-.656-.385-.824-.521-.933-.972-.384-1.795.111-.174.409-.301.632-.311.339-.001.699.094 1.033.183.486.118.941.322 1.424.387 1.585.222 3.113.811 4.745.859.583.019.984-.101 1.436-.628-.287-.133-.506-.279-.753-.352-.447-.11-.904-.171-1.355-.269-1.918-.389-3.833-.791-5.751-1.18-.126-.024-.249-.061-.372-.097a7.216 7.216 0 00-1.999-.378c-.879-.036-1.749-.318-2.611-.508-.214-.04-.423-.106-.783-.2.113.23.139.365.217.432.642.592 1.279 1.208 1.953 1.766.427.355.673.767.592 1.326-.318 2.197-.648 4.391-.978 6.586-.022.179-.081.35-.1.516-.1 1.064-.498 1.915-1.5 2.456-.393.213-.691.613-.982.975a6.468 6.468 0 01-2.574 1.94c-.228.1-.489.103-.737.174-.262.08-.563.154-.775.31-.455.331-.843.727-1.278 1.089-.247.201-.276.352.012.55.53.361 1.042.745 1.557 1.116.399.298.864.386 1.309.235 1.826-.62 3.461-.114 5.016.806.621.366 1.206.777 1.813 1.139 1.481.907 3.068 1.116 4.737.636.869-.253 1.712-.641 2.646-.556.279.04.285-.194.178-.383zm-17.232.678c.007.17.038.346.057.519.101.763.319 1.052.848 1.074.621.026 1.052-.323 1.196-1 .118-.552.04-.684-.511-.801-.362-.082-.707-.186-1.069-.268-.352-.066-.541.106-.521.476zm1.094 9.562c.225.186.676-.198.754-.601.116-.605-.261-1.289-.827-1.527-.436-.174-.948.186-.909.663.055.663.508 1.088.982 1.465zm-11.401-2.759c.052.884.608 1.446 1.406 1.767.073.027.146.054.234.07 2.485.627 4.967 1.267 7.454 1.881a6.4 6.4 0 00.985.16c.05.01.113-.044.25-.083-.253-.374-.542-.703-.715-1.088-.189-.44-.406-.938-.372-1.388.103-1.416 1.22-2.078 2.564-1.615 1.185.407 1.914 1.223 1.865 2.154-.032.776-.237 1.507-.737 2.143-.082.089-.132.21-.243.385.377.137.717.266 1.062.37 1.268.384 2.536.768 3.808 1.126.36.094.761.04 1.123.121.571.147 1.12.343 1.681.54l7.492 2.632c.745.258 1.51.207 2.269.051.283-.051.372-.243.35-.534-.083-1.059.519-1.48 1.466-1.053.096.044.194.076.292.107.035-.045.059-.106.094-.151-.252-.179-.489-.367-.747-.52-.522-.334-.75-.703-.615-1.069.153-.389.664-.54 1.258-.375.11.034.218.08.321.087.194.01.551.052.573.004.073-.247.116-.539.042-.762-.057-.18-.289-.329-.475-.442-.681-.39-1.366-.755-2.047-1.145a8.16 8.16 0 01-.812-.584c-.293-.238-.326-.544-.16-.865.161-.296.424-.442.758-.352.456.138.906.302 1.344.463.159.056.297.147.451.229.174-.568.003-.9-.523-1.143-.912-.408-1.838-.805-2.75-1.212-.216-.093-.428-.212-.64-.33-.332-.168-.473-.455-.355-.798.121-.356.406-.55.79-.451.634.159 1.248.354 1.877.538.148.041.309.085.46.113l.112-.174c-.278-.248-.531-.557-.849-.735-.907-.498-1.839-.935-2.781-1.388-.643-.317-1.303-.611-1.114-1.593-.246.058-.406.079-.561.141-1.319.56-2.636.702-4.058.445a10.141 10.141 0 01-4.15-1.724c-.64-.461-1.393-.747-2.111-1.079-.179-.086-.397-.101-.603-.114-.939-.06-1.067.059-1.203.973-.062.393-.152.793-.313 1.154-.412.927-1.285 1.401-2.282 1.303-1.226-.127-1.89-.605-2.089-1.739-.135-.717-.041-1.482-.069-2.218-.009-.289.016-.623-.106-.868-.291-.59-.665-.674-1.164-.247-1.25 1.081-2.464 2.182-3.691 3.281-1.038.926-2.108 1.819-3.08 2.809-.747.772-1.029 1.763-.966 2.792zM508.821 388.222c.406.136.637.416.705.832.035.224.039.461.016.683-.116 1.218-1.033 1.95-2.131 1.733-.702-.133-1.061-.467-1.164-1.058-.269-1.567 1.06-2.703 2.574-2.19zm-1.195 2.176c.324.051.588-.145.635-.49.049-.306-.095-.53-.353-.569-.305-.048-.582.165-.636.499-.059.304.077.517.354.56z" fill="#E8E8E8"/><path d="M504.983 384.178c1.04.571 1.159 2.306.19 2.999-.569.404-1.188.454-1.813.179-.481-.21-.715-.628-.744-1.145-.01-.199.03-.408.036-.594.05-.207.086-.397.151-.582.286-.773 1.478-1.246 2.18-.857zm-1.448 1.498c-.051.315-.084.643.271.74.224.062.504.036.715-.042.063-.017.02-.36.019-.557.001-.059-.026-.123-.045-.176-.074-.231-.104-.532-.454-.5-.311.03-.478.235-.506.535zM502.802 377.99c-.635.234-1.586-.291-1.765-.945-.163-.582.004-1.092.411-1.527.384-.41.859-.428 1.37-.272 1.05.11 1.126.942.823 1.751-.169.42-.395.831-.839.993zm-.41-1.703c-.129.006-.251.13-.442.252.126.161.241.331.253.323.154-.089.284-.202.424-.314-.083-.084-.165-.267-.235-.261z" fill="#E8E8E8"/><path d="M183 114.537c0-7.969 3.603-15.441 6.793-22.53 1.295-2.879 3.537-5.02 5.636-7.242 1.461-1.547 2.711-3.321 4.191-4.802 1.076-1.076 2.411-1.8 3.469-2.858 1.203-1.203 2.697-2.445 4.32-3.035 1.48-.538 2.811-1.743 4.207-2.44.564-.283 1.162-.1 1.734-.386.722-.361 1.45-.612 2.248-.643 1.3-.05 2.445-.867 3.822-.867 1.24 0 2.339-.578 3.613-.578 1.081 0 2.177-.867 3.18-.867 1.276 0 2.412-.289 3.613-.289M277.082 114.537c0-7.969-3.603-15.441-6.793-22.53-1.295-2.879-3.537-5.02-5.636-7.242-1.461-1.547-2.711-3.321-4.191-4.802-1.076-1.076-2.411-1.8-3.469-2.858-1.203-1.203-2.697-2.445-4.319-3.035-1.481-.538-2.812-1.743-4.208-2.44-.564-.283-1.162-.1-1.734-.386-.722-.361-1.45-.612-2.248-.643-1.3-.05-2.445-.867-3.822-.867-1.24 0-2.339-.578-3.613-.578-1.081 0-2.177-.867-3.18-.867-1.275 0-2.412-.289-3.613-.289" stroke="#E8E8E8" stroke-width="2" stroke-linecap="round" stroke-linejoin="round"/><path d="M229.801 68.368c-1.057.826-2.111 1.634-3.15 2.443-.419.325-.769.98-1.261 1.198-.518.23-.625.76-1.05 1.011-.795.468-2.059 1.62-2.521 2.428-.3.525-.778.684-1.12 1.112-.312.39-.659.807-1.012 1.16-1.206 1.205-2.806 2.686-3.578 4.232-.966 1.931-1.828 3.794-2.801 5.741-.447.893-1.065 2.025-1.284 3.011-.143.645-.61 1.126-.918 1.68-.215.389-.32.873-.599 1.222-.274.343-.369 1.08-.56 1.51-.204.457-.468 1.004-.599 1.462-.109.38-.566.774-.763 1.128-.311.56-.532 1.123-.739 1.72-.832 2.404-1.571 4.552-1.571 7.173 0 1.289-.28 2.54-.28 3.851v3.151M230.281 68.368c1.058.826 2.111 1.634 3.151 2.443.419.325.769.98 1.26 1.198.518.23.625.76 1.051 1.011.795.468 2.059 1.62 2.52 2.428.3.525.778.684 1.121 1.112.311.39.659.807 1.011 1.16 1.206 1.205 2.806 2.686 3.579 4.232.966 1.931 1.827 3.794 2.801 5.741.446.893 1.064 2.025 1.283 3.011.144.645.61 1.126.918 1.68.216.389.321.873.599 1.222.275.343.37 1.08.561 1.51.203.457.468 1.004.599 1.462.108.38.565.774.762 1.128.312.56.533 1.123.739 1.72.832 2.404 1.572 4.552 1.572 7.173 0 1.289.28 2.54.28 3.851v3.151M229.942 69.068c-.088-.502.14-1.335.14-.42 0 .235-.119.97.07 1.12.297.238.128 1.766.217 2.17.33 1.486.413 2.902.413 4.482v5.181c0 2.079.28 4.095.28 6.147 0 2.738.14 5.457.14 8.208 0 2.127-.28 4.155-.28 6.301 0 1.826-.28 3.668-.28 5.493v5.851M183.312 114.797c.391-.284.776-.608 1.141-.892.19-.147.277-.357.507-.46.142-.062.421-.184.531-.272.279-.223.643-.418.99-.573.395-.175.914-.184 1.268-.46.081-.062.482-.178.596-.211.214-.061.416.024.629-.07.353-.157.942-.342 1.334-.357.933-.036 1.944-.311 2.849-.512 1.004-.223 2.085-.249 3.131-.249.478 0 .955.067 1.409.085.593.023 1.171.307 1.756.338 1.158.061 2.233.764 3.338 1.009a8.158 8.158 0 011.478.512c.313.139 1.606.059 1.606.507" stroke="#E8E8E8" stroke-width="2" stroke-linecap="round" stroke-linejoin="round"/><path d="M206.128 113.867c.325-.415.817-.627 1.183-1.014.308-.324.858-.724 1.334-.76.514-.04 1.16-.391 1.624-.611.412-.195 1.07-.334 1.521-.399 1.355-.193 2.751-.68 4.122-.68 1.17 0 2.243-.339 3.399-.339 1.092 0 2.603-.241 3.634.127.236.085.548.077.798.122.266.049.53.135.802.169.578.072 1.15.387 1.714.428.316.022 1.01.146 1.249.338.366.292.981.319 1.394.549.37.205.686.501 1.014.756.251.195.745.354.887.638" stroke="#E8E8E8" stroke-width="2" stroke-linecap="round" stroke-linejoin="round"/><path d="M254.38 113.783c-.409-.671-1.193-1.252-1.817-1.737a13.973 13.973 0 00-2.028-1.343c-1.991-1.072-4.247-1.314-6.465-1.314-.652 0-1.401-.109-2.028.084-.619.191-1.363.378-2.009.423-.595.041-1.225.25-1.812.357-.753.136-1.528.328-2.244.591-1.066.391-2.048.979-3.127 1.352-.554.192-1.059.513-1.605.723-.102.039-.671.393-.695.441M277.28 114.629c-.582-.583-.953-1.384-1.605-1.897-.545-.428-1.054-.825-1.69-1.127-1.74-.824-3.606-.779-5.484-.779-2.901 0-5.846-.389-8.661.549-.647.216-1.308.376-1.958.597-.539.183-1.07.349-1.624.478-.378.088-.938.24-1.287.423-.223.118-.404.319-.676.319M229.862 163.887c-2.139-1.62-3.665-3.622-6.016-4.965-.792-.453-1.263-1.266-2.075-2.075-.809-.807-2.075-2.062-2.075-2.062s-3.525-3.879-5.084-5.438c-.899-.9-1.47-1.839-2.482-2.956-1.316-1.451-2.365-2.364-3.547-3.546-1.256-1.256-2.267-2.432-3.796-3.914-1.52-1.474-2.748-2.394-4.006-3.652-2.348-2.348-5.036-4.656-7.04-7.329-.693-.923-1.12-1.808-1.944-2.89a30.27 30.27 0 00-1.419-1.721c-.495-.57-.831-.839-1.3-1.431-.568-.716-.73-1.231-1.301-1.944-.49-.612-.886-.851-1.366-1.471-.498-.644-.686-1.235-1.116-1.76-.388-.474-1.853-2.81-2.01-2.496" stroke="#E8E8E8" stroke-width="2" stroke-linecap="round" stroke-linejoin="round"/><path d="M229.935 164.076c-.18-.436-.446-.721-.713-1.1-.346-.493-.593-1.151-.865-1.691-.529-1.045-1.216-2.041-1.61-3.147-.368-1.036-.879-1.973-1.415-2.934-1.133-2.029-2.199-4.084-3.372-6.09-.333-.57-.463-.82-.687-1.314-.277-.609-.568-1.314-1.004-1.829-.642-.759-.888-1.807-1.446-2.612-1.649-2.382-2.783-5.102-4.008-7.706-.6-1.275-1.28-2.538-1.798-3.855-.685-1.745-1.867-3.304-2.424-5.113-.359-1.167-.916-2.285-1.237-3.463-.393-1.438-.8-2.803-1.401-4.156-.157-.353-.215-.81-.316-1.191-.157-.594-.503-1.156-.621-1.747-.104-.519-.291-.984-.372-1.508-.064-.418-.361-.813-.361-1.237" stroke="#E8E8E8" stroke-width="2" stroke-linecap="round" stroke-linejoin="round"/><path d="M230.669 113.199c0 2.897.164 5.857-.087 8.739-.088 1.013.053 2.037-.051 3.051-.138 1.351-.32 2.783-.32 4.14 0 1.508-.066 3.01-.092 4.513-.038 2.181.183 4.353.183 6.528 0 1.017-.077 1.98-.183 2.99-.104.984-.142 2.025-.321 2.994-.151.815-.137 1.778-.137 2.608v12.523c0 .887-.092 1.798-.092 2.699M229.752 164.076c1.267-1.526 2.357-3.179 3.397-4.864 1.143-1.85 2.441-3.603 3.57-5.459 1.972-3.24 3.49-6.721 5.042-10.17a78.918 78.918 0 012.791-5.582c.157-.286.234-.615.367-.917.155-.354.404-.656.55-1.013.633-1.555 1.248-3.119 1.864-4.68.844-2.142 2.066-4.105 2.633-6.372.584-2.338 1.756-4.345 2.724-6.523.521-1.173 1.267-2.352 1.452-3.647.035-.247.178-.482.178-.733 0-.268-.082-.784.183-.917M230.027 164.076c.506-.972 1.443-1.379 2.246-2.063 1.078-.918 2.3-1.632 3.341-2.612a224.84 224.84 0 013.214-2.974c1.025-.929 1.771-2.117 2.836-3.026 1.551-1.322 2.72-3.046 3.937-4.659 1.073-1.422 2.18-2.819 3.407-4.11 1.768-1.861 2.784-4.283 4.4-6.275.826-1.017 1.694-2.096 2.618-3.02 1.039-1.039 2.197-1.939 3.336-2.867a47.754 47.754 0 003.096-2.75c.691-.67 1.521-1.22 2.256-1.843.859-.729 1.583-1.58 2.409-2.343.908-.838 1.907-1.56 2.781-2.434.756-.757 1.464-1.556 2.22-2.313 1.059-1.058 1.742-2.136 2.536-3.401.541-.862 1.1-1.834 1.823-2.557.172-.172.469-.326.571-.53M264.951 85.407a20.379 20.379 0 01-2.15 1.778c-.559.404-1.316.733-1.803 1.219-.423.421-1.09.31-1.453.64-.281.257-.862.494-1.201.593M259.419 83.681c.483-.063 2.027-.74 2.366-1.17M258.344 94.762c1.114 0 1.897-.852 2.821-1.416.4-.245.802-.516 1.209-.74.426-.234 1.045-.672 1.511-.726.483-.056.913-.666 1.456-.666.367 0 .896-.386 1.164-.665.512-.532 1.138-1.526 1.814-1.774M259.056 100.472c1.651 0 3.2-1.268 4.635-2.057 1.092-.601 2.151-1.289 3.235-1.885 1.355-.746 2.613-1.77 3.919-2.489M259.057 106.193c3.037 0 5.424-2.034 8.138-3.23.456-.201 1.009-.776 1.4-1.119.664-.583 1.336-1.145 2-1.729.579-.509 1.435-1.33 2.131-1.59M263.331 109.359c2.725 0 4.646-1.726 6.872-2.971 1.568-.877 2.629-2.633 4.192-3.41M272.501 110.001c.797-.311 2.907-1.984 3.618-2.458M1264 334.373c0-4.003 1.8-7.755 3.39-11.316.64-1.445 1.76-2.521 2.81-3.637.72-.777 1.35-1.668 2.09-2.411.53-.541 1.2-.905 1.72-1.436.6-.604 1.35-1.228 2.16-1.524.74-.271 1.4-.876 2.1-1.226.28-.142.57-.05.86-.194.36-.181.72-.307 1.12-.322.65-.026 1.22-.436 1.91-.436.61 0 1.16-.29 1.8-.29.54 0 1.08-.436 1.58-.436.64 0 1.2-.145 1.8-.145M1310.9 334.373c0-4.003-1.79-7.755-3.38-11.316-.65-1.445-1.77-2.521-2.81-3.637-.73-.777-1.36-1.668-2.09-2.411-.54-.541-1.21-.905-1.73-1.436-.6-.604-1.35-1.228-2.16-1.524-.73-.271-1.4-.876-2.09-1.226-.29-.142-.58-.05-.87-.194-.36-.181-.72-.307-1.12-.322-.65-.026-1.22-.436-1.9-.436-.62 0-1.17-.29-1.81-.29-.53 0-1.08-.436-1.58-.436-.64 0-1.2-.145-1.8-.145" stroke="#E8E8E8" stroke-width="2" stroke-linecap="round" stroke-linejoin="round"/><path d="M1287.33 311.185l-1.57 1.227c-.21.163-.38.491-.63.601-.26.116-.31.383-.52.508-.4.235-1.03.814-1.26 1.219-.15.264-.39.344-.56.559-.15.196-.33.405-.5.582-.6.606-1.4 1.35-1.79 2.126-.48.97-.91 1.906-1.39 2.884-.22.448-.53 1.016-.64 1.512-.07.324-.31.565-.46.844-.11.195-.16.438-.3.613-.13.172-.18.543-.28.758-.1.23-.23.505-.3.735-.05.191-.28.389-.38.567-.15.281-.26.564-.36.863-.42 1.208-.79 2.287-.79 3.603 0 .647-.14 1.276-.14 1.934v1.582M1287.57 311.185l1.57 1.227c.21.163.38.491.63.601.26.116.31.383.52.508.4.235 1.03.814 1.26 1.219.15.264.39.344.56.559.15.196.33.405.5.582.6.606 1.4 1.35 1.79 2.126.48.97.91 1.906 1.39 2.884.22.448.53 1.016.64 1.512.07.324.31.565.46.844.11.195.16.438.3.613.14.172.18.543.28.758.1.23.23.505.3.735.05.191.28.389.38.567.15.281.26.564.36.863.42 1.208.79 2.287.79 3.603 0 .647.14 1.276.14 1.934v1.582M1287.4 311.536c-.04-.252.07-.67.07-.211 0 .118-.06.487.04.563.14.119.06.887.1 1.09.17.746.21 1.457.21 2.251v2.602c0 1.044.14 2.057.14 3.087 0 1.375.07 2.741.07 4.122 0 1.069-.14 2.088-.14 3.165 0 .917-.14 1.843-.14 2.759v2.938M1264.16 334.503c.19-.142.38-.305.56-.448.1-.074.14-.179.26-.231.07-.031.21-.092.26-.136.14-.112.32-.21.5-.288.19-.088.45-.093.63-.231.04-.032.24-.09.29-.106.11-.031.21.012.32-.036.17-.078.47-.171.66-.179.47-.018.97-.156 1.42-.257.5-.112 1.04-.125 1.56-.125.24 0 .48.034.71.043.29.011.58.154.87.17.58.03 1.12.383 1.67.506.24.055.5.155.73.257.16.07.8.03.8.255" stroke="#E8E8E8" stroke-width="2" stroke-linecap="round" stroke-linejoin="round"/><path d="M1275.53 334.036c.16-.208.41-.315.59-.509.15-.163.43-.364.66-.382.26-.02.58-.196.81-.307.21-.097.54-.168.76-.2.68-.097 1.37-.342 2.06-.342.58 0 1.11-.17 1.69-.17.55 0 1.3-.121 1.81.064.12.042.28.039.4.061.13.025.27.068.4.085.29.037.57.195.86.215.15.011.5.074.62.17.18.147.49.16.69.275.19.104.34.252.51.38.12.098.37.178.44.321" stroke="#E8E8E8" stroke-width="2" stroke-linecap="round" stroke-linejoin="round"/><path d="M1299.58 333.994c-.2-.337-.59-.629-.9-.872a7.252 7.252 0 00-1.01-.675c-1-.538-2.12-.66-3.23-.66-.32 0-.69-.054-1.01.043-.31.095-.68.189-1 .212-.29.02-.61.125-.9.179-.38.069-.76.165-1.12.297-.53.196-1.02.492-1.56.679-.28.096-.53.258-.8.363-.05.02-.33.198-.35.222M1311 334.419c-.29-.293-.47-.695-.8-.953-.27-.215-.53-.414-.84-.566-.87-.414-1.8-.391-2.74-.391-1.44 0-2.91-.196-4.31.276-.33.108-.66.188-.98.299-.27.092-.53.176-.81.241-.19.044-.47.12-.64.212-.11.059-.2.16-.34.16M1287.36 359.159c-1.07-.814-1.83-1.82-3-2.494-.39-.228-.63-.636-1.03-1.042-.41-.406-1.04-1.036-1.04-1.036s-1.75-1.948-2.53-2.731c-.45-.452-.73-.924-1.24-1.485-.65-.728-1.18-1.187-1.77-1.781-.62-.631-1.13-1.221-1.89-1.966-.76-.74-1.37-1.202-2-1.834-1.17-1.179-2.51-2.338-3.51-3.681-.34-.463-.55-.908-.96-1.451-.27-.348-.43-.534-.71-.864-.25-.287-.42-.422-.65-.719-.28-.36-.36-.619-.65-.977-.24-.307-.44-.427-.68-.739-.25-.323-.34-.619-.56-.884-.19-.237-.92-1.41-1-1.253" stroke="#E8E8E8" stroke-width="2" stroke-linecap="round" stroke-linejoin="round"/><path d="M1287.4 359.253c-.09-.219-.22-.362-.36-.552-.17-.248-.29-.579-.43-.849-.26-.525-.61-1.026-.8-1.581-.18-.521-.44-.991-.71-1.473-.56-1.02-1.09-2.052-1.68-3.06-.16-.286-.23-.411-.34-.66-.14-.305-.28-.659-.5-.918-.32-.381-.44-.907-.72-1.312-.82-1.196-1.39-2.562-2-3.87-.3-.64-.64-1.275-.9-1.936-.34-.877-.93-1.66-1.2-2.568-.18-.586-.46-1.148-.62-1.739-.2-.723-.4-1.408-.7-2.088-.08-.177-.11-.407-.16-.598-.08-.298-.25-.581-.31-.877-.05-.261-.14-.495-.18-.757-.03-.211-.18-.409-.18-.622" stroke="#E8E8E8" stroke-width="2" stroke-linecap="round" stroke-linejoin="round"/><path d="M1287.76 333.701c0 1.455.09 2.942-.04 4.389-.04.509.03 1.023-.02 1.532-.07.679-.16 1.398-.16 2.08 0 .757-.04 1.512-.05 2.266-.02 1.096.09 2.187.09 3.279 0 .511-.04.995-.09 1.502-.05.494-.07 1.017-.16 1.504-.08.409-.07.892-.07 1.309v6.29c0 .445-.04.903-.04 1.355M1287.31 359.253c.63-.766 1.17-1.596 1.69-2.442.57-.93 1.22-1.81 1.78-2.742.98-1.627 1.74-3.376 2.51-5.108.43-.961.89-1.881 1.39-2.803.08-.144.12-.309.19-.461.07-.178.2-.33.27-.509.32-.781.62-1.566.93-2.35.42-1.076 1.03-2.062 1.31-3.2.29-1.175.88-2.183 1.36-3.277.26-.588.63-1.181.72-1.831.02-.124.09-.243.09-.368 0-.135-.04-.394.1-.461M1287.44 359.253c.26-.488.72-.692 1.12-1.036.54-.461 1.15-.819 1.67-1.312.53-.501 1.06-1.004 1.6-1.494.51-.466.88-1.063 1.41-1.519.78-.664 1.36-1.53 1.97-2.34.53-.714 1.08-1.416 1.7-2.064.88-.935 1.38-2.151 2.19-3.152.41-.511.84-1.052 1.3-1.516.52-.522 1.1-.974 1.67-1.44.53-.44 1.04-.897 1.54-1.382.34-.336.76-.612 1.13-.926.42-.365.78-.793 1.2-1.176.45-.421.95-.784 1.38-1.223.38-.379.73-.781 1.11-1.161.53-.532.87-1.073 1.26-1.709.27-.432.55-.92.91-1.284.09-.086.24-.163.29-.266M1303.45 318.511c-.39.369-.79.694-1.22 1.003-.31.228-.74.413-1.01.687-.24.238-.62.175-.82.361-.16.146-.49.279-.68.335M1300.33 317.537c.27-.035 1.14-.417 1.33-.66M1299.72 323.788c.63 0 1.07-.481 1.59-.799.23-.138.45-.291.68-.417.24-.133.59-.38.86-.41.27-.032.51-.376.82-.376.2 0 .5-.217.65-.375.29-.3.65-.861 1.03-1M1300.12 327.009c.93 0 1.81-.716 2.62-1.161.61-.339 1.21-.727 1.82-1.063.77-.42 1.48-.998 2.21-1.404M1300.12 330.236c1.72 0 3.06-1.147 4.59-1.822.26-.114.57-.438.79-.631.38-.329.76-.646 1.13-.976.33-.287.81-.75 1.2-.896M1302.53 332.021c1.54 0 2.62-.973 3.88-1.675.88-.495 1.48-1.486 2.36-1.924M1307.71 332.384c.45-.176 1.64-1.12 2.04-1.387" stroke="#E8E8E8" stroke-width="2" stroke-linecap="round" stroke-linejoin="round"/><path d="M1142.92 179.509c.26 1.905-.08 3.719-1.56 5.258-.98 1.005-2.11 1.6-3.55 1.508-.89-.045-1.81-.106-2.69-.045-4.18.259-6.92-3.536-6.37-7.285.13-.944.44-1.874.74-2.773.17-.518.15-.93-.3-1.295-.83-.671-1.64-1.402-2.52-1.981-1.79-1.174-3.65-2.256-5.48-3.399-.51-.32-1-.457-1.5-.076-2.98 2.286-6.32 2.149-9.79 1.478-2.48-.472-4.78-1.219-6.58-3.078a13.19 13.19 0 01-.99-1.173c-.32-.442-.71-.564-1.2-.381-2.99 1.066-5.99 2.164-8.98 3.23-.69.244-1.07.701-1.14 1.463-.28 2.697-1.61 4.953-3.35 6.964-.44.534-1.26.915-1.98 1.037-1.56.259-3.12 0-4.59-.625-3.25-1.387-4.78-4.557-3.79-8.031.63-2.225 1.78-4.16 4.02-5.105 2.74-1.158 5.31-.655 7.52 1.295.65.564 1.21.671 2.01.366 3.07-1.173 6.15-2.301 9.24-3.398.67-.244.88-.579.71-1.25-.15-.61-.25-1.25-.35-1.859-.19-1.128-.11-2.225.4-3.261 2.29-4.77 5.89-7.772 11.36-8.351.23-.031.44-.107.68-.122.74-.061.99-.457.99-1.174 0-2.514.03-5.013.06-7.528 0-.594-.13-1.127-.79-1.188-2.72-.274-3.84-2.21-4.47-4.419-.58-2.012-.39-4.069.55-6.005.93-1.981 2.57-2.91 4.68-3.154h.07c1.61-.168 3.25-.442 4.65.747 1.82 1.6 3.23 3.428 3.71 5.882.28 1.402.03 2.758-.28 4.053-.4 1.646-1.75 2.484-3.4 2.82-.98.198-1.12.32-1.07 1.295.11 2.53.2 5.059.31 7.604.05 1.097.18 1.143 1.31 1.174 1.03.03 2.08.076 3.05.335 1.6.411 2.4 1.554 2.74 3.154.87 4.13.59 8.107-1.27 11.932-.21.458-.09.823.28 1.143 1.55 1.341 3.06 2.713 4.64 4.008.5.412 1.13.686 1.7 1.036.55.336 1.15.625 1.58 1.052.93.945 2.01 1.295 3.35 1.234 1.99-.076 3.88.351 5.52 1.57 1.36 1.006 2.26 2.286 2.13 4.069-.04.381-.01.762-.01 1.249zm-36.15-16.595c.07.046.13.091.19.122.11-.061.22-.107.31-.183.59-.564 1.14-1.158 1.76-1.707.84-.746 1.75-1.325 2.94-1.325.65 0 1.27.091 1.53.761.28.717-.09 1.159-.61 1.692-1.16 1.204-2.2 2.53-3.24 3.825-.11.137.02.442.03.655.2-.076.45-.091.59-.213.31-.305.54-.671.84-.991.62-.655 1.31-1.143 2.27-1.082.73.046.99.519.65 1.143-.22.397-.45.762-.76 1.28.47.046.78.122 1.09.107 1.51-.122 2.66-.899 3.55-2.042 1.92-2.438 2.94-5.196 3.01-8.29.04-1.859-.76-2.972-2.62-3.413-1.84-.442-3.71-.473-5.57-.016-1.31.32-2.55.808-3.26 2.073-.58 1.021-.48 1.127.55 1.508.45.168.92.58 1.15 1.006.28.503-.28.777-.61 1.082-1.09 1.036-2.19 2.057-3.26 3.124-.23.259-.36.594-.53.884zm29.62 13.106c-.68.152-1.19.167-1.61.396-.34.183-.8.609-.79.899.11 1.661.19 3.352 1.44 4.678.48.503 1.01.61 1.58.259 1.11-.67 2.03-1.539 2.6-2.728.52-1.097.25-2.179-.85-2.712-.78-.381-1.67-.564-2.37-.792zm-22.89-42.35c-.04.793.22 1.311.81 1.646.71.396 1.45.503 2.2.046 1.05-.655 1.65-1.631 1.96-2.804.42-1.6-.68-2.956-2.35-2.865-.28.015-.63.137-.82.32-1.02 1.067-1.64 2.316-1.8 3.657zm-29.66 37.991h-.04c0 .503.01 1.021 0 1.524-.05.777.34 1.341.86 1.859.42.412.79.412 1.19-.015 1.46-1.493 2-3.276 1.71-5.303-.1-.671-.58-1.143-1.23-1.341-.43-.137-2.29.747-2.39 1.082-.07.167-.08.35-.08.518-.02.564-.02 1.112-.02 1.676z" fill="#E8E8E8"/></svg>
