<svg width="342" height="261" viewBox="0 0 342 261" fill="none" xmlns="http://www.w3.org/2000/svg">
<path d="M7.39445 116.592C7.13947 117.97 6.85001 119.353 6.63748 120.729C6.50332 121.589 6.68438 122.364 7.01884 123.067C7.5313 124.142 8.03062 125.234 8.55364 126.301C8.73961 126.674 8.97859 127.036 9.24105 127.345C10.6712 129.03 11.7004 131.046 12.8352 132.983C13.0423 133.34 13.2283 133.714 13.4722 134.029C13.6412 134.256 13.8603 134.452 14.1055 134.586C14.436 134.771 14.7916 134.748 15.1444 134.381C15.5185 133.998 15.9032 133.635 16.3014 133.284C16.6099 133.016 16.9533 132.8 17.2564 132.521C17.5122 132.292 17.7597 132.033 17.97 131.759C18.1645 131.511 18.1175 131.264 17.991 131.034C17.9076 130.887 17.885 130.702 17.8227 130.539C17.7333 130.295 17.657 130.034 17.5253 129.823C16.453 128.078 15.083 126.622 13.8131 125.077C12.7068 123.748 12.1183 122.087 11.7542 120.278C11.5858 119.428 11.7624 118.564 12.2952 117.765C13.0012 116.704 13.8194 115.747 14.7501 114.923C14.8951 114.792 15.1198 114.673 15.2765 114.678C16.3544 114.719 17.4481 114.733 18.4255 115.161C19.2031 115.5 19.839 116.048 20.3855 116.707C21.3687 117.911 22.3731 119.1 23.2667 120.386C23.7981 121.158 24.1317 122.1 24.5629 122.961C24.7086 123.271 24.8306 123.605 25.0105 123.882C25.1556 124.105 25.343 124.326 25.5669 124.446C25.7242 124.538 25.9976 124.541 26.1773 124.435C26.6821 124.148 27.1841 123.842 27.635 123.451C28.268 122.916 28.882 122.33 29.4693 121.721C30.0777 121.096 30.1684 120.449 29.7971 119.788C29.1892 118.728 28.5787 117.676 27.9707 116.615C27.8417 116.394 27.7337 116.157 27.6468 115.905C27.316 114.982 26.7637 114.256 26.1455 113.586C25.4368 112.883 24.7781 112.121 24.0719 111.41C22.7907 110.112 21.2761 109.199 19.5621 108.582C18.1355 108.066 16.6596 108.05 15.0788 108.555C14.2208 108.826 13.436 109.28 12.7084 109.944C12.3157 110.306 11.8585 110.571 11.4845 110.954C10.3782 112.078 9.21026 113.125 8.38754 114.541C7.99977 115.209 7.63311 115.862 7.48214 116.605C7.45025 116.6 7.42634 116.597 7.39445 116.592ZM15.8255 132.139C15.3966 132.628 15.3276 132.637 14.9217 132.307C14.5078 131.975 14.0755 131.679 13.659 131.356C13.5922 131.298 13.5806 131.162 13.5426 131.06C13.6669 131.003 13.791 130.917 13.8999 130.914C13.9847 130.908 14.0625 131.016 14.1373 131.075C14.6896 131.447 15.1449 131.986 15.8255 132.139C15.8033 132.011 15.81 131.839 15.735 131.751C15.5902 131.557 15.4189 131.367 15.2267 131.223C14.8903 130.97 14.5197 130.751 14.1648 130.505C14.3617 130.219 14.5085 130.318 14.6524 130.397C15.0228 130.588 15.4038 130.771 15.7636 130.97C15.9021 131.039 16.0646 131.112 16.1346 131.247C16.4359 131.772 16.6218 131.791 15.8255 132.139ZM22.7992 113.686C22.4954 113.879 22.2522 114.004 22.0385 114.173C21.8695 114.3 21.6823 114.463 21.5802 114.648C21.5121 114.772 21.5059 115.001 21.5678 115.106C21.6188 115.191 21.8207 115.212 21.9345 115.163C22.3208 115.001 22.7041 114.792 23.0848 114.592C23.328 114.466 23.548 114.423 23.7139 114.602C23.9869 114.903 24.2442 115.229 24.5067 115.538C24.5871 115.636 24.6754 115.736 24.7715 115.808C24.9478 115.95 25.1714 116.042 25.2949 116.224C25.7134 116.805 26.1002 117.411 26.495 118.017C26.6105 118.198 26.5374 118.369 26.3795 118.546C25.9769 119.001 25.5716 119.466 25.169 119.921C24.8163 120.318 24.7952 120.333 24.5588 119.962C23.6208 118.419 22.5168 117.053 21.3364 115.751C20.4799 114.805 19.5236 114.007 18.3704 113.495C17.9203 113.292 17.4303 113.083 16.9287 113.092C15.1186 113.111 13.5083 113.928 12.269 115.701C11.6571 116.575 11.1681 117.544 10.6257 118.467C10.2299 119.134 10.2002 119.771 10.346 120.435C10.541 121.308 10.8471 122.112 11.2324 122.87C11.8039 124.031 12.3517 125.216 12.9363 126.36C13.1033 126.682 13.3865 126.917 13.6011 127.219C13.8935 127.627 14.1728 128.053 14.4335 128.486C14.4713 128.559 14.4146 128.79 14.3381 128.855C13.89 129.265 13.4311 129.654 12.9694 130.024C12.8929 130.089 12.702 130.117 12.6751 130.065C12.4118 129.642 12.0928 129.238 11.9459 128.756C11.826 128.354 11.6801 128.016 11.4205 127.727C10.8583 127.095 10.2644 126.486 9.74962 125.804C8.54569 124.202 7.90216 122.292 8.11267 119.949C8.18628 119.156 8.21745 118.365 8.32554 117.568C8.38066 117.136 8.47004 116.67 8.66349 116.279C9.44784 114.703 10.4485 113.305 11.7832 112.197C11.9467 112.06 12.1103 111.922 12.2604 111.772C13.2299 110.81 14.3276 110.308 15.5014 110.038C15.7505 109.98 16.0131 109.963 16.2392 110.017C17.0422 110.207 17.8375 110.425 18.6171 110.669C19.0693 110.805 19.0456 110.83 18.8612 111.367C18.8093 111.522 18.827 111.755 18.9074 111.853C18.9878 111.952 19.2002 111.965 19.3379 111.919C19.5391 111.854 19.7263 111.691 19.9299 111.589C20.0543 111.531 20.2262 111.452 20.3141 111.494C20.5485 111.607 20.7489 111.781 21.0077 111.955C20.8547 112.085 20.7597 112.156 20.6701 112.239C20.4855 112.392 20.2769 112.542 20.1056 112.708C19.9107 112.898 19.684 113.112 19.8454 113.396C19.9881 113.657 20.2262 113.55 20.4509 113.431C20.8105 113.247 21.1619 113.032 21.5268 112.858C21.6512 112.801 21.8578 112.746 21.93 112.815C22.2318 113.072 22.4915 113.361 22.7992 113.686ZM27.8691 121.763C27.8508 121.798 27.8378 121.844 27.8195 121.88C27.1274 121.62 26.4328 121.37 25.7327 121.109C25.7325 121.081 25.7323 121.052 25.7321 121.023C25.8726 120.997 26.0154 120.933 26.1455 120.943C26.2996 120.957 26.4461 121.027 26.5952 121.088C27.0531 121.264 27.5239 121.394 27.8691 121.763ZM26.8459 122.65C26.8543 122.709 26.8574 122.757 26.8658 122.816C26.7389 122.883 26.6068 122.968 26.4771 123.015C26.3845 123.049 26.244 123.075 26.2091 123.022C26.0884 122.86 26.0099 122.666 25.9209 122.479C25.8994 122.438 25.9119 122.334 25.9487 122.292C25.9776 122.249 26.0756 122.225 26.1103 122.25C26.3661 122.375 26.6087 122.518 26.8459 122.65Z" fill="#E8E8E8"/>
<path d="M21.9783 136.292C22.3275 136.124 22.5886 135.993 22.8636 135.875C23.1881 135.734 23.3768 135.49 23.4377 135.116C23.5016 134.763 23.3486 134.567 23.0944 134.487C22.3786 134.265 21.6492 134.06 20.928 133.857C20.591 133.764 20.2456 133.669 19.8951 133.625C19.7377 133.6 19.523 133.658 19.3664 133.755C19.1028 133.925 19.0499 134.271 19.2797 134.407C19.6646 134.639 20.0766 134.804 20.4942 134.98C20.6934 135.072 20.9089 135.136 21.2075 135.243C21.0263 135.366 20.9331 135.453 20.8314 135.507C20.5456 135.665 20.246 135.81 19.9658 135.978C19.7076 136.13 19.5659 136.39 19.5513 136.691C19.5368 136.992 19.6676 137.174 19.908 137.241C20.9082 137.528 21.9084 137.816 22.9251 138.075C23.5135 138.227 24.1237 138.333 24.7256 138.437C24.8332 138.453 25.0316 138.424 25.0697 138.349C25.1379 138.228 25.164 138.01 25.1137 137.912C25.0021 137.723 24.8547 137.538 24.6694 137.459C23.8452 137.098 23.0019 136.775 22.1696 136.443C22.1253 136.416 22.0947 136.371 21.9783 136.292Z" fill="#E8E8E8"/>
<path d="M31.4281 126.689C31.1061 126.888 30.7786 127.077 30.4732 127.309C29.917 127.731 29.8879 128.295 30.4294 128.539C30.8196 128.709 31.2584 128.767 31.654 128.918C32.338 129.173 33.0087 129.477 33.69 129.742C33.8301 129.793 33.9838 129.827 34.1428 129.842C34.4582 129.881 34.7092 129.72 34.8278 129.419C34.9436 129.128 34.8785 128.809 34.6119 128.688C34.3259 128.544 33.9939 128.473 33.6917 128.356C33.1807 128.157 32.6724 127.949 32.1667 127.731C32.12 127.714 32.1005 127.661 32.0178 127.588C32.176 127.483 32.3042 127.393 32.4406 127.305C32.6098 127.191 32.7956 127.11 32.9371 126.973C33.2857 126.648 33.3455 126.158 33.0369 125.911C32.7697 125.7 32.4617 125.543 32.1484 125.405C31.3762 125.066 30.5986 124.746 29.8101 124.434C29.6397 124.368 29.4231 124.344 29.2233 124.383C29.0974 124.403 28.9094 124.554 28.8663 124.677C28.8151 124.798 28.8659 125.016 28.9432 125.107C29.073 125.257 29.26 125.356 29.4414 125.444C29.9666 125.715 30.4971 125.966 31.025 126.228C31.1515 126.297 31.2727 126.386 31.3965 126.465C31.4162 126.548 31.4222 126.618 31.4281 126.689Z" fill="#E8E8E8"/>
<path d="M104.857 257.075C104.639 256.666 104.324 256.374 103.927 256.154C103.357 255.831 102.819 255.46 102.276 255.101C102.226 255.065 102.203 254.921 102.236 254.847C102.554 254.138 102.879 253.438 103.226 252.738C103.289 252.609 103.464 252.452 103.583 252.432C104.505 252.252 105.423 252.083 106.344 251.942C106.866 251.859 107.037 251.758 107.291 251.217C107.535 250.698 107.266 250.168 106.776 250.243C105.452 250.447 104.132 250.667 102.824 250.701C101.845 250.726 100.835 250.917 99.8364 251.046C99.7418 251.061 99.6029 251.113 99.5503 251.193C99.4127 251.402 99.4736 252.137 99.6223 252.296C99.9219 252.622 100.252 252.892 100.797 252.706C100.895 252.673 100.994 252.686 101.093 252.673C101.708 252.626 101.708 252.626 101.505 253.275C101.484 253.346 101.466 253.412 101.44 253.482C101.103 254.393 100.878 254.501 100.173 254.135C99.7194 253.895 99.2709 253.632 98.7789 253.478C97.8598 253.184 96.9028 252.963 95.9634 252.715C95.615 252.62 95.5919 252.574 95.77 252.177C96.1083 251.422 96.4492 250.662 96.7876 249.908L96.7828 249.906C97.1313 249.129 97.4868 248.361 97.821 247.579C97.8849 247.424 97.9313 247.186 97.8658 247.086C97.6811 246.811 97.4774 246.517 97.1979 246.367C96.8183 246.159 96.3585 246.08 95.9336 245.948C95.7391 245.891 95.6573 245.767 95.6919 245.518C95.7545 245.096 95.788 244.678 95.8529 244.263C95.9115 243.912 95.9535 243.548 96.0819 243.213C96.3895 242.429 96.7284 241.649 97.0865 240.875C97.7465 239.464 98.69 238.342 100.044 237.665C100.399 237.488 100.487 237.511 100.549 237.876C100.826 239.442 101.125 240.997 101.355 242.581C101.502 243.591 101.543 244.651 101.634 245.689C101.686 246.285 101.962 246.661 102.477 246.654C102.932 246.646 103.106 246.859 103.113 247.31C103.114 247.369 103.13 247.42 103.138 247.474C103.281 248.087 103.693 248.286 104.314 248.053C104.592 247.949 104.874 247.872 105.147 247.766C105.379 247.679 105.615 247.594 105.836 247.458C106.468 247.053 106.636 246.678 106.521 246.003C106.506 245.914 106.494 245.819 106.471 245.734C106.395 245.351 106.336 244.968 106.616 244.552C106.654 244.493 106.677 244.416 106.684 244.353C106.718 243.772 106.802 243.182 106.773 242.62C106.647 240.471 106.482 238.337 106.337 236.195C106.314 235.83 106.356 235.772 106.703 235.599C106.767 235.568 106.828 235.542 106.886 235.509C107.385 235.269 107.601 234.982 107.589 234.445C107.574 233.841 107.532 233.236 107.431 232.663C107.301 231.886 107.038 231.774 106.263 232.028C105.28 232.358 104.673 232.042 104.447 231.097C104.428 231.006 104.413 230.917 104.376 230.84C104.304 230.693 104.25 230.506 104.129 230.434C103.89 230.291 103.733 230.103 103.642 229.813C103.551 229.465 103.32 229.403 102.983 229.566C102.71 229.698 102.44 229.844 102.167 229.976C101.915 230.095 101.802 230.273 101.76 230.564C101.728 230.769 101.617 231.018 101.47 231.172C101.26 231.396 101.161 231.618 101.182 231.878C101.207 232.166 101.229 232.459 101.281 232.736C101.331 232.993 101.262 233.159 101.009 233.33C100.813 233.461 100.615 233.67 100.501 233.886C100.383 234.101 100.274 234.209 100.072 234.254C98.8431 234.529 97.6652 235.107 96.4983 235.734C96.1436 235.923 95.7603 236.202 95.5137 236.531C94.9605 237.274 94.4237 238.041 93.9873 238.855C93.2613 240.192 92.8309 241.605 92.5811 243.045C92.3259 244.51 92.1072 245.967 92.318 247.349C92.39 247.802 92.2816 248.215 92.0397 248.657C91.7122 249.252 91.3751 249.844 91.1099 250.46C90.901 250.938 90.6482 251.33 90.2355 251.625C89.8768 251.885 89.5384 252.21 89.1665 252.414C88.8485 252.583 88.6217 252.782 88.4837 253.114C88.3817 253.354 88.2627 253.595 88.2163 253.834C88.1724 254.066 88.1313 254.391 88.2422 254.512C88.563 254.864 88.9581 255.136 89.3335 255.427C89.3668 255.451 89.4323 255.44 89.4831 255.437C89.587 255.439 89.6937 255.421 89.7948 255.441C90.3704 255.532 90.9327 255.676 91.5239 255.72C92.1777 255.771 92.8112 255.867 93.4082 256.081C95.6952 256.919 98.1164 257.482 100.304 258.541C101.344 259.043 102.572 259.041 103.769 259.107C104.037 259.123 104.294 258.992 104.51 258.757C104.901 258.325 105.081 257.506 104.857 257.075ZM105.438 245.988C105.46 246.125 105.464 246.263 105.479 246.45C105.244 246.569 105.022 246.685 104.799 246.788C104.633 246.863 104.528 246.803 104.459 246.663C104.265 246.275 104.293 246.2 104.724 245.963C104.812 245.914 104.904 245.879 104.983 245.814C105.269 245.556 105.388 245.647 105.438 245.988ZM106.216 233.411C106.732 233.118 106.787 233.142 106.76 233.706C106.749 233.962 106.731 234.223 106.71 234.541C106.56 234.629 106.427 234.742 106.291 234.775C106.235 234.79 106.152 234.645 106.125 234.545C106.072 234.32 106.058 234.068 106.008 233.837C105.959 233.639 106.017 233.522 106.216 233.411ZM105.203 234.934C105.396 237.201 105.575 239.477 105.773 241.747C105.826 242.401 105.925 243.039 105.99 243.691C105.998 243.784 105.938 243.966 105.869 244.009C105.105 244.475 104.331 244.924 103.557 245.374C103.477 245.419 103.382 245.434 103.268 245.468C103.228 245.384 103.177 245.315 103.164 245.233C102.963 244.074 102.769 242.912 102.568 241.754C102.495 241.34 102.356 240.95 102.315 240.527C102.176 239.057 102.128 237.559 101.835 236.149C101.794 235.934 101.869 235.829 102.069 235.738C102.909 235.362 103.747 234.966 104.592 234.591C105.048 234.383 105.163 234.446 105.203 234.934ZM104.56 232.994C104.659 232.968 104.804 232.989 104.855 233.058C104.919 233.15 104.908 233.309 104.928 233.472C104.806 233.549 104.717 233.624 104.63 233.648C103.673 233.94 102.722 234.221 101.763 234.507C101.617 234.55 101.469 234.586 101.428 234.384C101.388 234.189 101.488 234.04 101.652 233.97C102.065 233.786 102.484 233.598 102.906 233.455C103.454 233.277 104.008 233.132 104.56 232.994ZM102.301 231.639C102.689 231.473 103.083 231.354 103.48 231.217C103.515 231.202 103.548 231.213 103.621 231.211C103.65 231.292 103.704 231.381 103.719 231.484C103.813 232.243 103.916 232.147 103.157 232.367C102.924 232.434 102.688 232.493 102.457 232.567C102.25 232.636 102.152 232.559 102.13 232.363C102.116 232.235 102.071 232.103 102.1 231.976C102.125 231.861 102.213 231.675 102.301 231.639ZM102.995 257.865C102.505 257.634 102.032 257.375 101.549 257.14C99.9948 256.385 98.3415 255.852 96.6709 255.332C95.85 255.077 95.0212 254.852 94.1337 254.771C93.9648 254.754 93.8297 254.639 93.6662 254.598C93.3035 254.499 92.9489 254.358 92.5653 254.33C91.7474 254.265 90.9321 254.193 90.2245 253.845C90.0715 253.769 89.9637 253.617 89.8311 253.496C89.9822 253.331 90.1102 253.119 90.2819 253.006C90.5028 252.857 90.7595 252.726 90.9848 252.702C91.2731 252.672 91.4095 252.515 91.5215 252.266C92.0475 251.117 92.5735 249.969 93.0995 248.821C93.1071 248.804 93.1125 248.779 93.125 248.764C93.858 247.436 93.885 246.125 93.9102 244.78C93.9585 242.084 94.8514 239.553 96.854 237.332C97.6473 236.447 98.5626 235.829 99.5905 235.475C99.7732 235.411 99.8615 235.459 99.9086 235.624C99.9601 235.804 100.009 235.989 100.073 236.166C100.141 236.344 100.067 236.437 99.8906 236.536C99.4625 236.766 99.0346 236.984 98.6248 237.26C97.5106 238.015 96.6496 239.015 96.0701 240.283C95.6965 241.104 95.318 241.923 94.9587 242.749C94.5613 243.659 94.5171 244.556 94.577 245.44C94.5955 245.693 94.6335 245.94 94.6641 246.19C94.7035 246.483 94.8367 246.689 95.0783 246.8C95.5017 246.997 95.9225 247.199 96.3386 247.4C96.6279 247.54 96.6558 247.588 96.4859 247.943C96.151 248.653 95.7607 249.351 95.4594 250.072C95.1043 250.925 94.8021 251.796 94.5024 252.66C94.3938 252.976 94.458 253.238 94.7061 253.384C95.0688 253.593 95.4137 253.842 95.8066 253.997C96.451 254.252 97.1307 254.442 97.793 254.658C97.7879 254.669 97.7853 254.675 97.7802 254.686C98.6824 254.981 99.6097 255.232 100.479 255.587C100.982 255.79 101.401 256.168 101.866 256.456C102.303 256.722 102.751 256.973 103.188 257.239C103.262 257.283 103.347 257.362 103.36 257.445C103.374 257.573 103.348 257.727 103.292 257.852C103.285 257.882 103.079 257.899 102.995 257.865Z" fill="#009DAF"/>
<path d="M95.6214 247.257C95.3436 246.906 94.9497 246.875 94.418 247.151C94.0161 247.359 93.7497 247.682 93.5706 248.106C93.5009 248.298 93.4142 248.492 93.3662 248.684C93.2442 249.153 93.4223 249.739 93.6937 249.834C94.1405 249.993 94.8301 249.697 95.1634 249.2C95.2962 249.002 95.4267 248.797 95.5477 248.589C95.8422 248.092 95.8709 247.573 95.6214 247.257ZM94.583 248.736C94.424 248.489 94.4702 248.374 94.7763 248.22C94.8687 248.419 94.7563 248.571 94.583 248.736Z" fill="#009DAF"/>
<path d="M102.278 240.454C102.261 240.762 102.42 240.925 102.671 240.994C103.11 241.111 103.509 240.875 103.881 240.539C104.924 239.593 104.6 238.175 103.921 237.927C103.719 237.933 103.497 237.861 103.32 237.96C102.87 238.211 102.461 238.58 102.378 239.148C102.307 239.588 102.3 240.023 102.278 240.454ZM103.531 238.956C103.588 238.902 103.729 238.883 103.784 238.921C103.992 239.048 104.035 239.395 103.912 239.681C103.782 239.985 103.574 240.041 103.416 239.826C103.266 239.62 103.312 239.172 103.531 238.956Z" fill="#009DAF"/>
<path d="M51 19.8908C51 16.6559 52.4624 13.6228 53.7573 10.7453C54.2831 9.57683 55.1931 8.70786 56.0453 7.80549C56.6384 7.17748 57.1457 6.45741 57.7466 5.85646C58.1835 5.4196 58.7251 5.12573 59.1546 4.69617C59.6429 4.20792 60.2496 3.70363 60.9081 3.46417C61.509 3.24568 62.0493 2.7567 62.616 2.47336C62.845 2.35884 63.0877 2.43303 63.32 2.31692C63.613 2.17039 63.9084 2.06865 64.2325 2.05618C64.7603 2.03588 65.2248 1.70418 65.7839 1.70418C66.2873 1.70418 66.7336 1.46951 67.2506 1.46951C67.6895 1.46951 68.1343 1.11752 68.5413 1.11752C69.0592 1.11752 69.5204 1.00018 70.0079 1.00018" stroke="#E8E8E8" stroke-linecap="round" stroke-linejoin="round"/>
<path d="M89.1906 19.8906C89.1906 16.6557 87.7282 13.6227 86.4333 10.7452C85.9075 9.57665 84.9975 8.70768 84.1453 7.80531C83.5522 7.1773 83.0449 6.45723 82.444 5.85628C82.0071 5.41942 81.4655 5.12555 81.036 4.69599C80.5477 4.20774 79.941 3.70345 79.2825 3.46399C78.6816 3.2455 78.1413 2.75652 77.5747 2.47318C77.3456 2.35866 77.1029 2.43285 76.8707 2.31674C76.5776 2.17021 76.2822 2.06846 75.9581 2.056C75.4303 2.0357 74.9658 1.704 74.4067 1.704C73.9033 1.704 73.4571 1.46933 72.94 1.46933C72.5011 1.46933 72.0563 1.11733 71.6493 1.11733C71.1315 1.11733 70.6703 1 70.1827 1" stroke="#E8E8E8" stroke-linecap="round" stroke-linejoin="round"/>
<path d="M69.9979 1.14923C69.5686 1.48461 69.1408 1.8127 68.7188 2.14088C68.5489 2.27304 68.4068 2.53853 68.2072 2.62723C67.997 2.72065 67.9536 2.93619 67.7809 3.03779C67.4581 3.22766 66.9449 3.69534 66.7576 4.02313C66.6358 4.23628 66.4418 4.30111 66.3028 4.47474C66.1764 4.63274 66.0353 4.80231 65.8923 4.9453C65.4027 5.43489 64.7532 6.03597 64.4396 6.66332C64.0475 7.44737 63.6978 8.20364 63.3026 8.99402C63.1214 9.35647 62.8705 9.81574 62.7815 10.2162C62.7233 10.4781 62.5339 10.6733 62.4089 10.8984C62.3214 11.0559 62.2789 11.2526 62.1657 11.3942C62.0544 11.5333 62.0158 11.8325 61.9383 12.0069C61.8557 12.1928 61.7483 12.4146 61.6951 12.6006C61.651 12.7551 61.4656 12.9147 61.3856 13.0585C61.2592 13.2861 61.1694 13.5144 61.0856 13.7565C60.7478 14.7324 60.4477 15.6045 60.4477 16.6683C60.4477 17.1915 60.334 17.6995 60.334 18.2315C60.334 18.6579 60.334 19.0842 60.334 19.5106" stroke="#E8E8E8" stroke-linecap="round" stroke-linejoin="round"/>
<path d="M70.1928 1.14923C70.622 1.48461 71.0499 1.8127 71.4718 2.14088C71.6417 2.27304 71.7838 2.53853 71.9834 2.62723C72.1936 2.72065 72.237 2.93619 72.4098 3.03779C72.7325 3.22766 73.2457 3.69534 73.433 4.02313C73.5548 4.23628 73.7489 4.30111 73.8878 4.47474C74.0142 4.63274 74.1553 4.80231 74.2983 4.9453C74.7879 5.43489 75.4374 6.03597 75.7511 6.66332C76.1431 7.44737 76.4928 8.20364 76.888 8.99402C77.0692 9.35647 77.3201 9.81574 77.4091 10.2162C77.4673 10.4781 77.6567 10.6733 77.7817 10.8984C77.8693 11.0559 77.9117 11.2526 78.0249 11.3942C78.1362 11.5333 78.1748 11.8325 78.2523 12.0069C78.335 12.1928 78.4423 12.4146 78.4955 12.6006C78.5396 12.7551 78.7251 12.9147 78.805 13.0585C78.9314 13.2861 79.0212 13.5144 79.105 13.7565C79.4428 14.7324 79.7429 15.6045 79.7429 16.6683C79.7429 17.1915 79.8566 17.6995 79.8566 18.2315C79.8566 18.6579 79.8566 19.0842 79.8566 19.5106" stroke="#E8E8E8" stroke-linecap="round" stroke-linejoin="round"/>
<path d="M70.0549 1.43354C70.0192 1.22995 70.1117 0.891545 70.1117 1.263C70.1117 1.35836 70.0638 1.65667 70.1401 1.71777C70.2607 1.81425 70.1921 2.43482 70.2286 2.59889C70.3625 3.20177 70.3959 3.77662 70.3959 4.41797C70.3959 5.11908 70.3959 5.82018 70.3959 6.52129C70.3959 7.3648 70.5096 8.18347 70.5096 9.01621C70.5096 10.1276 70.5665 11.2314 70.5665 12.348C70.5665 13.2118 70.4528 14.035 70.4528 14.9061C70.4528 15.6473 70.3391 16.3949 70.3391 17.1358C70.3391 17.9274 70.3391 18.719 70.3391 19.5107" stroke="#E8E8E8" stroke-linecap="round" stroke-linejoin="round"/>
<path d="M51.1268 19.9964C51.2853 19.8811 51.4418 19.7495 51.5899 19.6343C51.6669 19.5744 51.7021 19.4892 51.7957 19.4475C51.8531 19.422 51.9666 19.3726 52.0111 19.337C52.1243 19.2464 52.2721 19.1672 52.4132 19.1045C52.5734 19.0333 52.784 19.0296 52.9277 18.9177C52.9604 18.8923 53.1233 18.8453 53.1697 18.832C53.2567 18.8071 53.3385 18.8419 53.4251 18.8034C53.5684 18.7397 53.8075 18.6647 53.9663 18.6586C54.3452 18.644 54.7558 18.5325 55.1231 18.4509C55.5306 18.3603 55.9695 18.3499 56.3941 18.3499C56.5879 18.3499 56.7818 18.3771 56.9659 18.3842C57.2067 18.3934 57.4412 18.5089 57.6786 18.5214C58.1487 18.5461 58.5852 18.8315 59.0335 18.9311C59.2322 18.9752 59.4471 19.0558 59.6338 19.1388C59.7607 19.1952 60.2856 19.1628 60.2856 19.3446" stroke="#E8E8E8" stroke-linecap="round" stroke-linejoin="round"/>
<path d="M60.3885 19.6189C60.5203 19.4502 60.7201 19.3642 60.8687 19.2072C60.9934 19.0756 61.217 18.9134 61.4099 18.8985C61.6186 18.8825 61.8809 18.74 62.0693 18.6508C62.2365 18.5716 62.5036 18.515 62.6867 18.4888C63.2366 18.4102 63.8033 18.2125 64.3599 18.2125C64.8349 18.2125 65.2702 18.0753 65.7397 18.0753C66.1829 18.0753 66.7963 17.9773 67.2147 18.1267C67.3105 18.161 67.4373 18.1578 67.5386 18.1763C67.6468 18.1959 67.754 18.2311 67.8645 18.2449C68.0988 18.2742 68.331 18.4019 68.5601 18.4183C68.6882 18.4274 68.97 18.4779 69.067 18.5555C69.2156 18.6744 69.4654 18.6854 69.633 18.7785C69.7832 18.8619 69.9116 18.9818 70.0446 19.0853C70.1464 19.1645 70.3471 19.2292 70.4048 19.3445" stroke="#E8E8E8" stroke-linecap="round" stroke-linejoin="round"/>
<path d="M79.975 19.5847C79.809 19.3124 79.4907 19.0765 79.2375 18.8796C78.9695 18.6711 78.7189 18.4986 78.4143 18.3345C77.6062 17.8994 76.6902 17.8009 75.7901 17.8009C75.5253 17.8009 75.2212 17.757 74.9669 17.8352C74.7154 17.9126 74.4136 17.9887 74.1512 18.0068C73.9099 18.0234 73.6541 18.1082 73.4157 18.1516C73.1101 18.2071 72.7956 18.285 72.5047 18.3917C72.0722 18.5503 71.6737 18.7889 71.2355 18.9405C71.0107 19.0184 70.8058 19.1486 70.5838 19.234C70.5426 19.2499 70.3115 19.3936 70.3018 19.4132" stroke="#E8E8E8" stroke-linecap="round" stroke-linejoin="round"/>
<path d="M89.2712 19.9278C89.0347 19.6913 88.8842 19.366 88.6194 19.1579C88.3983 18.9842 88.1915 18.8228 87.9334 18.7006C87.2271 18.366 86.4697 18.3842 85.7075 18.3842C84.5298 18.3842 83.3343 18.2262 82.1915 18.6072C81.9289 18.6947 81.6605 18.7597 81.3969 18.8492C81.1779 18.9236 80.9626 18.9912 80.7375 19.0436C80.5842 19.0792 80.3566 19.1407 80.2153 19.2151C80.1246 19.2629 80.0513 19.3447 79.9409 19.3447" stroke="#E8E8E8" stroke-linecap="round" stroke-linejoin="round"/>
<path d="M70.0228 39.9233C69.1545 39.2655 68.5349 38.453 67.5808 37.9079C67.259 37.724 67.0679 37.3939 66.7383 37.0654C66.4099 36.738 65.8959 36.2283 65.8959 36.2283C65.8959 36.2283 64.4654 34.6538 63.8325 34.0209C63.4673 33.6557 63.2357 33.2746 62.8247 32.8212C62.2908 32.2322 61.865 31.8615 61.3851 31.3816C60.8752 30.8717 60.4649 30.3943 59.8442 29.7927C59.2272 29.1946 58.7285 28.821 58.218 28.3104C57.2649 27.3574 56.1739 26.4203 55.3601 25.3353C55.0791 24.9606 54.9058 24.6013 54.571 24.1622C54.3566 23.8811 54.2269 23.7307 53.9951 23.4638C53.7941 23.2323 53.6578 23.1228 53.4673 22.8826C53.2369 22.5921 53.1711 22.3829 52.9394 22.0935C52.7405 21.845 52.5797 21.748 52.3849 21.4963C52.1827 21.235 52.1063 20.9953 51.9317 20.7818C51.7744 20.5896 51.1795 19.6415 51.1159 19.7688" stroke="#E8E8E8" stroke-linecap="round" stroke-linejoin="round"/>
<path d="M70.0524 40C69.979 39.823 69.8712 39.7074 69.763 39.5535C69.6224 39.3534 69.5223 39.0861 69.4115 38.8671C69.197 38.443 68.9179 38.0385 68.7583 37.5895C68.6087 37.1688 68.4012 36.7886 68.1836 36.3988C67.7238 35.5751 67.2913 34.7409 66.815 33.9263C66.6799 33.6951 66.6272 33.5937 66.5359 33.3929C66.4237 33.146 66.3054 32.8596 66.1287 32.6508C65.8679 32.3425 65.768 31.9173 65.5416 31.5903C64.8723 30.6236 64.412 29.5193 63.9146 28.4624C63.671 27.9447 63.3949 27.4321 63.1849 26.8975C62.9066 26.1891 62.4268 25.5562 62.2008 24.8219C62.0551 24.3484 61.8289 23.8945 61.6985 23.4162C61.5393 22.8325 61.374 22.2784 61.13 21.7293C61.0663 21.586 61.0427 21.4002 61.0018 21.2455C60.938 21.0046 60.7976 20.7763 60.7496 20.5364C60.7075 20.3258 60.6314 20.1369 60.5987 19.9245C60.5725 19.7546 60.4519 19.5943 60.4519 19.4222" stroke="#E8E8E8" stroke-linecap="round" stroke-linejoin="round"/>
<path d="M70.3501 19.3477C70.3501 20.5238 70.4167 21.7252 70.315 22.8952C70.2792 23.3061 70.3363 23.7218 70.2943 24.1335C70.2383 24.682 70.164 25.2631 70.164 25.8142C70.164 26.4263 70.1373 27.036 70.1268 27.6458C70.1116 28.5313 70.2013 29.4132 70.2013 30.2961C70.2013 30.7088 70.17 31.0998 70.1268 31.5096C70.0848 31.9091 70.0694 32.3318 69.9966 32.7252C69.9353 33.056 69.9408 33.4466 69.9408 33.7836C69.9408 34.4817 69.9408 35.1797 69.9408 35.8778C69.9408 36.8723 69.9408 37.8774 69.9408 38.8671C69.9408 39.227 69.9036 39.597 69.9036 39.9627" stroke="#E8E8E8" stroke-linecap="round" stroke-linejoin="round"/>
<path d="M69.9781 40C70.4924 39.3805 70.9346 38.7096 71.357 38.0257C71.8209 37.2746 72.3476 36.5629 72.8061 35.8096C73.6065 34.4946 74.2227 33.0813 74.8528 31.6812C75.2021 30.9048 75.5767 30.1611 75.9856 29.4154C76.0492 29.2995 76.0806 29.1657 76.1345 29.0433C76.1977 28.8995 76.2987 28.7768 76.3577 28.6319C76.6149 28.0008 76.8644 27.3659 77.1144 26.7321C77.4573 25.8626 77.9532 25.0658 78.1832 24.1459C78.4205 23.1965 78.8961 22.382 79.2892 21.4977C79.5007 21.0219 79.8032 20.5432 79.8783 20.0175C79.8927 19.9171 79.9507 19.8216 79.9507 19.7198C79.9507 19.611 79.9174 19.4016 80.0251 19.3477" stroke="#E8E8E8" stroke-linecap="round" stroke-linejoin="round"/>
<path d="M70.0897 39.9999C70.2948 39.6054 70.6753 39.4403 71.0013 39.1626C71.4389 38.7898 71.9347 38.5 72.3575 38.1021C72.7877 37.6972 73.2251 37.2907 73.6619 36.8948C74.078 36.5177 74.3812 36.0355 74.8134 35.6668C75.4427 35.13 75.9172 34.43 76.4114 33.7752C76.8468 33.1983 77.2965 32.6311 77.7945 32.1069C78.512 31.3516 78.9245 30.3685 79.5806 29.56C79.9158 29.147 80.2681 28.7092 80.6432 28.3341C81.065 27.9123 81.535 27.5469 81.9973 27.1703C82.4332 26.815 82.8504 26.4455 83.2542 26.0539C83.5346 25.7819 83.8714 25.5586 84.17 25.3056C84.5188 25.0099 84.8124 24.6642 85.1478 24.3546C85.5164 24.0144 85.9218 23.7212 86.2765 23.3664C86.5835 23.0595 86.8709 22.7349 87.1779 22.4279C87.6076 21.9982 87.8848 21.5608 88.2074 21.0469C88.427 20.6971 88.6539 20.3027 88.9475 20.0092C89.0173 19.9394 89.1377 19.8768 89.179 19.7942" stroke="#E8E8E8" stroke-linecap="round" stroke-linejoin="round"/>
<path d="M84.2661 8.06606C83.988 8.33146 83.7006 8.56505 83.3934 8.78746C83.1665 8.9517 82.8593 9.08511 82.6614 9.28238C82.4899 9.45333 82.219 9.40793 82.0719 9.54218C81.9575 9.64658 81.7219 9.74273 81.5842 9.78305" stroke="#E8E8E8" stroke-linecap="round" stroke-linejoin="round"/>
<path d="M82.021 7.36529C82.2167 7.33962 82.8438 7.06516 82.9814 6.8905" stroke="#E8E8E8" stroke-linecap="round" stroke-linejoin="round"/>
<path d="M81.5843 11.8635C82.0366 11.8635 82.3546 11.5176 82.7295 11.2884C82.8918 11.1892 83.0549 11.0794 83.2203 10.9884C83.3933 10.8932 83.6445 10.7153 83.8338 10.6934C84.0296 10.6707 84.2041 10.4234 84.4245 10.4234C84.5735 10.4234 84.7882 10.2666 84.8972 10.1533C85.1051 9.93725 85.3592 9.53386 85.6334 9.43329" stroke="#E8E8E8" stroke-linecap="round" stroke-linejoin="round"/>
<path d="M81.8735 14.1812C82.5435 14.1812 83.1726 13.6665 83.7549 13.3461C84.1982 13.1022 84.6281 12.8232 85.0683 12.581C85.6182 12.2785 86.1286 11.8626 86.6588 11.571" stroke="#E8E8E8" stroke-linecap="round" stroke-linejoin="round"/>
<path d="M81.8735 16.5033C83.1065 16.5033 84.0753 15.6778 85.1771 15.1923C85.3623 15.1106 85.5869 14.8771 85.7453 14.7381C86.0149 14.5014 86.2876 14.2731 86.5574 14.0361C86.7924 13.8296 87.1399 13.4966 87.4223 13.3909" stroke="#E8E8E8" stroke-linecap="round" stroke-linejoin="round"/>
<path d="M83.6088 17.7886C84.7149 17.7886 85.4948 17.0881 86.3983 16.5827C87.0347 16.2267 87.4654 15.5137 88.0999 15.1982" stroke="#E8E8E8" stroke-linecap="round" stroke-linejoin="round"/>
<path d="M87.3312 18.0496C87.6548 17.9233 88.5111 17.244 88.7998 17.0516" stroke="#E8E8E8" stroke-linecap="round" stroke-linejoin="round"/>
<path d="M341.959 231.573C342.091 232.536 341.921 233.454 341.178 234.232C340.691 234.741 340.126 235.042 339.406 234.995C338.958 234.972 338.501 234.941 338.06 234.972C335.971 235.103 334.602 233.184 334.873 231.288C334.942 230.81 335.097 230.339 335.244 229.885C335.329 229.623 335.322 229.414 335.097 229.229C334.679 228.89 334.277 228.52 333.836 228.227C332.939 227.634 332.01 227.086 331.097 226.508C330.842 226.346 330.595 226.277 330.347 226.47C328.854 227.626 327.183 227.557 325.45 227.218C324.212 226.979 323.059 226.601 322.162 225.66C321.984 225.475 321.821 225.275 321.667 225.067C321.504 224.843 321.311 224.782 321.063 224.874C319.57 225.414 318.069 225.969 316.576 226.508C316.228 226.632 316.042 226.863 316.004 227.248C315.864 228.613 315.199 229.754 314.332 230.771C314.108 231.041 313.698 231.234 313.342 231.295C312.561 231.426 311.779 231.295 311.044 230.979C309.42 230.278 308.654 228.674 309.149 226.917C309.466 225.791 310.039 224.813 311.16 224.335C312.53 223.749 313.814 224.003 314.92 224.99C315.245 225.275 315.524 225.329 315.926 225.175C317.458 224.581 318.998 224.011 320.545 223.456C320.878 223.332 320.986 223.163 320.901 222.824C320.823 222.515 320.777 222.192 320.723 221.883C320.63 221.313 320.669 220.758 320.924 220.234C322.069 217.821 323.872 216.302 326.603 216.009C326.719 215.994 326.827 215.956 326.943 215.948C327.314 215.917 327.438 215.717 327.438 215.354C327.438 214.082 327.454 212.818 327.469 211.546C327.469 211.246 327.407 210.976 327.074 210.945C325.713 210.806 325.156 209.827 324.839 208.71C324.552 207.692 324.645 206.651 325.117 205.672C325.581 204.67 326.401 204.2 327.454 204.077C327.469 204.077 327.477 204.077 327.492 204.077C328.297 203.992 329.117 203.853 329.813 204.455C330.726 205.264 331.43 206.189 331.67 207.43C331.809 208.139 331.685 208.825 331.531 209.48C331.33 210.313 330.656 210.737 329.829 210.907C329.341 211.007 329.272 211.068 329.295 211.562C329.349 212.841 329.395 214.121 329.45 215.408C329.473 215.963 329.542 215.986 330.107 216.002C330.618 216.017 331.144 216.04 331.631 216.171C332.428 216.379 332.83 216.958 333.001 217.767C333.434 219.856 333.295 221.868 332.366 223.803C332.258 224.034 332.32 224.219 332.505 224.381C333.279 225.059 334.037 225.753 334.826 226.408C335.074 226.616 335.391 226.755 335.677 226.932C335.948 227.102 336.25 227.248 336.467 227.464C336.931 227.942 337.472 228.119 338.138 228.089C339.136 228.05 340.079 228.266 340.9 228.883C341.58 229.391 342.029 230.039 341.967 230.941C341.944 231.133 341.959 231.326 341.959 231.573ZM323.887 223.178C323.918 223.201 323.949 223.225 323.98 223.24C324.034 223.209 324.088 223.186 324.135 223.147C324.429 222.862 324.707 222.562 325.017 222.284C325.434 221.906 325.891 221.614 326.486 221.614C326.811 221.614 327.121 221.66 327.252 221.999C327.392 222.361 327.206 222.585 326.943 222.855C326.363 223.464 325.844 224.134 325.326 224.789C325.272 224.859 325.334 225.013 325.341 225.121C325.442 225.082 325.566 225.075 325.635 225.013C325.79 224.859 325.906 224.674 326.053 224.512C326.363 224.18 326.711 223.934 327.191 223.965C327.554 223.988 327.686 224.227 327.515 224.543C327.407 224.743 327.291 224.928 327.136 225.19C327.368 225.213 327.523 225.252 327.678 225.244C328.436 225.183 329.009 224.789 329.457 224.211C330.417 222.978 330.927 221.583 330.958 220.018C330.981 219.077 330.579 218.515 329.651 218.291C328.73 218.068 327.794 218.052 326.866 218.283C326.208 218.445 325.589 218.692 325.233 219.332C324.947 219.848 324.993 219.902 325.512 220.095C325.736 220.18 325.968 220.388 326.084 220.604C326.223 220.858 325.945 220.997 325.782 221.151C325.233 221.675 324.684 222.192 324.15 222.731C324.034 222.862 323.972 223.032 323.887 223.178ZM338.695 229.808C338.354 229.885 338.099 229.892 337.89 230.008C337.72 230.1 337.488 230.316 337.496 230.463C337.55 231.303 337.588 232.159 338.215 232.829C338.455 233.084 338.718 233.138 339.004 232.96C339.561 232.621 340.018 232.182 340.304 231.58C340.567 231.025 340.428 230.478 339.878 230.208C339.492 230.016 339.043 229.923 338.695 229.808ZM327.252 208.386C327.229 208.787 327.361 209.049 327.655 209.218C328.011 209.419 328.382 209.473 328.753 209.241C329.279 208.91 329.581 208.417 329.736 207.823C329.945 207.014 329.395 206.328 328.56 206.374C328.421 206.382 328.243 206.443 328.15 206.536C327.639 207.075 327.33 207.708 327.252 208.386ZM312.422 227.603C312.414 227.603 312.406 227.603 312.398 227.603C312.398 227.857 312.406 228.119 312.398 228.374C312.375 228.767 312.569 229.052 312.832 229.314C313.04 229.522 313.226 229.522 313.427 229.307C314.155 228.551 314.425 227.649 314.278 226.624C314.232 226.285 313.992 226.046 313.667 225.946C313.45 225.876 312.522 226.323 312.468 226.493C312.437 226.578 312.429 226.67 312.429 226.755C312.422 227.04 312.422 227.318 312.422 227.603Z" fill="#E8E8E8"/>
<path d="M322.721 27.6623C321.45 27.1254 320.147 26.6393 318.912 26.0383C315.761 24.5019 312.632 22.9185 309.496 21.3485C308.806 21.0017 308.126 20.6511 307.439 20.2976C307.021 20.0814 306.6 19.9273 306.103 20.0355C305.757 20.1119 305.547 19.8961 305.351 19.6305C305.079 19.2618 304.799 18.8969 304.458 18.5943C303.913 18.1018 303.58 17.5083 303.407 16.8073C303.071 15.4177 303.265 14.0452 303.703 12.7199C304.562 10.1258 305.753 7.68798 307.496 5.54649C308.017 4.90806 308.658 4.36027 309.269 3.7915C309.571 3.50569 309.969 3.40338 310.366 3.46757C311.023 3.57806 311.694 3.69427 312.33 3.9072C315.452 4.92318 318.367 6.37594 321.301 7.82101C323.352 8.82979 325.489 9.6604 327.593 10.5485C328.236 10.8198 328.919 10.9809 329.561 11.2522C331.227 11.971 332.884 12.7261 334.553 13.4544C335.138 13.7095 335.341 14.2162 335.384 14.7749C335.471 15.9086 335.53 17.0539 334.986 18.1277C334.878 18.3365 334.953 18.4397 335.155 18.5091C335.434 18.6032 335.714 18.6973 335.984 18.8116C336.465 19.0143 336.725 19.3707 336.738 19.9084C336.761 20.9513 336.859 21.9864 336.581 23.0214C336.264 24.1991 335.7 25.2088 334.706 25.9574C334.236 26.3153 333.755 26.6609 333.253 26.9653C333 27.1209 332.684 27.202 332.39 27.2686C332.265 27.2957 332.094 27.2473 331.978 27.1825C331.535 26.9318 331.107 26.6476 330.657 26.4103C330.566 26.3637 330.36 26.412 330.271 26.4858C329.548 27.1104 328.828 27.7444 328.122 28.3842C328.012 28.4888 327.931 28.6373 327.876 28.7809C327.641 29.389 327.179 29.5996 326.547 29.3408C325.259 28.8049 323.976 28.2556 322.691 27.7131C322.704 27.7025 322.713 27.6824 322.721 27.6623ZM323.396 26.1824C323.404 26.1623 323.413 26.1422 323.419 26.1288C324.332 26.5143 325.249 26.8931 326.159 27.2853C326.508 27.4405 326.782 27.3815 327.048 27.1044C327.571 26.554 328.115 26.0284 328.654 25.4933C329.834 24.3224 330.904 23.0732 331.661 21.5884C332.673 19.5758 333.212 17.4743 333.14 15.2268C333.132 14.8813 333.005 14.6769 332.677 14.5302C331.857 14.1684 331.065 13.7626 330.251 13.3874C329.885 13.2169 329.51 13.0665 329.129 12.9296C328.66 12.7555 328.171 12.6284 327.708 12.4409C326.376 11.8946 325.049 11.3187 323.72 10.7657C323.375 10.62 323.286 10.6776 323.257 11.0547C323.209 11.7103 323.188 12.361 323.134 13.0137C322.941 15.4599 322.164 17.7226 320.763 19.762C319.938 20.9637 318.882 21.9803 317.801 22.9625C317.482 23.2493 317.504 23.4014 317.877 23.5748C319.732 24.4452 321.564 25.3138 323.396 26.1824ZM306.109 10.9855C305.944 11.4327 305.71 11.9854 305.532 12.5541C305.187 13.6323 304.882 14.7277 305.013 15.8718C305.056 16.2477 305.189 16.6216 305.34 16.9714C305.472 17.2735 305.738 17.3064 306.008 17.0944C306.214 16.9351 306.4 16.7672 306.589 16.5926C307.046 16.1735 307.538 15.8011 307.783 15.1891C308.703 12.9308 309.488 10.6316 309.897 8.22135C310.051 7.32443 310.111 6.42006 310.188 5.51469C310.201 5.37688 310.064 5.23174 309.997 5.09218C309.865 5.15563 309.705 5.19139 309.604 5.29208C309.415 5.46665 309.261 5.67176 309.093 5.87116C307.822 7.37721 307.021 9.14535 306.109 10.9855ZM314.802 13.4149C314.799 13.4216 314.799 13.4216 314.796 13.4283C314.505 13.3055 314.214 13.1827 313.916 13.0571C313.882 13.0428 313.849 13.0285 313.815 13.0142C313.437 12.8706 313.038 12.9566 312.838 13.2853C312.673 13.5497 312.524 13.8524 312.481 14.152C312.45 14.3693 312.534 14.7069 312.693 14.8376C313.083 15.1535 313.525 15.4271 313.979 15.6347C314.799 16.0128 315.64 16.3439 316.477 16.6655C316.896 16.8262 317.33 16.9698 317.767 17.0511C317.924 17.0775 318.196 16.9698 318.288 16.8337C318.636 16.3526 318.674 15.7726 318.552 15.2284C318.457 14.8067 317.971 14.7609 317.626 14.599C317.493 14.5351 317.349 14.4981 317.214 14.441C316.418 14.0974 315.607 13.7547 314.802 13.4149ZM332.158 25.2951C332.451 25.5222 332.745 25.4001 333.038 25.1181C333.33 24.8361 333.674 24.6 333.922 24.2913C334.229 23.9041 334.586 23.4909 334.711 23.0428C334.925 22.2271 334.985 21.3782 335.099 20.5359C335.151 20.1607 334.88 20.0302 334.581 19.9438C334.259 19.8555 334.22 20.1092 334.134 20.3036C334.084 20.4176 334.027 20.5287 334 20.6445C333.62 22.1132 332.783 23.3418 331.913 24.556C331.596 24.9864 331.602 25.0447 332.158 25.2951ZM316.524 12.9814C316.549 13.0158 316.574 13.0502 316.599 13.0846C316.757 13.0163 316.916 12.9643 317.06 12.874C317.848 12.3958 318.621 11.8955 319.423 11.4392C319.676 11.2999 320.007 11.2408 320.304 11.2392C320.714 11.2374 320.897 11.569 320.695 11.9206C320.568 12.1371 320.39 12.3404 320.19 12.4863C319.685 12.8692 319.138 13.2187 318.626 13.5987C318.531 13.6698 318.427 13.8882 318.46 13.9417C318.552 14.0601 318.708 14.1421 318.856 14.1886C318.941 14.2162 319.069 14.1432 319.166 14.1047C319.431 13.9941 319.679 13.8682 319.941 13.7642C320.517 13.5304 320.551 13.5447 320.982 14.005C321.021 14.0451 321.078 14.0612 321.177 14.127C321.231 13.8953 321.286 13.6962 321.309 13.499C321.353 13.1602 321.381 12.8224 321.409 12.4845C321.47 11.7629 321.54 11.0375 321.58 10.3073C321.613 9.75701 321.408 9.62255 320.932 9.88291C320.425 10.1615 319.918 10.4401 319.446 10.7656C318.54 11.3847 317.663 12.0316 316.781 12.6689C316.683 12.7466 316.611 12.875 316.524 12.9814ZM310.607 12.7572C310.632 12.7916 310.664 12.8289 310.689 12.8633C310.91 12.7259 311.138 12.6077 311.338 12.4456C312.47 11.5484 313.591 10.6388 314.73 9.7445C315.469 9.15822 316.232 8.60633 316.978 8.02291C317.063 7.95574 317.159 7.75746 317.122 7.69439C316.966 7.42968 316.391 7.38598 316.132 7.59419C314.577 8.81381 313.034 10.0621 311.449 11.2607C310.912 11.6619 310.742 12.178 310.607 12.7572ZM319.451 9.01927C319.427 8.94564 319.419 8.85476 319.37 8.80224C319.06 8.44889 318.486 8.40519 318.119 8.71124C316.831 9.781 315.54 10.8575 314.252 11.9272C314.166 11.9944 314.078 12.0683 314.016 12.1536C313.964 12.2187 313.952 12.3173 313.924 12.4006C314.008 12.4282 314.118 12.5064 314.186 12.4795C314.419 12.3871 314.654 12.2717 314.865 12.1383C316.313 11.16 317.748 10.1761 319.187 9.20166C319.266 9.1479 319.346 9.09414 319.451 9.01927ZM319.964 17.6366C318.393 18.6582 316.913 19.6155 315.434 20.5727C315.982 20.6213 316.562 20.4525 317.093 20.1203C317.358 19.9542 317.598 19.9201 317.889 20.0592C318.001 20.1145 318.242 20.0967 318.31 20.0143C318.92 19.302 319.529 18.5897 319.964 17.6366ZM316.691 18.0591C316.685 18.0171 316.676 17.9654 316.67 17.9233C316.471 17.9027 316.265 17.8237 316.079 17.8643C315.216 18.0567 314.577 18.6532 313.866 19.1237C313.776 19.1813 313.865 19.4892 313.869 19.6815C314.01 19.6535 314.169 19.6569 314.284 19.5945C314.995 19.1633 315.705 18.7158 316.405 18.2722C316.504 18.2107 316.596 18.1302 316.691 18.0591ZM311.802 7.49948C311.85 7.51947 311.901 7.54902 311.948 7.56901C312.41 7.17567 312.882 6.79475 313.333 6.389C313.383 6.34679 313.329 6.06942 313.261 6.04086C312.892 5.8771 312.515 5.74971 312.125 5.63288C312.061 5.61389 311.88 5.73581 311.873 5.80472C311.834 6.3684 311.825 6.9368 311.802 7.49948ZM321.088 14.4392C320.818 14.635 320.628 14.7933 320.417 14.9267C320.033 15.162 319.733 15.4249 319.876 15.9384C319.904 16.0216 319.884 16.1403 319.839 16.2246C319.62 16.6489 319.893 16.8675 320.176 17.0821C320.513 16.7714 321.085 15.1769 321.088 14.4392ZM309.471 15.4725C309.313 15.978 309.42 16.1185 309.922 16.0523C310.03 16.0425 310.155 16.0154 310.233 15.9454C310.643 15.578 311.053 15.2106 311.429 14.8127C311.501 14.7398 311.453 14.5208 311.403 14.3965C311.388 14.3582 311.159 14.3492 311.066 14.3972C310.661 14.6077 310.266 14.8306 309.883 15.0821C309.722 15.1734 309.602 15.3372 309.471 15.4725ZM311.236 18.2999C311.868 18.7415 311.927 18.7347 312.459 18.2915C312.702 18.0842 312.971 17.9114 313.228 17.7262C313.429 17.5803 313.633 17.4439 313.82 17.2924C313.873 17.2434 313.889 17.1544 313.921 17.0807C313.84 17.0464 313.757 16.9796 313.674 16.9846C313.569 16.9877 313.459 17.0367 313.363 17.0915C312.743 17.4258 312.13 17.763 311.516 18.1003C311.426 18.1416 311.354 18.2145 311.236 18.2999ZM312.369 16.0679C312.329 15.9953 312.282 15.9198 312.241 15.8472C312.15 15.9277 312.073 16.0303 311.967 16.0889C311.578 16.2983 311.175 16.4858 310.793 16.6981C310.655 16.775 310.55 16.9054 310.426 17.0042C310.608 17.065 310.794 17.1517 310.987 17.1694C311.087 17.1798 311.214 17.0905 311.306 17.0099C311.6 16.7767 311.892 16.534 312.179 16.2817C312.252 16.2251 312.304 16.1436 312.369 16.0679ZM311.503 9.18518C311.536 9.2387 311.568 9.29221 311.604 9.33902C311.79 9.22665 311.978 9.10758 312.157 8.99236C312.124 8.93885 312.096 8.8949 312.063 8.84139C311.877 8.95375 311.692 9.06611 311.503 9.18518Z" fill="#F1E66B"/>
<path d="M324.862 20.1977C324.632 20.0845 324.398 19.9781 324.173 19.8515C323.724 19.5984 323.574 19.1938 323.753 18.7855C323.926 18.3744 324.328 18.1872 324.824 18.317C325.37 18.46 325.907 18.6231 326.441 18.7929C326.693 18.8755 326.849 18.8302 326.985 18.594C327.234 18.1359 327.51 17.6892 327.78 17.2396C327.989 16.8915 328.353 16.7197 328.712 16.7762C329.079 16.8356 329.356 17.0795 329.293 17.4417C329.225 17.8889 329.09 18.34 328.891 18.7397C328.46 19.5736 328.444 19.5746 329.306 19.9462C329.461 20.0118 329.623 20.0802 329.775 20.1524C330.297 20.3882 330.511 20.8834 330.306 21.3682C330.107 21.8396 329.552 22.0815 329.047 21.9002C328.714 21.7834 328.383 21.6437 328.065 21.4935C327.757 21.3557 327.563 21.4325 327.411 21.7252C327.213 22.102 327.002 22.473 326.767 22.826C326.449 23.311 326.082 23.4733 325.702 23.3528C325.366 23.2427 325.172 23.0101 325.223 22.6747C325.295 22.2371 325.434 21.8117 325.557 21.3873C325.596 21.2611 325.659 21.1368 325.725 21.022C325.879 20.7456 325.793 20.5586 325.516 20.4417C325.3 20.3505 325.09 20.2621 324.874 20.1709C324.865 20.191 324.862 20.1977 324.862 20.1977Z" fill="#F1E66B"/>
</svg>
