<svg width="308" height="572" viewBox="0 0 308 572" fill="none" xmlns="http://www.w3.org/2000/svg">
<path d="M49.5 34L49.8213 34.3831L49.5 34ZM26.5 106L26.9879 105.891L26.5 106ZM40 135L39.6002 135.3L40 135ZM81 163L80.8185 163.466L81 163ZM127.5 179.5L127.68 179.033L127.5 179.5ZM189.5 206L189.697 205.541L189.5 206ZM237 224L237.281 223.587L237 224ZM273.5 266L273.969 265.828L273.5 266ZM267.5 332.5L267.956 332.706L267.5 332.5ZM244.5 360.5L244.199 360.101L244.5 360.5ZM201.5 376L201.324 375.532L201.5 376ZM158 393L158.198 393.459L158 393ZM107 417.5L107.341 417.866L107 417.5ZM81 459L80.5252 458.843L81 459ZM81 523.5L80.5708 523.757L81 523.5ZM138.5 554L138.644 553.521L138.5 554ZM189.5 561L189.436 561.496L189.5 561ZM120 1C119.838 0.52701 119.838 0.527013 119.838 0.527016C119.838 0.527019 119.838 0.527024 119.838 0.527029C119.838 0.52704 119.838 0.527054 119.838 0.527074C119.838 0.527112 119.837 0.527168 119.837 0.527241C119.837 0.527387 119.836 0.527601 119.835 0.527885C119.834 0.528452 119.831 0.529294 119.828 0.53041C119.821 0.532641 119.812 0.535967 119.799 0.540377C119.773 0.549198 119.735 0.562357 119.685 0.579774C119.584 0.614607 119.434 0.666469 119.238 0.734712C118.846 0.871198 118.27 1.07321 117.529 1.33556L117.864 2.27811C118.602 2.0164 119.177 1.81499 119.567 1.67908C119.762 1.61112 119.911 1.55953 120.011 1.52497C120.061 1.50769 120.099 1.49466 120.124 1.48597C120.137 1.48163 120.146 1.47836 120.153 1.4762C120.156 1.47511 120.158 1.4743 120.16 1.47377C120.161 1.4735 120.161 1.4733 120.162 1.47317C120.162 1.47311 120.162 1.47306 120.162 1.47303C120.162 1.47301 120.162 1.473 120.162 1.473C120.162 1.47299 120.162 1.47299 120.162 1.47299C120.162 1.47299 120.162 1.47299 120 1ZM112.942 2.9886C111.575 3.48831 110.04 4.05592 108.368 4.68374L108.719 5.61994C110.389 4.99319 111.921 4.42658 113.285 3.92777L112.942 2.9886ZM103.796 6.4221C102.336 6.98409 100.81 7.57831 99.2334 8.20118L99.6008 9.13125C101.175 8.50951 102.698 7.91634 104.155 7.35532L103.796 6.4221ZM94.6969 10.017C93.2164 10.6176 91.706 11.2384 90.1763 11.8768L90.5614 12.7996C92.0879 12.1626 93.5952 11.5431 95.0728 10.9436L94.6969 10.017ZM85.6709 13.7859C84.1831 14.4262 82.6869 15.0804 81.1916 15.7463L81.5983 16.6598C83.0896 15.9958 84.582 15.3432 86.0662 14.7044L85.6709 13.7859ZM76.7372 17.7673C75.249 18.4558 73.7706 19.1538 72.3113 19.8592L72.7465 20.7595C74.2003 20.0568 75.6735 19.3612 77.1571 18.6749L76.7372 17.7673ZM67.9304 22.0304C66.4477 22.7849 64.9962 23.5451 63.5867 24.3083L64.0629 25.1877C65.4641 24.4289 66.908 23.6727 68.3839 22.9216L67.9304 22.0304ZM59.3175 26.7087C57.8561 27.5643 56.4604 28.4209 55.1453 29.2747L55.6899 30.1134C56.9903 29.2691 58.3727 28.4207 59.8228 27.5717L59.3175 26.7087ZM51.1072 32.0867C50.428 32.5989 49.784 33.1093 49.1787 33.6169L49.8213 34.3831C50.4119 33.8878 51.0423 33.3882 51.7094 32.8851L51.1072 32.0867ZM49.1787 33.6169C48.5307 34.1604 47.8954 34.7082 47.2729 35.2604L47.9365 36.0085C48.552 35.4625 49.1802 34.9207 49.8213 34.3831L49.1787 33.6169ZM43.6077 38.7085C42.4029 39.9123 41.2546 41.1353 40.1622 42.3774L40.9131 43.0378C41.9909 41.8122 43.1245 40.6049 44.3145 39.4159L43.6077 38.7085ZM36.9691 46.2701C35.9388 47.6203 34.9701 48.9914 34.0624 50.3834L34.9 50.9296C35.794 49.5586 36.7484 48.2076 37.764 46.8768L36.9691 46.2701ZM31.4754 54.7067C30.6649 56.1899 29.919 57.695 29.2373 59.2219L30.1504 59.6296C30.8212 58.1273 31.5551 56.6461 32.3529 55.1862L31.4754 54.7067ZM27.3705 63.9039C26.8123 65.4881 26.3185 67.0939 25.8886 68.7213L26.8554 68.9767C27.2786 67.3751 27.7644 65.7949 28.3137 64.2362L27.3705 63.9039ZM24.7944 73.6398C24.4957 75.2815 24.258 76.9436 24.0805 78.6259L25.075 78.7308C25.2499 77.0729 25.4841 75.4355 25.7783 73.8188L24.7944 73.6398ZM23.7309 83.6488C23.6734 85.308 23.6711 86.9857 23.7235 88.6816L24.723 88.6507C24.6713 86.9761 24.6736 85.3202 24.7303 83.6834L23.7309 83.6488ZM24.0325 93.7028C24.1832 95.3509 24.3828 97.0153 24.6307 98.6959L25.62 98.55C25.3747 96.887 25.1773 95.2409 25.0283 93.6117L24.0325 93.7028ZM25.4913 103.65C25.6541 104.466 25.8277 105.286 26.0121 106.109L26.9879 105.891C26.8052 105.075 26.6332 104.263 26.472 103.454L25.4913 103.65ZM26.0121 106.109C26.2149 107.015 26.4207 107.892 26.6311 108.743L27.6019 108.503C27.3934 107.659 27.1892 106.79 26.9879 105.891L26.0121 106.109ZM28.0813 113.956C28.6428 115.743 29.2481 117.428 29.9175 119.057L30.8424 118.677C30.1848 117.077 29.589 115.419 29.0354 113.656L28.0813 113.956ZM32.2183 123.973C33.0393 125.529 33.9435 127.075 34.9502 128.654L35.7935 128.116C34.7999 126.558 33.9097 125.036 33.1028 123.506L32.2183 123.973ZM37.9965 133.123C38.5091 133.834 39.0432 134.559 39.6002 135.3L40.3997 134.7C39.8462 133.963 39.316 133.244 38.8077 132.539L37.9965 133.123ZM39.6002 135.3C40.1186 135.99 40.6363 136.661 41.1541 137.312L41.937 136.69C41.425 136.046 40.9128 135.383 40.3997 134.7L39.6002 135.3ZM44.4301 141.189C45.5988 142.485 46.7742 143.699 47.9634 144.84L48.6557 144.118C47.4846 142.994 46.3259 141.799 45.1729 140.519L44.4301 141.189ZM51.7662 148.212C53.0937 149.297 54.4453 150.311 55.8298 151.269L56.3986 150.446C55.0355 149.504 53.7053 148.505 52.3992 147.438L51.7662 148.212ZM60.1145 154C61.5559 154.848 63.0375 155.655 64.5677 156.434L65.0217 155.543C63.5075 154.772 62.0437 153.975 60.6215 153.138L60.1145 154ZM69.1364 158.626C70.6338 159.306 72.1792 159.974 73.7789 160.641L74.164 159.719C72.5719 159.054 71.036 158.39 69.5496 157.715L69.1364 158.626ZM78.463 162.541C79.2355 162.847 80.0205 163.155 80.8185 163.466L81.1815 162.534C80.3849 162.224 79.6016 161.917 78.8311 161.611L78.463 162.541ZM80.8185 163.466C81.5887 163.766 82.3578 164.061 83.1264 164.352L83.4807 163.417C82.7149 163.127 81.9487 162.833 81.1815 162.534L80.8185 163.466ZM87.7621 166.065C89.3094 166.624 90.8599 167.171 92.4188 167.713L92.7474 166.769C91.1914 166.228 89.6446 165.681 88.1015 165.125L87.7621 166.065ZM97.089 169.318C98.6324 169.843 100.189 170.369 101.763 170.9L102.083 169.953C100.509 169.421 98.9532 168.896 97.4111 168.371L97.089 169.318ZM106.436 172.48C107.97 173.001 109.524 173.531 111.103 174.076L111.429 173.131C109.848 172.585 108.293 172.054 106.758 171.533L106.436 172.48ZM115.758 175.703C117.278 176.241 118.823 176.795 120.396 177.37L120.739 176.431C119.162 175.855 117.614 175.299 116.091 174.76L115.758 175.703ZM125.015 179.087C125.776 179.375 126.545 179.668 127.32 179.967L127.68 179.033C126.902 178.734 126.132 178.44 125.369 178.152L125.015 179.087ZM127.32 179.967C128.083 180.26 128.831 180.55 129.565 180.835L129.928 179.903C129.192 179.617 128.443 179.327 127.68 179.033L127.32 179.967ZM134.048 182.595C135.593 183.208 137.079 183.804 138.518 184.387L138.894 183.461C137.453 182.876 135.964 182.279 134.417 181.665L134.048 182.595ZM142.968 186.214C144.485 186.843 145.958 187.463 147.404 188.077L147.795 187.157C146.346 186.541 144.871 185.921 143.352 185.29L142.968 186.214ZM151.824 189.976C153.298 190.615 154.762 191.256 156.234 191.904L156.637 190.988C155.163 190.34 153.698 189.699 152.222 189.058L151.824 189.976ZM160.636 193.852C162.072 194.49 163.532 195.14 165.034 195.809L165.441 194.895C163.939 194.227 162.478 193.576 161.042 192.938L160.636 193.852ZM169.438 197.769C170.855 198.399 172.318 199.047 173.836 199.719L174.241 198.804C172.723 198.133 171.261 197.485 169.844 196.855L169.438 197.769ZM178.244 201.659C179.662 202.282 181.131 202.924 182.658 203.588L183.057 202.671C181.531 202.007 180.063 201.365 178.645 200.744L178.244 201.659ZM187.084 205.505C187.81 205.818 188.55 206.136 189.303 206.459L189.697 205.541C188.945 205.217 188.206 204.899 187.48 204.586L187.084 205.505ZM189.303 206.459C190.104 206.804 190.895 207.131 191.676 207.443L192.047 206.514C191.274 206.205 190.491 205.881 189.697 205.541L189.303 206.459ZM196.482 209.224C198.145 209.796 199.768 210.31 201.359 210.786L201.646 209.828C200.066 209.355 198.456 208.845 196.807 208.278L196.482 209.224ZM206.276 212.186C207.94 212.64 209.585 213.077 211.202 213.516L211.464 212.551C209.836 212.109 208.206 211.676 206.54 211.221L206.276 212.186ZM216.1 214.898C217.713 215.379 219.319 215.892 220.93 216.461L221.263 215.518C219.633 214.942 218.011 214.425 216.385 213.94L216.1 214.898ZM225.646 218.306C227.151 218.957 228.67 219.679 230.211 220.492L230.678 219.607C229.112 218.782 227.57 218.049 226.043 217.388L225.646 218.306ZM234.594 223.023C235.296 223.464 236.004 223.927 236.719 224.413L237.281 223.587C236.557 223.094 235.839 222.624 235.127 222.176L234.594 223.023ZM236.719 224.413C237.379 224.863 238.03 225.308 238.671 225.75L239.239 224.926C238.595 224.483 237.943 224.037 237.281 223.587L236.719 224.413ZM242.54 228.461C243.85 229.397 245.117 230.324 246.344 231.25L246.946 230.452C245.712 229.52 244.437 228.588 243.122 227.648L242.54 228.461ZM250.057 234.153C251.297 235.161 252.491 236.175 253.642 237.205L254.309 236.46C253.145 235.419 251.938 234.394 250.688 233.377L250.057 234.153ZM257.056 240.438C258.165 241.554 259.23 242.697 260.254 243.877L261.009 243.221C259.97 242.023 258.889 240.864 257.765 239.733L257.056 240.438ZM263.199 247.531C264.124 248.77 265.012 250.055 265.866 251.395L266.709 250.858C265.842 249.497 264.94 248.192 264 246.933L263.199 247.531ZM268.243 255.441C268.97 256.784 269.67 258.182 270.344 259.643L271.252 259.224C270.569 257.744 269.86 256.327 269.122 254.965L268.243 255.441ZM272.192 263.969C272.476 264.689 272.756 265.423 273.031 266.172L273.969 265.828C273.692 265.071 273.41 264.329 273.122 263.602L272.192 263.969ZM273.031 266.172C273.313 266.942 273.581 267.709 273.834 268.473L274.783 268.158C274.526 267.384 274.255 266.608 273.969 265.828L273.031 266.172ZM275.218 273.146C275.634 274.743 275.989 276.327 276.286 277.899L277.269 277.713C276.967 276.119 276.607 274.512 276.185 272.894L275.218 273.146ZM277.025 282.713C277.217 284.342 277.349 285.959 277.425 287.565L278.424 287.517C278.347 285.889 278.213 284.249 278.018 282.596L277.025 282.713ZM277.486 292.433C277.451 294.066 277.36 295.687 277.218 297.297L278.214 297.385C278.358 295.753 278.45 294.11 278.486 292.454L277.486 292.433ZM276.636 302.136C276.392 303.745 276.1 305.343 275.764 306.933L276.742 307.139C277.082 305.532 277.378 303.914 277.625 302.286L276.636 302.136ZM274.628 311.677C274.209 313.247 273.751 314.809 273.258 316.362L274.212 316.665C274.709 315.098 275.171 313.521 275.595 311.935L274.628 311.677ZM271.684 320.987C271.13 322.515 270.545 324.036 269.935 325.55L270.863 325.924C271.477 324.4 272.066 322.868 272.624 321.328L271.684 320.987ZM268.039 330.059C267.713 330.805 267.381 331.55 267.044 332.294L267.956 332.706C268.294 331.959 268.627 331.21 268.955 330.459L268.039 330.059ZM267.044 332.294C266.723 333.004 266.402 333.694 266.08 334.367L266.982 334.799C267.307 334.119 267.632 333.422 267.956 332.706L267.044 332.294ZM264.003 338.428C263.247 339.806 262.477 341.105 261.68 342.342L262.521 342.884C263.331 341.625 264.113 340.306 264.88 338.908L264.003 338.428ZM259.069 346.063C258.145 347.269 257.179 348.424 256.155 349.551L256.895 350.224C257.937 349.077 258.922 347.899 259.863 346.671L259.069 346.063ZM252.969 352.799C251.901 353.813 250.771 354.82 249.569 355.836L250.215 356.6C251.429 355.573 252.574 354.554 253.658 353.525L252.969 352.799ZM246.017 358.709C245.427 359.168 244.821 359.631 244.199 360.101L244.801 360.899C245.427 360.427 246.037 359.96 246.631 359.498L246.017 358.709ZM244.199 360.101C243.577 360.57 242.959 361.016 242.345 361.44L242.913 362.263C243.538 361.831 244.168 361.377 244.801 360.899L244.199 360.101ZM238.482 363.856C237.115 364.626 235.761 365.301 234.412 365.901L234.818 366.815C236.195 366.202 237.577 365.513 238.973 364.728L238.482 363.856ZM230.169 367.57C228.72 368.072 227.266 368.512 225.8 368.916L226.066 369.88C227.548 369.472 229.023 369.025 230.497 368.515L230.169 367.57ZM221.354 370.043C219.882 370.391 218.393 370.728 216.872 371.078L217.096 372.052C218.612 371.704 220.108 371.365 221.585 371.016L221.354 370.043ZM212.384 372.146C210.928 372.511 209.442 372.905 207.919 373.348L208.199 374.308C209.707 373.869 211.18 373.478 212.626 373.117L212.384 372.146ZM203.508 374.746C202.788 374.994 202.061 375.255 201.324 375.532L201.676 376.468C202.404 376.195 203.123 375.936 203.834 375.691L203.508 374.746ZM201.324 375.532C200.58 375.811 199.85 376.085 199.133 376.353L199.484 377.29C200.201 377.021 200.931 376.748 201.676 376.468L201.324 375.532ZM194.759 377.986C193.251 378.548 191.799 379.088 190.382 379.616L190.731 380.553C192.146 380.026 193.602 379.484 195.108 378.923L194.759 377.986ZM186.007 381.25C184.527 381.805 183.076 382.351 181.635 382.898L181.99 383.833C183.429 383.287 184.879 382.741 186.358 382.186L186.007 381.25ZM177.271 384.571C175.834 385.128 174.39 385.693 172.92 386.277L173.288 387.206C174.756 386.624 176.198 386.059 177.633 385.504L177.271 384.571ZM168.583 388.02C167.183 388.59 165.747 389.182 164.261 389.801L164.646 390.724C166.129 390.106 167.563 389.515 168.96 388.946L168.583 388.02ZM159.955 391.618C159.25 391.919 158.533 392.226 157.802 392.541L158.198 393.459C158.927 393.145 159.644 392.838 160.348 392.538L159.955 391.618ZM157.802 392.541C157.066 392.858 156.337 393.164 155.616 393.461L155.996 394.386C156.723 394.087 157.456 393.778 158.198 393.459L157.802 392.541ZM151.204 395.199C149.691 395.772 148.207 396.309 146.751 396.823L147.083 397.766C148.545 397.25 150.036 396.71 151.558 396.135L151.204 395.199ZM142.261 398.372C140.736 398.891 139.235 399.396 137.758 399.902L138.082 400.848C139.558 400.343 141.054 399.839 142.583 399.319L142.261 398.372ZM133.264 401.479C131.762 402.025 130.278 402.589 128.808 403.185L129.184 404.112C130.64 403.521 132.112 402.962 133.606 402.419L133.264 401.479ZM124.426 405.095C122.998 405.766 121.578 406.486 120.161 407.27L120.645 408.145C122.041 407.372 123.441 406.663 124.851 406L124.426 405.095ZM116.058 409.736C114.756 410.585 113.454 411.501 112.146 412.497L112.752 413.292C114.04 412.312 115.323 411.41 116.604 410.574L116.058 409.736ZM108.438 415.527C107.847 416.044 107.254 416.58 106.659 417.134L107.341 417.866C107.928 417.318 108.513 416.79 109.096 416.28L108.438 415.527ZM106.659 417.134C106.04 417.711 105.437 418.283 104.848 418.85L105.542 419.57C106.127 419.007 106.726 418.439 107.341 417.866L106.659 417.134ZM101.33 422.375C100.146 423.612 99.0284 424.836 97.9702 426.059L98.7263 426.714C99.7728 425.504 100.879 424.292 102.052 423.066L101.33 422.375ZM94.817 429.926C93.7913 431.265 92.8265 432.615 91.9128 433.988L92.7453 434.542C93.6465 433.188 94.5984 431.856 95.611 430.534L94.817 429.926ZM89.2887 438.237C88.4706 439.667 87.6939 441.133 86.9487 442.647L87.8459 443.088C88.5824 441.592 89.3494 440.145 90.1566 438.734L89.2887 438.237ZM84.8701 447.179C84.234 448.665 83.6165 450.202 83.0099 451.8L83.9449 452.155C84.547 450.568 85.1593 449.044 85.7894 447.572L84.8701 447.179ZM81.3212 456.482C81.0553 457.254 80.7902 458.041 80.5252 458.843L81.4747 459.157C81.7386 458.358 82.0023 457.576 82.2668 456.807L81.3212 456.482ZM80.5252 458.843C80.2731 459.606 80.0238 460.364 79.7779 461.118L80.7286 461.428C80.974 460.676 81.2229 459.919 81.4747 459.157L80.5252 458.843ZM78.3168 465.682C77.8328 467.229 77.3681 468.759 76.9275 470.272L77.8876 470.551C78.3261 469.046 78.7888 467.523 79.2712 465.98L78.3168 465.682ZM75.6475 474.897C75.2382 476.468 74.861 478.023 74.5215 479.566L75.4982 479.781C75.8346 478.252 76.2087 476.709 76.6152 475.149L75.6475 474.897ZM73.6006 484.284C73.331 485.884 73.1094 487.473 72.9423 489.055L73.9368 489.16C74.1015 487.6 74.3202 486.032 74.5867 484.45L73.6006 484.284ZM72.6085 493.862C72.5578 495.474 72.5716 497.081 72.6569 498.687L73.6555 498.634C73.5718 497.058 73.5582 495.479 73.6081 493.894L72.6085 493.862ZM73.1326 503.492C73.3633 505.07 73.6697 506.649 74.0582 508.232L75.0294 507.994C74.6486 506.442 74.3483 504.894 74.1221 503.348L73.1326 503.492ZM75.4285 512.861C75.9454 514.349 76.5392 515.844 77.215 517.347L78.127 516.937C77.4631 515.46 76.8803 513.993 76.3731 512.533L75.4285 512.861ZM79.3711 521.665C79.7528 522.36 80.1525 523.057 80.5708 523.757L81.4291 523.243C81.017 522.554 80.6233 521.867 80.2475 521.183L79.3711 521.665ZM80.5708 523.757C80.9917 524.461 81.42 525.144 81.8556 525.807L82.6914 525.258C82.2637 524.607 81.8429 523.935 81.4291 523.243L80.5708 523.757ZM84.6977 529.729C85.7345 531.024 86.8064 532.23 87.9125 533.354L88.6252 532.652C87.5434 531.553 86.4942 530.373 85.4786 529.104L84.6977 529.729ZM91.4883 536.62C92.7519 537.656 94.0529 538.609 95.3897 539.491L95.9403 538.656C94.6311 537.793 93.3581 536.86 92.1224 535.847L91.4883 536.62ZM99.5519 541.96C100.969 542.715 102.421 543.41 103.905 544.057L104.305 543.14C102.842 542.503 101.414 541.819 100.022 541.077L99.5519 541.96ZM108.386 545.842C109.879 546.387 111.4 546.899 112.95 547.388L113.251 546.434C111.713 545.949 110.205 545.442 108.729 544.903L108.386 545.842ZM117.555 548.764C119.074 549.196 120.618 549.618 122.185 550.039L122.444 549.073C120.88 548.653 119.342 548.232 117.829 547.802L117.555 548.764ZM126.821 551.272C128.344 551.676 129.887 552.087 131.45 552.513L131.713 551.548C130.147 551.121 128.601 550.71 127.077 550.306L126.821 551.272ZM136.061 553.804C136.822 554.023 137.587 554.248 138.356 554.479L138.644 553.521C137.871 553.289 137.102 553.064 136.339 552.843L136.061 553.804ZM138.356 554.479C139.201 554.732 140.032 554.972 140.85 555.199L141.117 554.236C140.306 554.01 139.482 553.772 138.644 553.521L138.356 554.479ZM145.869 556.476C147.607 556.877 149.293 557.223 150.942 557.525L151.122 556.541C149.488 556.242 147.817 555.899 146.094 555.501L145.869 556.476ZM156.054 558.344C157.787 558.584 159.493 558.785 161.193 558.959L161.296 557.965C159.605 557.791 157.911 557.592 156.192 557.353L156.054 558.344ZM166.341 559.425C168.037 559.561 169.747 559.686 171.488 559.813L171.561 558.816C169.819 558.689 168.113 558.564 166.421 558.428L166.341 559.425ZM176.627 560.199C178.29 560.33 179.996 560.475 181.758 560.642L181.853 559.646C180.084 559.479 178.373 559.334 176.706 559.202L176.627 560.199ZM186.876 561.182C187.715 561.28 188.568 561.384 189.436 561.496L189.564 560.504C188.692 560.392 187.835 560.287 186.992 560.189L186.876 561.182ZM189.436 561.496C190.193 561.593 190.959 561.691 191.733 561.79L191.859 560.798C191.086 560.699 190.32 560.602 189.564 560.504L189.436 561.496ZM196.364 562.373C197.88 562.561 199.42 562.751 200.979 562.942L201.101 561.949C199.542 561.759 198.003 561.569 196.488 561.38L196.364 562.373ZM205.601 563.502C207.13 563.686 208.674 563.87 210.226 564.055L210.344 563.062C208.792 562.878 207.249 562.693 205.72 562.509L205.601 563.502ZM214.853 564.6C216.391 564.781 217.934 564.96 219.478 565.139L219.593 564.146C218.049 563.967 216.507 563.787 214.969 563.607L214.853 564.6ZM224.104 565.673C225.651 565.85 227.195 566.026 228.732 566.201L228.845 565.208C227.308 565.033 225.765 564.857 224.218 564.679L224.104 565.673ZM233.359 566.725C234.913 566.9 236.455 567.073 237.983 567.244L238.094 566.25C236.567 566.079 235.024 565.906 233.471 565.731L233.359 566.725ZM242.612 567.759C244.18 567.933 245.727 568.104 247.246 568.272L247.355 567.278C245.836 567.11 244.29 566.939 242.723 566.766L242.612 567.759ZM251.871 568.779C253.454 568.952 254.998 569.121 256.498 569.284L256.606 568.29C255.106 568.127 253.562 567.958 251.98 567.785L251.871 568.779ZM261.135 569.786C262.748 569.96 264.294 570.126 265.763 570.284L265.869 569.289C264.401 569.132 262.855 568.966 261.242 568.792L261.135 569.786ZM270.379 570.777C272.091 570.96 273.646 571.125 275.022 571.27L275.127 570.276C273.752 570.13 272.197 569.965 270.485 569.783L270.379 570.777ZM279.653 571.758C280.396 571.835 280.97 571.895 281.358 571.936C281.552 571.956 281.7 571.971 281.799 571.982C281.848 571.987 281.886 571.991 281.911 571.993C281.923 571.995 281.933 571.996 281.939 571.996C281.942 571.997 281.944 571.997 281.946 571.997C281.947 571.997 281.947 571.997 281.948 571.997C281.948 571.997 281.948 571.997 281.948 571.997C281.948 571.997 281.948 571.997 281.948 571.997H281.948C281.948 571.997 281.948 571.997 282 571.5C282.052 571.003 282.052 571.003 282.052 571.003C282.052 571.003 282.052 571.003 282.052 571.003C282.052 571.003 282.052 571.003 282.051 571.003C282.051 571.003 282.051 571.003 282.051 571.003C282.051 571.003 282.05 571.003 282.049 571.002C282.048 571.002 282.045 571.002 282.042 571.002C282.036 571.001 282.026 571 282.014 570.999C281.989 570.996 281.952 570.992 281.902 570.987C281.803 570.977 281.656 570.961 281.462 570.941C281.074 570.901 280.5 570.841 279.757 570.763L279.653 571.758Z" fill="#2A3B5E" fill-opacity="0.1"/>
<ellipse cx="65" cy="239.5" rx="3" ry="2.5" fill="#2A3B5E" fill-opacity="0.2"/>
<circle cx="83.5" cy="252.5" r="2.5" fill="#2A3B5E" fill-opacity="0.2"/>
<circle cx="282" cy="372" r="4" fill="#2A3B5E" fill-opacity="0.2"/>
<circle cx="306" cy="375" r="2" fill="#2A3B5E" fill-opacity="0.2"/>
<ellipse cx="288.626" cy="24.5" rx="2.62628" ry="2.5" fill="#2A3B5E" fill-opacity="0.2"/>
<ellipse cx="5.25257" cy="485" rx="5.25257" ry="5" fill="#2A3B5E" fill-opacity="0.2"/>
<path d="M88.7147 162.788C88.411 161.887 88.131 160.974 87.7972 160.086C87.5891 159.53 87.1804 159.112 86.6847 158.78C85.926 158.271 85.1708 157.749 84.4071 157.248C84.1377 157.074 83.8333 156.921 83.5309 156.806C81.8815 156.181 80.4084 155.246 78.8861 154.387C78.6069 154.228 78.3375 154.054 78.0462 153.93C77.8414 153.84 77.6107 153.781 77.3832 153.767C77.0749 153.746 76.8219 153.857 76.6937 154.175C76.5558 154.508 76.4025 154.832 76.2352 155.152C76.1046 155.399 75.9293 155.623 75.8063 155.874C75.7002 156.082 75.6107 156.306 75.5541 156.529C75.4996 156.731 75.622 156.867 75.7967 156.971C75.9102 157.037 75.9929 157.143 76.0966 157.224C76.2489 157.347 76.3978 157.483 76.5698 157.575C77.978 158.335 79.5015 158.838 80.9836 159.424C82.2685 159.923 83.2919 160.764 84.2031 161.756C84.6291 162.222 84.8071 162.792 84.7009 163.419C84.5604 164.252 84.3007 165.053 83.9114 165.804C83.8516 165.923 83.7291 166.056 83.6124 166.096C82.8068 166.366 81.9992 166.656 81.1297 166.665C80.4381 166.673 79.7765 166.516 79.141 166.268C77.9906 165.81 76.8304 165.367 75.7166 164.835C75.0521 164.515 74.4718 164.038 73.8488 163.637C73.6316 163.49 73.4229 163.321 73.1923 163.203C73.0064 163.108 72.7903 163.026 72.5831 163.015C72.4353 163.003 72.2333 163.075 72.1394 163.189C71.871 163.499 71.6117 163.821 71.4199 164.18C71.146 164.676 70.904 165.197 70.69 165.725C70.4661 166.268 70.63 166.683 71.1376 166.98C71.9614 167.454 72.7838 167.921 73.6075 168.395C73.7809 168.493 73.9445 168.607 74.0982 168.735C74.6694 169.202 75.3334 169.489 76.0254 169.724C76.7957 169.954 77.5504 170.234 78.3219 170.47C79.7243 170.903 81.1606 171.04 82.6381 170.944C83.8686 170.865 84.9572 170.472 85.9375 169.735C86.4706 169.338 86.8848 168.849 87.1821 168.25C87.3417 167.924 87.5828 167.64 87.7208 167.306C88.1325 166.326 88.6167 165.376 88.7162 164.297C88.7627 163.787 88.7994 163.294 88.6456 162.804C88.6707 162.798 88.6896 162.794 88.7147 162.788ZM76.9924 155.713C77.1328 155.301 77.1803 155.277 77.5959 155.365C78.0177 155.452 78.4403 155.513 78.8608 155.594C78.9305 155.61 78.9875 155.689 79.0515 155.74C78.9808 155.809 78.9204 155.895 78.8415 155.926C78.7814 155.953 78.6859 155.909 78.6099 155.894C78.0722 155.82 77.5461 155.619 76.9924 155.713C77.0542 155.785 77.1104 155.89 77.1968 155.922C77.3724 156 77.5654 156.068 77.7579 156.102C78.0947 156.163 78.4449 156.194 78.7929 156.246C78.7502 156.472 78.6072 156.452 78.4733 156.443C78.1335 156.429 77.7888 156.423 77.4539 156.401C77.3277 156.398 77.1825 156.398 77.083 156.336C76.6749 156.101 76.5317 156.14 76.9924 155.713ZM78.4454 168.749C78.5996 168.55 78.7334 168.408 78.8303 168.248C78.9089 168.125 78.9883 167.976 78.9972 167.836C79.0031 167.743 78.9262 167.603 78.8433 167.556C78.7757 167.519 78.62 167.562 78.5542 167.623C78.328 167.825 78.1214 168.056 77.9133 168.281C77.7795 168.423 77.6334 168.509 77.448 168.447C77.1406 168.34 76.8355 168.213 76.533 168.099C76.439 168.061 76.3386 168.025 76.2424 168.008C76.0625 167.97 75.8657 167.976 75.7104 167.9C75.1963 167.664 74.6969 167.404 74.1912 167.146C74.0422 167.069 74.0349 166.946 74.0878 166.796C74.2211 166.411 74.353 166.02 74.4863 165.636C74.604 165.3 74.6139 165.285 74.9196 165.444C76.1571 166.119 77.4538 166.641 78.7835 167.104C79.7487 167.441 80.7346 167.661 81.7632 167.655C82.1658 167.654 82.5999 167.647 82.9646 167.504C84.286 166.998 85.1769 166.065 85.4549 164.657C85.5928 163.963 85.6065 163.245 85.6761 162.54C85.7289 162.029 85.5237 161.637 85.1803 161.276C84.7264 160.803 84.2157 160.402 83.6629 160.049C82.8303 159.505 82.0062 158.94 81.1701 158.41C80.9327 158.261 80.6412 158.197 80.3765 158.074C80.0163 157.907 79.6597 157.726 79.3143 157.536C79.2607 157.503 79.2201 157.348 79.2531 157.288C79.4359 156.918 79.634 156.558 79.8411 156.209C79.8741 156.149 80.0041 156.079 80.0424 156.103C80.3865 156.287 80.7641 156.443 81.0437 156.694C81.2746 156.903 81.5022 157.068 81.7956 157.171C82.4332 157.399 83.0856 157.604 83.7064 157.875C85.1603 158.512 86.3123 159.488 86.9922 160.959C87.2207 161.458 87.4792 161.943 87.6839 162.454C87.7973 162.73 87.8974 163.035 87.895 163.324C87.8803 164.488 87.6439 165.605 87.0589 166.638C86.9879 166.766 86.917 166.893 86.86 167.025C86.4913 167.87 85.8646 168.473 85.0995 168.956C84.9372 169.059 84.7506 169.141 84.5656 169.171C83.9086 169.275 83.2475 169.361 82.5885 169.427C82.2081 169.468 82.2165 169.447 82.1607 169.072C82.1436 168.965 82.0478 168.829 81.9537 168.792C81.8597 168.754 81.699 168.804 81.6143 168.87C81.4898 168.964 81.4104 169.113 81.2976 169.231C81.2269 169.299 81.1289 169.394 81.0493 169.393C80.8372 169.389 80.6281 169.338 80.3763 169.304C80.4423 169.184 80.4865 169.115 80.5231 169.041C80.6038 168.898 80.7035 168.75 80.7703 168.604C80.8455 168.436 80.9356 168.244 80.7162 168.118C80.5185 167.999 80.3819 168.129 80.2593 168.262C80.0611 168.471 79.8796 168.696 79.6737 168.901C79.6029 168.97 79.4707 169.059 79.3934 169.037C79.0803 168.965 78.7869 168.861 78.4454 168.749ZM71.8493 165.262C71.8501 165.236 71.8432 165.205 71.844 165.178C72.4442 165.146 73.0431 165.107 73.6496 165.073C73.66 165.09 73.6704 165.108 73.6808 165.125C73.5871 165.179 73.5052 165.257 73.406 165.286C73.2879 165.32 73.1554 165.317 73.0242 165.321C72.6257 165.34 72.234 165.391 71.8493 165.262ZM72.2842 164.448C72.2571 164.415 72.2377 164.386 72.2106 164.353C72.2799 164.278 72.3465 164.191 72.4249 164.127C72.4809 164.081 72.5746 164.027 72.6192 164.05C72.7655 164.114 72.8921 164.21 73.0237 164.298C73.0543 164.317 73.082 164.383 73.07 164.419C73.0643 164.453 73.0006 164.493 72.9665 164.488C72.7341 164.482 72.5053 164.463 72.2842 164.448Z" fill="#4150A3"/>
<path d="M72.0514 154.206C71.8614 154.394 71.7212 154.538 71.5671 154.679C71.3856 154.845 71.3347 155.034 71.4184 155.264C71.4931 155.484 71.6675 155.555 71.8743 155.534C72.4557 155.473 73.0406 155.399 73.6192 155.325C73.889 155.29 74.165 155.253 74.4279 155.186C74.5475 155.159 74.6798 155.069 74.7577 154.972C74.8861 154.805 74.8065 154.593 74.5977 154.576C74.2471 154.544 73.8999 154.558 73.545 154.567C73.3732 154.567 73.1992 154.587 72.9518 154.604C73.0381 154.486 73.0747 154.412 73.128 154.354C73.2767 154.188 73.4393 154.026 73.5803 153.856C73.7114 153.701 73.7232 153.515 73.6316 153.339C73.54 153.162 73.3859 153.093 73.193 153.117C72.3887 153.216 71.5843 153.315 70.7778 153.434C70.3103 153.502 69.8433 153.602 69.3826 153.701C69.3009 153.72 69.1707 153.789 69.1691 153.842C69.1618 153.929 69.2173 154.061 69.2863 154.104C69.4292 154.183 69.5959 154.25 69.7538 154.246C70.4586 154.236 71.1643 154.199 71.865 154.17C71.9055 154.174 71.9425 154.192 72.0514 154.206Z" fill="#4150A3"/>
<path d="M68.7646 163.38C68.9252 163.179 69.0935 162.983 69.2311 162.768C69.4818 162.375 69.3091 162.041 68.8405 162.043C68.5045 162.048 68.1725 162.13 67.8393 162.148C67.2651 162.181 66.6841 162.182 66.1085 162.209C65.9911 162.216 65.8702 162.237 65.7521 162.271C65.5144 162.332 65.3909 162.492 65.4098 162.698C65.4272 162.897 65.5831 163.065 65.8143 163.065C66.0671 163.072 66.3277 163.026 66.5827 163.013C67.0144 162.993 67.4474 162.979 67.8818 162.972C67.921 162.969 67.953 162.995 68.0367 163.015C67.9602 163.118 67.8999 163.204 67.8332 163.292C67.7518 163.402 67.6474 163.498 67.5939 163.616C67.4575 163.896 67.5828 164.196 67.8871 164.258C68.1495 164.309 68.4226 164.319 68.6929 164.316C69.3585 164.308 70.0213 164.288 70.6891 164.259C70.833 164.253 70.9951 164.209 71.1239 164.133C71.2065 164.088 71.2887 163.951 71.2771 163.869C71.2718 163.784 71.1611 163.672 71.0746 163.639C70.931 163.587 70.7641 163.579 70.6048 163.576C70.1384 163.558 69.6747 163.553 69.2096 163.541C69.0958 163.534 68.9792 163.515 68.864 163.502C68.8216 163.459 68.7931 163.42 68.7646 163.38Z" fill="#4150A3"/>
<path d="M272.876 332.671L270.895 332.171C270.664 332.116 270.432 332.171 270.278 332.338L268.76 333.808C268.349 334.225 267.654 333.919 267.603 333.309L267.448 331.117C267.423 330.867 267.294 330.645 267.114 330.534L265.339 329.424C264.85 329.119 264.902 328.342 265.416 328.092L267.294 327.26C267.5 327.177 267.654 326.955 267.706 326.733L268.117 324.596C268.246 323.985 268.94 323.791 269.301 324.263L270.612 325.928C270.767 326.122 270.973 326.205 271.204 326.178L273.236 325.956C273.802 325.9 274.188 326.566 273.905 327.093L272.85 328.952C272.722 329.174 272.722 329.424 272.799 329.646L273.622 331.644C273.905 332.199 273.442 332.809 272.876 332.671Z" fill="#FF719C"/>
<path d="M83.9754 487.899C84.0551 488.49 83.952 489.052 83.5019 489.529C83.2065 489.841 82.8642 490.025 82.4281 489.997C82.1562 489.983 81.8795 489.964 81.6123 489.983C80.3463 490.063 79.5164 488.887 79.6805 487.725C79.7227 487.432 79.8165 487.144 79.9056 486.865C79.9571 486.704 79.9525 486.577 79.8165 486.463C79.5633 486.255 79.3195 486.029 79.0522 485.849C78.5083 485.485 77.9457 485.15 77.3924 484.795C77.2376 484.696 77.0876 484.654 76.9376 484.772C76.0326 485.48 75.0199 485.438 73.9696 485.23C73.2194 485.084 72.5207 484.852 71.9768 484.276C71.869 484.162 71.7705 484.04 71.6768 483.912C71.5783 483.775 71.4611 483.737 71.311 483.794C70.4061 484.125 69.4965 484.465 68.5915 484.795C68.3805 484.871 68.268 485.013 68.2446 485.249C68.1602 486.085 67.7569 486.784 67.2318 487.408C67.0958 487.573 66.8473 487.692 66.6316 487.729C66.1581 487.81 65.6845 487.729 65.2391 487.536C64.2544 487.106 63.7902 486.123 64.0903 485.046C64.2825 484.356 64.6295 483.756 65.3094 483.463C66.1393 483.104 66.9176 483.26 67.5881 483.865C67.7851 484.04 67.9539 484.073 68.1977 483.978C69.1261 483.614 70.0591 483.265 70.9969 482.925C71.1985 482.849 71.2641 482.745 71.2126 482.537C71.1657 482.348 71.1375 482.15 71.1047 481.961C71.0485 481.611 71.0719 481.271 71.2266 480.95C71.9206 479.471 73.0131 478.54 74.6682 478.361C74.7385 478.351 74.8042 478.328 74.8745 478.323C75.0996 478.304 75.1746 478.181 75.1746 477.959C75.1746 477.18 75.184 476.405 75.1933 475.625C75.1933 475.441 75.1558 475.276 74.9542 475.257C74.129 475.172 73.7914 474.572 73.5992 473.887C73.4257 473.263 73.4819 472.625 73.768 472.025C74.0493 471.411 74.5463 471.123 75.184 471.047C75.1933 471.047 75.198 471.047 75.2074 471.047C75.695 470.995 76.1921 470.91 76.614 471.279C77.1673 471.775 77.594 472.342 77.7393 473.102C77.8237 473.537 77.7487 473.957 77.655 474.359C77.533 474.869 77.1251 475.129 76.6234 475.233C76.328 475.294 76.2858 475.332 76.2999 475.635C76.3327 476.419 76.3608 477.203 76.3937 477.992C76.4077 478.332 76.4499 478.346 76.7922 478.356C77.1017 478.365 77.4205 478.38 77.7159 478.46C78.1989 478.587 78.4427 478.942 78.5458 479.438C78.8084 480.718 78.724 481.951 78.1613 483.137C78.0957 483.279 78.1332 483.392 78.2457 483.491C78.7146 483.907 79.1741 484.332 79.6524 484.734C79.8024 484.862 79.9947 484.947 80.1681 485.055C80.3322 485.159 80.5151 485.249 80.6464 485.381C80.9277 485.674 81.2559 485.783 81.6592 485.764C82.264 485.74 82.8361 485.873 83.3331 486.251C83.7457 486.562 84.0176 486.959 83.9801 487.512C83.9661 487.63 83.9754 487.748 83.9754 487.899ZM73.0224 482.754C73.0412 482.769 73.0599 482.783 73.0787 482.792C73.1115 482.773 73.1443 482.759 73.1725 482.736C73.3507 482.561 73.5194 482.376 73.707 482.206C73.9602 481.975 74.2368 481.795 74.5979 481.795C74.7948 481.795 74.9823 481.824 75.0621 482.032C75.1465 482.254 75.0339 482.391 74.8745 482.556C74.5228 482.929 74.2087 483.34 73.8945 483.742C73.8617 483.784 73.8992 483.879 73.9039 483.945C73.9649 483.921 74.0399 483.917 74.0821 483.879C74.1759 483.784 74.2462 483.671 74.3353 483.572C74.5228 483.369 74.7338 483.217 75.0245 483.236C75.2449 483.251 75.3246 483.397 75.2215 483.591C75.1558 483.714 75.0855 483.827 74.9917 483.988C75.1324 484.002 75.2262 484.025 75.3199 484.021C75.7794 483.983 76.1264 483.742 76.3984 483.388C76.9798 482.632 77.2892 481.776 77.308 480.817C77.322 480.241 77.0782 479.896 76.5156 479.759C75.9576 479.622 75.3903 479.613 74.8276 479.754C74.4291 479.854 74.054 480.005 73.8383 480.397C73.6648 480.713 73.6929 480.747 74.0071 480.865C74.1431 480.917 74.2837 481.044 74.354 481.176C74.4384 481.332 74.2697 481.417 74.1712 481.512C73.8383 481.833 73.5054 482.15 73.1819 482.48C73.1115 482.561 73.074 482.665 73.0224 482.754ZM81.9968 486.818C81.7905 486.865 81.6357 486.87 81.5091 486.94C81.406 486.997 81.2653 487.129 81.27 487.219C81.3028 487.734 81.3263 488.259 81.7061 488.67C81.8514 488.825 82.0108 488.859 82.1843 488.75C82.5219 488.542 82.7985 488.273 82.972 487.904C83.1314 487.564 83.0471 487.229 82.7141 487.063C82.4797 486.945 82.2078 486.888 81.9968 486.818ZM75.0621 473.688C75.048 473.934 75.1277 474.094 75.3059 474.198C75.5216 474.321 75.7466 474.354 75.9717 474.213C76.2905 474.009 76.4734 473.707 76.5672 473.343C76.6938 472.847 76.3608 472.427 75.8545 472.455C75.7701 472.46 75.6622 472.498 75.606 472.554C75.2965 472.885 75.1089 473.272 75.0621 473.688ZM66.0737 485.466C66.069 485.466 66.0643 485.466 66.0596 485.466C66.0596 485.622 66.0643 485.783 66.0596 485.939C66.0455 486.18 66.1627 486.355 66.3222 486.515C66.4488 486.643 66.5613 486.643 66.6832 486.51C67.1239 486.047 67.2881 485.495 67.199 484.866C67.1708 484.658 67.0255 484.512 66.8286 484.451C66.6973 484.408 66.1346 484.682 66.1018 484.786C66.083 484.838 66.0783 484.895 66.0783 484.947C66.0737 485.121 66.0737 485.292 66.0737 485.466Z" fill="#FF719C"/>
<ellipse cx="276" cy="109.5" rx="2" ry="2.5" fill="#2A3B5E" fill-opacity="0.2"/>
<circle cx="260" cy="126" r="2" fill="#2A3B5E" fill-opacity="0.2"/>
<g clip-path="url(#clip0)">
<path fill-rule="evenodd" clip-rule="evenodd" d="M71.6898 32.3414C71.7471 31.9858 71.6455 31.5481 71.2799 31.2297C71.0133 30.7407 70.7025 30.4661 70.3922 30.1116L68.8505 27.7495C68.7417 27.5022 68.3882 27.2025 68.4323 26.988C68.61 26.9781 68.712 27.3359 68.8897 27.326C69.0602 27.5065 69.2316 27.5273 69.3835 27.7198C69.6768 27.8467 69.9827 27.9123 70.2633 28.1004C70.6552 28.1364 71.0465 28.2523 71.4199 28.3004C71.8243 28.2751 72.2156 28.391 72.6142 28.3165C73.0191 28.2114 73.4488 28.0635 73.9041 27.7133C73.874 27.6268 73.96 27.5973 74.0337 27.5491C74.2998 27.1102 74.3026 26.631 74.4278 26.1779C74.2525 25.7884 74.2486 25.4196 74.0732 25.0301C73.7154 24.4415 73.3448 23.9141 72.9496 23.4295C72.7966 23.3967 72.65 23.3333 72.5286 23.1473C72.229 23.051 71.9416 22.9734 71.6852 22.8225C71.2322 22.7733 70.7856 22.6936 70.3078 22.6871C69.8364 22.65 69.3519 22.7541 68.9115 22.6437C68.4814 22.8714 68.1143 22.7927 67.6783 22.9711C67.588 22.7118 67.6079 22.4601 67.4073 22.1932C67.2247 21.9941 66.8528 21.7064 66.8232 21.5401C67.4761 20.9282 67.9946 20.2715 68.5251 19.6335C69.0009 18.9516 69.3969 18.2687 69.4444 17.4951C69.3298 17.1986 69.2701 16.9458 69.0452 16.6416C68.6126 16.2609 68.1426 15.9842 67.6784 15.7567C66.9501 15.6486 66.1908 15.6137 65.3048 16.2716C64.5349 16.9863 64.2544 17.806 64.0535 18.6267C64.0686 19.1738 64.1143 19.7275 64.111 20.2867C63.6482 19.8195 63.2364 19.0274 62.8052 18.4071C62.3182 17.9027 61.819 17.3798 61.3509 16.7835C61.0887 16.5833 60.8454 16.2912 60.59 15.9805C60.4375 15.8678 60.3404 15.719 60.2001 15.625C60.0598 15.5309 59.9262 15.3263 59.7602 15.4347C59.6509 15.2673 59.4475 15.4796 59.2999 15.5759C59.1213 15.7456 58.9994 15.6395 58.8208 15.8091L57.8061 16.4714C57.6842 16.3653 57.4804 16.6575 57.327 16.7046L56.8289 17.0297C56.4784 17.2585 56.0667 17.4741 55.9424 17.7674C55.9653 18.0443 56.1411 18.3539 56.3902 18.6953C56.4252 18.9907 56.8578 19.3714 56.8743 19.6789C55.1961 20.6947 53.5178 21.7106 51.8395 22.7265C51.3157 23.254 50.6205 23.7608 50.4332 24.3605C50.7051 24.9787 51.1791 25.6242 51.5918 26.2566C53.3187 29.4262 55.0392 32.6265 57.2555 35.9011C57.6125 36.6495 58.151 37.7568 58.7973 38.2633C59.3299 38.3135 59.9072 38.0693 60.4907 37.7945L65.527 34.5073C65.4969 34.4208 65.6197 34.3672 65.712 34.307C65.725 34.1658 66.044 34.0902 65.9348 33.9229C66.1188 33.8823 65.8944 33.4983 66.1386 33.6306C66.363 34.0147 66.5077 34.3976 66.8238 34.8013C67.1234 34.8976 67.4162 35.1043 67.7415 34.9981C69.2217 34.3237 70.2707 33.0289 71.6898 32.3414ZM67.3079 23.4516C67.4172 23.619 67.5517 23.6638 67.6736 23.7699C69.0281 23.6285 70.3332 23.5724 71.5999 23.78C71.7825 23.9791 71.9903 24.0556 72.2044 24.1015C72.5025 24.4374 72.8002 24.8531 73.0731 25.3116C73.3087 25.874 73.3728 26.4156 73.1496 26.8796C72.4184 27.2508 71.7635 27.1743 71.1269 27.0858C70.8152 26.971 70.4725 26.9295 70.1918 26.7414C69.8922 26.6451 69.6242 26.3957 69.312 26.3608C68.9716 25.9199 68.5992 25.712 68.2205 25.5349C67.8952 25.6411 68.1128 26.1356 67.9598 26.1028C67.5048 25.3654 67.1294 24.6291 66.5826 23.872C66.7725 23.8807 67.056 23.5895 67.3079 23.4516ZM68.0749 26.3195C68.0196 26.3556 67.9895 26.2692 67.9467 26.244C68.0021 26.2079 68.0322 26.2943 68.0749 26.3195ZM65.6687 22.0284C65.7784 22.1159 65.9071 22.1115 65.9979 22.2909C66.0892 22.3905 66.2183 22.3062 66.3285 22.3138C66.4189 22.5731 66.6762 22.5643 66.6199 22.7602C66.3742 22.8675 66.3427 23.0207 66.1582 23.1411L65.6848 22.4157C65.6003 22.2056 65.271 21.9431 65.3395 21.7658C65.4628 21.6323 65.7614 21.8883 65.6687 22.0284ZM65.2619 18.3419C65.5837 17.787 65.7035 17.2049 66.5575 16.7801C66.6735 16.837 66.7901 16.814 66.9071 16.7111C67.4207 16.8532 68.284 16.9263 68.3467 17.7076C68.1094 18.4726 67.4866 19.1708 66.7904 19.8374C66.5686 20.0618 66.4997 20.3189 66.3084 20.5499C66.1914 20.6528 66.1662 20.7753 65.9574 20.8585C66.0851 21.0139 65.5705 21.0315 65.6982 21.1869C65.4414 21.1158 65.4806 20.6923 65.4083 20.5008C65.3791 20.2546 65.2582 19.9888 65.3208 19.7622C65.1522 19.2622 65.259 18.8212 65.2619 18.3419ZM57.1902 18.067C57.9043 17.4682 59.0481 16.7217 59.8836 16.309C60.4416 17.2444 61.0558 17.984 61.6832 18.5824C62.5145 19.8964 63.3527 21.0999 64.203 22.322C63.3369 22.7281 62.4145 23.3302 61.5042 23.9509C61.3683 24.1457 61.2751 24.3656 61.4635 24.614C61.2858 24.6239 61.1901 24.2354 61.044 24.0921L59.8664 22.288C59.2433 20.9706 58.1017 19.3022 57.1902 18.067ZM54.2614 28.4926C54.4338 28.3536 54.7896 28.2539 54.6867 28.0559C54.5531 27.8513 54.3192 28.0571 54.1347 28.1775C53.8676 27.7683 53.6127 27.3777 53.4495 27.0068C53.7442 26.894 54.1108 27.0526 54.1864 26.6849C53.9131 26.3064 53.5135 26.5406 53.177 26.4685C52.994 26.3493 52.8803 25.893 52.6307 25.6315C53.1099 25.3983 53.4823 25.6062 53.9367 25.4157C54.1324 25.4736 54.3781 25.3663 54.5616 25.4057C54.7514 25.4144 54.935 25.4537 55.1689 25.2479C55.0796 24.8289 54.5649 24.8465 54.2717 24.7196C53.91 24.77 53.5919 24.6859 53.2608 24.7428C53.0957 24.6915 52.887 24.7747 52.7277 24.7725C52.5748 24.7397 52.384 24.8908 52.2311 24.858C52.0485 24.6589 52.4408 24.615 52.5078 24.6774C52.6617 24.5504 52.7588 24.6992 52.9127 24.5722C53.1948 24.5207 53.4273 24.5546 53.7036 24.4539C53.9357 24.5676 54.2367 24.4242 54.4755 24.4274C54.6901 24.3934 55.0567 24.552 55.1747 24.2894C55.2373 24.0628 54.8896 23.8123 54.7551 23.7675C54.5779 23.6975 54.3944 23.6582 54.2045 23.6495C54.021 23.6101 53.8253 23.5522 53.635 23.6233C53.4583 23.4735 53.218 23.7099 53.0844 23.5053C53.7369 22.9733 54.2375 23.2566 54.8332 23.0004C55.0963 23.0408 55.3973 22.8974 55.6794 22.8459C55.9124 22.7999 56.3479 22.7013 56.3435 22.4124C56.076 22.0831 55.7395 22.011 55.4084 22.068C55.4773 21.8108 56.0662 21.6651 56.1657 21.4145L56.9959 20.8727C57.1862 20.8015 57.1012 20.6713 57.2915 20.6001L57.4575 20.4918C58.3972 22.1329 59.3063 23.7675 60.4601 25.4546C58.4075 26.5822 56.3709 28.0971 54.7946 29.4708C54.5334 29.1108 54.5411 28.8405 54.2614 28.4926ZM64.4123 23.1667C64.5293 23.0638 64.6337 23.0222 64.7255 23.0419C64.7065 23.1338 64.7488 23.2388 64.8522 23.357C64.6867 23.3855 64.54 23.322 64.4123 23.1667ZM57.342 28.5772C57.257 28.4471 57.5697 28.4021 57.6377 28.3047C57.9508 28.1799 58.1882 28.4228 58.4825 28.3899C58.5189 28.4457 58.5247 28.4949 58.5 28.5376L57.6698 29.0794C57.4557 29.0335 57.2794 28.8038 57.0464 28.8498C56.9735 28.7382 57.2556 28.6867 57.342 28.5772ZM57.0372 29.3597C57.128 29.5391 56.8212 29.6333 56.6673 29.7603C56.644 29.5633 56.5468 29.4145 56.3759 29.3139C56.6342 29.1453 56.7794 29.4484 57.0372 29.3597ZM55.6347 30.3547C55.6648 30.4412 55.5114 30.4882 55.4497 30.555C55.3774 30.3635 55.475 30.4324 55.6347 30.3547ZM55.8371 30.3021C55.8624 30.1796 55.7347 30.0242 55.6375 29.8754C55.9638 29.6095 56.1639 29.9563 56.4648 29.8129C56.427 29.9967 56.0158 30.1325 55.8371 30.3021ZM59.25 28.0745C59.0621 27.7463 58.7858 27.847 58.5727 27.6414C58.9776 27.5362 59.3005 27.8294 59.7306 27.6017C59.7937 27.2953 59.4014 27.3392 59.2921 27.1718C59.5625 27.0218 59.7699 27.1782 59.9898 27.2734C60.1869 27.0917 60.3083 27.2777 60.5054 27.096C60.6535 26.9198 60.451 26.9723 60.3787 26.7809C60.6976 26.7053 60.9603 26.8256 61.2613 26.6822C61.3162 26.7259 61.3036 26.7872 61.2788 26.8299C60.5962 27.2754 59.9331 27.5491 59.25 28.0745ZM62.3124 26.0757C62.4964 26.0352 62.6488 26.1478 62.8455 26.046C63.0052 25.9683 62.9814 25.8512 62.8658 25.7145C63.1362 25.5645 63.3454 25.4014 63.1265 25.1465C63.4153 24.9845 63.6217 25.3007 63.9173 25.0281C64.1814 24.9088 64.0173 24.6976 64.1591 24.5521C64.16 24.3923 64.2527 24.2522 64.1619 24.0728C64.5299 23.9917 64.8169 24.1492 65.1917 23.9576C65.3796 24.2859 65.702 24.6589 65.7676 24.9609C64.7967 25.4886 63.733 26.1563 62.8528 26.8634C62.6576 26.7256 62.5071 26.2934 62.3124 26.0757ZM65.3588 32.9196C65.2175 32.9852 65.0704 33.0017 64.9539 33.0247C64.6772 33.2053 64.4612 33.4789 64.1966 33.6781C63.7228 34.0405 63.1761 34.2912 62.6474 34.6097C61.5042 35.2764 60.4454 36.1531 59.3089 36.7093C58.8179 35.8362 58.3027 34.9259 57.7321 34.0517C57.1615 33.1775 56.4496 32.3691 56.0325 31.4478C58.0554 30.1539 60.0172 28.8469 61.8261 27.5071C62.148 27.9601 62.4326 28.517 62.7676 28.8287C63.009 29.4404 63.5684 30.1362 63.9627 30.7806C64.2424 31.1285 64.5406 31.4644 64.8139 31.8429C64.9538 32.0169 65.0805 32.332 65.2335 32.3648C65.3855 32.5574 65.5059 32.9031 65.6895 32.9425L65.7623 33.0541C65.6089 33.1011 65.4933 32.9644 65.3588 32.9196ZM67.6471 33.3622L67.1008 32.5252C65.798 31.1741 64.6024 29.3021 63.3816 27.5527C64.3225 26.9386 65.2206 26.2993 66.0575 25.647C66.1556 25.636 66.2474 25.6557 66.3328 25.706C67.2886 27.7345 68.7755 30.0529 70.2216 32.0266C69.3429 32.494 68.4884 32.9987 67.6471 33.3622Z" fill="#009564"/>
</g>
<defs>
<clipPath id="clip0">
<rect width="21.1003" height="20.5979" fill="white" transform="translate(65.5979 11.2796) rotate(56.8671)"/>
</clipPath>
</defs>
</svg>
