<svg width="450" height="202" viewBox="0 0 450 202" fill="none" xmlns="http://www.w3.org/2000/svg">
<path d="M257.876 8.67072L255.895 8.17125C255.664 8.11575 255.432 8.17125 255.278 8.33774L253.76 9.80841C253.349 10.2246 252.654 9.9194 252.603 9.30893L252.448 7.11682C252.423 6.86708 252.294 6.64509 252.114 6.5341L250.339 5.42417C249.85 5.11893 249.902 4.34198 250.416 4.09225L252.294 3.2598C252.5 3.17655 252.654 2.95456 252.706 2.73258L253.117 0.595955C253.246 -0.014508 253.94 -0.208746 254.301 0.262976L255.612 1.92788C255.767 2.12211 255.973 2.20536 256.204 2.17761L258.236 1.95562C258.802 1.90013 259.188 2.56609 258.905 3.09331L257.85 4.95244C257.722 5.17443 257.722 5.42417 257.799 5.64615L258.622 7.64403C258.905 8.199 258.442 8.80947 257.876 8.67072Z" fill="#F1E66B"/>
<path d="M266.876 150.671L264.895 150.171C264.664 150.116 264.432 150.171 264.278 150.338L262.76 151.808C262.349 152.225 261.654 151.919 261.603 151.309L261.448 149.117C261.423 148.867 261.294 148.645 261.114 148.534L259.339 147.424C258.85 147.119 258.902 146.342 259.416 146.092L261.294 145.26C261.5 145.177 261.654 144.955 261.706 144.733L262.117 142.596C262.246 141.985 262.94 141.791 263.301 142.263L264.612 143.928C264.767 144.122 264.973 144.205 265.204 144.178L267.236 143.956C267.802 143.9 268.188 144.566 267.905 145.093L266.85 146.952C266.722 147.174 266.722 147.424 266.799 147.646L267.622 149.644C267.905 150.199 267.442 150.809 266.876 150.671Z" fill="#F1E66B"/>
<path d="M7.87603 36.6707L5.89535 36.1712C5.66384 36.1158 5.43233 36.1713 5.27799 36.3377L3.76033 37.8084C3.34876 38.2246 2.65424 37.9194 2.60279 37.3089L2.44845 35.1168C2.42273 34.8671 2.29412 34.6451 2.11405 34.5341L0.33916 33.4242C-0.149579 33.1189 -0.0981343 32.342 0.416328 32.0922L2.29411 31.2598C2.4999 31.1766 2.65424 30.9546 2.70568 30.7326L3.11725 28.596C3.24587 27.9855 3.94039 27.7913 4.30052 28.263L5.61239 29.9279C5.76673 30.1221 5.97252 30.2054 6.20403 30.1776L8.23615 29.9556C8.80206 29.9001 9.18791 30.5661 8.90495 31.0933L7.85031 32.9524C7.72169 33.1744 7.72169 33.4242 7.79886 33.6462L8.622 35.644C8.90495 36.199 8.44194 36.8095 7.87603 36.6707Z" fill="#F1E66B"/>
<path d="M448.876 51.6707L446.895 51.1712C446.664 51.1158 446.432 51.1713 446.278 51.3377L444.76 52.8084C444.349 53.2246 443.654 52.9194 443.603 52.3089L443.448 50.1168C443.423 49.8671 443.294 49.6451 443.114 49.5341L441.339 48.4242C440.85 48.1189 440.902 47.342 441.416 47.0922L443.294 46.2598C443.5 46.1766 443.654 45.9546 443.706 45.7326L444.117 43.596C444.246 42.9855 444.94 42.7913 445.301 43.263L446.612 44.9279C446.767 45.1221 446.973 45.2054 447.204 45.1776L449.236 44.9556C449.802 44.9001 450.188 45.5661 449.905 46.0933L448.85 47.9524C448.722 48.1744 448.722 48.4242 448.799 48.6462L449.622 50.644C449.905 51.199 449.442 51.8095 448.876 51.6707Z" fill="#F1E66B"/>
<path d="M396.876 185.671L394.895 185.171C394.664 185.116 394.432 185.171 394.278 185.338L392.76 186.808C392.349 187.225 391.654 186.919 391.603 186.309L391.448 184.117C391.423 183.867 391.294 183.645 391.114 183.534L389.339 182.424C388.85 182.119 388.902 181.342 389.416 181.092L391.294 180.26C391.5 180.177 391.654 179.955 391.706 179.733L392.117 177.596C392.246 176.985 392.94 176.791 393.301 177.263L394.612 178.928C394.767 179.122 394.973 179.205 395.204 179.178L397.236 178.956C397.802 178.9 398.188 179.566 397.905 180.093L396.85 181.952C396.722 182.174 396.722 182.424 396.799 182.646L397.622 184.644C397.905 185.199 397.442 185.809 396.876 185.671Z" fill="#C6C6C6"/>
<path d="M58.876 200.671L56.8953 200.171C56.6638 200.116 56.4323 200.171 56.278 200.338L54.7603 201.808C54.3488 202.225 53.6542 201.919 53.6028 201.309L53.4485 199.117C53.4227 198.867 53.2941 198.645 53.1141 198.534L51.3392 197.424C50.8504 197.119 50.9019 196.342 51.4163 196.092L53.2941 195.26C53.4999 195.177 53.6542 194.955 53.7057 194.733L54.1173 192.596C54.2459 191.985 54.9404 191.791 55.3005 192.263L56.6124 193.928C56.7667 194.122 56.9725 194.205 57.204 194.178L59.2362 193.956C59.8021 193.9 60.1879 194.566 59.905 195.093L58.8503 196.952C58.7217 197.174 58.7217 197.424 58.7989 197.646L59.622 199.644C59.905 200.199 59.4419 200.809 58.876 200.671Z" fill="#C6C6C6"/>
</svg>
