<svg width="1439" height="442" viewBox="0 0 1439 442" fill="none" xmlns="http://www.w3.org/2000/svg">
<mask id="mask0" mask-type="alpha" maskUnits="userSpaceOnUse" x="0" y="0" width="1440" height="442">
<rect width="1440" height="442" fill="#F8F7F6"/>
</mask>
<g mask="url(#mask0)">
<path d="M1101.49 376.121C1101.75 373.736 1102.07 371.349 1102.24 368.964C1102.35 367.472 1101.85 366.084 1101.07 364.799C1099.87 362.835 1098.69 360.843 1097.47 358.891C1097.03 358.207 1096.5 357.535 1095.93 356.954C1092.81 353.782 1090.42 350.088 1087.84 346.517C1087.37 345.858 1086.94 345.175 1086.4 344.585C1086.02 344.161 1085.56 343.783 1085.05 343.513C1084.37 343.139 1083.67 343.125 1083.04 343.718C1082.38 344.336 1081.68 344.916 1080.96 345.474C1080.4 345.9 1079.77 346.228 1079.22 346.674C1078.76 347.038 1078.32 347.457 1077.95 347.907C1077.61 348.314 1077.75 348.755 1078.04 349.178C1078.23 349.448 1078.31 349.777 1078.46 350.073C1078.68 350.514 1078.88 350.983 1079.17 351.375C1081.6 354.6 1084.56 357.36 1087.33 360.263C1089.75 362.761 1091.21 365.767 1092.25 368.999C1092.73 370.517 1092.54 372.008 1091.63 373.334C1090.43 375.092 1088.99 376.653 1087.31 377.964C1087.05 378.173 1086.63 378.348 1086.32 378.316C1084.19 378.085 1082.03 377.898 1080.03 377.001C1078.44 376.29 1077.09 375.233 1075.9 373.995C1073.74 371.733 1071.55 369.496 1069.56 367.104C1068.38 365.67 1067.55 363.965 1066.55 362.389C1066.21 361.823 1065.91 361.216 1065.5 360.704C1065.18 360.29 1064.77 359.875 1064.31 359.63C1063.98 359.446 1063.44 359.4 1063.11 359.56C1062.17 359.989 1061.23 360.453 1060.41 361.072C1059.26 361.919 1058.16 362.857 1057.11 363.841C1056.03 364.849 1055.97 365.972 1056.82 367.188C1058.2 369.141 1059.59 371.079 1060.98 373.033C1061.27 373.44 1061.53 373.872 1061.75 374.329C1062.56 375.999 1063.78 377.357 1065.12 378.625C1066.64 379.964 1068.07 381.401 1069.59 382.756C1072.34 385.226 1075.49 387.054 1078.98 388.392C1081.88 389.509 1084.78 389.755 1087.81 389.103C1089.45 388.754 1090.91 388.072 1092.22 387.012C1092.93 386.436 1093.78 386.038 1094.45 385.42C1096.43 383.61 1098.54 381.943 1099.9 379.577C1100.55 378.46 1101.15 377.367 1101.32 376.084C1101.38 376.097 1101.43 376.107 1101.49 376.121ZM1082.1 347.557C1082.86 346.76 1083 346.755 1083.85 347.396C1084.73 348.04 1085.63 348.625 1086.51 349.253C1086.65 349.365 1086.7 349.606 1086.79 349.79C1086.56 349.872 1086.33 350.006 1086.12 349.994C1085.95 349.992 1085.78 349.791 1085.62 349.676C1084.46 348.941 1083.47 347.926 1082.1 347.557C1082.17 347.785 1082.19 348.086 1082.35 348.252C1082.67 348.615 1083.04 348.973 1083.45 349.255C1084.16 349.749 1084.92 350.19 1085.67 350.674C1085.33 351.147 1085.02 350.952 1084.73 350.79C1083.96 350.4 1083.18 350.022 1082.44 349.62C1082.15 349.478 1081.82 349.326 1081.66 349.078C1080.97 348.11 1080.6 348.05 1082.1 347.557ZM1071.69 378.945C1072.25 378.651 1072.71 378.467 1073.1 378.202C1073.41 378.004 1073.75 377.745 1073.91 377.435C1074.03 377.227 1074 376.826 1073.86 376.632C1073.74 376.476 1073.34 376.408 1073.12 376.479C1072.39 376.705 1071.68 377.016 1070.96 377.311C1070.51 377.496 1070.08 377.539 1069.72 377.2C1069.13 376.632 1068.57 376.019 1067.99 375.438C1067.82 375.253 1067.63 375.065 1067.42 374.924C1067.05 374.648 1066.59 374.454 1066.32 374.116C1065.39 373.033 1064.52 371.912 1063.63 370.788C1063.37 370.453 1063.49 370.164 1063.77 369.877C1064.48 369.136 1065.19 368.38 1065.9 367.639C1066.53 366.995 1066.56 366.97 1067.1 367.658C1069.22 370.507 1071.64 373.072 1074.2 375.534C1076.05 377.322 1078.08 378.865 1080.44 379.936C1081.36 380.36 1082.36 380.8 1083.35 380.858C1086.91 381.092 1089.93 379.896 1092.06 376.963C1093.1 375.519 1093.89 373.889 1094.79 372.348C1095.45 371.234 1095.4 370.119 1094.99 368.93C1094.45 367.368 1093.7 365.911 1092.81 364.521C1091.48 362.398 1090.19 360.233 1088.83 358.138C1088.44 357.547 1087.84 357.092 1087.37 356.531C1086.72 355.769 1086.09 354.979 1085.5 354.181C1085.41 354.047 1085.48 353.65 1085.62 353.547C1086.43 352.893 1087.26 352.277 1088.11 351.695C1088.25 351.592 1088.62 351.571 1088.68 351.667C1089.27 352.45 1089.97 353.206 1090.35 354.075C1090.66 354.798 1091.01 355.414 1091.57 355.96C1092.79 357.154 1094.07 358.311 1095.2 359.586C1097.86 362.58 1099.47 366.029 1099.48 370.115C1099.47 371.498 1099.55 372.882 1099.48 374.268C1099.45 375.019 1099.36 375.823 1099.05 376.483C1097.79 379.134 1096.07 381.443 1093.64 383.191C1093.34 383.409 1093.05 383.627 1092.78 383.867C1091.04 385.415 1088.97 386.134 1086.71 386.435C1086.23 386.5 1085.71 386.491 1085.26 386.363C1083.64 385.91 1082.04 385.409 1080.46 384.865C1079.55 384.559 1079.59 384.518 1079.86 383.602C1079.93 383.338 1079.85 382.926 1079.68 382.741C1079.5 382.556 1079.08 382.501 1078.82 382.561C1078.43 382.646 1078.09 382.904 1077.71 383.055C1077.48 383.137 1077.15 383.251 1076.97 383.164C1076.49 382.931 1076.06 382.595 1075.52 382.251C1075.8 382.046 1075.98 381.934 1076.14 381.803C1076.47 381.561 1076.86 381.328 1077.17 381.063C1077.51 380.757 1077.92 380.414 1077.55 379.892C1077.23 379.412 1076.78 379.565 1076.36 379.741C1075.68 380.011 1075.03 380.336 1074.34 380.587C1074.11 380.67 1073.71 380.735 1073.55 380.604C1072.91 380.108 1072.35 379.562 1071.69 378.945ZM1060.26 364.004C1060.29 363.944 1060.3 363.865 1060.33 363.806C1061.74 364.364 1063.15 364.906 1064.58 365.468C1064.59 365.519 1064.59 365.569 1064.6 365.62C1064.32 365.645 1064.06 365.737 1063.8 365.7C1063.49 365.652 1063.19 365.507 1062.89 365.377C1061.95 365.001 1061 364.703 1060.26 364.004ZM1062.11 362.597C1062.08 362.492 1062.07 362.407 1062.04 362.302C1062.28 362.204 1062.53 362.074 1062.77 362.01C1062.95 361.965 1063.22 361.939 1063.3 362.038C1063.57 362.341 1063.75 362.693 1063.96 363.033C1064.01 363.11 1064.01 363.289 1063.94 363.358C1063.89 363.43 1063.7 363.457 1063.63 363.409C1063.11 363.15 1062.6 362.864 1062.11 362.597Z" fill="#E8E8E8"/>
<path d="M1072.38 338.896C1071.74 339.126 1071.27 339.307 1070.77 339.466C1070.18 339.656 1069.86 340.035 1069.81 340.651C1069.75 341.232 1070.08 341.581 1070.57 341.75C1071.97 342.224 1073.39 342.669 1074.79 343.111C1075.44 343.314 1076.12 343.521 1076.79 343.645C1077.09 343.708 1077.49 343.643 1077.77 343.504C1078.24 343.256 1078.28 342.687 1077.82 342.426C1077.05 341.985 1076.24 341.65 1075.42 341.297C1075.02 341.115 1074.6 340.978 1074.02 340.757C1074.34 340.577 1074.5 340.446 1074.69 340.369C1075.2 340.147 1075.75 339.947 1076.25 339.706C1076.71 339.489 1076.94 339.074 1076.91 338.574C1076.89 338.075 1076.61 337.752 1076.14 337.605C1074.19 336.983 1072.25 336.361 1070.28 335.784C1069.13 335.446 1067.96 335.183 1066.8 334.924C1066.59 334.881 1066.22 334.902 1066.16 335.021C1066.05 335.213 1066.04 335.573 1066.15 335.745C1066.4 336.077 1066.71 336.406 1067.07 336.565C1068.7 337.284 1070.35 337.944 1071.99 338.616C1072.08 338.668 1072.14 338.748 1072.38 338.896Z" fill="#E8E8E8"/>
<path d="M1055.18 356.441C1055.76 356.15 1056.35 355.878 1056.89 355.53C1057.88 354.896 1057.84 353.947 1056.76 353.458C1055.99 353.115 1055.14 352.954 1054.36 352.642C1053.01 352.112 1051.67 351.503 1050.33 350.958C1050.05 350.851 1049.75 350.772 1049.45 350.724C1048.84 350.613 1048.39 350.848 1048.21 351.34C1048.04 351.815 1048.22 352.364 1048.75 352.607C1049.32 352.891 1049.97 353.059 1050.57 353.3C1051.58 353.709 1052.58 354.134 1053.59 354.574C1053.68 354.61 1053.72 354.702 1053.89 354.837C1053.61 354.992 1053.38 355.125 1053.14 355.256C1052.83 355.423 1052.49 355.533 1052.25 355.745C1051.64 356.245 1051.61 357.063 1052.24 357.525C1052.79 357.92 1053.4 358.23 1054.03 358.508C1055.56 359.192 1057.1 359.844 1058.66 360.483C1058.99 360.62 1059.41 360.691 1059.79 360.654C1060.02 360.637 1060.36 360.41 1060.42 360.208C1060.49 360.01 1060.36 359.636 1060.19 359.469C1059.92 359.198 1059.55 359.004 1059.19 358.829C1058.14 358.297 1057.08 357.795 1056.03 357.278C1055.77 357.143 1055.53 356.976 1055.28 356.824C1055.22 356.682 1055.2 356.561 1055.18 356.441Z" fill="#E8E8E8"/>
<path d="M602.314 86.8954C601.35 87.5966 600.462 88.6204 599.726 89.5394C599.307 90.063 598.264 91.1145 598.264 91.1145C598.264 91.1145 597.223 92.3556 596.464 93.0585C595.84 93.636 595.397 93.853 594.776 94.4336C593.879 95.2723 593.463 95.8336 592.701 96.7963C592.145 97.4987 591.923 97.9625 591.344 98.6465C590.726 99.3779 590.305 99.7218 589.625 100.397C588.998 101.019 588.636 101.358 588 101.972C587.681 102.28 587.482 102.519 587.181 102.759C586.958 102.938 586.636 103.146 586.45 103.378C586.05 103.878 583.959 102.518 583.581 102.141C582.818 101.378 581.939 100.796 581.162 100.059C580.756 99.6742 580.268 99.3899 579.868 98.9903C579.606 98.7284 579.301 98.5114 579.024 98.2652C578.711 97.9864 578.573 97.6854 578.237 97.3589C577.71 96.8472 577.204 96.6057 576.724 96.24C576.224 95.8586 575.921 95.3928 575.374 94.8836C574.46 94.0327 573.727 93.3317 572.899 92.8585C572.505 92.6336 571.863 91.6208 571.486 91.6208" stroke="#E8E8E8" stroke-width="1.5" stroke-linecap="round" stroke-linejoin="round"/>
<path d="M601.976 87.0069C600.814 87.0069 599.818 87.6819 598.663 87.6819C597.555 87.6819 596.447 87.6819 595.338 87.6819C594.198 87.6819 593.139 87.8409 592.019 88.0132C591.493 88.0941 590.961 88.0373 590.438 88.157C589.764 88.3111 589.231 88.4695 588.525 88.4695C586.812 88.4695 585.066 88.7103 583.412 89.1696C582.489 89.4259 581.519 89.508 580.599 89.7634C579.861 89.9685 579.071 89.8921 578.324 90.1322C577.108 90.5231 575.697 90.4102 574.524 90.8572C574.074 91.0286 573.429 90.9949 572.949 91.0635C572.544 91.1213 572.25 91.2823 571.823 91.2823" stroke="#E8E8E8" stroke-width="1.5" stroke-linecap="round" stroke-linejoin="round"/>
<path d="M602.202 86.7823C601.078 86.7823 599.915 86.6698 598.826 86.6698C597.292 86.6698 595.798 86.3323 594.263 86.3323C590.752 86.3323 587.235 86.2198 583.706 86.2198C581.066 86.2198 578.427 86.2198 575.787 86.2198C572.904 86.2198 570.09 86.4448 567.211 86.4448" stroke="#E8E8E8" stroke-width="1.5" stroke-linecap="round" stroke-linejoin="round"/>
<path d="M601.864 86.7826C599.452 86.7826 597.401 86.0921 595.17 85.27C594.472 85.0128 593.331 84.8699 592.576 84.8699C591.724 84.8699 590.882 84.4199 590.025 84.4199C587.875 84.4199 585.782 83.9698 583.637 83.9698C582.082 83.9698 580.561 83.4616 579.024 83.1823C576.416 82.708 573.743 82.0876 571.099 81.9446C570.378 81.9057 569.832 81.6388 569.011 81.4946C568.331 81.3752 567.261 81.2446 567.261 81.2446C567.261 81.2446 566.343 81.0738 565.948 81.0446L562.317 80.4257C561.903 80.3334 561.567 80.3598 561.248 80.232C560.635 79.9867 559.906 80.0905 559.285 79.9132C558.747 79.7594 558.178 79.5336 557.647 79.3569" stroke="#E8E8E8" stroke-width="1.5" stroke-linecap="round" stroke-linejoin="round"/>
<path d="M566.873 86.5575C565.995 86.2149 564.279 84.5823 564.279 84.5823C564.279 84.5823 563.344 83.8159 562.935 83.4072C562.661 83.1334 562.215 82.769 561.879 82.6196C561.472 82.4389 560.741 81.9383 560.741 81.9383C560.741 81.9383 559.877 81.4685 559.76 81.2695C559.399 80.6552 558.278 79.9046 557.647 79.6943" stroke="#E8E8E8" stroke-width="1.5" stroke-linecap="round" stroke-linejoin="round"/>
<path d="M566.761 103.546C567.904 103.158 568.894 102.448 569.968 101.971C570.858 101.576 571.81 100.843 572.78 100.627C573.225 100.528 573.622 100.046 574.137 99.9523C574.652 99.8586 575.178 99.5682 575.649 99.3585C576.166 99.1287 576.84 99.061 577.281 98.7084C577.553 98.491 578.318 98.3225 578.462 98.0334" stroke="#E8E8E8" stroke-width="1.5" stroke-linecap="round" stroke-linejoin="round"/>
<path d="M566.648 103.546C566.936 102.071 566.761 100.438 566.761 98.9335C566.761 97.5314 566.873 96.1385 566.873 94.7206C566.873 92.1988 567.211 89.725 567.211 87.2324" stroke="#E8E8E8" stroke-width="1.5" stroke-linecap="round" stroke-linejoin="round"/>
<path d="M571.486 91.6201C571.041 92.5107 570.482 93.4048 570.048 94.3204C569.566 95.3388 569.318 96.4709 568.873 97.4707C568.695 97.8723 568.592 98.276 568.423 98.7958C568.25 99.3305 567.998 100.171 567.998 100.171L567.321 103.12" stroke="#E8E8E8" stroke-width="1.5" stroke-linecap="round" stroke-linejoin="round"/>
<path d="M576.615 98.6718C576.093 98.4774 576.012 98.022 575.612 97.7111C575.465 97.5963 575.228 97.4126 575.144 97.2456" stroke="#E8E8E8" stroke-width="1.5" stroke-linecap="round" stroke-linejoin="round"/>
<path d="M574.565 99.3802C574.382 98.9428 573.969 98.6148 573.682 98.24C573.57 98.0935 573.477 97.9396 573.346 97.8084C573.273 97.7348 573.133 97.6668 573.082 97.5751C572.923 97.2845 572.705 97.0348 572.563 96.751" stroke="#E8E8E8" stroke-width="1.5" stroke-linecap="round" stroke-linejoin="round"/>
<path d="M572.76 100.008C572.617 99.619 572.171 99.299 571.914 98.9678C571.851 98.887 571.608 98.5041 571.582 98.5558" stroke="#E8E8E8" stroke-width="1.5" stroke-linecap="round" stroke-linejoin="round"/>
<path d="M571.112 100.873C571.061 100.768 570.601 99.8913 570.484 100.008" stroke="#E8E8E8" stroke-width="1.5" stroke-linecap="round" stroke-linejoin="round"/>
<path d="M569.581 101.775C569.452 101.605 569.344 101.439 569.228 101.264" stroke="#E8E8E8" stroke-width="1.5" stroke-linecap="round" stroke-linejoin="round"/>
<path d="M140.955 316.479C140.443 315.699 139.763 315.11 138.938 314.632C137.748 313.933 136.613 313.155 135.469 312.396C135.364 312.321 135.289 312.058 135.339 311.932C135.824 310.728 136.325 309.54 136.869 308.358C136.968 308.14 137.282 307.895 137.512 307.885C139.296 307.756 141.071 307.646 142.861 307.586C143.873 307.547 144.191 307.403 144.583 306.486C144.959 305.606 144.324 304.6 143.372 304.63C140.801 304.719 138.242 304.835 135.669 304.621C133.742 304.46 131.789 304.589 129.845 304.611C129.661 304.617 129.398 304.682 129.31 304.815C129.08 305.16 129.348 306.491 129.673 306.808C130.329 307.455 131.034 308.009 132.073 307.79C132.258 307.751 132.456 307.795 132.649 307.792C133.853 307.838 133.853 307.838 133.582 308.96C133.555 309.083 133.532 309.197 133.496 309.316C133.013 310.879 132.592 311.027 131.128 310.221C130.185 309.696 129.248 309.129 128.246 308.749C126.375 308.03 124.443 307.431 122.54 306.788C121.834 306.546 121.779 306.458 122.051 305.783C122.567 304.501 123.087 303.21 123.603 301.928L123.593 301.924C124.125 300.603 124.672 299.3 125.175 297.968C125.27 297.704 125.313 297.286 125.164 297.094C124.745 296.562 124.284 295.992 123.703 295.665C122.912 295.211 121.99 294.973 121.125 294.647C120.73 294.503 120.544 294.263 120.562 293.824C120.601 293.081 120.583 292.338 120.628 291.608C120.674 290.99 120.683 290.347 120.869 289.773C121.319 288.431 121.831 287.103 122.382 285.79C123.401 283.4 125.038 281.585 127.573 280.657C128.236 280.414 128.416 280.473 128.612 281.14C129.471 284.008 130.372 286.858 131.144 289.748C131.635 291.591 131.93 293.501 132.316 295.381C132.538 296.46 133.159 297.194 134.173 297.289C135.068 297.371 135.455 297.789 135.558 298.599C135.572 298.705 135.614 298.8 135.641 298.9C136.047 300.028 136.898 300.472 138.077 300.186C138.604 300.057 139.145 299.978 139.663 299.846C140.102 299.738 140.551 299.635 140.959 299.437C142.125 298.844 142.382 298.208 142.019 296.973C141.971 296.81 141.928 296.637 141.867 296.479C141.64 295.777 141.447 295.077 141.916 294.39C141.978 294.292 142.009 294.159 142.009 294.047C141.961 293.013 142.007 291.972 141.838 290.958C141.159 287.078 140.406 283.215 139.69 279.344C139.571 278.684 139.643 278.589 140.293 278.352C140.412 278.309 140.527 278.276 140.636 278.23C141.571 277.903 141.941 277.434 141.81 276.468C141.658 275.383 141.454 274.288 141.14 273.24C140.728 271.818 140.186 271.562 138.71 271.856C136.836 272.239 135.575 271.546 134.942 269.804C134.884 269.636 134.837 269.473 134.749 269.327C134.578 269.048 134.434 268.702 134.18 268.547C133.681 268.241 133.332 267.87 133.096 267.332C132.846 266.688 132.379 266.527 131.747 266.749C131.233 266.928 130.732 267.133 130.218 267.312C129.746 267.473 129.559 267.768 129.533 268.283C129.513 268.643 129.342 269.067 129.085 269.312C128.715 269.669 128.563 270.045 128.656 270.517C128.763 271.038 128.866 271.569 129.024 272.077C129.174 272.548 129.071 272.831 128.607 273.085C128.246 273.279 127.897 273.611 127.717 273.975C127.526 274.336 127.333 274.506 126.944 274.544C124.575 274.779 122.368 275.567 120.192 276.446C119.53 276.712 118.83 277.13 118.409 277.669C117.467 278.885 116.562 280.149 115.865 281.516C114.701 283.76 114.135 286.205 113.931 288.736C113.721 291.309 113.582 293.875 114.274 296.399C114.507 297.226 114.376 297.945 113.988 298.685C113.461 299.684 112.915 300.675 112.515 301.724C112.199 302.538 111.779 303.188 111.024 303.629C110.369 304.02 109.766 304.532 109.073 304.819C108.48 305.056 108.073 305.365 107.867 305.932C107.714 306.341 107.528 306.747 107.484 307.165C107.444 307.574 107.428 308.147 107.671 308.387C108.374 309.086 109.208 309.657 110.007 310.259C110.077 310.309 110.204 310.303 110.304 310.308C110.509 310.332 110.716 310.324 110.919 310.381C112.073 310.664 113.211 311.042 114.386 311.244C115.686 311.473 116.954 311.779 118.175 312.289C122.854 314.273 127.742 315.792 132.27 318.151C134.422 319.271 136.843 319.525 139.218 319.895C139.75 319.979 140.23 319.799 140.608 319.422C141.293 318.731 141.485 317.3 140.955 316.479ZM139.881 296.718C139.95 296.968 139.986 297.217 140.053 297.555C139.614 297.718 139.198 297.879 138.78 298.017C138.468 298.119 138.249 297.988 138.084 297.723C137.623 296.985 137.664 296.856 138.466 296.523C138.63 296.453 138.805 296.41 138.948 296.309C139.46 295.907 139.713 296.095 139.881 296.718ZM138.893 274.325C139.853 273.908 139.966 273.964 140.026 274.968C140.056 275.426 140.073 275.89 140.094 276.456C139.817 276.582 139.577 276.756 139.316 276.788C139.208 276.802 139.014 276.525 138.941 276.341C138.792 275.925 138.714 275.471 138.568 275.046C138.433 274.681 138.524 274.482 138.893 274.325ZM137.2 276.843C138.036 280.951 138.844 285.07 139.69 289.182C139.926 290.367 140.249 291.531 140.508 292.714C140.542 292.883 140.461 293.197 140.334 293.259C138.92 293.934 137.483 294.577 136.047 295.221C135.897 295.285 135.713 295.291 135.495 295.329C135.4 295.169 135.285 295.035 135.243 294.885C134.614 292.765 133.999 290.64 133.37 288.52C133.143 287.762 132.791 287.034 132.625 286.266C132.057 283.601 131.661 280.903 130.802 278.315C130.678 277.921 130.804 277.747 131.181 277.626C132.762 277.128 134.335 276.594 135.926 276.1C136.785 275.822 137.024 275.96 137.2 276.843ZM135.543 273.229C135.734 273.203 136.024 273.271 136.139 273.406C136.282 273.584 136.293 273.867 136.366 274.164C136.14 274.276 135.98 274.392 135.812 274.416C133.984 274.739 132.164 275.043 130.33 275.353C130.051 275.4 129.766 275.434 129.644 275.063C129.528 274.705 129.695 274.458 130.003 274.367C130.78 274.124 131.571 273.875 132.373 273.709C133.418 273.503 134.482 273.361 135.543 273.229ZM130.817 270.323C131.549 270.107 132.303 269.978 133.058 269.815C133.123 269.796 133.191 269.823 133.334 269.834C133.408 269.986 133.532 270.157 133.581 270.343C133.919 271.724 134.104 271.574 132.651 271.809C132.204 271.88 131.751 271.937 131.31 272.022C130.915 272.102 130.708 271.943 130.625 271.587C130.571 271.354 130.456 271.108 130.488 270.886C130.513 270.684 130.651 270.37 130.817 270.323ZM137.441 317.505C136.428 316.987 135.444 316.424 134.444 315.899C131.227 314.219 127.859 312.915 124.46 311.632C122.79 311.002 121.11 310.424 119.343 310.091C119.007 310.026 118.717 309.79 118.387 309.684C117.651 309.43 116.924 309.101 116.161 308.971C114.535 308.681 112.913 308.382 111.447 307.609C111.13 307.441 110.887 307.145 110.601 306.899C110.866 306.635 111.076 306.282 111.392 306.115C111.798 305.895 112.278 305.714 112.718 305.718C113.28 305.726 113.518 305.473 113.689 305.049C114.496 303.1 115.303 301.151 116.111 299.202C116.122 299.173 116.128 299.131 116.15 299.106C117.329 296.878 117.12 294.532 116.9 292.126C116.455 287.301 117.709 282.95 121.214 279.389C122.601 277.967 124.283 277.051 126.239 276.633C126.587 276.557 126.771 276.662 126.896 276.968C127.034 277.301 127.168 277.643 127.329 277.974C127.5 278.308 127.371 278.459 127.044 278.598C126.245 278.922 125.445 279.223 124.692 279.632C122.646 280.751 121.148 282.363 120.259 284.515C119.687 285.909 119.104 287.299 118.561 288.704C117.96 290.254 118.052 291.851 118.348 293.45C118.435 293.908 118.559 294.358 118.67 294.814C118.806 295.347 119.11 295.745 119.609 295.995C120.483 296.437 121.354 296.889 122.215 297.336C122.814 297.648 122.878 297.741 122.614 298.34C122.096 299.543 121.466 300.714 121.016 301.944C120.487 303.399 120.065 304.896 119.647 306.384C119.496 306.927 119.676 307.41 120.194 307.724C120.952 308.176 121.682 308.695 122.488 309.055C123.81 309.649 125.189 310.132 126.538 310.659C126.53 310.678 126.527 310.688 126.519 310.707C128.357 311.425 130.237 312.07 132.023 312.89C133.055 313.361 133.958 314.126 134.933 314.741C135.847 315.31 136.782 315.853 137.696 316.422C137.851 316.516 138.035 316.677 138.076 316.827C138.13 317.06 138.111 317.332 138.025 317.544C138.016 317.596 137.613 317.584 137.441 317.505Z" fill="#F1E66B"/>
<path d="M120.897 298.519C120.28 297.831 119.498 297.693 118.506 298.076C117.757 298.363 117.297 298.886 117.03 299.607C116.931 299.937 116.799 300.264 116.743 300.6C116.597 301.413 117.065 302.499 117.619 302.726C118.53 303.105 119.828 302.719 120.385 301.899C120.607 301.573 120.823 301.234 121.019 300.886C121.499 300.059 121.452 299.137 120.897 298.519ZM119.149 300.948C118.787 300.472 118.854 300.275 119.426 300.063C119.648 300.44 119.457 300.689 119.149 300.948Z" fill="#F1E66B"/>
<path d="M133.185 285.549C133.213 286.096 133.558 286.42 134.065 286.596C134.951 286.897 135.686 286.56 136.349 286.038C138.209 284.567 137.288 281.965 135.905 281.38C135.51 281.348 135.06 281.173 134.732 281.312C133.899 281.667 133.169 282.241 133.119 283.237C133.069 284.009 133.141 284.785 133.185 285.549ZM135.345 283.136C135.446 283.052 135.72 283.048 135.835 283.126C136.27 283.396 136.424 284.026 136.24 284.511C136.044 285.026 135.647 285.083 135.294 284.666C134.957 284.267 134.959 283.476 135.345 283.136Z" fill="#F1E66B"/>
<path d="M21.0941 -8.7917C24.0366 -9.34053 27.0012 -9.80604 29.9128 -10.4715C32.0561 -10.9557 34.133 -11.6899 36.2409 -12.3074C36.2908 -12.3203 36.3528 -12.3542 36.3982 -12.3838C39.186 -13.5159 40.6657 -12.9554 42.0692 -10.2734C42.2108 -10.0073 42.4077 -9.66652 42.3577 -9.38641C42.1158 -8.02351 41.937 -6.62353 41.4814 -5.32994C41.3019 -4.80251 40.5677 -4.29166 39.9622 -4.0991C39.0001 -3.77853 37.9628 -3.74127 36.94 -3.58305C35.3768 -3.32044 33.7883 -3.08687 32.2218 -2.76997C31.1623 -2.54884 30.1338 -2.21105 29.071 -1.93563C28.357 -1.75057 28.0302 -1.30967 28.083 -0.575295C28.2909 2.41652 28.3947 5.41749 28.7399 8.39154C29.3696 13.6429 30.5894 18.777 32.1081 23.8336C33.1006 27.1742 34.6556 30.2265 36.9835 32.847C37.6196 33.5727 38.3588 34.2183 39.1345 34.801C40.0618 35.4868 40.8522 35.3888 41.6651 34.5726C43.1059 33.1127 44.0298 31.3772 44.3573 29.3331C44.4406 28.7772 44.4984 28.1922 44.6359 27.6401C44.9386 26.4395 45.861 25.7018 47.1064 25.6462C48.2643 25.5955 49.3123 26.2679 49.5973 27.4764C49.8636 28.5473 50.0978 29.6978 49.9932 30.7757C49.5685 34.9289 47.631 38.263 44.1608 40.5694C41.8543 42.1111 39.3693 42.0426 36.9157 40.7549C34.958 39.7305 33.2905 38.3281 31.9385 36.5768C29.3664 33.2359 27.3943 29.6148 26.2483 25.4947C25.4415 22.5868 24.2151 19.7699 22.9356 17.0202C20.9495 12.7437 19.5279 8.32094 18.9942 3.63246C18.9215 2.95668 18.7236 2.2777 18.6011 1.61484C18.5183 1.10196 18.2239 0.928895 17.7423 1.0537C14.8938 1.75628 12.0199 2.42982 9.17582 3.14907C8.3123 3.37285 8.22581 3.71586 8.57191 4.55235C11.1494 10.7238 13.4701 16.9974 14.8033 23.5626C15.614 27.5559 15.4041 31.5822 15.2861 35.6203C15.1256 40.4352 14.0454 45.061 12.8943 49.6874C12.7723 50.1643 12.4622 50.6009 12.1853 51.0289C11.8308 51.566 11.3756 52.058 11.0466 52.6242C10.2379 53.9915 9.12723 54.9561 7.47354 54.7435C5.65714 54.5196 4.6094 53.3128 4.21169 51.5457C4.04157 50.7705 3.79618 49.9792 3.76332 49.1862C3.74922 48.5308 3.80382 47.733 4.16713 47.2292C7.94639 41.9395 8.9553 35.9073 9.01348 29.5693C9.07261 23.5694 7.53206 17.8951 5.58412 12.2908C4.91307 10.363 4.24643 8.45183 3.60859 6.51543C3.25926 5.46605 2.94052 5.33493 2.10006 5.9802C0.917437 6.87444 -0.223128 7.79341 -1.40133 8.70432C-1.60729 8.86457 -1.79999 9.07481 -2.03248 9.13506C-3.22812 9.44491 -3.83179 10.3138 -4.12784 11.4057C-4.45602 12.5773 -4.72554 13.7692 -4.88216 14.9853C-5.07319 16.4063 -5.5961 17.3789 -6.43633 17.4898C-7.21347 17.6378 -8.54029 16.717 -8.86524 15.6257C-9.13381 14.6801 -9.30381 13.6377 -9.18052 12.6974C-8.83729 10.0436 -7.75252 7.64299 -6.17195 5.5057C-3.99105 2.55384 -1.37529 -0.0298304 2.02144 -1.40882C7.73765 -3.74513 13.2283 -6.66418 19.274 -8.15971C19.8884 -8.31894 20.4863 -8.47387 21.1007 -8.6331C21.104 -8.6874 21.1074 -8.7417 21.0941 -8.7917Z" fill="#E8E8E8"/>
<path d="M834.906 -30.0026C831.963 -30.5515 828.999 -31.017 826.087 -31.6825C823.944 -32.1667 821.867 -32.9008 819.759 -33.5183C819.709 -33.5313 819.647 -33.5651 819.602 -33.5947C816.814 -34.7268 815.334 -34.1663 813.931 -31.4844C813.789 -31.2183 813.592 -30.8775 813.642 -30.5974C813.884 -29.2344 814.063 -27.8345 814.519 -26.5409C814.698 -26.0135 815.432 -25.5026 816.038 -25.31C817 -24.9895 818.037 -24.9522 819.06 -24.794C820.623 -24.5314 822.212 -24.2978 823.778 -23.9809C824.838 -23.7598 825.866 -23.422 826.929 -23.1466C827.643 -22.9615 827.97 -22.5206 827.917 -21.7862C827.709 -18.7944 827.605 -15.7934 827.26 -12.8194C826.63 -7.56804 825.411 -2.43397 823.892 2.62263C822.899 5.96323 821.344 9.01559 819.017 11.6361C818.38 12.3618 817.641 13.0074 816.866 13.59C815.938 14.2759 815.148 14.1779 814.335 13.3617C812.894 11.9018 811.97 10.1662 811.643 8.12216C811.559 7.56625 811.502 6.98131 811.364 6.42915C811.061 5.22861 810.139 4.49085 808.894 4.43528C807.736 4.38456 806.688 5.05696 806.403 6.26548C806.136 7.33637 805.902 8.48684 806.007 9.56478C806.431 13.718 808.369 17.052 811.839 19.3584C814.146 20.9001 816.631 20.8317 819.084 19.544C821.042 18.5196 822.71 17.1172 824.061 15.3658C826.634 12.0249 828.606 8.40384 829.752 4.28371C830.559 1.37586 831.785 -1.44107 833.064 -4.19078C835.051 -8.46723 836.472 -12.89 837.006 -17.5785C837.079 -18.2543 837.276 -18.9332 837.399 -19.5961C837.482 -20.109 837.776 -20.282 838.258 -20.1572C841.106 -19.4547 843.98 -18.7811 846.824 -18.0619C847.688 -17.8381 847.774 -17.4951 847.428 -16.6586C844.851 -10.4871 842.53 -4.21349 841.197 2.3517C840.386 6.345 840.596 10.3713 840.714 14.4093C840.874 19.2243 841.955 23.8501 843.106 28.4765C843.228 28.9534 843.538 29.39 843.815 29.818C844.169 30.3551 844.624 30.8471 844.953 31.4133C845.762 32.7805 846.873 33.7452 848.526 33.5326C850.343 33.3087 851.391 32.1019 851.788 30.3348C851.958 29.5596 852.204 28.7682 852.237 27.9753C852.251 27.3199 852.196 26.5221 851.833 26.0183C848.054 20.7286 847.045 14.6963 846.987 8.35834C846.927 2.35851 848.468 -3.31581 850.416 -8.92018C851.087 -10.848 851.754 -12.7591 852.391 -14.6955C852.741 -15.7449 853.059 -15.876 853.9 -15.2307C855.083 -14.3365 856.223 -13.4175 857.401 -12.5066C857.607 -12.3464 857.8 -12.1361 858.032 -12.0759C859.228 -11.766 859.832 -10.8971 860.128 -9.80519C860.456 -8.63367 860.726 -7.44173 860.882 -6.22561C861.073 -4.80465 861.596 -3.83202 862.436 -3.72114C863.213 -3.57317 864.54 -4.4939 864.865 -5.58522C865.134 -6.53085 865.304 -7.57326 865.181 -8.51358C864.837 -11.1673 863.753 -13.568 862.172 -15.7052C859.991 -18.6571 857.375 -21.2408 853.979 -22.6198C848.262 -24.9561 842.772 -27.8751 836.726 -29.3706C836.112 -29.5299 835.514 -29.6848 834.899 -29.844C834.896 -29.8983 834.893 -29.9526 834.906 -30.0026Z" fill="#E8E8E8"/>
<path d="M1374.62 89.8349C1371.72 88.6017 1368.74 87.4848 1365.92 86.1046C1358.72 82.5765 1351.57 78.9409 1344.41 75.336C1342.83 74.5397 1341.28 73.7347 1339.71 72.9231C1338.75 72.4265 1337.79 72.0725 1336.66 72.3193C1335.87 72.4934 1335.39 71.9985 1334.94 71.3895C1334.32 70.5439 1333.68 69.7072 1332.9 69.0131C1331.65 67.8832 1330.89 66.5226 1330.49 64.916C1329.72 61.7312 1330.16 58.5868 1331.16 55.5513C1333.11 49.6098 1335.83 44.0269 1339.8 39.1244C1340.99 37.6629 1342.45 36.4093 1343.85 35.1076C1344.53 34.4535 1345.44 34.22 1346.35 34.3681C1347.85 34.6229 1349.38 34.8908 1350.84 35.3802C1357.97 37.7157 1364.63 41.0515 1371.33 44.3698C1376.02 46.6862 1380.9 48.5945 1385.71 50.6346C1387.17 51.2577 1388.73 51.6286 1390.2 52.2518C1394.01 53.9027 1397.79 55.637 1401.61 57.3098C1402.94 57.8958 1403.41 59.0573 1403.51 60.3376C1403.71 62.9354 1403.85 65.5595 1402.61 68.0187C1402.36 68.4969 1402.53 68.7335 1402.99 68.893C1403.63 69.1093 1404.27 69.3257 1404.89 69.588C1405.99 70.0538 1406.58 70.8709 1406.61 72.103C1406.67 74.4927 1406.89 76.8646 1406.26 79.2354C1405.54 81.9329 1404.26 84.2452 1401.99 85.9579C1400.91 86.7769 1399.82 87.5674 1398.67 88.2638C1398.09 88.6196 1397.37 88.8046 1396.7 88.9567C1396.42 89.0184 1396.03 88.907 1395.76 88.7582C1394.75 88.1828 1393.77 87.5305 1392.74 86.9858C1392.53 86.8786 1392.06 86.9888 1391.86 87.1578C1390.21 88.587 1388.57 90.0381 1386.96 91.5023C1386.71 91.7416 1386.52 92.0816 1386.4 92.4106C1385.86 93.8034 1384.81 94.2848 1383.36 93.6901C1380.42 92.4591 1377.49 91.1975 1374.56 89.9512C1374.58 89.927 1374.6 89.8809 1374.62 89.8349ZM1376.16 86.4458C1376.18 86.3997 1376.2 86.3537 1376.21 86.323C1378.3 87.2085 1380.39 88.0787 1382.47 88.9796C1383.27 89.336 1383.9 89.2016 1384.5 88.5673C1385.7 87.3074 1386.94 86.1046 1388.17 84.8798C1390.86 82.1997 1393.3 79.3402 1395.02 75.9399C1397.33 71.3309 1398.55 66.5171 1398.38 61.3673C1398.36 60.5759 1398.07 60.107 1397.32 59.7702C1395.45 58.9393 1393.64 58.0074 1391.78 57.1457C1390.95 56.7542 1390.09 56.4088 1389.22 56.0941C1388.15 55.6941 1387.03 55.4016 1385.97 54.9709C1382.93 53.7159 1379.9 52.393 1376.86 51.1227C1376.07 50.7881 1375.87 50.9199 1375.8 51.7838C1375.7 53.2858 1375.65 54.7767 1375.53 56.272C1375.1 61.8764 1373.33 67.0592 1370.13 71.7283C1368.25 74.4798 1365.84 76.8066 1363.38 79.0545C1362.65 79.7108 1362.7 80.0594 1363.55 80.4574C1367.79 82.4564 1371.97 84.4511 1376.16 86.4458ZM1336.65 51.5833C1336.27 52.6076 1335.74 53.8732 1335.33 55.176C1334.55 57.6456 1333.86 60.1545 1334.16 62.7763C1334.26 63.6378 1334.56 64.4947 1334.91 65.2968C1335.21 65.9892 1335.82 66.0653 1336.43 65.58C1336.9 65.2155 1337.33 64.8314 1337.76 64.4319C1338.8 63.4726 1339.92 62.6206 1340.48 61.219C1342.58 56.0468 1344.36 50.7807 1345.29 45.2591C1345.64 43.2044 1345.78 41.1324 1345.95 39.0582C1345.98 38.7424 1345.66 38.4095 1345.51 38.0896C1345.21 38.2347 1344.84 38.3162 1344.62 38.5467C1344.18 38.9462 1343.83 39.4158 1343.45 39.8722C1340.55 43.3199 1338.73 47.3692 1336.65 51.5833ZM1356.5 57.1709C1356.5 57.1862 1356.5 57.1862 1356.49 57.2016C1355.83 56.9195 1355.16 56.6375 1354.48 56.3489C1354.4 56.3161 1354.33 56.2833 1354.25 56.2505C1353.39 55.9204 1352.48 56.1166 1352.02 56.8691C1351.64 57.4746 1351.3 58.1678 1351.21 58.8542C1351.13 59.352 1351.33 60.1257 1351.69 60.4256C1352.58 61.1503 1353.59 61.7783 1354.63 62.2551C1356.5 63.1233 1358.43 63.8841 1360.34 64.623C1361.29 64.9924 1362.29 65.3223 1363.28 65.5097C1363.64 65.5707 1364.26 65.3244 1364.47 65.0128C1365.27 63.9113 1365.35 62.5826 1365.07 61.3354C1364.85 60.3688 1363.75 60.2627 1362.95 59.8909C1362.65 59.7443 1362.32 59.6592 1362.01 59.528C1360.2 58.7386 1358.34 57.9515 1356.5 57.1709ZM1396.17 84.4343C1396.84 84.9553 1397.51 84.6761 1398.18 84.0307C1398.84 83.3854 1399.63 82.8452 1400.19 82.1385C1400.89 81.252 1401.71 80.3061 1401.99 79.2797C1402.48 77.4112 1402.61 75.4664 1402.87 73.5367C1402.99 72.6772 1402.37 72.3775 1401.69 72.1788C1400.95 71.9757 1400.86 72.5568 1400.67 73.0021C1400.55 73.2632 1400.42 73.5176 1400.36 73.783C1399.5 77.1472 1397.59 79.9601 1395.61 82.7402C1394.88 83.7254 1394.9 83.8591 1396.17 84.4343ZM1360.43 56.182C1360.49 56.2608 1360.55 56.3397 1360.61 56.4186C1360.97 56.2625 1361.33 56.1437 1361.66 55.9372C1363.46 54.8433 1365.22 53.699 1367.05 52.6555C1367.63 52.3369 1368.38 52.2023 1369.06 52.1994C1370 52.1961 1370.42 52.9564 1369.96 53.7615C1369.67 54.2574 1369.26 54.7226 1368.8 55.0564C1367.65 55.9325 1366.41 56.732 1365.24 57.6015C1365.02 57.764 1364.78 58.2642 1364.86 58.3869C1365.07 58.6585 1365.43 58.8466 1365.76 58.9537C1365.96 59.017 1366.25 58.8501 1366.47 58.7621C1367.08 58.5093 1367.64 58.2214 1368.24 57.9839C1369.55 57.4497 1369.63 57.4825 1370.62 58.5381C1370.71 58.6301 1370.84 58.6672 1371.06 58.8182C1371.19 58.2875 1371.31 57.8313 1371.36 57.3796C1371.46 56.6034 1371.53 55.8294 1371.59 55.0554C1371.73 53.4021 1371.88 51.7401 1371.97 50.0672C1372.05 48.8064 1371.58 48.4978 1370.49 49.0932C1369.34 49.7304 1368.18 50.3675 1367.1 51.112C1365.04 52.5285 1363.03 54.0085 1361.02 55.4666C1360.8 55.6444 1360.63 55.9384 1360.43 56.182ZM1346.92 55.6538C1346.98 55.7326 1347.05 55.8181 1347.11 55.8969C1347.61 55.5828 1348.14 55.3125 1348.59 54.9415C1351.17 52.8886 1353.73 50.8072 1356.33 48.7609C1358.02 47.4194 1359.76 46.1567 1361.46 44.8218C1361.65 44.6681 1361.87 44.214 1361.79 44.0694C1361.43 43.4625 1360.12 43.361 1359.53 43.8374C1355.98 46.6281 1352.46 49.4845 1348.84 52.227C1347.62 53.1448 1347.23 54.327 1346.92 55.6538ZM1367.11 47.1108C1367.06 46.942 1367.04 46.7338 1366.92 46.6133C1366.22 45.8029 1364.9 45.7014 1364.07 46.4017C1361.13 48.8497 1358.18 51.313 1355.24 53.7609C1355.05 53.9146 1354.85 54.0837 1354.71 54.2789C1354.59 54.4282 1354.56 54.654 1354.5 54.8448C1354.69 54.9082 1354.94 55.0877 1355.1 55.0261C1355.63 54.815 1356.16 54.5513 1356.65 54.246C1359.95 52.0081 1363.22 49.7571 1366.51 47.528C1366.69 47.405 1366.87 47.2821 1367.11 47.1108ZM1368.3 66.8567C1364.72 69.1935 1361.34 71.3833 1357.97 73.573C1359.22 73.6856 1360.54 73.3004 1361.75 72.5404C1362.36 72.1604 1362.9 72.0831 1363.57 72.4024C1363.83 72.5292 1364.38 72.4892 1364.53 72.3004C1365.92 70.6698 1367.31 69.0393 1368.3 66.8567ZM1360.83 67.8168C1360.82 67.7203 1360.8 67.6019 1360.78 67.5055C1360.33 67.4578 1359.86 67.2764 1359.43 67.3689C1357.46 67.8075 1356 69.1728 1354.38 70.249C1354.18 70.3808 1354.38 71.0865 1354.39 71.5272C1354.71 71.4632 1355.07 71.4716 1355.34 71.3288C1356.96 70.3425 1358.58 69.319 1360.18 68.3042C1360.4 68.1637 1360.61 67.9793 1360.83 67.8168ZM1349.64 43.6098C1349.75 43.6557 1349.87 43.7235 1349.97 43.7695C1351.03 42.8694 1352.1 41.9977 1353.13 41.0691C1353.25 40.9725 1353.12 40.3369 1352.97 40.2713C1352.12 39.8952 1351.26 39.6024 1350.37 39.3337C1350.23 39.29 1349.81 39.5689 1349.8 39.7268C1349.71 41.0183 1349.69 42.3206 1349.64 43.6098ZM1370.86 59.5332C1370.24 59.9811 1369.81 60.3434 1369.33 60.6487C1368.45 61.1868 1367.77 61.7884 1368.1 62.9653C1368.16 63.156 1368.12 63.4279 1368.01 63.621C1367.51 64.5928 1368.14 65.0941 1368.78 65.5867C1369.55 64.8755 1370.86 61.2236 1370.86 59.5332ZM1344.34 61.8723C1343.98 63.0303 1344.22 63.3523 1345.37 63.2019C1345.61 63.1797 1345.9 63.118 1346.08 62.9577C1347.01 62.117 1347.95 61.2762 1348.8 60.3653C1348.97 60.1985 1348.86 59.6966 1348.75 59.4117C1348.71 59.324 1348.19 59.3027 1347.98 59.4126C1347.05 59.8938 1346.15 60.4035 1345.28 60.9789C1344.91 61.1876 1344.64 61.5628 1344.34 61.8723ZM1348.37 68.3551C1349.82 69.3685 1349.95 69.353 1351.17 68.3387C1351.72 67.8645 1352.33 67.4692 1352.92 67.0453C1353.38 66.7116 1353.85 66.3997 1354.27 66.0528C1354.39 65.9409 1354.43 65.7369 1354.5 65.568C1354.32 65.4893 1354.13 65.3361 1353.94 65.3472C1353.7 65.3541 1353.45 65.4662 1353.23 65.5914C1351.81 66.356 1350.41 67.1272 1349.01 67.8983C1348.81 67.9928 1348.64 68.1596 1348.37 68.3551ZM1350.96 63.2437C1350.86 63.0772 1350.76 62.9041 1350.66 62.7376C1350.45 62.922 1350.28 63.1568 1350.04 63.2908C1349.15 63.7698 1348.23 64.1984 1347.36 64.6839C1347.04 64.8597 1346.8 65.1581 1346.52 65.3843C1346.94 65.5241 1347.36 65.7231 1347.8 65.7643C1348.03 65.7881 1348.32 65.5839 1348.53 65.3995C1349.2 64.866 1349.87 64.3105 1350.52 63.7331C1350.69 63.6036 1350.81 63.4171 1350.96 63.2437ZM1348.96 47.4715C1349.03 47.5941 1349.11 47.7168 1349.19 47.8242C1349.61 47.5672 1350.05 47.2948 1350.45 47.0313C1350.38 46.9086 1350.31 46.8078 1350.24 46.6851C1349.81 46.9421 1349.39 47.1991 1348.96 47.4715Z" fill="#E8E8E8"/>
<path d="M1379.48 72.7269C1378.96 72.4669 1378.42 72.2223 1377.91 71.9317C1376.88 71.3504 1376.54 70.4224 1376.95 69.4869C1377.34 68.5449 1378.26 68.1169 1379.39 68.4156C1380.64 68.7448 1381.87 69.12 1383.09 69.5105C1383.66 69.7004 1384.02 69.597 1384.33 69.0558C1384.9 68.0063 1385.53 66.983 1386.14 65.9532C1386.62 65.1556 1387.45 64.7627 1388.27 64.8931C1389.11 65.0301 1389.74 65.5899 1389.6 66.42C1389.44 67.4449 1389.14 68.4788 1388.68 69.3946C1387.7 71.3051 1387.66 71.3073 1389.63 72.1612C1389.99 72.3119 1390.36 72.4691 1390.71 72.6352C1391.9 73.1768 1392.39 74.3127 1391.92 75.4234C1391.47 76.5034 1390.2 77.0567 1389.05 76.6398C1388.29 76.3713 1387.53 76.0503 1386.8 75.7052C1386.1 75.3885 1385.66 75.5642 1385.31 76.2346C1384.86 77.0979 1384.38 77.948 1383.84 78.7566C1383.12 79.8676 1382.28 80.2386 1381.41 79.9615C1380.64 79.7084 1380.2 79.1746 1380.31 78.4059C1380.48 77.4029 1380.79 76.4281 1381.07 75.4556C1381.16 75.1664 1381.31 74.8816 1381.46 74.6187C1381.81 73.9855 1381.61 73.5565 1380.98 73.2879C1380.48 73.0783 1380 72.8752 1379.51 72.6656C1379.49 72.7116 1379.48 72.7269 1379.48 72.7269Z" fill="#E8E8E8"/>
<path d="M384.693 401.164C384.761 400.877 385.018 400.625 385.235 400.379C385.518 400.054 385.825 399.747 386.152 399.47C389.005 396.957 391.871 394.446 394.737 391.936C396.27 390.595 397.819 389.244 399.386 387.936C400.194 387.254 401.074 386.677 401.862 385.965C402.196 385.65 402.486 385.157 402.558 384.714C402.815 383.171 402.972 381.609 403.179 380.056C403.241 379.598 403.053 379.288 402.632 379.104C402.451 379.031 402.283 378.96 402.101 378.886C400.628 378.281 399.867 377.093 400.091 375.518C400.273 374.3 400.835 373.271 402.36 373.403C402.86 373.446 403.382 373.506 403.868 373.624C405.19 373.926 406.503 374.279 407.813 374.579C408.934 374.844 410.053 375.055 411.17 375.345C412.201 375.606 413.22 375.929 414.243 376.227C414.246 376.215 414.248 376.202 414.251 376.189C414.804 376.294 415.349 376.371 415.895 376.514C416.453 376.658 417.006 376.828 417.54 377.034C418.209 377.278 418.687 377.708 418.718 378.496C418.786 379.971 417.809 381.195 416.349 381.401C415.8 381.48 415.233 381.516 414.679 381.555C414.35 381.571 414.14 381.714 414.088 382.056C413.791 383.67 413.466 385.291 413.182 386.908C413.04 387.716 413.025 388.535 413.317 389.321C413.943 391.083 414.558 392.831 415.566 394.431C416.262 395.554 416.826 396.757 417.392 397.947C418.368 399.984 419.284 402.063 420.273 404.103C421.188 405.985 421.684 407.945 421.832 410.021C421.939 411.633 421.445 412.988 420.44 414.22C419.688 415.147 418.748 415.635 417.571 415.595C415.256 415.509 412.975 415.312 410.77 414.451C409.232 413.846 407.59 413.51 405.996 413.064C403.224 412.305 400.465 411.547 397.688 410.813C395.928 410.349 394.16 409.923 392.385 409.535C391.586 409.358 390.756 409.201 389.935 409.202C388.075 409.189 386.559 408.471 385.264 407.209C384.607 406.562 383.881 405.798 383.947 404.845C384.038 403.623 384.406 402.388 384.693 401.164ZM413.932 396.901C413.309 395.804 412.684 394.72 412.019 393.642C411.909 393.464 411.645 393.349 411.424 393.281C411.081 393.164 410.945 392.995 410.939 392.615C410.939 392.211 410.833 391.812 410.78 391.411C410.772 391.318 410.766 391.213 410.795 391.127C411.054 390.524 410.78 390.119 410.343 389.75C410.119 389.564 409.892 389.39 409.712 389.173C409.405 388.802 409.474 388.515 409.886 388.267C409.958 388.228 410.031 388.19 410.091 388.149C410.338 388.013 410.707 387.992 410.697 387.572C410.673 387.15 410.52 386.795 410.145 386.581C409.933 386.462 409.716 386.369 409.52 386.24C409.159 386.016 409.056 385.67 409.221 385.284C409.384 384.91 409.695 384.786 410.092 384.888C410.203 384.922 410.301 384.953 410.414 384.975C410.698 385.054 410.962 385.039 411.09 384.711C411.216 384.396 411.144 384.16 410.839 383.985C410.473 383.785 410.108 383.586 409.757 383.376C409.407 383.166 409.124 382.878 409.339 382.436C409.536 382.016 409.918 382.062 410.303 382.161C410.552 382.222 410.799 382.294 411.05 382.342C411.326 382.394 411.471 382.252 411.486 381.968C411.51 381.372 411.142 380.846 410.559 380.762C410.026 380.687 409.492 380.69 408.954 380.64C408.711 380.62 408.449 380.558 408.22 380.462C407.991 380.367 407.774 380.208 407.564 380.077C406.74 379.556 406.631 379.105 407.18 378.282C407.292 378.108 407.589 377.981 407.813 377.971C408.151 377.97 408.511 378.065 408.846 378.154C409.331 378.272 409.787 378.476 410.269 378.541C411.855 378.763 413.383 379.352 415.015 379.4C415.597 379.419 415.998 379.299 416.451 378.772C416.164 378.639 415.944 378.493 415.698 378.42C415.25 378.31 414.793 378.249 414.343 378.151C412.425 377.762 410.509 377.36 408.591 376.971C408.465 376.947 408.342 376.91 408.219 376.874C407.57 376.66 406.931 376.526 406.22 376.496C405.342 376.46 404.471 376.178 403.609 375.988C403.395 375.948 403.186 375.882 402.827 375.788C402.939 376.018 402.965 376.153 403.043 376.22C403.685 376.812 404.322 377.428 404.996 377.986C405.423 378.341 405.67 378.753 405.588 379.312C405.271 381.509 404.94 383.703 404.61 385.898C404.589 386.077 404.53 386.248 404.511 386.414C404.411 387.478 404.013 388.329 403.01 388.87C402.618 389.083 402.319 389.483 402.028 389.845C401.329 390.705 400.473 391.365 399.454 391.785C399.227 391.885 398.966 391.888 398.718 391.959C398.455 392.039 398.154 392.113 397.942 392.269C397.487 392.6 397.099 392.996 396.665 393.358C396.418 393.559 396.389 393.71 396.676 393.908C397.206 394.269 397.718 394.653 398.233 395.024C398.632 395.322 399.097 395.41 399.543 395.259C401.368 394.639 403.003 395.145 404.559 396.065C405.179 396.431 405.764 396.842 406.372 397.204C407.852 398.111 409.44 398.32 411.108 397.84C411.977 397.587 412.82 397.199 413.755 397.284C414.033 397.324 414.039 397.09 413.932 396.901ZM396.7 397.579C396.707 397.749 396.738 397.925 396.757 398.098C396.858 398.861 397.076 399.15 397.606 399.172C398.226 399.198 398.658 398.849 398.801 398.172C398.92 397.62 398.841 397.488 398.29 397.371C397.928 397.289 397.584 397.185 397.222 397.103C396.87 397.037 396.68 397.209 396.7 397.579ZM397.794 407.141C398.019 407.327 398.471 406.943 398.548 406.54C398.664 405.935 398.288 405.251 397.721 405.013C397.286 404.839 396.774 405.199 396.812 405.676C396.867 406.339 397.32 406.764 397.794 407.141ZM386.393 404.382C386.445 405.266 387.001 405.828 387.799 406.149C387.872 406.176 387.945 406.203 388.033 406.219C390.518 406.846 393 407.486 395.487 408.1C395.809 408.187 396.141 408.224 396.472 408.26C396.523 408.27 396.585 408.216 396.723 408.177C396.469 407.803 396.18 407.474 396.007 407.089C395.818 406.649 395.601 406.151 395.635 405.701C395.738 404.285 396.855 403.623 398.199 404.086C399.384 404.493 400.113 405.309 400.065 406.24C400.033 407.016 399.827 407.747 399.327 408.383C399.245 408.472 399.196 408.593 399.084 408.768C399.462 408.905 399.801 409.034 400.146 409.138C401.414 409.522 402.682 409.906 403.954 410.264C404.314 410.358 404.715 410.304 405.077 410.385C405.648 410.532 406.197 410.728 406.758 410.925C409.26 411.803 411.748 412.679 414.25 413.557C414.995 413.815 415.76 413.764 416.519 413.608C416.803 413.557 416.892 413.365 416.869 413.074C416.786 412.015 417.388 411.594 418.335 412.021C418.431 412.065 418.529 412.097 418.627 412.128C418.662 412.083 418.687 412.022 418.721 411.977C418.469 411.798 418.232 411.61 417.975 411.457C417.453 411.123 417.224 410.754 417.359 410.388C417.512 409.999 418.023 409.848 418.617 410.013C418.727 410.047 418.836 410.093 418.939 410.1C419.132 410.11 419.489 410.152 419.511 410.104C419.585 409.857 419.628 409.565 419.553 409.342C419.497 409.162 419.265 409.013 419.078 408.9C418.397 408.51 417.712 408.145 417.031 407.755C416.752 407.585 416.479 407.377 416.219 407.171C415.926 406.933 415.894 406.627 416.059 406.306C416.22 406.01 416.483 405.864 416.817 405.954C417.273 406.092 417.723 406.256 418.161 406.417C418.32 406.473 418.459 406.564 418.612 406.646C418.786 406.078 418.616 405.746 418.089 405.503C417.178 405.095 416.251 404.698 415.339 404.291C415.123 404.198 414.911 404.079 414.699 403.961C414.367 403.793 414.227 403.506 414.345 403.163C414.465 402.807 414.75 402.613 415.135 402.712C415.768 402.871 416.382 403.066 417.011 403.25C417.159 403.291 417.32 403.335 417.471 403.363C417.508 403.305 417.546 403.247 417.583 403.189C417.305 402.941 417.052 402.632 416.734 402.454C415.827 401.956 414.895 401.519 413.953 401.066C413.31 400.749 412.651 400.455 412.839 399.473C412.594 399.531 412.433 399.552 412.278 399.614C410.959 400.174 409.643 400.316 408.22 400.059C406.684 399.782 405.332 399.226 404.071 398.335C403.43 397.874 402.677 397.588 401.959 397.256C401.78 397.17 401.562 397.155 401.356 397.142C400.417 397.082 400.29 397.201 400.153 398.115C400.091 398.508 400.001 398.908 399.84 399.269C399.428 400.196 398.555 400.67 397.558 400.572C396.332 400.445 395.669 399.967 395.47 398.833C395.334 398.116 395.429 397.351 395.401 396.615C395.391 396.326 395.416 395.992 395.294 395.747C395.004 395.157 394.629 395.073 394.13 395.5C392.88 396.581 391.666 397.682 390.439 398.781C389.402 399.707 388.331 400.6 387.36 401.59C386.612 402.362 386.331 403.353 386.393 404.382Z" fill="#E8E8E8"/>
<path d="M424.821 400.222C425.227 400.358 425.458 400.638 425.526 401.054C425.561 401.278 425.565 401.515 425.542 401.737C425.426 402.955 424.509 403.687 423.411 403.47C422.709 403.337 422.35 403.003 422.247 402.412C421.978 400.845 423.307 399.709 424.821 400.222ZM423.626 402.398C423.95 402.449 424.214 402.253 424.261 401.908C424.31 401.602 424.166 401.378 423.908 401.339C423.603 401.291 423.326 401.504 423.272 401.838C423.213 402.142 423.349 402.355 423.626 402.398Z" fill="#E8E8E8"/>
<path d="M420.983 396.178C422.023 396.749 422.142 398.484 421.173 399.177C420.604 399.581 419.985 399.631 419.36 399.356C418.879 399.146 418.645 398.728 418.616 398.211C418.606 398.012 418.646 397.803 418.652 397.617C418.702 397.41 418.738 397.22 418.803 397.035C419.089 396.262 420.281 395.789 420.983 396.178ZM419.535 397.676C419.484 397.991 419.451 398.319 419.806 398.416C420.03 398.478 420.31 398.452 420.521 398.374C420.584 398.357 420.541 398.014 420.54 397.817C420.541 397.758 420.514 397.694 420.495 397.641C420.421 397.41 420.391 397.109 420.041 397.141C419.73 397.171 419.563 397.376 419.535 397.676Z" fill="#E8E8E8"/>
<path d="M418.802 389.99C418.167 390.224 417.216 389.699 417.037 389.045C416.874 388.463 417.041 387.953 417.448 387.518C417.832 387.108 418.307 387.09 418.818 387.246C419.868 387.356 419.944 388.188 419.641 388.997C419.472 389.417 419.246 389.828 418.802 389.99ZM418.392 388.287C418.263 388.293 418.141 388.417 417.95 388.539C418.076 388.7 418.191 388.87 418.203 388.862C418.357 388.773 418.487 388.66 418.627 388.548C418.544 388.464 418.462 388.281 418.392 388.287Z" fill="#E8E8E8"/>
<path d="M183 78.5368C183 70.5677 186.603 63.0958 189.793 56.0071C191.088 53.1285 193.33 50.9878 195.429 48.7648C196.89 47.2177 198.14 45.4438 199.62 43.9634C200.696 42.8872 202.031 42.1632 203.089 41.105C204.292 39.9022 205.786 38.6599 207.409 38.07C208.889 37.5318 210.22 36.3272 211.616 35.6292C212.18 35.347 212.778 35.5298 213.35 35.2438C214.072 34.8828 214.8 34.6321 215.598 34.6014C216.898 34.5514 218.043 33.7343 219.42 33.7343C220.66 33.7343 221.759 33.1562 223.033 33.1562C224.114 33.1562 225.21 32.289 226.213 32.289C227.489 32.289 228.625 32 229.826 32" stroke="#E8E8E8" stroke-width="2" stroke-linecap="round" stroke-linejoin="round"/>
<path d="M277.082 78.5368C277.082 70.5677 273.48 63.0958 270.29 56.0071C268.994 53.1285 266.753 50.9878 264.653 48.7648C263.192 47.2177 261.942 45.4438 260.462 43.9634C259.386 42.8872 258.052 42.1632 256.993 41.105C255.791 39.9022 254.296 38.6599 252.674 38.07C251.194 37.5318 249.863 36.3272 248.466 35.6292C247.902 35.347 247.304 35.5298 246.732 35.2438C246.01 34.8828 245.282 34.6321 244.484 34.6014C243.184 34.5514 242.04 33.7343 240.662 33.7343C239.422 33.7343 238.323 33.1562 237.049 33.1562C235.968 33.1562 234.872 32.289 233.87 32.289C232.594 32.289 231.458 32 230.256 32" stroke="#E8E8E8" stroke-width="2" stroke-linecap="round" stroke-linejoin="round"/>
<path d="M229.801 32.3677C228.744 33.1939 227.69 34.0021 226.65 34.8106C226.232 35.1362 225.882 35.7902 225.39 36.0087C224.872 36.2388 224.765 36.7698 224.34 37.0201C223.544 37.4879 222.28 38.64 221.819 39.4475C221.519 39.9726 221.041 40.1323 220.699 40.56C220.387 40.9493 220.039 41.367 219.687 41.7193C218.481 42.9254 216.881 44.4061 216.108 45.9516C215.143 47.8831 214.281 49.7461 213.308 51.6932C212.861 52.5861 212.243 53.7175 212.024 54.7041C211.881 55.3492 211.414 55.8301 211.106 56.3846C210.89 56.7726 210.786 57.2573 210.507 57.606C210.233 57.9488 210.138 58.6857 209.947 59.1154C209.743 59.5735 209.479 60.1197 209.348 60.578C209.239 60.9587 208.782 61.3518 208.585 61.7061C208.274 62.2668 208.052 62.8291 207.846 63.4255C207.014 65.8297 206.274 67.978 206.274 70.5987C206.274 71.8876 205.994 73.1391 205.994 74.4498C205.994 75.5001 205.994 76.5504 205.994 77.6007" stroke="#E8E8E8" stroke-width="2" stroke-linecap="round" stroke-linejoin="round"/>
<path d="M230.281 32.3677C231.339 33.1939 232.392 34.0021 233.432 34.8106C233.851 35.1362 234.201 35.7902 234.692 36.0087C235.21 36.2388 235.317 36.7698 235.743 37.0201C236.538 37.4879 237.802 38.64 238.263 39.4475C238.563 39.9726 239.041 40.1323 239.384 40.56C239.695 40.9493 240.043 41.367 240.395 41.7193C241.601 42.9254 243.201 44.4061 243.974 45.9516C244.94 47.8831 245.801 49.7461 246.775 51.6932C247.221 52.5861 247.839 53.7175 248.058 54.7041C248.202 55.3492 248.668 55.8301 248.976 56.3846C249.192 56.7726 249.297 57.2573 249.575 57.606C249.85 57.9488 249.945 58.6857 250.136 59.1154C250.339 59.5735 250.604 60.1197 250.735 60.578C250.843 60.9587 251.3 61.3518 251.497 61.7061C251.809 62.2668 252.03 62.8291 252.236 63.4255C253.068 65.8297 253.808 67.978 253.808 70.5987C253.808 71.8876 254.088 73.1391 254.088 74.4498C254.088 75.5001 254.088 76.5504 254.088 77.6007" stroke="#E8E8E8" stroke-width="2" stroke-linecap="round" stroke-linejoin="round"/>
<path d="M229.941 33.0679C229.853 32.5664 230.081 31.7327 230.081 32.6478C230.081 32.8827 229.963 33.6176 230.151 33.7681C230.448 34.0058 230.279 35.5345 230.369 35.9387C230.699 37.4239 230.782 38.8401 230.782 40.42C230.782 42.1472 230.782 43.8744 230.782 45.6015C230.782 47.6795 231.062 49.6963 231.062 51.7477C231.062 54.4857 231.202 57.2048 231.202 59.9556C231.202 62.0835 230.922 64.1114 230.922 66.2575C230.922 68.0834 230.641 69.9251 230.641 71.7501C230.641 73.7003 230.641 75.6505 230.641 77.6007" stroke="#E8E8E8" stroke-width="2" stroke-linecap="round" stroke-linejoin="round"/>
<path d="M183.312 78.7974C183.703 78.5135 184.088 78.1891 184.453 77.9054C184.643 77.7578 184.73 77.5479 184.96 77.4453C185.102 77.3825 185.381 77.2607 185.491 77.173C185.77 76.9498 186.134 76.7548 186.481 76.6003C186.876 76.4248 187.395 76.4156 187.749 76.1402C187.83 76.0775 188.231 75.9616 188.345 75.929C188.559 75.8677 188.761 75.9533 188.974 75.8585C189.327 75.7016 189.916 75.5168 190.308 75.5017C191.241 75.4658 192.252 75.1911 193.157 74.99C194.161 74.7669 195.242 74.7412 196.288 74.7412C196.766 74.7412 197.243 74.8083 197.697 74.8257C198.29 74.8485 198.868 75.133 199.453 75.1637C200.611 75.2247 201.686 75.9276 202.791 76.1731C203.28 76.2819 203.809 76.4803 204.269 76.6848C204.582 76.8237 205.875 76.7439 205.875 77.1918" stroke="#E8E8E8" stroke-width="2" stroke-linecap="round" stroke-linejoin="round"/>
<path d="M206.128 77.8672C206.453 77.4516 206.945 77.2397 207.311 76.8531C207.619 76.5288 208.169 76.1291 208.645 76.0926C209.159 76.053 209.805 75.7022 210.269 75.4823C210.681 75.2872 211.339 75.1477 211.79 75.0832C213.145 74.8897 214.541 74.4025 215.912 74.4025C217.082 74.4025 218.155 74.0645 219.311 74.0645C220.403 74.0645 221.914 73.8232 222.945 74.1913C223.181 74.2756 223.493 74.2679 223.743 74.3133C224.009 74.3618 224.273 74.4483 224.545 74.4823C225.123 74.5545 225.695 74.8692 226.259 74.9095C226.575 74.9321 227.269 75.0564 227.508 75.2475C227.874 75.5404 228.489 75.5674 228.902 75.7968C229.272 76.0024 229.588 76.2978 229.916 76.5527C230.167 76.7477 230.661 76.9071 230.803 77.1911" stroke="#E8E8E8" stroke-width="2" stroke-linecap="round" stroke-linejoin="round"/>
<path d="M254.38 77.7829C253.971 77.1122 253.187 76.531 252.563 76.0459C251.903 75.5323 251.285 75.1073 250.535 74.7032C248.544 73.6313 246.288 73.3887 244.07 73.3887C243.418 73.3887 242.669 73.2804 242.042 73.4732C241.423 73.6638 240.679 73.8512 240.033 73.8957C239.438 73.9367 238.808 74.1457 238.221 74.2525C237.468 74.3894 236.693 74.5813 235.977 74.844C234.911 75.2347 233.929 75.8225 232.85 76.1961C232.296 76.3878 231.791 76.7087 231.245 76.9191C231.143 76.9581 230.574 77.3123 230.55 77.3604" stroke="#E8E8E8" stroke-width="2" stroke-linecap="round" stroke-linejoin="round"/>
<path d="M277.28 78.6287C276.698 78.0461 276.327 77.2446 275.675 76.7321C275.13 76.304 274.621 75.9066 273.985 75.6054C272.245 74.7812 270.379 74.8261 268.501 74.8261C265.6 74.8261 262.655 74.4369 259.84 75.3754C259.193 75.5911 258.532 75.751 257.882 75.9716C257.343 76.1548 256.812 76.3215 256.258 76.4504C255.88 76.5383 255.32 76.6897 254.971 76.8729C254.748 76.9907 254.567 77.1922 254.295 77.1922" stroke="#E8E8E8" stroke-width="2" stroke-linecap="round" stroke-linejoin="round"/>
<path d="M229.862 127.887C227.723 126.267 226.197 124.265 223.846 122.922C223.054 122.469 222.583 121.656 221.771 120.847C220.962 120.04 219.696 118.785 219.696 118.785C219.696 118.785 216.172 114.906 214.613 113.347C213.713 112.447 213.142 111.508 212.13 110.391C210.815 108.94 209.766 108.027 208.584 106.845C207.327 105.589 206.316 104.413 204.787 102.931C203.268 101.457 202.039 100.537 200.781 99.2792C198.433 96.9313 195.746 94.623 193.741 91.9499C193.049 91.0269 192.622 90.1417 191.797 89.0601C191.269 88.3676 190.949 87.997 190.378 87.3395C189.883 86.7692 189.547 86.4995 189.078 85.9077C188.51 85.1921 188.348 84.6768 187.778 83.9637C187.288 83.3517 186.891 83.1127 186.412 82.4926C185.913 81.8489 185.725 81.2583 185.295 80.7325C184.908 80.2591 183.442 77.9233 183.285 78.2369" stroke="#E8E8E8" stroke-width="2" stroke-linecap="round" stroke-linejoin="round"/>
<path d="M229.935 128.076C229.755 127.64 229.489 127.355 229.222 126.976C228.876 126.483 228.629 125.825 228.357 125.285C227.828 124.24 227.141 123.244 226.747 122.138C226.379 121.102 225.868 120.165 225.332 119.204C224.199 117.175 223.133 115.12 221.96 113.114C221.627 112.544 221.497 112.294 221.273 111.8C220.996 111.191 220.705 110.486 220.269 109.971C219.627 109.212 219.381 108.164 218.823 107.359C217.174 104.977 216.04 102.257 214.815 99.6534C214.215 98.3779 213.535 97.1151 213.017 95.7982C212.332 94.0531 211.15 92.4939 210.593 90.6851C210.234 89.5185 209.677 88.4002 209.356 87.222C208.963 85.7841 208.556 84.4192 207.955 83.0663C207.798 82.7133 207.74 82.2556 207.639 81.8746C207.482 81.2811 207.136 80.7187 207.018 80.1278C206.914 79.6088 206.727 79.1435 206.646 78.6204C206.582 78.2017 206.285 77.8068 206.285 77.3828" stroke="#E8E8E8" stroke-width="2" stroke-linecap="round" stroke-linejoin="round"/>
<path d="M230.669 77.1992C230.669 80.0964 230.833 83.056 230.582 85.9384C230.494 86.9508 230.635 87.9747 230.531 88.9889C230.393 90.3402 230.211 91.7717 230.211 93.1293C230.211 94.6372 230.145 96.1392 230.119 97.6415C230.081 99.8229 230.302 101.995 230.302 104.17C230.302 105.187 230.225 106.15 230.119 107.16C230.015 108.144 229.977 109.185 229.798 110.154C229.647 110.969 229.661 111.932 229.661 112.762C229.661 114.482 229.661 116.201 229.661 117.921C229.661 120.371 229.661 122.847 229.661 125.285C229.661 126.172 229.569 127.083 229.569 127.984" stroke="#E8E8E8" stroke-width="2" stroke-linecap="round" stroke-linejoin="round"/>
<path d="M229.752 128.076C231.019 126.55 232.109 124.897 233.149 123.212C234.292 121.362 235.59 119.609 236.719 117.753C238.691 114.513 240.209 111.032 241.761 107.583C242.622 105.67 243.545 103.838 244.552 102.001C244.709 101.715 244.786 101.386 244.919 101.084C245.074 100.73 245.323 100.428 245.469 100.071C246.102 98.516 246.717 96.9519 247.333 95.3905C248.177 93.2486 249.399 91.2857 249.966 89.0195C250.55 86.6806 251.722 84.6742 252.69 82.4957C253.211 81.3234 253.957 80.1444 254.142 78.8493C254.177 78.602 254.32 78.3666 254.32 78.1159C254.32 77.8479 254.238 77.3319 254.503 77.1992" stroke="#E8E8E8" stroke-width="2" stroke-linecap="round" stroke-linejoin="round"/>
<path d="M230.027 128.076C230.532 127.104 231.47 126.697 232.273 126.013C233.351 125.095 234.572 124.381 235.614 123.401C236.674 122.403 237.751 121.402 238.827 120.427C239.852 119.498 240.599 118.31 241.664 117.401C243.214 116.079 244.383 114.355 245.601 112.742C246.673 111.32 247.781 109.923 249.008 108.632C250.776 106.771 251.792 104.349 253.408 102.357C254.234 101.34 255.102 100.261 256.026 99.3375C257.065 98.2983 258.223 97.398 259.361 96.4702C260.435 95.5951 261.463 94.6847 262.458 93.7202C263.149 93.0501 263.978 92.4999 264.714 91.8766C265.573 91.1483 266.296 90.2966 267.123 89.5339C268.031 88.6958 269.029 87.9736 269.903 87.0996C270.659 86.3435 271.367 85.5438 272.124 84.7875C273.182 83.7288 273.865 82.6514 274.66 81.3855C275.201 80.5236 275.76 79.5521 276.483 78.829C276.655 78.6571 276.952 78.5029 277.054 78.2993" stroke="#E8E8E8" stroke-width="2" stroke-linecap="round" stroke-linejoin="round"/>
<path d="M264.951 49.4075C264.266 50.0613 263.558 50.6367 262.801 51.1847C262.242 51.5892 261.485 51.9179 260.998 52.4039C260.575 52.825 259.908 52.7132 259.545 53.0439C259.264 53.3011 258.683 53.5379 258.344 53.6373" stroke="#E8E8E8" stroke-width="2" stroke-linecap="round" stroke-linejoin="round"/>
<path d="M259.42 47.6811C259.902 47.6178 261.447 46.9417 261.786 46.5114" stroke="#E8E8E8" stroke-width="2" stroke-linecap="round" stroke-linejoin="round"/>
<path d="M258.344 58.7621C259.458 58.7621 260.242 57.91 261.165 57.3455C261.565 57.1011 261.967 56.8305 262.374 56.6064C262.8 56.372 263.419 55.9336 263.886 55.8796C264.368 55.8237 264.798 55.2144 265.341 55.2144C265.708 55.2144 266.237 54.8282 266.505 54.5492C267.017 54.0169 267.643 53.0231 268.319 52.7754" stroke="#E8E8E8" stroke-width="2" stroke-linecap="round" stroke-linejoin="round"/>
<path d="M259.057 64.4717C260.707 64.4717 262.257 63.2038 263.691 62.4145C264.783 61.8138 265.843 61.1263 266.927 60.5298C268.282 59.7845 269.539 58.7601 270.845 58.0415" stroke="#E8E8E8" stroke-width="2" stroke-linecap="round" stroke-linejoin="round"/>
<path d="M259.057 70.1926C262.094 70.1926 264.481 68.1592 267.195 66.963C267.651 66.7619 268.204 66.1866 268.595 65.844C269.259 65.261 269.931 64.6987 270.595 64.1148C271.174 63.6061 272.03 62.7856 272.726 62.5254" stroke="#E8E8E8" stroke-width="2" stroke-linecap="round" stroke-linejoin="round"/>
<path d="M263.331 73.3589C266.056 73.3589 267.977 71.6332 270.203 70.3883C271.771 69.5113 272.832 67.7548 274.395 66.9775" stroke="#E8E8E8" stroke-width="2" stroke-linecap="round" stroke-linejoin="round"/>
<path d="M272.501 74.0014C273.298 73.6903 275.408 72.017 276.119 71.543" stroke="#E8E8E8" stroke-width="2" stroke-linecap="round" stroke-linejoin="round"/>
<path d="M1264 298.373C1264 294.37 1265.8 290.618 1267.39 287.057C1268.03 285.612 1269.15 284.536 1270.2 283.42C1270.92 282.643 1271.55 281.752 1272.29 281.009C1272.82 280.468 1273.49 280.104 1274.01 279.573C1274.61 278.969 1275.36 278.345 1276.17 278.049C1276.91 277.778 1277.57 277.173 1278.27 276.823C1278.55 276.681 1278.84 276.773 1279.13 276.629C1279.49 276.448 1279.85 276.322 1280.25 276.307C1280.9 276.281 1281.47 275.871 1282.16 275.871C1282.77 275.871 1283.32 275.581 1283.96 275.581C1284.5 275.581 1285.04 275.145 1285.54 275.145C1286.18 275.145 1286.74 275 1287.34 275" stroke="#009DAF" stroke-width="2" stroke-linecap="round" stroke-linejoin="round"/>
<path d="M1310.9 298.373C1310.9 294.37 1309.11 290.618 1307.51 287.057C1306.87 285.612 1305.75 284.536 1304.71 283.42C1303.98 282.643 1303.35 281.752 1302.62 281.009C1302.08 280.468 1301.41 280.104 1300.89 279.573C1300.29 278.969 1299.54 278.345 1298.73 278.049C1298 277.778 1297.33 277.173 1296.64 276.823C1296.35 276.681 1296.06 276.773 1295.77 276.629C1295.41 276.448 1295.05 276.322 1294.65 276.307C1294 276.281 1293.43 275.871 1292.75 275.871C1292.13 275.871 1291.58 275.581 1290.94 275.581C1290.41 275.581 1289.86 275.145 1289.36 275.145C1288.72 275.145 1288.16 275 1287.56 275" stroke="#009DAF" stroke-width="2" stroke-linecap="round" stroke-linejoin="round"/>
<path d="M1287.33 275.185C1286.8 275.6 1286.28 276.005 1285.76 276.412C1285.55 276.575 1285.38 276.903 1285.13 277.013C1284.87 277.129 1284.82 277.396 1284.61 277.521C1284.21 277.756 1283.58 278.335 1283.35 278.74C1283.2 279.004 1282.96 279.084 1282.79 279.299C1282.64 279.495 1282.46 279.704 1282.29 279.881C1281.69 280.487 1280.89 281.231 1280.5 282.007C1280.02 282.977 1279.59 283.913 1279.11 284.891C1278.89 285.339 1278.58 285.907 1278.47 286.403C1278.4 286.727 1278.16 286.968 1278.01 287.247C1277.9 287.442 1277.85 287.685 1277.71 287.86C1277.58 288.032 1277.53 288.403 1277.43 288.618C1277.33 288.848 1277.2 289.123 1277.13 289.353C1277.08 289.544 1276.85 289.742 1276.75 289.92C1276.6 290.201 1276.49 290.484 1276.39 290.783C1275.97 291.991 1275.6 293.07 1275.6 294.386C1275.6 295.033 1275.46 295.662 1275.46 296.32C1275.46 296.847 1275.46 297.375 1275.46 297.902" stroke="#009DAF" stroke-width="2" stroke-linecap="round" stroke-linejoin="round"/>
<path d="M1287.57 275.185C1288.1 275.6 1288.62 276.005 1289.14 276.412C1289.35 276.575 1289.52 276.903 1289.77 277.013C1290.03 277.129 1290.08 277.396 1290.29 277.521C1290.69 277.756 1291.32 278.335 1291.55 278.74C1291.7 279.004 1291.94 279.084 1292.11 279.299C1292.26 279.495 1292.44 279.704 1292.61 279.881C1293.21 280.487 1294.01 281.231 1294.4 282.007C1294.88 282.977 1295.31 283.913 1295.79 284.891C1296.02 285.339 1296.32 285.907 1296.43 286.403C1296.5 286.727 1296.74 286.968 1296.89 287.247C1297 287.442 1297.05 287.685 1297.19 287.86C1297.33 288.032 1297.37 288.403 1297.47 288.618C1297.57 288.848 1297.7 289.123 1297.77 289.353C1297.82 289.544 1298.05 289.742 1298.15 289.92C1298.3 290.201 1298.41 290.484 1298.52 290.783C1298.93 291.991 1299.3 293.07 1299.3 294.386C1299.3 295.033 1299.44 295.662 1299.44 296.32C1299.44 296.847 1299.44 297.375 1299.44 297.902" stroke="#009DAF" stroke-width="2" stroke-linecap="round" stroke-linejoin="round"/>
<path d="M1287.4 275.536C1287.36 275.284 1287.47 274.866 1287.47 275.325C1287.47 275.443 1287.41 275.812 1287.51 275.888C1287.65 276.007 1287.57 276.775 1287.61 276.978C1287.78 277.724 1287.82 278.435 1287.82 279.229C1287.82 280.096 1287.82 280.964 1287.82 281.831C1287.82 282.875 1287.96 283.888 1287.96 284.918C1287.96 286.293 1288.03 287.659 1288.03 289.04C1288.03 290.109 1287.89 291.128 1287.89 292.205C1287.89 293.122 1287.75 294.048 1287.75 294.964C1287.75 295.944 1287.75 296.923 1287.75 297.902" stroke="#009DAF" stroke-width="2" stroke-linecap="round" stroke-linejoin="round"/>
<path d="M1264.16 298.503C1264.35 298.361 1264.54 298.198 1264.72 298.055C1264.82 297.981 1264.86 297.876 1264.98 297.824C1265.05 297.793 1265.19 297.732 1265.24 297.688C1265.38 297.576 1265.56 297.478 1265.74 297.4C1265.93 297.312 1266.19 297.307 1266.37 297.169C1266.41 297.137 1266.61 297.079 1266.66 297.063C1266.77 297.032 1266.87 297.075 1266.98 297.027C1267.15 296.949 1267.45 296.856 1267.64 296.848C1268.11 296.83 1268.61 296.692 1269.06 296.591C1269.56 296.479 1270.1 296.466 1270.62 296.466C1270.86 296.466 1271.1 296.5 1271.33 296.509C1271.62 296.52 1271.91 296.663 1272.2 296.679C1272.78 296.709 1273.32 297.062 1273.87 297.185C1274.11 297.24 1274.37 297.34 1274.6 297.442C1274.76 297.512 1275.4 297.472 1275.4 297.697" stroke="#009DAF" stroke-width="2" stroke-linecap="round" stroke-linejoin="round"/>
<path d="M1275.53 298.036C1275.69 297.828 1275.94 297.721 1276.12 297.527C1276.27 297.364 1276.55 297.163 1276.78 297.145C1277.04 297.125 1277.36 296.949 1277.59 296.838C1277.8 296.741 1278.13 296.67 1278.35 296.638C1279.03 296.541 1279.72 296.296 1280.41 296.296C1280.99 296.296 1281.52 296.126 1282.1 296.126C1282.65 296.126 1283.4 296.005 1283.91 296.19C1284.03 296.232 1284.19 296.229 1284.31 296.251C1284.44 296.276 1284.58 296.319 1284.71 296.336C1285 296.373 1285.28 296.531 1285.57 296.551C1285.72 296.562 1286.07 296.625 1286.19 296.721C1286.37 296.868 1286.68 296.881 1286.88 296.996C1287.07 297.1 1287.22 297.248 1287.39 297.376C1287.51 297.474 1287.76 297.554 1287.83 297.697" stroke="#009DAF" stroke-width="2" stroke-linecap="round" stroke-linejoin="round"/>
<path d="M1299.58 297.994C1299.38 297.657 1298.99 297.365 1298.68 297.122C1298.35 296.864 1298.04 296.65 1297.67 296.447C1296.67 295.909 1295.55 295.787 1294.44 295.787C1294.12 295.787 1293.75 295.733 1293.43 295.83C1293.12 295.925 1292.75 296.019 1292.43 296.042C1292.14 296.062 1291.82 296.167 1291.53 296.221C1291.15 296.29 1290.77 296.386 1290.41 296.518C1289.88 296.714 1289.39 297.01 1288.85 297.197C1288.58 297.293 1288.32 297.455 1288.05 297.56C1288 297.58 1287.72 297.758 1287.7 297.782" stroke="#009DAF" stroke-width="2" stroke-linecap="round" stroke-linejoin="round"/>
<path d="M1311 298.419C1310.71 298.126 1310.52 297.724 1310.2 297.466C1309.93 297.251 1309.67 297.052 1309.36 296.9C1308.49 296.486 1307.56 296.509 1306.62 296.509C1305.18 296.509 1303.71 296.313 1302.31 296.785C1301.98 296.893 1301.65 296.973 1301.33 297.084C1301.06 297.176 1300.8 297.26 1300.52 297.325C1300.33 297.369 1300.05 297.445 1299.88 297.537C1299.77 297.596 1299.68 297.697 1299.54 297.697" stroke="#009DAF" stroke-width="2" stroke-linecap="round" stroke-linejoin="round"/>
<path d="M1287.36 323.159C1286.3 322.345 1285.53 321.339 1284.36 320.665C1283.97 320.437 1283.73 320.029 1283.33 319.623C1282.92 319.217 1282.29 318.587 1282.29 318.587C1282.29 318.587 1280.54 316.639 1279.76 315.856C1279.31 315.404 1279.03 314.932 1278.52 314.371C1277.87 313.643 1277.34 313.184 1276.75 312.59C1276.13 311.959 1275.62 311.369 1274.86 310.624C1274.1 309.884 1273.49 309.422 1272.86 308.79C1271.69 307.611 1270.35 306.452 1269.35 305.109C1269.01 304.646 1268.8 304.201 1268.39 303.658C1268.12 303.31 1267.96 303.124 1267.68 302.794C1267.43 302.507 1267.26 302.372 1267.03 302.075C1266.75 301.715 1266.67 301.456 1266.38 301.098C1266.14 300.791 1265.94 300.671 1265.7 300.359C1265.45 300.036 1265.36 299.74 1265.14 299.475C1264.95 299.238 1264.22 298.065 1264.14 298.222" stroke="#009DAF" stroke-width="2" stroke-linecap="round" stroke-linejoin="round"/>
<path d="M1287.4 323.253C1287.31 323.034 1287.18 322.891 1287.04 322.701C1286.87 322.453 1286.75 322.122 1286.61 321.852C1286.35 321.327 1286 320.826 1285.81 320.271C1285.62 319.75 1285.37 319.28 1285.1 318.798C1284.54 317.778 1284.01 316.746 1283.42 315.738C1283.26 315.452 1283.19 315.327 1283.08 315.078C1282.94 314.773 1282.8 314.419 1282.58 314.16C1282.26 313.779 1282.14 313.253 1281.86 312.848C1281.04 311.652 1280.47 310.286 1279.86 308.978C1279.56 308.338 1279.22 307.703 1278.96 307.042C1278.62 306.165 1278.03 305.382 1277.76 304.474C1277.58 303.888 1277.3 303.326 1277.14 302.735C1276.94 302.012 1276.74 301.327 1276.44 300.647C1276.36 300.47 1276.33 300.24 1276.28 300.049C1276.2 299.751 1276.03 299.468 1275.97 299.172C1275.92 298.911 1275.83 298.677 1275.79 298.415C1275.76 298.204 1275.61 298.006 1275.61 297.793" stroke="#009DAF" stroke-width="2" stroke-linecap="round" stroke-linejoin="round"/>
<path d="M1287.76 297.701C1287.76 299.156 1287.85 300.643 1287.72 302.09C1287.68 302.599 1287.75 303.113 1287.7 303.622C1287.63 304.301 1287.54 305.02 1287.54 305.702C1287.54 306.459 1287.5 307.214 1287.49 307.968C1287.47 309.064 1287.58 310.155 1287.58 311.247C1287.58 311.758 1287.54 312.242 1287.49 312.749C1287.44 313.243 1287.42 313.766 1287.33 314.253C1287.25 314.662 1287.26 315.145 1287.26 315.562C1287.26 316.426 1287.26 317.29 1287.26 318.153C1287.26 319.384 1287.26 320.627 1287.26 321.852C1287.26 322.297 1287.22 322.755 1287.22 323.207" stroke="#009DAF" stroke-width="2" stroke-linecap="round" stroke-linejoin="round"/>
<path d="M1287.31 323.253C1287.94 322.487 1288.48 321.657 1289 320.811C1289.57 319.881 1290.22 319.001 1290.78 318.069C1291.76 316.442 1292.52 314.693 1293.29 312.961C1293.72 312 1294.18 311.08 1294.68 310.158C1294.76 310.014 1294.8 309.849 1294.87 309.697C1294.94 309.519 1295.07 309.367 1295.14 309.188C1295.46 308.407 1295.76 307.622 1296.07 306.838C1296.49 305.762 1297.1 304.776 1297.38 303.638C1297.67 302.463 1298.26 301.455 1298.74 300.361C1299 299.773 1299.37 299.18 1299.46 298.53C1299.48 298.406 1299.55 298.287 1299.55 298.162C1299.55 298.027 1299.51 297.768 1299.65 297.701" stroke="#009DAF" stroke-width="2" stroke-linecap="round" stroke-linejoin="round"/>
<path d="M1287.44 323.253C1287.7 322.765 1288.16 322.561 1288.56 322.217C1289.1 321.756 1289.71 321.398 1290.23 320.905C1290.76 320.404 1291.29 319.901 1291.83 319.411C1292.34 318.945 1292.71 318.348 1293.24 317.892C1294.02 317.228 1294.6 316.362 1295.21 315.552C1295.74 314.838 1296.29 314.136 1296.91 313.488C1297.79 312.553 1298.29 311.337 1299.1 310.336C1299.51 309.825 1299.94 309.284 1300.4 308.82C1300.92 308.298 1301.5 307.846 1302.07 307.38C1302.6 306.94 1303.11 306.483 1303.61 305.998C1303.96 305.662 1304.37 305.386 1304.74 305.072C1305.16 304.707 1305.52 304.279 1305.94 303.896C1306.39 303.475 1306.89 303.112 1307.32 302.673C1307.7 302.294 1308.05 301.892 1308.43 301.512C1308.96 300.98 1309.3 300.439 1309.69 299.803C1309.96 299.371 1310.24 298.883 1310.6 298.519C1310.69 298.433 1310.84 298.356 1310.89 298.253" stroke="#009DAF" stroke-width="2" stroke-linecap="round" stroke-linejoin="round"/>
<path d="M1303.45 282.511C1303.06 282.88 1302.66 283.205 1302.23 283.514C1301.92 283.742 1301.49 283.927 1301.22 284.201C1300.98 284.439 1300.6 284.376 1300.4 284.562C1300.24 284.708 1299.91 284.841 1299.72 284.897" stroke="#009DAF" stroke-width="2" stroke-linecap="round" stroke-linejoin="round"/>
<path d="M1300.33 281.537C1300.6 281.502 1301.47 281.12 1301.66 280.877" stroke="#009DAF" stroke-width="2" stroke-linecap="round" stroke-linejoin="round"/>
<path d="M1299.72 287.788C1300.35 287.788 1300.79 287.307 1301.31 286.989C1301.54 286.851 1301.76 286.698 1301.99 286.572C1302.23 286.439 1302.58 286.192 1302.85 286.162C1303.12 286.13 1303.36 285.786 1303.67 285.786C1303.87 285.786 1304.17 285.569 1304.32 285.411C1304.61 285.111 1304.97 284.55 1305.35 284.411" stroke="#009DAF" stroke-width="2" stroke-linecap="round" stroke-linejoin="round"/>
<path d="M1300.12 291.009C1301.05 291.009 1301.93 290.293 1302.74 289.848C1303.35 289.509 1303.95 289.121 1304.56 288.785C1305.33 288.365 1306.04 287.787 1306.77 287.381" stroke="#009DAF" stroke-width="2" stroke-linecap="round" stroke-linejoin="round"/>
<path d="M1300.12 294.236C1301.84 294.236 1303.18 293.089 1304.71 292.414C1304.97 292.3 1305.28 291.976 1305.5 291.783C1305.88 291.454 1306.26 291.137 1306.63 290.807C1306.96 290.52 1307.44 290.057 1307.83 289.911" stroke="#009DAF" stroke-width="2" stroke-linecap="round" stroke-linejoin="round"/>
<path d="M1302.53 296.021C1304.07 296.021 1305.15 295.048 1306.41 294.346C1307.29 293.851 1307.89 292.86 1308.77 292.422" stroke="#009DAF" stroke-width="2" stroke-linecap="round" stroke-linejoin="round"/>
<path d="M1307.71 296.384C1308.16 296.208 1309.35 295.264 1309.75 294.997" stroke="#009DAF" stroke-width="2" stroke-linecap="round" stroke-linejoin="round"/>
</g>
<path d="M1142.92 143.509C1143.18 145.414 1142.84 147.228 1141.36 148.767C1140.38 149.772 1139.25 150.367 1137.81 150.275C1136.92 150.23 1136 150.169 1135.12 150.23C1130.94 150.489 1128.2 146.694 1128.75 142.945C1128.88 142.001 1129.19 141.071 1129.49 140.172C1129.66 139.654 1129.64 139.242 1129.19 138.877C1128.36 138.206 1127.55 137.475 1126.67 136.896C1124.88 135.722 1123.02 134.64 1121.19 133.497C1120.68 133.177 1120.19 133.04 1119.69 133.421C1116.71 135.707 1113.37 135.57 1109.9 134.899C1107.42 134.427 1105.12 133.68 1103.32 131.821C1102.97 131.455 1102.64 131.059 1102.33 130.648C1102.01 130.206 1101.62 130.084 1101.13 130.267C1098.14 131.333 1095.14 132.431 1092.15 133.497C1091.46 133.741 1091.08 134.198 1091.01 134.96C1090.73 137.657 1089.4 139.913 1087.66 141.924C1087.22 142.458 1086.4 142.839 1085.68 142.961C1084.12 143.22 1082.56 142.961 1081.09 142.336C1077.84 140.949 1076.31 137.779 1077.3 134.305C1077.93 132.08 1079.08 130.145 1081.32 129.2C1084.06 128.042 1086.63 128.545 1088.84 130.495C1089.49 131.059 1090.05 131.166 1090.85 130.861C1093.92 129.688 1097 128.56 1100.09 127.463C1100.76 127.219 1100.97 126.884 1100.8 126.213C1100.65 125.603 1100.55 124.963 1100.45 124.354C1100.26 123.226 1100.34 122.129 1100.85 121.093C1103.14 116.323 1106.74 113.321 1112.21 112.742C1112.44 112.711 1112.65 112.635 1112.89 112.62C1113.63 112.559 1113.88 112.163 1113.88 111.446C1113.88 108.932 1113.91 106.433 1113.94 103.918C1113.94 103.324 1113.81 102.791 1113.15 102.73C1110.43 102.456 1109.31 100.52 1108.68 98.3105C1108.1 96.299 1108.29 94.2417 1109.23 92.3064C1110.16 90.3253 1111.8 89.3957 1113.91 89.1519C1113.94 89.1519 1113.95 89.1519 1113.98 89.1519C1115.59 88.9843 1117.23 88.71 1118.63 89.8986C1120.45 91.4987 1121.86 93.3274 1122.34 95.7808C1122.62 97.1828 1122.37 98.5391 1122.06 99.8344C1121.66 101.48 1120.31 102.318 1118.66 102.654C1117.68 102.852 1117.54 102.974 1117.59 103.949C1117.7 106.479 1117.79 109.008 1117.9 111.553C1117.95 112.65 1118.08 112.696 1119.21 112.727C1120.24 112.757 1121.29 112.803 1122.26 113.062C1123.86 113.473 1124.66 114.616 1125 116.216C1125.87 120.346 1125.59 124.323 1123.73 128.148C1123.52 128.606 1123.64 128.971 1124.01 129.291C1125.56 130.632 1127.07 132.004 1128.65 133.299C1129.15 133.711 1129.78 133.985 1130.35 134.335C1130.9 134.671 1131.5 134.96 1131.93 135.387C1132.86 136.332 1133.94 136.682 1135.28 136.621C1137.27 136.545 1139.16 136.972 1140.8 138.191C1142.16 139.197 1143.06 140.477 1142.93 142.26C1142.89 142.641 1142.92 143.022 1142.92 143.509ZM1106.77 126.914C1106.84 126.96 1106.9 127.005 1106.96 127.036C1107.07 126.975 1107.18 126.929 1107.27 126.853C1107.86 126.289 1108.41 125.695 1109.03 125.146C1109.87 124.4 1110.78 123.821 1111.97 123.821C1112.62 123.821 1113.24 123.912 1113.5 124.582C1113.78 125.299 1113.41 125.741 1112.89 126.274C1111.73 127.478 1110.69 128.804 1109.65 130.099C1109.54 130.236 1109.67 130.541 1109.68 130.754C1109.88 130.678 1110.13 130.663 1110.27 130.541C1110.58 130.236 1110.81 129.87 1111.11 129.55C1111.73 128.895 1112.42 128.407 1113.38 128.468C1114.11 128.514 1114.37 128.987 1114.03 129.611C1113.81 130.008 1113.58 130.373 1113.27 130.891C1113.74 130.937 1114.05 131.013 1114.36 130.998C1115.87 130.876 1117.02 130.099 1117.91 128.956C1119.83 126.518 1120.85 123.76 1120.92 120.666C1120.96 118.807 1120.16 117.694 1118.3 117.253C1116.46 116.811 1114.59 116.78 1112.73 117.237C1111.42 117.557 1110.18 118.045 1109.47 119.31C1108.89 120.331 1108.99 120.437 1110.02 120.818C1110.47 120.986 1110.94 121.398 1111.17 121.824C1111.45 122.327 1110.89 122.601 1110.56 122.906C1109.47 123.942 1108.37 124.963 1107.3 126.03C1107.07 126.289 1106.94 126.624 1106.77 126.914ZM1136.39 140.02C1135.71 140.172 1135.2 140.187 1134.78 140.416C1134.44 140.599 1133.98 141.025 1133.99 141.315C1134.1 142.976 1134.18 144.667 1135.43 145.993C1135.91 146.496 1136.44 146.603 1137.01 146.252C1138.12 145.582 1139.04 144.713 1139.61 143.524C1140.13 142.427 1139.86 141.345 1138.76 140.812C1137.98 140.431 1137.09 140.248 1136.39 140.02ZM1113.5 97.6705C1113.46 98.4629 1113.72 98.981 1114.31 99.3163C1115.02 99.7125 1115.76 99.8192 1116.51 99.362C1117.56 98.7067 1118.16 97.7314 1118.47 96.558C1118.89 94.9579 1117.79 93.6017 1116.12 93.6931C1115.84 93.7084 1115.49 93.8303 1115.3 94.0131C1114.28 95.0799 1113.66 96.3295 1113.5 97.6705ZM1083.84 135.661C1083.83 135.661 1083.81 135.661 1083.8 135.661C1083.8 136.164 1083.81 136.682 1083.8 137.185C1083.75 137.962 1084.14 138.526 1084.66 139.044C1085.08 139.456 1085.45 139.456 1085.85 139.029C1087.31 137.536 1087.85 135.753 1087.56 133.726C1087.46 133.055 1086.98 132.583 1086.33 132.385C1085.9 132.248 1084.04 133.132 1083.94 133.467C1083.87 133.634 1083.86 133.817 1083.86 133.985C1083.84 134.549 1083.84 135.097 1083.84 135.661Z" fill="#009564"/>
</svg>
