<svg width="309" height="118" viewBox="0 0 309 118" fill="none" xmlns="http://www.w3.org/2000/svg">
<path d="M307.876 93.6707L305.895 93.1712C305.664 93.1158 305.432 93.1713 305.278 93.3377L303.76 94.8084C303.349 95.2246 302.654 94.9194 302.603 94.3089L302.448 92.1168C302.423 91.8671 302.294 91.6451 302.114 91.5341L300.339 90.4242C299.85 90.1189 299.902 89.342 300.416 89.0922L302.294 88.2598C302.5 88.1766 302.654 87.9546 302.706 87.7326L303.117 85.596C303.246 84.9855 303.94 84.7913 304.301 85.263L305.612 86.9279C305.767 87.1221 305.973 87.2054 306.204 87.1776L308.236 86.9556C308.802 86.9001 309.188 87.5661 308.905 88.0933L307.85 89.9524C307.722 90.1744 307.722 90.4242 307.799 90.6462L308.622 92.644C308.905 93.199 308.442 93.8095 307.876 93.6707Z" fill="#F1E66B"/>
<path d="M7.87603 8.67072L5.89535 8.17125C5.66384 8.11575 5.43233 8.17125 5.27799 8.33774L3.76033 9.80841C3.34876 10.2246 2.65424 9.9194 2.60279 9.30893L2.44845 7.11682C2.42273 6.86708 2.29412 6.64509 2.11405 6.5341L0.33916 5.42417C-0.149579 5.11893 -0.0981343 4.34198 0.416328 4.09225L2.29411 3.2598C2.4999 3.17655 2.65424 2.95456 2.70568 2.73258L3.11725 0.595955C3.24587 -0.014508 3.94039 -0.208746 4.30052 0.262976L5.61239 1.92788C5.76673 2.12211 5.97252 2.20536 6.20403 2.17761L8.23615 1.95562C8.80206 1.90013 9.18791 2.56609 8.90495 3.09331L7.85031 4.95244C7.72169 5.17443 7.72169 5.42417 7.79886 5.64615L8.622 7.64403C8.90495 8.199 8.44194 8.80947 7.87603 8.67072Z" fill="#F1E66B"/>
<path d="M118.876 116.671L116.895 116.171C116.664 116.116 116.432 116.171 116.278 116.338L114.76 117.808C114.349 118.225 113.654 117.919 113.603 117.309L113.448 115.117C113.423 114.867 113.294 114.645 113.114 114.534L111.339 113.424C110.85 113.119 110.902 112.342 111.416 112.092L113.294 111.26C113.5 111.177 113.654 110.955 113.706 110.733L114.117 108.596C114.246 107.985 114.94 107.791 115.301 108.263L116.612 109.928C116.767 110.122 116.973 110.205 117.204 110.178L119.236 109.956C119.802 109.9 120.188 110.566 119.905 111.093L118.85 112.952C118.722 113.174 118.722 113.424 118.799 113.646L119.622 115.644C119.905 116.199 119.442 116.809 118.876 116.671Z" fill="#C6C6C6"/>
</svg>
