<svg width="1270" height="140" viewBox="0 0 1270 140" fill="none" xmlns="http://www.w3.org/2000/svg">
<path d="M134.876 104.671L132.895 104.171C132.664 104.116 132.432 104.171 132.278 104.338L130.76 105.808C130.349 106.225 129.654 105.919 129.603 105.309L129.448 103.117C129.423 102.867 129.294 102.645 129.114 102.534L127.339 101.424C126.85 101.119 126.902 100.342 127.416 100.092L129.294 99.2598C129.5 99.1766 129.654 98.9546 129.706 98.7326L130.117 96.596C130.246 95.9855 130.94 95.7913 131.301 96.263L132.612 97.9279C132.767 98.1221 132.973 98.2054 133.204 98.1776L135.236 97.9556C135.802 97.9001 136.188 98.5661 135.905 99.0933L134.85 100.952C134.722 101.174 134.722 101.424 134.799 101.646L135.622 103.644C135.905 104.199 135.442 104.809 134.876 104.671Z" fill="#F1E66B"/>
<path d="M270.876 50.6707L268.895 50.1712C268.664 50.1158 268.432 50.1713 268.278 50.3377L266.76 51.8084C266.349 52.2246 265.654 51.9194 265.603 51.3089L265.448 49.1168C265.423 48.8671 265.294 48.6451 265.114 48.5341L263.339 47.4242C262.85 47.1189 262.902 46.342 263.416 46.0922L265.294 45.2598C265.5 45.1766 265.654 44.9546 265.706 44.7326L266.117 42.596C266.246 41.9855 266.94 41.7913 267.301 42.263L268.612 43.9279C268.767 44.1221 268.973 44.2054 269.204 44.1776L271.236 43.9556C271.802 43.9001 272.188 44.5661 271.905 45.0933L270.85 46.9524C270.722 47.1744 270.722 47.4242 270.799 47.6462L271.622 49.644C271.905 50.199 271.442 50.8095 270.876 50.6707Z" fill="#F1E66B"/>
<path d="M467.876 24.6707L465.895 24.1712C465.664 24.1158 465.432 24.1713 465.278 24.3377L463.76 25.8084C463.349 26.2246 462.654 25.9194 462.603 25.3089L462.448 23.1168C462.423 22.8671 462.294 22.6451 462.114 22.5341L460.339 21.4242C459.85 21.1189 459.902 20.342 460.416 20.0922L462.294 19.2598C462.5 19.1766 462.654 18.9546 462.706 18.7326L463.117 16.596C463.246 15.9855 463.94 15.7913 464.301 16.263L465.612 17.9279C465.767 18.1221 465.973 18.2054 466.204 18.1776L468.236 17.9556C468.802 17.9001 469.188 18.5661 468.905 19.0933L467.85 20.9524C467.722 21.1744 467.722 21.4242 467.799 21.6462L468.622 23.644C468.905 24.199 468.442 24.8095 467.876 24.6707Z" fill="#C6C6C6"/>
<path d="M1014.88 106.671L1012.9 106.171C1012.66 106.116 1012.43 106.171 1012.28 106.338L1010.76 107.808C1010.35 108.225 1009.65 107.919 1009.6 107.309L1009.45 105.117C1009.42 104.867 1009.29 104.645 1009.11 104.534L1007.34 103.424C1006.85 103.119 1006.9 102.342 1007.42 102.092L1009.29 101.26C1009.5 101.177 1009.65 100.955 1009.71 100.733L1010.12 98.596C1010.25 97.9855 1010.94 97.7913 1011.3 98.263L1012.61 99.9279C1012.77 100.122 1012.97 100.205 1013.2 100.178L1015.24 99.9556C1015.8 99.9001 1016.19 100.566 1015.9 101.093L1014.85 102.952C1014.72 103.174 1014.72 103.424 1014.8 103.646L1015.62 105.644C1015.9 106.199 1015.44 106.809 1014.88 106.671Z" fill="#C6C6C6"/>
<path d="M1164.88 41.6707L1162.9 41.1712C1162.66 41.1158 1162.43 41.1713 1162.28 41.3377L1160.76 42.8084C1160.35 43.2246 1159.65 42.9194 1159.6 42.3089L1159.45 40.1168C1159.42 39.8671 1159.29 39.6451 1159.11 39.5341L1157.34 38.4242C1156.85 38.1189 1156.9 37.342 1157.42 37.0922L1159.29 36.2598C1159.5 36.1766 1159.65 35.9546 1159.71 35.7326L1160.12 33.596C1160.25 32.9855 1160.94 32.7913 1161.3 33.263L1162.61 34.9279C1162.77 35.1221 1162.97 35.2054 1163.2 35.1776L1165.24 34.9556C1165.8 34.9001 1166.19 35.5661 1165.9 36.0933L1164.85 37.9524C1164.72 38.1744 1164.72 38.4242 1164.8 38.6462L1165.62 40.644C1165.9 41.199 1165.44 41.8095 1164.88 41.6707Z" fill="#F1E66B"/>
<path d="M913.876 46.6707L911.895 46.1712C911.664 46.1158 911.432 46.1713 911.278 46.3377L909.76 47.8084C909.349 48.2246 908.654 47.9194 908.603 47.3089L908.448 45.1168C908.423 44.8671 908.294 44.6451 908.114 44.5341L906.339 43.4242C905.85 43.1189 905.902 42.342 906.416 42.0922L908.294 41.2598C908.5 41.1766 908.654 40.9546 908.706 40.7326L909.117 38.596C909.246 37.9855 909.94 37.7913 910.301 38.263L911.612 39.9279C911.767 40.1221 911.973 40.2054 912.204 40.1776L914.236 39.9556C914.802 39.9001 915.188 40.5661 914.905 41.0933L913.85 42.9524C913.722 43.1744 913.722 43.4242 913.799 43.6462L914.622 45.644C914.905 46.199 914.442 46.8095 913.876 46.6707Z" fill="#F1E66B"/>
<path d="M345.876 116.671L343.895 116.171C343.664 116.116 343.432 116.171 343.278 116.338L341.76 117.808C341.349 118.225 340.654 117.919 340.603 117.309L340.448 115.117C340.423 114.867 340.294 114.645 340.114 114.534L338.339 113.424C337.85 113.119 337.902 112.342 338.416 112.092L340.294 111.26C340.5 111.177 340.654 110.955 340.706 110.733L341.117 108.596C341.246 107.985 341.94 107.791 342.301 108.263L343.612 109.928C343.767 110.122 343.973 110.205 344.204 110.178L346.236 109.956C346.802 109.9 347.188 110.566 346.905 111.093L345.85 112.952C345.722 113.174 345.722 113.424 345.799 113.646L346.622 115.644C346.905 116.199 346.442 116.809 345.876 116.671Z" fill="#C6C6C6"/>
</svg>
