<svg width="375" height="174" viewBox="0 0 375 174" fill="none" xmlns="http://www.w3.org/2000/svg">
<path d="M38.1258 42.0695L36.5853 41.7199C36.4052 41.681 36.2251 41.7199 36.1051 41.8364L34.9247 42.8659C34.6046 43.1572 34.0644 42.9436 34.0244 42.5163L33.9044 40.9818C33.8843 40.807 33.7843 40.6516 33.6443 40.5739L32.2638 39.7969C31.8837 39.5833 31.9237 39.0394 32.3238 38.8646L33.7843 38.2819C33.9444 38.2236 34.0644 38.0682 34.1044 37.9128L34.4245 36.4172C34.5246 35.9898 35.0648 35.8539 35.3448 36.1841L36.3652 37.3495C36.4852 37.4855 36.6453 37.5438 36.8254 37.5243L38.4059 37.3689C38.846 37.3301 39.1461 37.7963 38.9261 38.1653L38.1058 39.4667C38.0058 39.6221 38.0058 39.7969 38.0658 39.9523L38.706 41.3508C38.9261 41.7393 38.566 42.1666 38.1258 42.0695Z" fill="#F1E66B"/>
<path d="M206.126 159.07L204.585 158.72C204.405 158.681 204.225 158.72 204.105 158.836L202.925 159.866C202.605 160.157 202.064 159.944 202.024 159.516L201.904 157.982C201.884 157.807 201.784 157.652 201.644 157.574L200.264 156.797C199.884 156.583 199.924 156.039 200.324 155.865L201.784 155.282C201.944 155.224 202.064 155.068 202.104 154.913L202.425 153.417C202.525 152.99 203.065 152.854 203.345 153.184L204.365 154.35C204.485 154.485 204.645 154.544 204.825 154.524L206.406 154.369C206.846 154.33 207.146 154.796 206.926 155.165L206.106 156.467C206.006 156.622 206.006 156.797 206.066 156.952L206.706 158.351C206.926 158.739 206.566 159.167 206.126 159.07Z" fill="#F1E66B"/>
<path d="M356.126 148.07L354.585 147.72C354.405 147.681 354.225 147.72 354.105 147.836L352.925 148.866C352.605 149.157 352.064 148.944 352.024 148.516L351.904 146.982C351.884 146.807 351.784 146.652 351.644 146.574L350.264 145.797C349.884 145.583 349.924 145.039 350.324 144.865L351.784 144.282C351.944 144.224 352.064 144.068 352.104 143.913L352.425 142.417C352.525 141.99 353.065 141.854 353.345 142.184L354.365 143.35C354.485 143.485 354.645 143.544 354.825 143.524L356.406 143.369C356.846 143.33 357.146 143.796 356.926 144.165L356.106 145.467C356.006 145.622 356.006 145.797 356.066 145.952L356.706 147.351C356.926 147.739 356.566 148.167 356.126 148.07Z" fill="#F1E66B"/>
<path d="M261.126 21.0695L259.585 20.7199C259.405 20.681 259.225 20.7199 259.105 20.8364L257.925 21.8659C257.605 22.1572 257.064 21.9436 257.024 21.5163L256.904 19.9818C256.884 19.807 256.784 19.6516 256.644 19.5739L255.264 18.7969C254.884 18.5833 254.924 18.0394 255.324 17.8646L256.784 17.2819C256.944 17.2236 257.064 17.0682 257.104 16.9128L257.425 15.4172C257.525 14.9898 258.065 14.8539 258.345 15.1841L259.365 16.3495C259.485 16.4855 259.645 16.5438 259.825 16.5243L261.406 16.3689C261.846 16.3301 262.146 16.7963 261.926 17.1653L261.106 18.4667C261.006 18.6221 261.006 18.7969 261.066 18.9523L261.706 20.3508C261.926 20.7393 261.566 21.1666 261.126 21.0695Z" fill="#F1E66B"/>
<path d="M66.2507 127.202L64.9302 126.903C64.7759 126.869 64.6216 126.903 64.5187 127.003L63.5069 127.885C63.2325 128.135 62.7695 127.952 62.7352 127.585L62.6323 126.27C62.6152 126.12 62.5294 125.987 62.4094 125.92L61.2261 125.254C60.9003 125.071 60.9346 124.605 61.2776 124.455L62.5294 123.956C62.6666 123.906 62.7695 123.773 62.8038 123.64L63.0782 122.358C63.1639 121.991 63.6269 121.875 63.867 122.158L64.7416 123.157C64.8445 123.273 64.9817 123.323 65.136 123.307L66.4908 123.173C66.868 123.14 67.1253 123.54 66.9366 123.856L66.2335 124.971C66.1478 125.105 66.1478 125.254 66.1992 125.388L66.748 126.586C66.9366 126.919 66.628 127.286 66.2507 127.202Z" fill="#C6C6C6"/>
<path d="M356.251 31.2024L354.93 30.9027C354.776 30.8695 354.622 30.9028 354.519 31.0026L353.507 31.885C353.233 32.1348 352.769 31.9516 352.735 31.5854L352.632 30.2701C352.615 30.1202 352.529 29.9871 352.409 29.9205L351.226 29.2545C350.9 29.0714 350.935 28.6052 351.278 28.4553L352.529 27.9559C352.667 27.9059 352.769 27.7727 352.804 27.6395L353.078 26.3576C353.164 25.9913 353.627 25.8748 353.867 26.1578L354.742 27.1567C354.844 27.2733 354.982 27.3232 355.136 27.3066L356.491 27.1734C356.868 27.1401 357.125 27.5397 356.937 27.856L356.234 28.9715C356.148 29.1047 356.148 29.2545 356.199 29.3877L356.748 30.5864C356.937 30.9194 356.628 31.2857 356.251 31.2024Z" fill="#C6C6C6"/>
<path d="M96.2507 20.2024L94.9302 19.9027C94.7759 19.8695 94.6216 19.9028 94.5187 20.0026L93.5069 20.885C93.2325 21.1348 92.7695 20.9516 92.7352 20.5854L92.6323 19.2701C92.6152 19.1202 92.5294 18.9871 92.4094 18.9205L91.2261 18.2545C90.9003 18.0714 90.9346 17.6052 91.2776 17.4553L92.5294 16.9559C92.6666 16.9059 92.7695 16.7727 92.8038 16.6395L93.0782 15.3576C93.1639 14.9913 93.6269 14.8748 93.867 15.1578L94.7416 16.1567C94.8445 16.2733 94.9817 16.3232 95.136 16.3066L96.4908 16.1734C96.868 16.1401 97.1253 16.5397 96.9366 16.856L96.2335 17.9715C96.1478 18.1047 96.1478 18.2545 96.1992 18.3877L96.748 19.5864C96.9366 19.9194 96.628 20.2857 96.2507 20.2024Z" fill="#C6C6C6"/>
</svg>
