<svg width="314" height="860" viewBox="0 0 314 860" fill="none" xmlns="http://www.w3.org/2000/svg">
<path d="M49.3323 41.9535L49.6928 42.3001L49.3323 41.9535ZM26.3157 131.307L26.8078 131.218L26.3157 131.307ZM39.8255 167.296L39.3978 167.555L39.8255 167.296ZM80.855 202.045L80.6375 202.495L80.855 202.045ZM127.389 222.521L127.604 222.07L127.389 222.521ZM189.433 255.408L189.668 254.967L189.433 255.408ZM236.968 277.747L236.645 278.129L236.968 277.747ZM273.494 329.869L273.014 330.011L273.494 329.869ZM267.49 412.397L267.02 412.226L267.49 412.397ZM244.473 447.145L244.131 446.78L244.473 447.145ZM201.442 466.381L201.653 466.835L201.442 466.381ZM157.911 487.479L158.146 487.92L157.911 487.479ZM106.874 517.883L107.252 518.211L106.874 517.883ZM80.855 569.386L80.3719 569.257L80.855 569.386ZM80.855 649.431L80.4047 649.648L80.855 649.431ZM138.397 687.282L138.571 686.814L138.397 687.282ZM189.433 695.969L189.354 696.463L189.433 695.969ZM282 709L282.379 708.674L282 709ZM299 751.5L298.514 751.383L299 751.5ZM282 775.5L281.692 775.106L282 775.5ZM218.5 775.5L218.473 775.999L218.5 775.5ZM119.883 1C119.688 0.539841 119.688 0.539844 119.688 0.539849C119.688 0.539852 119.688 0.539857 119.688 0.539863C119.688 0.539876 119.687 0.539893 119.687 0.539914C119.687 0.539958 119.687 0.540021 119.687 0.540102C119.687 0.540266 119.686 0.540506 119.685 0.540822C119.684 0.541454 119.682 0.542391 119.679 0.543631C119.673 0.546111 119.664 0.549806 119.653 0.554703C119.63 0.564498 119.596 0.579105 119.55 0.59844C119.46 0.63711 119.326 0.694691 119.15 0.770504C118.799 0.92213 118.281 1.14669 117.615 1.43875L118.017 2.35451C118.681 2.0633 119.197 1.83954 119.546 1.68867C119.721 1.61324 119.855 1.55602 119.944 1.51771C119.989 1.49856 120.023 1.48412 120.045 1.4745C120.056 1.46969 120.065 1.46609 120.07 1.46369C120.073 1.46249 120.075 1.4616 120.077 1.46101C120.077 1.46072 120.078 1.4605 120.078 1.46036C120.078 1.46029 120.079 1.46023 120.079 1.4602C120.079 1.46018 120.079 1.46017 120.079 1.46017C120.079 1.46016 120.079 1.46016 120.079 1.46016C120.079 1.46016 120.079 1.46016 119.883 1ZM113.45 3.29464C112.211 3.85421 110.816 4.49044 109.293 5.19528L109.713 6.10283C111.233 5.39935 112.625 4.76439 113.861 4.20599L113.45 3.29464ZM105.173 7.12376C103.861 7.74509 102.487 8.40237 101.063 9.09202L101.499 9.99201C102.92 9.30372 104.291 8.64772 105.601 8.02758L105.173 7.12376ZM96.9607 11.1022C95.6318 11.7611 94.2728 12.4426 92.8919 13.1443L93.3449 14.0359C94.7228 13.3357 96.0788 12.6557 97.4049 11.9981L96.9607 11.1022ZM88.836 15.232C87.502 15.9278 86.1554 16.6394 84.8032 17.3648L85.2759 18.246C86.6245 17.5225 87.9676 16.8128 89.2984 16.1187L88.836 15.232ZM80.7993 19.5452C79.4709 20.28 78.1434 21.0261 76.8232 21.7817L77.3199 22.6496C78.6356 21.8966 79.9589 21.1529 81.2833 20.4203L80.7993 19.5452ZM72.8817 24.0801C71.5645 24.8634 70.2614 25.6543 68.9791 26.451L69.5069 27.3004C70.7832 26.5074 72.0808 25.7198 73.3928 24.9397L72.8817 24.0801ZM65.1321 28.9015C63.8347 29.7499 62.5677 30.6025 61.3388 31.457L61.9097 32.278C63.1301 31.4294 64.3892 30.5821 65.6794 29.7384L65.1321 28.9015ZM57.6335 34.1298C56.3728 35.0757 55.1683 36.0213 54.0306 36.9635L54.6684 37.7336C55.7923 36.8029 56.9841 35.8671 58.2336 34.9297L57.6335 34.1298ZM50.6002 39.9922C50.0307 40.5326 49.4872 41.0711 48.9719 41.607L49.6928 42.3001C50.1966 41.7761 50.7291 41.2484 51.2886 40.7176L50.6002 39.9922ZM48.9719 41.607C48.4108 42.1906 47.8593 42.7782 47.3174 43.3698L48.0548 44.0452C48.5912 43.4596 49.1372 42.8779 49.6928 42.3001L48.9719 41.607ZM44.1442 47.0118C43.1103 48.2606 42.1166 49.5263 41.1628 50.8087L41.9652 51.4055C42.9085 50.1372 43.8915 48.8851 44.9145 47.6495L44.1442 47.0118ZM38.3829 54.7631C37.4882 56.1117 36.6351 57.4777 35.8233 58.8609L36.6858 59.3671C37.4883 57.9997 38.3316 56.6493 39.2162 55.3159L38.3829 54.7631ZM33.495 63.0942C32.757 64.5296 32.0609 65.9825 31.4065 67.4528L32.3201 67.8594C32.9669 66.4062 33.6549 64.9702 34.3843 63.5515L33.495 63.0942ZM29.5657 71.9204C28.9946 73.4245 28.4646 74.9457 27.9755 76.4839L28.9285 76.7869C29.4121 75.266 29.936 73.7622 30.5006 72.2755L29.5657 71.9204ZM26.6366 81.1252C26.2336 82.6772 25.87 84.2457 25.5456 85.8304L26.5253 86.031C26.8463 84.4631 27.2059 82.9115 27.6045 81.3765L26.6366 81.1252ZM24.6962 90.5871C24.4545 92.1673 24.2498 93.7629 24.0817 95.3738L25.0763 95.4776C25.2428 93.8823 25.4455 92.3025 25.6847 90.7383L24.6962 90.5871ZM23.6911 100.186C23.5979 101.78 23.5389 103.387 23.5139 105.009L24.5137 105.025C24.5386 103.417 24.597 101.823 24.6894 100.244L23.6911 100.186ZM23.5381 109.833C23.5781 111.427 23.6496 113.034 23.7521 114.655L24.7501 114.591C24.6483 112.983 24.5775 111.389 24.5378 109.808L23.5381 109.833ZM24.1432 119.458C24.3005 121.044 24.4865 122.641 24.7007 124.25L25.692 124.118C25.4791 122.52 25.2945 120.934 25.1384 119.36L24.1432 119.458ZM25.4123 129.016C25.5429 129.806 25.68 130.6 25.8237 131.396L26.8078 131.218C26.665 130.427 26.5287 129.639 26.3989 128.853L25.4123 129.016ZM25.8237 131.396C25.9708 132.21 26.1194 133.006 26.2702 133.784L27.252 133.593C27.102 132.82 26.9542 132.029 26.8078 131.218L25.8237 131.396ZM27.2694 138.535C27.6442 140.173 28.0372 141.738 28.4552 143.248L29.419 142.981C29.0053 141.487 28.616 139.937 28.2442 138.312L27.2694 138.535ZM29.8806 147.9C30.4053 149.452 30.969 150.964 31.5807 152.462L32.5065 152.084C31.9026 150.605 31.3461 149.112 30.8279 147.58L29.8806 147.9ZM33.555 156.911C34.2373 158.336 34.9712 159.772 35.7645 161.241L36.6444 160.766C35.8581 159.31 35.1316 157.888 34.457 156.479L33.555 156.911ZM38.1532 165.47C38.5549 166.154 38.9695 166.848 39.3978 167.555L40.2531 167.037C39.827 166.334 39.4146 165.643 39.0154 164.964L38.1532 165.47ZM39.3978 167.555C39.8004 168.22 40.2027 168.87 40.6048 169.505L41.4499 168.971C41.0513 168.341 40.6525 167.696 40.2531 167.037L39.3978 167.555ZM43.1401 173.329C44.0408 174.622 44.9444 175.852 45.8539 177.023L46.6438 176.41C45.7453 175.253 44.852 174.037 43.9607 172.757L43.1401 173.329ZM48.7759 180.567C49.809 181.745 50.8538 182.859 51.9147 183.919L52.6215 183.212C51.5763 182.168 50.5465 181.069 49.5277 179.908L48.7759 180.567ZM55.275 187.052C56.4394 188.065 57.6266 189.027 58.8421 189.948L59.4462 189.151C58.248 188.243 57.0781 187.295 55.9313 186.298L55.275 187.052ZM62.5851 192.608C63.8445 193.448 65.1362 194.259 66.4652 195.052L66.9776 194.193C65.6615 193.408 64.3841 192.605 63.1399 191.776L62.5851 192.608ZM70.4445 197.318C71.7557 198.034 73.1037 198.742 74.4923 199.452L74.9475 198.562C73.5653 197.855 72.2255 197.151 70.9235 196.441L70.4445 197.318ZM78.5807 201.495C79.2567 201.826 79.9422 202.159 80.6375 202.495L81.0726 201.594C80.3786 201.259 79.6947 200.927 79.0206 200.597L78.5807 201.495ZM80.6375 202.495C81.4053 202.866 82.1719 203.231 82.938 203.591L83.3633 202.686C82.6003 202.327 81.837 201.964 81.0726 201.594L80.6375 202.495ZM87.5683 205.713C89.1172 206.406 90.6693 207.086 92.2298 207.759L92.6259 206.841C91.0688 206.169 89.5209 205.491 87.9768 204.8L87.5683 205.713ZM96.9112 209.754C98.4594 210.407 100.021 211.061 101.6 211.722L101.986 210.8C100.407 210.138 98.8466 209.485 97.2999 208.833L96.9112 209.754ZM106.288 213.688C107.825 214.335 109.383 214.994 110.966 215.672L111.359 214.753C109.774 214.074 108.214 213.413 106.675 212.766L106.288 213.688ZM115.627 217.692C117.147 218.359 118.691 219.047 120.265 219.76L120.677 218.849C119.1 218.135 117.552 217.445 116.029 216.776L115.627 217.692ZM124.875 221.885C125.634 222.241 126.4 222.604 127.173 222.973L127.604 222.07C126.829 221.7 126.061 221.337 125.3 220.98L124.875 221.885ZM127.173 222.973C127.941 223.339 128.694 223.701 129.433 224.057L129.867 223.156C129.127 222.799 128.373 222.437 127.604 222.07L127.173 222.973ZM133.943 226.253C135.495 227.016 136.988 227.759 138.433 228.486L138.883 227.593C137.435 226.864 135.939 226.12 134.384 225.355L133.943 226.253ZM142.897 230.759C144.416 231.541 145.892 232.311 147.34 233.075L147.807 232.19C146.355 231.425 144.877 230.654 143.355 229.87L142.897 230.759ZM151.762 235.431C153.235 236.223 154.697 237.017 156.168 237.82L156.647 236.942C155.175 236.138 153.711 235.343 152.236 234.55L151.762 235.431ZM160.563 240.232C161.996 241.022 163.454 241.827 164.953 242.655L165.436 241.779C163.937 240.952 162.479 240.146 161.046 239.356L160.563 240.232ZM169.347 245.08C170.763 245.86 172.223 246.664 173.739 247.495L174.22 246.618C172.704 245.787 171.245 244.984 169.83 244.205L169.347 245.08ZM178.142 249.898C179.559 250.67 181.027 251.465 182.553 252.288L183.028 251.408C181.503 250.586 180.036 249.791 178.619 249.02L178.142 249.898ZM186.978 254.665C187.705 255.054 188.445 255.449 189.198 255.85L189.668 254.967C188.916 254.566 188.176 254.172 187.45 253.783L186.978 254.665ZM189.198 255.85C189.862 256.203 190.518 256.542 191.168 256.868L191.616 255.974C190.973 255.652 190.324 255.316 189.668 254.967L189.198 255.85ZM195.173 258.756C196.561 259.37 197.92 259.931 199.255 260.454L199.62 259.523C198.297 259.005 196.951 258.449 195.578 257.841L195.173 258.756ZM203.397 261.993C204.809 262.494 206.199 262.964 207.57 263.423L207.887 262.475C206.518 262.017 205.135 261.548 203.73 261.051L203.397 261.993ZM211.742 264.82C213.133 265.291 214.51 265.769 215.883 266.275L216.228 265.336C214.845 264.827 213.458 264.345 212.063 263.873L211.742 264.82ZM219.956 267.878C221.276 268.436 222.597 269.038 223.927 269.702L224.373 268.807C223.023 268.133 221.683 267.522 220.345 266.957L219.956 267.878ZM227.765 271.789C228.976 272.504 230.199 273.283 231.438 274.139L232.006 273.316C230.747 272.447 229.505 271.655 228.274 270.928L227.765 271.789ZM234.951 276.742C235.511 277.187 236.076 277.649 236.645 278.129L237.29 277.365C236.713 276.878 236.141 276.41 235.572 275.959L234.951 276.742ZM236.645 278.129C237.241 278.631 237.829 279.13 238.409 279.625L239.058 278.864C238.476 278.368 237.887 277.868 237.29 277.365L236.645 278.129ZM241.905 282.652C243.082 283.689 244.226 284.716 245.338 285.741L246.015 285.006C244.897 283.975 243.748 282.943 242.565 281.901L241.905 282.652ZM248.683 288.915C249.796 290.005 250.873 291.097 251.916 292.201L252.643 291.514C251.59 290.4 250.504 289.298 249.383 288.201L248.683 288.915ZM255.004 295.618C256.008 296.784 256.978 297.969 257.916 299.181L258.707 298.57C257.757 297.342 256.776 296.144 255.762 294.966L255.004 295.618ZM260.625 302.898C261.484 304.15 262.314 305.436 263.115 306.765L263.972 306.248C263.16 304.903 262.32 303.6 261.45 302.332L260.625 302.898ZM265.377 310.768C266.08 312.098 266.759 313.471 267.417 314.895L268.325 314.475C267.66 313.036 266.973 311.647 266.261 310.301L265.377 310.768ZM269.246 319.124C269.808 320.511 270.352 321.945 270.88 323.43L271.822 323.095C271.29 321.597 270.74 320.15 270.173 318.749L269.246 319.124ZM272.342 327.803C272.569 328.528 272.793 329.263 273.014 330.011L273.973 329.728C273.751 328.975 273.525 328.233 273.296 327.504L272.342 327.803ZM273.014 330.011C273.236 330.762 273.449 331.511 273.653 332.257L274.618 331.993C274.412 331.24 274.197 330.485 273.973 329.728L273.014 330.011ZM274.789 336.78C275.14 338.309 275.453 339.83 275.732 341.341L276.715 341.16C276.434 339.635 276.117 338.1 275.764 336.557L274.789 336.78ZM276.477 345.945C276.693 347.497 276.873 349.04 277.019 350.574L278.015 350.48C277.868 348.931 277.686 347.373 277.467 345.807L276.477 345.945ZM277.359 355.222C277.439 356.783 277.484 358.336 277.497 359.88L278.497 359.872C278.484 358.314 278.438 356.747 278.358 355.171L277.359 355.222ZM277.435 364.543C277.382 366.103 277.296 367.654 277.18 369.198L278.177 369.273C278.294 367.716 278.381 366.151 278.434 364.577L277.435 364.543ZM276.738 373.84C276.56 375.389 276.353 376.93 276.119 378.463L277.108 378.614C277.344 377.069 277.552 375.516 277.732 373.954L276.738 373.84ZM275.334 383.062C275.045 384.592 274.731 386.116 274.394 387.633L275.37 387.85C275.71 386.323 276.026 384.789 276.317 383.247L275.334 383.062ZM273.311 392.174C272.927 393.683 272.522 395.186 272.098 396.683L273.06 396.956C273.487 395.451 273.894 393.939 274.28 392.42L273.311 392.174ZM270.769 401.161C270.308 402.649 269.829 404.131 269.336 405.608L270.284 405.925C270.78 404.441 271.26 402.952 271.724 401.457L270.769 401.161ZM267.812 410.026C267.551 410.761 267.287 411.494 267.02 412.226L267.959 412.568C268.227 411.834 268.492 411.098 268.754 410.361L267.812 410.026ZM267.02 412.226C266.712 413.068 266.405 413.889 266.097 414.689L267.03 415.048C267.34 414.242 267.65 413.416 267.959 412.568L267.02 412.226ZM264.106 419.543C263.377 421.208 262.634 422.78 261.868 424.279L262.759 424.734C263.534 423.216 264.285 421.626 265.022 419.944L264.106 419.543ZM259.325 428.852C258.41 430.362 257.453 431.808 256.442 433.214L257.253 433.798C258.28 432.37 259.251 430.903 260.18 429.37L259.325 428.852ZM253.227 437.342C252.132 438.648 250.972 439.942 249.735 441.246L250.461 441.934C251.71 440.617 252.883 439.308 253.993 437.984L253.227 437.342ZM246.037 444.969C245.42 445.566 244.785 446.169 244.131 446.78L244.815 447.511C245.471 446.896 246.11 446.289 246.732 445.689L246.037 444.969ZM244.131 446.78C243.54 447.333 242.954 447.859 242.37 448.361L243.022 449.119C243.616 448.608 244.214 448.073 244.815 447.511L244.131 446.78ZM238.663 451.264C237.327 452.209 236.004 453.042 234.687 453.783L235.178 454.655C236.524 453.896 237.876 453.046 239.241 452.08L238.663 451.264ZM230.474 455.883C229.015 456.524 227.552 457.084 226.078 457.596L226.406 458.541C227.9 458.022 229.388 457.452 230.876 456.799L230.474 455.883ZM221.564 459.03C220.063 459.473 218.545 459.899 216.993 460.342L217.267 461.303C218.814 460.863 220.341 460.434 221.847 459.989L221.564 459.03ZM212.418 461.689C210.939 462.146 209.428 462.642 207.88 463.199L208.219 464.14C209.75 463.589 211.245 463.098 212.713 462.644L212.418 461.689ZM203.424 464.949C202.701 465.258 201.971 465.584 201.231 465.928L201.653 466.835C202.383 466.495 203.104 466.173 203.817 465.868L203.424 464.949ZM201.231 465.928C200.485 466.275 199.752 466.616 199.033 466.95L199.454 467.857C200.174 467.523 200.906 467.182 201.653 466.835L201.231 465.928ZM194.644 468.981C193.131 469.681 191.674 470.353 190.252 471.01L190.672 471.917C192.091 471.262 193.553 470.587 195.064 469.889L194.644 468.981ZM185.863 473.043C184.379 473.733 182.923 474.413 181.479 475.093L181.905 475.998C183.347 475.318 184.801 474.639 186.285 473.95L185.863 473.043ZM177.106 477.172C175.669 477.863 174.223 478.565 172.752 479.289L173.194 480.186C174.662 479.463 176.104 478.763 177.539 478.073L177.106 477.172ZM168.419 481.449C167.022 482.155 165.589 482.887 164.107 483.654L164.567 484.542C166.046 483.777 167.476 483.046 168.87 482.342L168.419 481.449ZM159.818 485.899C159.116 486.27 158.402 486.649 157.675 487.037L158.146 487.92C158.872 487.532 159.585 487.153 160.285 486.783L159.818 485.899ZM157.675 487.037C156.93 487.435 156.193 487.82 155.463 488.192L155.917 489.083C156.652 488.708 157.395 488.32 158.146 487.92L157.675 487.037ZM150.982 490.379C149.436 491.102 147.923 491.781 146.436 492.43L146.836 493.346C148.329 492.695 149.851 492.013 151.406 491.285L150.982 490.379ZM141.845 494.392C140.282 495.049 138.745 495.691 137.232 496.335L137.624 497.255C139.134 496.613 140.667 495.972 142.233 495.313L141.845 494.392ZM132.64 498.347C131.115 499.042 129.607 499.76 128.113 500.525L128.569 501.415C130.047 500.659 131.54 499.947 133.054 499.258L132.64 498.347ZM123.706 502.952C122.29 503.795 120.881 504.699 119.475 505.684L120.049 506.503C121.433 505.533 122.821 504.642 124.217 503.812L123.706 502.952ZM115.46 508.736C114.208 509.766 112.955 510.875 111.697 512.076L112.388 512.799C113.628 511.615 114.863 510.523 116.096 509.508L115.46 508.736ZM108.172 515.675C107.615 516.282 107.056 516.909 106.496 517.556L107.252 518.211C107.806 517.57 108.358 516.951 108.908 516.352L108.172 515.675ZM106.496 517.556C105.956 518.18 105.428 518.799 104.912 519.413L105.677 520.057C106.191 519.446 106.715 518.831 107.252 518.211L106.496 517.556ZM101.836 523.196C100.808 524.504 99.83 525.8 98.8964 527.09L99.7067 527.677C100.632 526.397 101.602 525.112 102.622 523.813L101.836 523.196ZM96.1253 531.108C95.2225 532.484 94.3653 533.863 93.5478 535.255L94.4101 535.761C95.219 534.384 96.0675 533.019 96.9613 531.656L96.1253 531.108ZM91.1831 539.529C90.4355 540.966 89.7226 542.425 89.0384 543.916L89.9473 544.333C90.6247 542.857 91.3304 541.413 92.0702 539.991L91.1831 539.529ZM87.1061 548.398C86.5066 549.877 85.928 551.393 85.3652 552.954L86.3059 553.293C86.8646 551.744 87.4386 550.24 88.0329 548.773L87.1061 548.398ZM83.787 557.57C83.2986 559.074 82.8194 560.622 82.3456 562.219L83.3043 562.504C83.7759 560.914 84.2526 559.374 84.7381 557.879L83.787 557.57ZM81.0086 566.905C80.7961 567.677 80.584 568.461 80.3719 569.257L81.3382 569.514C81.5496 568.721 81.761 567.94 81.9728 567.17L81.0086 566.905ZM80.3719 569.257C80.1748 569.997 79.9795 570.732 79.7862 571.465L80.7531 571.72C80.9462 570.988 81.1413 570.253 81.3382 569.514L80.3719 569.257ZM78.6355 575.882C78.2538 577.37 77.8827 578.845 77.5243 580.306L78.4956 580.544C78.8529 579.087 79.2232 577.616 79.6042 576.13L78.6355 575.882ZM76.467 584.751C76.1224 586.251 75.7939 587.738 75.484 589.214L76.4626 589.419C76.7711 587.95 77.0982 586.469 77.4416 584.975L76.467 584.751ZM74.5963 593.697C74.3162 595.209 74.0588 596.711 73.8268 598.204L74.8149 598.357C75.0453 596.875 75.3011 595.382 75.5796 593.879L74.5963 593.697ZM73.1999 602.738C73.0164 604.264 72.863 605.783 72.7425 607.295L73.7393 607.375C73.8587 605.876 74.0108 604.371 74.1927 602.858L73.1999 602.738ZM72.4811 611.87C72.4294 613.401 72.415 614.928 72.4411 616.454L73.441 616.436C73.4152 614.929 73.4294 613.419 73.4806 611.904L72.4811 611.87ZM72.6446 621.035C72.7549 622.556 72.9086 624.077 73.1089 625.599L74.1004 625.469C73.9026 623.966 73.7509 622.465 73.642 620.963L72.6446 621.035ZM73.8444 630.13C74.1326 631.618 74.468 633.11 74.8534 634.607L75.8218 634.358C75.4415 632.881 75.1105 631.408 74.8262 629.939L73.8444 630.13ZM76.1296 639.012C76.5917 640.446 77.1016 641.887 77.6616 643.334L78.5942 642.973C78.0411 641.543 77.5376 640.121 77.0814 638.705L76.1296 639.012ZM79.4338 647.567C79.7456 648.258 80.0691 648.952 80.4047 649.648L81.3054 649.214C80.9736 648.526 80.6537 647.84 80.3455 647.156L79.4338 647.567ZM80.4047 649.648C80.7839 650.435 81.1691 651.201 81.5604 651.946L82.4458 651.481C82.06 650.746 81.6798 649.991 81.3054 649.214L80.4047 649.648ZM84.1188 656.404C85.0625 657.908 86.0361 659.315 87.039 660.636L87.8353 660.031C86.8509 658.735 85.8942 657.352 84.9658 655.873L84.1188 656.404ZM90.3529 664.581C91.5514 665.87 92.7854 667.061 94.0537 668.166L94.7106 667.412C93.4684 666.33 92.2596 665.164 91.0852 663.9L90.3529 664.581ZM98.1059 671.34C99.5191 672.335 100.968 673.249 102.452 674.098L102.948 673.23C101.49 672.395 100.067 671.498 98.6815 670.523L98.1059 671.34ZM107.012 676.469C108.547 677.196 110.114 677.874 111.712 678.519L112.086 677.592C110.504 676.953 108.955 676.282 107.44 675.565L107.012 676.469ZM116.501 680.336C118.085 680.905 119.696 681.456 121.332 682.005L121.65 681.056C120.017 680.51 118.414 679.96 116.839 679.395L116.501 680.336ZM126.177 683.606C127.769 684.13 129.382 684.661 131.017 685.212L131.336 684.264C129.698 683.712 128.081 683.18 126.49 682.656L126.177 683.606ZM135.831 686.879C136.623 687.162 137.421 687.453 138.222 687.751L138.571 686.814C137.765 686.514 136.964 686.222 136.167 685.937L135.831 686.879ZM138.222 687.751C139.056 688.061 139.876 688.355 140.684 688.633L141.01 687.688C140.21 687.412 139.397 687.121 138.571 686.814L138.222 687.751ZM145.659 690.206C147.39 690.703 149.07 691.133 150.713 691.508L150.936 690.533C149.31 690.162 147.648 689.737 145.935 689.245L145.659 690.206ZM155.83 692.531C157.569 692.832 159.281 693.083 160.986 693.302L161.114 692.31C159.421 692.093 157.723 691.844 156 691.546L155.83 692.531ZM166.16 693.885C167.866 694.055 169.585 694.211 171.335 694.37L171.425 693.374C169.674 693.215 167.96 693.06 166.259 692.89L166.16 693.885ZM176.5 694.85C178.171 695.014 179.883 695.193 181.654 695.401L181.771 694.408C179.992 694.199 178.273 694.019 176.598 693.855L176.5 694.85ZM186.789 696.073C187.629 696.194 188.484 696.324 189.354 696.463L189.512 695.476C188.637 695.336 187.777 695.205 186.932 695.083L186.789 696.073ZM189.354 696.463C190.164 696.592 190.972 696.708 191.778 696.812L191.905 695.821C191.109 695.718 190.312 695.603 189.512 695.476L189.354 696.463ZM196.637 697.299C198.272 697.417 199.898 697.49 201.515 697.527L201.538 696.527C199.936 696.491 198.326 696.418 196.709 696.301L196.637 697.299ZM206.392 697.53C208.027 697.498 209.652 697.434 211.266 697.347L211.212 696.348C209.607 696.435 207.994 696.499 206.372 696.531L206.392 697.53ZM216.124 697.016C217.752 696.886 219.369 696.738 220.973 696.582L220.876 695.586C219.276 695.742 217.665 695.889 216.044 696.02L216.124 697.016ZM225.809 696.089C227.433 695.918 229.043 695.747 230.64 695.585L230.539 694.59C228.94 694.753 227.327 694.924 225.704 695.094L225.809 696.089ZM235.47 695.124C237.095 694.982 238.704 694.859 240.297 694.764L240.237 693.766C238.634 693.861 237.015 693.985 235.383 694.127L235.47 695.124ZM245.133 694.573C246.763 694.546 248.372 694.56 249.96 694.628L250.003 693.629C248.392 693.56 246.763 693.546 245.117 693.573L245.133 694.573ZM254.76 695.012C256.364 695.206 257.944 695.47 259.501 695.815L259.717 694.838C258.126 694.486 256.513 694.217 254.881 694.019L254.76 695.012ZM264.118 697.112C265.616 697.629 267.09 698.238 268.54 698.952L268.982 698.055C267.493 697.322 265.98 696.697 264.445 696.167L264.118 697.112ZM272.696 701.34C273.992 702.197 275.267 703.155 276.522 704.222L277.17 703.461C275.885 702.368 274.578 701.386 273.248 700.506L272.696 701.34ZM279.999 707.527C280.544 708.103 281.085 708.702 281.621 709.326L282.379 708.674C281.833 708.038 281.281 707.427 280.725 706.84L279.999 707.527ZM281.621 709.326C282.145 709.936 282.665 710.543 283.18 711.145L283.94 710.496C283.425 709.892 282.904 709.285 282.379 708.674L281.621 709.326ZM286.258 714.805C287.289 716.056 288.286 717.297 289.238 718.535L290.031 717.925C289.07 716.676 288.066 715.426 287.03 714.169L286.258 714.805ZM292.044 722.383C292.957 723.715 293.806 725.05 294.579 726.399L295.447 725.901C294.658 724.526 293.794 723.168 292.869 721.818L292.044 722.383ZM296.721 730.621C297.358 732.074 297.897 733.55 298.327 735.059L299.289 734.785C298.846 733.229 298.29 731.71 297.637 730.22L296.721 730.621ZM299.27 739.673C299.46 741.195 299.535 742.76 299.485 744.374L300.484 744.405C300.537 742.739 300.458 741.123 300.262 739.549L299.27 739.673ZM298.996 749.063C298.863 749.825 298.703 750.598 298.514 751.383L299.486 751.617C299.68 750.811 299.844 750.018 299.981 749.235L298.996 749.063ZM298.514 751.383C298.314 752.213 298.101 753.013 297.872 753.784L298.831 754.068C299.065 753.279 299.283 752.463 299.486 751.617L298.514 751.383ZM296.175 758.432C295.485 759.985 294.709 761.422 293.839 762.779L294.681 763.318C295.578 761.919 296.379 760.437 297.089 758.837L296.175 758.432ZM290.871 766.728C289.82 767.941 288.669 769.115 287.413 770.284L288.094 771.016C289.372 769.827 290.548 768.628 291.627 767.383L290.871 766.728ZM283.646 773.546C283.015 774.06 282.364 774.579 281.692 775.106L282.308 775.894C282.985 775.363 283.642 774.84 284.278 774.32L283.646 773.546ZM281.692 775.106C281.068 775.595 280.445 776.053 279.823 776.482L280.39 777.306C281.03 776.865 281.669 776.395 282.308 775.894L281.692 775.106ZM275.841 778.848C274.418 779.561 272.995 780.139 271.568 780.599L271.875 781.551C273.35 781.076 274.821 780.478 276.289 779.741L275.841 778.848ZM267.079 781.673C265.553 781.919 264.018 782.051 262.47 782.09L262.495 783.089C264.083 783.05 265.663 782.914 267.238 782.66L267.079 781.673ZM257.827 781.948C256.301 781.824 254.76 781.631 253.202 781.386L253.047 782.374C254.625 782.622 256.191 782.819 257.747 782.945L257.827 781.948ZM248.602 780.54C247.094 780.229 245.57 779.888 244.025 779.531L243.801 780.506C245.349 780.863 246.882 781.206 248.4 781.519L248.602 780.54ZM239.452 778.461C237.942 778.108 236.412 777.755 234.862 777.416L234.649 778.393C236.192 778.73 237.716 779.082 239.224 779.435L239.452 778.461ZM230.242 776.474C228.711 776.187 227.159 775.926 225.584 775.702L225.443 776.692C227.001 776.914 228.539 777.172 230.058 777.457L230.242 776.474ZM220.887 775.165C220.106 775.098 219.319 775.043 218.527 775.001L218.473 775.999C219.255 776.041 220.031 776.095 220.802 776.161L220.887 775.165ZM218.527 775.001C217.776 774.961 217.011 774.917 216.234 774.869L216.173 775.867C216.953 775.915 217.72 775.959 218.473 775.999L218.527 775.001ZM211.644 774.56C210.14 774.449 208.606 774.329 207.054 774.201L206.972 775.198C208.527 775.326 210.064 775.446 211.571 775.557L211.644 774.56ZM202.467 773.804C200.94 773.667 199.408 773.524 197.881 773.377L197.785 774.372C199.314 774.519 200.848 774.663 202.377 774.8L202.467 773.804ZM193.297 772.923C191.749 772.766 190.218 772.607 188.715 772.447L188.609 773.441C190.114 773.601 191.646 773.761 193.196 773.918L193.297 772.923ZM184.134 771.951C182.554 771.776 181.023 771.604 179.557 771.437L179.443 772.43C180.91 772.598 182.443 772.77 184.024 772.945L184.134 771.951ZM174.983 770.906C173.314 770.709 171.78 770.525 170.415 770.359L170.294 771.352C171.66 771.518 173.196 771.702 174.866 771.899L174.983 770.906ZM165.847 769.795C165.115 769.703 164.544 769.63 164.156 769.58C163.963 769.556 163.814 769.536 163.715 769.524C163.665 769.517 163.628 769.512 163.602 769.509C163.59 769.507 163.58 769.506 163.574 769.505C163.571 769.505 163.568 769.505 163.567 769.504C163.566 769.504 163.565 769.504 163.565 769.504C163.565 769.504 163.565 769.504 163.565 769.504C163.565 769.504 163.565 769.504 163.565 769.504C163.565 769.504 163.564 769.504 163.564 769.504C163.564 769.504 163.564 769.504 163.5 770C163.436 770.496 163.436 770.496 163.436 770.496C163.436 770.496 163.436 770.496 163.436 770.496C163.436 770.496 163.436 770.496 163.436 770.496C163.436 770.496 163.436 770.496 163.436 770.496C163.437 770.496 163.437 770.496 163.438 770.496C163.44 770.496 163.442 770.497 163.445 770.497C163.452 770.498 163.461 770.499 163.474 770.501C163.499 770.504 163.537 770.509 163.587 770.515C163.687 770.528 163.835 770.547 164.029 770.572C164.418 770.622 164.989 770.695 165.722 770.787L165.847 769.795Z" fill="#2A3B5E" fill-opacity="0.1"/>
<path d="M302.755 737.434C302.983 738.288 303.249 739.137 303.431 739.997C303.893 742.193 304.323 744.396 304.762 746.597C304.858 747.082 304.948 747.563 305.039 748.049C305.094 748.345 305.182 748.619 305.432 748.827C305.607 748.972 305.58 749.163 305.523 749.366C305.443 749.648 305.369 749.933 305.35 750.224C305.316 750.693 305.147 751.095 304.86 751.458C304.29 752.173 303.521 752.615 302.679 752.914C301.031 753.5 299.331 753.856 297.565 753.817C297.037 753.805 296.508 753.696 295.981 753.611C295.718 753.571 295.51 753.41 295.386 753.184C295.184 752.809 294.979 752.424 294.837 752.019C294.123 750.042 293.712 747.999 293.289 745.949C292.993 744.516 292.572 743.11 292.194 741.698C292.079 741.267 291.892 740.858 291.776 740.427C291.485 739.303 291.215 738.169 290.928 737.04C290.826 736.644 291.003 736.343 291.268 736.101C291.806 735.612 292.362 735.132 293.118 734.985C293.266 734.957 293.289 734.879 293.245 734.75C293.182 734.571 293.12 734.393 293.071 734.212C292.985 733.889 293.063 733.618 293.33 733.4C293.847 732.979 294.332 732.522 294.964 732.256C295.683 731.953 296.415 731.841 297.184 732.05C297.549 732.146 297.913 732.253 298.264 732.388C298.442 732.454 298.607 732.582 298.757 732.704C298.819 732.757 298.862 732.862 298.875 732.946C298.922 733.269 298.947 733.597 299.004 733.917C299.016 733.982 299.121 734.066 299.193 734.082C299.793 734.202 300.396 734.317 300.997 734.422C301.093 734.437 301.2 734.419 301.294 734.391C301.694 734.27 301.982 734.421 302.099 734.842C302.335 735.703 302.561 736.567 302.792 737.43C302.782 737.427 302.768 737.431 302.755 737.434ZM301.742 737.675C301.729 737.679 301.715 737.682 301.706 737.684C301.542 737.071 301.373 736.46 301.213 735.846C301.155 735.608 301.017 735.493 300.772 735.467C300.289 735.42 299.81 735.352 299.327 735.289C298.272 735.153 297.221 735.103 296.173 735.305C294.759 735.584 293.485 736.138 292.378 737.057C292.207 737.197 292.153 737.342 292.208 737.565C292.347 738.121 292.454 738.681 292.584 739.239C292.642 739.491 292.713 739.74 292.794 739.986C292.89 740.292 293.018 740.589 293.105 740.896C293.353 741.784 293.583 742.681 293.826 743.569C293.888 743.801 293.952 743.823 294.154 743.69C294.504 743.456 294.841 743.211 295.192 742.982C296.503 742.118 297.952 741.622 299.533 741.528C300.464 741.473 301.393 741.607 302.314 741.767C302.584 741.815 302.652 741.745 302.593 741.488C302.304 740.209 302.023 738.942 301.742 737.675ZM300.857 752.38C301.148 752.288 301.519 752.189 301.877 752.055C302.557 751.806 303.23 751.53 303.757 751.014C303.93 750.844 304.066 750.631 304.184 750.417C304.285 750.231 304.197 750.084 303.984 750.031C303.822 749.989 303.664 749.961 303.502 749.935C303.11 749.868 302.729 749.766 302.323 749.883C300.821 750.306 299.351 750.812 297.972 751.553C297.459 751.828 296.978 752.152 296.49 752.469C296.416 752.517 296.396 752.643 296.352 752.732C296.436 752.774 296.517 752.841 296.607 752.852C296.77 752.879 296.934 752.876 297.101 752.882C298.361 752.933 299.569 752.642 300.857 752.38ZM298.669 747.034C298.673 747.033 298.673 747.033 298.678 747.032C298.73 747.227 298.783 747.422 298.836 747.622C298.842 747.645 298.848 747.667 298.854 747.69C298.93 747.938 299.13 748.105 299.375 748.077C299.573 748.056 299.785 748.013 299.953 747.917C300.075 747.847 300.213 747.672 300.216 747.54C300.222 747.219 300.187 746.889 300.114 746.578C299.982 746.015 299.819 745.46 299.653 744.91C299.569 744.636 299.471 744.36 299.341 744.107C299.292 744.017 299.131 743.922 299.026 743.929C298.646 743.943 298.338 744.151 298.111 744.427C297.936 744.641 298.103 744.904 298.157 745.142C298.177 745.234 298.215 745.321 298.239 745.412C298.378 745.949 298.524 746.494 298.669 747.034ZM297.851 733.597C297.85 733.36 297.673 733.259 297.415 733.222C297.158 733.185 296.904 733.104 296.65 733.1C296.334 733.098 295.985 733.079 295.709 733.192C295.213 733.405 294.761 733.708 294.291 733.982C294.08 734.102 294.121 734.291 294.195 734.476C294.277 734.673 294.42 734.593 294.552 734.56C294.63 734.541 294.708 734.526 294.777 734.494C295.669 734.109 296.618 734.049 297.573 734.011C297.916 734.002 297.942 733.976 297.851 733.597ZM297.773 746.334C297.781 746.308 297.788 746.282 297.796 746.256C297.699 746.203 297.61 746.143 297.508 746.106C296.957 745.896 296.401 745.702 295.855 745.476C295.685 745.402 295.525 745.259 295.407 745.109C295.245 744.903 295.341 744.68 295.598 744.644C295.758 744.623 295.93 744.633 296.082 744.677C296.474 744.782 296.866 744.92 297.259 745.03C297.332 745.05 297.483 745.017 297.498 744.979C297.521 744.886 297.501 744.775 297.466 744.682C297.447 744.628 297.36 744.592 297.302 744.558C297.142 744.468 296.981 744.392 296.826 744.3C296.481 744.101 296.475 744.079 296.538 743.68C296.543 743.645 296.529 743.609 296.523 743.533C296.385 743.597 296.263 743.647 296.154 743.714C295.966 743.824 295.784 743.943 295.602 744.061C295.214 744.314 294.82 744.564 294.435 744.831C294.144 745.03 294.157 745.187 294.475 745.325C294.815 745.472 295.156 745.618 295.505 745.729C296.174 745.943 296.846 746.132 297.514 746.327C297.592 746.346 297.685 746.332 297.773 746.334ZM299.985 749.411C299.992 749.385 299.999 749.355 300.006 749.329C299.85 749.271 299.701 749.202 299.54 749.165C298.642 748.946 297.742 748.737 296.843 748.513C296.256 748.37 295.677 748.201 295.09 748.054C295.022 748.037 294.885 748.067 294.867 748.11C294.795 748.293 294.998 748.6 295.206 748.649C296.433 748.955 297.669 749.244 298.898 749.574C299.312 749.688 299.639 749.571 299.985 749.411ZM294.621 746.412C294.593 746.453 294.551 746.493 294.543 746.539C294.487 746.834 294.69 747.141 294.989 747.207C296.036 747.437 297.087 747.666 298.133 747.896C298.201 747.913 298.273 747.929 298.34 747.926C298.394 747.927 298.448 747.894 298.501 747.876C298.482 747.823 298.479 747.736 298.438 747.713C298.3 747.631 298.149 747.558 297.999 747.504C296.936 747.156 295.875 746.818 294.817 746.474C294.759 746.455 294.7 746.436 294.621 746.412ZM298.773 742.767C299.907 743.159 300.972 743.531 302.036 743.902C301.846 743.606 301.533 743.379 301.156 743.242C300.968 743.173 300.857 743.065 300.812 742.863C300.796 742.785 300.693 742.67 300.624 742.668C300.025 742.64 299.425 742.612 298.773 742.767ZM300.273 744.255C300.254 744.274 300.231 744.299 300.212 744.318C300.28 744.427 300.321 744.562 300.415 744.64C300.851 745.001 301.403 745.089 301.921 745.264C301.985 745.286 302.106 745.12 302.201 745.043C302.132 744.983 302.071 744.901 301.994 744.867C301.497 744.678 300.992 744.495 300.493 744.315C300.423 744.289 300.346 744.275 300.273 744.255ZM296.859 750.874C296.85 750.842 296.845 750.805 296.837 750.773C296.457 750.694 296.079 750.605 295.697 750.537C295.655 750.528 295.537 750.665 295.549 750.71C295.611 750.961 295.695 751.201 295.789 751.444C295.805 751.484 295.938 751.528 295.975 751.504C296.275 751.302 296.566 751.084 296.859 750.874ZM296.716 743.456C296.921 743.515 297.076 743.549 297.226 743.603C297.496 743.705 297.747 743.753 297.95 743.479C297.981 743.432 298.049 743.396 298.109 743.385C298.409 743.329 298.412 743.105 298.41 742.878C298.12 742.83 297.09 743.167 296.716 743.456ZM301.803 748.919C302.121 748.8 302.15 748.691 301.919 748.463C301.871 748.412 301.809 748.36 301.742 748.348C301.396 748.285 301.049 748.222 300.7 748.189C300.635 748.181 300.544 748.291 300.5 748.365C300.487 748.388 300.572 748.507 300.633 748.535C300.899 748.657 301.166 748.769 301.444 748.864C301.553 748.909 301.683 748.905 301.803 748.919ZM302.538 746.916C302.513 746.423 302.486 746.396 302.053 746.301C301.853 746.26 301.66 746.192 301.465 746.135C301.313 746.091 301.164 746.041 301.014 746.006C300.968 745.999 300.917 746.026 300.867 746.039C300.882 746.093 300.88 746.161 300.915 746.201C300.958 746.253 301.026 746.289 301.092 746.316C301.504 746.498 301.916 746.675 302.327 746.853C302.383 746.882 302.449 746.89 302.538 746.916ZM300.965 747.221C300.944 747.269 300.925 747.323 300.904 747.372C300.98 747.386 301.063 747.385 301.134 747.416C301.392 747.53 301.646 747.66 301.903 747.769C301.996 747.809 302.103 747.811 302.202 747.834C302.161 747.719 302.132 747.59 302.065 747.486C302.031 747.432 301.936 747.402 301.859 747.388C301.625 747.33 301.388 747.279 301.148 747.233C301.091 747.218 301.029 747.224 300.965 747.221ZM297.828 750.363C297.842 750.325 297.857 750.288 297.866 750.251C297.737 750.202 297.602 750.153 297.474 750.108C297.46 750.146 297.449 750.177 297.434 750.215C297.564 750.265 297.694 750.314 297.828 750.363Z" fill="#009564"/>
<path d="M298.142 739.286C298.176 739.447 298.214 739.607 298.238 739.77C298.287 740.096 298.141 740.331 297.865 740.401C297.589 740.475 297.336 740.346 297.207 740.044C297.065 739.712 296.936 739.377 296.812 739.04C296.755 738.881 296.671 738.82 296.498 738.844C296.169 738.898 295.834 738.934 295.501 738.974C295.243 739.005 295.013 738.889 294.901 738.685C294.787 738.477 294.801 738.241 295.009 738.13C295.262 737.989 295.542 737.88 295.823 737.823C296.413 737.713 296.42 737.721 296.269 737.14C296.241 737.036 296.212 736.927 296.189 736.821C296.103 736.465 296.269 736.162 296.594 736.075C296.911 735.991 297.251 736.176 297.358 736.502C297.43 736.717 297.489 736.939 297.538 737.159C297.59 737.368 297.705 737.436 297.913 737.398C298.181 737.35 298.451 737.311 298.722 737.291C299.091 737.261 299.318 737.383 299.406 737.622C299.483 737.835 299.441 738.024 299.252 738.13C299.002 738.266 298.733 738.363 298.47 738.467C298.391 738.497 298.304 738.514 298.22 738.526C298.02 738.557 297.959 738.674 298.009 738.86C298.048 739.005 298.085 739.145 298.124 739.29C298.138 739.287 298.142 739.286 298.142 739.286Z" fill="#009564"/>
<ellipse cx="65" cy="239.5" rx="3" ry="2.5" fill="#2A3B5E" fill-opacity="0.2"/>
<ellipse rx="3" ry="2.5" transform="matrix(-1 0 0 1 286.253 844.5)" fill="#2A3B5E" fill-opacity="0.2"/>
<circle cx="83.5" cy="252.5" r="2.5" fill="#2A3B5E" fill-opacity="0.2"/>
<circle r="2.5" transform="matrix(-1 0 0 1 267.753 857.5)" fill="#2A3B5E" fill-opacity="0.2"/>
<circle cx="282" cy="372" r="4" fill="#2A3B5E" fill-opacity="0.2"/>
<circle cx="306" cy="375" r="2" fill="#2A3B5E" fill-opacity="0.2"/>
<ellipse cx="288.626" cy="24.5" rx="2.62628" ry="2.5" fill="#2A3B5E" fill-opacity="0.2"/>
<ellipse rx="2.62628" ry="2.5" transform="matrix(-1 0 0 1 72.6263 769.5)" fill="#2A3B5E" fill-opacity="0.2"/>
<ellipse cx="5.25257" cy="485" rx="5.25257" ry="5" fill="#2A3B5E" fill-opacity="0.2"/>
<path d="M261.876 306.671L259.895 306.171C259.664 306.116 259.432 306.171 259.278 306.338L257.76 307.808C257.349 308.225 256.654 307.919 256.603 307.309L256.448 305.117C256.423 304.867 256.294 304.645 256.114 304.534L254.339 303.424C253.85 303.119 253.902 302.342 254.416 302.092L256.294 301.26C256.5 301.177 256.654 300.955 256.706 300.733L257.117 298.596C257.246 297.985 257.94 297.791 258.301 298.263L259.612 299.928C259.767 300.122 259.973 300.205 260.204 300.178L262.236 299.956C262.802 299.9 263.188 300.566 262.905 301.093L261.85 302.952C261.722 303.174 261.722 303.424 261.799 303.646L262.622 305.644C262.905 306.199 262.442 306.809 261.876 306.671Z" fill="#4150A3"/>
<path d="M90.9754 568.899C91.0551 569.49 90.952 570.052 90.5019 570.529C90.2065 570.841 89.8642 571.025 89.4281 570.997C89.1562 570.983 88.8795 570.964 88.6123 570.983C87.3463 571.063 86.5164 569.887 86.6805 568.725C86.7227 568.432 86.8165 568.144 86.9056 567.865C86.9571 567.704 86.9525 567.577 86.8165 567.463C86.5633 567.255 86.3195 567.029 86.0522 566.849C85.5083 566.485 84.9457 566.15 84.3924 565.795C84.2376 565.696 84.0876 565.654 83.9376 565.772C83.0326 566.48 82.0199 566.438 80.9696 566.23C80.2194 566.084 79.5207 565.852 78.9768 565.276C78.869 565.162 78.7705 565.04 78.6768 564.912C78.5783 564.775 78.4611 564.737 78.311 564.794C77.4061 565.125 76.4965 565.465 75.5915 565.795C75.3805 565.871 75.268 566.013 75.2446 566.249C75.1602 567.085 74.7569 567.784 74.2318 568.408C74.0958 568.573 73.8473 568.692 73.6316 568.729C73.1581 568.81 72.6845 568.729 72.2391 568.536C71.2544 568.106 70.7902 567.123 71.0903 566.046C71.2825 565.356 71.6295 564.756 72.3094 564.463C73.1393 564.104 73.9176 564.26 74.5881 564.865C74.7851 565.04 74.9539 565.073 75.1977 564.978C76.1261 564.614 77.0591 564.265 77.9969 563.925C78.1985 563.849 78.2641 563.745 78.2126 563.537C78.1657 563.348 78.1375 563.15 78.1047 562.961C78.0485 562.611 78.0719 562.271 78.2266 561.95C78.9206 560.471 80.0131 559.54 81.6682 559.361C81.7385 559.351 81.8042 559.328 81.8745 559.323C82.0996 559.304 82.1746 559.181 82.1746 558.959C82.1746 558.18 82.184 557.405 82.1933 556.625C82.1933 556.441 82.1558 556.276 81.9542 556.257C81.129 556.172 80.7914 555.572 80.5992 554.887C80.4257 554.263 80.4819 553.625 80.768 553.025C81.0493 552.411 81.5463 552.123 82.184 552.047C82.1933 552.047 82.198 552.047 82.2074 552.047C82.695 551.995 83.1921 551.91 83.614 552.279C84.1673 552.775 84.594 553.342 84.7393 554.102C84.8237 554.537 84.7487 554.957 84.655 555.359C84.533 555.869 84.1251 556.129 83.6234 556.233C83.328 556.294 83.2858 556.332 83.2999 556.635C83.3327 557.419 83.3608 558.203 83.3937 558.992C83.4077 559.332 83.4499 559.346 83.7922 559.356C84.1017 559.365 84.4205 559.38 84.7159 559.46C85.1989 559.587 85.4427 559.942 85.5458 560.438C85.8084 561.718 85.724 562.951 85.1613 564.137C85.0957 564.279 85.1332 564.392 85.2457 564.491C85.7146 564.907 86.1741 565.332 86.6524 565.734C86.8024 565.862 86.9947 565.947 87.1681 566.055C87.3322 566.159 87.5151 566.249 87.6464 566.381C87.9277 566.674 88.2559 566.783 88.6592 566.764C89.264 566.74 89.8361 566.873 90.3331 567.251C90.7457 567.562 91.0176 567.959 90.9801 568.512C90.9661 568.63 90.9754 568.748 90.9754 568.899ZM80.0224 563.754C80.0412 563.769 80.0599 563.783 80.0787 563.792C80.1115 563.773 80.1443 563.759 80.1725 563.736C80.3507 563.561 80.5194 563.376 80.707 563.206C80.9602 562.975 81.2368 562.795 81.5979 562.795C81.7948 562.795 81.9823 562.824 82.0621 563.032C82.1465 563.254 82.0339 563.391 81.8745 563.556C81.5228 563.929 81.2087 564.34 80.8945 564.742C80.8617 564.784 80.8992 564.879 80.9039 564.945C80.9649 564.921 81.0399 564.917 81.0821 564.879C81.1759 564.784 81.2462 564.671 81.3353 564.572C81.5228 564.369 81.7338 564.217 82.0245 564.236C82.2449 564.251 82.3246 564.397 82.2215 564.591C82.1558 564.714 82.0855 564.827 81.9917 564.988C82.1324 565.002 82.2262 565.025 82.3199 565.021C82.7794 564.983 83.1264 564.742 83.3984 564.388C83.9798 563.632 84.2892 562.776 84.308 561.817C84.322 561.241 84.0782 560.896 83.5156 560.759C82.9576 560.622 82.3903 560.613 81.8276 560.754C81.4291 560.854 81.054 561.005 80.8383 561.397C80.6648 561.713 80.6929 561.747 81.0071 561.865C81.1431 561.917 81.2837 562.044 81.354 562.176C81.4384 562.332 81.2697 562.417 81.1712 562.512C80.8383 562.833 80.5054 563.15 80.1819 563.48C80.1115 563.561 80.074 563.665 80.0224 563.754ZM88.9968 567.818C88.7905 567.865 88.6357 567.87 88.5091 567.94C88.406 567.997 88.2653 568.129 88.27 568.219C88.3028 568.734 88.3263 569.259 88.7061 569.67C88.8514 569.825 89.0108 569.859 89.1843 569.75C89.5219 569.542 89.7985 569.273 89.972 568.904C90.1314 568.564 90.0471 568.229 89.7141 568.063C89.4797 567.945 89.2078 567.888 88.9968 567.818ZM82.0621 554.688C82.048 554.934 82.1277 555.094 82.3059 555.198C82.5216 555.321 82.7466 555.354 82.9717 555.213C83.2905 555.009 83.4734 554.707 83.5672 554.343C83.6938 553.847 83.3608 553.427 82.8545 553.455C82.7701 553.46 82.6622 553.498 82.606 553.554C82.2965 553.885 82.1089 554.272 82.0621 554.688ZM73.0737 566.466C73.069 566.466 73.0643 566.466 73.0596 566.466C73.0596 566.622 73.0643 566.783 73.0596 566.939C73.0455 567.18 73.1627 567.355 73.3222 567.515C73.4488 567.643 73.5613 567.643 73.6832 567.51C74.1239 567.047 74.2881 566.495 74.199 565.866C74.1708 565.658 74.0255 565.512 73.8286 565.451C73.6973 565.408 73.1346 565.682 73.1018 565.786C73.083 565.838 73.0783 565.895 73.0783 565.947C73.0737 566.121 73.0737 566.292 73.0737 566.466Z" fill="#FF719C"/>
<ellipse cx="276" cy="109.5" rx="2" ry="2.5" fill="#2A3B5E" fill-opacity="0.2"/>
<circle cx="260" cy="126" r="2" fill="#2A3B5E" fill-opacity="0.2"/>
<g clip-path="url(#clip0)">
<path fill-rule="evenodd" clip-rule="evenodd" d="M51.4455 54.2108C51.4331 53.8508 51.249 53.4409 50.8288 53.1991C50.4729 52.7707 50.115 52.5612 49.7421 52.2733L47.7735 50.253C47.6191 50.0314 47.2144 49.8055 47.2163 49.5865C47.3888 49.5425 47.5579 49.8739 47.7304 49.8299C47.9324 49.9742 48.1046 49.9614 48.2909 50.1211C48.6031 50.189 48.9159 50.1943 49.2276 50.3247C49.619 50.2845 50.0253 50.3227 50.4009 50.2978C50.7929 50.195 51.1992 50.2332 51.576 50.0832C51.953 49.9019 52.346 49.674 52.7253 49.2424C52.679 49.1634 52.7577 49.1178 52.8208 49.0563C52.9971 48.5744 52.9074 48.1035 52.9429 47.6348C52.6957 47.2865 52.6207 46.9254 52.3735 46.577C51.9087 46.0685 51.4434 45.6226 50.9621 45.2233C50.8057 45.2206 50.6496 45.1867 50.4946 45.0276C50.1821 44.991 49.8851 44.9703 49.6044 44.8716C49.1504 44.9108 48.6968 44.9187 48.2267 45.0046C47.757 45.0592 47.3017 45.2548 46.8483 45.2314C46.4701 45.5378 46.0948 45.5314 45.7015 45.7906C45.5628 45.5536 45.5337 45.3028 45.2854 45.0796C45.0679 44.9195 44.6474 44.7089 44.5862 44.5514C45.1089 43.8251 45.4909 43.0808 45.8884 42.3523C46.2236 41.5915 46.4805 40.845 46.3778 40.0767C46.2081 39.8079 46.1007 39.5714 45.8214 39.3163C45.3235 39.0263 44.8089 38.8454 44.3095 38.7118C43.5741 38.7462 42.8223 38.8585 42.0799 39.6749C41.4623 40.5248 41.3452 41.3832 41.3065 42.2273C41.4269 42.7612 41.5785 43.2956 41.6832 43.8449C41.139 43.4759 40.5821 42.7781 40.0393 42.2526C39.4641 41.8517 38.8734 41.4349 38.299 40.9402C38.0031 40.7943 37.708 40.5547 37.3975 40.2991C37.2261 40.2179 37.1021 40.0907 36.9463 40.0254C36.7905 39.9602 36.62 39.7852 36.4779 39.9236C36.3384 39.7804 36.1798 40.028 36.0536 40.151C35.9111 40.3519 35.771 40.2713 35.6284 40.4723L34.7606 41.3179C34.6206 41.2373 34.4769 41.5633 34.3355 41.6391L33.9095 42.0542C33.6097 42.3463 33.2474 42.6374 33.182 42.9491C33.2579 43.2164 33.4901 43.4863 33.8004 43.7731C33.8917 44.0563 34.3897 44.3463 34.4653 44.6449C33.0145 45.9655 31.5638 47.286 30.113 48.6066C29.7009 49.2254 29.1165 49.8568 29.0484 50.4813C29.4346 51.0354 30.0241 51.5774 30.5512 52.1182C32.8572 54.8951 35.1629 57.7033 37.9693 60.4887C38.464 61.1542 39.2061 62.1367 39.9379 62.509C40.4702 62.4555 40.9895 62.1045 41.5091 61.7223L45.8164 57.5251C45.7702 57.4461 45.8804 57.3698 45.9593 57.2929C45.9449 57.1519 46.2433 57.0161 46.1038 56.873C46.2765 56.7977 45.9823 56.4642 46.2474 56.5469C46.5417 56.8804 46.7576 57.2283 47.1456 57.5634C47.4582 57.6 47.7853 57.7464 48.084 57.5794C49.4063 56.6321 50.1858 55.1592 51.4455 54.2108ZM45.4307 46.3335C45.5702 46.4767 45.7109 46.4947 45.8509 46.5754C47.1527 46.1752 48.4224 45.8683 49.7054 45.8276C49.923 45.9877 50.1416 46.0228 50.3606 46.0265C50.7179 46.2985 51.0902 46.649 51.4465 47.0462C51.7861 47.5526 51.9536 48.0716 51.824 48.57C51.1782 49.0752 50.5208 49.1266 49.8792 49.1626C49.5512 49.1101 49.2068 49.1355 48.8952 49.005C48.5826 48.9684 48.2715 48.7754 47.9585 48.8013C47.5394 48.4344 47.1339 48.3023 46.7281 48.2016C46.4294 48.3686 46.7383 48.8118 46.5819 48.8092C45.9932 48.1734 45.4828 47.5233 44.8002 46.886C44.9881 46.8579 45.2101 46.5175 45.4307 46.3335ZM46.7367 48.9995C46.6893 49.0456 46.6431 48.9666 46.5963 48.9502C46.6437 48.9041 46.6899 48.9831 46.7367 48.9995ZM43.5477 45.2533C43.6722 45.318 43.7976 45.2889 43.9214 45.4474C44.0301 45.5275 44.1406 45.4199 44.2502 45.4061C44.3889 45.6431 44.6397 45.5848 44.6222 45.7879C44.4019 45.9406 44.4005 46.097 44.2427 46.2507L43.6382 45.6303C43.5147 45.4405 43.1411 45.2464 43.174 45.0592C43.2692 44.9044 43.6116 45.098 43.5477 45.2533ZM42.4372 41.7147C42.6459 41.1081 42.6512 40.5138 43.4071 39.9322C43.532 39.9656 43.6419 39.9206 43.7368 39.797C44.2683 39.8374 45.1294 39.7426 45.3417 40.4971C45.2564 41.2934 44.78 42.0987 44.2256 42.8871C44.0512 43.1501 44.0332 43.4157 43.8901 43.6792C43.7952 43.8027 43.794 43.9279 43.6053 44.0498C43.7605 44.1776 43.259 44.2942 43.4143 44.422C43.1485 44.4018 43.1054 43.9787 42.9974 43.8048C42.9213 43.5688 42.7513 43.3313 42.7691 43.0969C42.5072 42.6388 42.5269 42.1855 42.4372 41.7147ZM34.4642 43.0023C35.0493 42.277 36.0276 41.3238 36.7677 40.7576C37.4957 41.5678 38.2411 42.175 38.9722 42.6411C40.0414 43.77 41.096 44.7892 42.1661 45.8242C41.3947 46.3899 40.6058 47.1586 39.8324 47.9432C39.7366 48.1606 39.6876 48.3944 39.9204 48.6018C39.748 48.6457 39.5791 48.2831 39.4081 48.1706L37.9045 46.6276C37.0389 45.4553 35.5968 44.0384 34.4642 43.0023ZM33.602 53.7971C33.7443 53.6275 34.0743 53.461 33.935 53.2866C33.7645 53.1116 33.5746 53.3587 33.4169 53.5124C33.0759 53.1624 32.7503 52.8284 32.5187 52.4959C32.7861 52.3284 33.1763 52.4133 33.1797 52.0379C32.8384 51.7192 32.4915 52.0262 32.1475 52.0203C31.9449 51.9386 31.7453 51.5128 31.4499 51.3044C31.8751 50.9832 32.2806 51.1152 32.6898 50.8406C32.8929 50.8597 33.1133 50.7071 33.3009 50.7103C33.4889 50.6822 33.6766 50.6854 33.8664 50.4383C33.6979 50.0444 33.1963 50.161 32.8841 50.0931C32.5389 50.2123 32.2106 50.1911 31.8967 50.3109C31.7248 50.2923 31.536 50.4142 31.3794 50.4429C31.223 50.4402 31.0649 50.6252 30.9085 50.6226C30.691 50.4624 31.0674 50.3437 31.1452 50.3919C31.2717 50.2377 31.3957 50.3649 31.5222 50.2106C31.789 50.1057 32.0238 50.094 32.2754 49.9419C32.5251 50.0087 32.7927 49.8099 33.0277 49.767C33.2317 49.6923 33.622 49.7771 33.6871 49.4967C33.7048 49.2623 33.3154 49.0836 33.1747 49.0656C32.9873 49.0311 32.7997 49.0279 32.6117 49.056C32.424 49.0528 32.2209 49.0337 32.0479 49.1402C31.8455 49.0273 31.6554 49.3056 31.4849 49.1306C32.0224 48.4828 32.5683 48.6641 33.1033 48.2978C33.3693 48.2867 33.637 48.0879 33.9038 47.983C34.1236 47.8928 34.5319 47.7121 34.4719 47.4295C34.1458 47.158 33.8017 47.1521 33.4878 47.2719C33.5058 47.0063 34.0556 46.7497 34.1048 46.4846L34.8148 45.7928C34.9878 45.6862 34.8793 45.5749 35.0523 45.4683L35.1943 45.3299C36.433 46.759 37.6404 48.1874 39.098 49.6202C37.3015 51.1226 35.5956 53.002 34.314 54.654C33.9882 54.3512 33.9436 54.0845 33.602 53.7971ZM42.5346 46.6127C42.6295 46.4892 42.7239 46.4282 42.8177 46.4298C42.8169 46.5236 42.8786 46.6185 43.0029 46.7145C42.846 46.7744 42.6898 46.7405 42.5346 46.6127ZM36.6411 53.2858C36.5326 53.1744 36.8307 53.07 36.8786 52.9613C37.1617 52.7784 37.4416 52.9709 37.7239 52.8819C37.7704 52.9296 37.7856 52.9768 37.7696 53.0234L37.0596 53.7153C36.8406 53.7116 36.6233 53.5201 36.4036 53.6102C36.3106 53.5148 36.5774 53.4098 36.6411 53.2858ZM36.493 54.1124C36.6167 54.2709 36.3338 54.4225 36.2073 54.5768C36.1464 54.388 36.0224 54.2608 35.8353 54.195C36.0562 53.9798 36.2571 54.2491 36.493 54.1124ZM35.3088 55.3593C35.355 55.4383 35.2136 55.5141 35.166 55.5915C35.058 55.4176 35.1671 55.4664 35.3088 55.3593ZM35.4973 55.2686C35.4984 55.1435 35.3431 55.0157 35.2191 54.8884C35.4879 54.5645 35.7511 54.8662 36.0188 54.6674C36.0171 54.8551 35.6398 55.0677 35.4973 55.2686ZM38.4162 52.4244C38.1685 52.1386 37.9169 52.2907 37.668 52.13C38.045 51.9487 38.4184 52.1741 38.7965 51.8677C38.7993 51.5549 38.4229 51.6736 38.2834 51.5304C38.5197 51.3311 38.7534 51.4446 38.9875 51.4955C39.1459 51.2792 39.3009 51.4383 39.4592 51.222C39.5705 51.0205 39.382 51.1112 39.274 50.9372C39.5724 50.8015 39.8534 50.8689 40.1211 50.6701C40.1833 50.7024 40.1828 50.765 40.1667 50.8117C39.5829 51.3805 38.985 51.777 38.4162 52.4244ZM41.0353 49.8722C41.2081 49.797 41.3794 49.8781 41.5527 49.7403C41.6944 49.6332 41.6485 49.5229 41.5087 49.411C41.7451 49.2117 41.9189 49.0113 41.6548 48.8034C41.907 48.5887 42.1705 48.8591 42.408 48.5347C42.6441 48.3666 42.4424 48.1911 42.5534 48.0209C42.5235 47.864 42.5874 47.7086 42.4637 47.5501C42.8091 47.3995 43.1211 47.4987 43.4519 47.2384C43.6996 47.5242 44.088 47.8281 44.2106 48.1117C43.3597 48.8168 42.4448 49.6772 41.7177 50.5409C41.4995 50.4433 41.2684 50.0483 41.0353 49.8722ZM45.3451 55.9997C45.2191 56.0914 45.078 56.1359 44.9681 56.181C44.7314 56.4116 44.5722 56.7217 44.3511 56.9682C43.9561 57.4152 43.468 57.7666 43.0108 58.1812C42.0176 59.056 41.1479 60.1205 40.14 60.8855C39.4898 60.1236 38.8086 59.3298 38.0801 58.5821C37.3515 57.8345 36.4971 57.1785 35.91 56.3551C37.6453 54.6952 39.318 53.0342 40.8344 51.3706C41.2377 51.7529 41.6243 52.2444 42.0133 52.4857C42.3681 53.0393 43.0512 53.6141 43.5625 54.1703C43.9041 54.4577 44.2614 54.7297 44.6027 55.0484C44.7735 55.1921 44.9587 55.4768 45.1151 55.4795C45.3013 55.6391 45.4862 55.9551 45.6739 55.9583L45.7669 56.0538C45.6255 56.1296 45.4857 56.0177 45.3451 55.9997ZM47.6757 55.9925L46.9782 55.2766C45.4392 54.2023 43.9049 52.5962 42.3695 51.1151C43.1742 50.3311 43.9321 49.5305 44.6274 48.7289C44.7215 48.6992 44.8154 48.7008 44.9089 48.7337C46.2381 50.5397 48.1444 52.5276 49.9442 54.1852C49.1721 54.8134 48.4311 55.4735 47.6757 55.9925Z" fill="#009DAF"/>
</g>
<defs>
<clipPath id="clip0">
<rect width="21.1003" height="20.5979" fill="white" transform="translate(41.4043 34.7202) rotate(45.7422)"/>
</clipPath>
</defs>
</svg>
