<svg width="256" height="141" viewBox="0 0 256 141" fill="none" xmlns="http://www.w3.org/2000/svg">
<path d="M94.876 139.671L92.8953 139.171C92.6638 139.116 92.4323 139.171 92.278 139.338L90.7603 140.808C90.3488 141.225 89.6542 140.919 89.6028 140.309L89.4485 138.117C89.4227 137.867 89.2941 137.645 89.1141 137.534L87.3392 136.424C86.8504 136.119 86.9019 135.342 87.4163 135.092L89.2941 134.26C89.4999 134.177 89.6542 133.955 89.7057 133.733L90.1173 131.596C90.2459 130.985 90.9404 130.791 91.3005 131.263L92.6124 132.928C92.7667 133.122 92.9725 133.205 93.204 133.178L95.2362 132.956C95.8021 132.9 96.1879 133.566 95.905 134.093L94.8503 135.952C94.7217 136.174 94.7217 136.424 94.7989 136.646L95.622 138.644C95.905 139.199 95.4419 139.809 94.876 139.671Z" fill="#F1E66B"/>
<path d="M186.876 8.67072L184.895 8.17125C184.664 8.11575 184.432 8.17125 184.278 8.33774L182.76 9.80841C182.349 10.2246 181.654 9.9194 181.603 9.30893L181.448 7.11682C181.423 6.86708 181.294 6.64509 181.114 6.5341L179.339 5.42417C178.85 5.11893 178.902 4.34198 179.416 4.09225L181.294 3.2598C181.5 3.17655 181.654 2.95456 181.706 2.73258L182.117 0.595955C182.246 -0.014508 182.94 -0.208746 183.301 0.262976L184.612 1.92788C184.767 2.12211 184.973 2.20536 185.204 2.17761L187.236 1.95562C187.802 1.90013 188.188 2.56609 187.905 3.09331L186.85 4.95244C186.722 5.17443 186.722 5.42417 186.799 5.64615L187.622 7.64403C187.905 8.199 187.442 8.80947 186.876 8.67072Z" fill="#F1E66B"/>
<path d="M254.876 72.6707L252.895 72.1712C252.664 72.1158 252.432 72.1713 252.278 72.3377L250.76 73.8084C250.349 74.2246 249.654 73.9194 249.603 73.3089L249.448 71.1168C249.423 70.8671 249.294 70.6451 249.114 70.5341L247.339 69.4242C246.85 69.1189 246.902 68.342 247.416 68.0922L249.294 67.2598C249.5 67.1766 249.654 66.9546 249.706 66.7326L250.117 64.596C250.246 63.9855 250.94 63.7913 251.301 64.263L252.612 65.9279C252.767 66.1221 252.973 66.2054 253.204 66.1776L255.236 65.9556C255.802 65.9001 256.188 66.5661 255.905 67.0933L254.85 68.9524C254.722 69.1744 254.722 69.4242 254.799 69.6462L255.622 71.644C255.905 72.199 255.442 72.8095 254.876 72.6707Z" fill="#C6C6C6"/>
<path d="M7.87603 98.6707L5.89535 98.1712C5.66384 98.1158 5.43233 98.1713 5.27799 98.3377L3.76033 99.8084C3.34876 100.225 2.65424 99.9194 2.60279 99.3089L2.44845 97.1168C2.42273 96.8671 2.29412 96.6451 2.11405 96.5341L0.33916 95.4242C-0.149579 95.1189 -0.0981343 94.342 0.416328 94.0922L2.29411 93.2598C2.4999 93.1766 2.65424 92.9546 2.70568 92.7326L3.11725 90.596C3.24587 89.9855 3.94039 89.7913 4.30052 90.263L5.61239 91.9279C5.76673 92.1221 5.97252 92.2054 6.20403 92.1776L8.23615 91.9556C8.80206 91.9001 9.18791 92.5661 8.90495 93.0933L7.85031 94.9524C7.72169 95.1744 7.72169 95.4242 7.79886 95.6462L8.622 97.644C8.90495 98.199 8.44194 98.8095 7.87603 98.6707Z" fill="#C6C6C6"/>
</svg>
