<svg width="1028" height="189" viewBox="0 0 1028 189" fill="none" xmlns="http://www.w3.org/2000/svg">
<path d="M272.876 8.67072L270.895 8.17125C270.664 8.11575 270.432 8.17125 270.278 8.33774L268.76 9.80841C268.349 10.2246 267.654 9.9194 267.603 9.30893L267.448 7.11682C267.423 6.86708 267.294 6.64509 267.114 6.5341L265.339 5.42417C264.85 5.11893 264.902 4.34198 265.416 4.09225L267.294 3.2598C267.5 3.17655 267.654 2.95456 267.706 2.73258L268.117 0.595955C268.246 -0.014508 268.94 -0.208746 269.301 0.262976L270.612 1.92788C270.767 2.12211 270.973 2.20536 271.204 2.17761L273.236 1.95562C273.802 1.90013 274.188 2.56609 273.905 3.09331L272.85 4.95244C272.722 5.17443 272.722 5.42417 272.799 5.64615L273.622 7.64403C273.905 8.199 273.442 8.80947 272.876 8.67072Z" fill="#F1E66B"/>
<path d="M143.876 133.671L141.895 133.171C141.664 133.116 141.432 133.171 141.278 133.338L139.76 134.808C139.349 135.225 138.654 134.919 138.603 134.309L138.448 132.117C138.423 131.867 138.294 131.645 138.114 131.534L136.339 130.424C135.85 130.119 135.902 129.342 136.416 129.092L138.294 128.26C138.5 128.177 138.654 127.955 138.706 127.733L139.117 125.596C139.246 124.985 139.94 124.791 140.301 125.263L141.612 126.928C141.767 127.122 141.973 127.205 142.204 127.178L144.236 126.956C144.802 126.9 145.188 127.566 144.905 128.093L143.85 129.952C143.722 130.174 143.722 130.424 143.799 130.646L144.622 132.644C144.905 133.199 144.442 133.809 143.876 133.671Z" fill="#F1E66B"/>
<path d="M886.876 67.6707L884.895 67.1712C884.664 67.1158 884.432 67.1713 884.278 67.3377L882.76 68.8084C882.349 69.2246 881.654 68.9194 881.603 68.3089L881.448 66.1168C881.423 65.8671 881.294 65.6451 881.114 65.5341L879.339 64.4242C878.85 64.1189 878.902 63.342 879.416 63.0922L881.294 62.2598C881.5 62.1766 881.654 61.9546 881.706 61.7326L882.117 59.596C882.246 58.9855 882.94 58.7913 883.301 59.263L884.612 60.9279C884.767 61.1221 884.973 61.2054 885.204 61.1776L887.236 60.9556C887.802 60.9001 888.188 61.5661 887.905 62.0933L886.85 63.9524C886.722 64.1744 886.722 64.4242 886.799 64.6462L887.622 66.644C887.905 67.199 887.442 67.8095 886.876 67.6707Z" fill="#F1E66B"/>
<path d="M800.876 172.671L798.895 172.171C798.664 172.116 798.432 172.171 798.278 172.338L796.76 173.808C796.349 174.225 795.654 173.919 795.603 173.309L795.448 171.117C795.423 170.867 795.294 170.645 795.114 170.534L793.339 169.424C792.85 169.119 792.902 168.342 793.416 168.092L795.294 167.26C795.5 167.177 795.654 166.955 795.706 166.733L796.117 164.596C796.246 163.985 796.94 163.791 797.301 164.263L798.612 165.928C798.767 166.122 798.973 166.205 799.204 166.178L801.236 165.956C801.802 165.9 802.188 166.566 801.905 167.093L800.85 168.952C800.722 169.174 800.722 169.424 800.799 169.646L801.622 171.644C801.905 172.199 801.442 172.809 800.876 172.671Z" fill="#F1E66B"/>
<path d="M7.87603 77.6707L5.89535 77.1712C5.66384 77.1158 5.43233 77.1713 5.27799 77.3377L3.76033 78.8084C3.34876 79.2246 2.65424 78.9194 2.60279 78.3089L2.44845 76.1168C2.42273 75.8671 2.29412 75.6451 2.11405 75.5341L0.33916 74.4242C-0.149579 74.1189 -0.0981343 73.342 0.416328 73.0922L2.29411 72.2598C2.4999 72.1766 2.65424 71.9546 2.70568 71.7326L3.11725 69.596C3.24587 68.9855 3.94039 68.7913 4.30052 69.263L5.61239 70.9279C5.76673 71.1221 5.97252 71.2054 6.20403 71.1776L8.23615 70.9556C8.80206 70.9001 9.18791 71.5661 8.90495 72.0933L7.85031 73.9524C7.72169 74.1744 7.72169 74.4242 7.79886 74.6462L8.622 76.644C8.90495 77.199 8.44194 77.8095 7.87603 77.6707Z" fill="#F1E66B"/>
<path d="M444.876 40.6707L442.895 40.1712C442.664 40.1158 442.432 40.1713 442.278 40.3377L440.76 41.8084C440.349 42.2246 439.654 41.9194 439.603 41.3089L439.448 39.1168C439.423 38.8671 439.294 38.6451 439.114 38.5341L437.339 37.4242C436.85 37.1189 436.902 36.342 437.416 36.0922L439.294 35.2598C439.5 35.1766 439.654 34.9546 439.706 34.7326L440.117 32.596C440.246 31.9855 440.94 31.7913 441.301 32.263L442.612 33.9279C442.767 34.1221 442.973 34.2054 443.204 34.1776L445.236 33.9556C445.802 33.9001 446.188 34.5661 445.905 35.0933L444.85 36.9524C444.722 37.1744 444.722 37.4242 444.799 37.6462L445.622 39.644C445.905 40.199 445.442 40.8095 444.876 40.6707Z" fill="#F1E66B"/>
<path d="M969.876 167.671L967.895 167.171C967.664 167.116 967.432 167.171 967.278 167.338L965.76 168.808C965.349 169.225 964.654 168.919 964.603 168.309L964.448 166.117C964.423 165.867 964.294 165.645 964.114 165.534L962.339 164.424C961.85 164.119 961.902 163.342 962.416 163.092L964.294 162.26C964.5 162.177 964.654 161.955 964.706 161.733L965.117 159.596C965.246 158.985 965.94 158.791 966.301 159.263L967.612 160.928C967.767 161.122 967.973 161.205 968.204 161.178L970.236 160.956C970.802 160.9 971.188 161.566 970.905 162.093L969.85 163.952C969.722 164.174 969.722 164.424 969.799 164.646L970.622 166.644C970.905 167.199 970.442 167.809 969.876 167.671Z" fill="#C6C6C6"/>
<path d="M1026.88 18.6707L1024.9 18.1712C1024.66 18.1158 1024.43 18.1713 1024.28 18.3377L1022.76 19.8084C1022.35 20.2246 1021.65 19.9194 1021.6 19.3089L1021.45 17.1168C1021.42 16.8671 1021.29 16.6451 1021.11 16.5341L1019.34 15.4242C1018.85 15.1189 1018.9 14.342 1019.42 14.0922L1021.29 13.2598C1021.5 13.1766 1021.65 12.9546 1021.71 12.7326L1022.12 10.596C1022.25 9.98549 1022.94 9.79125 1023.3 10.263L1024.61 11.9279C1024.77 12.1221 1024.97 12.2054 1025.2 12.1776L1027.24 11.9556C1027.8 11.9001 1028.19 12.5661 1027.9 13.0933L1026.85 14.9524C1026.72 15.1744 1026.72 15.4242 1026.8 15.6462L1027.62 17.644C1027.9 18.199 1027.44 18.8095 1026.88 18.6707Z" fill="#C6C6C6"/>
<path d="M351.876 187.671L349.895 187.171C349.664 187.116 349.432 187.171 349.278 187.338L347.76 188.808C347.349 189.225 346.654 188.919 346.603 188.309L346.448 186.117C346.423 185.867 346.294 185.645 346.114 185.534L344.339 184.424C343.85 184.119 343.902 183.342 344.416 183.092L346.294 182.26C346.5 182.177 346.654 181.955 346.706 181.733L347.117 179.596C347.246 178.985 347.94 178.791 348.301 179.263L349.612 180.928C349.767 181.122 349.973 181.205 350.204 181.178L352.236 180.956C352.802 180.9 353.188 181.566 352.905 182.093L351.85 183.952C351.722 184.174 351.722 184.424 351.799 184.646L352.622 186.644C352.905 187.199 352.442 187.809 351.876 187.671Z" fill="#C6C6C6"/>
</svg>
