<svg width="293" height="523" viewBox="0 0 293 523" fill="none" xmlns="http://www.w3.org/2000/svg">
<path d="M28.4944 17.6125C28.3933 17.4062 28.1408 17.4062 28.0903 17.6125C27.4336 19.2116 26.9789 20.4496 26.3222 21.5844C26.1707 21.8939 25.716 22.0486 25.3119 22.2034C25.0594 22.3065 24.7057 22.1518 24.6047 21.8939C24.4532 21.4812 24.3016 21.0686 24.4027 20.6559C24.6552 19.5727 25.0088 18.4894 25.5645 17.561C27.6356 14.1049 26.8779 10.8037 25.1099 7.1413C25.0088 6.98655 24.8068 6.93497 24.7057 7.1413C24.4027 7.65712 24.0996 8.01819 23.948 8.48244C23.2913 9.97833 22.6851 11.4742 21.9274 12.9185C21.7759 13.228 21.3718 13.3312 21.0182 13.4859C20.7656 13.5891 20.513 13.4859 20.3615 13.228C20.1594 12.8154 19.9573 12.4543 20.0079 12.1448C21.0687 8.79194 22.18 5.49066 23.3418 2.18938C23.847 0.796651 24.8573 0.435572 26.1707 1.00298C28.949 2.24096 31.7273 3.42735 34.4551 4.71692C34.8088 4.87166 35.0108 5.38749 35.2129 5.85174C35.3139 6.10965 35.2129 6.36756 35.0108 6.47072C34.6572 6.67705 34.2531 6.88338 33.95 6.8318C32.5861 6.47072 31.2727 5.90331 29.9088 5.38749C28.949 5.02641 28.0397 4.51059 27.08 4.09793C26.8779 3.99476 26.6758 4.2011 26.7769 4.40743C27.7366 7.03813 28.5954 9.72042 29.6562 12.2995C29.8583 12.7638 30.717 13.0733 31.3232 13.228C32.5356 13.4859 33.849 13.4859 35.0613 13.847C35.516 13.9502 35.8696 14.3628 36.2737 14.7239C36.5263 14.9302 36.4757 15.3429 36.1727 15.4977C35.7685 15.7556 35.3644 16.0135 34.9098 16.0135C33.7985 16.0651 32.6871 15.9103 31.5758 15.8071C31.3737 15.8071 31.2222 15.9619 31.1717 16.1682C30.9696 20.2432 32.6871 23.235 36.0211 24.8857C37.1324 25.4531 38.3448 25.9173 39.4056 26.5879C39.7087 26.7426 39.8097 27.1553 39.9613 27.5679C40.0623 27.8259 39.9613 28.0838 39.7087 28.1869C39.3046 28.3933 38.9005 28.5996 38.5974 28.4964C37.284 28.0838 36.0211 27.5164 34.1521 26.7942C34.0005 26.7426 33.7985 26.8974 33.849 27.0521C34.6067 29.4249 35.2634 31.2819 35.6675 33.1904C35.7685 33.7063 35.5665 34.2221 35.4149 34.7895C35.3139 35.1506 34.8593 35.2537 34.6067 35.0474C34.2026 34.7379 33.7985 34.3768 33.6469 33.9642C32.9397 32.2104 32.384 30.405 31.6263 28.1354C31.5758 27.929 31.3232 27.929 31.2222 28.0838C30.3634 29.6312 29.8078 30.7661 29.1006 31.6945C28.8985 32.004 28.3428 32.0556 27.8377 32.1588C27.5851 32.2104 27.383 32.0556 27.3325 31.8493C27.2315 31.4366 27.1305 31.024 27.2315 30.6629C27.5851 29.6312 28.0397 28.548 28.6964 27.6711C31.2727 24.4214 30.0098 21.2749 28.4944 17.6125Z" fill="#E1E8E5"/>
<path d="M36.9545 518.942C37.102 520.011 36.9112 521.029 36.0784 521.894C35.532 522.458 34.8987 522.792 34.092 522.741C33.5889 522.715 33.0772 522.681 32.5827 522.715C30.2407 522.86 28.7053 520.73 29.0089 518.625C29.087 518.095 29.2605 517.573 29.4253 517.068C29.5207 516.777 29.512 516.546 29.2605 516.341C28.7921 515.965 28.341 515.554 27.8466 515.229C26.8404 514.57 25.7995 513.963 24.7759 513.321C24.4897 513.141 24.2121 513.064 23.9345 513.278C22.2604 514.561 20.3867 514.484 18.4437 514.108C17.0558 513.843 15.7634 513.424 14.7571 512.38C14.5576 512.174 14.3755 511.952 14.202 511.721C14.0198 511.473 13.803 511.404 13.5254 511.507C11.8513 512.106 10.1685 512.722 8.49434 513.321C8.104 513.458 7.89582 513.714 7.85245 514.142C7.69631 515.657 6.95033 516.923 5.97881 518.052C5.72726 518.352 5.26752 518.565 4.86851 518.634C3.99241 518.779 3.11631 518.634 2.29225 518.283C0.470663 517.505 -0.388087 515.725 0.167064 513.774C0.522708 512.525 1.1646 511.439 2.42237 510.908C3.95771 510.258 5.39763 510.54 6.63805 511.635C7.00237 511.952 7.31464 512.012 7.7657 511.841C9.4832 511.182 11.2094 510.549 12.9442 509.933C13.3172 509.796 13.4387 509.608 13.3432 509.231C13.2565 508.889 13.2045 508.53 13.1437 508.188C13.0396 507.554 13.083 506.938 13.3693 506.357C14.6531 503.679 16.6742 501.993 19.7362 501.668C19.8663 501.651 19.9877 501.608 20.1178 501.6C20.5342 501.566 20.673 501.343 20.673 500.941C20.673 499.529 20.6903 498.126 20.7077 496.715C20.7077 496.381 20.6383 496.081 20.2653 496.047C18.7386 495.893 18.1141 494.807 17.7584 493.566C17.4375 492.437 17.5416 491.282 18.0707 490.195C18.5912 489.083 19.5106 488.561 20.6903 488.424C20.7077 488.424 20.7164 488.424 20.7337 488.424C21.6358 488.33 22.5553 488.176 23.336 488.843C24.3595 489.742 25.1489 490.768 25.4178 492.146C25.5739 492.933 25.4351 493.694 25.2617 494.422C25.0361 495.346 24.2815 495.816 23.3533 496.004C22.8068 496.116 22.7288 496.184 22.7548 496.732C22.8155 498.152 22.8676 499.572 22.9283 501.001C22.9543 501.617 23.0324 501.643 23.6656 501.66C24.2381 501.677 24.8279 501.702 25.3744 501.848C26.2679 502.079 26.7189 502.721 26.9098 503.619C27.3955 505.937 27.2394 508.17 26.1985 510.318C26.077 510.575 26.1464 510.78 26.3546 510.96C27.222 511.712 28.0721 512.482 28.9569 513.21C29.2345 513.441 29.5901 513.595 29.9111 513.791C30.2147 513.98 30.5529 514.142 30.7958 514.382C31.3163 514.912 31.9235 515.109 32.6695 515.075C33.7884 515.032 34.8467 515.272 35.7662 515.956C36.5295 516.521 37.0326 517.239 36.9632 518.24C36.9372 518.454 36.9545 518.668 36.9545 518.942ZM16.6915 509.625C16.7262 509.651 16.7609 509.676 16.7956 509.693C16.8563 509.659 16.917 509.633 16.9691 509.591C17.2987 509.274 17.611 508.94 17.9579 508.632C18.4264 508.213 18.9381 507.888 19.6061 507.888C19.9704 507.888 20.3173 507.939 20.4648 508.316C20.6209 508.718 20.4128 508.966 20.1178 509.266C19.4673 509.941 18.8861 510.686 18.3049 511.413C18.2442 511.49 18.3136 511.661 18.3223 511.781C18.435 511.738 18.5738 511.73 18.6519 511.661C18.8254 511.49 18.9555 511.285 19.1203 511.105C19.4673 510.737 19.8576 510.463 20.3954 510.498C20.8031 510.523 20.9506 510.788 20.7597 511.139C20.6383 511.362 20.5082 511.567 20.3347 511.858C20.5949 511.884 20.7684 511.926 20.9419 511.918C21.792 511.849 22.4339 511.413 22.937 510.771C24.0126 509.402 24.5851 507.854 24.6198 506.117C24.6458 505.073 24.1947 504.449 23.1538 504.201C22.1216 503.953 21.072 503.935 20.0311 504.192C19.2938 504.372 18.5998 504.646 18.2008 505.356C17.8799 505.929 17.9319 505.989 18.5131 506.203C18.7647 506.297 19.0249 506.528 19.155 506.767C19.3111 507.05 18.9989 507.204 18.8167 507.375C18.2008 507.957 17.585 508.53 16.9864 509.129C16.8563 509.274 16.7869 509.462 16.6915 509.625ZM33.294 516.983C32.9123 517.068 32.6261 517.077 32.3919 517.205C32.2011 517.308 31.9408 517.547 31.9495 517.71C32.0102 518.642 32.0536 519.592 32.7562 520.336C33.0251 520.619 33.32 520.679 33.641 520.482C34.2655 520.105 34.7773 519.618 35.0983 518.95C35.3932 518.334 35.237 517.727 34.6212 517.428C34.1875 517.214 33.6844 517.111 33.294 516.983ZM20.4648 493.207C20.4388 493.652 20.5862 493.943 20.9159 494.131C21.3149 494.353 21.7312 494.413 22.1476 494.156C22.7375 493.789 23.0757 493.241 23.2492 492.582C23.4834 491.684 22.8676 490.922 21.9307 490.974C21.7746 490.982 21.5751 491.051 21.471 491.153C20.8985 491.752 20.5515 492.454 20.4648 493.207ZM3.83627 514.536C3.8276 514.536 3.81892 514.536 3.81025 514.536C3.81025 514.818 3.81892 515.109 3.81025 515.391C3.78423 515.828 4.00108 516.144 4.29601 516.435C4.53021 516.666 4.73839 516.666 4.96392 516.427C5.7793 515.588 6.0829 514.587 5.91809 513.449C5.86604 513.073 5.59714 512.808 5.23282 512.696C4.98995 512.619 3.94904 513.116 3.88832 513.304C3.85362 513.398 3.84494 513.501 3.84494 513.595C3.83627 513.911 3.83627 514.219 3.83627 514.536Z" fill="#E1E8E5"/>
<path d="M276.555 241.48C277.918 243.47 277.976 244.665 276.712 245.432C275.497 246.21 274.453 245.693 273.035 243.617C272.705 243.104 272.296 242.598 271.966 242.084C271.25 240.971 270.292 241.434 269.529 241.937C269.156 242.203 268.956 242.999 268.984 243.498C269.07 244.477 269.653 245.512 269.515 246.469C269.394 247.257 268.605 248.371 267.935 248.5C267.313 248.639 266.382 247.776 265.731 247.219C265.457 246.989 265.482 246.378 265.394 245.916C264.975 244.027 264.406 242.428 261.921 242.271C260.536 242.199 259.471 241.258 259.937 239.706C260.396 238.078 261.68 238.449 263.077 238.474C265.108 238.51 267.405 238.504 269.218 237.681C272.574 236.199 275.781 234.292 278.763 232.164C280.224 231.118 281.189 229.302 282.174 227.711C282.783 226.707 283.4 225.975 284.629 226.26C285.84 226.517 286.349 227.438 286.116 228.572C285.876 229.63 286.394 230.11 287.195 230.575C288.245 231.168 289.296 231.76 290.262 232.483C291.247 233.234 291.545 234.283 290.701 235.312C289.826 236.358 288.767 236.208 287.741 235.522C287.133 235.097 286.453 234.756 285.834 234.378C283.63 233.097 283.068 233.2 281.603 235.28C281.376 235.577 281.569 236.333 281.808 236.704C282.388 237.541 283.221 238.186 283.832 239.006C284.565 239.95 284.555 241.106 283.477 241.642C282.779 241.987 281.563 241.852 280.847 241.454C279.93 240.939 279.246 240.005 278.587 239.175C277.806 238.221 277.025 238.179 276.046 238.932C274.976 239.74 275.881 240.302 276.206 240.938C276.268 241.099 276.427 241.28 276.555 241.48Z" fill="#E1E8E5"/>
</svg>
