<svg width="1306" height="464" viewBox="0 0 1306 464" fill="none" xmlns="http://www.w3.org/2000/svg">
<path d="M369.417 427.544C368.713 428.506 368.18 429.753 367.76 430.852C367.521 431.479 366.849 432.799 366.849 432.799C366.849 432.799 366.236 434.298 365.728 435.2C365.31 435.94 364.955 436.282 364.541 437.025C363.943 438.097 363.719 438.759 363.287 439.908C362.972 440.747 362.902 441.256 362.56 442.084C362.194 442.97 361.899 443.425 361.458 444.276C361.051 445.06 360.81 445.493 360.392 446.272C360.181 446.663 360.065 446.951 359.852 447.272C359.694 447.51 359.451 447.807 359.345 448.085C359.117 448.683 356.71 448.027 356.235 447.782C355.276 447.289 354.261 447.003 353.296 446.539C352.791 446.297 352.24 446.175 351.737 445.917C351.408 445.747 351.051 445.634 350.712 445.484C350.329 445.314 350.106 445.07 349.686 444.861C349.027 444.535 348.472 444.46 347.904 444.258C347.31 444.048 346.88 443.697 346.204 443.379C345.073 442.848 344.162 442.404 343.228 442.206C342.785 442.112 341.864 441.344 341.505 441.459" stroke="#E1E8E5" stroke-width="2" stroke-linecap="round" stroke-linejoin="round"/>
<path d="M369.129 427.754C368.022 428.109 367.28 429.056 366.181 429.408C365.125 429.747 364.07 430.085 363.014 430.424C361.928 430.772 360.969 431.247 359.955 431.753C359.479 431.991 358.955 432.099 358.493 432.373C357.898 432.726 357.439 433.039 356.767 433.255C355.137 433.778 353.547 434.541 352.113 435.483C351.312 436.009 350.413 436.384 349.616 436.908C348.975 437.328 348.2 437.497 347.562 437.954C346.523 438.697 345.145 439.021 344.164 439.805C343.788 440.105 343.164 440.27 342.727 440.482C342.36 440.661 342.129 440.904 341.723 441.034" stroke="#E1E8E5" stroke-width="2" stroke-linecap="round" stroke-linejoin="round"/>
<path d="M369.275 427.471C368.205 427.814 367.063 428.062 366.027 428.395C364.566 428.863 363.04 428.998 361.579 429.467C358.235 430.539 354.852 431.506 351.492 432.584C348.978 433.391 346.464 434.197 343.95 435.003C341.206 435.883 338.595 436.957 335.853 437.837" stroke="#E1E8E5" stroke-width="2" stroke-linecap="round" stroke-linejoin="round"/>
<path d="M368.954 427.574C366.657 428.311 364.493 428.28 362.117 428.179C361.374 428.147 360.244 428.359 359.525 428.59C358.714 428.85 357.775 428.679 356.959 428.94C354.911 429.597 352.781 429.808 350.739 430.463C349.257 430.938 347.654 430.919 346.106 431.122C343.477 431.467 340.742 431.693 338.181 432.364C337.483 432.547 336.882 432.46 336.055 432.573C335.371 432.667 334.313 432.87 334.313 432.87C334.313 432.87 333.386 432.987 333.002 433.08L329.355 433.6C328.932 433.638 328.621 433.766 328.278 433.742C327.619 433.696 326.956 434.017 326.311 434.038C325.752 434.056 325.141 434.015 324.582 434.008" stroke="#E1E8E5" stroke-width="2" stroke-linecap="round" stroke-linejoin="round"/>
<path d="M335.566 438.047C334.626 437.989 332.493 436.958 332.493 436.958C332.493 436.958 331.368 436.514 330.854 436.25C330.51 436.073 329.974 435.862 329.608 435.823C329.166 435.775 328.317 435.521 328.317 435.521C328.317 435.521 327.35 435.338 327.178 435.184C326.646 434.71 325.35 434.337 324.685 434.33" stroke="#E1E8E5" stroke-width="2" stroke-linecap="round" stroke-linejoin="round"/>
<path d="M340.648 454.258C341.618 453.539 342.344 452.562 343.22 451.779C343.947 451.131 344.63 450.142 345.488 449.641C345.882 449.41 346.112 448.83 346.574 448.583C347.036 448.337 347.447 447.9 347.833 447.556C348.255 447.179 348.876 446.909 349.188 446.439C349.38 446.149 350.057 445.755 350.106 445.435" stroke="#E1E8E5" stroke-width="2" stroke-linecap="round" stroke-linejoin="round"/>
<path d="M340.541 454.293C340.364 452.799 339.699 451.299 339.239 449.866C338.811 448.531 338.492 447.17 338.059 445.82C337.289 443.419 336.855 440.96 336.094 438.586" stroke="#E1E8E5" stroke-width="2" stroke-linecap="round" stroke-linejoin="round"/>
<path d="M341.505 441.459C341.353 442.443 341.094 443.465 340.961 444.469C340.812 445.586 340.922 446.74 340.804 447.828C340.756 448.265 340.782 448.681 340.78 449.227C340.778 449.789 340.795 450.666 340.795 450.666L341.051 453.682" stroke="#E1E8E5" stroke-width="2" stroke-linecap="round" stroke-linejoin="round"/>
<path d="M348.543 446.607C347.986 446.582 347.77 446.173 347.294 445.999C347.119 445.935 346.837 445.832 346.707 445.698" stroke="#E1E8E5" stroke-width="2" stroke-linecap="round" stroke-linejoin="round"/>
<path d="M346.807 447.908C346.499 447.547 346.006 447.361 345.618 447.092C345.466 446.987 345.331 446.868 345.166 446.783C345.074 446.736 344.92 446.714 344.844 446.642C344.603 446.414 344.32 446.243 344.098 446.016" stroke="#E1E8E5" stroke-width="2" stroke-linecap="round" stroke-linejoin="round"/>
<path d="M345.279 449.057C345.025 448.731 344.503 448.562 344.156 448.325C344.072 448.267 343.724 447.977 343.715 448.034" stroke="#E1E8E5" stroke-width="2" stroke-linecap="round" stroke-linejoin="round"/>
<path d="M343.975 450.383C343.894 450.299 343.188 449.605 343.112 449.753" stroke="#E1E8E5" stroke-width="2" stroke-linecap="round" stroke-linejoin="round"/>
<path d="M342.792 451.71C342.618 451.588 342.464 451.463 342.3 451.332" stroke="#E1E8E5" stroke-width="2" stroke-linecap="round" stroke-linejoin="round"/>
<path d="M636.601 28.8305C636.533 28.5558 636.288 28.3123 636.081 28.0746C635.809 27.761 635.517 27.4636 635.206 27.1944C632.488 24.7571 629.758 22.3218 627.028 19.8866C625.567 18.5862 624.091 17.2759 622.6 16.0058C621.83 15.3438 620.995 14.7807 620.245 14.0904C619.926 13.7851 619.646 13.3109 619.572 12.8876C619.307 11.4133 619.137 9.92222 618.919 8.43951C618.855 8.00213 619.027 7.70989 619.419 7.5408C619.588 7.47349 619.746 7.40826 619.915 7.34095C621.29 6.78629 621.988 5.66546 621.754 4.16076C621.565 2.99718 621.022 2.00847 619.591 2.11164C619.122 2.14464 618.632 2.19383 618.178 2.29904C616.939 2.5677 615.711 2.88449 614.485 3.15107C613.435 3.38645 612.387 3.57161 611.342 3.83105C610.377 4.06389 609.424 4.35691 608.467 4.62585C608.464 4.61382 608.462 4.60179 608.459 4.58975C607.941 4.68129 607.43 4.74668 606.919 4.87432C606.397 5.00404 605.879 5.15783 605.381 5.34564C604.755 5.56837 604.313 5.97071 604.296 6.72188C604.253 8.12586 605.19 9.30694 606.564 9.52543C607.081 9.60861 607.614 9.65153 608.136 9.69652C608.445 9.71672 608.644 9.85607 608.699 10.1831C609.002 11.7255 609.331 13.2758 609.622 14.8203C609.767 15.5926 609.793 16.3736 609.53 17.1182C608.968 18.7885 608.416 20.4446 607.492 21.9544C606.855 23.0146 606.343 24.1524 605.829 25.2781C604.942 27.2054 604.111 29.1724 603.212 31.1018C602.381 32.8821 601.943 34.7424 601.835 36.7191C601.758 38.2538 602.242 39.5521 603.205 40.7411C603.925 41.6363 604.815 42.1148 605.921 42.094C608.095 42.0465 610.235 41.8928 612.295 41.105C613.731 40.552 615.268 40.2554 616.76 39.8547C619.353 39.172 621.935 38.4915 624.533 37.8329C626.18 37.4172 627.835 37.0375 629.497 36.6939C630.246 36.5367 631.023 36.3994 631.794 36.4128C633.542 36.4282 634.956 35.7668 636.154 34.5827C636.762 33.9765 637.433 33.2595 637.357 32.3502C637.253 31.1841 636.889 30.0015 636.601 28.8305ZM609.064 24.3325C609.633 23.2968 610.205 22.2731 610.814 21.2552C610.914 21.0879 611.161 20.982 611.368 20.9205C611.688 20.8141 611.814 20.6547 611.813 20.2932C611.808 19.9077 611.901 19.5296 611.945 19.1477C611.951 19.0593 611.955 18.9589 611.926 18.8768C611.674 18.2979 611.925 17.9168 612.331 17.571C612.539 17.397 612.75 17.235 612.916 17.0312C613.198 16.682 613.13 16.4073 612.739 16.1647C612.67 16.127 612.601 16.0893 612.544 16.0495C612.31 15.9164 611.963 15.8904 611.967 15.4907C611.982 15.089 612.121 14.7528 612.471 14.5538C612.668 14.4442 612.87 14.3586 613.053 14.239C613.388 14.0301 613.48 13.7022 613.319 13.3317C613.16 12.9732 612.867 12.8505 612.495 12.9411C612.392 12.9719 612.3 13.0005 612.194 13.0193C611.928 13.0912 611.68 13.0726 611.555 12.7581C611.432 12.4556 611.496 12.2323 611.78 12.0699C612.121 11.8851 612.461 11.7003 612.787 11.5055C613.114 11.3107 613.375 11.04 613.167 10.6155C612.975 10.2131 612.617 10.2514 612.257 10.34C612.024 10.3936 611.793 10.4593 611.557 10.5009C611.298 10.5467 611.16 10.4089 611.142 10.138C611.111 9.56983 611.449 9.07374 611.995 9.00211C612.495 8.9388 612.997 8.94978 613.502 8.91054C613.73 8.89508 613.975 8.83935 614.189 8.75169C614.403 8.66403 614.604 8.51619 614.799 8.39451C615.566 7.90984 615.662 7.48152 615.134 6.68952C615.027 6.52149 614.745 6.3967 614.535 6.38393C614.216 6.37785 613.88 6.46225 613.567 6.54249C613.113 6.6477 612.687 6.83506 612.235 6.89005C610.748 7.0779 609.321 7.61681 607.789 7.63826C607.242 7.64764 606.863 7.52747 606.43 7.01804C606.698 6.89591 606.902 6.76011 607.132 6.69443C607.551 6.59547 607.98 6.54464 608.402 6.45771C610.198 6.11534 611.992 5.76093 613.789 5.41856C613.906 5.39776 614.022 5.36492 614.137 5.33208C614.744 5.13758 615.342 5.01944 616.009 5.00129C616.834 4.98016 617.648 4.72415 618.456 4.55653C618.656 4.52116 618.851 4.46173 619.188 4.37733C619.086 4.59484 619.063 4.7235 618.991 4.7862C618.396 5.34009 617.807 5.91804 617.181 6.43999C616.786 6.77176 616.56 7.16072 616.645 7.69438C616.976 9.7929 617.318 11.8893 617.661 13.9858C617.684 14.1563 617.742 14.3207 617.762 14.4792C617.872 15.4946 618.258 16.3116 619.208 16.842C619.58 17.0505 619.867 17.4364 620.145 17.7861C620.815 18.6154 621.629 19.257 622.592 19.6728C622.808 19.7719 623.053 19.7784 623.287 19.8493C623.536 19.9301 623.819 20.0047 624.021 20.1561C624.453 20.4787 624.824 20.862 625.237 21.2129C625.472 21.4083 625.502 21.5527 625.234 21.7371C624.742 22.0735 624.266 22.4318 623.788 22.7782C623.418 23.0556 622.982 23.1325 622.561 22.9825C620.837 22.3645 619.308 22.8217 617.86 23.676C617.282 24.015 616.738 24.3978 616.173 24.7347C614.795 25.5765 613.306 25.7523 611.732 25.27C610.911 25.016 610.113 24.6333 609.237 24.7009C608.975 24.7346 608.966 24.5118 609.064 24.3325ZM625.266 25.2351C625.262 25.3978 625.235 25.5647 625.22 25.7294C625.137 26.4549 624.936 26.7272 624.439 26.7403C623.856 26.7559 623.445 26.4171 623.301 25.7693C623.181 25.2419 623.253 25.117 623.769 25.0134C624.108 24.941 624.43 24.8467 624.769 24.7743C625.099 24.716 625.279 24.8836 625.266 25.2351ZM624.379 34.3316C624.17 34.5056 623.741 34.1327 623.662 33.7476C623.544 33.17 623.888 32.5232 624.416 32.3051C624.823 32.146 625.309 32.4964 625.28 32.9505C625.238 33.5813 624.819 33.9795 624.379 34.3316ZM635.051 31.8724C635.016 32.714 634.501 33.2413 633.756 33.5351C633.688 33.5596 633.62 33.5841 633.537 33.5987C631.212 34.1591 628.889 34.7317 626.561 35.2801C626.26 35.3583 625.949 35.3883 625.638 35.4183C625.591 35.4267 625.531 35.3748 625.401 35.3354C625.634 34.9826 625.9 34.6737 626.058 34.3093C626.229 33.8925 626.425 33.4214 626.386 32.9919C626.269 31.6411 625.21 30.9929 623.954 31.4143C622.846 31.7846 622.173 32.5518 622.233 33.4391C622.274 34.1798 622.478 34.8795 622.957 35.493C623.036 35.5789 623.084 35.6951 623.191 35.8631C622.839 35.9878 622.521 36.1062 622.199 36.2005C621.013 36.5472 619.827 36.8939 618.637 37.2164C618.3 37.3008 617.922 37.2429 617.583 37.3153C617.049 37.4471 616.537 37.6249 616.012 37.8049C613.675 38.6044 611.349 39.4019 609.011 40.2014C608.315 40.4366 607.595 40.3768 606.88 40.2165C606.613 40.1639 606.526 39.9797 606.543 39.7025C606.605 38.694 606.033 38.2838 605.15 38.6768C605.061 38.7175 604.969 38.7462 604.877 38.7749C604.844 38.7309 604.82 38.6728 604.786 38.6288C605.021 38.4627 605.241 38.2867 605.48 38.1446C605.966 37.8344 606.175 37.4857 606.043 37.1351C605.894 36.7625 605.411 36.6108 604.856 36.7588C604.752 36.7895 604.651 36.8323 604.555 36.8369C604.373 36.8441 604.038 36.8783 604.017 36.8322C603.944 36.5957 603.899 36.3168 603.966 36.1056C604.017 35.9346 604.232 35.7967 604.406 35.6912C605.04 35.3298 605.678 34.9926 606.312 34.6312C606.573 34.473 606.826 34.2786 607.067 34.0864C607.339 33.8638 607.365 33.5725 607.204 33.2642C607.048 32.98 606.8 32.8369 606.487 32.9172C606.061 33.0423 605.64 33.1915 605.231 33.3386C605.083 33.3897 604.954 33.4748 604.81 33.55C604.638 33.0068 604.794 32.6926 605.285 32.4687C606.135 32.094 607 31.7292 607.851 31.3545C608.053 31.2689 608.25 31.1592 608.447 31.0496C608.757 30.8951 608.885 30.6232 608.769 30.2945C608.651 29.9539 608.38 29.7648 608.02 29.8533C607.427 29.9955 606.853 30.1718 606.265 30.338C606.126 30.375 605.975 30.4141 605.834 30.4391C605.798 30.3831 605.762 30.3271 605.727 30.271C605.984 30.0385 606.217 29.7479 606.513 29.5834C607.358 29.1224 608.228 28.7194 609.106 28.3024C609.705 28.0095 610.321 27.7387 610.129 26.8C610.361 26.8588 610.512 26.882 610.658 26.9434C611.906 27.496 613.145 27.651 614.478 27.428C615.917 27.1862 617.179 26.6764 618.352 25.8459C618.947 25.4165 619.65 25.1551 620.32 24.8498C620.486 24.7704 620.691 24.7592 620.885 24.7499C621.766 24.7064 621.888 24.8221 622.029 25.6948C622.094 26.0699 622.184 26.4529 622.34 26.7994C622.741 27.6886 623.568 28.1534 624.504 28.0754C625.654 27.9719 626.27 27.5263 626.441 26.4489C626.558 25.7674 626.457 25.037 626.473 24.3361C626.478 24.0609 626.449 23.7418 626.56 23.5102C626.824 22.9523 627.175 22.8779 627.65 23.2927C628.841 24.3417 629.998 25.4089 631.167 26.4741C632.155 27.3717 633.174 28.239 634.102 29.1973C634.816 29.944 635.095 30.8921 635.051 31.8724Z" fill="#E1E8E5"/>
<path d="M598.578 27.5299C598.198 27.6533 597.985 27.9167 597.928 28.3123C597.898 28.5246 597.898 28.7502 597.923 28.9621C598.05 30.1245 598.922 30.8356 599.95 30.6445C600.607 30.5284 600.939 30.2158 601.027 29.6549C601.257 28.1662 599.992 27.0638 598.578 27.5299ZM599.732 29.6205C599.428 29.6647 599.177 29.4739 599.128 29.144C599.078 28.852 599.21 28.6407 599.451 28.6074C599.737 28.5663 600.001 28.7737 600.057 29.0929C600.116 29.3833 599.991 29.584 599.732 29.6205Z" fill="#E1E8E5"/>
<path d="M602.221 23.7189C601.253 24.2472 601.168 25.8979 602.087 26.572C602.627 26.9653 603.209 27.0223 603.792 26.769C604.24 26.577 604.453 26.182 604.472 25.6899C604.48 25.5006 604.439 25.301 604.43 25.1239C604.381 24.9259 604.344 24.7445 604.28 24.5677C604 23.8276 602.874 23.3592 602.221 23.7189ZM603.602 25.1669C603.655 25.4678 603.691 25.781 603.359 25.8678C603.15 25.9236 602.887 25.8949 602.687 25.8174C602.628 25.7996 602.663 25.4739 602.661 25.2862C602.659 25.2302 602.683 25.1695 602.701 25.1194C602.766 24.901 602.791 24.6147 603.12 24.6506C603.412 24.6836 603.572 24.8809 603.602 25.1669Z" fill="#E1E8E5"/>
<path d="M604.333 17.9164C604.933 18.1493 605.818 17.6635 605.976 17.0427C606.121 16.4902 605.957 16.0017 605.567 15.5812C605.201 15.1848 604.755 15.1602 604.277 15.301C603.293 15.3903 603.233 16.1818 603.53 16.9574C603.695 17.3611 603.914 17.7553 604.333 17.9164ZM604.693 16.3003C604.814 16.3071 604.931 16.4277 605.111 16.5463C604.995 16.6985 604.89 16.8583 604.879 16.8508C604.732 16.7638 604.609 16.6539 604.476 16.5456C604.552 16.4663 604.627 16.2931 604.693 16.3003Z" fill="#E1E8E5"/>
<path d="M1305.92 441.509C1306.18 443.414 1305.84 445.228 1304.36 446.767C1303.38 447.772 1302.25 448.367 1300.81 448.275C1299.92 448.23 1299 448.169 1298.12 448.23C1293.94 448.489 1291.2 444.694 1291.75 440.945C1291.88 440.001 1292.19 439.071 1292.49 438.172C1292.66 437.654 1292.64 437.242 1292.19 436.877C1291.36 436.206 1290.55 435.475 1289.67 434.896C1287.88 433.722 1286.02 432.64 1284.19 431.497C1283.68 431.177 1283.19 431.04 1282.69 431.421C1279.71 433.707 1276.37 433.57 1272.9 432.899C1270.42 432.427 1268.12 431.68 1266.32 429.821C1265.97 429.455 1265.64 429.059 1265.33 428.648C1265.01 428.206 1264.62 428.084 1264.13 428.267C1261.14 429.333 1258.14 430.431 1255.15 431.497C1254.46 431.741 1254.08 432.198 1254.01 432.96C1253.73 435.657 1252.4 437.913 1250.66 439.924C1250.22 440.458 1249.4 440.839 1248.68 440.961C1247.12 441.22 1245.56 440.961 1244.09 440.336C1240.84 438.949 1239.31 435.779 1240.3 432.305C1240.93 430.08 1242.08 428.145 1244.32 427.2C1247.06 426.042 1249.63 426.545 1251.84 428.495C1252.49 429.059 1253.05 429.166 1253.85 428.861C1256.92 427.688 1260 426.56 1263.09 425.463C1263.76 425.219 1263.97 424.884 1263.8 424.213C1263.65 423.603 1263.55 422.963 1263.45 422.354C1263.26 421.226 1263.34 420.129 1263.85 419.093C1266.14 414.323 1269.74 411.321 1275.21 410.742C1275.44 410.711 1275.65 410.635 1275.89 410.62C1276.63 410.559 1276.88 410.163 1276.88 409.446C1276.88 406.932 1276.91 404.433 1276.94 401.918C1276.94 401.324 1276.81 400.791 1276.15 400.73C1273.43 400.456 1272.31 398.52 1271.68 396.311C1271.1 394.299 1271.29 392.242 1272.23 390.306C1273.16 388.325 1274.8 387.396 1276.91 387.152C1276.94 387.152 1276.95 387.152 1276.98 387.152C1278.59 386.984 1280.23 386.71 1281.63 387.899C1283.45 389.499 1284.86 391.327 1285.34 393.781C1285.62 395.183 1285.37 396.539 1285.06 397.834C1284.66 399.48 1283.31 400.318 1281.66 400.654C1280.68 400.852 1280.54 400.974 1280.59 401.949C1280.7 404.479 1280.79 407.008 1280.9 409.553C1280.95 410.65 1281.08 410.696 1282.21 410.727C1283.24 410.757 1284.29 410.803 1285.26 411.062C1286.86 411.473 1287.66 412.616 1288 414.216C1288.87 418.346 1288.59 422.323 1286.73 426.148C1286.52 426.606 1286.64 426.971 1287.01 427.291C1288.56 428.632 1290.07 430.004 1291.65 431.299C1292.15 431.711 1292.78 431.985 1293.35 432.335C1293.9 432.671 1294.5 432.96 1294.93 433.387C1295.86 434.332 1296.94 434.682 1298.28 434.621C1300.27 434.545 1302.16 434.972 1303.8 436.191C1305.16 437.197 1306.06 438.477 1305.93 440.26C1305.89 440.641 1305.92 441.022 1305.92 441.509ZM1269.77 424.914C1269.84 424.96 1269.9 425.005 1269.96 425.036C1270.07 424.975 1270.18 424.929 1270.27 424.853C1270.86 424.289 1271.41 423.695 1272.03 423.146C1272.87 422.4 1273.78 421.821 1274.97 421.821C1275.62 421.821 1276.24 421.912 1276.5 422.582C1276.78 423.299 1276.41 423.741 1275.89 424.274C1274.73 425.478 1273.69 426.804 1272.65 428.099C1272.54 428.236 1272.67 428.541 1272.68 428.754C1272.88 428.678 1273.13 428.663 1273.27 428.541C1273.58 428.236 1273.81 427.87 1274.11 427.55C1274.73 426.895 1275.42 426.407 1276.38 426.468C1277.11 426.514 1277.37 426.987 1277.03 427.611C1276.81 428.008 1276.58 428.373 1276.27 428.891C1276.74 428.937 1277.05 429.013 1277.36 428.998C1278.87 428.876 1280.02 428.099 1280.91 426.956C1282.83 424.518 1283.85 421.76 1283.92 418.666C1283.96 416.807 1283.16 415.694 1281.3 415.253C1279.46 414.811 1277.59 414.78 1275.73 415.237C1274.42 415.557 1273.18 416.045 1272.47 417.31C1271.89 418.331 1271.99 418.437 1273.02 418.818C1273.47 418.986 1273.94 419.398 1274.17 419.824C1274.45 420.327 1273.89 420.601 1273.56 420.906C1272.47 421.942 1271.37 422.963 1270.3 424.03C1270.07 424.289 1269.94 424.624 1269.77 424.914ZM1299.39 438.02C1298.71 438.172 1298.2 438.187 1297.78 438.416C1297.44 438.599 1296.98 439.025 1296.99 439.315C1297.1 440.976 1297.18 442.667 1298.43 443.993C1298.91 444.496 1299.44 444.603 1300.01 444.252C1301.12 443.582 1302.04 442.713 1302.61 441.524C1303.13 440.427 1302.86 439.345 1301.76 438.812C1300.98 438.431 1300.09 438.248 1299.39 438.02ZM1276.5 395.67C1276.46 396.463 1276.72 396.981 1277.31 397.316C1278.02 397.712 1278.76 397.819 1279.51 397.362C1280.56 396.707 1281.16 395.731 1281.47 394.558C1281.89 392.958 1280.79 391.602 1279.12 391.693C1278.84 391.708 1278.49 391.83 1278.3 392.013C1277.28 393.08 1276.66 394.329 1276.5 395.67ZM1246.84 433.661C1246.83 433.661 1246.81 433.661 1246.8 433.661C1246.8 434.164 1246.81 434.682 1246.8 435.185C1246.75 435.962 1247.14 436.526 1247.66 437.044C1248.08 437.456 1248.45 437.456 1248.85 437.029C1250.31 435.536 1250.85 433.753 1250.56 431.726C1250.46 431.055 1249.98 430.583 1249.33 430.385C1248.9 430.248 1247.04 431.132 1246.94 431.467C1246.87 431.634 1246.86 431.817 1246.86 431.985C1246.84 432.549 1246.84 433.097 1246.84 433.661Z" fill="#E1E8E5"/>
<path d="M1215.56 183.026C1217.47 185.859 1217.55 187.56 1215.78 188.652C1214.08 189.759 1212.62 189.023 1210.64 186.068C1210.18 185.337 1209.61 184.617 1209.14 183.886C1208.14 182.302 1206.8 182.96 1205.73 183.677C1205.21 184.055 1204.93 185.188 1204.97 185.898C1205.09 187.292 1205.91 188.766 1205.71 190.128C1205.54 191.249 1204.44 192.835 1203.5 193.019C1202.63 193.217 1201.33 191.989 1200.42 191.196C1200.03 190.867 1200.07 189.998 1199.95 189.34C1199.36 186.652 1198.57 184.376 1195.09 184.152C1193.15 184.049 1191.66 182.71 1192.31 180.5C1192.95 178.183 1194.75 178.711 1196.7 178.747C1199.55 178.799 1202.76 178.791 1205.3 177.619C1209.99 175.51 1214.48 172.794 1218.65 169.765C1220.7 168.276 1222.05 165.691 1223.43 163.428C1224.28 161.998 1225.14 160.956 1226.86 161.362C1228.56 161.728 1229.27 163.039 1228.94 164.653C1228.61 166.159 1229.33 166.841 1230.45 167.504C1231.92 168.348 1233.39 169.191 1234.74 170.219C1236.12 171.289 1236.54 172.782 1235.36 174.246C1234.14 175.736 1232.65 175.522 1231.22 174.545C1230.37 173.941 1229.42 173.455 1228.55 172.917C1225.46 171.094 1224.68 171.24 1222.63 174.201C1222.31 174.623 1222.58 175.699 1222.91 176.227C1223.73 177.42 1224.89 178.338 1225.75 179.505C1226.77 180.848 1226.76 182.495 1225.25 183.257C1224.27 183.747 1222.57 183.556 1221.57 182.989C1220.29 182.256 1219.33 180.927 1218.41 179.745C1217.31 178.387 1216.22 178.327 1214.85 179.399C1213.36 180.55 1214.62 181.349 1215.08 182.255C1215.16 182.484 1215.38 182.742 1215.56 183.026Z" fill="#E1E8E5"/>
<path d="M11.8921 56.7434C11.7507 56.4529 11.3971 56.4529 11.3264 56.7434C10.407 58.9944 9.77049 60.7371 8.85112 62.3346C8.63896 62.7703 8.00247 62.9881 7.4367 63.2059C7.08309 63.3512 6.58805 63.1333 6.4466 62.7703C6.23444 62.1894 6.02228 61.6085 6.16372 61.0276C6.51733 59.5027 7.01237 57.9778 7.79031 56.6708C10.6899 51.8057 9.62905 47.1585 7.15382 42.003C7.01237 41.7851 6.72949 41.7125 6.58805 42.003C6.16372 42.7291 5.73939 43.2374 5.52723 43.8909C4.60786 45.9967 3.75921 48.1025 2.69839 50.1356C2.48623 50.5713 1.92046 50.7165 1.42541 50.9344C1.07181 51.0796 0.718202 50.9344 0.506039 50.5713C0.223154 49.9904 -0.0597297 49.4821 0.0109913 49.0464C1.49613 44.3266 3.052 39.6794 4.67858 35.0321C5.38579 33.0716 6.80021 32.5633 8.63896 33.362C12.5286 35.1048 16.4183 36.7749 20.2372 38.5902C20.7323 38.808 21.0151 39.5341 21.298 40.1877C21.4395 40.5507 21.298 40.9138 21.0151 41.059C20.5201 41.3495 19.9543 41.6399 19.53 41.5673C17.6205 41.059 15.7818 40.2603 13.8723 39.5341C12.5286 39.0259 11.2556 38.2997 9.91194 37.7188C9.62905 37.5736 9.34617 37.8641 9.48761 38.1545C10.8313 41.8578 12.0336 45.6336 13.5187 49.2643C13.8016 49.9178 15.0039 50.3535 15.8525 50.5713C17.5498 50.9344 19.3886 50.9344 21.0859 51.4427C21.7223 51.5879 22.2174 52.1688 22.7832 52.6771C23.1368 52.9675 23.066 53.5484 22.6417 53.7663C22.076 54.1293 21.5102 54.4924 20.8737 54.4924C19.3178 54.565 17.762 54.3472 16.2061 54.2019C15.9232 54.2019 15.7111 54.4198 15.6403 54.7102C15.3575 60.4467 17.762 64.6582 22.4296 66.9818C23.9854 67.7805 25.6827 68.4341 27.1679 69.378C27.5922 69.5959 27.7336 70.1768 27.9458 70.7577C28.0872 71.1207 27.9458 71.4838 27.5922 71.629C27.0264 71.9195 26.4607 72.2099 26.0363 72.0647C24.1976 71.4838 22.4296 70.6851 19.8129 69.6685C19.6007 69.5959 19.3178 69.8137 19.3886 70.0315C20.4494 73.3717 21.3687 75.9858 21.9345 78.6725C22.076 79.3986 21.7931 80.1247 21.5809 80.9235C21.4395 81.4318 20.803 81.577 20.4494 81.2865C19.8836 80.8509 19.3178 80.3426 19.1057 79.7617C18.1156 77.2928 17.3376 74.7514 16.2768 71.5564C16.2061 71.266 15.8525 71.266 15.7111 71.4838C14.5088 73.6622 13.7309 75.2597 12.7408 76.5667C12.4579 77.0024 11.68 77.075 10.9728 77.2202C10.6191 77.2928 10.3363 77.075 10.2655 76.7845C10.1241 76.2036 9.98266 75.6227 10.1241 75.1144C10.6191 73.6622 11.2556 72.1373 12.175 70.9029C15.7818 66.3283 14.0138 61.8989 11.8921 56.7434Z" fill="#E1E8E5"/>
</svg>
