<svg width="1440" height="624" viewBox="0 0 1440 624" fill="none" xmlns="http://www.w3.org/2000/svg">
<path d="M1083.42 446.544C1082.71 447.506 1082.18 448.753 1081.76 449.852C1081.52 450.479 1080.85 451.799 1080.85 451.799C1080.85 451.799 1080.24 453.298 1079.73 454.2C1079.31 454.94 1078.95 455.282 1078.54 456.025C1077.94 457.097 1077.72 457.759 1077.29 458.908C1076.97 459.747 1076.9 460.256 1076.56 461.084C1076.19 461.97 1075.9 462.425 1075.46 463.276C1075.05 464.06 1074.81 464.493 1074.39 465.272C1074.18 465.663 1074.07 465.951 1073.85 466.272C1073.69 466.51 1073.45 466.807 1073.34 467.085C1073.12 467.683 1070.71 467.027 1070.23 466.782C1069.28 466.289 1068.26 466.003 1067.3 465.539C1066.79 465.297 1066.24 465.175 1065.74 464.917C1065.41 464.747 1065.05 464.634 1064.71 464.484C1064.33 464.314 1064.11 464.07 1063.69 463.861C1063.03 463.535 1062.47 463.46 1061.9 463.258C1061.31 463.048 1060.88 462.697 1060.2 462.379C1059.07 461.848 1058.16 461.404 1057.23 461.206C1056.78 461.112 1055.86 460.344 1055.5 460.459" stroke="#E3E9EB" stroke-width="2" stroke-linecap="round" stroke-linejoin="round"/>
<path d="M1083.13 446.754C1082.02 447.109 1081.28 448.056 1080.18 448.408C1079.13 448.747 1078.07 449.085 1077.01 449.424C1075.93 449.772 1074.97 450.247 1073.95 450.753C1073.48 450.991 1072.96 451.099 1072.49 451.373C1071.9 451.726 1071.44 452.039 1070.77 452.255C1069.14 452.778 1067.55 453.541 1066.11 454.483C1065.31 455.009 1064.41 455.384 1063.62 455.908C1062.97 456.328 1062.2 456.497 1061.56 456.954C1060.52 457.697 1059.14 458.021 1058.16 458.805C1057.79 459.105 1057.16 459.27 1056.73 459.482C1056.36 459.661 1056.13 459.904 1055.72 460.034" stroke="#E3E9EB" stroke-width="2" stroke-linecap="round" stroke-linejoin="round"/>
<path d="M1083.28 446.471C1082.2 446.814 1081.06 447.062 1080.03 447.395C1078.57 447.863 1077.04 447.998 1075.58 448.467C1072.24 449.539 1068.85 450.506 1065.49 451.584C1062.98 452.391 1060.46 453.197 1057.95 454.003C1055.21 454.883 1052.59 455.957 1049.85 456.837" stroke="#E3E9EB" stroke-width="2" stroke-linecap="round" stroke-linejoin="round"/>
<path d="M1082.95 446.574C1080.66 447.311 1078.49 447.28 1076.12 447.179C1075.37 447.147 1074.24 447.359 1073.52 447.59C1072.71 447.85 1071.77 447.679 1070.96 447.94C1068.91 448.597 1066.78 448.808 1064.74 449.463C1063.26 449.938 1061.65 449.919 1060.11 450.122C1057.48 450.467 1054.74 450.693 1052.18 451.364C1051.48 451.547 1050.88 451.46 1050.06 451.573C1049.37 451.667 1048.31 451.87 1048.31 451.87C1048.31 451.87 1047.39 451.987 1047 452.08L1043.35 452.6C1042.93 452.638 1042.62 452.766 1042.28 452.742C1041.62 452.696 1040.96 453.017 1040.31 453.038C1039.75 453.056 1039.14 453.015 1038.58 453.008" stroke="#E3E9EB" stroke-width="2" stroke-linecap="round" stroke-linejoin="round"/>
<path d="M1049.57 457.047C1048.63 456.989 1046.49 455.958 1046.49 455.958C1046.49 455.958 1045.37 455.514 1044.85 455.25C1044.51 455.073 1043.97 454.862 1043.61 454.823C1043.17 454.775 1042.32 454.521 1042.32 454.521C1042.32 454.521 1041.35 454.338 1041.18 454.184C1040.65 453.71 1039.35 453.337 1038.68 453.33" stroke="#E3E9EB" stroke-width="2" stroke-linecap="round" stroke-linejoin="round"/>
<path d="M1054.65 473.258C1055.62 472.539 1056.34 471.562 1057.22 470.779C1057.95 470.131 1058.63 469.142 1059.49 468.641C1059.88 468.41 1060.11 467.83 1060.57 467.583C1061.04 467.337 1061.45 466.9 1061.83 466.556C1062.25 466.179 1062.88 465.909 1063.19 465.439C1063.38 465.149 1064.06 464.755 1064.11 464.435" stroke="#E3E9EB" stroke-width="2" stroke-linecap="round" stroke-linejoin="round"/>
<path d="M1054.54 473.293C1054.36 471.799 1053.7 470.299 1053.24 468.866C1052.81 467.531 1052.49 466.17 1052.06 464.82C1051.29 462.419 1050.86 459.96 1050.09 457.586" stroke="#E3E9EB" stroke-width="2" stroke-linecap="round" stroke-linejoin="round"/>
<path d="M1055.5 460.459C1055.35 461.443 1055.09 462.465 1054.96 463.469C1054.81 464.586 1054.92 465.74 1054.8 466.828C1054.76 467.265 1054.78 467.681 1054.78 468.227C1054.78 468.789 1054.8 469.666 1054.8 469.666L1055.05 472.682" stroke="#E3E9EB" stroke-width="2" stroke-linecap="round" stroke-linejoin="round"/>
<path d="M1062.54 465.607C1061.99 465.582 1061.77 465.173 1061.29 464.999C1061.12 464.935 1060.84 464.832 1060.71 464.698" stroke="#E3E9EB" stroke-width="2" stroke-linecap="round" stroke-linejoin="round"/>
<path d="M1060.81 466.908C1060.5 466.547 1060.01 466.361 1059.62 466.092C1059.47 465.987 1059.33 465.868 1059.17 465.783C1059.07 465.736 1058.92 465.714 1058.84 465.642C1058.6 465.414 1058.32 465.243 1058.1 465.016" stroke="#E3E9EB" stroke-width="2" stroke-linecap="round" stroke-linejoin="round"/>
<path d="M1059.28 468.057C1059.02 467.731 1058.5 467.562 1058.16 467.325C1058.07 467.267 1057.72 466.977 1057.71 467.034" stroke="#E3E9EB" stroke-width="2" stroke-linecap="round" stroke-linejoin="round"/>
<path d="M1057.97 469.383C1057.89 469.299 1057.19 468.605 1057.11 468.753" stroke="#E3E9EB" stroke-width="2" stroke-linecap="round" stroke-linejoin="round"/>
<path d="M1056.79 470.71C1056.62 470.588 1056.46 470.463 1056.3 470.332" stroke="#E3E9EB" stroke-width="2" stroke-linecap="round" stroke-linejoin="round"/>
<path d="M1425.6 582.27C1425.55 582.008 1425.3 581.784 1425.1 581.564C1424.84 581.274 1424.55 581.001 1424.25 580.755C1421.56 578.53 1418.87 576.307 1416.17 574.085C1414.73 572.898 1413.27 571.702 1411.79 570.546C1411.03 569.944 1410.19 569.439 1409.45 568.808C1409.14 568.529 1408.88 568.083 1408.83 567.677C1408.65 566.263 1408.58 564.828 1408.45 563.404C1408.41 562.984 1408.61 562.692 1409.03 562.509C1409.21 562.436 1409.38 562.365 1409.57 562.291C1411.04 561.687 1411.85 560.567 1411.71 559.122C1411.59 558.005 1411.09 557.075 1409.58 557.245C1409.09 557.3 1408.57 557.372 1408.09 557.496C1406.77 557.818 1405.46 558.185 1404.16 558.503C1403.04 558.783 1401.93 559.014 1400.82 559.316C1399.79 559.589 1398.77 559.92 1397.75 560.227C1397.75 560.216 1397.75 560.204 1397.75 560.193C1397.2 560.307 1396.66 560.395 1396.11 560.544C1395.56 560.695 1395 560.87 1394.47 561.076C1393.8 561.323 1393.31 561.734 1393.24 562.462C1393.1 563.823 1394 564.92 1395.42 565.064C1395.96 565.119 1396.52 565.134 1397.06 565.152C1397.38 565.156 1397.58 565.281 1397.62 565.595C1397.83 567.073 1398.07 568.558 1398.27 570.038C1398.37 570.779 1398.34 571.534 1398.02 572.267C1397.32 573.912 1396.63 575.542 1395.55 577.049C1394.81 578.107 1394.2 579.233 1393.59 580.348C1392.53 582.258 1391.52 584.203 1390.45 586.114C1389.46 587.879 1388.87 589.701 1388.62 591.62C1388.44 593.109 1388.86 594.342 1389.79 595.445C1390.48 596.277 1391.38 596.696 1392.54 596.621C1394.82 596.468 1397.08 596.214 1399.29 595.35C1400.83 594.744 1402.46 594.381 1404.05 593.919C1406.82 593.131 1409.57 592.345 1412.34 591.579C1414.09 591.096 1415.85 590.647 1417.62 590.232C1418.41 590.043 1419.24 589.872 1420.05 589.847C1421.88 589.775 1423.4 589.066 1424.74 587.86C1425.42 587.244 1426.17 586.517 1426.15 585.64C1426.12 584.516 1425.82 583.39 1425.6 582.27ZM1397.04 579.273C1397.71 578.243 1398.38 577.224 1399.08 576.209C1399.2 576.042 1399.47 575.927 1399.69 575.857C1400.03 575.738 1400.17 575.578 1400.2 575.228C1400.22 574.855 1400.34 574.485 1400.41 574.113C1400.42 574.027 1400.44 573.929 1400.41 573.851C1400.19 573.304 1400.48 572.922 1400.92 572.567C1401.15 572.389 1401.39 572.222 1401.57 572.016C1401.89 571.664 1401.84 571.402 1401.45 571.186C1401.38 571.153 1401.31 571.12 1401.25 571.084C1401.01 570.967 1400.65 570.959 1400.68 570.572C1400.73 570.182 1400.89 569.85 1401.27 569.64C1401.49 569.524 1401.71 569.431 1401.91 569.307C1402.27 569.088 1402.39 568.766 1402.25 568.415C1402.1 568.076 1401.81 567.972 1401.41 568.078C1401.3 568.113 1401.2 568.145 1401.09 568.168C1400.8 568.251 1400.55 568.245 1400.44 567.947C1400.33 567.66 1400.41 567.441 1400.72 567.27C1401.09 567.074 1401.46 566.878 1401.81 566.674C1402.17 566.469 1402.46 566.194 1402.27 565.794C1402.1 565.413 1401.72 565.468 1401.34 565.572C1401.09 565.635 1400.84 565.71 1400.59 565.762C1400.32 565.819 1400.18 565.692 1400.18 565.431C1400.19 564.883 1400.58 564.386 1401.15 564.29C1401.68 564.204 1402.21 564.19 1402.74 564.127C1402.98 564.1 1403.24 564.034 1403.47 563.939C1403.7 563.844 1403.92 563.691 1404.13 563.563C1404.97 563.056 1405.1 562.637 1404.6 561.896C1404.5 561.739 1404.21 561.632 1403.99 561.63C1403.66 561.64 1403.3 561.738 1402.97 561.831C1402.48 561.955 1402.03 562.158 1401.55 562.233C1399.98 562.488 1398.44 563.08 1396.84 563.177C1396.26 563.213 1395.87 563.115 1395.45 562.643C1395.74 562.512 1395.97 562.37 1396.21 562.295C1396.66 562.179 1397.11 562.109 1397.56 562.004C1399.46 561.584 1401.37 561.152 1403.28 560.732C1403.4 560.706 1403.52 560.669 1403.65 560.631C1404.3 560.413 1404.93 560.269 1405.63 560.219C1406.5 560.158 1407.37 559.87 1408.23 559.668C1408.44 559.624 1408.65 559.557 1409 559.458C1408.88 559.674 1408.85 559.8 1408.77 559.864C1408.11 560.429 1407.45 561.018 1406.76 561.554C1406.32 561.895 1406.06 562.282 1406.11 562.795C1406.32 564.81 1406.54 566.822 1406.75 568.834C1406.77 568.998 1406.82 569.155 1406.83 569.307C1406.87 570.285 1407.22 571.056 1408.18 571.523C1408.56 571.706 1408.83 572.066 1409.1 572.391C1409.74 573.16 1410.55 573.741 1411.54 574.096C1411.76 574.182 1412.01 574.176 1412.25 574.233C1412.51 574.299 1412.8 574.357 1413 574.494C1413.43 574.785 1413.79 575.137 1414.2 575.457C1414.44 575.634 1414.46 575.773 1414.17 575.964C1413.63 576.314 1413.1 576.684 1412.58 577.043C1412.17 577.33 1411.71 577.426 1411.28 577.302C1409.51 576.788 1407.88 577.306 1406.3 578.205C1405.68 578.561 1405.08 578.959 1404.46 579.312C1402.96 580.195 1401.39 580.439 1399.77 580.049C1398.93 579.844 1398.12 579.513 1397.2 579.622C1396.92 579.667 1396.93 579.452 1397.04 579.273ZM1413.96 579.349C1413.95 579.506 1413.91 579.669 1413.88 579.829C1413.74 580.536 1413.51 580.809 1412.99 580.847C1412.38 580.89 1411.97 580.583 1411.87 579.963C1411.78 579.458 1411.86 579.334 1412.41 579.208C1412.77 579.121 1413.11 579.014 1413.47 578.927C1413.82 578.855 1414 579.008 1413.96 579.349ZM1412.41 588.198C1412.18 588.376 1411.76 588.037 1411.7 587.668C1411.62 587.114 1412.02 586.471 1412.59 586.234C1413.03 586.06 1413.51 586.375 1413.45 586.816C1413.37 587.429 1412.9 587.835 1412.41 588.198ZM1423.77 585.291C1423.67 586.108 1423.1 586.643 1422.3 586.964C1422.22 586.992 1422.15 587.019 1422.06 587.037C1419.59 587.694 1417.11 588.363 1414.64 589.008C1414.32 589.099 1413.99 589.143 1413.66 589.188C1413.61 589.198 1413.55 589.151 1413.42 589.119C1413.69 588.766 1413.99 588.454 1414.18 588.093C1414.38 587.681 1414.62 587.216 1414.61 586.802C1414.58 585.5 1413.51 584.925 1412.17 585.395C1410.98 585.808 1410.22 586.584 1410.23 587.439C1410.22 588.154 1410.39 588.822 1410.85 589.392C1410.92 589.471 1410.96 589.581 1411.07 589.739C1410.69 589.877 1410.35 590.007 1410 590.114C1408.74 590.508 1407.47 590.902 1406.2 591.273C1405.84 591.371 1405.45 591.334 1405.09 591.421C1404.52 591.575 1403.97 591.772 1403.41 591.972C1400.91 592.861 1398.41 593.748 1395.91 594.637C1395.16 594.899 1394.41 594.876 1393.67 594.757C1393.4 594.719 1393.32 594.545 1393.36 594.276C1393.49 593.296 1392.92 592.927 1391.97 593.351C1391.87 593.395 1391.77 593.427 1391.67 593.46C1391.64 593.419 1391.62 593.364 1391.59 593.323C1391.84 593.151 1392.09 592.969 1392.35 592.82C1392.88 592.496 1393.12 592.148 1393.01 591.815C1392.87 591.462 1392.38 591.339 1391.79 591.509C1391.68 591.544 1391.57 591.591 1391.47 591.6C1391.28 591.616 1390.92 591.665 1390.9 591.622C1390.84 591.396 1390.82 591.129 1390.9 590.921C1390.96 590.753 1391.2 590.609 1391.39 590.498C1392.08 590.117 1392.77 589.759 1393.46 589.378C1393.74 589.212 1394.02 589.011 1394.29 588.813C1394.59 588.585 1394.63 588.301 1394.49 588.011C1394.34 587.743 1394.09 587.617 1393.76 587.71C1393.3 587.852 1392.85 588.018 1392.41 588.18C1392.25 588.237 1392.11 588.326 1391.96 588.405C1391.81 587.888 1392 587.576 1392.53 587.335C1393.45 586.931 1394.38 586.535 1395.29 586.13C1395.51 586.038 1395.72 585.922 1395.94 585.806C1396.27 585.641 1396.43 585.372 1396.33 585.059C1396.23 584.735 1395.96 584.566 1395.57 584.669C1394.94 584.836 1394.33 585.035 1393.7 585.225C1393.55 585.267 1393.39 585.313 1393.24 585.344C1393.21 585.291 1393.17 585.239 1393.14 585.186C1393.43 584.949 1393.69 584.656 1394.01 584.482C1394.93 583.994 1395.87 583.561 1396.82 583.114C1397.46 582.801 1398.13 582.509 1397.99 581.61C1398.23 581.655 1398.39 581.67 1398.53 581.722C1399.8 582.196 1401.09 582.285 1402.51 582.003C1404.03 581.698 1405.39 581.142 1406.67 580.281C1407.33 579.836 1408.08 579.548 1408.8 579.22C1408.98 579.134 1409.2 579.113 1409.4 579.095C1410.33 579.009 1410.45 579.115 1410.54 579.953C1410.58 580.313 1410.65 580.679 1410.79 581.007C1411.15 581.848 1411.98 582.257 1412.97 582.136C1414.18 581.979 1414.86 581.517 1415.11 580.466C1415.28 579.8 1415.22 579.098 1415.29 578.419C1415.31 578.152 1415.3 577.845 1415.43 577.615C1415.75 577.062 1416.12 576.973 1416.59 577.351C1417.77 578.308 1418.91 579.284 1420.06 580.257C1421.04 581.077 1422.05 581.867 1422.95 582.749C1423.65 583.436 1423.88 584.34 1423.77 585.291Z" fill="#E3E9EB"/>
<path d="M1387.18 582.267C1386.77 582.405 1386.53 582.671 1386.44 583.058C1386.4 583.265 1386.38 583.484 1386.39 583.688C1386.45 584.809 1387.31 585.455 1388.41 585.219C1389.11 585.074 1389.47 584.755 1389.61 584.206C1389.95 582.752 1388.69 581.745 1387.18 582.267ZM1388.25 584.237C1387.93 584.295 1387.67 584.122 1387.65 583.805C1387.61 583.524 1387.77 583.313 1388.02 583.269C1388.32 583.215 1388.59 583.403 1388.62 583.709C1388.67 583.988 1388.52 584.189 1388.25 584.237Z" fill="#E3E9EB"/>
<path d="M1390.83 578.446C1389.78 579.007 1389.57 580.613 1390.5 581.222C1391.04 581.577 1391.65 581.603 1392.28 581.328C1392.76 581.119 1393.01 580.725 1393.07 580.247C1393.09 580.063 1393.06 579.871 1393.06 579.7C1393.02 579.51 1393 579.336 1392.94 579.167C1392.7 578.463 1391.54 578.064 1390.83 578.446ZM1392.19 579.782C1392.22 580.072 1392.24 580.374 1391.88 580.475C1391.66 580.539 1391.38 580.525 1391.18 580.459C1391.12 580.445 1391.18 580.127 1391.19 579.945C1391.19 579.891 1391.22 579.831 1391.24 579.781C1391.32 579.566 1391.37 579.287 1391.71 579.305C1392.02 579.323 1392.17 579.506 1392.19 579.782Z" fill="#E3E9EB"/>
<path d="M1392.77 572.542C1393.38 572.738 1394.34 572.223 1394.55 571.614C1394.74 571.072 1394.6 570.606 1394.22 570.218C1393.86 569.852 1393.4 569.85 1392.89 570.01C1391.85 570.145 1391.73 570.915 1391.99 571.652C1392.14 572.035 1392.34 572.406 1392.77 572.542ZM1393.25 570.958C1393.38 570.959 1393.49 571.07 1393.68 571.176C1393.54 571.329 1393.42 571.489 1393.41 571.482C1393.26 571.405 1393.14 571.305 1393.01 571.206C1393.09 571.126 1393.19 570.954 1393.25 570.958Z" fill="#E3E9EB"/>
<path d="M253.65 534.908C252.461 536.42 250.918 537.432 248.779 537.431C247.379 537.426 246.167 537.025 245.235 535.925C244.645 535.247 244.056 534.548 243.4 533.955C240.315 531.126 241.147 526.521 244.223 524.31C245 523.755 245.884 523.333 246.736 522.921C247.227 522.684 247.512 522.387 247.464 521.81C247.368 520.743 247.336 519.656 247.141 518.619C246.741 516.513 246.232 514.425 245.789 512.317C245.665 511.727 245.42 511.276 244.802 511.183C241.084 510.619 238.864 508.116 236.942 505.155C235.565 503.044 234.503 500.866 234.597 498.284C234.613 497.773 234.673 497.265 234.755 496.756C234.848 496.216 234.667 495.852 234.192 495.623C231.352 494.212 228.479 492.812 225.639 491.401C224.98 491.069 224.394 491.118 223.791 491.591C221.655 493.262 219.108 493.869 216.457 494.016C215.761 494.063 214.918 493.737 214.337 493.309C213.066 492.363 212.168 491.058 211.598 489.566C210.343 486.263 211.563 482.961 214.752 481.264C216.794 480.177 218.983 479.659 221.22 480.619C223.954 481.788 225.374 483.987 225.504 486.934C225.549 487.793 225.858 488.268 226.636 488.636C229.607 490.028 232.555 491.463 235.492 492.931C236.129 493.241 236.521 493.164 236.886 492.576C237.218 492.042 237.614 491.531 237.978 491.03C238.661 490.114 239.505 489.409 240.606 489.057C245.63 487.397 250.293 487.911 254.499 491.443C254.682 491.589 254.887 491.692 255.059 491.849C255.619 492.341 256.076 492.245 256.591 491.748C258.402 490.003 260.224 488.292 262.056 486.569C262.484 486.157 262.782 485.698 262.365 485.176C260.673 483.025 261.294 480.88 262.445 478.89C263.496 477.082 265.107 475.789 267.155 475.126C269.226 474.42 271.034 474.956 272.669 476.302C272.691 476.325 272.701 476.336 272.723 476.358C273.96 477.401 275.295 478.392 275.405 480.219C275.52 482.644 275.18 484.927 273.746 486.975C272.929 488.148 271.781 488.91 270.633 489.586C269.169 490.438 267.631 490.05 266.241 489.091C265.422 488.526 265.238 488.51 264.567 489.22C262.821 491.053 261.063 492.875 259.306 494.719C258.548 495.514 258.611 495.646 259.373 496.48C260.06 497.237 260.757 498.026 261.247 498.908C262.056 500.341 261.791 501.714 260.875 503.069C258.502 506.558 255.444 509.117 251.401 510.434C250.922 510.595 250.744 510.938 250.771 511.427C250.879 513.472 250.943 515.515 251.106 517.551C251.153 518.193 251.395 518.84 251.54 519.495C251.674 520.118 251.884 520.753 251.878 521.362C251.841 522.686 252.34 523.709 253.308 524.625C254.747 526.01 255.75 527.665 256.01 529.692C256.23 531.37 255.931 532.905 254.561 534.053C254.254 534.284 254.001 534.57 253.65 534.908ZM240.525 497.364C240.535 497.44 240.545 497.517 240.566 497.582C240.685 497.618 240.793 497.664 240.912 497.678C241.726 497.711 242.541 497.699 243.365 497.765C244.483 497.848 245.533 498.104 246.36 498.962C246.81 499.43 247.174 499.939 246.874 500.594C246.551 501.291 245.975 501.331 245.226 501.322C243.554 501.321 241.88 501.494 240.228 501.646C240.054 501.664 239.92 501.964 239.777 502.123C239.972 502.215 240.154 502.383 240.339 502.399C240.773 502.41 241.197 502.324 241.632 502.313C242.533 502.304 243.367 502.468 243.989 503.201C244.461 503.756 244.303 504.273 243.617 504.462C243.181 504.581 242.757 504.667 242.169 504.804C242.458 505.17 242.618 505.446 242.844 505.658C243.983 506.665 245.338 506.951 246.783 506.804C249.87 506.494 252.565 505.316 254.836 503.214C256.207 501.958 256.45 500.607 255.48 498.963C254.521 497.33 253.244 495.961 251.627 494.941C250.484 494.216 249.274 493.662 247.869 494.027C246.737 494.323 246.724 494.464 247.169 495.475C247.36 495.915 247.385 496.534 247.239 496.998C247.07 497.547 246.486 497.336 246.041 497.314C244.533 497.241 243.035 497.159 241.526 497.13C241.179 497.142 240.851 497.286 240.525 497.364ZM251.633 527.785C251.051 527.4 250.686 527.043 250.231 526.901C249.863 526.783 249.234 526.744 249.036 526.956C247.915 528.187 246.751 529.416 246.665 531.238C246.636 531.933 246.924 532.386 247.574 532.555C248.83 532.892 250.089 532.947 251.342 532.534C252.497 532.152 253.083 531.201 252.705 530.04C252.442 529.218 251.952 528.445 251.633 527.785ZM266.255 481.923C265.652 482.439 265.462 482.988 265.628 483.644C265.836 484.431 266.275 485.04 267.119 485.258C268.321 485.561 269.442 485.319 270.502 484.728C271.944 483.919 272.159 482.187 270.934 481.046C270.729 480.856 270.395 480.685 270.134 480.678C268.658 480.683 267.328 481.104 266.255 481.923ZM218.316 486.918C218.305 486.907 218.295 486.896 218.284 486.885C217.922 487.234 217.559 487.604 217.186 487.942C216.594 488.448 216.457 489.118 216.449 489.856C216.442 490.442 216.7 490.71 217.286 490.704C219.371 490.715 221.031 489.868 222.286 488.25C222.705 487.718 222.712 487.045 222.404 486.439C222.202 486.032 220.277 485.308 219.961 485.463C219.797 485.534 219.655 485.65 219.534 485.766C219.117 486.147 218.722 486.527 218.316 486.918Z" fill="#E3E9EB"/>
<path d="M1279.56 112.026C1281.47 114.859 1281.55 116.56 1279.78 117.652C1278.08 118.759 1276.62 118.023 1274.64 115.068C1274.18 114.337 1273.61 113.617 1273.14 112.886C1272.14 111.302 1270.8 111.96 1269.73 112.677C1269.21 113.055 1268.93 114.188 1268.97 114.898C1269.09 116.292 1269.91 117.766 1269.71 119.128C1269.54 120.249 1268.44 121.835 1267.5 122.019C1266.63 122.217 1265.33 120.989 1264.42 120.196C1264.03 119.867 1264.07 118.998 1263.95 118.34C1263.36 115.652 1262.57 113.376 1259.09 113.152C1257.15 113.049 1255.66 111.71 1256.31 109.5C1256.95 107.183 1258.75 107.711 1260.7 107.747C1263.55 107.799 1266.76 107.791 1269.3 106.619C1273.99 104.51 1278.48 101.794 1282.65 98.765C1284.7 97.2765 1286.05 94.6911 1287.43 92.4275C1288.28 90.9975 1289.14 89.9559 1290.86 90.3621C1292.56 90.7276 1293.27 92.0389 1292.94 93.6525C1292.61 95.1588 1293.33 95.8413 1294.45 96.5042C1295.92 97.3475 1297.39 98.1908 1298.74 99.2194C1300.12 100.289 1300.54 101.782 1299.36 103.246C1298.14 104.736 1296.65 104.522 1295.22 103.545C1294.37 102.941 1293.42 102.455 1292.55 101.917C1289.46 100.094 1288.68 100.24 1286.63 103.201C1286.31 103.623 1286.58 104.699 1286.91 105.227C1287.73 106.42 1288.89 107.338 1289.75 108.505C1290.77 109.848 1290.76 111.495 1289.25 112.257C1288.27 112.747 1286.57 112.556 1285.57 111.989C1284.29 111.256 1283.33 109.927 1282.41 108.745C1281.31 107.387 1280.22 107.327 1278.85 108.399C1277.36 109.55 1278.62 110.349 1279.08 111.255C1279.16 111.484 1279.38 111.742 1279.56 112.026Z" fill="#E3E9EB"/>
<path d="M87.8921 23.7434C87.7507 23.4529 87.3971 23.4529 87.3264 23.7434C86.407 25.9944 85.7705 27.7371 84.8511 29.3346C84.639 29.7703 84.0025 29.9881 83.4367 30.2059C83.0831 30.3512 82.588 30.1333 82.4466 29.7703C82.2344 29.1894 82.0223 28.6085 82.1637 28.0276C82.5173 26.5027 83.0124 24.9778 83.7903 23.6708C86.6899 18.8057 85.6291 14.1585 83.1538 9.00299C83.0124 8.78515 82.7295 8.71253 82.588 9.00299C82.1637 9.72911 81.7394 10.2374 81.5272 10.8909C80.6079 12.9967 79.7592 15.1025 78.6984 17.1356C78.4862 17.5713 77.9205 17.7165 77.4254 17.9344C77.0718 18.0796 76.7182 17.9344 76.506 17.5713C76.2232 16.9904 75.9403 16.4821 76.011 16.0464C77.4961 11.3266 79.052 6.67937 80.6786 2.03215C81.3858 0.0715991 82.8002 -0.436693 84.639 0.362048C88.5286 2.10476 92.4183 3.77485 96.2372 5.59017C96.7323 5.80801 97.0151 6.53415 97.298 7.18766C97.4395 7.55073 97.298 7.91379 97.0151 8.05902C96.5201 8.34947 95.9543 8.63992 95.53 8.5673C93.6205 8.05901 91.7818 7.26027 89.8723 6.53414C88.5286 6.02585 87.2556 5.29972 85.9119 4.71882C85.6291 4.57359 85.3462 4.86405 85.4876 5.1545C86.8313 8.85776 88.0336 12.6336 89.5187 16.2643C89.8016 16.9178 91.0039 17.3535 91.8525 17.5713C93.5498 17.9344 95.3886 17.9344 97.0859 18.4427C97.7223 18.5879 98.2174 19.1688 98.7832 19.6771C99.1368 19.9675 99.066 20.5484 98.6417 20.7663C98.076 21.1293 97.5102 21.4924 96.8737 21.4924C95.3178 21.565 93.762 21.3472 92.2061 21.2019C91.9232 21.2019 91.7111 21.4198 91.6403 21.7102C91.3575 27.4467 93.762 31.6582 98.4296 33.9818C99.9854 34.7805 101.683 35.4341 103.168 36.378C103.592 36.5959 103.734 37.1768 103.946 37.7577C104.087 38.1207 103.946 38.4838 103.592 38.629C103.026 38.9195 102.461 39.2099 102.036 39.0647C100.198 38.4838 98.4296 37.6851 95.8129 36.6685C95.6007 36.5959 95.3178 36.8137 95.3886 37.0315C96.4494 40.3717 97.3687 42.9858 97.9345 45.6725C98.076 46.3986 97.7931 47.1247 97.5809 47.9235C97.4395 48.4318 96.803 48.577 96.4494 48.2865C95.8836 47.8509 95.3178 47.3426 95.1057 46.7617C94.1156 44.2928 93.3376 41.7514 92.2768 38.5564C92.2061 38.266 91.8525 38.266 91.7111 38.4838C90.5088 40.6622 89.7309 42.2597 88.7408 43.5667C88.4579 44.0024 87.68 44.075 86.9728 44.2202C86.6191 44.2928 86.3363 44.075 86.2655 43.7845C86.1241 43.2036 85.9827 42.6227 86.1241 42.1144C86.6191 40.6622 87.2556 39.1373 88.175 37.9029C91.7818 33.3283 90.0138 28.8989 87.8921 23.7434Z" fill="#E3E9EB"/>
<g opacity="0.5">
<path d="M135.5 345.998L135.533 346.497L135.5 345.998ZM319.5 120L319.492 119.5L319.5 120ZM549.5 286.499L549.538 286L549.5 286.499ZM805 132.999L805.039 132.5L805 132.999ZM978.5 306.499L978.482 306.998L978.5 306.499ZM1116.5 231.999L1116.37 231.515L1116.5 231.999ZM1287 231.999L1287.16 231.525L1287.16 231.525L1287 231.999ZM-3 165.499C-3.49164 165.59 -3.49164 165.59 -3.49164 165.59C-3.49163 165.59 -3.49163 165.59 -3.49163 165.59C-3.49162 165.59 -3.49162 165.59 -3.49161 165.59C-3.49159 165.59 -3.49156 165.59 -3.49153 165.59C-3.49146 165.591 -3.49137 165.591 -3.49124 165.592C-3.49099 165.593 -3.49063 165.595 -3.49014 165.598C-3.48917 165.603 -3.48773 165.611 -3.48582 165.621C-3.482 165.641 -3.47629 165.672 -3.46867 165.712C-3.45345 165.792 -3.43061 165.912 -3.40006 166.07C-3.33896 166.385 -3.24699 166.853 -3.12328 167.463L-2.14321 167.264C-2.26633 166.657 -2.35774 166.192 -2.41831 165.879C-2.44859 165.723 -2.47116 165.605 -2.48614 165.526C-2.49362 165.486 -2.49921 165.456 -2.50291 165.437C-2.50476 165.427 -2.50614 165.419 -2.50704 165.415C-2.5075 165.412 -2.50783 165.41 -2.50805 165.409C-2.50816 165.409 -2.50824 165.408 -2.50829 165.408C-2.50832 165.408 -2.50834 165.408 -2.50835 165.408C-2.50835 165.407 -2.50836 165.407 -2.50836 165.407C-2.50836 165.407 -2.50836 165.407 -2.50836 165.407C-2.50836 165.407 -2.50836 165.407 -3 165.499ZM-1.46991 175.071C-1.19824 176.255 -0.898079 177.536 -0.568744 178.908L0.40364 178.675C0.0751017 177.306 -0.224307 176.028 -0.495254 174.847L-1.46991 175.071ZM1.32331 186.486C1.64027 187.709 1.9738 188.975 2.32419 190.281L3.29003 190.022C2.9404 188.719 2.60759 187.456 2.29134 186.235L1.32331 186.486ZM4.41398 197.815C4.77167 199.063 5.14239 200.338 5.5263 201.636L6.48524 201.352C6.10215 200.057 5.73223 198.785 5.37531 197.539L4.41398 197.815ZM7.80646 209.113C8.1873 210.325 8.57859 211.553 8.98043 212.794L9.93185 212.487C9.5309 211.248 9.14048 210.023 8.76047 208.813L7.80646 209.113ZM11.4567 220.224C11.8794 221.455 12.3119 222.697 12.7542 223.949L13.697 223.615C13.2557 222.367 12.8243 221.128 12.4026 219.899L11.4567 220.224ZM15.4267 231.291C15.881 232.504 16.3444 233.723 16.8169 234.947L17.7499 234.587C17.2786 233.366 16.8163 232.15 16.3631 230.94L15.4267 231.291ZM19.7124 242.232C20.2024 243.429 20.701 244.629 21.2084 245.831L22.1298 245.443C21.6238 244.243 21.1265 243.047 20.6378 241.853L19.7124 242.232ZM24.3327 253.015C24.8654 254.203 25.4067 255.391 25.9566 256.58L26.8641 256.16C26.3159 254.975 25.7763 253.79 25.2451 252.606L24.3327 253.015ZM29.3304 263.644C29.908 264.815 30.4942 265.985 31.089 267.152L31.98 266.698C31.3872 265.535 30.803 264.369 30.2273 263.202L29.3304 263.644ZM34.7383 274.075C35.3634 275.221 35.997 276.363 36.6395 277.5L37.5102 277.009C36.8702 275.876 36.239 274.738 35.6163 273.596L34.7383 274.075ZM40.5971 284.257C41.2764 285.375 41.9645 286.487 42.6617 287.591L43.5073 287.057C42.8132 285.958 42.1281 284.851 41.4517 283.738L40.5971 284.257ZM46.9625 294.14C47.7012 295.22 48.4491 296.291 49.2064 297.353L50.0206 296.773C49.2672 295.716 48.523 294.65 47.788 293.575L46.9625 294.14ZM53.8914 303.64C54.6948 304.67 55.508 305.689 56.331 306.696L57.1053 306.064C56.2873 305.063 55.4789 304.049 54.6801 303.025L53.8914 303.64ZM61.4445 312.649C62.3228 313.62 63.2114 314.577 64.1104 315.518L64.8336 314.827C63.941 313.893 63.0585 312.942 62.1862 311.978L61.4445 312.649ZM69.6837 321.027C70.6479 321.924 71.6231 322.804 72.6096 323.665L73.2671 322.911C72.2889 322.058 71.3216 321.185 70.3651 320.295L69.6837 321.027ZM78.6924 328.619C79.7384 329.411 80.7961 330.182 81.8656 330.931L82.4391 330.112C81.3801 329.37 80.3325 328.606 79.2962 327.822L78.6924 328.619ZM88.4718 335.176C89.6012 335.838 90.7428 336.476 91.8967 337.087L92.3651 336.204C91.224 335.599 90.0949 334.969 88.9776 334.313L88.4718 335.176ZM98.9998 340.453C100.206 340.958 101.424 341.435 102.655 341.883L102.997 340.943C101.781 340.501 100.577 340.03 99.386 339.531L98.9998 340.453ZM110.16 344.207C111.425 344.531 112.701 344.825 113.99 345.088L114.19 344.108C112.917 343.849 111.657 343.558 110.409 343.238L110.16 344.207ZM121.749 346.271C123.055 346.404 124.373 346.505 125.703 346.574L125.755 345.576C124.442 345.507 123.14 345.407 121.851 345.276L121.749 346.271ZM133.535 346.607C134.198 346.578 134.864 346.542 135.533 346.497L135.467 345.5C134.806 345.543 134.148 345.579 133.492 345.608L133.535 346.607ZM135.533 346.497C136.221 346.452 136.903 346.397 137.58 346.333L137.485 345.337C136.818 345.4 136.145 345.455 135.467 345.5L135.533 346.497ZM145.47 345.128C146.803 344.844 148.112 344.522 149.4 344.162L149.131 343.199C147.863 343.553 146.574 343.87 145.262 344.15L145.47 345.128ZM156.955 341.533C158.19 341.015 159.403 340.459 160.595 339.868L160.15 338.972C158.977 339.554 157.783 340.101 156.568 340.612L156.955 341.533ZM167.541 335.877C168.654 335.146 169.747 334.382 170.82 333.586L170.225 332.782C169.166 333.567 168.089 334.321 166.992 335.042L167.541 335.877ZM176.991 328.478C177.966 327.583 178.925 326.66 179.867 325.71L179.157 325.006C178.225 325.945 177.278 326.857 176.315 327.741L176.991 328.478ZM185.248 319.798C186.104 318.777 186.946 317.734 187.774 316.668L186.985 316.054C186.164 317.11 185.33 318.145 184.482 319.156L185.248 319.798ZM192.458 310.212C193.202 309.116 193.935 308.002 194.657 306.871L193.814 306.333C193.097 307.456 192.369 308.562 191.63 309.65L192.458 310.212ZM198.793 300.016C199.444 298.878 200.086 297.725 200.72 296.56L199.841 296.082C199.211 297.242 198.572 298.388 197.925 299.52L198.793 300.016ZM204.405 289.467C204.992 288.286 205.573 287.095 206.147 285.893L205.244 285.462C204.673 286.659 204.095 287.846 203.51 289.022L204.405 289.467ZM209.485 278.645C210.023 277.435 210.556 276.217 211.084 274.991L210.166 274.595C209.639 275.818 209.108 277.032 208.571 278.238L209.485 278.645ZM214.164 267.64C214.666 266.411 215.163 265.176 215.657 263.936L214.728 263.566C214.235 264.804 213.739 266.036 213.238 267.262L214.164 267.64ZM218.555 256.519C219.03 255.278 219.504 254.034 219.974 252.786L219.039 252.433C218.568 253.679 218.096 254.922 217.621 256.161L218.555 256.519ZM222.755 245.328C223.215 244.081 223.673 242.833 224.13 241.583L223.191 241.24C222.734 242.489 222.276 243.736 221.817 244.982L222.755 245.328ZM226.855 234.104C227.308 232.856 227.76 231.608 228.213 230.361L227.273 230.019C226.82 231.267 226.368 232.515 225.915 233.763L226.855 234.104ZM230.937 222.88C231.393 221.632 231.851 220.386 232.309 219.143L231.371 218.797C230.912 220.041 230.454 221.288 229.998 222.537L230.937 222.88ZM235.086 211.689C235.556 210.443 236.028 209.2 236.502 207.962L235.569 207.605C235.094 208.844 234.621 210.088 234.15 211.336L235.086 211.689ZM239.389 200.566C239.884 199.324 240.382 198.087 240.883 196.857L239.957 196.48C239.455 197.712 238.956 198.952 238.46 200.196L239.389 200.566ZM243.951 189.535C244.48 188.307 245.014 187.088 245.552 185.877L244.639 185.471C244.098 186.685 243.563 187.908 243.032 189.139L243.951 189.535ZM248.879 178.665C249.454 177.463 250.036 176.271 250.624 175.092L249.729 174.646C249.138 175.83 248.554 177.026 247.977 178.233L248.879 178.665ZM254.301 168.046C254.937 166.884 255.581 165.735 256.233 164.602L255.367 164.103C254.71 165.243 254.063 166.398 253.424 167.567L254.301 168.046ZM260.369 157.812C261.088 156.699 261.817 155.604 262.557 154.528L261.733 153.961C260.988 155.045 260.253 156.148 259.529 157.269L260.369 157.812ZM267.255 148.157C268.088 147.107 268.935 146.08 269.795 145.079L269.036 144.427C268.167 145.439 267.313 146.476 266.472 147.536L267.255 148.157ZM275.2 139.309C276.149 138.385 277.114 137.489 278.097 136.623L277.436 135.873C276.44 136.75 275.463 137.657 274.502 138.593L275.2 139.309ZM284.298 131.733C285.376 130.978 286.474 130.257 287.592 129.571L287.069 128.719C285.934 129.416 284.819 130.148 283.725 130.914L284.298 131.733ZM294.564 125.882C295.755 125.347 296.968 124.849 298.204 124.39L297.855 123.452C296.599 123.92 295.366 124.426 294.155 124.969L294.564 125.882ZM305.744 122.135C307.026 121.84 308.33 121.584 309.658 121.367L309.496 120.38C308.148 120.601 306.823 120.861 305.521 121.16L305.744 122.135ZM317.479 120.563C318.15 120.532 318.826 120.511 319.508 120.5L319.492 119.5C318.8 119.512 318.114 119.533 317.434 119.564L317.479 120.563ZM319.508 120.5C320.189 120.488 320.868 120.486 321.544 120.493L321.555 119.494C320.869 119.486 320.181 119.488 319.492 119.5L319.508 120.5ZM329.582 121.021C330.921 121.183 332.251 121.381 333.573 121.613L333.747 120.629C332.407 120.393 331.059 120.192 329.702 120.028L329.582 121.021ZM341.427 123.424C342.718 123.792 344.001 124.193 345.277 124.625L345.598 123.678C344.307 123.241 343.008 122.835 341.702 122.463L341.427 123.424ZM352.796 127.562C354.021 128.104 355.239 128.675 356.452 129.272L356.894 128.375C355.669 127.772 354.438 127.196 353.2 126.648L352.796 127.562ZM363.56 133.113C364.719 133.794 365.872 134.499 367.02 135.226L367.555 134.381C366.398 133.648 365.235 132.938 364.067 132.251L363.56 133.113ZM373.727 139.762C374.811 140.541 375.891 141.339 376.967 142.155L377.571 141.358C376.489 140.538 375.402 139.735 374.311 138.95L373.727 139.762ZM383.303 147.2C384.338 148.063 385.37 148.941 386.399 149.833L387.054 149.078C386.021 148.181 384.984 147.299 383.943 146.432L383.303 147.2ZM392.418 155.248C393.405 156.166 394.388 157.096 395.369 158.037L396.061 157.315C395.077 156.371 394.09 155.438 393.1 154.516L392.418 155.248ZM401.15 163.738C402.093 164.691 403.033 165.654 403.972 166.625L404.691 165.93C403.75 164.956 402.807 163.991 401.861 163.035L401.15 163.738ZM409.555 172.518C410.473 173.505 411.39 174.499 412.305 175.499L413.043 174.824C412.126 173.822 411.207 172.826 410.287 171.837L409.555 172.518ZM417.742 181.524C418.642 182.534 419.541 183.549 420.44 184.568L421.19 183.907C420.29 182.886 419.39 181.87 418.489 180.859L417.742 181.524ZM425.78 190.677C426.666 191.699 427.552 192.724 428.438 193.751L429.195 193.098C428.309 192.07 427.422 191.045 426.535 190.022L425.78 190.677ZM433.732 199.909C434.612 200.937 435.493 201.965 436.374 202.993L437.133 202.343C436.253 201.314 435.372 200.286 434.491 199.258L433.732 199.909ZM441.662 209.16C442.545 210.188 443.429 211.215 444.313 212.24L445.071 211.587C444.187 210.563 443.303 209.536 442.42 208.509L441.662 209.16ZM449.639 218.38C450.531 219.401 451.424 220.419 452.318 221.433L453.068 220.772C452.175 219.759 451.283 218.742 450.392 217.722L449.639 218.38ZM457.727 227.506C458.633 228.512 459.541 229.513 460.451 230.508L461.189 229.833C460.281 228.84 459.375 227.841 458.47 226.837L457.727 227.506ZM465.99 236.471C466.924 237.459 467.86 238.44 468.798 239.413L469.518 238.719C468.582 237.748 467.648 236.77 466.717 235.784L465.99 236.471ZM474.502 245.197C475.474 246.159 476.448 247.111 477.425 248.053L478.119 247.333C477.145 246.394 476.174 245.445 475.206 244.486L474.502 245.197ZM483.367 253.609C484.377 254.524 485.389 255.425 486.405 256.313L487.063 255.56C486.052 254.676 485.044 253.779 484.039 252.868L483.367 253.609ZM492.642 261.554C493.701 262.406 494.763 263.243 495.83 264.063L496.439 263.27C495.379 262.455 494.322 261.623 493.27 260.775L492.642 261.554ZM502.405 268.861C503.536 269.641 504.671 270.401 505.812 271.14L506.356 270.3C505.223 269.567 504.096 268.812 502.973 268.038L502.405 268.861ZM512.79 275.351C513.979 276.015 515.175 276.656 516.377 277.272L516.833 276.382C515.642 275.772 514.457 275.137 513.278 274.478L512.79 275.351ZM523.78 280.706C525.04 281.229 526.308 281.724 527.583 282.189L527.926 281.25C526.665 280.79 525.41 280.3 524.163 279.782L523.78 280.706ZM535.371 284.627C536.688 284.971 538.014 285.283 539.348 285.561L539.552 284.583C538.235 284.308 536.925 284 535.624 283.659L535.371 284.627ZM547.416 286.815C548.096 286.885 548.778 286.945 549.462 286.997L549.538 286C548.862 285.949 548.189 285.889 547.517 285.82L547.416 286.815ZM549.462 286.997C550.147 287.049 550.832 287.09 551.516 287.119L551.559 286.12C550.885 286.091 550.211 286.051 549.538 286L549.462 286.997ZM559.723 286.95C561.085 286.838 562.446 286.685 563.808 286.492L563.668 285.502C562.325 285.692 560.983 285.843 559.641 285.954L559.723 286.95ZM571.858 284.906C573.173 284.576 574.488 284.212 575.803 283.815L575.514 282.857C574.214 283.25 572.914 283.61 571.615 283.937L571.858 284.906ZM583.542 281.111C584.803 280.612 586.064 280.086 587.325 279.533L586.923 278.617C585.673 279.166 584.423 279.687 583.175 280.181L583.542 281.111ZM594.707 276.002C595.916 275.377 597.124 274.73 598.333 274.062L597.849 273.186C596.648 273.851 595.448 274.493 594.248 275.114L594.707 276.002ZM605.405 269.915C606.546 269.209 607.687 268.485 608.829 267.746L608.285 266.906C607.149 267.643 606.014 268.362 604.879 269.064L605.405 269.915ZM615.611 263.163C616.719 262.385 617.827 261.593 618.935 260.788L618.347 259.979C617.243 260.781 616.14 261.57 615.036 262.345L615.611 263.163ZM625.474 255.89C626.553 255.059 627.632 254.216 628.711 253.363L628.091 252.579C627.015 253.429 625.939 254.269 624.864 255.098L625.474 255.89ZM635.054 248.236C636.103 247.369 637.153 246.494 638.203 245.611L637.559 244.846C636.511 245.727 635.464 246.6 634.417 247.465L635.054 248.236ZM644.406 240.306C645.43 239.417 646.453 238.522 647.477 237.621L646.816 236.87C645.794 237.77 644.772 238.663 643.751 239.551L644.406 240.306ZM653.584 232.183C654.59 231.277 655.595 230.367 656.601 229.454L655.929 228.713C654.924 229.626 653.919 230.535 652.915 231.439L653.584 232.183ZM662.629 223.938C663.627 223.018 664.625 222.096 665.623 221.172L664.943 220.438C663.946 221.362 662.948 222.283 661.951 223.202L662.629 223.938ZM671.603 215.612C672.597 214.684 673.591 213.756 674.585 212.828L673.902 212.097C672.908 213.026 671.914 213.953 670.921 214.88L671.603 215.612ZM680.548 207.254C681.542 206.326 682.536 205.398 683.53 204.471L682.848 203.74C681.854 204.667 680.86 205.595 679.866 206.524L680.548 207.254ZM689.508 198.914C690.505 197.99 691.503 197.069 692.5 196.15L691.823 195.415C690.825 196.334 689.826 197.256 688.828 198.181L689.508 198.914ZM698.523 190.64C699.528 189.727 700.533 188.819 701.538 187.914L700.869 187.171C699.863 188.076 698.857 188.986 697.851 189.9L698.523 190.64ZM707.638 182.485C708.66 181.586 709.682 180.693 710.704 179.806L710.048 179.051C709.025 179.939 708.001 180.834 706.977 181.734L707.638 182.485ZM716.898 174.512C717.945 173.632 718.993 172.759 720.04 171.895L719.404 171.124C718.354 171.99 717.304 172.864 716.255 173.747L716.898 174.512ZM726.368 166.785C727.445 165.934 728.521 165.095 729.597 164.266L728.987 163.474C727.908 164.305 726.828 165.147 725.748 166L726.368 166.785ZM736.117 159.39C737.221 158.588 738.326 157.8 739.43 157.026L738.856 156.207C737.747 156.984 736.638 157.776 735.529 158.58L736.117 159.39ZM746.185 152.47C747.321 151.735 748.458 151.017 749.593 150.316L749.068 149.465C747.926 150.17 746.784 150.892 745.642 151.631L746.185 152.47ZM756.628 146.201C757.829 145.539 759.03 144.898 760.23 144.279L759.772 143.39C758.563 144.013 757.354 144.659 756.145 145.326L756.628 146.201ZM767.56 140.786C768.811 140.24 770.062 139.721 771.312 139.229L770.946 138.298C769.684 138.795 768.422 139.319 767.16 139.87L767.56 140.786ZM778.977 136.568C780.278 136.178 781.579 135.821 782.879 135.497L782.637 134.527C781.322 134.854 780.006 135.215 778.69 135.61L778.977 136.568ZM790.829 133.952C792.172 133.766 793.515 133.619 794.857 133.512L794.778 132.515C793.416 132.623 792.054 132.773 790.691 132.961L790.829 133.952ZM802.939 133.371C803.613 133.402 804.287 133.444 804.961 133.497L805.039 132.5C804.355 132.446 803.67 132.403 802.985 132.372L802.939 133.371ZM804.961 133.497C805.652 133.552 806.337 133.616 807.017 133.691L807.126 132.697C806.436 132.621 805.74 132.555 805.039 132.5L804.961 133.497ZM815.001 135.076C816.324 135.393 817.625 135.75 818.905 136.146L819.2 135.19C817.9 134.788 816.578 134.425 815.234 134.103L815.001 135.076ZM826.473 139.035C827.705 139.598 828.917 140.198 830.109 140.835L830.58 139.953C829.37 139.307 828.14 138.697 826.889 138.125L826.473 139.035ZM837.024 145.072C838.134 145.841 839.226 146.643 840.301 147.477L840.914 146.686C839.825 145.842 838.718 145.03 837.594 144.25L837.024 145.072ZM846.476 152.755C847.46 153.677 848.429 154.624 849.386 155.597L850.099 154.896C849.133 153.914 848.154 152.957 847.16 152.025L846.476 152.755ZM854.875 161.611C855.749 162.637 856.611 163.684 857.464 164.75L858.245 164.125C857.386 163.052 856.517 161.997 855.636 160.963L854.875 161.611ZM862.38 171.252C863.168 172.353 863.948 173.468 864.721 174.599L865.546 174.034C864.77 172.898 863.986 171.776 863.192 170.67L862.38 171.252ZM869.192 181.423C869.913 182.569 870.629 183.726 871.338 184.894L872.193 184.375C871.48 183.203 870.762 182.041 870.038 180.89L869.192 181.423ZM875.486 191.931C876.161 193.108 876.831 194.292 877.497 195.483L878.37 194.995C877.702 193.801 877.03 192.614 876.354 191.434L875.486 191.931ZM881.425 202.65C882.07 203.849 882.713 205.053 883.354 206.26L884.237 205.791C883.595 204.582 882.952 203.377 882.305 202.176L881.425 202.65ZM887.155 213.498C887.784 214.705 888.412 215.915 889.039 217.125L889.927 216.664C889.299 215.454 888.671 214.244 888.042 213.036L887.155 213.498ZM892.803 224.39C893.431 225.6 894.059 226.81 894.689 228.017L895.575 227.555C894.946 226.348 894.318 225.139 893.69 223.929L892.803 224.39ZM898.498 235.262C899.14 236.47 899.784 237.674 900.43 238.872L901.31 238.398C900.665 237.201 900.022 235.999 899.381 234.793L898.498 235.262ZM904.373 246.047C905.044 247.243 905.718 248.432 906.398 249.612L907.264 249.114C906.587 247.936 905.914 246.751 905.245 245.558L904.373 246.047ZM910.574 256.663C911.287 257.83 912.006 258.987 912.732 260.131L913.576 259.596C912.854 258.456 912.138 257.304 911.427 256.142L910.574 256.663ZM917.249 266.971C918.033 268.107 918.825 269.229 919.627 270.334L920.436 269.747C919.64 268.648 918.852 267.533 918.072 266.403L917.249 266.971ZM924.617 276.847C925.482 277.912 926.359 278.957 927.246 279.98L928.002 279.325C927.121 278.31 926.252 277.273 925.393 276.216L924.617 276.847ZM932.853 285.988C933.833 286.96 934.828 287.906 935.838 288.823L936.51 288.083C935.511 287.176 934.527 286.24 933.557 285.278L932.853 285.988ZM942.179 294.051C943.285 294.872 944.409 295.659 945.551 296.412L946.101 295.577C944.975 294.835 943.867 294.058 942.775 293.248L942.179 294.051ZM952.679 300.52C953.909 301.13 955.159 301.701 956.43 302.232L956.816 301.309C955.564 300.787 954.334 300.225 953.124 299.624L952.679 300.52ZM964.22 304.889C965.533 305.241 966.867 305.551 968.224 305.82L968.418 304.839C967.083 304.575 965.77 304.269 964.478 303.923L964.22 304.889ZM976.385 306.89C977.078 306.936 977.777 306.973 978.482 306.998L978.518 305.999C977.824 305.974 977.135 305.938 976.452 305.892L976.385 306.89ZM978.482 306.998C979.163 307.023 979.839 307.045 980.51 307.064L980.539 306.065C979.871 306.046 979.197 306.024 978.518 305.999L978.482 306.998ZM988.338 307.158C989.697 307.151 991.031 307.131 992.341 307.099L992.317 306.099C991.013 306.131 989.685 306.151 988.333 306.158L988.338 307.158ZM1000.2 306.739C1001.52 306.65 1002.8 306.547 1004.06 306.43L1003.97 305.434C1002.72 305.55 1001.44 305.653 1000.13 305.742L1000.2 306.739ZM1011.88 305.492C1013.23 305.291 1014.55 305.073 1015.83 304.838L1015.65 303.854C1014.38 304.087 1013.07 304.304 1011.74 304.503L1011.88 305.492ZM1023.51 303.149C1024.82 302.809 1026.09 302.45 1027.32 302.073L1027.03 301.116C1025.81 301.489 1024.55 301.845 1023.26 302.181L1023.51 303.149ZM1034.74 299.43C1035.99 298.915 1037.2 298.379 1038.37 297.824L1037.94 296.92C1036.78 297.468 1035.59 297.997 1034.36 298.505L1034.74 299.43ZM1045.29 294.051C1046.43 293.346 1047.52 292.62 1048.58 291.875L1048.01 291.058C1046.96 291.791 1045.88 292.507 1044.77 293.202L1045.29 294.051ZM1054.79 286.955C1055.78 286.071 1056.74 285.17 1057.67 284.255L1056.97 283.543C1056.05 284.446 1055.1 285.335 1054.12 286.207L1054.79 286.955ZM1063.04 278.477C1063.9 277.474 1064.74 276.463 1065.56 275.444L1064.78 274.817C1063.97 275.828 1063.14 276.832 1062.29 277.825L1063.04 278.477ZM1070.37 269.215C1071.16 268.164 1071.94 267.113 1072.72 266.064L1071.91 265.468C1071.13 266.517 1070.36 267.567 1069.57 268.615L1070.37 269.215ZM1077.44 259.807C1078.24 258.777 1079.06 257.757 1079.88 256.747L1079.11 256.113C1078.28 257.13 1077.46 258.158 1076.65 259.193L1077.44 259.807ZM1085.05 250.89C1085.95 249.957 1086.87 249.041 1087.83 248.144L1087.14 247.415C1086.18 248.325 1085.24 249.253 1084.33 250.197L1085.05 250.89ZM1093.8 243.151C1094.83 242.392 1095.89 241.655 1097 240.942L1096.46 240.101C1095.33 240.826 1094.25 241.575 1093.21 242.346L1093.8 243.151ZM1103.79 237.149C1104.93 236.598 1106.12 236.069 1107.36 235.565L1106.98 234.64C1105.73 235.151 1104.52 235.688 1103.35 236.248L1103.79 237.149ZM1114.71 233.015C1115.34 232.831 1115.98 232.654 1116.63 232.482L1116.37 231.515C1115.71 231.689 1115.06 231.869 1114.43 232.054L1114.71 233.015ZM1116.63 232.482C1117.3 232.304 1117.97 232.127 1118.64 231.952L1118.39 230.985C1117.72 231.16 1117.05 231.337 1116.37 231.515L1116.63 232.482ZM1126.65 229.888C1127.99 229.547 1129.33 229.212 1130.66 228.884L1130.42 227.913C1129.09 228.242 1127.75 228.578 1126.4 228.919L1126.65 229.888ZM1138.68 226.944C1140.04 226.626 1141.38 226.315 1142.71 226.011L1142.49 225.036C1141.16 225.34 1139.81 225.652 1138.46 225.97L1138.68 226.944ZM1150.77 224.247C1152.13 223.962 1153.48 223.685 1154.83 223.416L1154.63 222.435C1153.28 222.705 1151.93 222.982 1150.57 223.268L1150.77 224.247ZM1162.94 221.884C1164.31 221.643 1165.66 221.411 1167.01 221.189L1166.85 220.203C1165.49 220.425 1164.14 220.657 1162.77 220.899L1162.94 221.884ZM1175.18 219.96C1176.55 219.773 1177.91 219.598 1179.27 219.434L1179.15 218.441C1177.79 218.606 1176.42 218.782 1175.04 218.969L1175.18 219.96ZM1187.48 218.578C1188.85 218.458 1190.22 218.35 1191.59 218.254L1191.52 217.257C1190.15 217.353 1188.77 217.461 1187.39 217.581L1187.48 218.578ZM1199.83 217.832C1201.21 217.788 1202.58 217.757 1203.96 217.739L1203.94 216.739C1202.56 216.757 1201.18 216.788 1199.8 216.833L1199.83 217.832ZM1212.2 217.796C1213.58 217.833 1214.95 217.883 1216.33 217.948L1216.38 216.949C1214.99 216.884 1213.61 216.833 1212.23 216.796L1212.2 217.796ZM1224.56 218.501C1225.92 218.62 1227.29 218.753 1228.66 218.9L1228.77 217.905C1227.39 217.758 1226.01 217.624 1224.64 217.504L1224.56 218.501ZM1236.85 219.939C1238.2 220.136 1239.56 220.348 1240.93 220.573L1241.09 219.586C1239.72 219.36 1238.35 219.148 1237 218.949L1236.85 219.939ZM1249.04 222.06C1250.38 222.33 1251.73 222.614 1253.08 222.91L1253.3 221.934C1251.93 221.636 1250.58 221.351 1249.23 221.08L1249.04 222.06ZM1261.11 224.799C1262.43 225.132 1263.76 225.477 1265.11 225.836L1265.36 224.869C1264.02 224.51 1262.68 224.163 1261.35 223.829L1261.11 224.799ZM1273.05 228.074C1274.36 228.461 1275.68 228.86 1277 229.27L1277.3 228.315C1275.97 227.903 1274.65 227.503 1273.34 227.115L1273.05 228.074ZM1284.86 231.804C1285.52 232.024 1286.18 232.247 1286.84 232.472L1287.16 231.525C1286.5 231.299 1285.84 231.076 1285.18 230.856L1284.86 231.804ZM1286.84 232.472C1287.45 232.682 1288.07 232.892 1288.69 233.103L1289.01 232.157C1288.39 231.946 1287.78 231.735 1287.16 231.525L1286.84 232.472ZM1296.08 235.662C1297.31 236.092 1298.54 236.524 1299.78 236.958L1300.11 236.015C1298.88 235.58 1297.64 235.148 1296.41 234.718L1296.08 235.662ZM1307.15 239.579C1308.38 240.019 1309.61 240.461 1310.83 240.904L1311.17 239.963C1309.95 239.52 1308.72 239.078 1307.49 238.637L1307.15 239.579ZM1318.19 243.58C1319.41 244.029 1320.64 244.479 1321.86 244.93L1322.2 243.992C1320.98 243.541 1319.76 243.091 1318.53 242.641L1318.19 243.58ZM1329.2 247.657C1330.42 248.116 1331.64 248.574 1332.86 249.033L1333.22 248.098C1332 247.638 1330.77 247.179 1329.55 246.72L1329.2 247.657ZM1340.18 251.806C1341.41 252.272 1342.63 252.738 1343.84 253.203L1344.2 252.269C1342.98 251.804 1341.76 251.338 1340.54 250.871L1340.18 251.806ZM1351.15 256.018C1352.36 256.491 1353.58 256.962 1354.78 257.432L1355.15 256.5C1353.94 256.03 1352.73 255.559 1351.51 255.086L1351.15 256.018ZM1362.07 260.286C1363.3 260.768 1364.52 261.249 1365.72 261.727L1366.09 260.797C1364.88 260.319 1363.66 259.838 1362.44 259.356L1362.07 260.286ZM1372.99 264.615C1374.22 265.105 1375.43 265.591 1376.63 266.074L1377.01 265.146C1375.8 264.663 1374.59 264.176 1373.36 263.687L1372.99 264.615ZM1383.89 268.999C1385.12 269.495 1386.33 269.986 1387.52 270.472L1387.9 269.546C1386.7 269.059 1385.49 268.568 1384.27 268.072L1383.89 268.999ZM1394.77 273.433C1395.99 273.936 1397.2 274.433 1398.39 274.923L1398.77 273.998C1397.58 273.508 1396.37 273.011 1395.15 272.508L1394.77 273.433ZM1405.61 277.912C1406.85 278.426 1408.06 278.93 1409.24 279.423L1409.62 278.501C1408.44 278.007 1407.23 277.503 1405.99 276.989L1405.61 277.912ZM1416.45 282.45C1417.7 282.974 1418.9 283.481 1420.05 283.971L1420.44 283.05C1419.29 282.56 1418.08 282.053 1416.84 281.529L1416.45 282.45ZM1427.26 287.039C1428.56 287.592 1429.76 288.108 1430.87 288.584L1431.27 287.666C1430.16 287.189 1428.95 286.672 1427.66 286.119L1427.26 287.039ZM1438.04 291.687C1438.62 291.938 1439.06 292.131 1439.35 292.26C1439.5 292.325 1439.61 292.374 1439.69 292.407C1439.72 292.423 1439.75 292.436 1439.77 292.444C1439.78 292.448 1439.79 292.451 1439.79 292.453C1439.79 292.454 1439.8 292.455 1439.8 292.455C1439.8 292.456 1439.8 292.456 1439.8 292.456C1439.8 292.456 1439.8 292.456 1439.8 292.456C1439.8 292.456 1439.8 292.456 1439.8 292.456C1439.8 292.456 1439.8 292.456 1439.8 292.456C1439.8 292.456 1439.8 292.456 1440 291.999C1440.2 291.541 1440.2 291.541 1440.2 291.541C1440.2 291.541 1440.2 291.541 1440.2 291.541C1440.2 291.541 1440.2 291.541 1440.2 291.541C1440.2 291.541 1440.2 291.541 1440.2 291.541C1440.2 291.541 1440.2 291.541 1440.2 291.54C1440.2 291.54 1440.2 291.539 1440.19 291.538C1440.19 291.536 1440.18 291.533 1440.17 291.529C1440.15 291.52 1440.13 291.508 1440.09 291.491C1440.01 291.458 1439.9 291.409 1439.75 291.344C1439.46 291.215 1439.02 291.022 1438.44 290.77L1438.04 291.687Z" fill="#949DAF"/>
<path d="M142 301.51L141.912 301.018L142 301.51ZM335.5 157.01L335.551 157.507L335.5 157.01ZM558 265L557.995 265.5L558 265ZM770 176L770.004 176.5L770 176ZM965.5 266L965.437 265.504L965.5 266ZM1119.5 207.01L1119.55 207.508L1119.55 207.508L1119.5 207.01ZM1288 240L1287.82 240.466L1287.82 240.466L1288 240ZM-1 288C-1.12845 288.484 -1.12844 288.484 -1.12843 288.484C-1.12842 288.484 -1.12841 288.484 -1.1284 288.484C-1.12837 288.484 -1.12833 288.484 -1.12829 288.484C-1.12819 288.484 -1.12806 288.484 -1.12788 288.484C-1.12753 288.484 -1.12702 288.484 -1.12634 288.484C-1.125 288.485 -1.12301 288.485 -1.12038 288.486C-1.11512 288.487 -1.1073 288.489 -1.09693 288.492C-1.0762 288.497 -1.04529 288.506 -1.00435 288.516C-0.922485 288.538 -0.800527 288.57 -0.639706 288.612C-0.318063 288.695 0.159034 288.818 0.781756 288.975L1.02698 288.006C0.406331 287.849 -0.0687548 287.727 -0.388454 287.644C-0.548303 287.602 -0.669305 287.57 -0.750231 287.549C-0.790694 287.539 -0.821137 287.531 -0.841409 287.525C-0.851544 287.522 -0.859137 287.52 -0.864167 287.519C-0.866682 287.518 -0.868556 287.518 -0.869788 287.518C-0.870403 287.517 -0.870858 287.517 -0.871152 287.517C-0.871299 287.517 -0.871406 287.517 -0.871472 287.517C-0.871505 287.517 -0.871529 287.517 -0.871542 287.517C-0.871548 287.517 -0.87155 287.517 -0.871554 287.517C-0.871553 287.517 -0.87155 287.517 -1 288ZM8.58815 290.866C9.79948 291.148 11.111 291.45 12.5152 291.766L12.7352 290.791C11.3334 290.475 10.0243 290.174 8.81525 289.892L8.58815 290.866ZM20.383 293.484C21.6495 293.752 22.9607 294.024 24.3133 294.301L24.5136 293.321C23.1632 293.045 21.8542 292.773 20.5898 292.506L20.383 293.484ZM32.1886 295.858C33.4802 296.104 34.7985 296.352 36.1413 296.599L36.3223 295.615C34.9817 295.368 33.6656 295.122 32.3761 294.875L32.1886 295.858ZM44.0735 298.003C45.3738 298.224 46.6913 298.443 48.0245 298.66L48.1851 297.673C46.8543 297.457 45.5391 297.238 44.2411 297.017L44.0735 298.003ZM55.9756 299.895C57.2903 300.089 58.6164 300.28 59.9526 300.467L60.0911 299.477C58.7575 299.29 57.4339 299.1 56.1217 298.906L55.9756 299.895ZM67.9216 301.516C69.2465 301.679 70.5784 301.837 71.9163 301.99L72.0299 300.997C70.695 300.844 69.3659 300.686 68.0439 300.523L67.9216 301.516ZM79.9099 302.83C81.2419 302.958 82.5775 303.079 83.9153 303.193L84.0004 302.197C82.666 302.083 81.3338 301.962 80.005 301.835L79.9099 302.83ZM91.9343 303.791C93.2723 303.876 94.6104 303.954 95.9476 304.023L95.9991 303.024C94.666 302.955 93.3318 302.878 91.9977 302.794L91.9343 303.791ZM103.988 304.334C105.33 304.368 106.67 304.393 108.005 304.408L108.016 303.408C106.686 303.393 105.351 303.369 104.013 303.335L103.988 304.334ZM116.058 304.369C117.403 304.34 118.741 304.3 120.071 304.247L120.031 303.248C118.708 303.3 117.376 303.34 116.037 303.369L116.058 304.369ZM128.12 303.766C129.466 303.657 130.801 303.533 132.122 303.394L132.018 302.4C130.704 302.538 129.377 302.661 128.039 302.77L128.12 303.766ZM140.118 302.336C140.779 302.23 141.435 302.118 142.088 302.002L141.912 301.018C141.266 301.133 140.614 301.243 139.958 301.349L140.118 302.336ZM142.088 302.002C142.753 301.884 143.413 301.76 144.07 301.632L143.878 300.65C143.227 300.778 142.572 300.9 141.912 301.018L142.088 302.002ZM151.788 299.835C153.081 299.485 154.356 299.114 155.615 298.723L155.318 297.768C154.071 298.155 152.808 298.523 151.526 298.87L151.788 299.835ZM163.097 296.088C164.33 295.602 165.545 295.096 166.744 294.57L166.343 293.654C165.155 294.175 163.951 294.676 162.73 295.158L163.097 296.088ZM173.891 291.116C175.067 290.493 176.228 289.851 177.372 289.191L176.873 288.325C175.738 288.979 174.588 289.615 173.423 290.232L173.891 291.116ZM184.101 284.991C185.199 284.253 186.282 283.497 187.352 282.726L186.767 281.915C185.706 282.68 184.631 283.429 183.543 284.162L184.101 284.991ZM193.639 277.891C194.662 277.054 195.674 276.203 196.673 275.338L196.019 274.582C195.026 275.441 194.022 276.286 193.006 277.117L193.639 277.891ZM202.53 269.998C203.484 269.085 204.427 268.161 205.36 267.225L204.652 266.519C203.724 267.449 202.786 268.369 201.838 269.276L202.53 269.998ZM210.84 261.505C211.734 260.536 212.62 259.557 213.499 258.571L212.752 257.906C211.877 258.888 210.995 259.862 210.105 260.828L210.84 261.505ZM218.676 252.581C219.524 251.572 220.366 250.556 221.203 249.536L220.43 248.902C219.595 249.919 218.756 250.932 217.91 251.937L218.676 252.581ZM226.161 243.37C226.978 242.335 227.791 241.298 228.602 240.257L227.813 239.643C227.004 240.682 226.192 241.718 225.376 242.75L226.161 243.37ZM233.43 233.995C234.231 232.948 235.03 231.901 235.829 230.853L235.034 230.247C234.235 231.294 233.436 232.341 232.636 233.388L233.43 233.995ZM240.62 224.567C241.419 223.521 242.219 222.476 243.021 221.433L242.228 220.824C241.426 221.867 240.625 222.913 239.825 223.96L240.62 224.567ZM247.865 215.197C248.68 214.16 249.498 213.128 250.32 212.101L249.539 211.476C248.716 212.506 247.896 213.54 247.079 214.578L247.865 215.197ZM255.312 205.988C256.155 204.978 257.003 203.976 257.857 202.982L257.099 202.33C256.242 203.328 255.39 204.334 254.544 205.346L255.312 205.988ZM263.089 197.08C263.98 196.109 264.878 195.148 265.784 194.198L265.061 193.507C264.15 194.463 263.247 195.429 262.352 196.405L263.089 197.08ZM271.343 188.614C272.291 187.705 273.249 186.808 274.217 185.925L273.543 185.186C272.569 186.075 271.605 186.977 270.651 187.893L271.343 188.614ZM280.179 180.784C281.197 179.956 282.228 179.144 283.271 178.349L282.665 177.554C281.613 178.356 280.575 179.174 279.548 180.008L280.179 180.784ZM289.682 173.793C290.774 173.073 291.88 172.371 293 171.689L292.48 170.835C291.349 171.523 290.233 172.232 289.132 172.958L289.682 173.793ZM299.862 167.859C301.027 167.266 302.209 166.694 303.407 166.143L302.989 165.235C301.779 165.791 300.585 166.369 299.408 166.968L299.862 167.859ZM310.675 163.15C311.891 162.705 313.124 162.282 314.375 161.881L314.069 160.929C312.806 161.334 311.56 161.762 310.332 162.211L310.675 163.15ZM321.944 159.78C323.213 159.481 324.499 159.204 325.804 158.949L325.612 157.967C324.295 158.225 322.996 158.505 321.714 158.807L321.944 159.78ZM333.56 157.729C334.219 157.649 334.883 157.575 335.551 157.507L335.449 156.512C334.775 156.581 334.105 156.656 333.44 156.736L333.56 157.729ZM335.551 157.507C336.235 157.437 336.916 157.373 337.594 157.316L337.51 156.32C336.826 156.377 336.139 156.442 335.449 156.512L335.551 157.507ZM345.624 156.928C346.986 156.913 348.334 156.924 349.668 156.96L349.695 155.96C348.348 155.924 346.987 155.913 345.613 155.928L345.624 156.928ZM357.693 157.494C359.031 157.637 360.355 157.805 361.666 157.999L361.812 157.01C360.488 156.814 359.151 156.644 357.8 156.5L357.693 157.494ZM369.574 159.497C370.89 159.802 372.193 160.132 373.484 160.486L373.748 159.522C372.445 159.164 371.129 158.831 369.8 158.523L369.574 159.497ZM381.152 162.918C382.417 163.373 383.67 163.851 384.912 164.351L385.285 163.423C384.032 162.919 382.767 162.436 381.491 161.977L381.152 162.918ZM392.272 167.618C393.48 168.204 394.679 168.811 395.868 169.435L396.333 168.55C395.135 167.92 393.927 167.309 392.709 166.718L392.272 167.618ZM402.889 173.395C404.039 174.087 405.18 174.795 406.314 175.518L406.851 174.675C405.71 173.947 404.562 173.234 403.405 172.538L402.889 173.395ZM413.011 180.014C414.111 180.788 415.204 181.575 416.292 182.374L416.884 181.568C415.791 180.765 414.692 179.974 413.587 179.196L413.011 180.014ZM422.716 187.263C423.771 188.093 424.821 188.933 425.868 189.78L426.498 189.003C425.447 188.153 424.393 187.31 423.335 186.477L422.716 187.263ZM432.088 194.939C433.115 195.809 434.14 196.685 435.163 197.566L435.816 196.809C434.791 195.926 433.764 195.048 432.735 194.176L432.088 194.939ZM441.253 202.884C442.263 203.775 443.271 204.669 444.28 205.565L444.944 204.817C443.935 203.921 442.925 203.026 441.915 202.134L441.253 202.884ZM450.32 210.948C451.327 211.845 452.334 212.743 453.343 213.639L454.007 212.892C452.999 211.996 451.992 211.099 450.986 210.201L450.32 210.948ZM459.412 218.997C460.428 219.886 461.446 220.772 462.467 221.654L463.121 220.897C462.101 220.017 461.085 219.132 460.07 218.245L459.412 218.997ZM468.641 226.898C469.679 227.763 470.721 228.622 471.768 229.475L472.399 228.699C471.356 227.85 470.317 226.993 469.281 226.13L468.641 226.898ZM478.12 234.509C479.191 235.333 480.269 236.149 481.352 236.955L481.949 236.152C480.87 235.35 479.797 234.538 478.73 233.717L478.12 234.509ZM487.948 241.673C489.063 242.438 490.186 243.191 491.317 243.931L491.865 243.095C490.74 242.359 489.623 241.609 488.514 240.848L487.948 241.673ZM498.209 248.213C499.375 248.899 500.55 249.569 501.736 250.223L502.219 249.348C501.042 248.698 499.874 248.032 498.715 247.351L498.209 248.213ZM508.953 253.941C510.171 254.524 511.399 255.088 512.639 255.634L513.042 254.718C511.812 254.177 510.593 253.617 509.385 253.039L508.953 253.941ZM520.173 258.659C521.445 259.121 522.728 259.563 524.025 259.983L524.333 259.032C523.048 258.615 521.775 258.177 520.514 257.719L520.173 258.659ZM531.837 262.213C533.139 262.534 534.453 262.834 535.78 263.111L535.985 262.132C534.669 261.858 533.367 261.56 532.077 261.242L531.837 262.213ZM543.784 264.483C545.121 264.663 546.471 264.82 547.835 264.953L547.933 263.958C546.581 263.826 545.242 263.67 543.917 263.492L543.784 264.483ZM555.932 265.461C556.616 265.48 557.304 265.493 557.995 265.5L558.005 264.5C557.32 264.493 556.638 264.48 555.96 264.461L555.932 265.461ZM557.995 265.5C558.661 265.507 559.325 265.51 559.985 265.507L559.981 264.507C559.326 264.51 558.667 264.507 558.005 264.5L557.995 265.5ZM567.819 265.241C569.138 265.156 570.444 265.052 571.739 264.928L571.644 263.933C570.36 264.055 569.064 264.159 567.755 264.243L567.819 265.241ZM579.518 263.938C580.816 263.731 582.101 263.504 583.374 263.26L583.186 262.278C581.923 262.52 580.648 262.745 579.361 262.95L579.518 263.938ZM591.029 261.536C592.302 261.207 593.562 260.86 594.812 260.495L594.532 259.535C593.292 259.897 592.041 260.241 590.779 260.568L591.029 261.536ZM602.269 258.072C603.505 257.63 604.73 257.171 605.945 256.696L605.581 255.765C604.375 256.236 603.159 256.692 601.932 257.131L602.269 258.072ZM613.168 253.645C614.358 253.105 615.539 252.55 616.712 251.982L616.276 251.082C615.111 251.646 613.937 252.198 612.754 252.735L613.168 253.645ZM623.687 248.402C624.836 247.78 625.978 247.145 627.113 246.5L626.619 245.631C625.49 246.273 624.354 246.904 623.211 247.523L623.687 248.402ZM633.851 242.506C634.963 241.821 636.068 241.127 637.168 240.425L636.63 239.582C635.534 240.281 634.433 240.972 633.327 241.654L633.851 242.506ZM643.711 236.126C644.793 235.397 645.87 234.661 646.944 233.92L646.377 233.097C645.305 233.836 644.23 234.57 643.152 235.297L643.711 236.126ZM653.348 229.424C654.409 228.668 655.468 227.908 656.526 227.145L655.941 226.334C654.884 227.096 653.827 227.854 652.767 228.61L653.348 229.424ZM662.854 222.552C663.906 221.785 664.959 221.017 666.011 220.249L665.422 219.441C664.369 220.209 663.317 220.977 662.265 221.744L662.854 222.552ZM672.333 215.654C673.388 214.892 674.445 214.132 675.504 213.374L674.922 212.561C673.862 213.319 672.803 214.081 671.747 214.844L672.333 215.654ZM681.886 208.874C682.955 208.132 684.028 207.395 685.104 206.665L684.542 205.837C683.463 206.57 682.388 207.309 681.316 208.052L681.886 208.874ZM691.611 202.356C692.704 201.652 693.802 200.956 694.905 200.269L694.376 199.42C693.269 200.11 692.166 200.809 691.069 201.515L691.611 202.356ZM701.591 196.256C702.717 195.607 703.849 194.969 704.989 194.341L704.507 193.465C703.361 194.096 702.223 194.737 701.092 195.389L701.591 196.256ZM711.897 190.73C713.058 190.156 714.227 189.595 715.405 189.047L714.983 188.14C713.798 188.692 712.622 189.256 711.454 189.834L711.897 190.73ZM722.549 185.946C723.75 185.462 724.961 184.993 726.182 184.54L725.834 183.603C724.604 184.059 723.385 184.531 722.175 185.019L722.549 185.946ZM733.554 182.045C734.789 181.667 736.036 181.306 737.294 180.962L737.03 179.998C735.762 180.344 734.506 180.708 733.261 181.089L733.554 182.045ZM744.862 179.143C746.122 178.881 747.393 178.637 748.676 178.411L748.503 177.426C747.21 177.654 745.928 177.9 744.658 178.164L744.862 179.143ZM756.377 177.304C757.659 177.16 758.953 177.034 760.26 176.928L760.179 175.931C758.862 176.038 757.558 176.165 756.266 176.31L756.377 177.304ZM768.029 176.529C768.684 176.514 769.342 176.505 770.004 176.5L769.996 175.5C769.33 175.505 768.667 175.515 768.007 175.529L768.029 176.529ZM770.004 176.5C770.695 176.495 771.384 176.498 772.069 176.508L772.083 175.508C771.391 175.498 770.695 175.495 769.996 175.5L770.004 176.5ZM780.21 176.975C781.567 177.112 782.91 177.277 784.24 177.47L784.384 176.481C783.039 176.286 781.681 176.118 780.31 175.98L780.21 176.975ZM792.254 178.991C793.585 179.304 794.904 179.643 796.21 180.009L796.479 179.046C795.16 178.676 793.828 178.333 792.483 178.017L792.254 178.991ZM803.966 182.523C805.244 182.994 806.512 183.489 807.768 184.007L808.149 183.082C806.881 182.56 805.602 182.06 804.311 181.585L803.966 182.523ZM815.201 187.381C816.42 187.985 817.63 188.609 818.831 189.251L819.303 188.369C818.093 187.722 816.874 187.093 815.645 186.485L815.201 187.381ZM825.922 193.31C827.086 194.018 828.241 194.742 829.39 195.48L829.931 194.639C828.775 193.897 827.613 193.168 826.442 192.456L825.922 193.31ZM836.172 200.049C837.287 200.832 838.395 201.627 839.499 202.433L840.088 201.625C838.98 200.816 837.867 200.018 836.747 199.231L836.172 200.049ZM846.041 207.357C847.119 208.191 848.192 209.033 849.263 209.88L849.884 209.096C848.811 208.247 847.734 207.403 846.653 206.566L846.041 207.357ZM855.643 215.022C856.7 215.887 857.756 216.755 858.809 217.625L859.446 216.854C858.391 215.983 857.335 215.114 856.276 214.248L855.643 215.022ZM865.118 222.864C866.168 223.739 867.219 224.614 868.27 225.486L868.909 224.717C867.859 223.845 866.808 222.971 865.757 222.096L865.118 222.864ZM874.601 230.709C875.661 231.575 876.723 232.437 877.787 233.293L878.414 232.514C877.352 231.66 876.292 230.799 875.233 229.934L874.601 230.709ZM884.233 238.378C885.321 239.216 886.412 240.046 887.507 240.866L888.106 240.065C887.016 239.248 885.928 238.421 884.844 237.586L884.233 238.378ZM894.165 245.679C895.294 246.464 896.428 247.235 897.568 247.992L898.121 247.159C896.987 246.406 895.859 245.639 894.736 244.858L894.165 245.679ZM904.527 252.374C905.709 253.075 906.898 253.759 908.095 254.423L908.58 253.548C907.392 252.889 906.211 252.211 905.038 251.514L904.527 252.374ZM915.421 258.178C916.664 258.762 917.916 259.322 919.179 259.859L919.569 258.938C918.319 258.407 917.078 257.851 915.846 257.273L915.421 258.178ZM926.884 262.768C928.188 263.199 929.503 263.601 930.831 263.975L931.101 263.012C929.789 262.643 928.488 262.245 927.198 261.819L926.884 262.768ZM938.853 265.836C940.199 266.081 941.558 266.296 942.931 266.479L943.063 265.488C941.707 265.307 940.363 265.095 939.033 264.852L938.853 265.836ZM951.155 267.169C952.508 267.217 953.874 267.233 955.253 267.217L955.241 266.217C953.877 266.233 952.527 266.217 951.19 266.17L951.155 267.169ZM963.483 266.736C964.173 266.664 964.866 266.585 965.563 266.496L965.437 265.504C964.748 265.592 964.062 265.671 963.379 265.742L963.483 266.736ZM965.563 266.496C966.232 266.412 966.897 266.324 967.558 266.232L967.421 265.242C966.764 265.332 966.103 265.42 965.437 265.504L965.563 266.496ZM975.404 264.959C976.718 264.713 978.013 264.455 979.292 264.183L979.084 263.205C977.814 263.475 976.526 263.732 975.22 263.976L975.404 264.959ZM987.028 262.338C988.32 261.995 989.594 261.639 990.851 261.271L990.57 260.311C989.321 260.677 988.055 261.03 986.772 261.371L987.028 262.338ZM998.42 258.847C999.682 258.407 1000.93 257.956 1002.16 257.493L1001.81 256.557C1000.58 257.017 999.346 257.465 998.091 257.902L998.42 258.847ZM1009.52 254.524C1010.74 253.996 1011.96 253.458 1013.15 252.911L1012.74 252.001C1011.55 252.545 1010.34 253.081 1009.12 253.606L1009.52 254.524ZM1020.31 249.468C1021.5 248.87 1022.67 248.264 1023.84 247.652L1023.37 246.767C1022.21 247.376 1021.04 247.98 1019.86 248.576L1020.31 249.468ZM1030.81 243.858C1031.97 243.209 1033.12 242.556 1034.26 241.901L1033.76 241.033C1032.62 241.687 1031.48 242.338 1030.32 242.985L1030.81 243.858ZM1041.11 237.912C1042.25 237.241 1043.39 236.57 1044.52 235.899L1044.01 235.038C1042.88 235.709 1041.74 236.38 1040.6 237.051L1041.11 237.912ZM1051.35 231.884C1052.49 231.219 1053.63 230.559 1054.78 229.903L1054.28 229.035C1053.13 229.692 1051.99 230.354 1050.85 231.02L1051.35 231.884ZM1061.68 226.044C1062.84 225.416 1064 224.796 1065.18 224.185L1064.71 223.299C1063.54 223.912 1062.37 224.535 1061.21 225.165L1061.68 226.044ZM1072.25 220.664C1073.43 220.103 1074.63 219.554 1075.84 219.017L1075.43 218.103C1074.21 218.644 1073.01 219.196 1071.82 219.76L1072.25 220.664ZM1083.13 215.988C1084.35 215.52 1085.59 215.065 1086.84 214.624L1086.5 213.681C1085.25 214.125 1084 214.583 1082.78 215.055L1083.13 215.988ZM1094.34 212.218C1095.6 211.856 1096.87 211.509 1098.16 211.179L1097.91 210.21C1096.61 210.543 1095.33 210.892 1094.07 211.257L1094.34 212.218ZM1105.85 209.451C1107.13 209.203 1108.42 208.972 1109.74 208.757L1109.57 207.77C1108.25 207.987 1106.95 208.22 1105.66 208.469L1105.85 209.451ZM1117.56 207.705C1118.22 207.635 1118.88 207.569 1119.55 207.508L1119.45 206.512C1118.78 206.574 1118.11 206.64 1117.45 206.711L1117.56 207.705ZM1119.55 207.508C1120.24 207.444 1120.93 207.382 1121.62 207.322L1121.54 206.326C1120.84 206.386 1120.15 206.448 1119.45 206.512L1119.55 207.508ZM1129.86 206.709C1131.24 206.622 1132.62 206.546 1133.98 206.479L1133.93 205.48C1132.56 205.547 1131.18 205.624 1129.79 205.711L1129.86 206.709ZM1142.23 206.184C1143.61 206.153 1144.99 206.133 1146.36 206.123L1146.35 205.123C1144.98 205.133 1143.6 205.154 1142.2 205.184L1142.23 206.184ZM1154.6 206.186C1155.99 206.218 1157.36 206.26 1158.73 206.313L1158.77 205.314C1157.4 205.261 1156.02 205.218 1154.62 205.186L1154.6 206.186ZM1166.98 206.768C1168.35 206.867 1169.72 206.977 1171.09 207.098L1171.17 206.101C1169.81 205.98 1168.43 205.87 1167.05 205.771L1166.98 206.768ZM1179.29 207.965C1180.67 208.134 1182.03 208.314 1183.39 208.504L1183.53 207.514C1182.16 207.322 1180.79 207.142 1179.42 206.973L1179.29 207.965ZM1191.54 209.787C1192.89 210.024 1194.25 210.272 1195.6 210.53L1195.78 209.548C1194.43 209.289 1193.07 209.04 1191.71 208.802L1191.54 209.787ZM1203.68 212.211C1205.02 212.511 1206.36 212.822 1207.7 213.143L1207.93 212.171C1206.59 211.849 1205.24 211.537 1203.9 211.235L1203.68 212.211ZM1215.7 215.181C1217.03 215.538 1218.35 215.904 1219.68 216.279L1219.96 215.317C1218.62 214.94 1217.29 214.573 1215.96 214.215L1215.7 215.181ZM1227.6 218.617C1228.91 219.02 1230.22 219.431 1231.54 219.85L1231.84 218.898C1230.52 218.477 1229.21 218.065 1227.89 217.661L1227.6 218.617ZM1239.4 222.431C1240.69 222.869 1241.99 223.315 1243.3 223.767L1243.63 222.822C1242.32 222.369 1241.02 221.923 1239.72 221.484L1239.4 222.431ZM1251.09 226.524C1252.38 226.989 1253.68 227.461 1254.98 227.939L1255.33 227C1254.02 226.521 1252.72 226.049 1251.43 225.583L1251.09 226.524ZM1262.72 230.814C1264 231.297 1265.29 231.784 1266.59 232.277L1266.95 231.342C1265.65 230.849 1264.35 230.361 1263.07 229.878L1262.72 230.814ZM1274.31 235.231C1275.59 235.722 1276.87 236.219 1278.17 236.72L1278.53 235.787C1277.23 235.286 1275.95 234.789 1274.67 234.297L1274.31 235.231ZM1285.88 239.711C1286.52 239.961 1287.17 240.213 1287.82 240.466L1288.18 239.534C1287.53 239.281 1286.88 239.029 1286.24 238.779L1285.88 239.711ZM1287.82 240.466C1288.43 240.703 1289.04 240.943 1289.65 241.188L1290.02 240.259C1289.41 240.014 1288.79 239.772 1288.18 239.534L1287.82 240.466ZM1297 244.257C1298.21 244.785 1299.43 245.327 1300.65 245.88L1301.06 244.969C1299.84 244.414 1298.61 243.871 1297.4 243.34L1297 244.257ZM1307.86 249.251C1309.05 249.824 1310.24 250.408 1311.44 251L1311.88 250.104C1310.69 249.51 1309.49 248.925 1308.3 248.35L1307.86 249.251ZM1318.55 254.613C1319.72 255.224 1320.9 255.842 1322.07 256.467L1322.54 255.584C1321.36 254.958 1320.19 254.338 1319.01 253.726L1318.55 254.613ZM1329.08 260.271C1330.24 260.914 1331.4 261.563 1332.56 262.217L1333.05 261.346C1331.89 260.69 1330.73 260.04 1329.56 259.396L1329.08 260.271ZM1339.48 266.178C1340.63 266.846 1341.77 267.518 1342.92 268.194L1343.43 267.333C1342.28 266.656 1341.13 265.983 1339.98 265.314L1339.48 266.178ZM1349.76 272.293C1350.9 272.983 1352.03 273.677 1353.16 274.372L1353.69 273.52C1352.55 272.824 1351.42 272.13 1350.28 271.438L1349.76 272.293ZM1359.93 278.588C1361.06 279.298 1362.18 280.009 1363.3 280.721L1363.84 279.878C1362.72 279.165 1361.59 278.453 1360.47 277.742L1359.93 278.588ZM1370 285.038C1371.12 285.768 1372.24 286.498 1373.35 287.227L1373.9 286.391C1372.79 285.662 1371.67 284.931 1370.55 284.2L1370 285.038ZM1379.99 291.639C1381.1 292.382 1382.2 293.123 1383.29 293.861L1383.85 293.032C1382.76 292.294 1381.66 291.552 1380.55 290.808L1379.99 291.639ZM1389.89 298.361C1390.99 299.119 1392.08 299.873 1393.16 300.621L1393.73 299.799C1392.65 299.051 1391.56 298.297 1390.46 297.538L1389.89 298.361ZM1399.7 305.197C1400.8 305.975 1401.88 306.745 1402.95 307.506L1403.53 306.691C1402.46 305.929 1401.38 305.159 1400.27 304.38L1399.7 305.197ZM1409.43 312.15C1410.53 312.945 1411.61 313.726 1412.66 314.492L1413.25 313.684C1412.2 312.917 1411.12 312.135 1410.02 311.339L1409.43 312.15ZM1419.11 319.224C1420.21 320.039 1421.27 320.83 1422.3 321.595L1422.9 320.794C1421.87 320.028 1420.81 319.236 1419.7 318.421L1419.11 319.224ZM1428.66 326.379C1429.81 327.246 1430.87 328.057 1431.85 328.808L1432.46 328.014C1431.48 327.262 1430.41 326.45 1429.27 325.582L1428.66 326.379ZM1438.18 333.704C1438.68 334.091 1439.05 334.388 1439.31 334.588C1439.43 334.688 1439.53 334.764 1439.59 334.815C1439.62 334.84 1439.65 334.859 1439.66 334.872C1439.67 334.878 1439.68 334.883 1439.68 334.886C1439.68 334.888 1439.69 334.889 1439.69 334.89C1439.69 334.89 1439.69 334.891 1439.69 334.891C1439.69 334.891 1439.69 334.891 1439.69 334.891C1439.69 334.891 1439.69 334.891 1439.69 334.891C1439.69 334.891 1439.69 334.891 1439.69 334.891C1439.69 334.891 1439.69 334.891 1440 334.5C1440.31 334.109 1440.31 334.109 1440.31 334.109C1440.31 334.109 1440.31 334.109 1440.31 334.109C1440.31 334.109 1440.31 334.109 1440.31 334.109C1440.31 334.109 1440.31 334.109 1440.31 334.109C1440.31 334.108 1440.31 334.108 1440.31 334.108C1440.31 334.107 1440.31 334.106 1440.31 334.104C1440.3 334.101 1440.29 334.096 1440.29 334.089C1440.27 334.076 1440.25 334.057 1440.21 334.031C1440.15 333.98 1440.05 333.904 1439.93 333.804C1439.67 333.603 1439.29 333.305 1438.8 332.917L1438.18 333.704Z" fill="#949DAF"/>
<ellipse cx="908.626" cy="160.002" rx="2.62628" ry="2.42517" fill="#2A3B5E" fill-opacity="0.2"/>
<ellipse cx="1382.63" cy="181.5" rx="2.62628" ry="2.5" fill="#2A3B5E" fill-opacity="0.2"/>
<ellipse cx="1390.25" cy="301" rx="5.25257" ry="5" fill="#2A3B5E" fill-opacity="0.2"/>
<ellipse cx="72.2526" cy="384" rx="5.25257" ry="5" fill="#2A3B5E" fill-opacity="0.2"/>
<ellipse cx="459.253" cy="341" rx="5.25257" ry="5" fill="#2A3B5E" fill-opacity="0.2"/>
<ellipse cx="857.253" cy="314" rx="5.25257" ry="5" fill="#2A3B5E" fill-opacity="0.2"/>
<ellipse cx="958.626" cy="395.5" rx="2.62628" ry="2.5" fill="#2A3B5E" fill-opacity="0.2"/>
<ellipse cx="102.193" cy="387.5" rx="2.62628" ry="2.5" fill="#2A3B5E" fill-opacity="0.2"/>
<ellipse cx="580.626" cy="326.5" rx="2.62628" ry="2.5" fill="#2A3B5E" fill-opacity="0.2"/>
<ellipse cx="495.538" cy="367" rx="5.25257" ry="5" fill="#2A3B5E" fill-opacity="0.2"/>
<ellipse cx="1320.4" cy="256" rx="5.25257" ry="5" fill="#2A3B5E" fill-opacity="0.2"/>
<ellipse cx="536.253" cy="143" rx="5.25257" ry="5" fill="#2A3B5E" fill-opacity="0.2"/>
<ellipse cx="28.2526" cy="619" rx="5.25257" ry="5" fill="#2A3B5E" fill-opacity="0.2"/>
<ellipse cx="1171.25" cy="138" rx="5.25257" ry="5" fill="#2A3B5E" fill-opacity="0.2"/>
</g>
<path d="M1339.94 270.804C1340.14 272.265 1339.88 273.656 1338.75 274.836C1338.02 275.607 1337.16 276.063 1336.07 275.993C1335.39 275.958 1334.7 275.911 1334.03 275.958C1330.87 276.157 1328.79 273.246 1329.2 270.371C1329.31 269.647 1329.54 268.934 1329.76 268.244C1329.89 267.847 1329.88 267.532 1329.54 267.251C1328.91 266.737 1328.3 266.176 1327.63 265.732C1326.27 264.832 1324.86 264.002 1323.48 263.126C1323.09 262.88 1322.72 262.775 1322.34 263.067C1320.08 264.82 1317.55 264.715 1314.92 264.201C1313.05 263.838 1311.3 263.266 1309.94 261.84C1309.67 261.56 1309.43 261.256 1309.19 260.94C1308.95 260.601 1308.65 260.508 1308.28 260.648C1306.02 261.466 1303.74 262.307 1301.48 263.126C1300.95 263.313 1300.67 263.663 1300.61 264.248C1300.4 266.316 1299.39 268.046 1298.08 269.588C1297.74 269.998 1297.12 270.29 1296.58 270.383C1295.4 270.582 1294.21 270.383 1293.1 269.904C1290.64 268.841 1289.48 266.41 1290.23 263.745C1290.71 262.039 1291.57 260.554 1293.27 259.83C1295.35 258.942 1297.29 259.327 1298.97 260.823C1299.46 261.256 1299.88 261.337 1300.49 261.104C1302.82 260.204 1305.15 259.339 1307.49 258.498C1308 258.311 1308.16 258.053 1308.03 257.539C1307.91 257.072 1307.84 256.581 1307.76 256.113C1307.62 255.249 1307.68 254.407 1308.07 253.612C1309.8 249.954 1312.53 247.652 1316.67 247.208C1316.85 247.185 1317.01 247.126 1317.19 247.114C1317.75 247.068 1317.94 246.764 1317.94 246.215C1317.94 244.286 1317.96 242.37 1317.98 240.441C1317.98 239.985 1317.89 239.576 1317.39 239.53C1315.32 239.319 1314.48 237.835 1314 236.14C1313.56 234.598 1313.7 233.02 1314.42 231.536C1315.12 230.016 1316.37 229.303 1317.96 229.116C1317.98 229.116 1318 229.116 1318.02 229.116C1319.24 228.988 1320.48 228.778 1321.54 229.689C1322.92 230.916 1323.98 232.319 1324.35 234.2C1324.56 235.276 1324.37 236.316 1324.14 237.309C1323.83 238.571 1322.81 239.214 1321.56 239.471C1320.82 239.623 1320.71 239.717 1320.75 240.465C1320.83 242.405 1320.9 244.345 1320.98 246.296C1321.02 247.138 1321.12 247.173 1321.98 247.196C1322.75 247.22 1323.55 247.255 1324.29 247.453C1325.5 247.769 1326.11 248.645 1326.36 249.873C1327.02 253.04 1326.81 256.09 1325.4 259.023C1325.24 259.374 1325.33 259.655 1325.61 259.9C1326.79 260.928 1327.94 261.98 1329.13 262.974C1329.51 263.289 1329.99 263.5 1330.42 263.768C1330.83 264.025 1331.29 264.248 1331.62 264.575C1332.32 265.299 1333.14 265.568 1334.15 265.521C1335.66 265.463 1337.09 265.79 1338.33 266.725C1339.36 267.496 1340.04 268.478 1339.95 269.846C1339.92 270.138 1339.94 270.43 1339.94 270.804ZM1312.56 258.077C1312.6 258.112 1312.65 258.147 1312.7 258.17C1312.78 258.124 1312.86 258.088 1312.93 258.03C1313.38 257.598 1313.8 257.142 1314.27 256.721C1314.9 256.148 1315.59 255.704 1316.49 255.704C1316.99 255.704 1317.46 255.774 1317.66 256.289C1317.87 256.838 1317.58 257.177 1317.19 257.586C1316.31 258.509 1315.52 259.526 1314.74 260.519C1314.65 260.625 1314.75 260.858 1314.76 261.022C1314.91 260.963 1315.1 260.952 1315.21 260.858C1315.44 260.625 1315.62 260.344 1315.84 260.099C1316.31 259.596 1316.83 259.222 1317.56 259.269C1318.11 259.304 1318.31 259.666 1318.05 260.145C1317.89 260.449 1317.71 260.73 1317.48 261.127C1317.83 261.162 1318.07 261.221 1318.3 261.209C1319.45 261.115 1320.32 260.519 1321 259.643C1322.45 257.773 1323.22 255.658 1323.27 253.285C1323.31 251.859 1322.7 251.006 1321.29 250.667C1319.89 250.328 1318.48 250.305 1317.07 250.656C1316.07 250.901 1315.13 251.275 1314.6 252.245C1314.16 253.028 1314.23 253.11 1315.02 253.402C1315.36 253.531 1315.71 253.846 1315.89 254.173C1316.1 254.559 1315.67 254.769 1315.43 255.003C1314.6 255.798 1313.76 256.581 1312.95 257.399C1312.78 257.598 1312.69 257.855 1312.56 258.077ZM1334.99 268.128C1334.48 268.244 1334.09 268.256 1333.77 268.431C1333.51 268.572 1333.16 268.899 1333.18 269.121C1333.26 270.395 1333.32 271.692 1334.27 272.709C1334.63 273.095 1335.03 273.176 1335.46 272.908C1336.3 272.393 1337 271.727 1337.43 270.816C1337.83 269.974 1337.62 269.144 1336.79 268.735C1336.2 268.443 1335.52 268.303 1334.99 268.128ZM1317.66 235.65C1317.62 236.257 1317.82 236.655 1318.26 236.912C1318.8 237.216 1319.37 237.297 1319.93 236.947C1320.73 236.444 1321.18 235.696 1321.42 234.796C1321.73 233.569 1320.9 232.529 1319.64 232.599C1319.43 232.611 1319.16 232.704 1319.01 232.845C1318.24 233.663 1317.77 234.621 1317.66 235.65ZM1295.18 264.785C1295.17 264.785 1295.16 264.785 1295.15 264.785C1295.15 265.171 1295.16 265.568 1295.15 265.954C1295.11 266.55 1295.41 266.982 1295.81 267.38C1296.12 267.695 1296.4 267.695 1296.71 267.368C1297.81 266.223 1298.22 264.855 1298 263.301C1297.93 262.787 1297.56 262.424 1297.07 262.272C1296.74 262.167 1295.34 262.845 1295.25 263.102C1295.21 263.231 1295.2 263.371 1295.2 263.5C1295.18 263.932 1295.18 264.353 1295.18 264.785Z" fill="#FF719C"/>
<path d="M515.877 257.474L512.136 256.525C511.698 256.42 511.261 256.525 510.97 256.842L508.103 259.636C507.325 260.427 506.014 259.847 505.916 258.687L505.625 254.522C505.576 254.047 505.333 253.626 504.993 253.415L501.641 251.306C500.717 250.726 500.815 249.25 501.786 248.775L505.333 247.194C505.722 247.035 506.014 246.614 506.111 246.192L506.888 242.132C507.131 240.972 508.443 240.603 509.123 241.5L511.601 244.663C511.893 245.032 512.281 245.19 512.719 245.137L516.557 244.716C517.626 244.61 518.355 245.876 517.82 246.877L515.828 250.41C515.585 250.831 515.585 251.306 515.731 251.728L517.286 255.524C517.82 256.578 516.946 257.738 515.877 257.474Z" fill="#009DAF"/>
<path d="M911.876 259.671L909.895 259.171C909.664 259.116 909.432 259.171 909.278 259.338L907.76 260.808C907.349 261.225 906.654 260.919 906.603 260.309L906.448 258.117C906.423 257.867 906.294 257.645 906.114 257.534L904.339 256.424C903.85 256.119 903.902 255.342 904.416 255.092L906.294 254.26C906.5 254.177 906.654 253.955 906.706 253.733L907.117 251.596C907.246 250.985 907.94 250.791 908.301 251.263L909.612 252.928C909.767 253.122 909.973 253.205 910.204 253.178L912.236 252.956C912.802 252.9 913.188 253.566 912.905 254.093L911.85 255.952C911.722 256.174 911.722 256.424 911.799 256.646L912.622 258.644C912.905 259.199 912.442 259.809 911.876 259.671Z" fill="#FF719C"/>
<ellipse cx="725.884" cy="98.5" rx="2.62628" ry="2.5" fill="#2A3B5E" fill-opacity="0.2"/>
<ellipse cx="249.304" cy="88.5" rx="2.62628" ry="2.5" fill="#2A3B5E" fill-opacity="0.2"/>
<path d="M877.19 168.054C876.759 166.775 876.361 165.479 875.888 164.22C875.593 163.431 875.013 162.838 874.31 162.367C873.233 161.645 872.162 160.905 871.078 160.194C870.696 159.947 870.264 159.729 869.835 159.567C867.495 158.679 865.406 157.353 863.246 156.135C862.85 155.91 862.468 155.662 862.054 155.487C861.764 155.358 861.436 155.275 861.114 155.256C860.676 155.226 860.317 155.383 860.136 155.834C859.94 156.307 859.722 156.766 859.485 157.221C859.3 157.57 859.051 157.888 858.877 158.244C858.726 158.539 858.599 158.857 858.519 159.173C858.442 159.461 858.615 159.653 858.863 159.801C859.024 159.895 859.141 160.045 859.288 160.16C859.505 160.334 859.716 160.527 859.96 160.658C861.958 161.735 864.119 162.45 866.222 163.28C868.044 163.989 869.496 165.182 870.789 166.589C871.393 167.251 871.646 168.058 871.495 168.949C871.296 170.13 870.927 171.266 870.375 172.333C870.29 172.501 870.117 172.69 869.951 172.746C868.808 173.129 867.662 173.541 866.429 173.553C865.448 173.564 864.509 173.342 863.608 172.99C861.976 172.34 860.33 171.713 858.749 170.958C857.807 170.504 856.983 169.827 856.1 169.257C855.791 169.049 855.495 168.809 855.168 168.642C854.904 168.507 854.598 168.391 854.304 168.375C854.094 168.358 853.808 168.461 853.674 168.622C853.294 169.063 852.926 169.519 852.654 170.028C852.265 170.731 851.922 171.471 851.618 172.22C851.301 172.991 851.533 173.579 852.253 174.001C853.422 174.673 854.589 175.336 855.757 176.008C856.003 176.147 856.235 176.308 856.453 176.491C857.264 177.152 858.206 177.56 859.188 177.893C860.28 178.22 861.351 178.616 862.446 178.952C864.435 179.566 866.473 179.76 868.569 179.624C870.315 179.512 871.859 178.954 873.25 177.909C874.006 177.345 874.594 176.652 875.015 175.802C875.242 175.34 875.584 174.936 875.779 174.463C876.364 173.073 877.051 171.724 877.192 170.194C877.258 169.471 877.31 168.771 877.092 168.076C877.127 168.068 877.154 168.062 877.19 168.054ZM860.559 158.017C860.758 157.431 860.826 157.397 861.415 157.523C862.014 157.646 862.614 157.732 863.21 157.847C863.309 157.871 863.39 157.982 863.481 158.055C863.38 158.152 863.295 158.274 863.183 158.318C863.097 158.356 862.962 158.294 862.854 158.273C862.091 158.168 861.345 157.883 860.559 158.017C860.647 158.118 860.727 158.267 860.849 158.313C861.098 158.424 861.372 158.519 861.645 158.568C862.123 158.654 862.62 158.699 863.114 158.772C863.053 159.093 862.85 159.065 862.66 159.052C862.178 159.032 861.689 159.023 861.214 158.993C861.035 158.987 860.829 158.988 860.688 158.899C860.109 158.567 859.906 158.623 860.559 158.017ZM862.621 176.511C862.84 176.228 863.029 176.026 863.167 175.799C863.278 175.625 863.391 175.413 863.403 175.215C863.412 175.082 863.303 174.884 863.185 174.818C863.089 174.765 862.868 174.825 862.775 174.912C862.454 175.199 862.161 175.527 861.866 175.846C861.676 176.048 861.469 176.17 861.206 176.081C860.77 175.93 860.337 175.75 859.908 175.588C859.774 175.534 859.632 175.483 859.495 175.459C859.24 175.406 858.961 175.414 858.741 175.306C858.011 174.971 857.303 174.602 856.585 174.236C856.374 174.127 856.364 173.952 856.439 173.74C856.628 173.194 856.815 172.639 857.004 172.093C857.171 171.617 857.185 171.596 857.619 171.822C859.374 172.778 861.214 173.52 863.1 174.177C864.47 174.654 865.868 174.966 867.328 174.957C867.899 174.957 868.515 174.946 869.032 174.744C870.907 174.026 872.171 172.703 872.565 170.705C872.761 169.72 872.78 168.701 872.879 167.701C872.954 166.977 872.663 166.42 872.175 165.908C871.531 165.237 870.807 164.668 870.023 164.168C868.841 163.396 867.672 162.594 866.486 161.842C866.149 161.631 865.736 161.54 865.36 161.365C864.849 161.128 864.343 160.872 863.853 160.603C863.777 160.555 863.72 160.336 863.767 160.251C864.026 159.726 864.307 159.215 864.601 158.719C864.648 158.634 864.832 158.536 864.886 158.57C865.374 158.83 865.91 159.052 866.307 159.408C866.634 159.705 866.957 159.938 867.374 160.085C868.278 160.408 869.204 160.698 870.084 161.083C872.147 161.987 873.781 163.372 874.746 165.459C875.07 166.166 875.437 166.855 875.727 167.579C875.888 167.97 876.03 168.403 876.027 168.813C876.006 170.465 875.67 172.05 874.84 173.515C874.74 173.696 874.639 173.878 874.558 174.064C874.035 175.263 873.146 176.118 872.061 176.804C871.831 176.95 871.566 177.067 871.303 177.108C870.371 177.257 869.433 177.378 868.498 177.472C867.959 177.53 867.971 177.5 867.891 176.969C867.867 176.816 867.731 176.624 867.598 176.571C867.464 176.517 867.237 176.588 867.116 176.681C866.94 176.815 866.827 177.026 866.667 177.193C866.567 177.291 866.428 177.425 866.315 177.423C866.014 177.418 865.717 177.346 865.36 177.298C865.454 177.127 865.516 177.029 865.568 176.924C865.683 176.721 865.824 176.512 865.919 176.304C866.026 176.065 866.153 175.794 865.842 175.614C865.562 175.446 865.368 175.63 865.194 175.819C864.913 176.116 864.655 176.435 864.363 176.726C864.263 176.823 864.075 176.95 863.966 176.919C863.521 176.816 863.105 176.67 862.621 176.511ZM853.263 171.564C853.264 171.526 853.254 171.482 853.255 171.444C854.107 171.398 854.956 171.343 855.817 171.295C855.832 171.319 855.846 171.344 855.861 171.368C855.728 171.445 855.612 171.556 855.471 171.597C855.304 171.645 855.116 171.642 854.93 171.647C854.364 171.674 853.809 171.746 853.263 171.564ZM853.88 170.408C853.841 170.361 853.814 170.321 853.775 170.274C853.874 170.167 853.968 170.043 854.079 169.953C854.159 169.888 854.292 169.811 854.355 169.843C854.563 169.935 854.742 170.071 854.929 170.195C854.972 170.223 855.012 170.316 854.995 170.366C854.987 170.415 854.896 170.473 854.848 170.465C854.518 170.457 854.194 170.429 853.88 170.408Z" fill="#4150A3"/>
<path d="M853.55 155.879C853.28 156.145 853.082 156.349 852.863 156.549C852.605 156.785 852.533 157.053 852.652 157.38C852.758 157.691 853.005 157.793 853.299 157.763C854.124 157.676 854.953 157.57 855.774 157.466C856.157 157.416 856.549 157.363 856.922 157.269C857.091 157.23 857.279 157.103 857.389 156.966C857.571 156.728 857.459 156.428 857.162 156.403C856.665 156.358 856.172 156.378 855.669 156.391C855.425 156.39 855.178 156.419 854.827 156.444C854.95 156.276 855.002 156.171 855.077 156.088C855.288 155.853 855.519 155.623 855.719 155.382C855.905 155.162 855.922 154.898 855.792 154.648C855.662 154.398 855.443 154.299 855.17 154.334C854.028 154.474 852.887 154.614 851.743 154.783C851.08 154.879 850.417 155.021 849.764 155.162C849.648 155.188 849.463 155.286 849.461 155.361C849.451 155.485 849.529 155.672 849.627 155.733C849.83 155.845 850.066 155.94 850.29 155.936C851.29 155.921 852.291 155.869 853.286 155.827C853.343 155.833 853.395 155.858 853.55 155.879Z" fill="#4150A3"/>
<path d="M848.887 168.894C849.115 168.609 849.353 168.33 849.549 168.025C849.904 167.468 849.659 166.993 848.994 166.996C848.518 167.003 848.047 167.12 847.574 167.145C846.76 167.192 845.935 167.194 845.119 167.232C844.952 167.242 844.781 167.272 844.613 167.32C844.276 167.407 844.101 167.633 844.127 167.925C844.152 168.208 844.373 168.446 844.701 168.446C845.06 168.457 845.43 168.391 845.791 168.373C846.404 168.345 847.018 168.325 847.634 168.314C847.69 168.311 847.735 168.347 847.854 168.376C847.746 168.522 847.66 168.644 847.565 168.768C847.45 168.925 847.302 169.061 847.226 169.228C847.032 169.626 847.21 170.051 847.642 170.138C848.014 170.212 848.402 170.225 848.785 170.221C849.729 170.21 850.67 170.181 851.617 170.141C851.821 170.131 852.051 170.069 852.234 169.962C852.351 169.898 852.468 169.704 852.451 169.586C852.444 169.467 852.287 169.307 852.164 169.261C851.96 169.186 851.723 169.176 851.498 169.171C850.836 169.146 850.178 169.138 849.518 169.122C849.357 169.112 849.191 169.085 849.028 169.066C848.968 169.006 848.927 168.95 848.887 168.894Z" fill="#4150A3"/>
</svg>
