<svg width="176" height="105" viewBox="0 0 176 105" fill="none" xmlns="http://www.w3.org/2000/svg">
<path fill-rule="evenodd" clip-rule="evenodd" d="M75.8742 0.637238C75.163 0.914304 67.7924 4.88443 59.4951 9.46033C51.1978 14.0354 35.9023 22.1994 25.5058 27.603C5.26723 38.1204 0.0215875 41.927 3.59837e-05 46.1131C-0.0120329 48.3546 3.00431 54.9922 20.3541 90.9033C27.2446 105.166 29.9721 106.731 42.6849 103.723C49.4081 102.132 53.6632 100.204 66.5028 92.9322C76.3406 87.3608 77.1837 87.0398 78.6087 88.3271C81.1923 90.6615 100.291 91.429 135.913 90.6314C172.506 89.8122 170.415 90.3078 172.687 81.9141C174.603 74.8377 176.45 29.4057 175.034 24.169C173.656 19.0682 170.274 15.9258 164.147 14.0526C158.248 12.2491 141.665 11.9806 112.005 13.2085L94.2568 13.9433L90.1939 8.26087C85.0164 1.01842 80.738 -1.2592 75.8742 0.637238ZM90.0982 12.9873C96.0257 21.8388 98.0542 26.4715 103.819 44.326C106.808 53.5845 106.747 53.8762 102.383 51.1769C95.1654 46.7137 84.8362 42.1542 79.7535 41.1879C76.9087 40.6467 74.107 39.7699 73.5268 39.2381C72.7036 38.4844 73.295 35.5347 76.2251 25.7892C78.2897 18.9236 80.4449 11.0651 81.0147 8.32455C81.6492 5.27509 82.4414 3.46556 83.0569 3.65916C83.6112 3.83297 86.7793 8.03111 90.0982 12.9873ZM77.5983 6.33173C77.5983 8.76595 71.5174 30.316 68.9459 36.9966C66.3597 43.7142 62.6502 49.1273 58.921 51.6244C55.9167 53.6361 55.077 53.7643 45.9426 53.6034C31.2738 53.3444 18.7878 51.201 8.37409 47.1551C3.19483 45.1425 5.24395 43.3502 27.5989 30.3462C67.3304 7.23434 72.7372 4.29933 75.5716 4.29933C77.1268 4.29933 77.5983 4.77172 77.5983 6.33173ZM158.939 16.7647C170.334 19.1749 173.302 22.6546 173.259 33.5548C173.245 37.1042 172.851 42.9122 172.383 46.4616C171.915 50.011 171.187 59.8374 170.766 68.2982C169.83 87.1138 170 86.823 159.357 87.7669C150.029 88.5947 89.3991 88.1188 84.9965 87.1835C83.1388 86.7894 81.4707 86.0228 81.2897 85.4798C81.1087 84.9369 84.6862 82.439 89.2413 79.9273C98.0102 75.0924 106.053 69.0761 108.916 65.2092C110.528 63.0323 110.572 62.4713 109.566 56.8542C108.973 53.5423 108.738 50.43 109.042 49.9379C109.347 49.4457 111.102 49.043 112.943 49.043C118.133 49.043 117.792 47.5794 112.498 47.1414C107.25 46.7069 106.459 46.2895 107.206 44.3475C107.572 43.395 109.001 43.0026 112.27 42.9596C117.455 42.8907 121.11 41.8117 118.977 40.9788C118.266 40.7017 114.775 40.3696 111.219 40.2414C104.959 40.0159 104.753 39.9394 104.753 37.8571C104.753 35.7369 104.855 35.7059 111.849 35.7059C121.631 35.7059 121.501 34.053 111.695 33.7338C103.625 33.4713 101.736 32.7486 101.736 29.9211C101.736 28.3404 102.273 28.2329 109.279 28.4144C118.983 28.6648 120.052 28.571 119.408 27.5316C119.115 27.0584 117.25 26.6686 115.263 26.6651C113.276 26.6617 109.024 26.4113 105.815 26.1093L99.9809 25.5586L98.2723 21.7037C97.3326 19.5827 96.5637 17.5323 96.5637 17.1459C96.5637 16.0523 102.03 15.7959 128.46 15.6504C147.086 15.548 154.458 15.8174 158.939 16.7647ZM145.55 22.3568C142.268 24.3712 141.841 34.2862 144.954 36.2067C146.594 37.2186 160.499 36.6257 162.652 35.4521C165.052 34.1425 165.329 33.1831 164.633 28.6037C163.767 22.9067 162.346 21.9782 154.076 21.7046C150.181 21.5755 146.344 21.869 145.55 22.3568ZM160.929 26.2822C161.607 27.2064 161.966 28.7165 161.727 29.638C161.486 30.5596 161.687 31.7909 162.172 32.3734C162.837 33.1745 162.137 33.5703 159.296 33.9953C155.142 34.6166 148.381 34.2466 146.871 33.3147C144.975 32.1445 145.018 27.5901 146.945 25.5147C148.586 23.7473 149.288 23.6097 154.227 24.0812C158.244 24.4641 160.021 25.0475 160.929 26.2822ZM80.1345 43.4913C87.2163 45.1572 99.8283 51.7732 103.945 55.9826C110.939 63.1312 107.614 66.5971 77.0165 84.0558C46.5935 101.415 40.2048 104.088 34.9057 101.678C31.9997 100.356 31.5695 96.6847 32.7144 82.9707C33.7945 70.0191 34.9298 63.6251 36.7962 59.9768L38.0255 57.5744L46.5211 58.1586C54.2012 58.6861 55.3925 58.5613 58.9218 56.8559C62.6649 55.0472 63.5502 53.9846 69.5639 44.0954C70.9484 41.8186 72.6199 41.7231 80.1345 43.4913ZM11.3327 51.0883C14.3525 52.2138 20.6938 53.7858 25.4239 54.5826C30.154 55.3785 34.1626 56.1684 34.3316 56.3362C34.5005 56.5049 34.0376 59.6765 33.3031 63.3833C31.6195 71.8838 30.404 81.5372 29.6635 92.2877C28.9566 102.557 28.2773 102.37 22.667 90.3508C16.2188 76.5371 5.18533 51.0969 5.18533 50.0411C5.18533 48.7504 4.94912 48.71 11.3327 51.0883ZM133.978 53.4829C133.27 54.6256 141.779 55.4964 152.825 55.4129C162.644 55.3381 165.729 54.9337 164.595 53.8693C163.923 53.2394 134.36 52.8669 133.978 53.4829ZM133.632 60.9663C133.632 61.7794 146.376 62.5668 157.697 62.4532C162.679 62.4033 165.065 62.0427 165.312 61.3045C165.591 60.4698 162.085 60.2289 149.652 60.2289C140.842 60.2289 133.632 60.561 133.632 60.9663ZM132.333 67.9833C131.512 69.3101 133.057 69.5175 148.503 70.1534C158.958 70.5845 163.804 70.4993 163.804 69.8858C163.804 68.5297 133.143 66.6754 132.333 67.9833ZM132.77 77.3081C132.77 78.116 159.009 79.2906 160.897 78.5678C164.533 77.1747 160.49 76.5775 147.425 76.5775C139.365 76.5775 132.77 76.9062 132.77 77.3081Z" fill="#2A3B5E" fill-opacity="0.8"/>
</svg>
