<svg width="135" height="135" viewBox="0 0 135 135" fill="none" xmlns="http://www.w3.org/2000/svg">
<circle cx="67.5" cy="67.5" r="65" fill="#009564" stroke="#009564" stroke-width="5"/>
<g clip-path="url(#clip0)">
<path d="M38.6493 73.9439C38.6277 73.0562 38.4485 72.1881 38.4485 71.2833C38.4485 70.9021 38.4485 70.5209 38.4485 70.1398C38.4485 69.7476 38.4108 69.7091 38.7497 69.5485C39.8385 69.0328 41.2794 69.225 42.4646 69.225" stroke="white" stroke-width="2" stroke-linecap="round" stroke-linejoin="round"/>
<path d="M48.79 69.3252C50.4994 69.3624 55.6203 69.6264 53.9106 69.6264" stroke="white" stroke-width="2" stroke-linecap="round" stroke-linejoin="round"/>
<path d="M58.8301 69.526C60.8119 69.526 62.7774 69.3252 64.7538 69.3252" stroke="white" stroke-width="2" stroke-linecap="round" stroke-linejoin="round"/>
<path d="M69.8784 69.6978C70.5728 69.6978 71.2866 69.723 71.9809 69.7577C72.7918 69.7983 73.606 69.7977 74.4149 69.8651C74.8254 69.8993 75.2843 69.925 75.6745 69.925" stroke="white" stroke-width="2" stroke-linecap="round" stroke-linejoin="round"/>
<path d="M80.4478 69.7549C81.6491 69.7549 82.8492 69.6981 84.0529 69.6981C84.5694 69.6981 85.0906 69.7177 85.6061 69.6855C85.9353 69.6649 86.2576 69.5845 86.5847 69.5845" stroke="white" stroke-width="2" stroke-linecap="round" stroke-linejoin="round"/>
<path d="M91.4146 69.5842C92.0017 69.5842 92.5889 69.5842 93.1761 69.5842C93.7209 69.5842 94.2321 69.4706 94.7672 69.4706C95.1355 69.4706 95.5038 69.4706 95.8721 69.4706C96.0841 69.4706 96.3582 69.3806 96.3582 69.6411C96.3582 69.8494 96.3582 70.0578 96.3582 70.2661C96.3582 70.6395 96.5855 71.0242 96.5855 71.4026C96.5855 72.2695 96.5855 73.1654 96.5855 74.0165" stroke="white" stroke-width="2" stroke-linecap="round" stroke-linejoin="round"/>
<path d="M96.188 78.9604C96.188 79.8186 96.2448 80.6691 96.2448 81.5175" stroke="white" stroke-width="2" stroke-linecap="round" stroke-linejoin="round"/>
<path d="M96.1881 86.2905C96.1881 86.8521 96.3018 87.3865 96.3018 87.9384C96.3018 88.553 96.3018 89.1675 96.3018 89.782C96.3018 89.9474 96.3595 91.6165 96.2544 91.6288C95.7092 91.693 95.0821 91.6888 94.5339 91.6888C94.0478 91.6888 93.4996 91.7565 93.0249 91.632C92.7522 91.5604 92.4003 91.5574 92.1284 91.6351C92.042 91.6598 91.7917 91.6739 91.7559 91.7456" stroke="white" stroke-width="2" stroke-linecap="round" stroke-linejoin="round"/>
<path d="M86.9827 91.5186C84.9405 91.5186 82.8847 91.5186 80.8457 91.5186" stroke="white" stroke-width="2" stroke-linecap="round" stroke-linejoin="round"/>
<path d="M76.3564 91.4614C75.0962 91.4614 73.8389 91.5182 72.5776 91.5182C71.619 91.5182 70.6675 91.6319 69.708 91.6319" stroke="white" stroke-width="2" stroke-linecap="round" stroke-linejoin="round"/>
<path d="M65.6166 91.4048C63.457 91.4048 61.2956 91.4616 59.1387 91.4616" stroke="white" stroke-width="2" stroke-linecap="round" stroke-linejoin="round"/>
<path d="M54.4222 91.5752C52.4664 91.5752 50.5229 91.632 48.5693 91.632" stroke="white" stroke-width="2" stroke-linecap="round" stroke-linejoin="round"/>
<path d="M44.1373 91.6318C42.5399 91.6318 40.9425 91.6318 39.3451 91.6318C39.1422 91.6318 38.5117 91.7467 38.5117 91.4929C38.5117 91.0956 38.5138 90.7074 38.5559 90.3123C38.6883 89.0712 38.6254 87.8105 38.6254 86.6313" stroke="white" stroke-width="2" stroke-linecap="round" stroke-linejoin="round"/>
<path d="M38.8527 78.79C38.8527 79.453 38.8527 80.1159 38.8527 80.7789C38.8527 81.0869 38.798 81.3787 38.9664 81.6312" stroke="white" stroke-width="2" stroke-linecap="round" stroke-linejoin="round"/>
<path d="M47.8877 76.8579C47.9793 77.2161 48.2311 77.4146 48.5159 77.6282C48.9974 77.9893 49.5005 78.4031 49.9334 78.8215C50.5859 79.4523 51.199 80.0996 51.8843 80.6904C52.5164 81.2353 52.9939 81.9115 53.5259 82.5403C54.0001 83.1008 54.5304 83.5575 55.0475 84.0745" stroke="white" stroke-width="2" stroke-linecap="round" stroke-linejoin="round"/>
<path d="M47.7173 84.0745C48.134 83.5245 48.7048 83.0764 49.2073 82.6097C49.5895 82.2549 49.9596 81.8738 50.3186 81.4859C50.7058 81.0674 51.2832 80.8203 51.7076 80.4252C52.4157 79.7659 53.2576 79.18 53.8669 78.4237C54.1141 78.1169 54.4145 77.858 54.7066 77.5966C54.8118 77.5025 55.0522 77.4168 55.1044 77.3125" stroke="white" stroke-width="2" stroke-linecap="round" stroke-linejoin="round"/>
<path d="M64.0254 84.0742C64.57 83.6309 65.0882 83.1114 65.5912 82.622C65.8931 82.3282 66.2276 82.0796 66.5256 81.776C66.9003 81.3942 67.302 81.0827 67.7189 80.7468C68.3943 80.2027 68.9567 79.5155 69.651 78.9948C70.0415 78.7018 70.3193 78.4368 70.6454 78.0824C70.8841 77.8229 71.1615 77.5797 71.4693 77.4258" stroke="white" stroke-width="2" stroke-linecap="round" stroke-linejoin="round"/>
<path d="M63.9121 76.8008C64.3029 76.8866 64.4468 77.1495 64.7361 77.3943C64.9733 77.595 65.2037 77.7174 65.3895 77.9815C65.9566 78.7873 66.7735 79.4612 67.5236 80.0839C67.8314 80.3395 68.0477 80.672 68.3475 80.9268C68.5456 81.0952 68.6746 81.3314 68.8558 81.5172C69.0725 81.7393 69.317 81.9447 69.5124 82.1864C69.9113 82.6798 70.254 83.2764 70.7625 83.6702C70.8667 83.7508 71.1301 83.8497 71.1856 83.9606" stroke="white" stroke-width="2" stroke-linecap="round" stroke-linejoin="round"/>
<path d="M79.7656 84.2448C80.5071 83.7835 81.1018 83.1593 81.745 82.578C82.3532 82.0283 82.938 81.4377 83.4434 80.7912C84.0161 80.0587 84.7159 79.4339 85.3533 78.7582C85.7748 78.3113 86.2377 77.9313 86.6855 77.5144C86.8919 77.3222 87.0518 77.0934 87.2664 76.9146" stroke="white" stroke-width="2" stroke-linecap="round" stroke-linejoin="round"/>
<path d="M86.8686 84.0743C86.5069 83.9488 86.1663 83.7068 85.89 83.4366C85.5438 83.0982 85.2844 82.7174 84.9492 82.3822C84.6973 82.1302 84.3733 81.8758 84.1537 81.5993C83.9324 81.3207 83.7236 81.0052 83.4465 80.7785C83.0388 80.4449 82.6914 80.0743 82.3227 79.6989C81.8432 79.2105 81.306 78.7889 80.82 78.3098C80.5266 78.0206 80.3252 77.6698 80.0371 77.3817C79.9494 77.294 79.8157 77.1851 79.7656 77.085" stroke="white" stroke-width="2" stroke-linecap="round" stroke-linejoin="round"/>
<path d="M47.8662 52.2202C47.3504 50.9763 47.0893 49.6402 45.8003 48.9957C44.4096 48.3003 42.3919 47.8011 41.3104 49.171C40.372 50.3596 39.6082 51.8294 39.2903 53.3255C38.888 55.2184 39.1991 57.2634 39.4808 59.1419C39.593 59.8898 39.9827 61.1003 40.6357 61.5546C41.156 61.9165 41.5282 62.1724 42.1565 62.2902C42.7413 62.3999 43.4534 62.4734 44.0203 62.275C44.6627 62.0502 45.2845 61.8074 45.8727 61.4441C46.4545 61.0847 46.7279 60.6021 47.1801 60.11C47.6423 59.6071 47.5713 58.6824 47.7289 58.0518" stroke="white" stroke-width="2" stroke-linecap="round" stroke-linejoin="round"/>
<path d="M63.9887 59.9043C63.9887 59.0774 64.1745 58.3687 64.3317 57.564C64.4943 56.732 64.5235 55.8833 64.5909 55.0408C64.742 53.1524 64.8455 50.8963 63.5085 49.3769C62.9933 48.7915 62.0879 48.8244 61.3893 48.6222C60.4082 48.3382 59.3961 48.4628 58.4239 48.7366C57.4478 49.0114 56.4821 49.3791 55.8931 50.2459C55.2274 51.2256 55.0689 52.4734 54.8944 53.6153C54.7681 54.4424 54.7267 55.2462 54.7267 56.0813C54.7267 56.6882 54.63 57.3837 54.7992 57.9757C55.0769 58.9478 55.2608 59.9987 55.8206 60.8571C56.2542 61.5219 56.7299 61.7766 57.3643 62.2064C58.1212 62.7192 58.9905 63.0462 59.9256 63.0602C60.6665 63.0713 61.365 62.9381 61.9838 62.5113C62.4228 62.2086 62.6549 61.6757 63.0587 61.3526C63.5686 60.9448 63.7326 60.2931 63.8515 59.6985" stroke="white" stroke-width="2" stroke-linecap="round" stroke-linejoin="round"/>
<path d="M71.3983 47.4863C71.3983 52.3891 71.3297 57.3054 71.3297 62.1987C71.3297 62.3309 71.2229 63.3346 71.3297 63.3346C71.4662 63.3346 71.5683 63.1974 71.7108 63.1974C72.0746 63.1974 72.3553 63.2548 72.7018 63.3651C73.0716 63.4827 73.4547 63.4718 73.8376 63.4718C74.5693 63.4718 75.3014 63.4795 76.0331 63.4718C77.3257 63.4582 78.4594 63.0154 79.3224 62.0615C80.1815 61.112 80.523 59.8703 80.523 58.5969C80.523 57.3015 80.743 56.0091 80.645 54.7129C80.61 54.25 80.54 53.8137 80.5192 53.3446C80.4971 52.848 80.4059 52.3122 80.3019 51.8238C80.1591 51.1524 79.9355 50.1652 79.5244 49.617C79.1725 49.1477 78.7214 48.4988 78.0798 48.443C77.8932 48.4268 77.7585 48.3344 77.5881 48.2715C77.4111 48.2061 77.2081 48.2303 77.024 48.1724C76.6879 48.0666 76.368 48.0633 76.0331 47.9818C74.6664 47.6494 73.2016 47.898 71.8099 47.898" stroke="white" stroke-width="2" stroke-linecap="round" stroke-linejoin="round"/>
<path d="M97.2633 47.829C95.4747 47.829 93.6878 47.829 91.9043 47.6918C90.7758 47.605 89.6589 47.5546 88.5273 47.5546C88.1106 47.5546 87.6938 47.5546 87.2771 47.5546C87.1593 47.5546 86.9859 47.5232 87.1094 47.6537C87.4346 47.9969 87.532 48.2449 87.5211 48.7361C87.5121 49.139 87.4943 49.6363 87.4181 50.032C87.236 50.9792 87.2466 52.0196 87.2466 52.9822C87.2466 54.0608 87.2466 55.1395 87.2466 56.2181C87.2466 57.3258 87.3852 58.4122 87.4829 59.5151C87.5896 60.7185 87.5702 61.9442 87.5897 63.1512C87.596 63.5416 87.6145 63.4792 87.8793 63.3876C88.4262 63.1983 89.1826 63.3342 89.7508 63.3342C92.3693 63.3342 100.225 63.3342 97.6063 63.3342" stroke="white" stroke-width="2" stroke-linecap="round" stroke-linejoin="round"/>
<path d="M87.3838 55.2388C89.8765 55.2388 92.3692 55.2388 94.862 55.2388" stroke="white" stroke-width="2" stroke-linecap="round" stroke-linejoin="round"/>
</g>
<defs>
<clipPath id="clip0">
<rect width="61" height="61" fill="white" transform="translate(37 39)"/>
</clipPath>
</defs>
</svg>
