<svg width="135" height="135" viewBox="0 0 135 135" fill="none" xmlns="http://www.w3.org/2000/svg">
<circle cx="67.5" cy="67.5" r="65" fill="#4150A3" stroke="#4150A3" stroke-width="5"/>
<path d="M100.546 44.8658C100.066 45.9571 99.8137 47.2888 99.6408 48.4529C99.5423 49.1162 99.1696 50.5501 99.1696 50.5501C99.1696 50.5501 98.8946 52.1464 98.5922 53.1359C98.3437 53.9489 98.0703 54.3592 97.8258 55.1735C97.4726 56.3497 97.3959 57.0439 97.2216 58.2595C97.0944 59.1464 97.1363 59.6587 96.9805 60.5409C96.814 61.4843 96.6239 61.993 96.3759 62.9184C96.1471 63.7721 96.0052 64.247 95.7642 65.0974C95.6432 65.5242 95.5919 65.8304 95.4529 66.19C95.3499 66.4567 95.176 66.7989 95.1324 67.0928C95.0383 67.7263 92.5467 67.6034 92.0303 67.4671C90.9875 67.1918 89.9348 67.1309 88.8925 66.8857C88.3476 66.7576 87.7829 66.7574 87.2365 66.6132C86.8785 66.5187 86.5057 66.4847 86.1424 66.4113C85.731 66.3282 85.4609 66.1372 85.0057 66.0244C84.2926 65.8476 83.7343 65.8932 83.1355 65.8188C82.511 65.7411 82.0152 65.4908 81.2862 65.3261C80.068 65.0509 79.082 64.8138 78.1281 64.8217C77.675 64.8254 76.6102 64.2734 76.2846 64.4631" stroke="white" stroke-width="2" stroke-linecap="round" stroke-linejoin="round"/>
<path d="M100.311 45.1324C99.3063 45.7174 98.785 46.8022 97.7878 47.3829C96.8299 47.9407 95.8721 48.4985 94.9142 49.0563C93.9285 49.6303 93.0942 50.3001 92.2128 51.0129C91.799 51.3475 91.3109 51.5659 90.9186 51.9329C90.4136 52.4053 90.0328 52.8104 89.423 53.1655C87.9431 54.0274 86.5546 55.1145 85.3569 56.3435C84.6886 57.0293 83.8911 57.5888 83.2251 58.2722C82.6903 58.8209 81.9693 59.1524 81.4445 59.7358C80.5903 60.6857 79.3145 61.298 78.5254 62.2749C78.2229 62.6493 77.6488 62.9446 77.268 63.2458C76.9478 63.4991 76.7748 63.7862 76.4058 64.001" stroke="white" stroke-width="2" stroke-linecap="round" stroke-linejoin="round"/>
<path d="M100.392 44.8249C99.4212 45.3905 98.3599 45.8783 97.419 46.4262C96.0935 47.1982 94.6318 47.6588 93.3061 48.4308C90.2718 50.1978 87.1761 51.8704 84.1265 53.6464C81.8453 54.9748 79.5641 56.3033 77.2829 57.6318C74.7922 59.0822 72.4731 60.6931 69.9853 62.1419" stroke="white" stroke-width="2" stroke-linecap="round" stroke-linejoin="round"/>
<path d="M100.101 44.9952C98.0163 46.2092 95.8969 46.6444 93.5549 47.0569C92.8223 47.1859 91.7646 47.6365 91.1119 48.0166C90.3757 48.4453 89.4218 48.4801 88.6817 48.9111C86.8232 49.9933 84.7883 50.6576 82.9349 51.7369C81.5905 52.5198 80.0206 52.8459 78.5523 53.3777C76.0594 54.2806 73.4373 55.0897 71.0805 56.2968C70.4384 56.6256 69.8324 56.6697 69.0499 56.9585C68.4022 57.1975 67.4117 57.6232 67.4117 57.6232C67.4117 57.6232 66.5324 57.9376 66.1767 58.1109L62.7271 59.4037C62.3228 59.5323 62.0464 59.7238 61.7059 59.7741C61.0526 59.8707 60.4749 60.3273 59.8495 60.4863C59.3071 60.6243 58.7014 60.7157 58.1543 60.8297" stroke="white" stroke-width="2" stroke-linecap="round" stroke-linejoin="round"/>
<path d="M69.7505 62.4096C68.8194 62.5553 66.515 62.0081 66.515 62.0081C66.515 62.0081 65.3211 61.8164 64.7623 61.6689C64.3878 61.5701 63.8188 61.4799 63.4531 61.5199C63.0108 61.5684 62.1272 61.5037 62.1272 61.5037C62.1272 61.5037 61.1439 61.5326 60.9426 61.4196C60.3212 61.0706 58.9751 60.9859 58.3242 61.1216" stroke="white" stroke-width="2" stroke-linecap="round" stroke-linejoin="round"/>
<path d="M78.203 77.1466C78.9955 76.2352 79.4935 75.1246 80.1813 74.1718C80.7514 73.3819 81.2054 72.2698 81.9356 71.595C82.2705 71.2855 82.3701 70.6691 82.768 70.3291C83.1662 69.9888 83.4741 69.4733 83.7763 69.0547C84.1074 68.596 84.6556 68.1984 84.859 67.672C84.9844 67.3472 85.5607 66.8167 85.5401 66.4941" stroke="white" stroke-width="2" stroke-linecap="round" stroke-linejoin="round"/>
<path d="M78.1055 77.2036C77.6117 75.7833 76.6385 74.461 75.8814 73.1607C75.1758 71.9491 74.572 70.6888 73.8585 69.4635C72.5894 67.2843 71.6362 64.9767 70.3818 62.8228" stroke="white" stroke-width="2" stroke-linecap="round" stroke-linejoin="round"/>
<path d="M76.2843 64.4627C76.3477 65.4563 76.3149 66.5101 76.4009 67.5196C76.4965 68.6424 76.8516 69.7456 76.9707 70.8332C77.0186 71.2701 77.1329 71.6707 77.2487 72.2048C77.3678 72.7542 77.5734 73.607 77.5734 73.607L78.4721 76.4966" stroke="white" stroke-width="2" stroke-linecap="round" stroke-linejoin="round"/>
<path d="M84.2652 67.9757C83.7165 68.0703 83.4172 67.7177 82.9152 67.6501C82.7299 67.6252 82.4328 67.5857 82.2766 67.4834" stroke="white" stroke-linecap="round" stroke-linejoin="round"/>
<path d="M82.85 69.6194C82.4716 69.3336 81.9501 69.2577 81.5132 69.0784C81.3424 69.0083 81.1853 68.9217 81.0058 68.8743C80.9053 68.8478 80.7502 68.8594 80.6605 68.8055C80.3761 68.6348 80.0629 68.5284 79.7974 68.3545" stroke="white" stroke-linecap="round" stroke-linejoin="round"/>
<path d="M81.6059 71.0703C81.2869 70.8062 80.7408 70.7538 80.3516 70.5973C80.2566 70.5591 79.8542 70.3503 79.8579 70.408" stroke="white" stroke-linecap="round" stroke-linejoin="round"/>
<path d="M80.6175 72.6465C80.5206 72.5819 79.6817 72.056 79.6395 72.216" stroke="white" stroke-linecap="round" stroke-linejoin="round"/>
<path d="M79.7485 74.197C79.5515 74.1148 79.3746 74.026 79.186 73.9336" stroke="white" stroke-width="2" stroke-linecap="round" stroke-linejoin="round"/>
<path d="M15.2339 104.749C15.2339 104.749 18.6404 100.145 18.7638 94.7665C18.8741 89.9595 17.6112 85.7945 21.2846 82.7248C23.6085 80.7829 25.7117 80.9371 28.706 80.4994C31.8377 80.0415 33.6491 80.4422 36.8134 80.5616C40.1487 80.6875 42.0806 80.4259 45.3407 81.1541C47.8689 81.7188 49.6244 81.6648 51.607 83.3431C53.0618 84.5747 53.8612 85.5295 54.3793 87.3673C54.8721 89.1155 55.0161 89.799 53.9899 91.2898C52.7974 93.0223 51.2656 94.0077 49.1678 93.9168C47.4491 93.8424 46.0698 93.4271 44.8661 92.1885C42.9859 90.2538 42.5777 88.6486 43.5757 86.1451C44.8983 82.8277 47.4376 79.0039 51.5364 76.1466C56.0233 73.0188 64.9578 72.122 64.9578 72.122" stroke="white" stroke-width="2" stroke-linecap="round" stroke-linejoin="round" stroke-dasharray="3 9"/>
</svg>
