<svg width="135" height="135" viewBox="0 0 135 135" fill="none" xmlns="http://www.w3.org/2000/svg">
<circle cx="67.5" cy="67.5" r="65" fill="#FF719C" stroke="#FF719C" stroke-width="5"/>
<g clip-path="url(#clip0)">
<path d="M63.7573 50.2695C62.4092 50.8285 61.8584 51.7671 60.767 52.8611C59.9199 53.7102 59.5428 54.2778 58.7236 55.1537C58.0936 55.8272 57.6921 56.1595 57.0789 56.8482C56.4431 57.5623 56.1795 58.0423 55.5339 58.7476C54.7738 59.5781 54.2684 59.9665 53.4462 60.7356C52.6907 61.4424 52.2837 61.8579 51.497 62.5298C51.0049 62.9501 50.6914 63.1415 50.2123 63.5764C49.6517 64.0852 49.3808 64.4159 48.8611 64.9663C48.1632 65.7055 47.1112 66.8934 47.1112 66.8934C47.1112 66.8934 46.2998 67.9016 45.7379 68.5104C45.4008 68.8757 45.3085 68.8761 44.8519 69.4241C44.3952 69.9721 43.9739 70.3918 43.401 71.0023C42.3409 72.132 41.7728 72.7948 40.6322 73.8431C39.9967 74.4273 39.3257 74.5567 38.9598 75.2885C38.6548 75.8985 38.8397 76.1474 39.0318 76.6396C39.218 77.1166 39.5462 77.2516 39.8569 77.6586C40.1531 78.0464 40.3253 78.4468 40.5879 78.6719C40.8505 78.897 41.3853 79.425 41.3853 79.425C41.3853 79.425 42.1944 80.4945 42.8251 81.0697C43.1226 81.341 43.3232 81.4539 43.6225 81.7232C43.9443 82.0125 44.3962 82.5198 44.4089 82.504C44.8412 81.9635 45.4813 81.9248 46.1643 81.773C47.02 81.5828 48.2695 81.7733 49.0826 82.0443C50.3804 82.4769 51.6121 83.2044 52.2723 84.4587C52.6174 85.1145 53.4956 87.3325 52.9922 89.0937C52.8319 89.6542 52.747 90.2409 52.3941 90.4615C52.2806 90.5325 51.961 90.8722 52.0508 90.9876C52.3162 91.3288 52.6126 91.621 53 92C53.8937 92.8743 54.5865 93.1464 55.5 94C55.9035 94.3771 56.1015 94.6176 56.5 95C56.987 95.4674 57.2495 95.7436 57.7766 96.1652C58.2246 96.5236 58.486 97.018 58.9728 97.018C59.2971 97.018 59.3816 97.0099 59.6207 96.8187C59.8824 96.6093 60.1744 96.4375 60.5122 96.1708C61.2387 95.5973 61.5964 95.2135 62.24 94.5483C63.014 93.7482 63.3419 93.2032 64.1006 92.3886C64.7968 91.6411 65.2389 91.0725 65.9502 90.539" stroke="white" stroke-width="2" stroke-linecap="round" stroke-linejoin="round"/>
<path d="M65.9503 90.5389C65.9503 90.5389 66.5864 90.136 66.9471 89.819C67.3725 89.445 67.5416 89.1647 67.9217 88.7447C68.1251 88.52 68.4422 88.1688 68.4422 88.1688C68.4422 88.1688 68.8041 87.9121 69.0181 87.7258C69.499 87.3072 69.634 86.9396 70.0924 86.4965C70.4587 86.1423 70.7155 86.001 71.0892 85.6547C71.5829 85.1973 71.819 84.8993 72.2798 84.4088C72.7513 83.9068 72.9841 83.5951 73.4759 83.113C73.8695 82.7271 74.0938 82.5124 74.5225 82.166C74.7217 82.0051 74.8519 81.9378 75.043 81.7673C75.3795 81.4673 75.498 81.2306 75.7962 80.8924C76.3285 80.2885 76.6428 79.9641 77.1916 79.3751C78.349 78.133 80.1986 76.2353 80.1986 76.2353C80.1986 76.2353 81.2351 75.1052 81.9041 74.3857C82.3376 73.9196 82.5631 73.6412 83.0172 73.1951C83.43 72.7896 83.6913 72.5939 84.1136 72.1983C84.4195 71.9118 84.7433 71.8493 84.8889 71.4563C85.0046 71.144 84.8889 70.6035 84.8889 70.6035C84.8889 70.6035 84.8149 69.8395 84.9886 69.4019C85.2003 68.8683 85.5377 68.6826 85.9798 68.3165C86.4454 67.9309 86.7219 67.6793 87.3033 67.5135C87.7085 67.398 87.9588 67.4598 88.3776 67.4139C88.7589 67.3721 88.9986 67.4406 89.3522 67.292C89.8911 67.0656 89.9692 66.62 90.3711 66.1956C90.6972 65.8514 90.8617 65.6392 91.2129 65.3206C91.6159 64.955 91.6103 64.8797 92 64.4999C92.4242 64.0865 92.7832 63.7724 93.2618 63.2828C93.5555 62.9823 93.7079 62.802 94 62.4999C94.384 62.1029 94.6118 61.8927 95 61.4999C95.7882 60.7025 96.5846 60.478 96.9941 59.4342C97.1693 58.9876 97.339 58.7037 97.2489 58.2325C97.1352 57.6385 96.759 57.5262 96.2521 57.0474C95.955 56.7668 95.6199 56.5758 95.2553 56.2279C94.9564 55.9427 94.7413 55.71 94.5354 55.4526C94.3764 55.2539 94.1269 54.9773 93.8598 54.6774C93.0176 53.7315 91.6226 52.3294 91.6226 52.3294C91.6226 52.3294 91.2613 52.0859 91 51.9999C90.5 51.9999 89.5504 52.9513 88.5 52.9999C87.534 53.0446 86.5849 52.9834 85.5 52.4999C83.4664 51.5937 82.3703 50.1952 82 47.9999C81.8701 47.2298 81.735 46.7346 82 45.9999C82.2098 45.4183 82.835 44.9194 82.9175 44.7097C83 44.4999 81.7584 42.6417 81 41.9999C80.0798 41.2213 79.5147 40.7088 78.6591 39.8532C78.3362 39.5303 77.9171 39.0641 77.5128 38.8619C77.2451 38.7281 76.2952 37.8688 76 38C75.1386 38.3828 74.655 38.8813 74 39.4999C73.2328 40.2245 72.1341 41.292 71 42.5C70.0933 43.4658 69.6942 44.1106 68.7412 45.0308C68.2366 45.5181 67.8896 45.9161 67.4011 46.227C66.9528 46.5123 67.2528 46.8007 67.1243 47.1573C66.751 48.1929 66.6406 48.9753 65.7454 49.616C65.3789 49.8783 65.1294 49.9645 64.7043 50.1144C64.3076 50.2543 63.9814 50.2073 63.6577 50.3691" stroke="white" stroke-width="2" stroke-linecap="round" stroke-linejoin="round"/>
<g clip-path="url(#clip1)">
<path fill-rule="evenodd" clip-rule="evenodd" d="M66.7023 61.4863C66.3467 61.5113 65.952 61.7078 65.7375 62.132C65.3346 62.4992 65.1484 62.8606 64.8855 63.2395L63.0026 65.258C62.7923 65.4186 62.5927 65.8269 62.3759 65.8327C62.3222 65.6637 62.6401 65.4847 62.5864 65.3156C62.7172 65.1107 62.6944 64.9408 62.8414 64.7509C62.8901 64.4397 62.8769 64.1301 62.9876 63.8172C62.9246 63.4315 62.9384 63.0282 62.8915 62.6575C62.7666 62.2735 62.7804 61.8702 62.6096 61.5028C62.4079 61.1363 62.1591 60.7556 61.7095 60.3957C61.6341 60.4442 61.5843 60.368 61.5197 60.3078C61.0323 60.1504 60.5717 60.2557 60.1057 60.2372C59.7756 60.4939 59.4227 60.5809 59.0925 60.8377C58.6168 61.3153 58.2029 61.7913 57.8362 62.2815C57.8429 62.4363 57.8185 62.5919 57.6702 62.7508C57.6525 63.0612 57.6495 63.3558 57.5685 63.6369C57.6341 64.0845 57.6688 64.533 57.7816 64.9949C57.8633 65.4576 58.0838 65.9011 58.0875 66.3504C58.4131 66.7136 58.429 67.0851 58.7088 67.465C58.4825 67.6105 58.236 67.6481 58.0297 67.9016C57.8841 68.1225 57.7006 68.5458 57.5484 68.6118C56.7987 68.1205 56.0394 67.7689 55.295 67.4014C54.5222 67.0967 53.7682 66.8689 53.0139 66.9976C52.7579 67.1749 52.5302 67.2895 52.2943 67.5747C52.0367 68.0775 51.8882 68.5929 51.7854 69.0916C51.8629 69.8178 52.0186 70.5575 52.8705 71.263C53.7481 71.8439 54.6045 71.9295 55.4422 71.938C55.9635 71.8001 56.4834 71.6312 57.0209 71.5084C56.6878 72.0597 56.0301 72.6351 55.5422 73.1906C55.1795 73.7737 54.8019 74.3727 54.3462 74.9582C54.2194 75.2561 53.9997 75.5564 53.7651 75.8726C53.6949 76.0449 53.5763 76.1721 53.521 76.3285C53.4656 76.485 53.3025 76.6598 53.4479 76.7954C53.3144 76.9384 53.5688 77.0866 53.698 77.2071C53.9053 77.341 53.8338 77.4824 54.0411 77.6163L54.9293 78.4449C54.8578 78.5863 55.189 78.7169 55.2724 78.8541L55.7084 79.2608C56.0152 79.5471 56.3247 79.8952 56.6371 79.9488C56.8971 79.8644 57.1504 79.6251 57.416 79.3081C57.6908 79.2078 57.9484 78.705 58.2394 78.6197C59.6321 80.0081 61.0249 81.3965 62.4176 82.7849C63.0543 83.1708 63.7137 83.7265 64.3359 83.7719C64.8614 83.3704 65.3629 82.7681 65.867 82.2277C68.4788 79.8488 71.1216 77.469 73.7123 74.5948C74.3416 74.082 75.2701 73.3133 75.5953 72.5763C75.5108 72.0516 75.1328 71.5504 74.7238 71.0499L70.3152 66.9374C70.2398 66.9859 70.1577 66.8796 70.077 66.8043C69.9382 66.8235 69.7863 66.5331 69.6529 66.6761C69.5682 66.5079 69.2555 66.8108 69.3217 66.5455C69.6344 66.2427 69.9658 66.0169 70.2745 65.6212C70.2923 65.3108 70.4178 64.982 70.2349 64.6925C69.2191 63.418 67.7154 62.6989 66.7023 61.4863ZM59.2621 67.7136C59.3956 67.5706 59.4051 67.4309 59.4766 67.2895C59.0036 66.0159 58.6248 64.7708 58.5086 63.5032C58.6542 63.2824 58.676 63.0648 58.6667 62.8481C58.9148 62.4851 59.2397 62.1044 59.6116 61.7381C60.0927 61.3843 60.5965 61.2003 61.0974 61.3109C61.6356 61.9318 61.7253 62.5803 61.7989 63.2137C61.7663 63.54 61.8118 63.8797 61.7011 64.1926C61.6834 64.503 61.5108 64.8176 61.555 65.1263C61.2166 65.5538 61.1099 65.9595 61.0341 66.3645C61.2171 66.654 61.6375 66.3328 61.6441 66.4876C61.0497 67.0924 60.4365 67.6202 59.8461 68.3179C59.8072 68.133 59.4572 67.9254 59.2621 67.7136ZM61.8233 66.3279C61.8718 66.3731 61.7963 66.4216 61.7828 66.4684C61.7344 66.4232 61.8098 66.3747 61.8233 66.3279ZM58.3044 69.6144C58.3611 69.4889 58.3248 69.3659 58.4744 69.2379C58.5472 69.1275 58.4342 69.022 58.4141 68.9141C58.6405 68.7686 58.5679 68.5226 58.7699 68.5327C58.9341 68.7452 59.0889 68.7411 59.2504 68.8917L58.6722 69.5116C58.4916 69.6404 58.3216 70.0168 58.1345 69.9909C57.9756 69.9021 58.1469 69.5566 58.3044 69.6144ZM54.868 70.8376C54.2554 70.6526 53.6669 70.6683 53.0466 69.9411C53.0723 69.8164 53.0212 69.7093 52.8933 69.6198C52.9018 69.0927 52.7571 68.2442 53.4912 68.0076C54.2844 68.0639 55.1096 68.5067 55.9226 69.0273C56.1931 69.1905 56.4571 69.1989 56.7263 69.3312C56.8542 69.4208 56.9781 69.4174 57.1099 69.5999C57.2272 69.4418 57.3723 69.9338 57.4896 69.7757C57.4853 70.0392 57.0691 70.0969 56.9034 70.2098C56.6744 70.2934 56.4493 70.4699 56.2164 70.4606C55.7785 70.7358 55.3287 70.7323 54.868 70.8376ZM56.6138 78.6787C55.8615 78.1255 54.8603 77.1915 54.2561 76.4793C55.0149 75.7307 55.5717 74.9719 55.9898 74.2324C57.0438 73.1349 57.9901 72.0558 58.9511 70.9608C59.5566 71.7039 60.364 72.4571 61.1863 73.1945C61.4071 73.2815 61.6414 73.3217 61.8328 73.0842C61.8865 73.2532 61.5376 73.433 61.4364 73.6062L59.9983 75.1478C58.8892 76.0454 57.5723 77.5218 56.6138 78.6787ZM67.3481 79.1507C67.1718 79.0159 66.9876 78.6954 66.8232 78.8393C66.6601 79.0141 66.9158 79.1933 67.0773 79.3439C66.7511 79.6936 66.4397 80.0273 66.1244 80.2682C65.9428 80.0096 66.0037 79.6206 65.632 79.6305C65.3368 79.9794 65.6611 80.3116 65.6757 80.6522C65.6068 80.8555 65.1972 81.0679 65.0085 81.3674C64.6654 80.9581 64.7721 80.5524 64.4761 80.1574C64.483 79.9557 64.3189 79.7432 64.311 79.5574C64.2721 79.3725 64.2641 79.1868 64.0084 79.0076C63.6285 79.1883 63.7735 79.6803 63.7248 79.9915C63.8632 80.3288 63.8616 80.6542 63.9988 80.9605C63.9905 81.1312 64.1224 81.3136 64.16 81.4676C64.1666 81.6224 64.359 81.7722 64.3656 81.927C64.22 82.1478 64.0803 81.7796 64.1234 81.701C63.9632 81.5813 64.0819 81.4542 63.9217 81.3345C63.802 81.0742 63.7766 80.8425 63.6112 80.5989C63.6626 80.3496 63.45 80.0919 63.3936 79.8609C63.3076 79.6618 63.3685 79.2727 63.0871 79.2183C62.8541 79.209 62.7003 79.6005 62.6907 79.7403C62.6677 79.9269 62.6756 80.1126 62.7145 80.2975C62.7224 80.4833 62.7156 80.6849 62.8312 80.8523C62.7314 81.0564 63.0181 81.2347 62.855 81.4095C62.1821 80.9006 62.3293 80.3543 61.9351 79.838C61.9084 79.5753 61.6958 79.3175 61.5762 79.0573C61.474 78.843 61.271 78.4456 60.9948 78.5149C60.7454 78.8471 60.76 79.1876 60.8971 79.4939C60.6331 79.4854 60.3467 78.9507 60.0814 78.9113L59.3548 78.2334C59.2391 78.0661 59.1353 78.1773 59.0196 78.0099L58.8743 77.8744C60.2153 76.5987 61.5576 75.3541 62.8893 73.8617C64.4825 75.5857 66.4433 77.2068 68.154 78.4163C67.8737 78.7492 67.6124 78.8027 67.3481 79.1507ZM59.7097 70.5686C59.5818 70.479 59.5159 70.3878 59.5119 70.2949C59.6048 70.2924 59.6951 70.228 59.7828 70.1017C59.8513 70.2548 59.8269 70.4104 59.7097 70.5686ZM66.6623 76.1627C66.5586 76.2739 66.4376 75.9828 66.3272 75.9392C66.1294 75.6656 66.3034 75.382 66.1986 75.1058C66.243 75.0582 66.2888 75.0414 66.336 75.0557L67.0627 75.7336C67.0719 75.9503 66.8953 76.172 66.9975 76.3862C66.9085 76.4815 66.7889 76.2213 66.6623 76.1627ZM67.4891 76.28C67.6387 76.1521 67.8055 76.4265 67.9657 76.5462C67.7824 76.6131 67.6638 76.7403 67.6098 76.9277C67.3837 76.7168 67.6384 76.5085 67.4891 76.28ZM68.7932 77.4074C68.8686 77.3589 68.952 77.4961 69.0315 77.5405C68.8657 77.6534 68.9076 77.5438 68.7932 77.4074ZM68.6923 77.2241C68.5684 77.2274 68.4511 77.3855 68.3325 77.5127C67.9961 77.2582 68.2791 76.9872 68.0665 76.7295C68.2524 76.7245 68.4851 77.0902 68.6923 77.2241ZM65.7048 74.4372C65.4366 74.6923 65.6021 74.9358 65.4578 75.1877C65.2561 74.8211 65.457 74.4438 65.1314 74.0806C64.8217 74.0889 64.9614 74.4571 64.828 74.6001C64.6168 74.3733 64.7153 74.1383 64.7518 73.9048C64.5284 73.7558 64.6766 73.5969 64.4532 73.4479C64.2472 73.345 64.3481 73.5282 64.1823 73.6411C64.0304 73.3508 64.0805 73.0705 63.8679 72.8127C63.8962 72.75 63.9582 72.7483 64.0053 72.7626C64.6028 73.3199 65.0306 73.8974 65.7048 74.4372ZM63.0242 71.9365C62.9395 71.7683 63.0096 71.596 62.863 71.4294C62.7486 71.293 62.6422 71.3424 62.5397 71.4846C62.3285 71.2578 62.1199 71.0929 61.9298 71.3614C61.7024 71.1196 61.9544 70.8494 61.6193 70.6259C61.439 70.3983 61.2772 70.6041 61.1022 70.5003C60.9487 70.5354 60.7911 70.4776 60.6416 70.6056C60.4721 70.2692 60.5518 69.9571 60.2747 69.6391C60.5429 69.384 60.8206 68.9891 61.0941 68.8579C61.8422 69.6746 62.7479 70.5492 63.6456 71.238C63.5619 71.4572 63.1846 71.6998 63.0242 71.9365ZM68.8334 67.4574C68.9317 67.5788 68.9841 67.7168 69.0352 67.8239C69.2774 68.0499 69.5937 68.1964 69.8508 68.4065C70.3165 68.7814 70.6932 69.2517 71.1305 69.6894C72.0549 70.641 73.1599 71.4637 73.9766 72.4336C73.261 73.1037 72.5157 73.8055 71.8188 74.5525C71.122 75.2995 70.5234 76.1678 69.7431 76.7776C67.9978 75.1197 66.255 73.5237 64.5189 72.0825C64.8734 71.6701 65.337 71.2702 65.5528 70.877C66.0797 70.5065 66.6081 69.8105 67.1284 69.2852C67.3926 68.9372 67.6407 68.5741 67.9359 68.2253C68.068 68.0513 68.3389 67.8581 68.3323 67.7033C68.4792 67.5134 68.781 67.3194 68.7731 67.1336L68.8621 67.0382C68.9454 67.1755 68.843 67.3177 68.8334 67.4574ZM68.6885 65.1523L68.0213 65.8675C67.0491 67.4277 65.5503 69.002 64.1754 70.573C63.3518 69.8047 62.5147 69.0833 61.6803 68.4237C61.6453 68.3317 61.6414 68.2388 61.6684 68.1451C63.3771 66.7667 65.2317 64.8109 66.7658 62.9722C67.4331 63.7137 68.1302 64.4234 68.6885 65.1523Z" fill="white"/>
</g>
<path d="M66.3247 49.3682C66.791 50.0094 67.4424 50.3436 67.9964 50.8976C68.2257 51.1269 68.4471 51.3482 68.6722 51.5734C68.7765 51.6777 68.7861 51.8244 68.9172 51.8618C68.9882 51.8821 69.1919 52.1039 69.0278 51.8579" stroke="white" stroke-width="2" stroke-linecap="round" stroke-linejoin="round"/>
<path d="M71.3755 54.3477C71.6502 54.8092 71.8723 55.225 72.3319 55.5174C72.7402 55.7773 73.0953 55.9963 73.4384 56.3394C73.7269 56.628 74.1599 56.8689 74.3632 57.2247C74.4023 57.2931 74.7388 57.5943 74.79 57.6199" stroke="white" stroke-width="2" stroke-linecap="round" stroke-linejoin="round"/>
<path d="M76.9951 59.9673C77.422 60.2276 77.7114 60.5521 78.0977 60.8525C78.2574 60.9767 78.4759 61.0534 78.647 61.1766C78.8012 61.2876 78.9211 61.4664 79.058 61.6034C79.3307 61.8761 79.6034 62.1488 79.8761 62.4214C79.958 62.5034 80.4807 62.956 80.4807 62.8838" stroke="white" stroke-width="2" stroke-linecap="round" stroke-linejoin="round"/>
<path d="M82.5435 65.3735C82.9122 65.6529 83.3574 65.9029 83.6816 66.2272C83.8915 66.4371 84.2171 66.6262 84.3376 66.8674C84.5398 67.2717 85.2018 67.8764 85.6023 68.0767" stroke="white" stroke-width="2" stroke-linecap="round" stroke-linejoin="round"/>
<path d="M78.8448 51.2172C78.6426 51.2172 78.411 51.1159 78.169 51.2212C78.0402 51.2772 77.9882 51.3454 77.8765 51.4306C77.5338 51.6925 77.2551 51.8512 77.0664 52.1815C76.8801 52.5075 76.6968 53.4103 77.0348 54.0626C77.1643 54.3126 77.2734 54.4377 77.4774 54.6317C77.6796 54.8242 77.8004 54.9459 78.0623 55.0427C78.4011 55.168 78.6258 55.0591 78.987 55.0585C79.3204 55.0581 79.5085 55.0723 79.8406 55.0427C80.1644 55.0139 80.4024 54.9596 80.6627 54.9123C81.1985 54.8149 81.9028 54.6389 82.362 55.0981C82.8268 55.5629 83.1129 55.8971 83.1129 56.5879C83.1129 57.4793 83.0004 58.2539 82.1881 58.718C82.035 58.8055 81.9814 58.9716 81.8166 59.0974C81.6879 59.1958 81.5676 59.2148 81.461 59.3108C81.2603 59.4914 80.8432 59.4 80.6231 59.3266" stroke="white" stroke-width="2" stroke-linecap="round" stroke-linejoin="round"/>
<path d="M77.0664 52.4271C76.8633 52.1479 76.5567 51.2178 76.1416 51.2178" stroke="white" stroke-width="2" stroke-linecap="round" stroke-linejoin="round"/>
<path d="M82.8994 58.0464C83.3494 58.3737 83.8573 58.7859 84.0376 59.3268" stroke="white" stroke-width="2" stroke-linecap="round" stroke-linejoin="round"/>
</g>
<defs>
<clipPath id="clip0">
<rect width="61" height="61" fill="white" transform="translate(37 37)"/>
</clipPath>
<clipPath id="clip1">
<rect width="20.6487" height="20.6487" fill="white" transform="translate(48.0071 72.106) rotate(-46.9894)"/>
</clipPath>
</defs>
</svg>
