<svg width="29" height="50" viewBox="0 0 29 50" fill="none" xmlns="http://www.w3.org/2000/svg">
<path d="M24.7018 0.496401C22.652 0.325582 20.6022 0.154763 18.5182 0.0181072C16.7758 -0.0843844 15.4776 0.22309 14.316 1.58964C11.9245 4.35692 9.80638 7.46583 7.79072 10.5064C3.69106 16.6559 0.411327 23.4203 0.00136064 30.9022C-0.0328032 31.5513 0.582146 32.0638 1.1971 32.098C4.44266 32.2346 7.68823 32.4738 10.9338 32.9179C11.8904 33.0545 12.8811 33.1912 13.8377 33.362C14.2135 33.4303 15.3068 33.3962 15.5459 33.6695C15.8875 34.0453 15.6142 35.5827 15.6142 36.061C15.6142 36.7442 15.6142 37.4275 15.6142 38.1108C15.6142 39.9215 15.6142 41.7322 15.5801 43.5428C15.5801 44.9094 15.4093 46.3443 15.6142 47.6767C16.0242 50.2731 18.6207 49.8973 20.6705 49.9315C22.3445 49.9656 24.0185 49.9998 25.6926 49.9998C26.6492 49.9998 27.6741 50.034 28.3232 49.1799C29.0065 48.2575 28.699 46.7201 28.699 45.661C28.6648 43.987 28.6648 42.3129 28.6307 40.6731C28.5623 34.1136 28.4598 27.5542 28.3915 20.9947C28.3915 20.5164 28.0157 19.9356 27.5033 19.8331C25.1801 19.389 22.5153 18.979 20.4655 20.4823C18.894 21.6438 18.0057 23.6595 18.7573 25.5385C19.1331 25.026 19.5089 24.5136 19.9189 24.0353C18.7915 24.0695 17.6299 24.0695 16.5025 24.1036C15.99 24.1036 15.4776 24.1378 14.9651 24.1378C14.7601 24.1378 14.5552 24.1378 14.3502 24.1378C13.6669 24.0695 13.5302 24.1036 13.9744 24.2744C14.0085 24.5819 14.0427 24.8894 14.111 25.1969C14.2477 24.2403 15.0335 23.2154 15.4776 22.3613C16.0242 21.3705 16.5367 20.3798 17.0833 19.389C18.1082 17.51 19.099 15.5968 20.1239 13.7178C22.0712 9.82313 24.121 5.96262 26.205 2.06794C26.9225 0.701384 24.8726 -0.494351 24.1552 0.872203C20.9096 6.95337 17.6641 13.0004 14.4185 19.0815C13.6327 20.5847 12.7445 22.0538 12.027 23.557C11.6854 24.3086 11.4462 25.1969 12.0612 25.9143C12.7786 26.7342 13.9402 26.5634 14.8968 26.5293C16.5708 26.4951 18.2107 26.4609 19.8847 26.4268C20.6022 26.4268 21.3196 25.6752 21.0463 24.9236C19.6797 21.473 25.0093 21.7805 26.8541 22.1563C26.5467 21.7805 26.2734 21.4047 25.9659 20.9947C26.0342 27.0075 26.1025 32.9862 26.205 38.9991C26.2392 40.5706 26.2392 42.108 26.2734 43.6795C26.2734 44.3628 26.2734 45.0119 26.3075 45.6952C26.3075 46.0026 26.4783 47.5742 26.3417 47.6767C26.2392 47.7792 24.6335 47.6083 24.3602 47.6083C23.6769 47.6083 23.0278 47.5742 22.3445 47.5742C21.5587 47.5742 20.773 47.54 19.9872 47.54C19.5772 47.54 18.2449 47.745 17.9374 47.4375C17.6982 47.1984 17.9032 45.9685 17.9374 45.5927C17.9374 44.6702 17.9374 43.782 17.9374 42.8596C17.9374 41.493 17.9374 40.1265 17.9715 38.7599C17.9715 37.1884 18.074 35.5827 18.0057 34.0111C17.9715 33.157 17.8349 32.3713 17.1174 31.8246C16.3658 31.2439 15.3751 31.2097 14.4868 31.0389C13.0861 30.7997 11.7196 30.6289 10.3188 30.4239C7.31242 30.0481 4.27184 29.809 1.23126 29.7065C1.64123 30.1165 2.01703 30.4923 2.42699 30.9022C2.8028 24.2403 5.67256 18.1933 9.2256 12.6929C10.968 9.99395 12.8811 7.3975 14.8285 4.83521C15.3068 4.22026 15.7509 3.36616 16.3658 2.88787C17.1858 2.20459 18.1765 2.40958 19.1331 2.4779C21.0121 2.61456 22.857 2.75121 24.7018 2.88787C26.2392 2.99036 26.2392 0.598893 24.7018 0.496401Z" fill="white"/>
<path d="M24.0869 43.3717C23.3012 43.7817 22.5496 43.9867 21.6271 44.0208C21.9005 44.7041 22.1738 45.3874 22.4812 46.0707C23.4037 45.1141 24.3261 44.1917 25.2485 43.2351C26.1709 42.2785 24.9752 40.6386 23.8136 41.3561C22.6862 42.0052 21.5247 42.1077 20.3289 41.5269C20.3972 42.1418 20.4997 42.7909 20.5681 43.4059C22.3104 41.8685 24.0528 40.3311 25.7951 38.7938C26.8884 37.8372 25.4877 36.3681 24.3603 36.9148C21.9688 38.0763 19.5432 39.2379 17.1517 40.3995C17.5616 41.0827 17.9716 41.766 18.3474 42.4493C21.3197 40.4678 23.9161 38.0763 26.1709 35.2749C26.82 34.4891 26.2393 32.7468 25.0094 33.2934C23.0279 34.1133 21.0122 34.9674 19.0307 35.7874C19.4065 36.4365 19.8165 37.1197 20.1923 37.7689C21.9688 35.5482 23.7795 33.3276 25.556 31.1069C26.2734 30.2186 25.6243 28.7838 24.3944 29.1254C22.4471 29.6379 20.6022 30.3211 18.7915 31.1752C19.2698 31.7902 19.7481 32.4393 20.2264 33.0542C22.2421 30.9019 24.0869 28.6129 25.6926 26.1531C26.2393 25.3332 25.3168 24.0008 24.3261 24.4108C22.9254 24.9916 21.5247 25.5724 20.1581 26.1531C20.5339 26.8023 20.9439 27.4855 21.3197 28.1347C22.6521 26.4265 23.9503 24.7524 25.2827 23.0442C26.0001 22.1218 25.351 20.7553 24.1211 21.0627C22.2421 21.4727 21.0122 22.8393 19.9531 24.3766C18.894 25.9482 18.0058 28.1688 16.0926 28.8863C16.5709 29.3646 17.0834 29.877 17.5616 30.3553C17.7325 29.5695 17.9375 28.8179 18.1083 28.0322C18.3474 27.0414 17.2542 26.119 16.3659 26.6656C14.8285 27.588 13.2228 28.2371 11.5146 28.6813C11.8905 29.3304 12.3004 30.0137 12.6762 30.6628C13.8036 29.672 14.5211 28.4763 14.931 27.0414C15.136 26.3581 14.5552 25.4357 13.7695 25.5382C11.4463 25.7773 9.15734 26.0165 6.8342 26.2215C7.03919 26.9731 7.24417 27.6905 7.44915 28.4421C9.94311 27.0414 11.8905 24.9916 13.1203 22.4293C13.5303 21.5752 12.847 20.277 11.7538 20.6869C9.02069 21.6777 6.32174 22.6343 3.58864 23.625C3.96444 24.2741 4.37441 24.9574 4.75021 25.6065C9.15734 21.5069 13.5986 17.4414 18.0058 13.3417C18.9965 12.4193 17.7325 10.7794 16.5709 11.4627C13.5645 13.2392 10.3872 14.6399 7.07335 15.6649C7.44915 16.314 7.85912 16.9972 8.23492 17.6464C12.0613 14.23 15.9901 10.9502 20.0556 7.773C21.0464 6.98723 19.9531 5.51819 18.894 5.7915C16.2976 6.40645 13.8036 7.29471 11.4122 8.45628C11.8221 9.13956 12.2321 9.82283 12.6079 10.5061C15.9559 7.90966 19.304 5.34737 22.6521 2.75092C23.8478 1.82849 22.6521 -0.2555 21.4563 0.701087C18.1083 3.3317 14.726 5.89399 11.378 8.49044C10.1823 9.41287 11.173 11.2577 12.5737 10.5403C14.7944 9.44703 17.0834 8.66126 19.509 8.11464C19.1332 7.46553 18.7232 6.78225 18.3474 6.13314C14.3161 9.31038 10.3872 12.6243 6.52673 16.0065C5.63847 16.7923 6.56089 18.3638 7.6883 17.988C11.2072 16.8947 14.5894 15.4257 17.7666 13.5467C17.2883 12.9317 16.81 12.2826 16.3318 11.6677C11.9246 15.7673 7.51748 19.867 3.07618 23.9325C2.22208 24.7183 3.11034 26.324 4.23775 25.914C6.97086 24.9233 9.6698 23.9667 12.4029 22.9759C11.9588 22.3951 11.5146 21.8143 11.0364 21.2336C9.97728 23.4542 8.37158 25.1624 6.21925 26.3923C5.2285 26.9389 5.6043 28.7496 6.8342 28.6129C9.15734 28.3738 11.4463 28.1347 13.7695 27.9297C13.3937 27.4172 13.0179 26.9048 12.6079 26.4265C12.3004 27.4855 11.788 28.2713 10.968 28.9887C10.0456 29.8087 11.0364 31.2777 12.1296 30.9703C14.0428 30.492 15.8535 29.7404 17.5616 28.7154C16.9809 28.2713 16.4001 27.8272 15.8193 27.3489C15.6485 28.1347 15.4435 28.8863 15.2727 29.672C15.0677 30.492 15.8535 31.4827 16.7417 31.1411C18.5866 30.4578 19.7481 29.0912 20.8072 27.4514C21.8321 25.8798 22.7546 23.7617 24.7702 23.3175C24.3944 22.6684 23.9845 21.9852 23.6086 21.336C22.2763 23.0442 20.978 24.7183 19.6456 26.4265C19.0307 27.2122 19.5432 28.9546 20.8072 28.408C22.2079 27.8272 23.6086 27.2464 24.9752 26.6656C24.5311 26.0848 24.0869 25.504 23.6086 24.9233C22.1054 27.2122 20.3972 29.3304 18.5182 31.3461C17.5616 32.371 18.7574 33.7717 19.9531 33.2251C21.593 32.4735 23.2328 31.8927 24.9752 31.4144C24.5994 30.7653 24.1894 30.082 23.8136 29.4329C22.0371 31.6535 20.2264 33.8742 18.4499 36.0948C17.8008 36.8806 18.3816 38.623 19.6115 38.0763C21.593 37.2564 23.6086 36.4023 25.5902 35.5824C25.2143 34.9333 24.8044 34.25 24.4286 33.6009C22.3446 36.2315 19.8848 38.5205 17.1175 40.3995C15.8193 41.2536 16.9467 43.1326 18.3133 42.4493C20.7047 41.2877 23.1304 40.1262 25.5218 38.9646C25.0435 38.3496 24.5652 37.7005 24.0869 37.0856C22.3446 38.623 20.6022 40.1603 18.8599 41.6977C18.3133 42.176 18.4499 43.2351 19.099 43.5767C21.0464 44.5333 23.0962 44.5333 24.9752 43.4059C24.4969 42.7909 24.0186 42.1418 23.5403 41.5269C22.6179 42.4835 21.6955 43.4059 20.773 44.3625C20.0898 45.0799 20.5681 46.4465 21.6271 46.4123C22.9595 46.344 24.1211 46.0365 25.2827 45.4557C26.6492 44.7383 25.4535 42.6884 24.0869 43.3717Z" fill="white"/>
</svg>
