<svg width="33" height="50" viewBox="0 0 33 50" fill="none" xmlns="http://www.w3.org/2000/svg">
<path fill-rule="evenodd" clip-rule="evenodd" d="M14.4662 0.179578C12.5456 0.588565 10.4716 1.54991 8.58592 2.90521C7.37796 3.77351 6.47998 4.65997 5.33145 6.118C3.99918 7.80889 3.98573 7.75678 6.39144 10.2231C7.66177 11.5255 8.66101 12.7078 9.18753 13.5317C10.4645 15.5298 10.7091 15.5286 12.7663 13.5152L14.2876 12.0264H15.4742C16.537 12.0264 16.7084 12.0668 17.1185 12.4142C17.6917 12.9002 18.2566 13.8672 18.3872 14.5858C18.6178 15.8564 17.5038 17.6033 15.6897 18.8161C14.6739 19.4952 12.7022 20.2103 11.8379 20.2131C11.4102 20.2144 11.1771 20.2881 11.119 20.4406C11.0367 20.6568 11.4117 25.836 11.5879 26.9148C11.7487 27.8993 12.0995 28.9642 12.3765 29.3088L12.6538 29.6537L14.0681 29.3265C15.7571 28.9357 17.6596 28.8958 18.6353 29.2306C20.6514 29.9226 21.7209 32.1867 21.3986 35.0807C21.0499 38.2124 20.034 39.5184 17.4304 40.1814C15.3395 40.7139 13.772 40.3446 12.5202 39.0246C11.67 38.128 11.3238 37.3098 11.2147 35.9389C11.0617 34.0159 11.0392 33.996 8.84918 33.8444C8.15814 33.7966 6.96083 33.6936 6.18849 33.6157C5.41615 33.5377 3.94508 33.472 2.91953 33.4698C1.26887 33.4662 1.01122 33.5003 0.675236 33.7665C0.154184 34.1792 -0.0809908 35.3898 0.0248456 37.1135C0.346641 42.3572 4.59695 47.1629 10.6825 49.1638C14.0674 50.2767 18.2497 50.2789 21.6368 49.1694C25.9463 47.7578 29.4607 44.7965 31.3502 40.9845C32.5391 38.5861 33.014 36.4637 32.9997 33.6147C32.987 31.1054 32.7137 29.8279 31.773 27.8826C30.7096 25.6833 29.4457 24.3898 27.3182 23.3231C26.6316 22.9789 26.025 22.6289 25.9703 22.5454C25.9156 22.4618 26.2908 21.9366 26.804 21.3783C29.4521 18.4973 30.7891 12.9739 29.7705 9.1231C28.7177 5.1437 25.2516 1.82595 20.7431 0.482261C19.1058 -0.00578426 16.0319 -0.153924 14.4662 0.179578ZM17.0927 1.79051C17.0604 1.89295 16.3056 2.34511 15.4153 2.79549C13.6943 3.66617 13.0698 4.08677 9.41605 6.83652C7.247 8.46904 7.08588 8.56269 6.8677 8.31986C6.65366 8.08165 6.67125 8.00214 7.0841 7.3466C8.53876 5.0362 12.7539 2.42804 16.1024 1.76639C17.0454 1.58014 17.1584 1.58282 17.0927 1.79051ZM21.5244 2.52377C22.0326 2.70348 22.4483 2.93946 22.4483 3.04814C22.4483 3.31003 21.2931 4.0418 19.1224 5.15472C18.1468 5.65497 16.39 6.63567 15.2184 7.33409C14.047 8.03236 13.0543 8.56954 13.0127 8.52756C12.7768 8.28994 17.9468 4.19486 18.9095 3.85689C19.8519 3.52606 20.3342 2.81008 19.9058 2.37861C19.6084 2.07905 20.4909 2.15811 21.5244 2.52377ZM24.0203 5.41333C23.7873 5.61968 23.5545 5.74579 23.5029 5.69353C23.39 5.57934 24.0367 5.02682 24.2754 5.03352C24.368 5.03606 24.2533 5.20698 24.0203 5.41333ZM26.7298 7.25221C26.9771 7.71762 26.9076 7.99455 26.5193 8.09266C26.3194 8.14328 26.0783 8.27847 25.9839 8.39326C25.8893 8.50805 25.7079 8.602 25.5808 8.602C25.4537 8.602 25.2124 8.72468 25.0445 8.87461C24.696 9.18607 23.0384 9.84162 22.9146 9.71685C22.7103 9.51109 25.912 6.9857 26.3972 6.97007C26.4959 6.96694 26.6455 7.0938 26.7298 7.25221ZM16.24 8.39207C16.24 8.55346 15.5821 9.05208 14.878 9.42429C14.4947 9.62692 14.1141 9.91889 14.0322 10.0731C13.9502 10.2274 13.6983 10.3855 13.4726 10.4245C13.2467 10.4635 12.9364 10.549 12.7832 10.6146C12.2766 10.8311 12.6005 10.3419 13.2605 9.89328C13.9265 9.44052 15.9467 8.3279 16.1291 8.31316C16.19 8.30825 16.24 8.34368 16.24 8.39207ZM19.1224 10.0297C18.5279 10.532 17.866 10.8804 17.866 10.6912C17.866 10.4796 19.0413 9.643 19.3293 9.64955C19.494 9.65327 19.431 9.76881 19.1224 10.0297ZM25.0268 10.8217C25.132 10.9932 21.1154 14.8788 20.9046 14.8095C20.8187 14.7812 20.6591 14.3956 20.5502 13.9523C20.3203 13.0181 20.1783 13.1914 22.1526 11.9975C24.3665 10.6588 24.8144 10.4756 25.0268 10.8217ZM11.0363 11.8708C10.9371 12.0308 10.8273 12.1328 10.7922 12.0977C10.729 12.0338 11.051 11.5797 11.1597 11.5797C11.191 11.5797 11.1356 11.7107 11.0363 11.8708ZM27.5525 12.2151C27.704 12.823 27.2989 13.6906 26.6358 14.1783C25.7177 14.8535 23.8556 15.8974 23.5692 15.8974C23.3369 15.8974 23.3381 15.8631 23.5854 15.433C23.8646 14.9473 27.1017 11.8775 27.3345 11.8775C27.4081 11.8775 27.5062 12.0295 27.5525 12.2151ZM25.4878 18.857C25.0457 19.7179 23.7714 20.9444 22.8432 21.4022C22.0174 21.8096 20.5267 22.1669 20.5267 21.9576C20.5267 21.7727 25.3274 18.4284 25.5931 18.4284C25.6562 18.4284 25.6087 18.6214 25.4878 18.857ZM19.6906 19.296C19.9193 19.5506 19.9135 19.5876 19.6027 19.8741C19.4198 20.0425 19.0655 20.2843 18.8154 20.4114C18.5653 20.5386 17.4169 21.2852 16.2633 22.0706L14.1663 23.4984L14.0134 23.0937C13.6873 22.2297 13.8544 21.9781 14.9836 21.6318C16.3429 21.2149 17.7439 20.4518 18.5886 19.668C18.9635 19.3204 19.3098 19.0332 19.3582 19.0299C19.4065 19.0266 19.5561 19.1463 19.6906 19.296ZM20.2463 22.4855C20.1607 22.7187 19.9995 22.8227 19.7166 22.8277L19.31 22.8348L19.7335 22.4934C20.2675 22.063 20.4022 22.0609 20.2463 22.4855ZM28.3309 26.531C28.8935 27.1763 29.4907 28.1961 29.623 28.7373C29.7012 29.0576 29.6636 29.1643 29.4483 29.2334C29.1375 29.3332 27.3611 30.132 25.2 31.1439C24.3965 31.5202 23.7202 31.828 23.6972 31.828C23.6741 31.828 23.543 31.5321 23.4058 31.1703C22.9652 30.0079 23.3485 29.3846 25.922 27.078C27.547 25.6216 27.5397 25.6233 28.3309 26.531ZM17.6886 26.5422C17.6886 27.0515 17.6747 27.0637 17.0964 27.0637C16.7708 27.0637 16.1061 27.1677 15.6192 27.2948C14.4859 27.5906 14.2841 27.5152 14.9197 27.0337C15.4282 26.6485 17.412 25.8534 17.5925 25.9626C17.6454 25.9946 17.6886 26.2554 17.6886 26.5422ZM22.8917 26.8915C22.8917 27.0304 21.1456 28.5545 20.9924 28.5493C20.9395 28.5475 20.736 28.4219 20.5403 28.2703L20.1843 27.9947L20.5827 27.7318C20.8795 27.536 22.5208 26.8438 22.8548 26.7737C22.875 26.7694 22.8917 26.8224 22.8917 26.8915ZM30.5043 33.2253C30.5043 34.5121 30.5517 34.4428 29.3956 34.8455C29.0298 34.9729 28.1318 35.3209 27.4001 35.6187C24.786 36.6826 24.0713 36.9367 23.9727 36.8374C23.7947 36.6582 24.8392 35.7105 27.1045 33.9958C29.653 32.0669 29.8089 31.9673 30.2086 32.0156C30.4763 32.048 30.5043 32.1626 30.5043 33.2253ZM4.1566 35.3481L4.71165 35.4404L3.93488 36.0284C2.97895 36.752 2.37882 37.0776 2.20277 36.968C2.05421 36.8754 2.16478 35.9187 2.37098 35.513C2.51259 35.2345 3.13135 35.1774 4.1566 35.3481ZM8.844 35.8381C9.10357 36.3268 9.01902 36.4435 8.40573 36.4435C8.08053 36.4435 7.81446 36.5105 7.81446 36.5924C7.81446 36.8291 6.82232 36.7701 6.73008 36.5279C6.67391 36.3804 6.79439 36.2822 7.12076 36.2102C7.38033 36.1527 7.67966 35.9807 7.78594 35.828C8.03855 35.4646 8.64859 35.4704 8.844 35.8381ZM29.4209 38.9156C29.3324 39.43 29.0407 39.6018 28.4966 39.4597L27.9976 39.3295L28.584 38.9281C29.2285 38.4869 29.4954 38.4829 29.4209 38.9156ZM6.11458 39.5142C5.29257 40.2654 4.03037 41.0553 3.64915 41.0576C3.32854 41.0594 2.90903 40.6361 2.96609 40.3684C3.0332 40.0535 5.72804 38.8259 6.3363 38.8329L6.85366 38.839L6.11458 39.5142ZM10.2171 39.7222C10.02 39.8881 8.85051 40.2167 8.76477 40.1302C8.7191 40.0843 8.96891 39.8434 9.31982 39.5949C9.89675 39.1865 9.97554 39.1664 10.1432 39.3859C10.245 39.5193 10.2783 39.6707 10.2171 39.7222ZM23.0703 39.889C22.8027 40.0615 22.5473 40.1662 22.503 40.1214C22.4585 40.0766 22.6109 39.9369 22.8418 39.811C23.4651 39.4708 23.6311 39.5272 23.0703 39.889ZM8.55354 42.4185C7.3351 43.5224 6.7598 43.8877 6.24022 43.8877C5.84363 43.8877 5.74504 43.8285 5.74504 43.59C5.74504 43.4262 5.8222 43.2922 5.91636 43.2922C6.01066 43.2922 6.44288 43.0221 6.87716 42.6919C7.79554 41.9935 8.16538 41.8234 8.77527 41.8191L9.21872 41.816L8.55354 42.4185ZM14.7618 42.0977C15.7552 42.2839 17.8587 42.2105 18.7292 41.9591C18.9861 41.8848 19.1963 41.8566 19.1963 41.8964C19.1963 42.0509 17.474 42.7246 16.4047 42.9883C15.7856 43.1409 14.6473 43.436 13.8749 43.6439C12.3781 44.0469 10.0582 44.4108 9.9136 44.265C9.79032 44.141 10.2231 43.7374 11.5838 42.7071C12.8843 41.7225 12.824 41.734 14.7618 42.0977ZM27.474 42.3049C27.474 42.417 26.745 43.2183 25.854 44.0854C24.4738 45.4284 24.0303 45.7614 22.8607 46.3333C20.9256 47.2793 19.2763 47.6545 16.9791 47.671C15.3929 47.6824 14.896 47.6231 13.4684 47.2521C12.5539 47.0143 11.8055 46.7695 11.8055 46.7084C11.8055 46.5465 12.6646 46.2699 13.1667 46.2699C13.429 46.2699 13.8556 46.4688 14.259 46.7789C15.018 47.3627 15.1395 47.3529 16.6468 46.5864C18.1683 45.8127 19.0745 45.4921 19.2476 45.6665C19.354 45.7737 19.2766 45.9525 18.9962 46.2471L18.5912 46.6731L18.96 46.9165C19.1628 47.0503 19.3636 47.1029 19.4064 47.0334C19.4489 46.9638 19.8822 46.7944 20.3688 46.6568C21.3825 46.3704 22.3121 45.7768 23.9974 44.3397C25.2813 43.245 26.9562 42.1011 27.2752 42.1011C27.3846 42.1011 27.474 42.1928 27.474 42.3049Z" fill="white"/>
</svg>
