<svg fill="none" xmlns="http://www.w3.org/2000/svg" viewBox="0 0 35 50"><path fill-rule="evenodd" clip-rule="evenodd" d="M19.887.768C15.527 3.735 10 8.392 3.912 14.232L.004 17.98 0 18.842c-.003.809.045.9.787 1.479.462.36 2.062 1.154 3.855 1.91 1.8.76 3.59 1.648 4.335 2.15 1.122.757 1.37.855 2.142.855 1.101 0 2.444-.657 4.546-2.227 1.552-1.158 1.93-1.31 2.135-.858.154.34.152 8.346-.003 13.611-.133 4.5.148 10.459.573 12.147.147.585.408 1.294.581 1.577l.314.514 1.538-.121c.845-.067 4.252-.143 7.57-.17 5.857-.047 6.04-.058 6.292-.378.217-.276.224-1.195.046-5.713-.411-10.426-.614-21.068-.499-26.116.146-6.384.42-11.84.69-13.738.37-2.603-.102-2.897-4.985-3.1-1.782-.073-3.72-.204-4.307-.29C25.022.29 23.749.17 22.779.11L21.016 0l-1.13.768zm3.45 1.924c.239.054.408.15.378.215-.03.065-1.37 1.118-2.977 2.342-4.182 3.181-11.485 9.28-13.241 11.056-.824.834-1.767 1.894-2.095 2.357-.555.782-.636.834-1.163.739-.776-.141-.85-.193-.843-.593.003-.206.595-.908 1.436-1.705.786-.746 2.615-2.504 4.062-3.908 2.68-2.597 3.458-3.262 8.79-7.512 3.495-2.786 4.414-3.272 5.654-2.99zm7.288.36c.339.112.325.147-.188.463-.305.187-1.297.72-2.204 1.183-.906.463-2.561 1.459-3.676 2.213-2.116 1.429-3.82 2.361-3.82 2.09 0-.186 1.493-1.28 3.8-2.788 1.786-1.165 2.936-2.199 3.025-2.718.034-.198.25-.379.53-.444.635-.149 2.082-.148 2.533.001zm.35 6.117c-.112 2.429-.008 2.272-1.52 2.272-1.127 0-1.369.055-1.894.429-.331.236-1.387.802-2.346 1.258-.959.456-2.098 1.035-2.532 1.286-.843.488-1.191.568-1.191.271 0-.3 6.201-5.44 7.636-6.329 1.903-1.178 1.938-1.162 1.847.813zm-11.773 4.066a80.057 80.057 0 01-5.894 5.438c-2.614 2.168-2.71 2.336-1.912 3.33.936 1.165-.034 1.143-1.9-.045-.765-.487-1.392-.94-1.392-1.008 0-.067.572-.509 1.27-.982.698-.473 2.446-1.76 3.884-2.86 2.36-1.804 5.812-4.152 6.104-4.152.063 0-.01.126-.16.28zm11.718 3.589v1.634l-1.128-.053-1.128-.054-.994.877c-1.117.986-2.929 2.18-3.306 2.18-.137 0 .455-.733 1.315-1.63 1.69-1.762 4.819-4.589 5.08-4.589.088 0 .16.736.16 1.635zm-6.149.307c-1.701 1.907-3.445 3.511-3.681 3.388-.09-.047-.164-.233-.164-.414 0-.18-.312-.57-.694-.865-.382-.296-.657-.565-.613-.598.687-.507 6.423-3.325 6.55-3.218.04.034-.59.801-1.398 1.707zm6.148 4.375c0 .605-.505 1.321-1.676 2.375-.586.526-1.28 1.18-1.544 1.452-.497.512-1.447 1.112-1.582.998-.175-.148.582-1.153 2.039-2.71.851-.91 1.743-1.888 1.982-2.174.478-.574.781-.551.781.059zm-7.73 4.128c-.361.805-1.565 2.154-1.921 2.154-.084 0-.153-.29-.153-.645 0-.681.46-1.192 1.495-1.655.703-.316.778-.296.58.146zm7.83 3.198c.074.837.085 1.565.023 1.617-.062.052-.406-.094-.764-.326-.36-.231-.874-.492-1.144-.579-.394-.126-.457-.214-.315-.439.264-.416 1.731-1.795 1.91-1.795.086 0 .216.685.29 1.522zm.19 4.817c.133 1.776-.012 6.556-.202 6.717-.049.042-.512-.092-1.029-.297-.88-.349-.962-.355-1.287-.107-1.041.797-.277-.555 1.111-1.966.758-.77.94-1.06.85-1.36-.122-.412-1.58-1.352-2.097-1.352-.174 0-.684.339-1.134.753-.95.875-1.337.824-.514-.068.307-.333.986-1.144 1.51-1.801.909-1.144 2.222-2.393 2.515-2.393.076 0 .202.844.278 1.874zm-8.774-.628c0 .187-.736.828-.95.828-.314 0-.197-.615.148-.785.401-.198.802-.219.802-.043zm-.06 9.856c.064.142-.031.468-.21.725-.269.384-.29.559-.118.974.351.853 1.105 1.393 1.944 1.393.89 0 1.335-.182 2.285-.936.522-.413.758-.516.825-.36.125.29.755.818.976.818.364 0 1.31-.826 2.008-1.752.399-.53.813-.939.921-.908.243.068.372 4.09.138 4.288-.154.13-9.233.534-9.372.416-.036-.03-.165-.95-.287-2.046-.161-1.44-.166-2.113-.018-2.43.225-.484.725-.584.907-.182z" fill="#fff"/></svg>
