<svg width="31" height="50" viewBox="0 0 31 50" fill="none" xmlns="http://www.w3.org/2000/svg">
<path fill-rule="evenodd" clip-rule="evenodd" d="M11.8537 0.274464C9.55 0.759333 7.63818 1.70111 5.77016 3.27078C3.46064 5.21178 1.5178 8.68166 1.5178 10.8658C1.5178 11.6905 1.56486 11.8205 2.02997 12.2813C2.36766 12.6158 2.8536 12.876 3.45694 13.0456C4.3432 13.2947 5.3882 13.7217 8.17194 14.9715C9.99537 15.7903 10.3187 15.6546 11.2088 13.6966C11.825 12.3412 12.3277 12.0116 13.6646 12.086C14.6911 12.1433 15.1935 12.4021 15.7751 13.1738C16.0354 13.519 16.0864 13.7991 16.0676 14.7776C16 18.2715 14.219 21.9401 10.3863 26.4804C8.43265 28.7946 6.63081 30.4827 3.96879 32.4926C1.57535 34.2998 0.956738 34.8959 0.402459 35.93C0.0954682 36.5027 0.0508855 36.8412 0.00553116 38.9437C-0.0225453 40.2464 0.0590609 42.9235 0.186948 44.8928C0.450744 48.9553 0.463085 48.9928 1.75723 49.6405C2.51915 50.0217 2.5281 50.0225 6.45433 49.9835C8.61792 49.962 12.922 49.8362 16.0189 49.7042C19.1158 49.572 23.6012 49.4447 25.9865 49.4213C28.3719 49.3978 30.4005 49.3315 30.4946 49.2739C30.8726 49.0425 30.9731 47.8277 30.9923 43.2562C31.0159 37.6414 31.0819 37.8957 29.4778 37.4228C27.686 36.8947 26.5949 36.8158 20.5998 36.7814C17.3921 36.7631 14.7352 36.6959 14.6956 36.6323C14.6558 36.5686 15.5468 35.2882 16.6756 33.7868C18.8857 30.847 20.7627 28.1105 21.5755 26.6424C21.8548 26.1382 22.1719 25.588 22.2802 25.4199C22.7216 24.7352 24.3488 20.8786 24.861 19.3034C25.7019 16.7166 26.0503 14.8379 26.1498 12.3546C26.2179 10.6586 26.1805 9.83614 25.991 8.84822C24.8338 2.81953 18.374 -1.09808 11.8537 0.274464ZM16.7788 2.32198C17.2391 2.41901 17.6441 2.58435 17.6786 2.68933C17.7132 2.79447 17.6669 2.88035 17.5757 2.88035C17.4845 2.88035 17.0796 3.13203 16.6759 3.43964C16.272 3.74709 15.2128 4.34458 14.3219 4.7671C13.431 5.18978 12.3003 5.76817 11.8091 6.0524C11.318 6.33678 10.8432 6.54521 10.754 6.51587C10.6055 6.46682 11.3767 5.70292 12.5978 4.68963C13.1512 4.23058 13.2256 3.74037 12.851 3.02277C12.5869 2.51696 12.5799 2.52353 13.6277 2.28652C14.4714 2.09582 15.7739 2.11049 16.7788 2.32198ZM8.73378 4.68947C7.34707 6.12712 5.36984 8.4749 4.54174 9.66698C3.99162 10.4588 3.95768 10.5647 4.14342 10.9086C4.39071 11.3664 4.32823 11.4436 3.85386 11.266C3.42469 11.1052 3.45308 10.9057 4.15191 9.17233C5.09108 6.84258 6.44091 5.07196 7.85708 4.31188C8.49096 3.97157 9.56465 3.51191 9.75301 3.50015C9.82783 3.49541 9.3692 4.03055 8.73378 4.68947ZM21.4213 4.02842C21.759 4.23945 22.0309 4.46301 22.0257 4.52505C22.0133 4.67098 16.295 7.48362 16.2007 7.3901C16.0567 7.24753 16.5404 6.84839 18.3315 5.63186C19.3381 4.94834 20.2723 4.22141 20.4077 4.01665C20.5432 3.81188 20.6885 3.6444 20.7306 3.6444C20.7727 3.6444 21.0836 3.81723 21.4213 4.02842ZM23.5974 7.12085C23.8542 7.77106 24.0315 9.45564 23.8835 9.84103C23.7973 10.0654 23.5713 10.2229 23.2401 10.2892C22.9592 10.3455 21.9185 10.7698 20.9272 11.2322C19.9056 11.7087 18.97 12.0507 18.7674 12.0216C18.4549 11.9767 18.6619 11.7116 20.417 9.90857C21.5209 8.77457 22.6225 7.58891 22.8651 7.27366C23.1076 6.95856 23.3342 6.70062 23.3686 6.70062C23.4031 6.70062 23.506 6.88965 23.5974 7.12085ZM12.4707 8.10021C12.4707 8.19755 12.0195 8.70488 11.468 9.2275C10.7996 9.8609 10.4629 10.2987 10.4582 10.5403C10.4537 10.7672 10.0801 11.303 9.46053 11.9712L8.46998 13.0395L7.57878 12.7353C7.07865 12.5646 6.67185 12.3305 6.65179 12.2018C6.61554 11.97 7.20067 11.5033 10.4352 9.18379C12.2021 7.91669 12.4707 7.77366 12.4707 8.10021ZM18.6414 8.50684C18.6414 8.57576 18.3463 8.90247 17.9858 9.23285C17.6252 9.56322 17.1172 10.1048 16.857 10.4365C16.3977 11.0216 16.3695 11.0337 15.9039 10.8426C14.9499 10.4512 15.1693 10.1184 17.1668 8.92784C18.0402 8.40721 18.6414 8.2356 18.6414 8.50684ZM22.3438 12.5939C22.3438 12.8153 21.925 13.4257 21.1973 14.2648C20.7599 14.769 20.1327 15.5598 19.8036 16.0221C19.121 16.9808 18.482 17.703 18.3164 17.703C18.1374 17.703 18.3478 14.7548 18.5496 14.4361C18.9004 13.8818 22.3438 12.2099 22.3438 12.5939ZM22.9684 16.1645C22.6411 16.6199 21.6163 17.3388 21.4828 17.2067C21.4424 17.1668 21.8106 16.626 22.3009 16.005C23.1398 14.9425 23.1952 14.9008 23.2412 15.2965C23.2698 15.5439 23.1575 15.9012 22.9684 16.1645ZM21.4123 21.4634C20.7724 23.0612 19.7881 24.9219 19.3154 25.4271C18.9798 25.7858 18.8563 25.8228 18.2801 25.7372C17.643 25.6426 17.612 25.6582 17.1021 26.3322C16.8143 26.7129 16.5287 27.0245 16.4676 27.0245C16.4065 27.0245 16.055 27.2665 15.6864 27.5622C15.3177 27.858 14.7605 28.305 14.448 28.5555C13.2996 29.4763 13.3844 28.9607 14.7002 27.0245C15.5652 25.7515 17.9305 23.3214 19.2981 22.3006C19.7865 21.936 20.4344 21.3028 20.7377 20.8934C21.8526 19.3891 22.1442 19.6354 21.4123 21.4634ZM6.86869 33.3947C6.23852 34.2273 5.16065 35.4969 4.4737 36.2159C3.7866 36.9348 3.15457 37.7052 3.06911 37.9278C2.88862 38.3982 3.08346 39.0562 3.44382 39.1932C3.87623 39.3575 3.68263 39.828 2.92333 40.4576C2.5085 40.8016 2.09198 41.0831 1.99773 41.0831C1.7327 41.0831 1.7816 38.3844 2.0636 37.4437C2.21601 36.9355 2.50881 36.4469 2.88168 36.0788C4.58077 34.4011 7.82191 31.6901 7.96213 31.829C7.99098 31.8576 7.49887 32.562 6.86869 33.3947ZM12.6444 34.2361C11.3373 36.0012 11.3117 36.027 9.88661 37.0161C8.50839 37.9729 8.19585 37.8991 9.3024 36.8783C9.68097 36.5291 10.0605 36.0621 10.1455 35.8404C10.2325 35.6136 10.4631 35.3971 10.6731 35.3449C10.8782 35.2938 11.1062 35.1331 11.1798 34.9876C11.3623 34.6269 13.3988 32.7827 13.5018 32.8848C13.5472 32.9298 13.1614 33.5379 12.6444 34.2361ZM19.8413 38.6139C20.0881 38.769 19.6029 39.0082 18.078 39.4837L16.9745 39.8277L16.9042 39.4238C16.8655 39.2018 16.7819 38.8997 16.7183 38.7527C16.6128 38.5083 16.7337 38.4854 18.1235 38.4876C18.9598 38.4889 19.7328 38.5458 19.8413 38.6139ZM25.4151 38.6416C26.969 38.8415 27.1305 39.0447 25.8662 39.2091C24.6478 39.3678 22.4862 40.4854 20.9886 41.7313C20.7099 41.9631 20.4141 42.1527 20.3312 42.1527C20.0898 42.1527 21.5701 40.4304 22.1483 40.0384C22.6384 39.7062 22.6679 39.6401 22.5729 39.0834L22.4709 38.4853L23.3715 38.49C23.8669 38.4926 24.7864 38.5609 25.4151 38.6416ZM13.0117 39.4003C12.9599 39.4834 12.5914 39.7366 12.1927 39.9633C11.7941 40.1899 11.215 40.5688 10.9058 40.8055C10.5967 41.0423 10.2362 41.2359 10.1047 41.2359C9.97331 41.2359 9.75919 41.3864 9.62914 41.5705C9.35346 41.9603 9.13302 41.8534 9.36025 41.44C9.63716 40.9359 10.5245 40.2074 11.4512 39.7238C12.3239 39.2681 13.2087 39.0847 13.0117 39.4003ZM28.5569 41.7806C28.6318 42.0273 28.705 43.0659 28.7195 44.0887C28.7432 45.7627 28.7135 45.9913 28.4216 46.3809C28.137 46.7606 27.9671 46.8251 27.0332 46.9085C26.4479 46.9608 25.6567 47.1188 25.2748 47.2598C24.336 47.6065 23.0656 47.6558 23.0011 47.3478C22.9366 47.041 24.6383 44.5052 25.6351 43.4232C26.5395 42.4409 28.0561 41.2122 28.2746 41.2842C28.3548 41.3106 28.4819 41.534 28.5569 41.7806ZM24.893 41.5797C24.9714 41.79 23.4741 43.4782 21.3733 45.548C20.2382 46.6665 20.0245 46.9531 20.062 47.3072L20.1069 47.7303L18.8728 47.8315C17.3522 47.956 9.86285 47.8011 9.76412 47.6429C9.69486 47.5318 9.97161 47.2815 13.0542 44.6665C14.3569 43.561 16.1947 42.3055 16.5096 42.3055C16.8101 42.3055 16.5395 42.6419 14.939 44.2579C14.0057 45.2001 13.2421 46.008 13.2421 46.0534C13.2421 46.0986 13.3403 46.3686 13.4603 46.6533C13.7126 47.251 14.1024 47.5011 14.7823 47.5011C15.472 47.5011 16.0753 47.1449 17.2723 46.0315C18.1834 45.1839 21.5899 42.8398 23.5008 41.7456C24.1811 41.3561 24.7829 41.2845 24.893 41.5797ZM4.86277 42.4477C4.57444 42.7637 4.05827 43.4311 3.71564 43.9308C3.08716 44.8477 2.6475 45.3093 2.52177 45.1846C2.48413 45.1474 2.40684 44.725 2.34992 44.2461L2.24672 43.3752H2.72293C3.07574 43.3752 3.45092 43.162 4.17104 42.5523C5.26031 41.6301 5.66403 41.569 4.86277 42.4477ZM7.46663 45.7401C6.69854 46.6744 6.58376 47.2066 7.07664 47.5486C7.3807 47.7597 7.37577 47.7693 6.91667 47.8604C6.05725 48.0306 3.56862 48.1568 3.14547 48.0515C2.53967 47.901 2.74191 47.5711 3.40526 47.6278C4.09236 47.6865 4.87048 47.3005 5.99153 46.3452C6.45819 45.9475 7.1004 45.4513 7.4185 45.2424C7.73675 45.0337 8.00255 44.786 8.00919 44.692C8.01736 44.578 8.04621 44.5815 8.09588 44.7027C8.13692 44.8026 7.85384 45.2695 7.46663 45.7401Z" fill="white"/>
</svg>
