<?xml version="1.0" standalone="no"?>
<!DOCTYPE svg PUBLIC "-//W3C//DTD SVG 20010904//EN"
 "http://www.w3.org/TR/2001/REC-SVG-20010904/DTD/svg10.dtd">
<svg version="1.0" xmlns="http://www.w3.org/2000/svg"
 width="700.000000pt" height="700.000000pt" viewBox="0 0 700.000000 700.000000"
 preserveAspectRatio="xMidYMid meet">
<metadata>
Created by potrace 1.11, written by Peter Selinger 2001-2013
</metadata>
<g transform="translate(0.000000,700.000000) scale(0.100000,-0.100000)"
fill="#000000" stroke="none">
<path d="M3397 6844 c-1 -1 -47 -5 -102 -8 -109 -7 -156 -12 -225 -21 -25 -4
-61 -9 -80 -11 -88 -12 -266 -48 -385 -79 -1137 -294 -1979 -1100 -2305 -2205
-30 -102 -57 -209 -66 -260 -2 -14 -8 -45 -14 -70 -5 -25 -11 -61 -14 -80 -4
-19 -8 -45 -10 -57 -3 -12 -8 -53 -11 -90 -4 -37 -9 -75 -10 -84 -22 -116 -22
-662 -1 -777 2 -9 7 -44 10 -77 4 -33 9 -71 11 -85 3 -14 7 -40 10 -57 18
-116 40 -218 71 -333 273 -1010 972 -1788 1944 -2165 204 -80 485 -156 698
-189 269 -42 376 -51 662 -51 225 0 392 10 525 30 22 4 54 9 70 11 17 3 57 9
90 15 33 6 70 13 83 15 55 10 70 13 117 25 28 6 91 23 140 36 50 14 95 26 100
27 6 1 15 4 20 8 6 3 30 11 55 18 198 53 614 257 830 409 208 145 428 338 560
491 12 14 36 41 53 60 18 20 48 56 67 80 19 25 38 46 42 48 4 2 8 10 8 17 0 7
4 15 9 17 29 11 218 321 310 508 106 216 214 526 256 735 19 95 46 245 49 275
2 19 7 64 11 100 4 36 9 76 12 90 3 14 6 147 7 295 5 461 -51 824 -188 1220
-99 287 -266 608 -441 845 -178 241 -471 534 -671 670 -12 8 -50 35 -85 60
-105 73 -258 163 -380 222 -126 62 -227 108 -235 108 -3 0 -20 6 -37 14 -69
31 -285 102 -397 131 -118 30 -336 73 -411 80 -15 2 -39 6 -55 9 -16 3 -58 8
-94 11 -36 3 -87 8 -115 11 -49 6 -483 13 -488 8z m343 -1438 c52 -4 111 -9
130 -11 273 -41 488 -115 696 -236 428 -252 723 -679 828 -1201 36 -177 46
-277 45 -478 0 -139 -2 -177 -26 -355 -29 -224 -133 -516 -259 -723 -288 -474
-794 -773 -1389 -819 -149 -12 -394 -6 -505 13 -432 71 -781 248 -1052 532
-277 290 -455 693 -496 1122 -9 99 -9 419 1 495 14 114 32 222 43 257 3 10 7
30 10 45 6 36 51 179 68 218 8 17 17 41 21 55 13 44 107 222 161 305 237 361
603 617 1037 725 146 36 225 48 377 56 63 4 116 8 118 9 2 2 24 1 192 -9z"/>
<path d="M3478 4715 c-2 -1 -33 -5 -69 -9 -87 -8 -252 -50 -341 -87 -261 -107
-473 -302 -595 -544 -38 -75 -87 -213 -102 -285 -6 -30 -13 -68 -17 -85 -4
-16 -8 -102 -9 -190 -2 -124 1 -182 16 -260 48 -254 150 -456 314 -621 159
-160 333 -260 555 -318 133 -35 154 -37 340 -41 301 -5 525 56 760 209 146 95
322 299 390 451 12 28 28 64 36 80 76 171 108 510 69 714 -99 515 -464 876
-977 967 -77 13 -360 28 -370 19z"/>
</g>
</svg>
